%TF.GenerationSoftware,KiCad,Pcbnew,8.0.6*%
%TF.CreationDate,2025-06-24T00:53:43+02:00*%
%TF.ProjectId,main,6d61696e-2e6b-4696-9361-645f70636258,v1.0.0*%
%TF.SameCoordinates,Original*%
%TF.FileFunction,Paste,Bot*%
%TF.FilePolarity,Positive*%
%FSLAX46Y46*%
G04 Gerber Fmt 4.6, Leading zero omitted, Abs format (unit mm)*
G04 Created by KiCad (PCBNEW 8.0.6) date 2025-06-24 00:53:43*
%MOMM*%
%LPD*%
G01*
G04 APERTURE LIST*
G04 Aperture macros list*
%AMRotRect*
0 Rectangle, with rotation*
0 The origin of the aperture is its center*
0 $1 length*
0 $2 width*
0 $3 Rotation angle, in degrees counterclockwise*
0 Add horizontal line*
21,1,$1,$2,0,0,$3*%
G04 Aperture macros list end*
%ADD10RotRect,1.550000X2.000000X17.000000*%
%ADD11RotRect,1.550000X2.000000X343.000000*%
%ADD12RotRect,0.900000X1.200000X17.000000*%
%ADD13RotRect,0.900000X1.200000X12.000000*%
%ADD14RotRect,1.550000X2.000000X348.000000*%
%ADD15RotRect,0.900000X1.200000X343.000000*%
%ADD16RotRect,1.550000X2.000000X22.000000*%
%ADD17RotRect,0.900000X1.200000X348.000000*%
%ADD18RotRect,0.900000X1.200000X323.000000*%
%ADD19RotRect,1.550000X2.000000X323.000000*%
%ADD20RotRect,0.900000X1.200000X22.000000*%
%ADD21RotRect,0.900000X1.200000X37.000000*%
%ADD22RotRect,1.550000X2.000000X12.000000*%
%ADD23RotRect,1.550000X2.000000X338.000000*%
%ADD24RotRect,1.550000X2.000000X37.000000*%
%ADD25RotRect,0.900000X1.200000X338.000000*%
G04 APERTURE END LIST*
D10*
%TO.C,CPG1316*%
X254412383Y-111939001D03*
X259193916Y-110477127D03*
%TD*%
D11*
%TO.C,CPG1316*%
X116385650Y-110665929D03*
X121167169Y-112127797D03*
%TD*%
%TO.C,CPG1316*%
X121355974Y-94408746D03*
X126137493Y-95870614D03*
%TD*%
%TO.C,CPG1316*%
X125918275Y-137631247D03*
X130699794Y-139093115D03*
%TD*%
D12*
%TO.C,D34*%
X226409371Y-133728372D03*
X229565187Y-132763540D03*
%TD*%
D13*
%TO.C,D26*%
X275754951Y-112779316D03*
X278982843Y-112093208D03*
%TD*%
D10*
%TO.C,CPG1316*%
X231723020Y-95870617D03*
X236504553Y-94408743D03*
%TD*%
D14*
%TO.C,CPG1316*%
X73399425Y-133778073D03*
X78290158Y-134817642D03*
%TD*%
D11*
%TO.C,CPG1316*%
X103636930Y-94219957D03*
X108418449Y-95681825D03*
%TD*%
D15*
%TO.C,D10*%
X113792381Y-122055391D03*
X116948183Y-123020221D03*
%TD*%
D12*
%TO.C,D29*%
X253661050Y-106574242D03*
X256816866Y-105609410D03*
%TD*%
D13*
%TO.C,D25*%
X279289451Y-129407826D03*
X282517343Y-128721718D03*
%TD*%
D15*
%TO.C,D16*%
X143967773Y-139646470D03*
X147123575Y-140611300D03*
%TD*%
D10*
%TO.C,CPG1316*%
X227160712Y-139093123D03*
X231942245Y-137631249D03*
%TD*%
D16*
%TO.C,CPG1316*%
X217600048Y-164253913D03*
X222235962Y-162380892D03*
%TD*%
D15*
%TO.C,D9*%
X106013975Y-89352234D03*
X109169777Y-90317064D03*
%TD*%
D17*
%TO.C,D3*%
X65783656Y-91930202D03*
X69011562Y-92616312D03*
%TD*%
D11*
%TO.C,CPG1316*%
X151531355Y-111999825D03*
X156312874Y-113461693D03*
%TD*%
D17*
%TO.C,D2*%
X62249155Y-108558711D03*
X65477061Y-109244821D03*
%TD*%
D18*
%TO.C,D21*%
X155828149Y-167394794D03*
X158463647Y-169380764D03*
%TD*%
D14*
%TO.C,CPG1316*%
X76933932Y-117149569D03*
X81824665Y-118189138D03*
%TD*%
D12*
%TO.C,D35*%
X221439057Y-117471192D03*
X224594873Y-116506360D03*
%TD*%
D10*
%TO.C,CPG1316*%
X222190390Y-122835948D03*
X226971923Y-121374074D03*
%TD*%
D15*
%TO.C,D12*%
X123733012Y-89541030D03*
X126888814Y-90505860D03*
%TD*%
D19*
%TO.C,CPG1316*%
X151929596Y-171155938D03*
X155922778Y-174165012D03*
%TD*%
D13*
%TO.C,D23*%
X292383459Y-109244824D03*
X295611351Y-108558716D03*
%TD*%
D12*
%TO.C,D33*%
X230971689Y-90505872D03*
X234127505Y-89541040D03*
%TD*%
D17*
%TO.C,D4*%
X75343168Y-128721726D03*
X78571074Y-129407836D03*
%TD*%
D12*
%TO.C,D36*%
X216468737Y-101214016D03*
X219624553Y-100249184D03*
%TD*%
D20*
%TO.C,D41*%
X216384019Y-158975073D03*
X219443719Y-157738871D03*
%TD*%
D14*
%TO.C,CPG1316*%
X60305402Y-113615069D03*
X65196135Y-114654638D03*
%TD*%
D11*
%TO.C,CPG1316*%
X98666615Y-110477134D03*
X103448134Y-111939002D03*
%TD*%
D10*
%TO.C,CPG1316*%
X201547641Y-113461700D03*
X206329174Y-111999826D03*
%TD*%
%TO.C,CPG1316*%
X241663655Y-128384975D03*
X246445188Y-126923101D03*
%TD*%
%TO.C,CPG1316*%
X211488272Y-145976060D03*
X216269805Y-144514186D03*
%TD*%
%TO.C,CPG1316*%
X236693339Y-112127797D03*
X241474872Y-110665923D03*
%TD*%
D15*
%TO.C,D14*%
X133265648Y-116506364D03*
X136421450Y-117471194D03*
%TD*%
D21*
%TO.C,D42*%
X199396861Y-169380774D03*
X202032367Y-167394772D03*
%TD*%
D12*
%TO.C,D30*%
X248690734Y-90317072D03*
X251846550Y-89352240D03*
%TD*%
D13*
%TO.C,D22*%
X295917965Y-125873331D03*
X299145857Y-125187223D03*
%TD*%
D15*
%TO.C,D7*%
X96073336Y-121866593D03*
X99229138Y-122831423D03*
%TD*%
D22*
%TO.C,CPG1316*%
X289129869Y-98026129D03*
X294020606Y-96986571D03*
%TD*%
%TO.C,CPG1316*%
X279570352Y-134817629D03*
X284461089Y-133778071D03*
%TD*%
D12*
%TO.C,D28*%
X258631365Y-122831428D03*
X261787181Y-121866596D03*
%TD*%
%TO.C,D31*%
X240912331Y-123020225D03*
X244068147Y-122055393D03*
%TD*%
D11*
%TO.C,CPG1316*%
X119114535Y-156464969D03*
X123896054Y-157926837D03*
%TD*%
D17*
%TO.C,D6*%
X82412166Y-95464705D03*
X85640072Y-96150815D03*
%TD*%
D10*
%TO.C,CPG1316*%
X217220068Y-106578764D03*
X222001601Y-105116890D03*
%TD*%
D12*
%TO.C,D37*%
X210736939Y-140611299D03*
X213892755Y-139646467D03*
%TD*%
D22*
%TO.C,CPG1316*%
X292664362Y-114654631D03*
X297555099Y-113615073D03*
%TD*%
D11*
%TO.C,CPG1316*%
X141590717Y-144514184D03*
X146372236Y-145976052D03*
%TD*%
%TO.C,CPG1316*%
X130888600Y-121374072D03*
X135670119Y-122835940D03*
%TD*%
D12*
%TO.C,D40*%
X233213112Y-152562092D03*
X236368928Y-151597260D03*
%TD*%
D11*
%TO.C,CPG1316*%
X93696287Y-126734315D03*
X98477806Y-128196183D03*
%TD*%
D17*
%TO.C,D5*%
X78877661Y-112093217D03*
X82105567Y-112779327D03*
%TD*%
D10*
%TO.C,CPG1316*%
X233964447Y-157926841D03*
X238745980Y-156464967D03*
%TD*%
D22*
%TO.C,CPG1316*%
X276035865Y-118189135D03*
X280926602Y-117149577D03*
%TD*%
D15*
%TO.C,D19*%
X121491586Y-151597267D03*
X124647388Y-152562097D03*
%TD*%
D14*
%TO.C,CPG1316*%
X63839908Y-96986559D03*
X68730641Y-98026128D03*
%TD*%
%TO.C,CPG1316*%
X80468421Y-100521057D03*
X85359154Y-101560626D03*
%TD*%
D12*
%TO.C,D38*%
X205766616Y-124354120D03*
X208922432Y-123389288D03*
%TD*%
D23*
%TO.C,CPG1316*%
X135624543Y-162380886D03*
X140260465Y-164253929D03*
%TD*%
D10*
%TO.C,CPG1316*%
X206517948Y-129718872D03*
X211299481Y-128256998D03*
%TD*%
%TO.C,CPG1316*%
X259382694Y-128196188D03*
X264164227Y-126734314D03*
%TD*%
D11*
%TO.C,CPG1316*%
X146561044Y-128257004D03*
X151342563Y-129718872D03*
%TD*%
D15*
%TO.C,D13*%
X128295327Y-132763537D03*
X131451129Y-133728367D03*
%TD*%
D12*
%TO.C,D39*%
X200796295Y-108096933D03*
X203952111Y-107132101D03*
%TD*%
D22*
%TO.C,CPG1316*%
X296198863Y-131283134D03*
X301089600Y-130243576D03*
%TD*%
D13*
%TO.C,D27*%
X272220455Y-96150807D03*
X275448347Y-95464699D03*
%TD*%
D11*
%TO.C,CPG1316*%
X135858923Y-105116907D03*
X140640442Y-106578775D03*
%TD*%
D15*
%TO.C,D15*%
X138235967Y-100249176D03*
X141391769Y-101214006D03*
%TD*%
%TO.C,D17*%
X148938082Y-123389294D03*
X152093884Y-124354124D03*
%TD*%
%TO.C,D8*%
X101043659Y-105609419D03*
X104199461Y-106574249D03*
%TD*%
%TO.C,D11*%
X118762692Y-105798212D03*
X121918494Y-106763042D03*
%TD*%
D12*
%TO.C,D32*%
X235942013Y-106763047D03*
X239097829Y-105798215D03*
%TD*%
D17*
%TO.C,D1*%
X58714658Y-125187218D03*
X61942564Y-125873328D03*
%TD*%
D10*
%TO.C,CPG1316*%
X249442056Y-95681818D03*
X254223589Y-94219944D03*
%TD*%
D11*
%TO.C,CPG1316*%
X111415326Y-126923111D03*
X116196845Y-128384979D03*
%TD*%
D15*
%TO.C,D18*%
X153908401Y-107132109D03*
X157064203Y-108096939D03*
%TD*%
D24*
%TO.C,CPG1316*%
X201937721Y-174165019D03*
X205930903Y-171155947D03*
%TD*%
D22*
%TO.C,CPG1316*%
X272501365Y-101560624D03*
X277392102Y-100521066D03*
%TD*%
D25*
%TO.C,D20*%
X138416786Y-157738878D03*
X141476500Y-158975070D03*
%TD*%
D13*
%TO.C,D24*%
X288848962Y-92616311D03*
X292076854Y-91930203D03*
%TD*%
D14*
%TO.C,CPG1316*%
X56770909Y-130243575D03*
X61661642Y-131283144D03*
%TD*%
M02*
