%TF.GenerationSoftware,KiCad,Pcbnew,8.0.6*%
%TF.CreationDate,2025-07-21T16:42:00+02:00*%
%TF.ProjectId,main,6d61696e-2e6b-4696-9361-645f70636258,v1.0.0*%
%TF.SameCoordinates,Original*%
%TF.FileFunction,Paste,Top*%
%TF.FilePolarity,Positive*%
%FSLAX46Y46*%
G04 Gerber Fmt 4.6, Leading zero omitted, Abs format (unit mm)*
G04 Created by KiCad (PCBNEW 8.0.6) date 2025-07-21 16:42:00*
%MOMM*%
%LPD*%
G01*
G04 APERTURE LIST*
G04 Aperture macros list*
%AMRotRect*
0 Rectangle, with rotation*
0 The origin of the aperture is its center*
0 $1 length*
0 $2 width*
0 $3 Rotation angle, in degrees counterclockwise*
0 Add horizontal line*
21,1,$1,$2,0,0,$3*%
G04 Aperture macros list end*
%ADD10RotRect,1.550000X2.000000X17.000000*%
%ADD11RotRect,2.000000X2.000000X17.000000*%
%ADD12RotRect,1.550000X2.000000X343.000000*%
%ADD13RotRect,2.000000X2.000000X343.000000*%
%ADD14RotRect,1.550000X2.000000X348.000000*%
%ADD15RotRect,2.000000X2.000000X348.000000*%
%ADD16RotRect,1.550000X2.000000X22.000000*%
%ADD17RotRect,2.000000X2.000000X22.000000*%
%ADD18RotRect,1.550000X2.000000X323.000000*%
%ADD19RotRect,2.000000X2.000000X323.000000*%
%ADD20RotRect,1.550000X2.000000X12.000000*%
%ADD21RotRect,2.000000X2.000000X12.000000*%
%ADD22RotRect,1.550000X2.000000X338.000000*%
%ADD23RotRect,2.000000X2.000000X338.000000*%
%ADD24RotRect,1.550000X2.000000X37.000000*%
%ADD25RotRect,2.000000X2.000000X37.000000*%
%ADD26RotRect,0.900000X1.200000X17.000000*%
%ADD27RotRect,0.900000X1.200000X12.000000*%
%ADD28RotRect,0.900000X1.200000X343.000000*%
%ADD29RotRect,0.900000X1.200000X348.000000*%
%ADD30RotRect,0.900000X1.200000X323.000000*%
%ADD31RotRect,0.900000X1.200000X22.000000*%
%ADD32RotRect,0.900000X1.200000X37.000000*%
%ADD33RotRect,1.000000X0.800000X150.000000*%
%ADD34RotRect,0.700000X1.500000X150.000000*%
%ADD35RotRect,0.900000X1.200000X338.000000*%
G04 APERTURE END LIST*
D10*
%TO.C,CPG1316*%
X255368691Y-111646613D03*
X258237602Y-110769495D03*
D11*
X248201592Y-104792580D03*
X251710054Y-116268237D03*
X260346668Y-101079459D03*
X263855130Y-112555116D03*
%TD*%
D12*
%TO.C,CPG1316*%
X117341952Y-110958296D03*
X120210869Y-111835410D03*
D13*
X115232890Y-101268255D03*
X111724425Y-112743911D03*
X127377961Y-104981377D03*
X123869496Y-116457033D03*
%TD*%
D12*
%TO.C,CPG1316*%
X122312272Y-94701117D03*
X125181189Y-95578231D03*
D13*
X120203210Y-85011076D03*
X116694745Y-96486732D03*
X132348281Y-88724198D03*
X128839816Y-100199854D03*
%TD*%
D12*
%TO.C,CPG1316*%
X126874571Y-137923618D03*
X129743488Y-138800732D03*
D13*
X124765509Y-128233577D03*
X121257044Y-139709233D03*
X136910580Y-131946699D03*
X133402115Y-143422355D03*
%TD*%
D10*
%TO.C,CPG1316*%
X232679329Y-95578235D03*
X235548240Y-94701117D03*
D11*
X225512230Y-88724202D03*
X229020692Y-100199859D03*
X237657306Y-85011081D03*
X241165768Y-96486738D03*
%TD*%
D14*
%TO.C,CPG1316*%
X74377568Y-133985993D03*
X77312008Y-134609731D03*
D15*
X71431984Y-124516650D03*
X68937043Y-136254416D03*
X83854461Y-127157128D03*
X81359520Y-138894894D03*
%TD*%
D12*
%TO.C,CPG1316*%
X104593234Y-94512337D03*
X107462151Y-95389451D03*
D13*
X102484172Y-84822296D03*
X98975707Y-96297952D03*
X114629243Y-88535418D03*
X111120778Y-100011074D03*
%TD*%
D10*
%TO.C,CPG1316*%
X228117024Y-138800745D03*
X230985935Y-137923627D03*
D11*
X220949925Y-131946712D03*
X224458387Y-143422369D03*
X233095001Y-128233591D03*
X236603463Y-139709248D03*
%TD*%
D16*
%TO.C,CPG1316*%
X218527225Y-163879309D03*
X221308782Y-162755488D03*
D17*
X210790041Y-157676011D03*
X215285319Y-168802213D03*
X222565279Y-152918509D03*
X227060557Y-164044711D03*
%TD*%
D12*
%TO.C,CPG1316*%
X152487654Y-112292201D03*
X155356571Y-113169315D03*
D13*
X150378592Y-102602160D03*
X146870127Y-114077816D03*
X162523663Y-106315282D03*
X159015198Y-117790938D03*
%TD*%
D10*
%TO.C,CPG1316*%
X223146705Y-122543566D03*
X226015616Y-121666448D03*
D11*
X215979606Y-115689533D03*
X219488068Y-127165190D03*
X228124682Y-111976412D03*
X231633144Y-123452069D03*
%TD*%
D18*
%TO.C,CPG1316*%
X152728241Y-171757748D03*
X155124145Y-173563191D03*
D19*
X154060561Y-161930747D03*
X146838775Y-171514370D03*
X164203229Y-169573796D03*
X156981443Y-179157419D03*
%TD*%
D14*
%TO.C,CPG1316*%
X61283549Y-113822983D03*
X64217989Y-114446721D03*
D15*
X58337965Y-104353640D03*
X55843024Y-116091406D03*
X70760442Y-106994118D03*
X68265501Y-118731884D03*
%TD*%
D12*
%TO.C,CPG1316*%
X99622913Y-110769504D03*
X102491830Y-111646618D03*
D13*
X97513851Y-101079463D03*
X94005386Y-112555119D03*
X109658922Y-104792585D03*
X106150457Y-116268241D03*
%TD*%
D10*
%TO.C,CPG1316*%
X202503954Y-113169318D03*
X205372865Y-112292200D03*
D11*
X195336855Y-106315285D03*
X198845317Y-117790942D03*
X207481931Y-102602164D03*
X210990393Y-114077821D03*
%TD*%
D10*
%TO.C,CPG1316*%
X212444581Y-145683684D03*
X215313492Y-144806566D03*
D11*
X205277482Y-138829651D03*
X208785944Y-150305308D03*
X217422558Y-135116530D03*
X220931020Y-146592187D03*
%TD*%
D10*
%TO.C,CPG1316*%
X237649651Y-111835417D03*
X240518562Y-110958299D03*
D11*
X230482552Y-104981384D03*
X233991014Y-116457041D03*
X242627628Y-101268263D03*
X246136090Y-112743920D03*
%TD*%
D20*
%TO.C,CPG1316*%
X290108013Y-97818223D03*
X293042456Y-97194490D03*
D21*
X283565563Y-90365623D03*
X286060501Y-102103390D03*
X295988037Y-87725142D03*
X298482975Y-99462909D03*
%TD*%
D20*
%TO.C,CPG1316*%
X280548487Y-134609723D03*
X283482930Y-133985990D03*
D21*
X274006037Y-127157123D03*
X276500975Y-138894890D03*
X286428511Y-124516642D03*
X288923449Y-136254409D03*
%TD*%
D12*
%TO.C,CPG1316*%
X120070840Y-156757343D03*
X122939757Y-157634457D03*
D13*
X117961778Y-147067302D03*
X114453313Y-158542958D03*
X130106849Y-150780424D03*
X126598384Y-162256080D03*
%TD*%
D10*
%TO.C,CPG1316*%
X218176382Y-106286383D03*
X221045293Y-105409265D03*
D11*
X211009283Y-99432350D03*
X214517745Y-110908007D03*
X223154359Y-95719229D03*
X226662821Y-107194886D03*
%TD*%
D20*
%TO.C,CPG1316*%
X293642496Y-114446722D03*
X296576939Y-113822989D03*
D21*
X287100046Y-106994122D03*
X289594984Y-118731889D03*
X299522520Y-104353641D03*
X302017458Y-116091408D03*
%TD*%
D12*
%TO.C,CPG1316*%
X142547013Y-144806560D03*
X145415930Y-145683674D03*
D13*
X140437951Y-135116519D03*
X136929486Y-146592175D03*
X152583022Y-138829641D03*
X149074557Y-150305297D03*
%TD*%
D12*
%TO.C,CPG1316*%
X131844904Y-121666458D03*
X134713821Y-122543572D03*
D13*
X129735842Y-111976417D03*
X126227377Y-123452073D03*
X141880913Y-115689539D03*
X138372448Y-127165195D03*
%TD*%
D12*
%TO.C,CPG1316*%
X94652591Y-127026700D03*
X97521508Y-127903814D03*
D13*
X92543529Y-117336659D03*
X89035064Y-128812315D03*
X104688600Y-121049781D03*
X101180135Y-132525437D03*
%TD*%
D10*
%TO.C,CPG1316*%
X234920756Y-157634456D03*
X237789667Y-156757338D03*
D11*
X227753657Y-150780423D03*
X231262119Y-162256080D03*
X239898733Y-147067302D03*
X243407195Y-158542959D03*
%TD*%
D20*
%TO.C,CPG1316*%
X277014003Y-117981226D03*
X279948446Y-117357493D03*
D21*
X270471553Y-110528626D03*
X272966491Y-122266393D03*
X282894027Y-107888145D03*
X285388965Y-119625912D03*
%TD*%
D14*
%TO.C,CPG1316*%
X64818055Y-97194481D03*
X67752495Y-97818219D03*
D15*
X61872471Y-87725138D03*
X59377530Y-99462904D03*
X74294948Y-90365616D03*
X71800007Y-102103382D03*
%TD*%
D14*
%TO.C,CPG1316*%
X81446569Y-100728970D03*
X84381009Y-101352708D03*
D15*
X78500985Y-91259627D03*
X76006044Y-102997393D03*
X90923462Y-93900105D03*
X88428521Y-105637871D03*
%TD*%
D22*
%TO.C,CPG1316*%
X136551734Y-162755496D03*
X139333287Y-163879311D03*
D23*
X135295237Y-152918511D03*
X130799957Y-164044715D03*
X147070475Y-157676019D03*
X142575195Y-168802223D03*
%TD*%
D10*
%TO.C,CPG1316*%
X207474261Y-129426488D03*
X210343172Y-128549370D03*
D11*
X200307162Y-122572455D03*
X203815624Y-134048112D03*
X212452238Y-118859334D03*
X215960700Y-130334991D03*
%TD*%
D10*
%TO.C,CPG1316*%
X260339000Y-127903811D03*
X263207911Y-127026693D03*
D11*
X253171901Y-121049778D03*
X256680363Y-132525435D03*
X265316977Y-117336657D03*
X268825439Y-128812314D03*
%TD*%
D12*
%TO.C,CPG1316*%
X147517340Y-128549381D03*
X150386257Y-129426495D03*
D13*
X145408278Y-118859340D03*
X141899813Y-130334996D03*
X157553349Y-122572462D03*
X154044884Y-134048118D03*
%TD*%
D20*
%TO.C,CPG1316*%
X297177004Y-131075225D03*
X300111447Y-130451492D03*
D21*
X290634554Y-123622625D03*
X293129492Y-135360392D03*
X303057028Y-120982144D03*
X305551966Y-132719911D03*
%TD*%
D12*
%TO.C,CPG1316*%
X136815223Y-105409284D03*
X139684140Y-106286398D03*
D13*
X134706161Y-95719243D03*
X131197696Y-107194899D03*
X146851232Y-99432365D03*
X143342767Y-110908021D03*
%TD*%
D10*
%TO.C,CPG1316*%
X250398368Y-95389438D03*
X253267279Y-94512320D03*
D11*
X243231269Y-88535405D03*
X246739731Y-100011062D03*
X255376345Y-84822284D03*
X258884807Y-96297941D03*
%TD*%
D12*
%TO.C,CPG1316*%
X112371623Y-127215492D03*
X115240540Y-128092606D03*
D13*
X110262561Y-117525451D03*
X106754096Y-129001107D03*
X122407632Y-121238573D03*
X118899167Y-132714229D03*
%TD*%
D24*
%TO.C,CPG1316*%
X202736364Y-173563198D03*
X205132273Y-171757754D03*
D25*
X193657281Y-169573805D03*
X200879064Y-179157425D03*
X203799952Y-161930757D03*
X211021735Y-171514377D03*
%TD*%
D20*
%TO.C,CPG1316*%
X273479508Y-101352715D03*
X276413951Y-100728982D03*
D21*
X266937058Y-93900115D03*
X269431996Y-105637882D03*
X279359532Y-91259634D03*
X281854470Y-102997401D03*
%TD*%
D14*
%TO.C,CPG1316*%
X57749062Y-130451492D03*
X60683502Y-131075230D03*
D15*
X54803478Y-120982149D03*
X52308537Y-132719915D03*
X67225955Y-123622627D03*
X64731014Y-135360393D03*
%TD*%
D26*
%TO.C,D34*%
X226409368Y-133728372D03*
X229565184Y-132763546D03*
%TD*%
D27*
%TO.C,D26*%
X275754947Y-112779311D03*
X278982843Y-112093213D03*
%TD*%
D28*
%TO.C,D10*%
X113792384Y-122055404D03*
X116948178Y-123020222D03*
%TD*%
D26*
%TO.C,D29*%
X253661050Y-106574237D03*
X256816866Y-105609411D03*
%TD*%
D27*
%TO.C,D25*%
X279289451Y-129407820D03*
X282517347Y-128721722D03*
%TD*%
D28*
%TO.C,D16*%
X143967775Y-139646473D03*
X147123569Y-140611291D03*
%TD*%
%TO.C,D9*%
X106013978Y-89352238D03*
X109169772Y-90317056D03*
%TD*%
D29*
%TO.C,D3*%
X65783647Y-91930199D03*
X69011565Y-92616311D03*
%TD*%
%TO.C,D2*%
X62249149Y-108558715D03*
X65477067Y-109244827D03*
%TD*%
D30*
%TO.C,D21*%
X155828152Y-167394793D03*
X158463646Y-169380761D03*
%TD*%
D26*
%TO.C,D35*%
X221439059Y-117471187D03*
X224594875Y-116506361D03*
%TD*%
D28*
%TO.C,D12*%
X123733006Y-89541039D03*
X126888800Y-90505857D03*
%TD*%
D27*
%TO.C,D23*%
X292383461Y-109244815D03*
X295611357Y-108558717D03*
%TD*%
D26*
%TO.C,D33*%
X230971692Y-90505865D03*
X234127508Y-89541039D03*
%TD*%
D29*
%TO.C,D4*%
X75343162Y-128721729D03*
X78571080Y-129407841D03*
%TD*%
D26*
%TO.C,D36*%
X216468735Y-101214008D03*
X219624551Y-100249182D03*
%TD*%
D31*
%TO.C,D41*%
X216384021Y-158975081D03*
X219443711Y-157738873D03*
%TD*%
D28*
%TO.C,D14*%
X133265660Y-116506373D03*
X136421454Y-117471191D03*
%TD*%
D32*
%TO.C,D42*%
X199396859Y-169380777D03*
X202032367Y-167394767D03*
%TD*%
D26*
%TO.C,D30*%
X248690734Y-90317066D03*
X251846550Y-89352240D03*
%TD*%
D27*
%TO.C,D22*%
X295917966Y-125873331D03*
X299145862Y-125187233D03*
%TD*%
D28*
%TO.C,D7*%
X96073338Y-121866595D03*
X99229132Y-122831413D03*
%TD*%
D26*
%TO.C,D28*%
X258631370Y-122831424D03*
X261787186Y-121866598D03*
%TD*%
%TO.C,D31*%
X240912332Y-123020218D03*
X244068148Y-122055392D03*
%TD*%
D29*
%TO.C,D6*%
X82412158Y-95464702D03*
X85640076Y-96150814D03*
%TD*%
D26*
%TO.C,D37*%
X210736936Y-140611295D03*
X213892752Y-139646469D03*
%TD*%
%TO.C,D40*%
X233213112Y-152562090D03*
X236368928Y-151597264D03*
%TD*%
D29*
%TO.C,D5*%
X78877653Y-112093218D03*
X82105571Y-112779330D03*
%TD*%
D28*
%TO.C,D19*%
X121491593Y-151597272D03*
X124647387Y-152562090D03*
%TD*%
D26*
%TO.C,D38*%
X205766622Y-124354121D03*
X208922438Y-123389295D03*
%TD*%
D28*
%TO.C,D13*%
X128295332Y-132763541D03*
X131451126Y-133728359D03*
%TD*%
D26*
%TO.C,D39*%
X200796290Y-108096937D03*
X203952106Y-107132111D03*
%TD*%
D33*
%TO.C,PWR1*%
X142431954Y-93311297D03*
X136109981Y-89661283D03*
X137214960Y-87747366D03*
X143536956Y-91397370D03*
D34*
X140894513Y-93174206D03*
X138296440Y-91674213D03*
X136997409Y-90924206D03*
%TD*%
D27*
%TO.C,D27*%
X272220456Y-96150798D03*
X275448352Y-95464700D03*
%TD*%
D28*
%TO.C,D15*%
X138235974Y-100249181D03*
X141391768Y-101213999D03*
%TD*%
%TO.C,D17*%
X148938090Y-123389298D03*
X152093884Y-124354116D03*
%TD*%
%TO.C,D8*%
X101043666Y-105609426D03*
X104199460Y-106574244D03*
%TD*%
%TO.C,D11*%
X118762693Y-105798218D03*
X121918487Y-106763036D03*
%TD*%
D26*
%TO.C,D32*%
X235942017Y-106763039D03*
X239097833Y-105798213D03*
%TD*%
D29*
%TO.C,D1*%
X58714652Y-125187219D03*
X61942570Y-125873331D03*
%TD*%
D28*
%TO.C,D18*%
X153908407Y-107132118D03*
X157064201Y-108096936D03*
%TD*%
D35*
%TO.C,D20*%
X138416791Y-157738879D03*
X141476501Y-158975077D03*
%TD*%
D27*
%TO.C,D24*%
X288848963Y-92616310D03*
X292076859Y-91930212D03*
%TD*%
D14*
%TO.C,CPG1316*%
X77912084Y-117357488D03*
X80846524Y-117981226D03*
D15*
X74966500Y-107888145D03*
X72471559Y-119625911D03*
X87388977Y-110528623D03*
X84894036Y-122266389D03*
%TD*%
D10*
%TO.C,CPG1316*%
X242619972Y-128092594D03*
X245488883Y-127215476D03*
D11*
X235452873Y-121238561D03*
X238961335Y-132714218D03*
X247597949Y-117525440D03*
X251106411Y-129001097D03*
%TD*%
M02*
