%TF.GenerationSoftware,KiCad,Pcbnew,8.0.6*%
%TF.CreationDate,2025-05-16T17:03:23+02:00*%
%TF.ProjectId,main,6d61696e-2e6b-4696-9361-645f70636258,v1.0.0*%
%TF.SameCoordinates,Original*%
%TF.FileFunction,Profile,NP*%
%FSLAX46Y46*%
G04 Gerber Fmt 4.6, Leading zero omitted, Abs format (unit mm)*
G04 Created by KiCad (PCBNEW 8.0.6) date 2025-05-16 17:03:23*
%MOMM*%
%LPD*%
G01*
G04 APERTURE LIST*
%TA.AperFunction,Profile*%
%ADD10C,0.050000*%
%TD*%
%TA.AperFunction,Profile*%
%ADD11C,0.150000*%
%TD*%
%TA.AperFunction,Profile*%
%ADD12C,0.100000*%
%TD*%
G04 APERTURE END LIST*
D10*
X181500000Y-102000000D02*
X184500000Y-104500000D01*
D11*
X104172426Y-76226955D02*
G75*
G02*
X104704583Y-76176429I453474J-1948445D01*
G01*
X89621478Y-144222724D02*
G75*
G02*
X89132327Y-144190955I-115978J1995924D01*
G01*
X220021005Y-180691404D02*
G75*
G02*
X220514538Y-180418986I1203895J-1597796D01*
G01*
X124314194Y-77015005D02*
X144906307Y-83310646D01*
X121266752Y-167060474D02*
G75*
G02*
X120233439Y-166317541I590148J1910874D01*
G01*
X256290555Y-77015005D02*
G75*
G02*
X256796554Y-76929160I584745J-1912495D01*
G01*
D10*
X184500000Y-135000000D02*
X196500000Y-135000000D01*
D11*
X220021005Y-180691404D02*
X203212839Y-193357266D01*
D10*
X179621221Y-102132093D02*
X181500000Y-102000000D01*
D11*
X48832588Y-136536214D02*
G75*
G02*
X47249453Y-134155510I373212J1964914D01*
G01*
X160090213Y-180418980D02*
G75*
G02*
X160583740Y-180691408I-710413J-1870220D01*
G01*
X256796554Y-76929165D02*
X275900165Y-76176433D01*
X78109832Y-82293463D02*
G75*
G02*
X77240594Y-82301841I-453432J1947763D01*
G01*
X120233414Y-166317559D02*
X104388907Y-144294857D01*
D10*
X196500000Y-135000000D02*
X196500000Y-104500000D01*
D11*
X102649491Y-143466255D02*
G75*
G02*
X104388926Y-144294844I115909J-1996745D01*
G01*
D10*
X184500000Y-104500000D02*
X184500000Y-135000000D01*
D11*
X315233259Y-140097071D02*
G75*
G02*
X315157243Y-140111696I-415559J1955071D01*
G01*
X178595540Y-193759995D02*
G75*
G02*
X177391920Y-193357252I-40J1999795D01*
G01*
X235698442Y-83310646D02*
X256290555Y-77015005D01*
X47249510Y-134155522D02*
X58675518Y-80400384D01*
X291456202Y-144198006D02*
G75*
G02*
X291000460Y-144223722I-339802J1970806D01*
G01*
X235316967Y-83472135D02*
G75*
G02*
X235698445Y-83310655I965933J-1750565D01*
G01*
X239743723Y-173115840D02*
X220514536Y-180418980D01*
X203212839Y-193357266D02*
G75*
G02*
X202009209Y-193760022I-1203639J1597166D01*
G01*
X333364374Y-134198502D02*
G75*
G02*
X331823908Y-136570651I-1956374J-415798D01*
G01*
X239743723Y-173115840D02*
G75*
G02*
X239863679Y-173074585I709977J-1869360D01*
G01*
X102649491Y-143466255D02*
X89621478Y-144222724D01*
X303364153Y-82301832D02*
X319557112Y-78859913D01*
D10*
X199500000Y-102000000D02*
X200983527Y-102132093D01*
D11*
X140741070Y-173074585D02*
X121266752Y-167060474D01*
X259337997Y-167060474D02*
X239863679Y-173074585D01*
X315157243Y-140111697D02*
X291456202Y-144198006D01*
X201949745Y-101883213D02*
G75*
G02*
X200983527Y-102132083I-966145J1750913D01*
G01*
X123808195Y-76929165D02*
G75*
G02*
X124314193Y-77015009I-78895J-1999235D01*
G01*
X201949745Y-101883213D02*
X235316967Y-83472135D01*
X276432322Y-76226955D02*
X302494917Y-82293463D01*
X145287782Y-83472135D02*
X178655003Y-101883213D01*
X276215841Y-144294857D02*
G75*
G02*
X277955259Y-143466233I1623559J-1168143D01*
G01*
X177391910Y-193357266D02*
X160583743Y-180691404D01*
X291000460Y-144223722D02*
X277955258Y-143466255D01*
X61047636Y-78859913D02*
X77240596Y-82301832D01*
X260371334Y-166317559D02*
G75*
G02*
X259337998Y-167060477I-1623434J1167959D01*
G01*
D10*
X196500000Y-104500000D02*
X199500000Y-102000000D01*
D11*
X140741070Y-173074585D02*
G75*
G02*
X140861025Y-173115841I-590770J-1912715D01*
G01*
X321929231Y-80400384D02*
X333364374Y-134198502D01*
X275900165Y-76176433D02*
G75*
G02*
X276432322Y-76226955I78735J-1998567D01*
G01*
X104704583Y-76176433D02*
X123808195Y-76929165D01*
X319557112Y-78859913D02*
G75*
G02*
X321929259Y-80400378I415788J-1956387D01*
G01*
X202009209Y-193759995D02*
X178595540Y-193759995D01*
X160090213Y-180418980D02*
X140861025Y-173115840D01*
X276215841Y-144294857D02*
X260371334Y-166317559D01*
X58675518Y-80400384D02*
G75*
G02*
X61047634Y-78859922I1956282J-415816D01*
G01*
X144906307Y-83310646D02*
G75*
G02*
X145287784Y-83472131I-584607J-1912354D01*
G01*
X303364153Y-82301832D02*
G75*
G02*
X302494914Y-82293475I-415853J1956032D01*
G01*
X179621221Y-102132093D02*
G75*
G02*
X178655010Y-101883200I-21J1999793D01*
G01*
X331823902Y-136570621D02*
X315233259Y-140097071D01*
X78109832Y-82293463D02*
X104172426Y-76226955D01*
X89132326Y-144190956D02*
X48832588Y-136536215D01*
D12*
%TO.C,CPG1316*%
X95023833Y-126696766D02*
G75*
G02*
X93823833Y-126696766I-600000J0D01*
G01*
X93823833Y-126696766D02*
G75*
G02*
X95023833Y-126696766I600000J0D01*
G01*
X107625014Y-124828602D02*
G75*
G02*
X106625012Y-124828602I-500001J0D01*
G01*
X106625012Y-124828602D02*
G75*
G02*
X107625014Y-124828602I500001J0D01*
G01*
X250501069Y-112692026D02*
G75*
G02*
X249301069Y-112692026I-600000J0D01*
G01*
X249301069Y-112692026D02*
G75*
G02*
X250501069Y-112692026I600000J0D01*
G01*
X259886159Y-104040838D02*
G75*
G02*
X258886159Y-104040838I-500000J0D01*
G01*
X258886159Y-104040838D02*
G75*
G02*
X259886159Y-104040838I500000J0D01*
G01*
X154211151Y-128061077D02*
G75*
G02*
X153011151Y-128061077I-600000J0D01*
G01*
X153011151Y-128061077D02*
G75*
G02*
X154211151Y-128061077I600000J0D01*
G01*
X166812332Y-126192913D02*
G75*
G02*
X165812330Y-126192913I-500001J0D01*
G01*
X165812330Y-126192913D02*
G75*
G02*
X166812332Y-126192913I500001J0D01*
G01*
X293800874Y-117432588D02*
G75*
G02*
X292600876Y-117432588I-599999J0D01*
G01*
X292600876Y-117432588D02*
G75*
G02*
X293800874Y-117432588I599999J0D01*
G01*
X303903873Y-109641000D02*
G75*
G02*
X302903873Y-109641000I-500000J0D01*
G01*
X302903873Y-109641000D02*
G75*
G02*
X303903873Y-109641000I500000J0D01*
G01*
X244946007Y-94522236D02*
G75*
G02*
X243746007Y-94522236I-600000J0D01*
G01*
X243746007Y-94522236D02*
G75*
G02*
X244946007Y-94522236I600000J0D01*
G01*
X254331097Y-85871048D02*
G75*
G02*
X253331097Y-85871048I-500000J0D01*
G01*
X253331097Y-85871048D02*
G75*
G02*
X254331097Y-85871048I500000J0D01*
G01*
X76657361Y-115020812D02*
G75*
G02*
X75457361Y-115020812I-600000J0D01*
G01*
X75457361Y-115020812D02*
G75*
G02*
X76657361Y-115020812I600000J0D01*
G01*
X89047387Y-112052776D02*
G75*
G02*
X88047387Y-112052776I-500000J0D01*
G01*
X88047387Y-112052776D02*
G75*
G02*
X89047387Y-112052776I500000J0D01*
G01*
X202767237Y-184441132D02*
G75*
G02*
X201567237Y-184441132I-600000J0D01*
G01*
X201567237Y-184441132D02*
G75*
G02*
X202767237Y-184441132I600000J0D01*
G01*
X208621427Y-173067582D02*
G75*
G02*
X207621427Y-173067582I-500000J0D01*
G01*
X207621427Y-173067582D02*
G75*
G02*
X208621427Y-173067582I500000J0D01*
G01*
X297751197Y-136017393D02*
G75*
G02*
X296551199Y-136017393I-599999J0D01*
G01*
X296551199Y-136017393D02*
G75*
G02*
X297751197Y-136017393I599999J0D01*
G01*
X307854196Y-128225805D02*
G75*
G02*
X306854196Y-128225805I-500000J0D01*
G01*
X306854196Y-128225805D02*
G75*
G02*
X307854196Y-128225805I500000J0D01*
G01*
X125765607Y-91130724D02*
G75*
G02*
X124565607Y-91130724I-600000J0D01*
G01*
X124565607Y-91130724D02*
G75*
G02*
X125765607Y-91130724I600000J0D01*
G01*
X138366788Y-89262560D02*
G75*
G02*
X137366786Y-89262560I-500001J0D01*
G01*
X137366786Y-89262560D02*
G75*
G02*
X138366788Y-89262560I500001J0D01*
G01*
X242247530Y-164362899D02*
G75*
G02*
X241047530Y-164362899I-600000J0D01*
G01*
X241047530Y-164362899D02*
G75*
G02*
X242247530Y-164362899I600000J0D01*
G01*
X251632620Y-155711711D02*
G75*
G02*
X250632620Y-155711711I-500000J0D01*
G01*
X250632620Y-155711711D02*
G75*
G02*
X251632620Y-155711711I500000J0D01*
G01*
X264577656Y-93748697D02*
G75*
G02*
X263377656Y-93748697I-600000J0D01*
G01*
X263377656Y-93748697D02*
G75*
G02*
X264577656Y-93748697I600000J0D01*
G01*
X273962746Y-85097509D02*
G75*
G02*
X272962746Y-85097509I-500000J0D01*
G01*
X272962746Y-85097509D02*
G75*
G02*
X273962746Y-85097509I500000J0D01*
G01*
X114655482Y-127470304D02*
G75*
G02*
X113455482Y-127470304I-600000J0D01*
G01*
X113455482Y-127470304D02*
G75*
G02*
X114655482Y-127470304I600000J0D01*
G01*
X127256663Y-125602140D02*
G75*
G02*
X126256661Y-125602140I-500001J0D01*
G01*
X126256661Y-125602140D02*
G75*
G02*
X127256663Y-125602140I500001J0D01*
G01*
X131071042Y-138763195D02*
G75*
G02*
X129871042Y-138763195I-600000J0D01*
G01*
X129871042Y-138763195D02*
G75*
G02*
X131071042Y-138763195I600000J0D01*
G01*
X143672223Y-136895031D02*
G75*
G02*
X142672221Y-136895031I-500001J0D01*
G01*
X142672221Y-136895031D02*
G75*
G02*
X143672223Y-136895031I500001J0D01*
G01*
X270132718Y-111918487D02*
G75*
G02*
X268932718Y-111918487I-600000J0D01*
G01*
X268932718Y-111918487D02*
G75*
G02*
X270132718Y-111918487I600000J0D01*
G01*
X279517808Y-103267299D02*
G75*
G02*
X278517808Y-103267299I-500000J0D01*
G01*
X278517808Y-103267299D02*
G75*
G02*
X279517808Y-103267299I500000J0D01*
G01*
X289850552Y-98847784D02*
G75*
G02*
X288650554Y-98847784I-599999J0D01*
G01*
X288650554Y-98847784D02*
G75*
G02*
X289850552Y-98847784I599999J0D01*
G01*
X299953551Y-91056196D02*
G75*
G02*
X298953551Y-91056196I-500000J0D01*
G01*
X298953551Y-91056196D02*
G75*
G02*
X299953551Y-91056196I500000J0D01*
G01*
X100578895Y-108526975D02*
G75*
G02*
X99378895Y-108526975I-600000J0D01*
G01*
X99378895Y-108526975D02*
G75*
G02*
X100578895Y-108526975I600000J0D01*
G01*
X113180076Y-106658811D02*
G75*
G02*
X112180074Y-106658811I-500001J0D01*
G01*
X112180074Y-106658811D02*
G75*
G02*
X113180076Y-106658811I500001J0D01*
G01*
X106133958Y-90357185D02*
G75*
G02*
X104933958Y-90357185I-600000J0D01*
G01*
X104933958Y-90357185D02*
G75*
G02*
X106133958Y-90357185I600000J0D01*
G01*
X118735139Y-88489021D02*
G75*
G02*
X117735137Y-88489021I-500001J0D01*
G01*
X117735137Y-88489021D02*
G75*
G02*
X118735139Y-88489021I500001J0D01*
G01*
X210945400Y-113282798D02*
G75*
G02*
X209745400Y-113282798I-600000J0D01*
G01*
X209745400Y-113282798D02*
G75*
G02*
X210945400Y-113282798I600000J0D01*
G01*
X220330490Y-104631610D02*
G75*
G02*
X219330490Y-104631610I-500000J0D01*
G01*
X219330490Y-104631610D02*
G75*
G02*
X220330490Y-104631610I500000J0D01*
G01*
X239640572Y-142154707D02*
G75*
G02*
X238440572Y-142154707I-600000J0D01*
G01*
X238440572Y-142154707D02*
G75*
G02*
X239640572Y-142154707I600000J0D01*
G01*
X249025662Y-133503519D02*
G75*
G02*
X248025662Y-133503519I-500000J0D01*
G01*
X248025662Y-133503519D02*
G75*
G02*
X249025662Y-133503519I500000J0D01*
G01*
X148656089Y-146230867D02*
G75*
G02*
X147456089Y-146230867I-600000J0D01*
G01*
X147456089Y-146230867D02*
G75*
G02*
X148656089Y-146230867I600000J0D01*
G01*
X161257270Y-144362703D02*
G75*
G02*
X160257268Y-144362703I-500001J0D01*
G01*
X160257268Y-144362703D02*
G75*
G02*
X161257270Y-144362703I500001J0D01*
G01*
X228530447Y-105815126D02*
G75*
G02*
X227330447Y-105815126I-600000J0D01*
G01*
X227330447Y-105815126D02*
G75*
G02*
X228530447Y-105815126I600000J0D01*
G01*
X237915537Y-97163938D02*
G75*
G02*
X236915537Y-97163938I-500000J0D01*
G01*
X236915537Y-97163938D02*
G75*
G02*
X237915537Y-97163938I500000J0D01*
G01*
X54122235Y-129655294D02*
G75*
G02*
X52922235Y-129655294I-600000J0D01*
G01*
X52922235Y-129655294D02*
G75*
G02*
X54122235Y-129655294I600000J0D01*
G01*
X66512261Y-126687258D02*
G75*
G02*
X65512261Y-126687258I-500000J0D01*
G01*
X65512261Y-126687258D02*
G75*
G02*
X66512261Y-126687258I500000J0D01*
G01*
X58072557Y-111070490D02*
G75*
G02*
X56872557Y-111070490I-600000J0D01*
G01*
X56872557Y-111070490D02*
G75*
G02*
X58072557Y-111070490I600000J0D01*
G01*
X70462583Y-108102454D02*
G75*
G02*
X69462583Y-108102454I-500000J0D01*
G01*
X69462583Y-108102454D02*
G75*
G02*
X70462583Y-108102454I500000J0D01*
G01*
X128464084Y-160971387D02*
G75*
G02*
X127264084Y-160971387I-600000J0D01*
G01*
X127264084Y-160971387D02*
G75*
G02*
X128464084Y-160971387I600000J0D01*
G01*
X141065265Y-159103223D02*
G75*
G02*
X140065263Y-159103223I-500001J0D01*
G01*
X140065263Y-159103223D02*
G75*
G02*
X141065265Y-159103223I500001J0D01*
G01*
X234085509Y-123984917D02*
G75*
G02*
X232885509Y-123984917I-600000J0D01*
G01*
X232885509Y-123984917D02*
G75*
G02*
X234085509Y-123984917I600000J0D01*
G01*
X243470599Y-115333729D02*
G75*
G02*
X242470599Y-115333729I-500000J0D01*
G01*
X242470599Y-115333729D02*
G75*
G02*
X243470599Y-115333729I500000J0D01*
G01*
X149126259Y-167855587D02*
G75*
G02*
X147926259Y-167855587I-600000J0D01*
G01*
X147926259Y-167855587D02*
G75*
G02*
X149126259Y-167855587I600000J0D01*
G01*
X161841927Y-167101515D02*
G75*
G02*
X160841927Y-167101515I-500000J0D01*
G01*
X160841927Y-167101515D02*
G75*
G02*
X161841927Y-167101515I500000J0D01*
G01*
X142181167Y-102423614D02*
G75*
G02*
X140981167Y-102423614I-600000J0D01*
G01*
X140981167Y-102423614D02*
G75*
G02*
X142181167Y-102423614I600000J0D01*
G01*
X154782348Y-100555450D02*
G75*
G02*
X153782346Y-100555450I-500001J0D01*
G01*
X153782346Y-100555450D02*
G75*
G02*
X154782348Y-100555450I500001J0D01*
G01*
X312385679Y-113482266D02*
G75*
G02*
X311185681Y-113482266I-599999J0D01*
G01*
X311185681Y-113482266D02*
G75*
G02*
X312385679Y-113482266I599999J0D01*
G01*
X322488678Y-105690678D02*
G75*
G02*
X321488678Y-105690678I-500000J0D01*
G01*
X321488678Y-105690678D02*
G75*
G02*
X322488678Y-105690678I500000J0D01*
G01*
X120210544Y-109300514D02*
G75*
G02*
X119010544Y-109300514I-600000J0D01*
G01*
X119010544Y-109300514D02*
G75*
G02*
X120210544Y-109300514I600000J0D01*
G01*
X132811725Y-107432350D02*
G75*
G02*
X131811723Y-107432350I-500001J0D01*
G01*
X131811723Y-107432350D02*
G75*
G02*
X132811725Y-107432350I500001J0D01*
G01*
X221923158Y-172201025D02*
G75*
G02*
X220723156Y-172201025I-600001J0D01*
G01*
X220723156Y-172201025D02*
G75*
G02*
X221923158Y-172201025I600001J0D01*
G01*
X230518153Y-162756077D02*
G75*
G02*
X229518153Y-162756077I-500000J0D01*
G01*
X229518153Y-162756077D02*
G75*
G02*
X230518153Y-162756077I500000J0D01*
G01*
X159766214Y-109891286D02*
G75*
G02*
X158566214Y-109891286I-600000J0D01*
G01*
X158566214Y-109891286D02*
G75*
G02*
X159766214Y-109891286I600000J0D01*
G01*
X172367395Y-108023122D02*
G75*
G02*
X171367393Y-108023122I-500001J0D01*
G01*
X171367393Y-108023122D02*
G75*
G02*
X172367395Y-108023122I500001J0D01*
G01*
X169773342Y-177460078D02*
G75*
G02*
X168573340Y-177460078I-600001J0D01*
G01*
X168573340Y-177460078D02*
G75*
G02*
X169773342Y-177460078I600001J0D01*
G01*
X182247491Y-180048636D02*
G75*
G02*
X181247495Y-180048636I-499998J0D01*
G01*
X181247495Y-180048636D02*
G75*
G02*
X182247491Y-180048636I499998J0D01*
G01*
X80607683Y-96436008D02*
G75*
G02*
X79407683Y-96436008I-600000J0D01*
G01*
X79407683Y-96436008D02*
G75*
G02*
X80607683Y-96436008I600000J0D01*
G01*
X92997709Y-93467972D02*
G75*
G02*
X91997709Y-93467972I-500000J0D01*
G01*
X91997709Y-93467972D02*
G75*
G02*
X92997709Y-93467972I500000J0D01*
G01*
X222055525Y-149622379D02*
G75*
G02*
X220855525Y-149622379I-600000J0D01*
G01*
X220855525Y-149622379D02*
G75*
G02*
X222055525Y-149622379I600000J0D01*
G01*
X231440615Y-140971191D02*
G75*
G02*
X230440615Y-140971191I-500000J0D01*
G01*
X230440615Y-140971191D02*
G75*
G02*
X231440615Y-140971191I500000J0D01*
G01*
X62022879Y-92485686D02*
G75*
G02*
X60822879Y-92485686I-600000J0D01*
G01*
X60822879Y-92485686D02*
G75*
G02*
X62022879Y-92485686I600000J0D01*
G01*
X74412905Y-89517650D02*
G75*
G02*
X73412905Y-89517650I-500000J0D01*
G01*
X73412905Y-89517650D02*
G75*
G02*
X74412905Y-89517650I500000J0D01*
G01*
X275687781Y-130088278D02*
G75*
G02*
X274487781Y-130088278I-600000J0D01*
G01*
X274487781Y-130088278D02*
G75*
G02*
X275687781Y-130088278I600000J0D01*
G01*
X285072871Y-121437090D02*
G75*
G02*
X284072871Y-121437090I-500000J0D01*
G01*
X284072871Y-121437090D02*
G75*
G02*
X285072871Y-121437090I500000J0D01*
G01*
X256056132Y-130861816D02*
G75*
G02*
X254856132Y-130861816I-600000J0D01*
G01*
X254856132Y-130861816D02*
G75*
G02*
X256056132Y-130861816I600000J0D01*
G01*
X265441222Y-122210628D02*
G75*
G02*
X264441222Y-122210628I-500000J0D01*
G01*
X264441222Y-122210628D02*
G75*
G02*
X265441222Y-122210628I500000J0D01*
G01*
X316336001Y-132067070D02*
G75*
G02*
X315136003Y-132067070I-599999J0D01*
G01*
X315136003Y-132067070D02*
G75*
G02*
X316336001Y-132067070I599999J0D01*
G01*
X326439000Y-124275482D02*
G75*
G02*
X325439000Y-124275482I-500000J0D01*
G01*
X325439000Y-124275482D02*
G75*
G02*
X326439000Y-124275482I500000J0D01*
G01*
X216500462Y-131452589D02*
G75*
G02*
X215300462Y-131452589I-600000J0D01*
G01*
X215300462Y-131452589D02*
G75*
G02*
X216500462Y-131452589I600000J0D01*
G01*
X225885552Y-122801401D02*
G75*
G02*
X224885552Y-122801401I-500000J0D01*
G01*
X224885552Y-122801401D02*
G75*
G02*
X225885552Y-122801401I500000J0D01*
G01*
X136626104Y-120593405D02*
G75*
G02*
X135426104Y-120593405I-600000J0D01*
G01*
X135426104Y-120593405D02*
G75*
G02*
X136626104Y-120593405I600000J0D01*
G01*
X149227285Y-118725241D02*
G75*
G02*
X148227283Y-118725241I-500001J0D01*
G01*
X148227283Y-118725241D02*
G75*
G02*
X149227285Y-118725241I500001J0D01*
G01*
X308435357Y-94897462D02*
G75*
G02*
X307235359Y-94897462I-599999J0D01*
G01*
X307235359Y-94897462D02*
G75*
G02*
X308435357Y-94897462I599999J0D01*
G01*
X318538356Y-87105874D02*
G75*
G02*
X317538356Y-87105874I-500000J0D01*
G01*
X317538356Y-87105874D02*
G75*
G02*
X318538356Y-87105874I500000J0D01*
G01*
X72707039Y-133605617D02*
G75*
G02*
X71507039Y-133605617I-600000J0D01*
G01*
X71507039Y-133605617D02*
G75*
G02*
X72707039Y-133605617I600000J0D01*
G01*
X85097065Y-130637581D02*
G75*
G02*
X84097065Y-130637581I-500000J0D01*
G01*
X84097065Y-130637581D02*
G75*
G02*
X85097065Y-130637581I500000J0D01*
G01*
%TD*%
M02*
