%TF.GenerationSoftware,KiCad,Pcbnew,8.0.6*%
%TF.CreationDate,2025-05-16T17:03:22+02:00*%
%TF.ProjectId,main,6d61696e-2e6b-4696-9361-645f70636258,v1.0.0*%
%TF.SameCoordinates,Original*%
%TF.FileFunction,Legend,Bot*%
%TF.FilePolarity,Positive*%
%FSLAX46Y46*%
G04 Gerber Fmt 4.6, Leading zero omitted, Abs format (unit mm)*
G04 Created by KiCad (PCBNEW 8.0.6) date 2025-05-16 17:03:22*
%MOMM*%
%LPD*%
G01*
G04 APERTURE LIST*
%ADD10C,0.150000*%
%ADD11C,0.100000*%
%ADD12C,0.120000*%
G04 APERTURE END LIST*
D10*
X195708094Y-108794819D02*
X195708094Y-107794819D01*
X195708094Y-107794819D02*
X195327142Y-107794819D01*
X195327142Y-107794819D02*
X195231904Y-107842438D01*
X195231904Y-107842438D02*
X195184285Y-107890057D01*
X195184285Y-107890057D02*
X195136666Y-107985295D01*
X195136666Y-107985295D02*
X195136666Y-108128152D01*
X195136666Y-108128152D02*
X195184285Y-108223390D01*
X195184285Y-108223390D02*
X195231904Y-108271009D01*
X195231904Y-108271009D02*
X195327142Y-108318628D01*
X195327142Y-108318628D02*
X195708094Y-108318628D01*
X194517618Y-107794819D02*
X194422380Y-107794819D01*
X194422380Y-107794819D02*
X194327142Y-107842438D01*
X194327142Y-107842438D02*
X194279523Y-107890057D01*
X194279523Y-107890057D02*
X194231904Y-107985295D01*
X194231904Y-107985295D02*
X194184285Y-108175771D01*
X194184285Y-108175771D02*
X194184285Y-108413866D01*
X194184285Y-108413866D02*
X194231904Y-108604342D01*
X194231904Y-108604342D02*
X194279523Y-108699580D01*
X194279523Y-108699580D02*
X194327142Y-108747200D01*
X194327142Y-108747200D02*
X194422380Y-108794819D01*
X194422380Y-108794819D02*
X194517618Y-108794819D01*
X194517618Y-108794819D02*
X194612856Y-108747200D01*
X194612856Y-108747200D02*
X194660475Y-108699580D01*
X194660475Y-108699580D02*
X194708094Y-108604342D01*
X194708094Y-108604342D02*
X194755713Y-108413866D01*
X194755713Y-108413866D02*
X194755713Y-108175771D01*
X194755713Y-108175771D02*
X194708094Y-107985295D01*
X194708094Y-107985295D02*
X194660475Y-107890057D01*
X194660475Y-107890057D02*
X194612856Y-107842438D01*
X194612856Y-107842438D02*
X194517618Y-107794819D01*
X187244285Y-129114819D02*
X187244285Y-128114819D01*
X187244285Y-128114819D02*
X186863333Y-128114819D01*
X186863333Y-128114819D02*
X186768095Y-128162438D01*
X186768095Y-128162438D02*
X186720476Y-128210057D01*
X186720476Y-128210057D02*
X186672857Y-128305295D01*
X186672857Y-128305295D02*
X186672857Y-128448152D01*
X186672857Y-128448152D02*
X186720476Y-128543390D01*
X186720476Y-128543390D02*
X186768095Y-128591009D01*
X186768095Y-128591009D02*
X186863333Y-128638628D01*
X186863333Y-128638628D02*
X187244285Y-128638628D01*
X185720476Y-129114819D02*
X186291904Y-129114819D01*
X186006190Y-129114819D02*
X186006190Y-128114819D01*
X186006190Y-128114819D02*
X186101428Y-128257676D01*
X186101428Y-128257676D02*
X186196666Y-128352914D01*
X186196666Y-128352914D02*
X186291904Y-128400533D01*
X184863333Y-128448152D02*
X184863333Y-129114819D01*
X185101428Y-128067200D02*
X185339523Y-128781485D01*
X185339523Y-128781485D02*
X184720476Y-128781485D01*
X195708094Y-106254819D02*
X195708094Y-105254819D01*
X195708094Y-105254819D02*
X195327142Y-105254819D01*
X195327142Y-105254819D02*
X195231904Y-105302438D01*
X195231904Y-105302438D02*
X195184285Y-105350057D01*
X195184285Y-105350057D02*
X195136666Y-105445295D01*
X195136666Y-105445295D02*
X195136666Y-105588152D01*
X195136666Y-105588152D02*
X195184285Y-105683390D01*
X195184285Y-105683390D02*
X195231904Y-105731009D01*
X195231904Y-105731009D02*
X195327142Y-105778628D01*
X195327142Y-105778628D02*
X195708094Y-105778628D01*
X194184285Y-106254819D02*
X194755713Y-106254819D01*
X194469999Y-106254819D02*
X194469999Y-105254819D01*
X194469999Y-105254819D02*
X194565237Y-105397676D01*
X194565237Y-105397676D02*
X194660475Y-105492914D01*
X194660475Y-105492914D02*
X194755713Y-105540533D01*
X195708094Y-131654819D02*
X195708094Y-130654819D01*
X195708094Y-130654819D02*
X195327142Y-130654819D01*
X195327142Y-130654819D02*
X195231904Y-130702438D01*
X195231904Y-130702438D02*
X195184285Y-130750057D01*
X195184285Y-130750057D02*
X195136666Y-130845295D01*
X195136666Y-130845295D02*
X195136666Y-130988152D01*
X195136666Y-130988152D02*
X195184285Y-131083390D01*
X195184285Y-131083390D02*
X195231904Y-131131009D01*
X195231904Y-131131009D02*
X195327142Y-131178628D01*
X195327142Y-131178628D02*
X195708094Y-131178628D01*
X194565237Y-131083390D02*
X194660475Y-131035771D01*
X194660475Y-131035771D02*
X194708094Y-130988152D01*
X194708094Y-130988152D02*
X194755713Y-130892914D01*
X194755713Y-130892914D02*
X194755713Y-130845295D01*
X194755713Y-130845295D02*
X194708094Y-130750057D01*
X194708094Y-130750057D02*
X194660475Y-130702438D01*
X194660475Y-130702438D02*
X194565237Y-130654819D01*
X194565237Y-130654819D02*
X194374761Y-130654819D01*
X194374761Y-130654819D02*
X194279523Y-130702438D01*
X194279523Y-130702438D02*
X194231904Y-130750057D01*
X194231904Y-130750057D02*
X194184285Y-130845295D01*
X194184285Y-130845295D02*
X194184285Y-130892914D01*
X194184285Y-130892914D02*
X194231904Y-130988152D01*
X194231904Y-130988152D02*
X194279523Y-131035771D01*
X194279523Y-131035771D02*
X194374761Y-131083390D01*
X194374761Y-131083390D02*
X194565237Y-131083390D01*
X194565237Y-131083390D02*
X194660475Y-131131009D01*
X194660475Y-131131009D02*
X194708094Y-131178628D01*
X194708094Y-131178628D02*
X194755713Y-131273866D01*
X194755713Y-131273866D02*
X194755713Y-131464342D01*
X194755713Y-131464342D02*
X194708094Y-131559580D01*
X194708094Y-131559580D02*
X194660475Y-131607200D01*
X194660475Y-131607200D02*
X194565237Y-131654819D01*
X194565237Y-131654819D02*
X194374761Y-131654819D01*
X194374761Y-131654819D02*
X194279523Y-131607200D01*
X194279523Y-131607200D02*
X194231904Y-131559580D01*
X194231904Y-131559580D02*
X194184285Y-131464342D01*
X194184285Y-131464342D02*
X194184285Y-131273866D01*
X194184285Y-131273866D02*
X194231904Y-131178628D01*
X194231904Y-131178628D02*
X194279523Y-131131009D01*
X194279523Y-131131009D02*
X194374761Y-131083390D01*
X195708094Y-124034819D02*
X195708094Y-123034819D01*
X195708094Y-123034819D02*
X195327142Y-123034819D01*
X195327142Y-123034819D02*
X195231904Y-123082438D01*
X195231904Y-123082438D02*
X195184285Y-123130057D01*
X195184285Y-123130057D02*
X195136666Y-123225295D01*
X195136666Y-123225295D02*
X195136666Y-123368152D01*
X195136666Y-123368152D02*
X195184285Y-123463390D01*
X195184285Y-123463390D02*
X195231904Y-123511009D01*
X195231904Y-123511009D02*
X195327142Y-123558628D01*
X195327142Y-123558628D02*
X195708094Y-123558628D01*
X194231904Y-123034819D02*
X194708094Y-123034819D01*
X194708094Y-123034819D02*
X194755713Y-123511009D01*
X194755713Y-123511009D02*
X194708094Y-123463390D01*
X194708094Y-123463390D02*
X194612856Y-123415771D01*
X194612856Y-123415771D02*
X194374761Y-123415771D01*
X194374761Y-123415771D02*
X194279523Y-123463390D01*
X194279523Y-123463390D02*
X194231904Y-123511009D01*
X194231904Y-123511009D02*
X194184285Y-123606247D01*
X194184285Y-123606247D02*
X194184285Y-123844342D01*
X194184285Y-123844342D02*
X194231904Y-123939580D01*
X194231904Y-123939580D02*
X194279523Y-123987200D01*
X194279523Y-123987200D02*
X194374761Y-124034819D01*
X194374761Y-124034819D02*
X194612856Y-124034819D01*
X194612856Y-124034819D02*
X194708094Y-123987200D01*
X194708094Y-123987200D02*
X194755713Y-123939580D01*
X187244285Y-124034819D02*
X187244285Y-123034819D01*
X187244285Y-123034819D02*
X186863333Y-123034819D01*
X186863333Y-123034819D02*
X186768095Y-123082438D01*
X186768095Y-123082438D02*
X186720476Y-123130057D01*
X186720476Y-123130057D02*
X186672857Y-123225295D01*
X186672857Y-123225295D02*
X186672857Y-123368152D01*
X186672857Y-123368152D02*
X186720476Y-123463390D01*
X186720476Y-123463390D02*
X186768095Y-123511009D01*
X186768095Y-123511009D02*
X186863333Y-123558628D01*
X186863333Y-123558628D02*
X187244285Y-123558628D01*
X185720476Y-124034819D02*
X186291904Y-124034819D01*
X186006190Y-124034819D02*
X186006190Y-123034819D01*
X186006190Y-123034819D02*
X186101428Y-123177676D01*
X186101428Y-123177676D02*
X186196666Y-123272914D01*
X186196666Y-123272914D02*
X186291904Y-123320533D01*
X185149047Y-123463390D02*
X185244285Y-123415771D01*
X185244285Y-123415771D02*
X185291904Y-123368152D01*
X185291904Y-123368152D02*
X185339523Y-123272914D01*
X185339523Y-123272914D02*
X185339523Y-123225295D01*
X185339523Y-123225295D02*
X185291904Y-123130057D01*
X185291904Y-123130057D02*
X185244285Y-123082438D01*
X185244285Y-123082438D02*
X185149047Y-123034819D01*
X185149047Y-123034819D02*
X184958571Y-123034819D01*
X184958571Y-123034819D02*
X184863333Y-123082438D01*
X184863333Y-123082438D02*
X184815714Y-123130057D01*
X184815714Y-123130057D02*
X184768095Y-123225295D01*
X184768095Y-123225295D02*
X184768095Y-123272914D01*
X184768095Y-123272914D02*
X184815714Y-123368152D01*
X184815714Y-123368152D02*
X184863333Y-123415771D01*
X184863333Y-123415771D02*
X184958571Y-123463390D01*
X184958571Y-123463390D02*
X185149047Y-123463390D01*
X185149047Y-123463390D02*
X185244285Y-123511009D01*
X185244285Y-123511009D02*
X185291904Y-123558628D01*
X185291904Y-123558628D02*
X185339523Y-123653866D01*
X185339523Y-123653866D02*
X185339523Y-123844342D01*
X185339523Y-123844342D02*
X185291904Y-123939580D01*
X185291904Y-123939580D02*
X185244285Y-123987200D01*
X185244285Y-123987200D02*
X185149047Y-124034819D01*
X185149047Y-124034819D02*
X184958571Y-124034819D01*
X184958571Y-124034819D02*
X184863333Y-123987200D01*
X184863333Y-123987200D02*
X184815714Y-123939580D01*
X184815714Y-123939580D02*
X184768095Y-123844342D01*
X184768095Y-123844342D02*
X184768095Y-123653866D01*
X184768095Y-123653866D02*
X184815714Y-123558628D01*
X184815714Y-123558628D02*
X184863333Y-123511009D01*
X184863333Y-123511009D02*
X184958571Y-123463390D01*
X187244285Y-116414819D02*
X187244285Y-115414819D01*
X187244285Y-115414819D02*
X186863333Y-115414819D01*
X186863333Y-115414819D02*
X186768095Y-115462438D01*
X186768095Y-115462438D02*
X186720476Y-115510057D01*
X186720476Y-115510057D02*
X186672857Y-115605295D01*
X186672857Y-115605295D02*
X186672857Y-115748152D01*
X186672857Y-115748152D02*
X186720476Y-115843390D01*
X186720476Y-115843390D02*
X186768095Y-115891009D01*
X186768095Y-115891009D02*
X186863333Y-115938628D01*
X186863333Y-115938628D02*
X187244285Y-115938628D01*
X186291904Y-115510057D02*
X186244285Y-115462438D01*
X186244285Y-115462438D02*
X186149047Y-115414819D01*
X186149047Y-115414819D02*
X185910952Y-115414819D01*
X185910952Y-115414819D02*
X185815714Y-115462438D01*
X185815714Y-115462438D02*
X185768095Y-115510057D01*
X185768095Y-115510057D02*
X185720476Y-115605295D01*
X185720476Y-115605295D02*
X185720476Y-115700533D01*
X185720476Y-115700533D02*
X185768095Y-115843390D01*
X185768095Y-115843390D02*
X186339523Y-116414819D01*
X186339523Y-116414819D02*
X185720476Y-116414819D01*
X184768095Y-116414819D02*
X185339523Y-116414819D01*
X185053809Y-116414819D02*
X185053809Y-115414819D01*
X185053809Y-115414819D02*
X185149047Y-115557676D01*
X185149047Y-115557676D02*
X185244285Y-115652914D01*
X185244285Y-115652914D02*
X185339523Y-115700533D01*
X186577619Y-111334819D02*
X186910952Y-110858628D01*
X187149047Y-111334819D02*
X187149047Y-110334819D01*
X187149047Y-110334819D02*
X186768095Y-110334819D01*
X186768095Y-110334819D02*
X186672857Y-110382438D01*
X186672857Y-110382438D02*
X186625238Y-110430057D01*
X186625238Y-110430057D02*
X186577619Y-110525295D01*
X186577619Y-110525295D02*
X186577619Y-110668152D01*
X186577619Y-110668152D02*
X186625238Y-110763390D01*
X186625238Y-110763390D02*
X186672857Y-110811009D01*
X186672857Y-110811009D02*
X186768095Y-110858628D01*
X186768095Y-110858628D02*
X187149047Y-110858628D01*
X186196666Y-111287200D02*
X186053809Y-111334819D01*
X186053809Y-111334819D02*
X185815714Y-111334819D01*
X185815714Y-111334819D02*
X185720476Y-111287200D01*
X185720476Y-111287200D02*
X185672857Y-111239580D01*
X185672857Y-111239580D02*
X185625238Y-111144342D01*
X185625238Y-111144342D02*
X185625238Y-111049104D01*
X185625238Y-111049104D02*
X185672857Y-110953866D01*
X185672857Y-110953866D02*
X185720476Y-110906247D01*
X185720476Y-110906247D02*
X185815714Y-110858628D01*
X185815714Y-110858628D02*
X186006190Y-110811009D01*
X186006190Y-110811009D02*
X186101428Y-110763390D01*
X186101428Y-110763390D02*
X186149047Y-110715771D01*
X186149047Y-110715771D02*
X186196666Y-110620533D01*
X186196666Y-110620533D02*
X186196666Y-110525295D01*
X186196666Y-110525295D02*
X186149047Y-110430057D01*
X186149047Y-110430057D02*
X186101428Y-110382438D01*
X186101428Y-110382438D02*
X186006190Y-110334819D01*
X186006190Y-110334819D02*
X185768095Y-110334819D01*
X185768095Y-110334819D02*
X185625238Y-110382438D01*
X185339523Y-110334819D02*
X184768095Y-110334819D01*
X185053809Y-111334819D02*
X185053809Y-110334819D01*
X187244285Y-121494819D02*
X187244285Y-120494819D01*
X187244285Y-120494819D02*
X186863333Y-120494819D01*
X186863333Y-120494819D02*
X186768095Y-120542438D01*
X186768095Y-120542438D02*
X186720476Y-120590057D01*
X186720476Y-120590057D02*
X186672857Y-120685295D01*
X186672857Y-120685295D02*
X186672857Y-120828152D01*
X186672857Y-120828152D02*
X186720476Y-120923390D01*
X186720476Y-120923390D02*
X186768095Y-120971009D01*
X186768095Y-120971009D02*
X186863333Y-121018628D01*
X186863333Y-121018628D02*
X187244285Y-121018628D01*
X185720476Y-121494819D02*
X186291904Y-121494819D01*
X186006190Y-121494819D02*
X186006190Y-120494819D01*
X186006190Y-120494819D02*
X186101428Y-120637676D01*
X186101428Y-120637676D02*
X186196666Y-120732914D01*
X186196666Y-120732914D02*
X186291904Y-120780533D01*
X185244285Y-121494819D02*
X185053809Y-121494819D01*
X185053809Y-121494819D02*
X184958571Y-121447200D01*
X184958571Y-121447200D02*
X184910952Y-121399580D01*
X184910952Y-121399580D02*
X184815714Y-121256723D01*
X184815714Y-121256723D02*
X184768095Y-121066247D01*
X184768095Y-121066247D02*
X184768095Y-120685295D01*
X184768095Y-120685295D02*
X184815714Y-120590057D01*
X184815714Y-120590057D02*
X184863333Y-120542438D01*
X184863333Y-120542438D02*
X184958571Y-120494819D01*
X184958571Y-120494819D02*
X185149047Y-120494819D01*
X185149047Y-120494819D02*
X185244285Y-120542438D01*
X185244285Y-120542438D02*
X185291904Y-120590057D01*
X185291904Y-120590057D02*
X185339523Y-120685295D01*
X185339523Y-120685295D02*
X185339523Y-120923390D01*
X185339523Y-120923390D02*
X185291904Y-121018628D01*
X185291904Y-121018628D02*
X185244285Y-121066247D01*
X185244285Y-121066247D02*
X185149047Y-121113866D01*
X185149047Y-121113866D02*
X184958571Y-121113866D01*
X184958571Y-121113866D02*
X184863333Y-121066247D01*
X184863333Y-121066247D02*
X184815714Y-121018628D01*
X184815714Y-121018628D02*
X184768095Y-120923390D01*
X195708094Y-116414819D02*
X195708094Y-115414819D01*
X195708094Y-115414819D02*
X195327142Y-115414819D01*
X195327142Y-115414819D02*
X195231904Y-115462438D01*
X195231904Y-115462438D02*
X195184285Y-115510057D01*
X195184285Y-115510057D02*
X195136666Y-115605295D01*
X195136666Y-115605295D02*
X195136666Y-115748152D01*
X195136666Y-115748152D02*
X195184285Y-115843390D01*
X195184285Y-115843390D02*
X195231904Y-115891009D01*
X195231904Y-115891009D02*
X195327142Y-115938628D01*
X195327142Y-115938628D02*
X195708094Y-115938628D01*
X194755713Y-115510057D02*
X194708094Y-115462438D01*
X194708094Y-115462438D02*
X194612856Y-115414819D01*
X194612856Y-115414819D02*
X194374761Y-115414819D01*
X194374761Y-115414819D02*
X194279523Y-115462438D01*
X194279523Y-115462438D02*
X194231904Y-115510057D01*
X194231904Y-115510057D02*
X194184285Y-115605295D01*
X194184285Y-115605295D02*
X194184285Y-115700533D01*
X194184285Y-115700533D02*
X194231904Y-115843390D01*
X194231904Y-115843390D02*
X194803332Y-116414819D01*
X194803332Y-116414819D02*
X194184285Y-116414819D01*
X187244285Y-126574819D02*
X187244285Y-125574819D01*
X187244285Y-125574819D02*
X186863333Y-125574819D01*
X186863333Y-125574819D02*
X186768095Y-125622438D01*
X186768095Y-125622438D02*
X186720476Y-125670057D01*
X186720476Y-125670057D02*
X186672857Y-125765295D01*
X186672857Y-125765295D02*
X186672857Y-125908152D01*
X186672857Y-125908152D02*
X186720476Y-126003390D01*
X186720476Y-126003390D02*
X186768095Y-126051009D01*
X186768095Y-126051009D02*
X186863333Y-126098628D01*
X186863333Y-126098628D02*
X187244285Y-126098628D01*
X185720476Y-126574819D02*
X186291904Y-126574819D01*
X186006190Y-126574819D02*
X186006190Y-125574819D01*
X186006190Y-125574819D02*
X186101428Y-125717676D01*
X186101428Y-125717676D02*
X186196666Y-125812914D01*
X186196666Y-125812914D02*
X186291904Y-125860533D01*
X184815714Y-125574819D02*
X185291904Y-125574819D01*
X185291904Y-125574819D02*
X185339523Y-126051009D01*
X185339523Y-126051009D02*
X185291904Y-126003390D01*
X185291904Y-126003390D02*
X185196666Y-125955771D01*
X185196666Y-125955771D02*
X184958571Y-125955771D01*
X184958571Y-125955771D02*
X184863333Y-126003390D01*
X184863333Y-126003390D02*
X184815714Y-126051009D01*
X184815714Y-126051009D02*
X184768095Y-126146247D01*
X184768095Y-126146247D02*
X184768095Y-126384342D01*
X184768095Y-126384342D02*
X184815714Y-126479580D01*
X184815714Y-126479580D02*
X184863333Y-126527200D01*
X184863333Y-126527200D02*
X184958571Y-126574819D01*
X184958571Y-126574819D02*
X185196666Y-126574819D01*
X185196666Y-126574819D02*
X185291904Y-126527200D01*
X185291904Y-126527200D02*
X185339523Y-126479580D01*
X195708094Y-121494819D02*
X195708094Y-120494819D01*
X195708094Y-120494819D02*
X195327142Y-120494819D01*
X195327142Y-120494819D02*
X195231904Y-120542438D01*
X195231904Y-120542438D02*
X195184285Y-120590057D01*
X195184285Y-120590057D02*
X195136666Y-120685295D01*
X195136666Y-120685295D02*
X195136666Y-120828152D01*
X195136666Y-120828152D02*
X195184285Y-120923390D01*
X195184285Y-120923390D02*
X195231904Y-120971009D01*
X195231904Y-120971009D02*
X195327142Y-121018628D01*
X195327142Y-121018628D02*
X195708094Y-121018628D01*
X194279523Y-120828152D02*
X194279523Y-121494819D01*
X194517618Y-120447200D02*
X194755713Y-121161485D01*
X194755713Y-121161485D02*
X194136666Y-121161485D01*
X195708094Y-129114819D02*
X195708094Y-128114819D01*
X195708094Y-128114819D02*
X195327142Y-128114819D01*
X195327142Y-128114819D02*
X195231904Y-128162438D01*
X195231904Y-128162438D02*
X195184285Y-128210057D01*
X195184285Y-128210057D02*
X195136666Y-128305295D01*
X195136666Y-128305295D02*
X195136666Y-128448152D01*
X195136666Y-128448152D02*
X195184285Y-128543390D01*
X195184285Y-128543390D02*
X195231904Y-128591009D01*
X195231904Y-128591009D02*
X195327142Y-128638628D01*
X195327142Y-128638628D02*
X195708094Y-128638628D01*
X194803332Y-128114819D02*
X194136666Y-128114819D01*
X194136666Y-128114819D02*
X194565237Y-129114819D01*
X187363332Y-112874819D02*
X187029999Y-113874819D01*
X187029999Y-113874819D02*
X186696666Y-112874819D01*
X185791904Y-113779580D02*
X185839523Y-113827200D01*
X185839523Y-113827200D02*
X185982380Y-113874819D01*
X185982380Y-113874819D02*
X186077618Y-113874819D01*
X186077618Y-113874819D02*
X186220475Y-113827200D01*
X186220475Y-113827200D02*
X186315713Y-113731961D01*
X186315713Y-113731961D02*
X186363332Y-113636723D01*
X186363332Y-113636723D02*
X186410951Y-113446247D01*
X186410951Y-113446247D02*
X186410951Y-113303390D01*
X186410951Y-113303390D02*
X186363332Y-113112914D01*
X186363332Y-113112914D02*
X186315713Y-113017676D01*
X186315713Y-113017676D02*
X186220475Y-112922438D01*
X186220475Y-112922438D02*
X186077618Y-112874819D01*
X186077618Y-112874819D02*
X185982380Y-112874819D01*
X185982380Y-112874819D02*
X185839523Y-112922438D01*
X185839523Y-112922438D02*
X185791904Y-112970057D01*
X184791904Y-113779580D02*
X184839523Y-113827200D01*
X184839523Y-113827200D02*
X184982380Y-113874819D01*
X184982380Y-113874819D02*
X185077618Y-113874819D01*
X185077618Y-113874819D02*
X185220475Y-113827200D01*
X185220475Y-113827200D02*
X185315713Y-113731961D01*
X185315713Y-113731961D02*
X185363332Y-113636723D01*
X185363332Y-113636723D02*
X185410951Y-113446247D01*
X185410951Y-113446247D02*
X185410951Y-113303390D01*
X185410951Y-113303390D02*
X185363332Y-113112914D01*
X185363332Y-113112914D02*
X185315713Y-113017676D01*
X185315713Y-113017676D02*
X185220475Y-112922438D01*
X185220475Y-112922438D02*
X185077618Y-112874819D01*
X185077618Y-112874819D02*
X184982380Y-112874819D01*
X184982380Y-112874819D02*
X184839523Y-112922438D01*
X184839523Y-112922438D02*
X184791904Y-112970057D01*
X186720476Y-106254819D02*
X187053809Y-105778628D01*
X187291904Y-106254819D02*
X187291904Y-105254819D01*
X187291904Y-105254819D02*
X186910952Y-105254819D01*
X186910952Y-105254819D02*
X186815714Y-105302438D01*
X186815714Y-105302438D02*
X186768095Y-105350057D01*
X186768095Y-105350057D02*
X186720476Y-105445295D01*
X186720476Y-105445295D02*
X186720476Y-105588152D01*
X186720476Y-105588152D02*
X186768095Y-105683390D01*
X186768095Y-105683390D02*
X186815714Y-105731009D01*
X186815714Y-105731009D02*
X186910952Y-105778628D01*
X186910952Y-105778628D02*
X187291904Y-105778628D01*
X186339523Y-105969104D02*
X185863333Y-105969104D01*
X186434761Y-106254819D02*
X186101428Y-105254819D01*
X186101428Y-105254819D02*
X185768095Y-106254819D01*
X185529999Y-105254819D02*
X185291904Y-106254819D01*
X185291904Y-106254819D02*
X185101428Y-105540533D01*
X185101428Y-105540533D02*
X184910952Y-106254819D01*
X184910952Y-106254819D02*
X184672857Y-105254819D01*
X195708094Y-126574819D02*
X195708094Y-125574819D01*
X195708094Y-125574819D02*
X195327142Y-125574819D01*
X195327142Y-125574819D02*
X195231904Y-125622438D01*
X195231904Y-125622438D02*
X195184285Y-125670057D01*
X195184285Y-125670057D02*
X195136666Y-125765295D01*
X195136666Y-125765295D02*
X195136666Y-125908152D01*
X195136666Y-125908152D02*
X195184285Y-126003390D01*
X195184285Y-126003390D02*
X195231904Y-126051009D01*
X195231904Y-126051009D02*
X195327142Y-126098628D01*
X195327142Y-126098628D02*
X195708094Y-126098628D01*
X194279523Y-125574819D02*
X194469999Y-125574819D01*
X194469999Y-125574819D02*
X194565237Y-125622438D01*
X194565237Y-125622438D02*
X194612856Y-125670057D01*
X194612856Y-125670057D02*
X194708094Y-125812914D01*
X194708094Y-125812914D02*
X194755713Y-126003390D01*
X194755713Y-126003390D02*
X194755713Y-126384342D01*
X194755713Y-126384342D02*
X194708094Y-126479580D01*
X194708094Y-126479580D02*
X194660475Y-126527200D01*
X194660475Y-126527200D02*
X194565237Y-126574819D01*
X194565237Y-126574819D02*
X194374761Y-126574819D01*
X194374761Y-126574819D02*
X194279523Y-126527200D01*
X194279523Y-126527200D02*
X194231904Y-126479580D01*
X194231904Y-126479580D02*
X194184285Y-126384342D01*
X194184285Y-126384342D02*
X194184285Y-126146247D01*
X194184285Y-126146247D02*
X194231904Y-126051009D01*
X194231904Y-126051009D02*
X194279523Y-126003390D01*
X194279523Y-126003390D02*
X194374761Y-125955771D01*
X194374761Y-125955771D02*
X194565237Y-125955771D01*
X194565237Y-125955771D02*
X194660475Y-126003390D01*
X194660475Y-126003390D02*
X194708094Y-126051009D01*
X194708094Y-126051009D02*
X194755713Y-126146247D01*
X195731904Y-112922438D02*
X195827142Y-112874819D01*
X195827142Y-112874819D02*
X195969999Y-112874819D01*
X195969999Y-112874819D02*
X196112856Y-112922438D01*
X196112856Y-112922438D02*
X196208094Y-113017676D01*
X196208094Y-113017676D02*
X196255713Y-113112914D01*
X196255713Y-113112914D02*
X196303332Y-113303390D01*
X196303332Y-113303390D02*
X196303332Y-113446247D01*
X196303332Y-113446247D02*
X196255713Y-113636723D01*
X196255713Y-113636723D02*
X196208094Y-113731961D01*
X196208094Y-113731961D02*
X196112856Y-113827200D01*
X196112856Y-113827200D02*
X195969999Y-113874819D01*
X195969999Y-113874819D02*
X195874761Y-113874819D01*
X195874761Y-113874819D02*
X195731904Y-113827200D01*
X195731904Y-113827200D02*
X195684285Y-113779580D01*
X195684285Y-113779580D02*
X195684285Y-113446247D01*
X195684285Y-113446247D02*
X195874761Y-113446247D01*
X195255713Y-113874819D02*
X195255713Y-112874819D01*
X195255713Y-112874819D02*
X194684285Y-113874819D01*
X194684285Y-113874819D02*
X194684285Y-112874819D01*
X194208094Y-113874819D02*
X194208094Y-112874819D01*
X194208094Y-112874819D02*
X193969999Y-112874819D01*
X193969999Y-112874819D02*
X193827142Y-112922438D01*
X193827142Y-112922438D02*
X193731904Y-113017676D01*
X193731904Y-113017676D02*
X193684285Y-113112914D01*
X193684285Y-113112914D02*
X193636666Y-113303390D01*
X193636666Y-113303390D02*
X193636666Y-113446247D01*
X193636666Y-113446247D02*
X193684285Y-113636723D01*
X193684285Y-113636723D02*
X193731904Y-113731961D01*
X193731904Y-113731961D02*
X193827142Y-113827200D01*
X193827142Y-113827200D02*
X193969999Y-113874819D01*
X193969999Y-113874819D02*
X194208094Y-113874819D01*
X187244285Y-134194819D02*
X187244285Y-133194819D01*
X187244285Y-133194819D02*
X186863333Y-133194819D01*
X186863333Y-133194819D02*
X186768095Y-133242438D01*
X186768095Y-133242438D02*
X186720476Y-133290057D01*
X186720476Y-133290057D02*
X186672857Y-133385295D01*
X186672857Y-133385295D02*
X186672857Y-133528152D01*
X186672857Y-133528152D02*
X186720476Y-133623390D01*
X186720476Y-133623390D02*
X186768095Y-133671009D01*
X186768095Y-133671009D02*
X186863333Y-133718628D01*
X186863333Y-133718628D02*
X187244285Y-133718628D01*
X185720476Y-134194819D02*
X186291904Y-134194819D01*
X186006190Y-134194819D02*
X186006190Y-133194819D01*
X186006190Y-133194819D02*
X186101428Y-133337676D01*
X186101428Y-133337676D02*
X186196666Y-133432914D01*
X186196666Y-133432914D02*
X186291904Y-133480533D01*
X185101428Y-133194819D02*
X185006190Y-133194819D01*
X185006190Y-133194819D02*
X184910952Y-133242438D01*
X184910952Y-133242438D02*
X184863333Y-133290057D01*
X184863333Y-133290057D02*
X184815714Y-133385295D01*
X184815714Y-133385295D02*
X184768095Y-133575771D01*
X184768095Y-133575771D02*
X184768095Y-133813866D01*
X184768095Y-133813866D02*
X184815714Y-134004342D01*
X184815714Y-134004342D02*
X184863333Y-134099580D01*
X184863333Y-134099580D02*
X184910952Y-134147200D01*
X184910952Y-134147200D02*
X185006190Y-134194819D01*
X185006190Y-134194819D02*
X185101428Y-134194819D01*
X185101428Y-134194819D02*
X185196666Y-134147200D01*
X185196666Y-134147200D02*
X185244285Y-134099580D01*
X185244285Y-134099580D02*
X185291904Y-134004342D01*
X185291904Y-134004342D02*
X185339523Y-133813866D01*
X185339523Y-133813866D02*
X185339523Y-133575771D01*
X185339523Y-133575771D02*
X185291904Y-133385295D01*
X185291904Y-133385295D02*
X185244285Y-133290057D01*
X185244285Y-133290057D02*
X185196666Y-133242438D01*
X185196666Y-133242438D02*
X185101428Y-133194819D01*
X195731904Y-110382438D02*
X195827142Y-110334819D01*
X195827142Y-110334819D02*
X195969999Y-110334819D01*
X195969999Y-110334819D02*
X196112856Y-110382438D01*
X196112856Y-110382438D02*
X196208094Y-110477676D01*
X196208094Y-110477676D02*
X196255713Y-110572914D01*
X196255713Y-110572914D02*
X196303332Y-110763390D01*
X196303332Y-110763390D02*
X196303332Y-110906247D01*
X196303332Y-110906247D02*
X196255713Y-111096723D01*
X196255713Y-111096723D02*
X196208094Y-111191961D01*
X196208094Y-111191961D02*
X196112856Y-111287200D01*
X196112856Y-111287200D02*
X195969999Y-111334819D01*
X195969999Y-111334819D02*
X195874761Y-111334819D01*
X195874761Y-111334819D02*
X195731904Y-111287200D01*
X195731904Y-111287200D02*
X195684285Y-111239580D01*
X195684285Y-111239580D02*
X195684285Y-110906247D01*
X195684285Y-110906247D02*
X195874761Y-110906247D01*
X195255713Y-111334819D02*
X195255713Y-110334819D01*
X195255713Y-110334819D02*
X194684285Y-111334819D01*
X194684285Y-111334819D02*
X194684285Y-110334819D01*
X194208094Y-111334819D02*
X194208094Y-110334819D01*
X194208094Y-110334819D02*
X193969999Y-110334819D01*
X193969999Y-110334819D02*
X193827142Y-110382438D01*
X193827142Y-110382438D02*
X193731904Y-110477676D01*
X193731904Y-110477676D02*
X193684285Y-110572914D01*
X193684285Y-110572914D02*
X193636666Y-110763390D01*
X193636666Y-110763390D02*
X193636666Y-110906247D01*
X193636666Y-110906247D02*
X193684285Y-111096723D01*
X193684285Y-111096723D02*
X193731904Y-111191961D01*
X193731904Y-111191961D02*
X193827142Y-111287200D01*
X193827142Y-111287200D02*
X193969999Y-111334819D01*
X193969999Y-111334819D02*
X194208094Y-111334819D01*
X187244285Y-131654819D02*
X187244285Y-130654819D01*
X187244285Y-130654819D02*
X186863333Y-130654819D01*
X186863333Y-130654819D02*
X186768095Y-130702438D01*
X186768095Y-130702438D02*
X186720476Y-130750057D01*
X186720476Y-130750057D02*
X186672857Y-130845295D01*
X186672857Y-130845295D02*
X186672857Y-130988152D01*
X186672857Y-130988152D02*
X186720476Y-131083390D01*
X186720476Y-131083390D02*
X186768095Y-131131009D01*
X186768095Y-131131009D02*
X186863333Y-131178628D01*
X186863333Y-131178628D02*
X187244285Y-131178628D01*
X185720476Y-131654819D02*
X186291904Y-131654819D01*
X186006190Y-131654819D02*
X186006190Y-130654819D01*
X186006190Y-130654819D02*
X186101428Y-130797676D01*
X186101428Y-130797676D02*
X186196666Y-130892914D01*
X186196666Y-130892914D02*
X186291904Y-130940533D01*
X184863333Y-130654819D02*
X185053809Y-130654819D01*
X185053809Y-130654819D02*
X185149047Y-130702438D01*
X185149047Y-130702438D02*
X185196666Y-130750057D01*
X185196666Y-130750057D02*
X185291904Y-130892914D01*
X185291904Y-130892914D02*
X185339523Y-131083390D01*
X185339523Y-131083390D02*
X185339523Y-131464342D01*
X185339523Y-131464342D02*
X185291904Y-131559580D01*
X185291904Y-131559580D02*
X185244285Y-131607200D01*
X185244285Y-131607200D02*
X185149047Y-131654819D01*
X185149047Y-131654819D02*
X184958571Y-131654819D01*
X184958571Y-131654819D02*
X184863333Y-131607200D01*
X184863333Y-131607200D02*
X184815714Y-131559580D01*
X184815714Y-131559580D02*
X184768095Y-131464342D01*
X184768095Y-131464342D02*
X184768095Y-131226247D01*
X184768095Y-131226247D02*
X184815714Y-131131009D01*
X184815714Y-131131009D02*
X184863333Y-131083390D01*
X184863333Y-131083390D02*
X184958571Y-131035771D01*
X184958571Y-131035771D02*
X185149047Y-131035771D01*
X185149047Y-131035771D02*
X185244285Y-131083390D01*
X185244285Y-131083390D02*
X185291904Y-131131009D01*
X185291904Y-131131009D02*
X185339523Y-131226247D01*
X186791904Y-107842438D02*
X186887142Y-107794819D01*
X186887142Y-107794819D02*
X187029999Y-107794819D01*
X187029999Y-107794819D02*
X187172856Y-107842438D01*
X187172856Y-107842438D02*
X187268094Y-107937676D01*
X187268094Y-107937676D02*
X187315713Y-108032914D01*
X187315713Y-108032914D02*
X187363332Y-108223390D01*
X187363332Y-108223390D02*
X187363332Y-108366247D01*
X187363332Y-108366247D02*
X187315713Y-108556723D01*
X187315713Y-108556723D02*
X187268094Y-108651961D01*
X187268094Y-108651961D02*
X187172856Y-108747200D01*
X187172856Y-108747200D02*
X187029999Y-108794819D01*
X187029999Y-108794819D02*
X186934761Y-108794819D01*
X186934761Y-108794819D02*
X186791904Y-108747200D01*
X186791904Y-108747200D02*
X186744285Y-108699580D01*
X186744285Y-108699580D02*
X186744285Y-108366247D01*
X186744285Y-108366247D02*
X186934761Y-108366247D01*
X186315713Y-108794819D02*
X186315713Y-107794819D01*
X186315713Y-107794819D02*
X185744285Y-108794819D01*
X185744285Y-108794819D02*
X185744285Y-107794819D01*
X185268094Y-108794819D02*
X185268094Y-107794819D01*
X185268094Y-107794819D02*
X185029999Y-107794819D01*
X185029999Y-107794819D02*
X184887142Y-107842438D01*
X184887142Y-107842438D02*
X184791904Y-107937676D01*
X184791904Y-107937676D02*
X184744285Y-108032914D01*
X184744285Y-108032914D02*
X184696666Y-108223390D01*
X184696666Y-108223390D02*
X184696666Y-108366247D01*
X184696666Y-108366247D02*
X184744285Y-108556723D01*
X184744285Y-108556723D02*
X184791904Y-108651961D01*
X184791904Y-108651961D02*
X184887142Y-108747200D01*
X184887142Y-108747200D02*
X185029999Y-108794819D01*
X185029999Y-108794819D02*
X185268094Y-108794819D01*
X195708094Y-134194819D02*
X195708094Y-133194819D01*
X195708094Y-133194819D02*
X195327142Y-133194819D01*
X195327142Y-133194819D02*
X195231904Y-133242438D01*
X195231904Y-133242438D02*
X195184285Y-133290057D01*
X195184285Y-133290057D02*
X195136666Y-133385295D01*
X195136666Y-133385295D02*
X195136666Y-133528152D01*
X195136666Y-133528152D02*
X195184285Y-133623390D01*
X195184285Y-133623390D02*
X195231904Y-133671009D01*
X195231904Y-133671009D02*
X195327142Y-133718628D01*
X195327142Y-133718628D02*
X195708094Y-133718628D01*
X194660475Y-134194819D02*
X194469999Y-134194819D01*
X194469999Y-134194819D02*
X194374761Y-134147200D01*
X194374761Y-134147200D02*
X194327142Y-134099580D01*
X194327142Y-134099580D02*
X194231904Y-133956723D01*
X194231904Y-133956723D02*
X194184285Y-133766247D01*
X194184285Y-133766247D02*
X194184285Y-133385295D01*
X194184285Y-133385295D02*
X194231904Y-133290057D01*
X194231904Y-133290057D02*
X194279523Y-133242438D01*
X194279523Y-133242438D02*
X194374761Y-133194819D01*
X194374761Y-133194819D02*
X194565237Y-133194819D01*
X194565237Y-133194819D02*
X194660475Y-133242438D01*
X194660475Y-133242438D02*
X194708094Y-133290057D01*
X194708094Y-133290057D02*
X194755713Y-133385295D01*
X194755713Y-133385295D02*
X194755713Y-133623390D01*
X194755713Y-133623390D02*
X194708094Y-133718628D01*
X194708094Y-133718628D02*
X194660475Y-133766247D01*
X194660475Y-133766247D02*
X194565237Y-133813866D01*
X194565237Y-133813866D02*
X194374761Y-133813866D01*
X194374761Y-133813866D02*
X194279523Y-133766247D01*
X194279523Y-133766247D02*
X194231904Y-133718628D01*
X194231904Y-133718628D02*
X194184285Y-133623390D01*
X187244285Y-118954819D02*
X187244285Y-117954819D01*
X187244285Y-117954819D02*
X186863333Y-117954819D01*
X186863333Y-117954819D02*
X186768095Y-118002438D01*
X186768095Y-118002438D02*
X186720476Y-118050057D01*
X186720476Y-118050057D02*
X186672857Y-118145295D01*
X186672857Y-118145295D02*
X186672857Y-118288152D01*
X186672857Y-118288152D02*
X186720476Y-118383390D01*
X186720476Y-118383390D02*
X186768095Y-118431009D01*
X186768095Y-118431009D02*
X186863333Y-118478628D01*
X186863333Y-118478628D02*
X187244285Y-118478628D01*
X186291904Y-118050057D02*
X186244285Y-118002438D01*
X186244285Y-118002438D02*
X186149047Y-117954819D01*
X186149047Y-117954819D02*
X185910952Y-117954819D01*
X185910952Y-117954819D02*
X185815714Y-118002438D01*
X185815714Y-118002438D02*
X185768095Y-118050057D01*
X185768095Y-118050057D02*
X185720476Y-118145295D01*
X185720476Y-118145295D02*
X185720476Y-118240533D01*
X185720476Y-118240533D02*
X185768095Y-118383390D01*
X185768095Y-118383390D02*
X186339523Y-118954819D01*
X186339523Y-118954819D02*
X185720476Y-118954819D01*
X185101428Y-117954819D02*
X185006190Y-117954819D01*
X185006190Y-117954819D02*
X184910952Y-118002438D01*
X184910952Y-118002438D02*
X184863333Y-118050057D01*
X184863333Y-118050057D02*
X184815714Y-118145295D01*
X184815714Y-118145295D02*
X184768095Y-118335771D01*
X184768095Y-118335771D02*
X184768095Y-118573866D01*
X184768095Y-118573866D02*
X184815714Y-118764342D01*
X184815714Y-118764342D02*
X184863333Y-118859580D01*
X184863333Y-118859580D02*
X184910952Y-118907200D01*
X184910952Y-118907200D02*
X185006190Y-118954819D01*
X185006190Y-118954819D02*
X185101428Y-118954819D01*
X185101428Y-118954819D02*
X185196666Y-118907200D01*
X185196666Y-118907200D02*
X185244285Y-118859580D01*
X185244285Y-118859580D02*
X185291904Y-118764342D01*
X185291904Y-118764342D02*
X185339523Y-118573866D01*
X185339523Y-118573866D02*
X185339523Y-118335771D01*
X185339523Y-118335771D02*
X185291904Y-118145295D01*
X185291904Y-118145295D02*
X185244285Y-118050057D01*
X185244285Y-118050057D02*
X185196666Y-118002438D01*
X185196666Y-118002438D02*
X185101428Y-117954819D01*
X195708094Y-118954819D02*
X195708094Y-117954819D01*
X195708094Y-117954819D02*
X195327142Y-117954819D01*
X195327142Y-117954819D02*
X195231904Y-118002438D01*
X195231904Y-118002438D02*
X195184285Y-118050057D01*
X195184285Y-118050057D02*
X195136666Y-118145295D01*
X195136666Y-118145295D02*
X195136666Y-118288152D01*
X195136666Y-118288152D02*
X195184285Y-118383390D01*
X195184285Y-118383390D02*
X195231904Y-118431009D01*
X195231904Y-118431009D02*
X195327142Y-118478628D01*
X195327142Y-118478628D02*
X195708094Y-118478628D01*
X194803332Y-117954819D02*
X194184285Y-117954819D01*
X194184285Y-117954819D02*
X194517618Y-118335771D01*
X194517618Y-118335771D02*
X194374761Y-118335771D01*
X194374761Y-118335771D02*
X194279523Y-118383390D01*
X194279523Y-118383390D02*
X194231904Y-118431009D01*
X194231904Y-118431009D02*
X194184285Y-118526247D01*
X194184285Y-118526247D02*
X194184285Y-118764342D01*
X194184285Y-118764342D02*
X194231904Y-118859580D01*
X194231904Y-118859580D02*
X194279523Y-118907200D01*
X194279523Y-118907200D02*
X194374761Y-118954819D01*
X194374761Y-118954819D02*
X194660475Y-118954819D01*
X194660475Y-118954819D02*
X194755713Y-118907200D01*
X194755713Y-118907200D02*
X194803332Y-118859580D01*
D11*
%TO.C,D16*%
X152227592Y-149859030D02*
X152610114Y-149975979D01*
X152610114Y-149975979D02*
X152449310Y-150501947D01*
X152610114Y-149975979D02*
X152770919Y-149450011D01*
X152610114Y-149975979D02*
X153300846Y-149768880D01*
X153066949Y-150533924D02*
X152610114Y-149975979D01*
X153183897Y-150151402D02*
X153662050Y-150297588D01*
X153300846Y-149768880D02*
X153066949Y-150533924D01*
%TO.C,D22*%
X321143448Y-133217948D02*
X321534707Y-133134783D01*
X321534707Y-133134783D02*
X321420356Y-132596802D01*
X321534707Y-133134783D02*
X321649059Y-133672764D01*
X321534707Y-133134783D02*
X322038431Y-132618777D01*
X322038431Y-132618777D02*
X322204761Y-133401295D01*
X322121596Y-133010036D02*
X322610670Y-132906080D01*
X322204761Y-133401295D02*
X321534707Y-133134783D01*
%TO.C,D24*%
X313242804Y-96048340D02*
X313634063Y-95965175D01*
X313634063Y-95965175D02*
X313519712Y-95427194D01*
X313634063Y-95965175D02*
X313748415Y-96503156D01*
X313634063Y-95965175D02*
X314137787Y-95449169D01*
X314137787Y-95449169D02*
X314304117Y-96231687D01*
X314220952Y-95840428D02*
X314710026Y-95736472D01*
X314304117Y-96231687D02*
X313634063Y-95965175D01*
%TO.C,D38*%
X221387637Y-132127797D02*
X221770159Y-132010848D01*
X221770159Y-132010848D02*
X221609355Y-131484880D01*
X221770159Y-132010848D02*
X221930964Y-132536816D01*
X221770159Y-132010848D02*
X222226994Y-131452903D01*
X222226994Y-131452903D02*
X222460891Y-132217947D01*
X222343942Y-131835425D02*
X222822095Y-131689239D01*
X222460891Y-132217947D02*
X221770159Y-132010848D01*
%TO.C,D17*%
X157782654Y-131689239D02*
X158165176Y-131806188D01*
X158165176Y-131806188D02*
X158004372Y-132332156D01*
X158165176Y-131806188D02*
X158325981Y-131280220D01*
X158165176Y-131806188D02*
X158855908Y-131599089D01*
X158622011Y-132364133D02*
X158165176Y-131806188D01*
X158738959Y-131981611D02*
X159217112Y-132127797D01*
X158855908Y-131599089D02*
X158622011Y-132364133D01*
%TO.C,D37*%
X226942699Y-150297588D02*
X227325221Y-150180639D01*
X227325221Y-150180639D02*
X227164417Y-149654671D01*
X227325221Y-150180639D02*
X227486026Y-150706607D01*
X227325221Y-150180639D02*
X227782056Y-149622694D01*
X227782056Y-149622694D02*
X228015953Y-150387738D01*
X227899004Y-150005216D02*
X228377157Y-149859030D01*
X228015953Y-150387738D02*
X227325221Y-150180639D01*
%TO.C,D1*%
X57994078Y-132906080D02*
X58385337Y-132989245D01*
X58385337Y-132989245D02*
X58270986Y-133527226D01*
X58385337Y-132989245D02*
X58499689Y-132451264D01*
X58385337Y-132989245D02*
X59055391Y-132722733D01*
X58889061Y-133505251D02*
X58385337Y-132989245D01*
X58972226Y-133113992D02*
X59461300Y-133217948D01*
X59055391Y-132722733D02*
X58889061Y-133505251D01*
%TO.C,D7*%
X98595336Y-130324928D02*
X98977858Y-130441877D01*
X98977858Y-130441877D02*
X98817054Y-130967845D01*
X98977858Y-130441877D02*
X99138663Y-129915909D01*
X98977858Y-130441877D02*
X99668590Y-130234778D01*
X99434693Y-130999822D02*
X98977858Y-130441877D01*
X99551641Y-130617300D02*
X100029794Y-130763486D01*
X99668590Y-130234778D02*
X99434693Y-130999822D01*
%TO.C,D14*%
X140197607Y-124221568D02*
X140580129Y-124338517D01*
X140580129Y-124338517D02*
X140419325Y-124864485D01*
X140580129Y-124338517D02*
X140740934Y-123812549D01*
X140580129Y-124338517D02*
X141270861Y-124131418D01*
X141036964Y-124896462D02*
X140580129Y-124338517D01*
X141153912Y-124513940D02*
X141632065Y-124660126D01*
X141270861Y-124131418D02*
X141036964Y-124896462D01*
%TO.C,D25*%
X302558644Y-137168271D02*
X302949903Y-137085106D01*
X302949903Y-137085106D02*
X302835552Y-136547125D01*
X302949903Y-137085106D02*
X303064255Y-137623087D01*
X302949903Y-137085106D02*
X303453627Y-136569100D01*
X303453627Y-136569100D02*
X303619957Y-137351618D01*
X303536792Y-136960359D02*
X304025866Y-136856403D01*
X303619957Y-137351618D02*
X302949903Y-137085106D01*
%TO.C,D35*%
X238972684Y-124660126D02*
X239355206Y-124543177D01*
X239355206Y-124543177D02*
X239194402Y-124017209D01*
X239355206Y-124543177D02*
X239516011Y-125069145D01*
X239355206Y-124543177D02*
X239812041Y-123985232D01*
X239812041Y-123985232D02*
X240045938Y-124750276D01*
X239928989Y-124367754D02*
X240407142Y-124221568D01*
X240045938Y-124750276D02*
X239355206Y-124543177D01*
%TO.C,D12*%
X129337109Y-94758886D02*
X129719631Y-94875835D01*
X129719631Y-94875835D02*
X129558827Y-95401803D01*
X129719631Y-94875835D02*
X129880436Y-94349867D01*
X129719631Y-94875835D02*
X130410363Y-94668736D01*
X130176466Y-95433780D02*
X129719631Y-94875835D01*
X130293414Y-95051258D02*
X130771567Y-95197444D01*
X130410363Y-94668736D02*
X130176466Y-95433780D01*
%TO.C,D13*%
X134642545Y-142391358D02*
X135025067Y-142508307D01*
X135025067Y-142508307D02*
X134864263Y-143034275D01*
X135025067Y-142508307D02*
X135185872Y-141982339D01*
X135025067Y-142508307D02*
X135715799Y-142301208D01*
X135481902Y-143066252D02*
X135025067Y-142508307D01*
X135598850Y-142683730D02*
X136077003Y-142829916D01*
X135715799Y-142301208D02*
X135481902Y-143066252D01*
%TO.C,D26*%
X298608322Y-118583466D02*
X298999581Y-118500301D01*
X298999581Y-118500301D02*
X298885230Y-117962320D01*
X298999581Y-118500301D02*
X299113933Y-119038282D01*
X298999581Y-118500301D02*
X299503305Y-117984295D01*
X299503305Y-117984295D02*
X299669635Y-118766813D01*
X299586470Y-118375554D02*
X300075544Y-118271598D01*
X299669635Y-118766813D02*
X298999581Y-118500301D01*
%TO.C,D8*%
X104150398Y-112155138D02*
X104532920Y-112272087D01*
X104532920Y-112272087D02*
X104372116Y-112798055D01*
X104532920Y-112272087D02*
X104693725Y-111746119D01*
X104532920Y-112272087D02*
X105223652Y-112064988D01*
X104989755Y-112830032D02*
X104532920Y-112272087D01*
X105106703Y-112447510D02*
X105584856Y-112593696D01*
X105223652Y-112064988D02*
X104989755Y-112830032D01*
%TO.C,D27*%
X294658000Y-99998662D02*
X295049259Y-99915497D01*
X295049259Y-99915497D02*
X294934908Y-99377516D01*
X295049259Y-99915497D02*
X295163611Y-100453478D01*
X295049259Y-99915497D02*
X295552983Y-99399491D01*
X295552983Y-99399491D02*
X295719313Y-100182009D01*
X295636148Y-99790750D02*
X296125222Y-99686794D01*
X295719313Y-100182009D02*
X295049259Y-99915497D01*
%TO.C,D41*%
X226848300Y-172395426D02*
X227219174Y-172245583D01*
X227219174Y-172245583D02*
X227013140Y-171735632D01*
X227219174Y-172245583D02*
X227425207Y-172755534D01*
X227219174Y-172245583D02*
X227625641Y-171649946D01*
X227625641Y-171649946D02*
X227925327Y-172391693D01*
X227775484Y-172020819D02*
X228239076Y-171833516D01*
X227925327Y-172391693D02*
X227219174Y-172245583D01*
%TO.C,D10*%
X118226984Y-131098467D02*
X118609506Y-131215416D01*
X118609506Y-131215416D02*
X118448702Y-131741384D01*
X118609506Y-131215416D02*
X118770311Y-130689448D01*
X118609506Y-131215416D02*
X119300238Y-131008317D01*
X119066341Y-131773361D02*
X118609506Y-131215416D01*
X119183289Y-131390839D02*
X119661442Y-131537025D01*
X119300238Y-131008317D02*
X119066341Y-131773361D01*
%TO.C,D19*%
X132035586Y-164599549D02*
X132418108Y-164716498D01*
X132418108Y-164716498D02*
X132257304Y-165242466D01*
X132418108Y-164716498D02*
X132578913Y-164190530D01*
X132418108Y-164716498D02*
X133108840Y-164509399D01*
X132874943Y-165274443D02*
X132418108Y-164716498D01*
X132991891Y-164891921D02*
X133470044Y-165038107D01*
X133108840Y-164509399D02*
X132874943Y-165274443D01*
%TO.C,D30*%
X269464830Y-94423906D02*
X269847352Y-94306957D01*
X269847352Y-94306957D02*
X269686548Y-93780989D01*
X269847352Y-94306957D02*
X270008157Y-94832925D01*
X269847352Y-94306957D02*
X270304187Y-93749012D01*
X270304187Y-93749012D02*
X270538084Y-94514056D01*
X270421135Y-94131534D02*
X270899288Y-93985348D01*
X270538084Y-94514056D02*
X269847352Y-94306957D01*
%TO.C,D2*%
X61944400Y-114321276D02*
X62335659Y-114404441D01*
X62335659Y-114404441D02*
X62221308Y-114942422D01*
X62335659Y-114404441D02*
X62450011Y-113866460D01*
X62335659Y-114404441D02*
X63005713Y-114137929D01*
X62839383Y-114920447D02*
X62335659Y-114404441D01*
X62922548Y-114529188D02*
X63411622Y-114633144D01*
X63005713Y-114137929D02*
X62839383Y-114920447D01*
%TO.C,D33*%
X249833182Y-95197444D02*
X250215704Y-95080495D01*
X250215704Y-95080495D02*
X250054900Y-94554527D01*
X250215704Y-95080495D02*
X250376509Y-95606463D01*
X250215704Y-95080495D02*
X250672539Y-94522550D01*
X250672539Y-94522550D02*
X250906436Y-95287594D01*
X250789487Y-94905072D02*
X251267640Y-94758886D01*
X250906436Y-95287594D02*
X250215704Y-95080495D01*
%TO.C,D40*%
X247134705Y-165038107D02*
X247517227Y-164921158D01*
X247517227Y-164921158D02*
X247356423Y-164395190D01*
X247517227Y-164921158D02*
X247678032Y-165447126D01*
X247517227Y-164921158D02*
X247974062Y-164363213D01*
X247974062Y-164363213D02*
X248207959Y-165128257D01*
X248091010Y-164745735D02*
X248569163Y-164599549D01*
X248207959Y-165128257D02*
X247517227Y-164921158D01*
%TO.C,D31*%
X260943306Y-131537025D02*
X261325828Y-131420076D01*
X261325828Y-131420076D02*
X261165024Y-130894108D01*
X261325828Y-131420076D02*
X261486633Y-131946044D01*
X261325828Y-131420076D02*
X261782663Y-130862131D01*
X261782663Y-130862131D02*
X262016560Y-131627175D01*
X261899611Y-131244653D02*
X262377764Y-131098467D01*
X262016560Y-131627175D02*
X261325828Y-131420076D01*
%TO.C,D42*%
X207554430Y-183198895D02*
X207873885Y-182958169D01*
X207873885Y-182958169D02*
X207542886Y-182518920D01*
X207873885Y-182958169D02*
X208112340Y-182277626D01*
X207873885Y-182958169D02*
X208204883Y-183397419D01*
X208112340Y-182277626D02*
X208593792Y-182916534D01*
X208353066Y-182597080D02*
X208752384Y-182296173D01*
X208593792Y-182916534D02*
X207873885Y-182958169D01*
%TO.C,D21*%
X171852364Y-182296173D02*
X172171819Y-182536899D01*
X172171819Y-182536899D02*
X171840820Y-182976148D01*
X172171819Y-182536899D02*
X172502817Y-182097649D01*
X172171819Y-182536899D02*
X172891726Y-182578534D01*
X172410274Y-183217442D02*
X172171819Y-182536899D01*
X172651000Y-182897988D02*
X173050318Y-183198895D01*
X172891726Y-182578534D02*
X172410274Y-183217442D01*
%TO.C,D6*%
X84479527Y-99686794D02*
X84870786Y-99769959D01*
X84870786Y-99769959D02*
X84756435Y-100307940D01*
X84870786Y-99769959D02*
X84985138Y-99231978D01*
X84870786Y-99769959D02*
X85540840Y-99503447D01*
X85374510Y-100285965D02*
X84870786Y-99769959D01*
X85457675Y-99894706D02*
X85946749Y-99998662D01*
X85540840Y-99503447D02*
X85374510Y-100285965D01*
%TO.C,D18*%
X163337716Y-113519449D02*
X163720238Y-113636398D01*
X163720238Y-113636398D02*
X163559434Y-114162366D01*
X163720238Y-113636398D02*
X163881043Y-113110430D01*
X163720238Y-113636398D02*
X164410970Y-113429299D01*
X164177073Y-114194343D02*
X163720238Y-113636398D01*
X164294021Y-113811821D02*
X164772174Y-113958007D01*
X164410970Y-113429299D02*
X164177073Y-114194343D01*
%TO.C,D4*%
X76578883Y-136856403D02*
X76970142Y-136939568D01*
X76970142Y-136939568D02*
X76855791Y-137477549D01*
X76970142Y-136939568D02*
X77084494Y-136401587D01*
X76970142Y-136939568D02*
X77640196Y-136673056D01*
X77473866Y-137455574D02*
X76970142Y-136939568D01*
X77557031Y-137064315D02*
X78046105Y-137168271D01*
X77640196Y-136673056D02*
X77473866Y-137455574D01*
%TO.C,D5*%
X80529205Y-118271598D02*
X80920464Y-118354763D01*
X80920464Y-118354763D02*
X80806113Y-118892744D01*
X80920464Y-118354763D02*
X81034816Y-117816782D01*
X80920464Y-118354763D02*
X81590518Y-118088251D01*
X81424188Y-118870769D02*
X80920464Y-118354763D01*
X81507353Y-118479510D02*
X81996427Y-118583466D01*
X81590518Y-118088251D02*
X81424188Y-118870769D01*
%TO.C,D15*%
X145752669Y-106051777D02*
X146135191Y-106168726D01*
X146135191Y-106168726D02*
X145974387Y-106694694D01*
X146135191Y-106168726D02*
X146295996Y-105642758D01*
X146135191Y-106168726D02*
X146825923Y-105961627D01*
X146592026Y-106726671D02*
X146135191Y-106168726D01*
X146708974Y-106344149D02*
X147187127Y-106490335D01*
X146825923Y-105961627D02*
X146592026Y-106726671D01*
%TO.C,D11*%
X123782047Y-112928677D02*
X124164569Y-113045626D01*
X124164569Y-113045626D02*
X124003765Y-113571594D01*
X124164569Y-113045626D02*
X124325374Y-112519658D01*
X124164569Y-113045626D02*
X124855301Y-112838527D01*
X124621404Y-113603571D02*
X124164569Y-113045626D01*
X124738352Y-113221049D02*
X125216505Y-113367235D01*
X124855301Y-112838527D02*
X124621404Y-113603571D01*
%TO.C,D28*%
X280574955Y-130763486D02*
X280957477Y-130646537D01*
X280957477Y-130646537D02*
X280796673Y-130120569D01*
X280957477Y-130646537D02*
X281118282Y-131172505D01*
X280957477Y-130646537D02*
X281414312Y-130088592D01*
X281414312Y-130088592D02*
X281648209Y-130853636D01*
X281531260Y-130471114D02*
X282009413Y-130324928D01*
X281648209Y-130853636D02*
X280957477Y-130646537D01*
%TO.C,D29*%
X275019893Y-112593696D02*
X275402415Y-112476747D01*
X275402415Y-112476747D02*
X275241611Y-111950779D01*
X275402415Y-112476747D02*
X275563220Y-113002715D01*
X275402415Y-112476747D02*
X275859250Y-111918802D01*
X275859250Y-111918802D02*
X276093147Y-112683846D01*
X275976198Y-112301324D02*
X276454351Y-112155138D01*
X276093147Y-112683846D02*
X275402415Y-112476747D01*
%TO.C,D20*%
X152365672Y-171833516D02*
X152736546Y-171983359D01*
X152736546Y-171983359D02*
X152530512Y-172493310D01*
X152736546Y-171983359D02*
X152942579Y-171473408D01*
X152736546Y-171983359D02*
X153442699Y-171837249D01*
X153143013Y-172578996D02*
X152736546Y-171983359D01*
X153292856Y-172208123D02*
X153756448Y-172395426D01*
X153442699Y-171837249D02*
X153143013Y-172578996D01*
%TO.C,D36*%
X233417621Y-106490335D02*
X233800143Y-106373386D01*
X233800143Y-106373386D02*
X233639339Y-105847418D01*
X233800143Y-106373386D02*
X233960948Y-106899354D01*
X233800143Y-106373386D02*
X234256978Y-105815441D01*
X234256978Y-105815441D02*
X234490875Y-106580485D01*
X234373926Y-106197963D02*
X234852079Y-106051777D01*
X234490875Y-106580485D02*
X233800143Y-106373386D01*
%TO.C,D9*%
X109705460Y-93985348D02*
X110087982Y-94102297D01*
X110087982Y-94102297D02*
X109927178Y-94628265D01*
X110087982Y-94102297D02*
X110248787Y-93576329D01*
X110087982Y-94102297D02*
X110778714Y-93895198D01*
X110544817Y-94660242D02*
X110087982Y-94102297D01*
X110661765Y-94277720D02*
X111139918Y-94423906D01*
X110778714Y-93895198D02*
X110544817Y-94660242D01*
%TO.C,D3*%
X65894723Y-95736472D02*
X66285982Y-95819637D01*
X66285982Y-95819637D02*
X66171631Y-96357618D01*
X66285982Y-95819637D02*
X66400334Y-95281656D01*
X66285982Y-95819637D02*
X66956036Y-95553125D01*
X66789706Y-96335643D02*
X66285982Y-95819637D01*
X66872871Y-95944384D02*
X67361945Y-96048340D01*
X66956036Y-95553125D02*
X66789706Y-96335643D01*
%TO.C,D32*%
X255388244Y-113367235D02*
X255770766Y-113250286D01*
X255770766Y-113250286D02*
X255609962Y-112724318D01*
X255770766Y-113250286D02*
X255931571Y-113776254D01*
X255770766Y-113250286D02*
X256227601Y-112692341D01*
X256227601Y-112692341D02*
X256461498Y-113457385D01*
X256344549Y-113074863D02*
X256822702Y-112928677D01*
X256461498Y-113457385D02*
X255770766Y-113250286D01*
%TO.C,D39*%
X215832574Y-113958007D02*
X216215096Y-113841058D01*
X216215096Y-113841058D02*
X216054292Y-113315090D01*
X216215096Y-113841058D02*
X216375901Y-114367026D01*
X216215096Y-113841058D02*
X216671931Y-113283113D01*
X216671931Y-113283113D02*
X216905828Y-114048157D01*
X216788879Y-113665635D02*
X217267032Y-113519449D01*
X216905828Y-114048157D02*
X216215096Y-113841058D01*
%TO.C,D34*%
X244527746Y-142829916D02*
X244910268Y-142712967D01*
X244910268Y-142712967D02*
X244749464Y-142186999D01*
X244910268Y-142712967D02*
X245071073Y-143238935D01*
X244910268Y-142712967D02*
X245367103Y-142155022D01*
X245367103Y-142155022D02*
X245601000Y-142920066D01*
X245484051Y-142537544D02*
X245962204Y-142391358D01*
X245601000Y-142920066D02*
X244910268Y-142712967D01*
%TO.C,D23*%
X317193126Y-114633144D02*
X317584385Y-114549979D01*
X317584385Y-114549979D02*
X317470034Y-114011998D01*
X317584385Y-114549979D02*
X317698737Y-115087960D01*
X317584385Y-114549979D02*
X318088109Y-114033973D01*
X318088109Y-114033973D02*
X318254439Y-114816491D01*
X318171274Y-114425232D02*
X318660348Y-114321276D01*
X318254439Y-114816491D02*
X317584385Y-114549979D01*
D12*
%TO.C,MCU1*%
X181550000Y-104470000D02*
X181550000Y-135070000D01*
X184210000Y-104470000D02*
X181550000Y-104470000D01*
X184210000Y-104470000D02*
X184210000Y-135070000D01*
X184210000Y-135070000D02*
X181550000Y-135070000D01*
X196790000Y-104470000D02*
X196790000Y-135070000D01*
X199450000Y-104470000D02*
X196790000Y-104470000D01*
X199450000Y-104470000D02*
X199450000Y-135070000D01*
X199450000Y-107070000D02*
X196790000Y-107070000D01*
X199450000Y-135070000D02*
X196790000Y-135070000D01*
%TD*%
M02*
