M48
; DRILL file {KiCad 8.0.6} date 2025-07-18T12:27:00+0200
; FORMAT={-:-/ absolute / inch / decimal}
; #@! TF.CreationDate,2025-07-18T12:27:00+02:00
; #@! TF.GenerationSoftware,Kicad,Pcbnew,8.0.6
; #@! TF.FileFunction,Plated,1,2,PTH
FMAT,2
INCH
; #@! TA.AperFunction,Plated,PTH,ViaDrill
T1C0.0118
; #@! TA.AperFunction,Plated,PTH,ComponentDrill
T2C0.0295
; #@! TA.AperFunction,Plated,PTH,ComponentDrill
T3C0.0394
%
G90
G05
T1
X2.2654Y-4.9188
X2.4045Y-4.2641
X2.4849Y-4.9655
X2.5437Y-3.6095
X2.624Y-4.3108
X2.7632Y-3.6561
X2.9201Y-5.058
X3.0592Y-4.4033
X3.1396Y-5.1046
X3.1984Y-3.7486
X3.2787Y-4.45
X3.4179Y-3.7953
X3.7372Y-4.7841
X3.9329Y-4.144
X3.9518Y-4.8497
X4.1286Y-3.504
X4.1475Y-4.2096
X4.3432Y-3.5696
X4.4348Y-4.7915
X4.6305Y-4.1515
X4.6494Y-4.8571
X4.738Y-5.9546
X4.8262Y-3.5114
X4.8451Y-4.2171
X4.9526Y-6.0202
X5.0058Y-5.2131
X5.0408Y-3.577
X5.2015Y-4.5731
X5.2204Y-5.2787
X5.3972Y-3.933
X5.4057Y-6.1925
X5.4161Y-4.6387
X5.6118Y-3.9986
X5.6137Y-6.2766
X5.6228Y-5.4841
X5.8185Y-4.844
X5.8374Y-5.5497
X5.8892Y-4.6659
X5.8984Y-4.6358
X5.9076Y-4.6056
X5.9168Y-4.5755
X5.9285Y-4.5441
X6.0142Y-4.204
X6.0331Y-4.9096
X6.0972Y-6.5619
X6.2288Y-4.2696
X6.2765Y-6.697
X6.5098Y-5.0591
X6.5413Y-5.0591
X6.5748Y-5.0591
X6.6063Y-5.0591
X6.6378Y-5.0591
X6.6713Y-5.0591
X7.8125Y-6.697
X7.8602Y-4.2696
X7.9918Y-6.5619
X8.0559Y-4.9096
X8.0748Y-4.204
X8.2516Y-5.5497
X8.2705Y-4.844
X8.4662Y-5.4841
X8.4753Y-6.2766
X8.4772Y-3.9986
X8.6729Y-4.6387
X8.6833Y-6.1925
X8.6918Y-3.933
X8.8686Y-5.2787
X8.8875Y-4.5731
X9.0482Y-3.577
X9.0832Y-5.2131
X9.1364Y-6.0202
X9.2439Y-4.2171
X9.2628Y-3.5114
X9.351Y-5.9546
X9.4396Y-4.8571
X9.4585Y-4.1515
X9.6542Y-4.7915
X9.7458Y-3.5696
X9.9415Y-4.2096
X9.9604Y-3.504
X10.1372Y-4.8497
X10.1561Y-4.144
X10.3518Y-4.7841
X10.6711Y-3.7953
X10.8103Y-4.45
X10.8906Y-3.7486
X10.9494Y-5.1046
X11.0298Y-4.4033
X11.1689Y-5.058
X11.3258Y-3.6561
X11.4649Y-4.3108
X11.5453Y-3.6095
X11.6041Y-4.9655
X11.6845Y-4.2641
X11.8236Y-4.9188
T2
X6.4951Y-4.6722
X6.5738Y-4.6722
T3
X2.2351Y-5.1277
X2.3742Y-4.473
X2.3891Y-5.1604
X2.5134Y-3.8184
X2.5283Y-4.5058
X2.6674Y-3.8511
X2.8897Y-5.2669
X3.0289Y-4.6122
X3.0438Y-5.2996
X3.168Y-3.9575
X3.1829Y-4.6449
X3.3221Y-3.9903
X3.6888Y-4.9895
X3.8394Y-5.0356
X3.8845Y-4.3495
X4.0351Y-4.3955
X4.0802Y-3.7094
X4.2308Y-3.7555
X4.3864Y-4.997
X4.537Y-5.043
X4.5821Y-4.3569
X4.6895Y-6.16
X4.7327Y-4.403
X4.7778Y-3.7169
X4.8401Y-6.2061
X4.9284Y-3.7629
X4.9574Y-5.4186
X5.108Y-5.4646
X5.1531Y-4.7785
X5.3037Y-4.8246
X5.3395Y-6.3929
X5.3488Y-4.1385
X5.4856Y-6.4519
X5.4994Y-4.1845
X5.5744Y-5.6895
X5.725Y-5.7356
X5.7701Y-5.0495
X5.9207Y-5.0955
X5.9658Y-4.4094
X5.9815Y-6.7384
X6.1072Y-6.8332
X6.1164Y-4.4555
X6.5778Y-4.5413
X6.5778Y-4.2854
X6.7435Y-4.7455
X6.7435Y-4.8455
X6.7435Y-4.5455
X6.7435Y-4.3455
X6.7435Y-4.9455
X6.7435Y-5.0455
X6.7435Y-5.2455
X6.7435Y-5.3455
X6.7435Y-5.1455
X6.7435Y-4.2455
X6.7435Y-4.6455
X6.7435Y-4.4455
X7.3435Y-5.0455
X7.3435Y-4.8455
X7.3435Y-5.2455
X7.3435Y-4.3455
X7.3435Y-5.3455
X7.3435Y-4.2455
X7.3435Y-4.4455
X7.3435Y-4.5455
X7.3435Y-5.1455
X7.3435Y-4.9455
X7.3435Y-4.6455
X7.3435Y-4.7455
X7.9349Y-4.467
X7.9503Y-6.8569
X8.0761Y-6.7621
X8.0855Y-4.421
X8.1306Y-5.107
X8.2812Y-5.061
X8.3263Y-5.7471
X8.4769Y-5.701
X8.552Y-4.196
X8.5669Y-6.4667
X8.7026Y-4.15
X8.7129Y-6.4077
X8.7477Y-4.8361
X8.8983Y-4.79
X8.9433Y-5.4761
X9.0939Y-5.4301
X9.123Y-3.7744
X9.2112Y-6.2176
X9.2736Y-3.7284
X9.3186Y-4.4145
X9.3618Y-6.1715
X9.4692Y-4.3684
X9.5143Y-5.0545
X9.6649Y-5.0085
X9.8206Y-3.767
X9.9712Y-3.721
X10.0162Y-4.407
X10.1668Y-4.361
X10.2119Y-5.0471
X10.3625Y-5.0011
X10.7284Y-3.9984
X10.8676Y-4.6531
X10.8824Y-3.9657
X11.0067Y-5.3078
X11.0216Y-4.6204
X11.1607Y-5.275
X11.3831Y-3.8593
X11.5222Y-4.514
X11.5371Y-3.8266
X11.6614Y-5.1686
X11.6763Y-4.4812
X11.8154Y-5.1359
M30
