%TF.GenerationSoftware,KiCad,Pcbnew,8.0.6*%
%TF.CreationDate,2025-07-18T12:27:13+02:00*%
%TF.ProjectId,main,6d61696e-2e6b-4696-9361-645f70636258,v1.0.0*%
%TF.SameCoordinates,Original*%
%TF.FileFunction,Copper,L1,Top*%
%TF.FilePolarity,Positive*%
%FSLAX46Y46*%
G04 Gerber Fmt 4.6, Leading zero omitted, Abs format (unit mm)*
G04 Created by KiCad (PCBNEW 8.0.6) date 2025-07-18 12:27:13*
%MOMM*%
%LPD*%
G01*
G04 APERTURE LIST*
G04 Aperture macros list*
%AMRoundRect*
0 Rectangle with rounded corners*
0 $1 Rounding radius*
0 $2 $3 $4 $5 $6 $7 $8 $9 X,Y pos of 4 corners*
0 Add a 4 corners polygon primitive as box body*
4,1,4,$2,$3,$4,$5,$6,$7,$8,$9,$2,$3,0*
0 Add four circle primitives for the rounded corners*
1,1,$1+$1,$2,$3*
1,1,$1+$1,$4,$5*
1,1,$1+$1,$6,$7*
1,1,$1+$1,$8,$9*
0 Add four rect primitives between the rounded corners*
20,1,$1+$1,$2,$3,$4,$5,0*
20,1,$1+$1,$4,$5,$6,$7,0*
20,1,$1+$1,$6,$7,$8,$9,0*
20,1,$1+$1,$8,$9,$2,$3,0*%
%AMRotRect*
0 Rectangle, with rotation*
0 The origin of the aperture is its center*
0 $1 length*
0 $2 width*
0 $3 Rotation angle, in degrees counterclockwise*
0 Add horizontal line*
21,1,$1,$2,0,0,$3*%
G04 Aperture macros list end*
%TA.AperFunction,ComponentPad*%
%ADD10C,1.400000*%
%TD*%
%TA.AperFunction,SMDPad,CuDef*%
%ADD11RotRect,1.550000X2.000000X343.000000*%
%TD*%
%TA.AperFunction,SMDPad,CuDef*%
%ADD12RotRect,2.000000X2.000000X343.000000*%
%TD*%
%TA.AperFunction,SMDPad,CuDef*%
%ADD13RotRect,0.900000X1.200000X17.000000*%
%TD*%
%TA.AperFunction,SMDPad,CuDef*%
%ADD14RotRect,0.900000X1.200000X12.000000*%
%TD*%
%TA.AperFunction,SMDPad,CuDef*%
%ADD15RotRect,1.550000X2.000000X17.000000*%
%TD*%
%TA.AperFunction,SMDPad,CuDef*%
%ADD16RotRect,2.000000X2.000000X17.000000*%
%TD*%
%TA.AperFunction,SMDPad,CuDef*%
%ADD17RotRect,1.550000X2.000000X348.000000*%
%TD*%
%TA.AperFunction,SMDPad,CuDef*%
%ADD18RotRect,2.000000X2.000000X348.000000*%
%TD*%
%TA.AperFunction,SMDPad,CuDef*%
%ADD19RotRect,0.900000X1.200000X343.000000*%
%TD*%
%TA.AperFunction,SMDPad,CuDef*%
%ADD20RotRect,1.550000X2.000000X22.000000*%
%TD*%
%TA.AperFunction,SMDPad,CuDef*%
%ADD21RotRect,2.000000X2.000000X22.000000*%
%TD*%
%TA.AperFunction,SMDPad,CuDef*%
%ADD22RotRect,0.900000X1.200000X348.000000*%
%TD*%
%TA.AperFunction,SMDPad,CuDef*%
%ADD23RotRect,0.900000X1.200000X323.000000*%
%TD*%
%TA.AperFunction,SMDPad,CuDef*%
%ADD24RotRect,1.550000X2.000000X323.000000*%
%TD*%
%TA.AperFunction,SMDPad,CuDef*%
%ADD25RotRect,2.000000X2.000000X323.000000*%
%TD*%
%TA.AperFunction,ComponentPad*%
%ADD26RoundRect,0.240000X-0.360000X-0.635000X0.360000X-0.635000X0.360000X0.635000X-0.360000X0.635000X0*%
%TD*%
%TA.AperFunction,ComponentPad*%
%ADD27O,1.200000X1.750000*%
%TD*%
%TA.AperFunction,SMDPad,CuDef*%
%ADD28RotRect,0.900000X1.200000X22.000000*%
%TD*%
%TA.AperFunction,SMDPad,CuDef*%
%ADD29RotRect,0.900000X1.200000X37.000000*%
%TD*%
%TA.AperFunction,SMDPad,CuDef*%
%ADD30RotRect,1.550000X2.000000X12.000000*%
%TD*%
%TA.AperFunction,SMDPad,CuDef*%
%ADD31RotRect,2.000000X2.000000X12.000000*%
%TD*%
%TA.AperFunction,SMDPad,CuDef*%
%ADD32RotRect,1.550000X2.000000X338.000000*%
%TD*%
%TA.AperFunction,SMDPad,CuDef*%
%ADD33RotRect,2.000000X2.000000X338.000000*%
%TD*%
%TA.AperFunction,ComponentPad*%
%ADD34C,1.700000*%
%TD*%
%TA.AperFunction,SMDPad,CuDef*%
%ADD35RotRect,1.000000X0.800000X150.000000*%
%TD*%
%TA.AperFunction,SMDPad,CuDef*%
%ADD36RotRect,0.700000X1.500000X150.000000*%
%TD*%
%TA.AperFunction,SMDPad,CuDef*%
%ADD37RotRect,1.550000X2.000000X37.000000*%
%TD*%
%TA.AperFunction,SMDPad,CuDef*%
%ADD38RotRect,2.000000X2.000000X37.000000*%
%TD*%
%TA.AperFunction,SMDPad,CuDef*%
%ADD39RotRect,0.900000X1.200000X338.000000*%
%TD*%
%TA.AperFunction,ViaPad*%
%ADD40C,0.600000*%
%TD*%
%TA.AperFunction,Conductor*%
%ADD41C,0.200000*%
%TD*%
%TA.AperFunction,Conductor*%
%ADD42C,0.250000*%
%TD*%
G04 APERTURE END LIST*
D10*
%TO.P,CPG1316,1*%
%TO.N,P7*%
X116385649Y-110665921D03*
D11*
X116385649Y-110665921D03*
D10*
%TO.P,CPG1316,2*%
%TO.N,middle_home*%
X120210869Y-111835418D03*
D11*
X120210869Y-111835418D03*
D12*
%TO.P,CPG1316,3*%
%TO.N,N/C*%
X115232890Y-101268256D03*
X111724431Y-112743918D03*
X127377959Y-104981378D03*
X123869500Y-116457040D03*
%TD*%
D10*
%TO.P,CPG1316,1*%
%TO.N,P7*%
X121355970Y-94408736D03*
D11*
X121355970Y-94408736D03*
D10*
%TO.P,CPG1316,2*%
%TO.N,middle_top*%
X125181190Y-95578233D03*
D11*
X125181190Y-95578233D03*
D12*
%TO.P,CPG1316,3*%
%TO.N,N/C*%
X120203211Y-85011071D03*
X116694752Y-96486733D03*
X132348280Y-88724193D03*
X128839821Y-100199855D03*
%TD*%
D10*
%TO.P,CPG1316,1*%
%TO.N,P8*%
X125918265Y-137631240D03*
D11*
X125918265Y-137631240D03*
D10*
%TO.P,CPG1316,2*%
%TO.N,index_bottom*%
X129743485Y-138800737D03*
D11*
X129743485Y-138800737D03*
D12*
%TO.P,CPG1316,3*%
%TO.N,N/C*%
X124765506Y-128233575D03*
X121257047Y-139709237D03*
X136910575Y-131946697D03*
X133402116Y-143422359D03*
%TD*%
D13*
%TO.P,D34,1*%
%TO.N,P2*%
X226409371Y-133728371D03*
%TO.P,D34,2*%
%TO.N,mirror_index_bottom*%
X229565183Y-132763545D03*
%TD*%
D14*
%TO.P,D26,1*%
%TO.N,P0*%
X275754948Y-112779315D03*
%TO.P,D26,2*%
%TO.N,mirror_pinky_home*%
X278982840Y-112093213D03*
%TD*%
D10*
%TO.P,CPG1316,1*%
%TO.N,P7*%
X231723025Y-95870610D03*
D15*
X231723025Y-95870610D03*
D10*
%TO.P,CPG1316,2*%
%TO.N,mirror_middle_top*%
X235548241Y-94701125D03*
D15*
X235548241Y-94701125D03*
D16*
%TO.P,CPG1316,3*%
%TO.N,N/C*%
X225512235Y-88724201D03*
X229020699Y-100199859D03*
X237657303Y-85011087D03*
X241165767Y-96486745D03*
%TD*%
D10*
%TO.P,CPG1316,1*%
%TO.N,P5*%
X73399419Y-133778081D03*
D17*
X73399419Y-133778081D03*
D10*
%TO.P,CPG1316,2*%
%TO.N,pinky_bottom*%
X77312005Y-134609733D03*
D17*
X77312005Y-134609733D03*
D18*
%TO.P,CPG1316,3*%
%TO.N,N/C*%
X71431987Y-124516648D03*
X68937047Y-136254415D03*
X83854459Y-127157131D03*
X81359519Y-138894898D03*
%TD*%
D10*
%TO.P,CPG1316,1*%
%TO.N,P6*%
X103636928Y-94219956D03*
D11*
X103636928Y-94219956D03*
D10*
%TO.P,CPG1316,2*%
%TO.N,ring_top*%
X107462148Y-95389453D03*
D11*
X107462148Y-95389453D03*
D12*
%TO.P,CPG1316,3*%
%TO.N,N/C*%
X102484169Y-84822291D03*
X98975710Y-96297953D03*
X114629238Y-88535413D03*
X111120779Y-100011075D03*
%TD*%
D19*
%TO.P,D10,1*%
%TO.N,P19*%
X113792381Y-122055400D03*
%TO.P,D10,2*%
%TO.N,middle_bottom*%
X116948179Y-123020220D03*
%TD*%
D13*
%TO.P,D29,1*%
%TO.N,P0*%
X253661051Y-106574240D03*
%TO.P,D29,2*%
%TO.N,mirror_ring_home*%
X256816863Y-105609414D03*
%TD*%
D14*
%TO.P,D25,1*%
%TO.N,P2*%
X279289452Y-129407823D03*
%TO.P,D25,2*%
%TO.N,mirror_pinky_bottom*%
X282517344Y-128721721D03*
%TD*%
D19*
%TO.P,D16,1*%
%TO.N,P19*%
X143967773Y-139646471D03*
%TO.P,D16,2*%
%TO.N,inner_bottom*%
X147123571Y-140611291D03*
%TD*%
D10*
%TO.P,CPG1316,1*%
%TO.N,P8*%
X227160720Y-139093119D03*
D15*
X227160720Y-139093119D03*
D10*
%TO.P,CPG1316,2*%
%TO.N,mirror_index_bottom*%
X230985936Y-137923634D03*
D15*
X230985936Y-137923634D03*
D16*
%TO.P,CPG1316,3*%
%TO.N,N/C*%
X220949930Y-131946710D03*
X224458394Y-143422368D03*
X233094998Y-128233596D03*
X236603462Y-139709254D03*
%TD*%
D10*
%TO.P,CPG1316,1*%
%TO.N,P8*%
X217600044Y-164253920D03*
D20*
X217600044Y-164253920D03*
D10*
%TO.P,CPG1316,2*%
%TO.N,mirror_home_thumb*%
X221308784Y-162755491D03*
D20*
X221308784Y-162755491D03*
D21*
%TO.P,CPG1316,3*%
%TO.N,N/C*%
X210790042Y-157676010D03*
X215285319Y-168802216D03*
X222565281Y-152918508D03*
X227060558Y-164044714D03*
%TD*%
D19*
%TO.P,D9,1*%
%TO.N,P21*%
X106013978Y-89352235D03*
%TO.P,D9,2*%
%TO.N,ring_top*%
X109169776Y-90317055D03*
%TD*%
D22*
%TO.P,D3,1*%
%TO.N,P21*%
X65783650Y-91930199D03*
%TO.P,D3,2*%
%TO.N,outer_top*%
X69011564Y-92616311D03*
%TD*%
D10*
%TO.P,CPG1316,1*%
%TO.N,P9*%
X151531348Y-111999824D03*
D11*
X151531348Y-111999824D03*
D10*
%TO.P,CPG1316,2*%
%TO.N,inner_top*%
X155356568Y-113169321D03*
D11*
X155356568Y-113169321D03*
D12*
%TO.P,CPG1316,3*%
%TO.N,N/C*%
X150378589Y-102602159D03*
X146870130Y-114077821D03*
X162523658Y-106315281D03*
X159015199Y-117790943D03*
%TD*%
D22*
%TO.P,D2,1*%
%TO.N,P20*%
X62249151Y-108558712D03*
%TO.P,D2,2*%
%TO.N,outer_home*%
X65477065Y-109244824D03*
%TD*%
D23*
%TO.P,D21,1*%
%TO.N,P18*%
X155828154Y-167394794D03*
%TO.P,D21,2*%
%TO.N,far_thumb*%
X158463648Y-169380762D03*
%TD*%
D10*
%TO.P,CPG1316,1*%
%TO.N,P5*%
X76933934Y-117149575D03*
D17*
X76933934Y-117149575D03*
D10*
%TO.P,CPG1316,2*%
%TO.N,pinky_home*%
X80846520Y-117981227D03*
D17*
X80846520Y-117981227D03*
D18*
%TO.P,CPG1316,3*%
%TO.N,N/C*%
X74966502Y-107888142D03*
X72471562Y-119625909D03*
X87388974Y-110528625D03*
X84894034Y-122266392D03*
%TD*%
D13*
%TO.P,D35,1*%
%TO.N,P0*%
X221439059Y-117471188D03*
%TO.P,D35,2*%
%TO.N,mirror_index_home*%
X224594871Y-116506362D03*
%TD*%
D10*
%TO.P,CPG1316,1*%
%TO.N,P8*%
X222190398Y-122835938D03*
D15*
X222190398Y-122835938D03*
D10*
%TO.P,CPG1316,2*%
%TO.N,mirror_index_home*%
X226015614Y-121666453D03*
D15*
X226015614Y-121666453D03*
D16*
%TO.P,CPG1316,3*%
%TO.N,N/C*%
X215979608Y-115689529D03*
X219488072Y-127165187D03*
X228124676Y-111976415D03*
X231633140Y-123452073D03*
%TD*%
D19*
%TO.P,D12,1*%
%TO.N,P21*%
X123733006Y-89541036D03*
%TO.P,D12,2*%
%TO.N,middle_top*%
X126888804Y-90505856D03*
%TD*%
D10*
%TO.P,CPG1316,1*%
%TO.N,P9*%
X151929596Y-171155935D03*
D24*
X151929596Y-171155935D03*
D10*
%TO.P,CPG1316,2*%
%TO.N,far_thumb*%
X155124138Y-173563189D03*
D24*
X155124138Y-173563189D03*
D25*
%TO.P,CPG1316,3*%
%TO.N,N/C*%
X146838772Y-171514372D03*
X154060553Y-161930746D03*
X156981445Y-179157422D03*
X164203226Y-169573796D03*
%TD*%
D14*
%TO.P,D23,1*%
%TO.N,P0*%
X292383464Y-109244816D03*
%TO.P,D23,2*%
%TO.N,mirror_outer_home*%
X295611356Y-108558714D03*
%TD*%
D13*
%TO.P,D33,1*%
%TO.N,P1*%
X230971694Y-90505866D03*
%TO.P,D33,2*%
%TO.N,mirror_middle_top*%
X234127506Y-89541040D03*
%TD*%
D26*
%TO.P,JST1,1*%
%TO.N,GND*%
X164974996Y-118674999D03*
D27*
%TO.P,JST1,2*%
%TO.N,BAT_P*%
X166974992Y-118675007D03*
%TD*%
D22*
%TO.P,D4,1*%
%TO.N,P19*%
X75343167Y-128721726D03*
%TO.P,D4,2*%
%TO.N,pinky_bottom*%
X78571081Y-129407838D03*
%TD*%
D13*
%TO.P,D36,1*%
%TO.N,P1*%
X216468735Y-101214007D03*
%TO.P,D36,2*%
%TO.N,mirror_index_top*%
X219624547Y-100249181D03*
%TD*%
D28*
%TO.P,D41,1*%
%TO.N,P3*%
X216384019Y-158975078D03*
%TO.P,D41,2*%
%TO.N,mirror_home_thumb*%
X219443715Y-157738874D03*
%TD*%
D10*
%TO.P,CPG1316,1*%
%TO.N,P4*%
X60305399Y-113615073D03*
D17*
X60305399Y-113615073D03*
D10*
%TO.P,CPG1316,2*%
%TO.N,outer_home*%
X64217985Y-114446725D03*
D17*
X64217985Y-114446725D03*
D18*
%TO.P,CPG1316,3*%
%TO.N,N/C*%
X58337967Y-104353640D03*
X55843027Y-116091407D03*
X70760439Y-106994123D03*
X68265499Y-118731890D03*
%TD*%
D10*
%TO.P,CPG1316,1*%
%TO.N,P6*%
X98666608Y-110477127D03*
D11*
X98666608Y-110477127D03*
D10*
%TO.P,CPG1316,2*%
%TO.N,ring_home*%
X102491828Y-111646624D03*
D11*
X102491828Y-111646624D03*
D12*
%TO.P,CPG1316,3*%
%TO.N,N/C*%
X97513849Y-101079462D03*
X94005390Y-112555124D03*
X109658918Y-104792584D03*
X106150459Y-116268246D03*
%TD*%
D10*
%TO.P,CPG1316,1*%
%TO.N,P9*%
X201547649Y-113461690D03*
D15*
X201547649Y-113461690D03*
D10*
%TO.P,CPG1316,2*%
%TO.N,mirror_inner_top*%
X205372865Y-112292205D03*
D15*
X205372865Y-112292205D03*
D16*
%TO.P,CPG1316,3*%
%TO.N,N/C*%
X195336859Y-106315281D03*
X198845323Y-117790939D03*
X207481927Y-102602167D03*
X210990391Y-114077825D03*
%TD*%
D10*
%TO.P,CPG1316,1*%
%TO.N,P7*%
X241663664Y-128384964D03*
D15*
X241663664Y-128384964D03*
D10*
%TO.P,CPG1316,2*%
%TO.N,mirror_middle_bottom*%
X245488880Y-127215479D03*
D15*
X245488880Y-127215479D03*
D16*
%TO.P,CPG1316,3*%
%TO.N,N/C*%
X235452874Y-121238555D03*
X238961338Y-132714213D03*
X247597942Y-117525441D03*
X251106406Y-129001099D03*
%TD*%
D10*
%TO.P,CPG1316,1*%
%TO.N,P9*%
X211488277Y-145976056D03*
D15*
X211488277Y-145976056D03*
D10*
%TO.P,CPG1316,2*%
%TO.N,mirror_inner_bottom*%
X215313493Y-144806571D03*
D15*
X215313493Y-144806571D03*
D16*
%TO.P,CPG1316,3*%
%TO.N,N/C*%
X205277487Y-138829647D03*
X208785951Y-150305305D03*
X217422555Y-135116533D03*
X220931019Y-146592191D03*
%TD*%
D10*
%TO.P,CPG1316,1*%
%TO.N,P7*%
X236693345Y-112127788D03*
D15*
X236693345Y-112127788D03*
D10*
%TO.P,CPG1316,2*%
%TO.N,mirror_middle_home*%
X240518561Y-110958303D03*
D15*
X240518561Y-110958303D03*
D16*
%TO.P,CPG1316,3*%
%TO.N,N/C*%
X230482555Y-104981379D03*
X233991019Y-116457037D03*
X242627623Y-101268265D03*
X246136087Y-112743923D03*
%TD*%
D19*
%TO.P,D14,1*%
%TO.N,P20*%
X133265656Y-116506370D03*
%TO.P,D14,2*%
%TO.N,index_home*%
X136421454Y-117471190D03*
%TD*%
D29*
%TO.P,D42,1*%
%TO.N,P3*%
X199396862Y-169380780D03*
%TO.P,D42,2*%
%TO.N,mirror_far_thumb*%
X202032368Y-167394770D03*
%TD*%
D13*
%TO.P,D30,1*%
%TO.N,P1*%
X248690736Y-90317067D03*
%TO.P,D30,2*%
%TO.N,mirror_ring_top*%
X251846548Y-89352241D03*
%TD*%
D14*
%TO.P,D22,1*%
%TO.N,P2*%
X295917965Y-125873331D03*
%TO.P,D22,2*%
%TO.N,mirror_outer_bottom*%
X299145857Y-125187229D03*
%TD*%
D19*
%TO.P,D7,1*%
%TO.N,P19*%
X96073337Y-121866594D03*
%TO.P,D7,2*%
%TO.N,ring_bottom*%
X99229135Y-122831414D03*
%TD*%
D10*
%TO.P,CPG1316,1*%
%TO.N,P4*%
X289129865Y-98026131D03*
D30*
X289129865Y-98026131D03*
D10*
%TO.P,CPG1316,2*%
%TO.N,mirror_outer_top*%
X293042457Y-97194484D03*
D30*
X293042457Y-97194484D03*
D31*
%TO.P,CPG1316,3*%
%TO.N,N/C*%
X283565560Y-90365618D03*
X286060499Y-102103386D03*
X295988039Y-87725138D03*
X298482978Y-99462906D03*
%TD*%
D10*
%TO.P,CPG1316,1*%
%TO.N,P5*%
X279570342Y-134817633D03*
D30*
X279570342Y-134817633D03*
D10*
%TO.P,CPG1316,2*%
%TO.N,mirror_pinky_bottom*%
X283482934Y-133985986D03*
D30*
X283482934Y-133985986D03*
D31*
%TO.P,CPG1316,3*%
%TO.N,N/C*%
X274006037Y-127157120D03*
X276500976Y-138894888D03*
X286428516Y-124516640D03*
X288923455Y-136254408D03*
%TD*%
D13*
%TO.P,D28,1*%
%TO.N,P2*%
X258631370Y-122831426D03*
%TO.P,D28,2*%
%TO.N,mirror_ring_bottom*%
X261787182Y-121866600D03*
%TD*%
%TO.P,D31,1*%
%TO.N,P2*%
X240912332Y-123020220D03*
%TO.P,D31,2*%
%TO.N,mirror_middle_bottom*%
X244068144Y-122055394D03*
%TD*%
D10*
%TO.P,CPG1316,1*%
%TO.N,P7*%
X119114534Y-156464968D03*
D11*
X119114534Y-156464968D03*
D10*
%TO.P,CPG1316,2*%
%TO.N,near_thumb*%
X122939754Y-157634465D03*
D11*
X122939754Y-157634465D03*
D12*
%TO.P,CPG1316,3*%
%TO.N,N/C*%
X117961775Y-147067303D03*
X114453316Y-158542965D03*
X130106844Y-150780425D03*
X126598385Y-162256087D03*
%TD*%
D22*
%TO.P,D6,1*%
%TO.N,P21*%
X82412158Y-95464704D03*
%TO.P,D6,2*%
%TO.N,pinky_top*%
X85640072Y-96150816D03*
%TD*%
D10*
%TO.P,CPG1316,1*%
%TO.N,P8*%
X217220077Y-106578751D03*
D15*
X217220077Y-106578751D03*
D10*
%TO.P,CPG1316,2*%
%TO.N,mirror_index_top*%
X221045293Y-105409266D03*
D15*
X221045293Y-105409266D03*
D16*
%TO.P,CPG1316,3*%
%TO.N,N/C*%
X211009287Y-99432342D03*
X214517751Y-110908000D03*
X223154355Y-95719228D03*
X226662819Y-107194886D03*
%TD*%
D13*
%TO.P,D37,1*%
%TO.N,P2*%
X210736939Y-140611296D03*
%TO.P,D37,2*%
%TO.N,mirror_inner_bottom*%
X213892751Y-139646470D03*
%TD*%
D10*
%TO.P,CPG1316,1*%
%TO.N,P4*%
X292664349Y-114654635D03*
D30*
X292664349Y-114654635D03*
D10*
%TO.P,CPG1316,2*%
%TO.N,mirror_outer_home*%
X296576941Y-113822988D03*
D30*
X296576941Y-113822988D03*
D31*
%TO.P,CPG1316,3*%
%TO.N,N/C*%
X287100044Y-106994122D03*
X289594983Y-118731890D03*
X299522523Y-104353642D03*
X302017462Y-116091410D03*
%TD*%
D10*
%TO.P,CPG1316,1*%
%TO.N,P9*%
X141590710Y-144514184D03*
D11*
X141590710Y-144514184D03*
D10*
%TO.P,CPG1316,2*%
%TO.N,inner_bottom*%
X145415930Y-145683681D03*
D11*
X145415930Y-145683681D03*
D12*
%TO.P,CPG1316,3*%
%TO.N,N/C*%
X140437951Y-135116519D03*
X136929492Y-146592181D03*
X152583020Y-138829641D03*
X149074561Y-150305303D03*
%TD*%
D10*
%TO.P,CPG1316,1*%
%TO.N,P8*%
X130888600Y-121374074D03*
D11*
X130888600Y-121374074D03*
D10*
%TO.P,CPG1316,2*%
%TO.N,index_home*%
X134713820Y-122543571D03*
D11*
X134713820Y-122543571D03*
D12*
%TO.P,CPG1316,3*%
%TO.N,N/C*%
X129735841Y-111976409D03*
X126227382Y-123452071D03*
X141880910Y-115689531D03*
X138372451Y-127165193D03*
%TD*%
D13*
%TO.P,D40,1*%
%TO.N,P3*%
X233213117Y-152562090D03*
%TO.P,D40,2*%
%TO.N,mirror_near_thumb*%
X236368929Y-151597264D03*
%TD*%
D10*
%TO.P,CPG1316,1*%
%TO.N,P6*%
X93696285Y-126734318D03*
D11*
X93696285Y-126734318D03*
D10*
%TO.P,CPG1316,2*%
%TO.N,ring_bottom*%
X97521505Y-127903815D03*
D11*
X97521505Y-127903815D03*
D12*
%TO.P,CPG1316,3*%
%TO.N,N/C*%
X92543526Y-117336653D03*
X89035067Y-128812315D03*
X104688595Y-121049775D03*
X101180136Y-132525437D03*
%TD*%
D22*
%TO.P,D5,1*%
%TO.N,P20*%
X78877658Y-112093219D03*
%TO.P,D5,2*%
%TO.N,pinky_home*%
X82105572Y-112779331D03*
%TD*%
D10*
%TO.P,CPG1316,1*%
%TO.N,P7*%
X233964450Y-157926831D03*
D15*
X233964450Y-157926831D03*
D10*
%TO.P,CPG1316,2*%
%TO.N,mirror_near_thumb*%
X237789666Y-156757346D03*
D15*
X237789666Y-156757346D03*
D16*
%TO.P,CPG1316,3*%
%TO.N,N/C*%
X227753660Y-150780422D03*
X231262124Y-162256080D03*
X239898728Y-147067308D03*
X243407192Y-158542966D03*
%TD*%
D10*
%TO.P,CPG1316,1*%
%TO.N,P5*%
X276035856Y-118189138D03*
D30*
X276035856Y-118189138D03*
D10*
%TO.P,CPG1316,2*%
%TO.N,mirror_pinky_home*%
X279948448Y-117357491D03*
D30*
X279948448Y-117357491D03*
D31*
%TO.P,CPG1316,3*%
%TO.N,N/C*%
X270471551Y-110528625D03*
X272966490Y-122266393D03*
X282894030Y-107888145D03*
X285388969Y-119625913D03*
%TD*%
D19*
%TO.P,D19,1*%
%TO.N,P18*%
X121491592Y-151597273D03*
%TO.P,D19,2*%
%TO.N,near_thumb*%
X124647390Y-152562093D03*
%TD*%
D10*
%TO.P,CPG1316,1*%
%TO.N,P4*%
X63839904Y-96986563D03*
D17*
X63839904Y-96986563D03*
D10*
%TO.P,CPG1316,2*%
%TO.N,outer_top*%
X67752490Y-97818215D03*
D17*
X67752490Y-97818215D03*
D18*
%TO.P,CPG1316,3*%
%TO.N,N/C*%
X61872472Y-87725130D03*
X59377532Y-99462897D03*
X74294944Y-90365613D03*
X71800004Y-102103380D03*
%TD*%
D10*
%TO.P,CPG1316,1*%
%TO.N,P5*%
X80468420Y-100521058D03*
D17*
X80468420Y-100521058D03*
D10*
%TO.P,CPG1316,2*%
%TO.N,pinky_top*%
X84381006Y-101352710D03*
D17*
X84381006Y-101352710D03*
D18*
%TO.P,CPG1316,3*%
%TO.N,N/C*%
X78500988Y-91259625D03*
X76006048Y-102997392D03*
X90923460Y-93900108D03*
X88428520Y-105637875D03*
%TD*%
D13*
%TO.P,D38,1*%
%TO.N,P0*%
X205766625Y-124354120D03*
%TO.P,D38,2*%
%TO.N,mirror_inner_home*%
X208922437Y-123389294D03*
%TD*%
D10*
%TO.P,CPG1316,1*%
%TO.N,P8*%
X135624550Y-162380893D03*
D32*
X135624550Y-162380893D03*
D10*
%TO.P,CPG1316,2*%
%TO.N,home_thumb*%
X139333278Y-163879313D03*
D32*
X139333278Y-163879313D03*
D33*
%TO.P,CPG1316,3*%
%TO.N,N/C*%
X135295237Y-152918515D03*
X130799960Y-164044716D03*
X147070470Y-157676020D03*
X142575193Y-168802221D03*
%TD*%
D34*
%TO.P,RST1,1*%
%TO.N,RST*%
X167074989Y-115349996D03*
%TO.P,RST1,2*%
%TO.N,GND*%
X167075005Y-108850000D03*
%TD*%
D10*
%TO.P,CPG1316,1*%
%TO.N,P9*%
X206517954Y-129718864D03*
D15*
X206517954Y-129718864D03*
D10*
%TO.P,CPG1316,2*%
%TO.N,mirror_inner_home*%
X210343170Y-128549379D03*
D15*
X210343170Y-128549379D03*
D16*
%TO.P,CPG1316,3*%
%TO.N,N/C*%
X200307164Y-122572455D03*
X203815628Y-134048113D03*
X212452232Y-118859341D03*
X215960696Y-130334999D03*
%TD*%
D10*
%TO.P,CPG1316,1*%
%TO.N,P6*%
X259382697Y-128196183D03*
D15*
X259382697Y-128196183D03*
D10*
%TO.P,CPG1316,2*%
%TO.N,mirror_ring_bottom*%
X263207913Y-127026698D03*
D15*
X263207913Y-127026698D03*
D16*
%TO.P,CPG1316,3*%
%TO.N,N/C*%
X253171907Y-121049774D03*
X256680371Y-132525432D03*
X265316975Y-117336660D03*
X268825439Y-128812318D03*
%TD*%
D10*
%TO.P,CPG1316,1*%
%TO.N,P9*%
X146561033Y-128257002D03*
D11*
X146561033Y-128257002D03*
D10*
%TO.P,CPG1316,2*%
%TO.N,inner_home*%
X150386253Y-129426499D03*
D11*
X150386253Y-129426499D03*
D12*
%TO.P,CPG1316,3*%
%TO.N,N/C*%
X145408274Y-118859337D03*
X141899815Y-130334999D03*
X157553343Y-122572459D03*
X154044884Y-134048121D03*
%TD*%
D19*
%TO.P,D13,1*%
%TO.N,P19*%
X128295330Y-132763543D03*
%TO.P,D13,2*%
%TO.N,index_bottom*%
X131451128Y-133728363D03*
%TD*%
D13*
%TO.P,D39,1*%
%TO.N,P1*%
X200796293Y-108096936D03*
%TO.P,D39,2*%
%TO.N,mirror_inner_top*%
X203952105Y-107132110D03*
%TD*%
D10*
%TO.P,CPG1316,1*%
%TO.N,P4*%
X296198851Y-131283137D03*
D30*
X296198851Y-131283137D03*
D10*
%TO.P,CPG1316,2*%
%TO.N,mirror_outer_bottom*%
X300111443Y-130451490D03*
D30*
X300111443Y-130451490D03*
D31*
%TO.P,CPG1316,3*%
%TO.N,N/C*%
X290634546Y-123622624D03*
X293129485Y-135360392D03*
X303057025Y-120982144D03*
X305551964Y-132719912D03*
%TD*%
D35*
%TO.P,PWR1,*%
%TO.N,*%
X142431955Y-93311295D03*
X136109979Y-89661282D03*
X137214958Y-87747368D03*
X143536956Y-91397370D03*
D36*
%TO.P,PWR1,1*%
%TO.N,N/C*%
X140894515Y-93174207D03*
%TO.P,PWR1,2*%
%TO.N,RAW*%
X138296440Y-91674213D03*
%TO.P,PWR1,3*%
%TO.N,BAT_P*%
X136997408Y-90924209D03*
%TD*%
D14*
%TO.P,D27,1*%
%TO.N,P1*%
X272220457Y-96150800D03*
%TO.P,D27,2*%
%TO.N,mirror_pinky_top*%
X275448349Y-95464698D03*
%TD*%
D10*
%TO.P,CPG1316,1*%
%TO.N,P8*%
X135858918Y-105116909D03*
D11*
X135858918Y-105116909D03*
D10*
%TO.P,CPG1316,2*%
%TO.N,index_top*%
X139684138Y-106286406D03*
D11*
X139684138Y-106286406D03*
D12*
%TO.P,CPG1316,3*%
%TO.N,N/C*%
X134706159Y-95719244D03*
X131197700Y-107194906D03*
X146851228Y-99432366D03*
X143342769Y-110908028D03*
%TD*%
D19*
%TO.P,D15,1*%
%TO.N,P21*%
X138235972Y-100249180D03*
%TO.P,D15,2*%
%TO.N,index_top*%
X141391770Y-101214000D03*
%TD*%
%TO.P,D17,1*%
%TO.N,P20*%
X148938086Y-123389299D03*
%TO.P,D17,2*%
%TO.N,inner_home*%
X152093884Y-124354119D03*
%TD*%
%TO.P,D8,1*%
%TO.N,P20*%
X101043664Y-105609426D03*
%TO.P,D8,2*%
%TO.N,ring_home*%
X104199462Y-106574246D03*
%TD*%
%TO.P,D11,1*%
%TO.N,P20*%
X118762691Y-105798215D03*
%TO.P,D11,2*%
%TO.N,middle_home*%
X121918489Y-106763035D03*
%TD*%
D13*
%TO.P,D32,1*%
%TO.N,P0*%
X235942018Y-106763040D03*
%TO.P,D32,2*%
%TO.N,mirror_middle_home*%
X239097830Y-105798214D03*
%TD*%
D22*
%TO.P,D1,1*%
%TO.N,P19*%
X58714655Y-125187215D03*
%TO.P,D1,2*%
%TO.N,outer_bottom*%
X61942569Y-125873327D03*
%TD*%
D10*
%TO.P,CPG1316,1*%
%TO.N,P6*%
X249442059Y-95681812D03*
D15*
X249442059Y-95681812D03*
D10*
%TO.P,CPG1316,2*%
%TO.N,mirror_ring_top*%
X253267275Y-94512327D03*
D15*
X253267275Y-94512327D03*
D16*
%TO.P,CPG1316,3*%
%TO.N,N/C*%
X243231269Y-88535403D03*
X246739733Y-100011061D03*
X255376337Y-84822289D03*
X258884801Y-96297947D03*
%TD*%
D10*
%TO.P,CPG1316,1*%
%TO.N,P7*%
X111415320Y-126923112D03*
D11*
X111415320Y-126923112D03*
D10*
%TO.P,CPG1316,2*%
%TO.N,middle_bottom*%
X115240540Y-128092609D03*
D11*
X115240540Y-128092609D03*
D12*
%TO.P,CPG1316,3*%
%TO.N,N/C*%
X110262561Y-117525447D03*
X106754102Y-129001109D03*
X122407630Y-121238569D03*
X118899171Y-132714231D03*
%TD*%
D19*
%TO.P,D18,1*%
%TO.N,P21*%
X153908406Y-107132117D03*
%TO.P,D18,2*%
%TO.N,inner_top*%
X157064204Y-108096937D03*
%TD*%
D10*
%TO.P,CPG1316,1*%
%TO.N,P9*%
X201937726Y-174165016D03*
D37*
X201937726Y-174165016D03*
D10*
%TO.P,CPG1316,2*%
%TO.N,mirror_far_thumb*%
X205132269Y-171757754D03*
D37*
X205132269Y-171757754D03*
D38*
%TO.P,CPG1316,3*%
%TO.N,N/C*%
X193657276Y-169573799D03*
X200879061Y-179157431D03*
X203799951Y-161930749D03*
X211021736Y-171514381D03*
%TD*%
D10*
%TO.P,CPG1316,1*%
%TO.N,P5*%
X272501356Y-101560627D03*
D30*
X272501356Y-101560627D03*
D10*
%TO.P,CPG1316,2*%
%TO.N,mirror_pinky_top*%
X276413948Y-100728980D03*
D30*
X276413948Y-100728980D03*
D31*
%TO.P,CPG1316,3*%
%TO.N,N/C*%
X266937051Y-93900114D03*
X269431990Y-105637882D03*
X279359530Y-91259634D03*
X281854469Y-102997402D03*
%TD*%
D39*
%TO.P,D20,1*%
%TO.N,P18*%
X138416788Y-157738875D03*
%TO.P,D20,2*%
%TO.N,home_thumb*%
X141476508Y-158975073D03*
%TD*%
D14*
%TO.P,D24,1*%
%TO.N,P1*%
X288848962Y-92616309D03*
%TO.P,D24,2*%
%TO.N,mirror_outer_top*%
X292076854Y-91930207D03*
%TD*%
D10*
%TO.P,CPG1316,1*%
%TO.N,P4*%
X56770911Y-130243580D03*
D17*
X56770911Y-130243580D03*
D10*
%TO.P,CPG1316,2*%
%TO.N,outer_bottom*%
X60683497Y-131075232D03*
D17*
X60683497Y-131075232D03*
D18*
%TO.P,CPG1316,3*%
%TO.N,N/C*%
X54803479Y-120982147D03*
X52308539Y-132719914D03*
X67225951Y-123622630D03*
X64731011Y-135360397D03*
%TD*%
D34*
%TO.P,MCU1,1*%
%TO.N,P1*%
X186524994Y-107834998D03*
%TO.P,MCU1,2*%
%TO.N,P0*%
X186524992Y-110374996D03*
%TO.P,MCU1,3*%
%TO.N,GND*%
X186524994Y-112915005D03*
%TO.P,MCU1,4*%
X186524996Y-115455001D03*
%TO.P,MCU1,5*%
%TO.N,P2*%
X186525000Y-117995011D03*
%TO.P,MCU1,6*%
%TO.N,P3*%
X186525001Y-120534997D03*
%TO.P,MCU1,7*%
%TO.N,P4*%
X186524989Y-123075002D03*
%TO.P,MCU1,8*%
%TO.N,P5*%
X186524997Y-125614999D03*
%TO.P,MCU1,9*%
%TO.N,P6*%
X186524988Y-128154999D03*
%TO.P,MCU1,10*%
%TO.N,P7*%
X186524996Y-130695008D03*
%TO.P,MCU1,11*%
%TO.N,P8*%
X186524991Y-133234992D03*
%TO.P,MCU1,12*%
%TO.N,P9*%
X186524993Y-135775007D03*
%TO.P,MCU1,13*%
%TO.N,P10*%
X171284995Y-135775001D03*
%TO.P,MCU1,14*%
%TO.N,P16*%
X171284994Y-133235000D03*
%TO.P,MCU1,15*%
%TO.N,P14*%
X171284996Y-130695002D03*
%TO.P,MCU1,16*%
%TO.N,P15*%
X171284994Y-128154993D03*
%TO.P,MCU1,17*%
%TO.N,P18*%
X171284992Y-125614997D03*
%TO.P,MCU1,18*%
%TO.N,P19*%
X171284988Y-123074987D03*
%TO.P,MCU1,19*%
%TO.N,P20*%
X171284987Y-120535001D03*
%TO.P,MCU1,20*%
%TO.N,P21*%
X171284999Y-117994996D03*
%TO.P,MCU1,21*%
%TO.N,VCC*%
X171284991Y-115454999D03*
%TO.P,MCU1,22*%
%TO.N,RST*%
X171285000Y-112914999D03*
%TO.P,MCU1,23*%
%TO.N,GND*%
X171284992Y-110374990D03*
%TO.P,MCU1,24*%
%TO.N,RAW*%
X171284997Y-107835006D03*
%TD*%
D10*
%TO.P,CPG1316,1*%
%TO.N,P6*%
X254412386Y-111938987D03*
D15*
X254412386Y-111938987D03*
D10*
%TO.P,CPG1316,2*%
%TO.N,mirror_ring_home*%
X258237602Y-110769502D03*
D15*
X258237602Y-110769502D03*
D16*
%TO.P,CPG1316,3*%
%TO.N,N/C*%
X248201596Y-104792578D03*
X251710060Y-116268236D03*
X260346664Y-101079464D03*
X263855128Y-112555122D03*
%TD*%
D40*
%TO.N,P4*%
X165349998Y-128500004D03*
X149586279Y-118513270D03*
%TO.N,outer_bottom*%
X63116332Y-126122829D03*
%TO.N,outer_home*%
X66650829Y-109494315D03*
%TO.N,outer_top*%
X70185325Y-92865812D03*
%TO.N,P5*%
X166150004Y-128500001D03*
X149820188Y-117748219D03*
%TO.N,pinky_bottom*%
X79744839Y-129657328D03*
%TO.N,pinky_home*%
X83279340Y-113028815D03*
%TO.N,pinky_top*%
X86813843Y-96400307D03*
%TO.N,P6*%
X150054082Y-116983173D03*
X167000006Y-128500006D03*
%TO.N,ring_bottom*%
X100376710Y-123182268D03*
%TO.N,ring_home*%
X105347018Y-106925098D03*
%TO.N,ring_top*%
X110317351Y-90667911D03*
%TO.N,P7*%
X167799995Y-128499996D03*
X150287986Y-116218128D03*
%TO.N,middle_bottom*%
X118095742Y-123371064D03*
%TO.N,middle_home*%
X123066057Y-107113888D03*
%TO.N,middle_top*%
X128036381Y-90856707D03*
%TO.N,P8*%
X168600004Y-128499998D03*
X150584307Y-115419896D03*
%TO.N,index_bottom*%
X132598686Y-134079220D03*
%TO.N,index_home*%
X137569005Y-117822033D03*
%TO.N,index_top*%
X142539328Y-101564850D03*
%TO.N,P9*%
X169450000Y-128499997D03*
%TO.N,inner_bottom*%
X148271135Y-140962138D03*
%TO.N,inner_home*%
X153241451Y-124704964D03*
%TO.N,inner_top*%
X158211773Y-108447787D03*
%TO.N,near_thumb*%
X125794956Y-152912948D03*
%TO.N,home_thumb*%
X142589118Y-159424600D03*
%TO.N,far_thumb*%
X159422013Y-170102957D03*
%TO.N,mirror_outer_bottom*%
X300319628Y-124937731D03*
%TO.N,mirror_outer_home*%
X296785122Y-108309218D03*
%TO.N,mirror_outer_top*%
X293250633Y-91680716D03*
%TO.N,mirror_pinky_bottom*%
X283691103Y-128472234D03*
%TO.N,mirror_pinky_home*%
X280156609Y-111843714D03*
%TO.N,mirror_pinky_top*%
X276622111Y-95215214D03*
%TO.N,mirror_ring_bottom*%
X262934751Y-121515750D03*
%TO.N,mirror_ring_home*%
X257964427Y-105258569D03*
%TO.N,mirror_ring_top*%
X252994113Y-89001387D03*
%TO.N,mirror_middle_bottom*%
X245215699Y-121704544D03*
%TO.N,mirror_middle_home*%
X240245385Y-105447365D03*
%TO.N,mirror_middle_top*%
X235275060Y-89190185D03*
%TO.N,mirror_index_bottom*%
X230712754Y-132412696D03*
%TO.N,mirror_index_home*%
X225742426Y-116155513D03*
%TO.N,mirror_index_top*%
X220772109Y-99898338D03*
%TO.N,mirror_inner_bottom*%
X215040323Y-139295621D03*
%TO.N,mirror_inner_home*%
X210069995Y-123038442D03*
%TO.N,mirror_inner_top*%
X205099680Y-106781262D03*
%TO.N,mirror_near_thumb*%
X237516490Y-151246429D03*
%TO.N,mirror_home_thumb*%
X220556338Y-157289346D03*
%TO.N,mirror_far_thumb*%
X202990726Y-166672613D03*
%TO.N,P19*%
X112644801Y-121704542D03*
X74169401Y-128472221D03*
X127147754Y-132412696D03*
X94925765Y-121515746D03*
X57540889Y-124937734D03*
X142820194Y-139295619D03*
%TO.N,P20*%
X99896084Y-105258579D03*
X77703896Y-111843716D03*
X147790520Y-123038452D03*
X61075398Y-108309220D03*
X117615121Y-105447370D03*
X132118086Y-116155521D03*
%TO.N,P21*%
X137088394Y-99898331D03*
X64609884Y-91680710D03*
X104866408Y-89001390D03*
X152760828Y-106781264D03*
X122585442Y-89190193D03*
X81238398Y-95215201D03*
%TO.N,P18*%
X137304161Y-157289352D03*
X120344021Y-151246414D03*
X154869777Y-166672603D03*
%TO.N,P2*%
X278115669Y-129657330D03*
X257483798Y-123182272D03*
X239764761Y-123371071D03*
X294744182Y-126122828D03*
X209589388Y-140962136D03*
X225261818Y-134079213D03*
%TO.N,P0*%
X220291499Y-117822024D03*
X204619056Y-124704959D03*
X252513482Y-106925091D03*
X274581171Y-113028824D03*
X234794442Y-107113890D03*
X291209685Y-109494312D03*
%TO.N,P1*%
X229824131Y-90856716D03*
X287675178Y-92865808D03*
X271046669Y-96400300D03*
X199648740Y-108447780D03*
X215321183Y-101564861D03*
X247543165Y-90667914D03*
%TO.N,P3*%
X215271396Y-159424609D03*
X198438498Y-170102949D03*
X232065552Y-152912948D03*
%TD*%
D41*
%TO.N,P21*%
X152935805Y-113890578D02*
X152102071Y-116617597D01*
X152781527Y-117895466D02*
X159828253Y-120049867D01*
X154602794Y-108438091D02*
X152935805Y-113890578D01*
X152102071Y-116617597D02*
X152781527Y-117895466D01*
X159828253Y-120049867D02*
X159875003Y-120025009D01*
%TO.N,mirror_far_thumb*%
X205132269Y-171757754D02*
X202002841Y-167604867D01*
X202002841Y-167604867D02*
X202032368Y-167394770D01*
%TO.N,mirror_home_thumb*%
X221308786Y-162755493D02*
X219360833Y-157934135D01*
X219360833Y-157934135D02*
X219443716Y-157738873D01*
%TO.N,far_thumb*%
X155124142Y-173563194D02*
X158253581Y-169410283D01*
X158253581Y-169410283D02*
X158463646Y-169380763D01*
%TO.N,home_thumb*%
X139333286Y-163879313D02*
X141281240Y-159057956D01*
X141281240Y-159057956D02*
X141476505Y-158975071D01*
%TO.N,pinky_bottom*%
X77312012Y-134609729D02*
X78393144Y-129523382D01*
X78393144Y-129523382D02*
X78571073Y-129407833D01*
%TO.N,outer_bottom*%
X60683495Y-131075225D02*
X61764631Y-125988878D01*
X61764631Y-125988878D02*
X61942565Y-125873329D01*
%TO.N,outer_home*%
X64217993Y-114446726D02*
X65299124Y-109360374D01*
X65299124Y-109360374D02*
X65477060Y-109244823D01*
%TO.N,pinky_home*%
X80846520Y-117981221D02*
X81024427Y-117865683D01*
X81024427Y-117865683D02*
X82105564Y-112779329D01*
%TO.N,outer_top*%
X67752490Y-97818216D02*
X67930422Y-97702667D01*
X67930422Y-97702667D02*
X69011560Y-92616314D01*
%TO.N,near_thumb*%
X122939749Y-157634458D02*
X123127056Y-157534873D01*
X123127056Y-157534873D02*
X124647383Y-152562099D01*
%TO.N,P21*%
X169254988Y-120024998D02*
X171285007Y-117994998D01*
X159875003Y-120025009D02*
X162650008Y-120024990D01*
X162650008Y-120024990D02*
X169254988Y-120024998D01*
%TO.N,inner_top*%
X155356570Y-113169314D02*
X156876898Y-108196523D01*
X156876898Y-108196523D02*
X157064202Y-108096932D01*
%TO.N,P21*%
X153908393Y-107132112D02*
X154602794Y-108438091D01*
X153908391Y-107132122D02*
X154602794Y-108438091D01*
X153908402Y-107132107D02*
X153908391Y-107132122D01*
%TO.N,inner_bottom*%
X145415932Y-145683669D02*
X146936258Y-140710893D01*
X146936258Y-140710893D02*
X147123565Y-140611295D01*
%TO.N,inner_home*%
X150386255Y-129426490D02*
X151906585Y-124453704D01*
X151906585Y-124453704D02*
X152093884Y-124354119D01*
%TO.N,index_home*%
X134713814Y-122543562D02*
X136234145Y-117570789D01*
X136234145Y-117570789D02*
X136421449Y-117471195D01*
%TO.N,index_bottom*%
X129743482Y-138800734D02*
X131263813Y-133827957D01*
X131263813Y-133827957D02*
X131451127Y-133728365D01*
%TO.N,middle_bottom*%
X115240541Y-128092598D02*
X115427846Y-127993007D01*
X115427846Y-127993007D02*
X116948181Y-123020217D01*
%TO.N,ring_bottom*%
X97521507Y-127903805D02*
X99041844Y-122931003D01*
X99041844Y-122931003D02*
X99229133Y-122831419D01*
%TO.N,middle_home*%
X120210864Y-111835411D02*
X120398158Y-111735828D01*
X120398158Y-111735828D02*
X121918488Y-106763045D01*
%TO.N,ring_home*%
X102491828Y-111646619D02*
X104012162Y-106673832D01*
X104012162Y-106673832D02*
X104199456Y-106574248D01*
%TO.N,index_top*%
X139684139Y-106286397D02*
X141204477Y-101313591D01*
X141204477Y-101313591D02*
X141391773Y-101214007D01*
%TO.N,middle_top*%
X125181184Y-95578233D02*
X125368475Y-95478652D01*
X125368475Y-95478652D02*
X126888807Y-90505860D01*
%TO.N,ring_top*%
X107462144Y-95389444D02*
X108982486Y-90416649D01*
X108982486Y-90416649D02*
X109169776Y-90317063D01*
%TO.N,mirror_outer_bottom*%
X300111446Y-130451490D02*
X299030313Y-125365152D01*
X299030313Y-125365152D02*
X299145857Y-125187230D01*
%TO.N,mirror_pinky_bottom*%
X283482938Y-133985987D02*
X282401804Y-128899639D01*
X282401804Y-128899639D02*
X282517344Y-128721725D01*
%TO.N,mirror_outer_home*%
X296576946Y-113822985D02*
X296692491Y-113645061D01*
X296692491Y-113645061D02*
X295611355Y-108558715D01*
%TO.N,mirror_pinky_home*%
X279948446Y-117357493D02*
X278867311Y-112271125D01*
X278867311Y-112271125D02*
X278982848Y-112093211D01*
%TO.N,mirror_outer_top*%
X293042458Y-97194486D02*
X291961314Y-92108128D01*
X291961314Y-92108128D02*
X292076851Y-91930206D01*
%TO.N,mirror_pinky_top*%
X276413948Y-100728984D02*
X275332809Y-95642619D01*
X275332809Y-95642619D02*
X275448351Y-95464695D01*
%TO.N,mirror_near_thumb*%
X237789665Y-156757348D02*
X236269331Y-151784561D01*
X236269331Y-151784561D02*
X236368926Y-151597261D01*
%TO.N,mirror_ring_home*%
X258237601Y-110769505D02*
X258337196Y-110582197D01*
X258337196Y-110582197D02*
X256816867Y-105609410D01*
%TO.N,mirror_ring_bottom*%
X263207914Y-127026695D02*
X263307513Y-126839384D01*
X263307513Y-126839384D02*
X261787179Y-121866602D01*
%TO.N,mirror_middle_bottom*%
X245488883Y-127215477D02*
X245588474Y-127028166D01*
X245588474Y-127028166D02*
X244068144Y-122055391D01*
%TO.N,mirror_middle_home*%
X240518565Y-110958296D02*
X238998238Y-105985527D01*
X238998238Y-105985527D02*
X239097834Y-105798219D01*
%TO.N,mirror_inner_top*%
X205372869Y-112292208D02*
X205472447Y-112104924D01*
X205472447Y-112104924D02*
X203952108Y-107132105D01*
%TO.N,mirror_inner_home*%
X210343174Y-128549379D02*
X208822842Y-123576597D01*
X208822842Y-123576597D02*
X208922430Y-123389292D01*
%TO.N,mirror_index_bottom*%
X230985943Y-137923626D02*
X229465606Y-132950838D01*
X229465606Y-132950838D02*
X229565192Y-132763541D01*
%TO.N,mirror_inner_bottom*%
X215313492Y-144806567D02*
X213793161Y-139833773D01*
X213793161Y-139833773D02*
X213892754Y-139646469D01*
%TO.N,mirror_index_home*%
X226015615Y-121666455D02*
X224495277Y-116693668D01*
X224495277Y-116693668D02*
X224594870Y-116506361D01*
%TO.N,mirror_index_top*%
X221045289Y-105409265D02*
X219524957Y-100436490D01*
X219524957Y-100436490D02*
X219624551Y-100249184D01*
%TO.N,mirror_ring_top*%
X253267276Y-94512327D02*
X253366873Y-94325010D01*
X253366873Y-94325010D02*
X251846552Y-89352242D01*
%TO.N,mirror_middle_top*%
X235548245Y-94701128D02*
X234027910Y-89728353D01*
X234027910Y-89728353D02*
X234127505Y-89541043D01*
%TO.N,P4*%
X112349167Y-96828668D02*
X108852866Y-98687675D01*
X135449412Y-111054110D02*
X135150637Y-110492205D01*
X65269375Y-99187751D02*
X63839903Y-96986573D01*
X165349999Y-129215684D02*
X165349998Y-128500004D01*
X128940750Y-103783462D02*
X126024020Y-102891732D01*
X82639833Y-100119653D02*
X82296777Y-101733580D01*
X186524996Y-123625005D02*
X186525004Y-123075006D01*
X149523858Y-118546459D02*
X144646703Y-117055363D01*
X119511086Y-97345182D02*
X117513210Y-98407473D01*
X144646703Y-117055363D02*
X142898551Y-117984867D01*
X81051416Y-102542330D02*
X65269375Y-99187751D01*
X96668206Y-98812314D02*
X100560103Y-99639554D01*
X96618028Y-98796967D02*
X92609839Y-97945001D01*
X96668206Y-98812314D02*
X96618028Y-98796967D01*
X139450673Y-116094198D02*
X140298557Y-113320907D01*
X100560103Y-99639554D02*
X100782919Y-99494864D01*
X104692944Y-97415861D02*
X100782919Y-99494864D01*
X123766656Y-98646236D02*
X119511086Y-97345182D01*
X82296777Y-101733580D02*
X81051416Y-102542330D01*
X149586279Y-118513270D02*
X149523858Y-118546459D01*
X166850012Y-137974994D02*
X166849999Y-130715688D01*
X142898551Y-117984867D02*
X139981817Y-117093143D01*
X139981817Y-117093143D02*
X139450673Y-116094198D01*
X186875008Y-140125006D02*
X189799998Y-137200001D01*
X169000005Y-140124997D02*
X186875008Y-140125006D01*
X126024020Y-102891732D02*
X123766656Y-98646236D01*
X189799998Y-137200001D02*
X189799993Y-126899991D01*
X89881907Y-99716544D02*
X84893350Y-98656197D01*
X129604674Y-105032140D02*
X128940750Y-103783462D01*
X92609839Y-97945001D02*
X89881907Y-99716544D01*
X84893350Y-98656197D02*
X82639833Y-100119653D01*
X108852866Y-98687675D02*
X104692944Y-97415861D01*
X189799993Y-126899991D02*
X186524996Y-123625005D01*
X139800604Y-112384407D02*
X135449412Y-111054110D01*
X129078115Y-108635647D02*
X128712952Y-107948875D01*
X135150637Y-110492205D02*
X129078115Y-108635647D01*
X166850012Y-137974994D02*
X169000005Y-140124997D01*
X117513210Y-98407473D02*
X112349167Y-96828668D01*
X140298557Y-113320907D02*
X139800604Y-112384407D01*
X166849999Y-130715688D02*
X165349999Y-129215684D01*
X128712952Y-107948875D02*
X129604674Y-105032140D01*
D42*
%TO.N,outer_bottom*%
X61942560Y-125873332D02*
X63116332Y-126122829D01*
%TO.N,outer_home*%
X65477048Y-109244829D02*
X66650829Y-109494315D01*
%TO.N,outer_top*%
X69011542Y-92616310D02*
X70185325Y-92865812D01*
D41*
%TO.N,P5*%
X129297385Y-107918420D02*
X129463368Y-108230586D01*
X139924865Y-116082321D02*
X140256832Y-116706655D01*
X118596194Y-95549225D02*
X119226936Y-96735462D01*
X148125329Y-117648321D02*
X148624802Y-117382749D01*
X166149997Y-129225000D02*
X166150004Y-128500001D01*
X129355240Y-103282774D02*
X130218358Y-104906059D01*
X167275003Y-137825000D02*
X167275000Y-130575004D01*
X167275004Y-130350001D02*
X166149997Y-129225000D01*
X140009216Y-111873066D02*
X140772748Y-113309038D01*
X80468426Y-100521065D02*
X80953959Y-100624277D01*
X189325005Y-137074996D02*
X186699993Y-139700001D01*
X140772748Y-113309038D02*
X139924865Y-116082321D01*
X100365482Y-99184571D02*
X100606314Y-99028169D01*
X148624802Y-117382749D02*
X149820188Y-117748219D01*
X140256832Y-116706655D02*
X142791041Y-117481442D01*
X89862300Y-99252324D02*
X92530938Y-97519298D01*
X144539180Y-116551932D02*
X148125329Y-117648321D01*
X189325000Y-128475001D02*
X189325005Y-137074996D01*
X115440397Y-94584394D02*
X118596194Y-95549225D01*
X186525002Y-125674999D02*
X189325000Y-128475001D01*
X124295359Y-98285029D02*
X126486340Y-102405664D01*
X167274998Y-130549999D02*
X167275004Y-130350001D01*
X186525005Y-125614995D02*
X186525002Y-125674999D01*
X167274998Y-130549999D02*
X167275001Y-130549997D01*
X130218358Y-104906059D02*
X129297385Y-107918420D01*
X100606314Y-99028169D02*
X101338875Y-98638657D01*
X104710291Y-96846038D02*
X108822414Y-98103239D01*
X108822414Y-98103239D02*
X115440397Y-94584394D01*
X92530938Y-97519298D02*
X100365482Y-99184571D01*
X142791041Y-117481442D02*
X144539180Y-116551932D01*
X119226936Y-96735462D02*
X124295359Y-98285029D01*
X135944925Y-110630481D02*
X140009216Y-111873066D01*
X167275000Y-130575004D02*
X167274998Y-130549999D01*
X135679358Y-110131004D02*
X135944925Y-110630481D01*
X169149994Y-139700004D02*
X167275003Y-137825000D01*
X129463368Y-108230586D02*
X135679358Y-110131004D01*
X84742374Y-98164044D02*
X89862300Y-99252324D01*
X186699993Y-139700001D02*
X169149994Y-139700004D01*
X101338875Y-98638657D02*
X104710291Y-96846038D01*
X126486340Y-102405664D02*
X129355240Y-103282774D01*
X80953959Y-100624277D02*
X84742374Y-98164044D01*
D42*
%TO.N,pinky_bottom*%
X78571074Y-129407836D02*
X79744839Y-129657328D01*
%TO.N,pinky_home*%
X82105557Y-112779323D02*
X83279340Y-113028815D01*
%TO.N,pinky_top*%
X85640054Y-96150813D02*
X86813843Y-96400307D01*
D41*
%TO.N,P6*%
X115127002Y-94070306D02*
X119095672Y-95283640D01*
X134490614Y-106638695D02*
X131158552Y-105619980D01*
X148858699Y-116617720D02*
X147984631Y-117082471D01*
X103825089Y-94277486D02*
X104952124Y-96397128D01*
X167050002Y-128599998D02*
X166999999Y-128550004D01*
X119660016Y-96345025D02*
X124537170Y-97836121D01*
X103636922Y-94219961D02*
X103825089Y-94277486D01*
X188900005Y-130530006D02*
X188900007Y-136850007D01*
X167874998Y-130275002D02*
X167000001Y-129400000D01*
X140379857Y-111515809D02*
X136444008Y-110312505D01*
X141276171Y-113201520D02*
X140379857Y-111515809D01*
X129692685Y-102863110D02*
X131158552Y-105619980D01*
X119095672Y-95283640D02*
X119660016Y-96345025D01*
X126728153Y-101956748D02*
X129692685Y-102863110D01*
X143284415Y-113815504D02*
X141276171Y-113201520D01*
X167000001Y-129400000D02*
X167000007Y-128649995D01*
X108633893Y-97522754D02*
X115127002Y-94070306D01*
X167874998Y-137724999D02*
X167874998Y-130275002D01*
X169350006Y-139200002D02*
X167874998Y-137724999D01*
X147984631Y-117082471D02*
X144446298Y-116000687D01*
X144446298Y-116000687D02*
X143284415Y-113815504D01*
X188900007Y-136850007D02*
X186550003Y-139199996D01*
X150054082Y-116983173D02*
X148858699Y-116617720D01*
X186525000Y-128155006D02*
X188900005Y-130530006D01*
X104952124Y-96397128D02*
X108633893Y-97522754D01*
X136444008Y-110312505D02*
X134490614Y-106638695D01*
X186550003Y-139199996D02*
X169350006Y-139200002D01*
X124537170Y-97836121D02*
X126728153Y-101956748D01*
D42*
%TO.N,ring_bottom*%
X99229144Y-122831425D02*
X100376710Y-123182268D01*
%TO.N,ring_home*%
X104199462Y-106574249D02*
X105347018Y-106925098D01*
%TO.N,ring_top*%
X109169763Y-90317071D02*
X110317351Y-90667911D01*
D41*
%TO.N,P7*%
X143574045Y-113381211D02*
X141517984Y-112752610D01*
X186350002Y-138800000D02*
X169700002Y-138800003D01*
X169700002Y-138800003D02*
X168374999Y-137474992D01*
X134727611Y-106232400D02*
X131619626Y-105282187D01*
X188400004Y-132569998D02*
X188400008Y-136750000D01*
X168375004Y-129975005D02*
X167849997Y-129450002D01*
X130158975Y-102535099D02*
X127194415Y-101628745D01*
X188400008Y-136750000D02*
X186350002Y-138800000D01*
X168374999Y-137474992D02*
X168375004Y-129975005D01*
X140654879Y-111129330D02*
X136686213Y-109915984D01*
X147652666Y-116458128D02*
X144735929Y-115566395D01*
X122549389Y-96653259D02*
X121355966Y-94408756D01*
X131619626Y-105282187D02*
X130158975Y-102535099D01*
X186524998Y-130694999D02*
X188400004Y-132569998D01*
X141517984Y-112752610D02*
X140654879Y-111129330D01*
X148901334Y-115794197D02*
X147652666Y-116458128D01*
X136686213Y-109915984D02*
X134727611Y-106232400D01*
X127194415Y-101628745D02*
X124937053Y-97383241D01*
X150335792Y-116232749D02*
X148901334Y-115794197D01*
X167849997Y-129450002D02*
X167850001Y-128549994D01*
X167850001Y-128549994D02*
X167799995Y-128499996D01*
X144735929Y-115566395D02*
X143574045Y-113381211D01*
X124937053Y-97383241D02*
X122549389Y-96653259D01*
D42*
%TO.N,middle_bottom*%
X116948186Y-123020225D02*
X118095742Y-123371064D01*
%TO.N,middle_home*%
X121918499Y-106763048D02*
X123066057Y-107113888D01*
%TO.N,middle_top*%
X126888818Y-90505868D02*
X128036381Y-90856707D01*
D41*
%TO.N,P8*%
X135858914Y-105116908D02*
X135419408Y-106554458D01*
X141025517Y-110772088D02*
X141921824Y-112457797D01*
X145044134Y-115242342D02*
X147387084Y-115958654D01*
X168600004Y-128499998D02*
X168599997Y-129499998D01*
X188000005Y-136449999D02*
X188000003Y-134709995D01*
X143882254Y-113057162D02*
X145044134Y-115242342D01*
X135419408Y-106554458D02*
X137009048Y-109544123D01*
X188000003Y-134709995D02*
X186525002Y-133234996D01*
X186050002Y-138399999D02*
X188000005Y-136449999D01*
X150201787Y-115302943D02*
X150393050Y-115361416D01*
X168900006Y-137299996D02*
X170000006Y-138400004D01*
X137009048Y-109544123D02*
X141025517Y-110772088D01*
X168599997Y-129499998D02*
X168900000Y-129799999D01*
X149197669Y-114995949D02*
X150345227Y-115346796D01*
X170000006Y-138400004D02*
X186050002Y-138399999D01*
X149197669Y-114995949D02*
X150201787Y-115302943D01*
X141921824Y-112457797D02*
X143882254Y-113057162D01*
X150345227Y-115346796D02*
X150584307Y-115419896D01*
X147387084Y-115958654D02*
X149197669Y-114995949D01*
X168900006Y-137299996D02*
X168900000Y-129799999D01*
X150201787Y-115302943D02*
X150345227Y-115346796D01*
D42*
%TO.N,index_bottom*%
X131451126Y-133728376D02*
X132598686Y-134079220D01*
%TO.N,index_home*%
X136421438Y-117471190D02*
X137569005Y-117822033D01*
%TO.N,index_top*%
X141391764Y-101214012D02*
X142539328Y-101564850D01*
D41*
%TO.N,P9*%
X186525003Y-137224992D02*
X186525006Y-135774998D01*
X185800002Y-137950006D02*
X186525003Y-137224992D01*
X169450002Y-137150001D02*
X170249994Y-137950006D01*
X170249994Y-137950006D02*
X185800002Y-137950006D01*
X169450000Y-128499997D02*
X169450002Y-137150001D01*
D42*
%TO.N,inner_bottom*%
X147123565Y-140611302D02*
X148271135Y-140962138D01*
%TO.N,inner_home*%
X152093874Y-124354121D02*
X153241451Y-124704964D01*
%TO.N,inner_top*%
X157064203Y-108096934D02*
X158211773Y-108447787D01*
%TO.N,near_thumb*%
X124647393Y-152562093D02*
X125794956Y-152912948D01*
%TO.N,home_thumb*%
X141476505Y-158975070D02*
X142589118Y-159424600D01*
%TO.N,far_thumb*%
X158463654Y-169380770D02*
X159422013Y-170102957D01*
%TO.N,mirror_outer_bottom*%
X299145845Y-125187215D02*
X300319628Y-124937731D01*
%TO.N,mirror_outer_home*%
X295611346Y-108558716D02*
X296785122Y-108309218D01*
%TO.N,mirror_outer_top*%
X292076833Y-91930200D02*
X293250633Y-91680716D01*
%TO.N,mirror_pinky_bottom*%
X282517333Y-128721717D02*
X283691103Y-128472234D01*
%TO.N,mirror_pinky_home*%
X278982836Y-112093215D02*
X280156609Y-111843714D01*
%TO.N,mirror_pinky_top*%
X275448335Y-95464704D02*
X276622111Y-95215214D01*
%TO.N,mirror_ring_bottom*%
X261787183Y-121866600D02*
X262934751Y-121515750D01*
%TO.N,mirror_ring_home*%
X256816861Y-105609420D02*
X257964427Y-105258569D01*
%TO.N,mirror_ring_top*%
X251846548Y-89352243D02*
X252994113Y-89001387D01*
%TO.N,mirror_middle_bottom*%
X244068131Y-122055394D02*
X245215699Y-121704544D01*
%TO.N,mirror_middle_home*%
X239097822Y-105798213D02*
X240245385Y-105447365D01*
%TO.N,mirror_middle_top*%
X234127499Y-89541032D02*
X235275060Y-89190185D01*
%TO.N,mirror_index_bottom*%
X229565191Y-132763544D02*
X230712754Y-132412696D01*
%TO.N,mirror_index_home*%
X224594868Y-116506365D02*
X225742426Y-116155513D01*
%TO.N,mirror_index_top*%
X219624555Y-100249178D02*
X220772109Y-99898338D01*
%TO.N,mirror_inner_bottom*%
X213892753Y-139646467D02*
X215040323Y-139295621D01*
%TO.N,mirror_inner_home*%
X208922432Y-123389286D02*
X210069995Y-123038442D01*
%TO.N,mirror_inner_top*%
X203952120Y-107132102D02*
X205099680Y-106781262D01*
%TO.N,mirror_near_thumb*%
X236368926Y-151597276D02*
X237516490Y-151246429D01*
%TO.N,mirror_home_thumb*%
X219443715Y-157738866D02*
X220556338Y-157289346D01*
%TO.N,mirror_far_thumb*%
X202032364Y-167394785D02*
X202990726Y-166672613D01*
D41*
%TO.N,P19*%
X109143614Y-124500587D02*
X113760606Y-122045679D01*
X96073334Y-121866604D02*
X97699717Y-121001838D01*
X113792370Y-122055391D02*
X113816698Y-121975814D01*
X97699717Y-121001838D02*
X109143614Y-124500587D01*
X123104261Y-131176464D02*
X128295328Y-132763541D01*
D42*
X128295324Y-132763549D02*
X127147754Y-132412696D01*
D41*
X94925765Y-121515746D02*
X91977275Y-120614311D01*
X76848418Y-127744202D02*
X75343168Y-128721734D01*
X60219906Y-124209702D02*
X74365665Y-127216477D01*
X87469012Y-128357056D02*
X85143995Y-129593287D01*
X169260000Y-121050000D02*
X171284996Y-123075000D01*
X91977275Y-120614311D02*
X90419535Y-121442571D01*
X113816698Y-121975814D02*
X115151878Y-121265894D01*
D42*
X58714672Y-125187226D02*
X57540889Y-124937734D01*
D41*
X85143995Y-129593287D02*
X84223065Y-129311734D01*
D42*
X75343178Y-128721724D02*
X74169401Y-128472221D01*
X96073328Y-121866601D02*
X94925765Y-121515746D01*
X113792376Y-122055392D02*
X112644801Y-121704542D01*
D41*
X139302666Y-138220207D02*
X143967764Y-139646473D01*
X128295328Y-132763541D02*
X130046563Y-131832390D01*
X130046563Y-131832390D02*
X137043658Y-133971601D01*
X147034126Y-130281291D02*
X148501323Y-129501169D01*
X118355496Y-122245334D02*
X123104261Y-131176464D01*
X74365665Y-127216477D02*
X75343181Y-128721728D01*
X148501323Y-129501169D02*
X151584922Y-119415156D01*
X84223065Y-129311734D02*
X76848418Y-127744202D01*
X87944108Y-126803058D02*
X87469012Y-128357056D01*
X151584922Y-119415156D02*
X152677512Y-118834216D01*
X137043658Y-133971601D02*
X139302666Y-138220207D01*
X159924993Y-121050004D02*
X169260000Y-121050000D01*
X58714672Y-125187226D02*
X60219906Y-124209702D01*
X115151878Y-121265894D02*
X118355496Y-122245334D01*
D42*
X143967758Y-139646471D02*
X142820194Y-139295619D01*
D41*
X143967767Y-139646474D02*
X144210335Y-139517488D01*
X113760606Y-122045679D02*
X113792370Y-122055391D01*
X144210335Y-139517488D02*
X147034126Y-130281291D01*
X152677512Y-118834216D02*
X159924993Y-121050004D01*
X90419535Y-121442571D02*
X88943062Y-126271911D01*
X88943062Y-126271911D02*
X87944108Y-126803058D01*
D42*
%TO.N,P20*%
X133265643Y-116506357D02*
X132686373Y-116329269D01*
X148938083Y-123389290D02*
X147790520Y-123038452D01*
D41*
X128098486Y-114926608D02*
X123316517Y-105933033D01*
X94086671Y-110302997D02*
X95694706Y-105043320D01*
D42*
X132686373Y-116329269D02*
X132118086Y-116155521D01*
D41*
X132686373Y-116329269D02*
X128098486Y-114926608D01*
X114208126Y-108219917D02*
X118762708Y-105798213D01*
D42*
X101043662Y-105609420D02*
X99896084Y-105258579D01*
X118762707Y-105798212D02*
X117615121Y-105447370D01*
D41*
X149974125Y-122838422D02*
X148938079Y-123389302D01*
X123316517Y-105933033D02*
X120280263Y-105004756D01*
X148936428Y-123386185D02*
X148938076Y-123389292D01*
X151096048Y-119168758D02*
X152675061Y-118329183D01*
X95694706Y-105043320D02*
X96971501Y-104364427D01*
X77726846Y-110321111D02*
X78877682Y-112093208D01*
X62249158Y-108558709D02*
X64021275Y-107407889D01*
X78877664Y-112093216D02*
X80412572Y-111096435D01*
X171285000Y-120535000D02*
X159890000Y-120534998D01*
D42*
X78877682Y-112093208D02*
X77703896Y-111843716D01*
D41*
X118778740Y-105803125D02*
X118762708Y-105798213D01*
D42*
X62249158Y-108558709D02*
X61075398Y-108309220D01*
D41*
X151096048Y-119168758D02*
X149974125Y-122838422D01*
X134876418Y-115649900D02*
X137833116Y-116553849D01*
X88818369Y-113104192D02*
X94086671Y-110302997D01*
X86445883Y-112378857D02*
X88818369Y-113104192D01*
X133265647Y-116506360D02*
X134876418Y-115649900D01*
X64021275Y-107407889D02*
X77726846Y-110321111D01*
X101043659Y-105609424D02*
X102732469Y-104711463D01*
X140015785Y-120658868D02*
X144343062Y-121981851D01*
X137833116Y-116553849D02*
X140015785Y-120658868D01*
X80412572Y-111096435D02*
X86445883Y-112378857D01*
X159890000Y-120534998D02*
X152675061Y-118329183D01*
X120280263Y-105004756D02*
X118778740Y-105803125D01*
X96971501Y-104364427D02*
X99896084Y-105258579D01*
X102732469Y-104711463D02*
X114208126Y-108219917D01*
X144343062Y-121981851D02*
X148936428Y-123386185D01*
%TO.N,P21*%
X83225433Y-96717046D02*
X84286363Y-96942548D01*
X81242100Y-93662940D02*
X82412175Y-95464698D01*
D42*
X153908391Y-107132112D02*
X152760828Y-106781264D01*
D41*
X100348272Y-98695309D02*
X100437026Y-98637672D01*
X67585423Y-90760120D02*
X81242100Y-93662940D01*
X104858553Y-88998992D02*
X104866408Y-89001390D01*
X123733013Y-89541027D02*
X125140873Y-88792466D01*
X101326995Y-98164471D02*
X102101770Y-95630259D01*
D42*
X82412165Y-95464700D02*
X81238398Y-95215201D01*
D41*
X147037430Y-101368933D02*
X149362848Y-105742396D01*
X82412164Y-95464700D02*
X83225433Y-96717046D01*
X123557802Y-89487466D02*
X119221757Y-91792987D01*
X65783664Y-91930203D02*
X67585423Y-90760120D01*
X84825534Y-97772793D02*
X89765190Y-98822750D01*
X106013980Y-89352238D02*
X107921303Y-88338101D01*
X149362848Y-105742396D02*
X153908394Y-107132113D01*
X123733013Y-89541027D02*
X123557802Y-89487466D01*
D42*
X123733012Y-89541034D02*
X122585442Y-89190193D01*
D41*
X101703422Y-94881048D02*
X103238379Y-89860449D01*
X103238379Y-89860449D02*
X104858553Y-88998992D01*
X140112087Y-99251633D02*
X147037430Y-101368933D01*
X100437026Y-98637672D02*
X101326995Y-98164471D01*
D42*
X65783664Y-91930203D02*
X64609884Y-91680710D01*
D41*
X107921303Y-88338101D02*
X119221757Y-91792987D01*
X102101770Y-95630259D02*
X101703422Y-94881048D01*
X128312734Y-89762194D02*
X133044905Y-98662116D01*
D42*
X138235955Y-100249177D02*
X137088394Y-99898331D01*
D41*
X138235960Y-100249183D02*
X140112087Y-99251633D01*
X89765190Y-98822750D02*
X92522775Y-97031945D01*
X133044905Y-98662116D02*
X138235960Y-100249183D01*
D42*
X106013980Y-89352243D02*
X104866408Y-89001390D01*
D41*
X125140873Y-88792466D02*
X128312734Y-89762194D01*
X84286363Y-96942548D02*
X84825534Y-97772793D01*
X92522775Y-97031945D02*
X100348272Y-98695309D01*
%TO.N,P18*%
X121491583Y-151597267D02*
X120458671Y-149654664D01*
D42*
X155828142Y-167394790D02*
X154869777Y-166672603D01*
D41*
X169849995Y-124179987D02*
X171285003Y-125614994D01*
X124074925Y-139365611D02*
X130529979Y-141339117D01*
X138416792Y-157738876D02*
X140208174Y-156978472D01*
X140208174Y-156978472D02*
X147913968Y-160091811D01*
X130529979Y-141339117D02*
X131653783Y-140741584D01*
X148798109Y-129984045D02*
X151917981Y-119779424D01*
D42*
X138416789Y-157738868D02*
X137304161Y-157289352D01*
D41*
X144910175Y-138938583D02*
X147424564Y-130714371D01*
X123513018Y-139664381D02*
X124074925Y-139365611D01*
X121491588Y-151597268D02*
X123274046Y-150649507D01*
X137304161Y-157289352D02*
X133267865Y-155658573D01*
X155828147Y-167394795D02*
X155781923Y-167359944D01*
X123274046Y-150649507D02*
X132314917Y-153413583D01*
X169850000Y-122375005D02*
X169849995Y-124179987D01*
X147424564Y-130714371D02*
X148798109Y-129984045D01*
X155781923Y-167359944D02*
X155571406Y-165862107D01*
X133267865Y-155658573D02*
X132314917Y-153413583D01*
X145208947Y-139500494D02*
X144910175Y-138938583D01*
X159925009Y-121599997D02*
X169074997Y-121600001D01*
X131653783Y-140741584D02*
X132033874Y-139498381D01*
X155571406Y-165862107D02*
X147913968Y-160091811D01*
X152667183Y-119381067D02*
X159925009Y-121599997D01*
X120458671Y-149654664D02*
X123513018Y-139664381D01*
X169074997Y-121600001D02*
X169850000Y-122375005D01*
X133844449Y-138535680D02*
X143503131Y-141488638D01*
X144814242Y-140791505D02*
X145208947Y-139500494D01*
X143503131Y-141488638D02*
X144814242Y-140791505D01*
X151917981Y-119779424D02*
X152667183Y-119381067D01*
X132033874Y-139498381D02*
X133844449Y-138535680D01*
D42*
X121491586Y-151597266D02*
X120344021Y-151246414D01*
D41*
%TO.N,P2*%
X225948462Y-134595240D02*
X226409370Y-133728369D01*
X245097699Y-120610473D02*
X252690619Y-124647701D01*
X202760844Y-110052224D02*
X205640698Y-119471827D01*
X227525303Y-131629629D02*
X226409370Y-133728369D01*
X205640698Y-119471827D02*
X204507348Y-121603359D01*
X270646242Y-124824952D02*
X262217665Y-120343409D01*
X186525009Y-117994994D02*
X187504998Y-117995006D01*
X259514919Y-121169730D02*
X258631370Y-122831429D01*
X188175000Y-117325001D02*
X188174996Y-111375001D01*
X241629886Y-121670686D02*
X245097699Y-120610473D01*
D42*
X279289452Y-129407835D02*
X278115669Y-129657330D01*
D41*
X208364923Y-139840352D02*
X210151499Y-140790295D01*
D42*
X226409379Y-133728371D02*
X225261818Y-134079213D01*
D41*
X210151499Y-140790295D02*
X210736946Y-140611301D01*
X188174996Y-111375001D02*
X188199994Y-111350002D01*
X252690619Y-124647701D02*
X258631370Y-122831429D01*
X205046491Y-128986295D02*
X208364923Y-139840352D01*
X199122459Y-109549175D02*
X200130549Y-110085186D01*
X279289462Y-129407833D02*
X274683906Y-130815891D01*
X279289460Y-129407832D02*
X280365863Y-127750302D01*
X188774996Y-110774999D02*
X195112986Y-110774994D01*
X272049631Y-129415208D02*
X270646242Y-124824952D01*
X280365863Y-127750302D02*
X294260442Y-124796920D01*
D42*
X240912337Y-123020225D02*
X239764761Y-123371071D01*
D41*
X204865503Y-122774828D02*
X203774674Y-124826368D01*
X201839942Y-109562576D02*
X202760844Y-110052224D01*
X238044661Y-128413547D02*
X227525303Y-131629629D01*
X195112986Y-110774994D02*
X199122459Y-109549175D01*
X240912329Y-123020216D02*
X241629886Y-121670686D01*
X200130549Y-110085186D02*
X201839942Y-109562576D01*
X238044661Y-128413547D02*
X240912329Y-123020216D01*
D42*
X295917954Y-125873328D02*
X294744182Y-126122828D01*
D41*
X294260442Y-124796920D02*
X295917961Y-125873329D01*
X188199994Y-111350002D02*
X188774996Y-110774999D01*
X274683906Y-130815891D02*
X272049631Y-129415208D01*
X203774674Y-124826368D02*
X205046491Y-128986295D01*
D42*
X210736944Y-140611298D02*
X209589388Y-140962136D01*
D41*
X204507348Y-121603359D02*
X204865503Y-122774828D01*
X210736946Y-140611300D02*
X211603895Y-138980813D01*
X262217665Y-120343409D02*
X259514919Y-121169730D01*
X187504998Y-117995006D02*
X188175000Y-117325001D01*
X211603895Y-138980813D02*
X225948462Y-134595240D01*
D42*
X258631377Y-122831429D02*
X257483798Y-123182272D01*
D41*
%TO.N,P0*%
X186525001Y-110375000D02*
X194964554Y-110375001D01*
X270128362Y-113297677D02*
X274319794Y-112016226D01*
X203104150Y-109764264D02*
X206097309Y-119554439D01*
X220978130Y-118338053D02*
X221439057Y-117471194D01*
X194964554Y-110375001D02*
X199164412Y-109090979D01*
X206097309Y-119554439D02*
X204955653Y-121701577D01*
D42*
X275754950Y-112779319D02*
X274581171Y-113028824D01*
D41*
X276792855Y-111181101D02*
X290785247Y-108206925D01*
D42*
X292383462Y-109244833D02*
X291209685Y-109494312D01*
D41*
X233124131Y-112062716D02*
X235942015Y-106763046D01*
X204955653Y-121701577D02*
X205766619Y-124354120D01*
X199164412Y-109090979D02*
X200204858Y-109644198D01*
X235942015Y-106763046D02*
X236659570Y-105413504D01*
X201902299Y-109125234D02*
X203104150Y-109764264D01*
X222604772Y-115278804D02*
X233124131Y-112062716D01*
D42*
X205766632Y-124354115D02*
X204619056Y-124704959D01*
X235942018Y-106763039D02*
X234794442Y-107113890D01*
D41*
X206633571Y-122723624D02*
X220978130Y-118338053D01*
X260669631Y-108268388D02*
X270128362Y-113297677D01*
X274319794Y-112016226D02*
X275754960Y-112779322D01*
X200204858Y-109644198D02*
X201902299Y-109125234D01*
X221439057Y-117471194D02*
X222604772Y-115278804D01*
X258197717Y-104030953D02*
X259602484Y-104777878D01*
X290785247Y-108206925D02*
X292383462Y-109244828D01*
X259602484Y-104777878D02*
X260669631Y-108268388D01*
X275754960Y-112779322D02*
X276792855Y-111181101D01*
D42*
X253661057Y-106574238D02*
X252513482Y-106925091D01*
X221439060Y-117471186D02*
X220291499Y-117822024D01*
D41*
X239744857Y-104470241D02*
X247337768Y-108507458D01*
X247337768Y-108507458D02*
X253661055Y-106574247D01*
X236659570Y-105413504D02*
X239744857Y-104470241D01*
X253661055Y-106574247D02*
X254395209Y-105193500D01*
X254395209Y-105193500D02*
X258197717Y-104030953D01*
X205766623Y-124354119D02*
X206633571Y-122723624D01*
%TO.N,P1*%
X287221091Y-91559159D02*
X288848973Y-92616310D01*
X272241572Y-96146327D02*
X273298717Y-94518456D01*
X231689259Y-89156319D02*
X230971687Y-90505866D01*
D42*
X248690737Y-90317059D02*
X247543165Y-90667914D01*
D41*
X249590873Y-88624140D02*
X252700064Y-87673578D01*
D42*
X216468748Y-101214010D02*
X215321183Y-101564861D01*
X230971700Y-90505858D02*
X229824131Y-90856716D01*
D41*
X267295585Y-97656494D02*
X272220457Y-96150803D01*
D42*
X272220455Y-96150802D02*
X271046669Y-96400300D01*
D41*
X226757269Y-96624623D02*
X229824131Y-90856716D01*
D42*
X200796322Y-108096946D02*
X199648740Y-108447780D01*
D41*
X200796304Y-108096934D02*
X201679851Y-106435232D01*
X272220457Y-96150803D02*
X272241572Y-96146327D01*
X186524992Y-107835001D02*
X188615001Y-109924996D01*
D42*
X288848961Y-92616310D02*
X287675178Y-92865808D01*
D41*
X216024416Y-102049661D02*
X216468734Y-101214011D01*
X194983827Y-109925005D02*
X200763919Y-108157850D01*
X200763919Y-108157850D02*
X200796304Y-108096934D01*
X201679851Y-106435232D02*
X216024416Y-102049661D01*
X242606527Y-92177200D02*
X235013599Y-88139965D01*
X248690735Y-90317063D02*
X249590873Y-88624140D01*
X188615001Y-109924996D02*
X194983827Y-109925005D01*
X248690735Y-90317063D02*
X242606527Y-92177200D01*
X235013599Y-88139965D02*
X231689259Y-89156319D01*
X217385473Y-99489867D02*
X226757269Y-96624623D01*
X216468734Y-101214011D02*
X217385473Y-99489867D01*
X252700064Y-87673578D02*
X254323350Y-88536682D01*
X273298717Y-94518456D02*
X287221091Y-91559159D01*
X254323350Y-88536682D02*
X255134685Y-91190429D01*
X255134685Y-91190429D02*
X267295585Y-97656494D01*
%TO.N,P3*%
X201798449Y-109993543D02*
X202426764Y-110327619D01*
X205770241Y-168320691D02*
X206295407Y-168394500D01*
X187999993Y-118249995D02*
X188700004Y-117550005D01*
X189150003Y-111224997D02*
X195024993Y-111225003D01*
X221034723Y-144855189D02*
X211065238Y-147903160D01*
X186525005Y-120534997D02*
X187290013Y-120534993D01*
X188000002Y-119824992D02*
X187999993Y-118249995D01*
X202426764Y-110327619D02*
X205185091Y-119349699D01*
X203326376Y-124728147D02*
X204372072Y-122761481D01*
X199430369Y-169355529D02*
X199685944Y-167537005D01*
X211065238Y-147903160D02*
X210284824Y-147488189D01*
X233213114Y-152562092D02*
X232050892Y-151944123D01*
X202141743Y-165686424D02*
X203979840Y-165944748D01*
X217129838Y-161954642D02*
X212795250Y-163705927D01*
X204372072Y-122761481D02*
X204006606Y-121566104D01*
X199396873Y-169380781D02*
X199430369Y-169355529D01*
X200080143Y-110518879D02*
X201798449Y-109993543D01*
X199685944Y-167537005D02*
X202141743Y-165686424D01*
X233213122Y-152562090D02*
X234528222Y-150088746D01*
X195024993Y-111225003D02*
X195028067Y-111219240D01*
X235236000Y-141454540D02*
X231521191Y-139479340D01*
X188699992Y-111675002D02*
X189150003Y-111224997D01*
X188700004Y-117550005D02*
X188699992Y-111675002D01*
X187290013Y-120534993D02*
X188000002Y-119824992D01*
D42*
X199396857Y-169380774D02*
X198438498Y-170102949D01*
D41*
X231521191Y-139479340D02*
X222412383Y-142264176D01*
X217364492Y-161401835D02*
X217129838Y-161954642D01*
X203979840Y-165944748D02*
X205770241Y-168320691D01*
X224314045Y-154309512D02*
X217132861Y-157210898D01*
X217132861Y-157210898D02*
X216384015Y-158975071D01*
X238621419Y-147739355D02*
X236823332Y-141858079D01*
X195028067Y-111219240D02*
X199072055Y-109982868D01*
X237924296Y-149050467D02*
X238621419Y-147739355D01*
X216384018Y-158975070D02*
X217364492Y-161401835D01*
X234528222Y-150088746D02*
X237924296Y-149050467D01*
X236823332Y-141858079D02*
X235761971Y-141293740D01*
X232050892Y-151944123D02*
X224314045Y-154309512D01*
X206529630Y-168427413D02*
X206295407Y-168394500D01*
X203326376Y-124728147D02*
X210284824Y-147488189D01*
X204006606Y-121566104D02*
X205185091Y-119349699D01*
X235761971Y-141293740D02*
X235236000Y-141454540D01*
X199072055Y-109982868D02*
X200080143Y-110518879D01*
X222412383Y-142264176D02*
X221034723Y-144855189D01*
D42*
X216384010Y-158975080D02*
X215271396Y-159424609D01*
D41*
X212795250Y-163705927D02*
X206529630Y-168427413D01*
D42*
X233213124Y-152562095D02*
X232065552Y-152912948D01*
D41*
%TO.N,RAW*%
X137755356Y-92680354D02*
X138296447Y-91674217D01*
X164881186Y-105218819D02*
X164349997Y-104622818D01*
X171285005Y-107834999D02*
X169359997Y-107835005D01*
X138506357Y-94813235D02*
X137779251Y-93445746D01*
X137779251Y-93445746D02*
X137755356Y-92680354D01*
X164881175Y-106131188D02*
X164881186Y-105218819D01*
X149336520Y-98124332D02*
X138530272Y-94820535D01*
X169075003Y-107549999D02*
X165800003Y-107550004D01*
X164349997Y-104622818D02*
X150548189Y-100403170D01*
X165800003Y-107550004D02*
X165475005Y-107225002D01*
X165475007Y-106725004D02*
X164881175Y-106131188D01*
X150548189Y-100403170D02*
X149336520Y-98124332D01*
X169359997Y-107835005D02*
X169075003Y-107549999D01*
X165475005Y-107225002D02*
X165475007Y-106725004D01*
X138530272Y-94820535D02*
X138506357Y-94813235D01*
%TO.N,GND*%
X167075003Y-108849996D02*
X169760011Y-108850005D01*
X169760011Y-108850005D02*
X171284993Y-110374985D01*
%TO.N,RST*%
X168850000Y-115349999D02*
X171284994Y-112914994D01*
X167074997Y-115349996D02*
X168850000Y-115349999D01*
%TO.N,BAT_P*%
X163875004Y-104922004D02*
X164346126Y-105375000D01*
X165850005Y-117249998D02*
X165850002Y-110349999D01*
X164346126Y-105375000D02*
X164346127Y-106196119D01*
X136540505Y-92584497D02*
X137872740Y-95090075D01*
X136502868Y-91852867D02*
X136997403Y-90924212D01*
X136502868Y-91852867D02*
X136540505Y-92584497D01*
X165049998Y-109550001D02*
X165850002Y-110349999D01*
X166974993Y-118375001D02*
X165850005Y-117249998D01*
X137872740Y-95090075D02*
X149013687Y-98496202D01*
X165050002Y-106899994D02*
X165049998Y-109550001D01*
X164346127Y-106196119D02*
X165050002Y-106899994D01*
X150208769Y-100743814D02*
X163875004Y-104922004D01*
X149013687Y-98496202D02*
X150208769Y-100743814D01*
X166974995Y-118675001D02*
X166974993Y-118375001D01*
%TD*%
M02*
