%TF.GenerationSoftware,KiCad,Pcbnew,8.0.6*%
%TF.CreationDate,2025-08-02T20:54:24+02:00*%
%TF.ProjectId,main,6d61696e-2e6b-4696-9361-645f70636258,v1.0.0*%
%TF.SameCoordinates,Original*%
%TF.FileFunction,Paste,Bot*%
%TF.FilePolarity,Positive*%
%FSLAX46Y46*%
G04 Gerber Fmt 4.6, Leading zero omitted, Abs format (unit mm)*
G04 Created by KiCad (PCBNEW 8.0.6) date 2025-08-02 20:54:24*
%MOMM*%
%LPD*%
G01*
G04 APERTURE LIST*
G04 Aperture macros list*
%AMRotRect*
0 Rectangle, with rotation*
0 The origin of the aperture is its center*
0 $1 length*
0 $2 width*
0 $3 Rotation angle, in degrees counterclockwise*
0 Add horizontal line*
21,1,$1,$2,0,0,$3*%
G04 Aperture macros list end*
%ADD10RotRect,1.550000X2.000000X17.000000*%
%ADD11RotRect,1.550000X2.000000X343.000000*%
%ADD12RotRect,0.900000X1.200000X17.000000*%
%ADD13RotRect,0.900000X1.200000X12.000000*%
%ADD14RotRect,1.550000X2.000000X348.000000*%
%ADD15RotRect,0.900000X1.200000X343.000000*%
%ADD16RotRect,1.550000X2.000000X22.000000*%
%ADD17RotRect,0.900000X1.200000X348.000000*%
%ADD18RotRect,0.900000X1.200000X323.000000*%
%ADD19RotRect,1.550000X2.000000X323.000000*%
%ADD20RotRect,0.900000X1.200000X22.000000*%
%ADD21RotRect,0.900000X1.200000X37.000000*%
%ADD22RotRect,1.550000X2.000000X12.000000*%
%ADD23RotRect,1.550000X2.000000X338.000000*%
%ADD24RotRect,1.550000X2.000000X37.000000*%
%ADD25RotRect,0.900000X1.200000X338.000000*%
G04 APERTURE END LIST*
D10*
%TO.C,CPG1316*%
X255368687Y-111646611D03*
X258237600Y-110769492D03*
%TD*%
D11*
%TO.C,CPG1316*%
X117341949Y-110958296D03*
X120210864Y-111835407D03*
%TD*%
%TO.C,CPG1316*%
X122312270Y-94701118D03*
X125181185Y-95578229D03*
%TD*%
%TO.C,CPG1316*%
X126874570Y-137923619D03*
X129743485Y-138800730D03*
%TD*%
D12*
%TO.C,D34*%
X226409365Y-133728373D03*
X229565183Y-132763549D03*
%TD*%
D13*
%TO.C,D26*%
X275754944Y-112779312D03*
X278982840Y-112093212D03*
%TD*%
D10*
%TO.C,CPG1316*%
X232679329Y-95578236D03*
X235548242Y-94701117D03*
%TD*%
D14*
%TO.C,CPG1316*%
X74377569Y-133985994D03*
X77312010Y-134609731D03*
%TD*%
D11*
%TO.C,CPG1316*%
X104593235Y-94512337D03*
X107462150Y-95389448D03*
%TD*%
D15*
%TO.C,D10*%
X113792383Y-122055404D03*
X116948177Y-123020220D03*
%TD*%
D12*
%TO.C,D29*%
X253661051Y-106574235D03*
X256816869Y-105609411D03*
%TD*%
D13*
%TO.C,D25*%
X279289451Y-129407823D03*
X282517347Y-128721723D03*
%TD*%
D15*
%TO.C,D16*%
X143967777Y-139646473D03*
X147123571Y-140611289D03*
%TD*%
D10*
%TO.C,CPG1316*%
X228117026Y-138800749D03*
X230985939Y-137923630D03*
%TD*%
D16*
%TO.C,CPG1316*%
X218527223Y-163879312D03*
X221308783Y-162755490D03*
%TD*%
D15*
%TO.C,D9*%
X106013976Y-89352236D03*
X109169770Y-90317052D03*
%TD*%
D17*
%TO.C,D3*%
X65783647Y-91930202D03*
X69011567Y-92616312D03*
%TD*%
D11*
%TO.C,CPG1316*%
X152487657Y-112292198D03*
X155356572Y-113169309D03*
%TD*%
D17*
%TO.C,D2*%
X62249147Y-108558715D03*
X65477067Y-109244825D03*
%TD*%
D18*
%TO.C,D21*%
X155828154Y-167394791D03*
X158463642Y-169380763D03*
%TD*%
D14*
%TO.C,CPG1316*%
X77912086Y-117357488D03*
X80846527Y-117981225D03*
%TD*%
D12*
%TO.C,D35*%
X221439059Y-117471185D03*
X224594877Y-116506361D03*
%TD*%
D10*
%TO.C,CPG1316*%
X223146706Y-122543567D03*
X226015619Y-121666448D03*
%TD*%
D15*
%TO.C,D12*%
X123733004Y-89541039D03*
X126888798Y-90505855D03*
%TD*%
D19*
%TO.C,CPG1316*%
X152728241Y-171757747D03*
X155124143Y-173563187D03*
%TD*%
D13*
%TO.C,D23*%
X292383464Y-109244815D03*
X295611360Y-108558715D03*
%TD*%
D12*
%TO.C,D33*%
X230971691Y-90505862D03*
X234127509Y-89541038D03*
%TD*%
D17*
%TO.C,D4*%
X75343161Y-128721730D03*
X78571081Y-129407840D03*
%TD*%
D12*
%TO.C,D36*%
X216468733Y-101214007D03*
X219624551Y-100249183D03*
%TD*%
D20*
%TO.C,D41*%
X216384023Y-158975079D03*
X219443709Y-157738875D03*
%TD*%
D14*
%TO.C,CPG1316*%
X61283550Y-113822985D03*
X64217991Y-114446722D03*
%TD*%
D11*
%TO.C,CPG1316*%
X99622913Y-110769501D03*
X102491828Y-111646612D03*
%TD*%
D10*
%TO.C,CPG1316*%
X202503956Y-113169316D03*
X205372869Y-112292197D03*
%TD*%
%TO.C,CPG1316*%
X242619971Y-128092591D03*
X245488884Y-127215472D03*
%TD*%
%TO.C,CPG1316*%
X212444581Y-145683687D03*
X215313494Y-144806568D03*
%TD*%
%TO.C,CPG1316*%
X237649652Y-111835415D03*
X240518565Y-110958296D03*
%TD*%
D15*
%TO.C,D14*%
X133265662Y-116506372D03*
X136421456Y-117471188D03*
%TD*%
D21*
%TO.C,D42*%
X199396861Y-169380777D03*
X202032365Y-167394769D03*
%TD*%
D12*
%TO.C,D30*%
X248690734Y-90317064D03*
X251846552Y-89352240D03*
%TD*%
D13*
%TO.C,D22*%
X295917967Y-125873332D03*
X299145863Y-125187232D03*
%TD*%
D15*
%TO.C,D7*%
X96073340Y-121866596D03*
X99229134Y-122831412D03*
%TD*%
D22*
%TO.C,CPG1316*%
X290108010Y-97818223D03*
X293042454Y-97194490D03*
%TD*%
%TO.C,CPG1316*%
X280548483Y-134609723D03*
X283482927Y-133985990D03*
%TD*%
D12*
%TO.C,D28*%
X258631371Y-122831420D03*
X261787189Y-121866596D03*
%TD*%
%TO.C,D31*%
X240912332Y-123020215D03*
X244068150Y-122055391D03*
%TD*%
D11*
%TO.C,CPG1316*%
X120070840Y-156757345D03*
X122939755Y-157634456D03*
%TD*%
D17*
%TO.C,D6*%
X82412157Y-95464704D03*
X85640077Y-96150814D03*
%TD*%
D10*
%TO.C,CPG1316*%
X218176386Y-106286386D03*
X221045299Y-105409267D03*
%TD*%
D12*
%TO.C,D37*%
X210736937Y-140611292D03*
X213892755Y-139646468D03*
%TD*%
D22*
%TO.C,CPG1316*%
X293642494Y-114446719D03*
X296576938Y-113822986D03*
%TD*%
D11*
%TO.C,CPG1316*%
X142547013Y-144806564D03*
X145415928Y-145683675D03*
%TD*%
%TO.C,CPG1316*%
X131844905Y-121666463D03*
X134713820Y-122543574D03*
%TD*%
D12*
%TO.C,D40*%
X233213109Y-152562089D03*
X236368927Y-151597265D03*
%TD*%
D11*
%TO.C,CPG1316*%
X94652591Y-127026704D03*
X97521506Y-127903815D03*
%TD*%
D17*
%TO.C,D5*%
X78877654Y-112093221D03*
X82105574Y-112779331D03*
%TD*%
D10*
%TO.C,CPG1316*%
X234920756Y-157634456D03*
X237789669Y-156757337D03*
%TD*%
D22*
%TO.C,CPG1316*%
X277014000Y-117981226D03*
X279948444Y-117357493D03*
%TD*%
D15*
%TO.C,D19*%
X121491591Y-151597274D03*
X124647385Y-152562090D03*
%TD*%
D14*
%TO.C,CPG1316*%
X64818056Y-97194484D03*
X67752497Y-97818221D03*
%TD*%
%TO.C,CPG1316*%
X81446573Y-100728969D03*
X84381014Y-101352706D03*
%TD*%
D12*
%TO.C,D38*%
X205766620Y-124354121D03*
X208922438Y-123389297D03*
%TD*%
D23*
%TO.C,CPG1316*%
X136551735Y-162755499D03*
X139333286Y-163879312D03*
%TD*%
D10*
%TO.C,CPG1316*%
X207474260Y-129426486D03*
X210343173Y-128549367D03*
%TD*%
%TO.C,CPG1316*%
X260338996Y-127903816D03*
X263207909Y-127026697D03*
%TD*%
D11*
%TO.C,CPG1316*%
X147517340Y-128549383D03*
X150386255Y-129426494D03*
%TD*%
D15*
%TO.C,D13*%
X128295334Y-132763541D03*
X131451128Y-133728357D03*
%TD*%
D12*
%TO.C,D39*%
X200796288Y-108096938D03*
X203952106Y-107132114D03*
%TD*%
D22*
%TO.C,CPG1316*%
X297177000Y-131075221D03*
X300111444Y-130451488D03*
%TD*%
D13*
%TO.C,D27*%
X272220459Y-96150796D03*
X275448355Y-95464696D03*
%TD*%
D11*
%TO.C,CPG1316*%
X136815225Y-105409286D03*
X139684140Y-106286397D03*
%TD*%
D15*
%TO.C,D15*%
X138235976Y-100249181D03*
X141391770Y-101213997D03*
%TD*%
%TO.C,D17*%
X148938090Y-123389295D03*
X152093884Y-124354111D03*
%TD*%
%TO.C,D8*%
X101043666Y-105609428D03*
X104199460Y-106574244D03*
%TD*%
%TO.C,D11*%
X118762693Y-105798218D03*
X121918487Y-106763034D03*
%TD*%
D12*
%TO.C,D32*%
X235942016Y-106763039D03*
X239097834Y-105798215D03*
%TD*%
D17*
%TO.C,D1*%
X58714651Y-125187220D03*
X61942571Y-125873330D03*
%TD*%
D10*
%TO.C,CPG1316*%
X250398366Y-95389438D03*
X253267279Y-94512319D03*
%TD*%
D11*
%TO.C,CPG1316*%
X112371622Y-127215493D03*
X115240537Y-128092604D03*
%TD*%
D15*
%TO.C,D18*%
X153908407Y-107132119D03*
X157064201Y-108096935D03*
%TD*%
D24*
%TO.C,CPG1316*%
X202736363Y-173563195D03*
X205132274Y-171757756D03*
%TD*%
D22*
%TO.C,CPG1316*%
X273479508Y-101352716D03*
X276413952Y-100728983D03*
%TD*%
D25*
%TO.C,D20*%
X138416794Y-157738878D03*
X141476502Y-158975080D03*
%TD*%
D13*
%TO.C,D24*%
X288848963Y-92616314D03*
X292076859Y-91930214D03*
%TD*%
D14*
%TO.C,CPG1316*%
X57749063Y-130451491D03*
X60683504Y-131075228D03*
%TD*%
M02*
