%TF.GenerationSoftware,KiCad,Pcbnew,8.0.6*%
%TF.CreationDate,2025-05-14T19:15:18+02:00*%
%TF.ProjectId,main-rounded,6d61696e-2d72-46f7-956e-6465642e6b69,v1.0.0*%
%TF.SameCoordinates,Original*%
%TF.FileFunction,Paste,Bot*%
%TF.FilePolarity,Positive*%
%FSLAX46Y46*%
G04 Gerber Fmt 4.6, Leading zero omitted, Abs format (unit mm)*
G04 Created by KiCad (PCBNEW 8.0.6) date 2025-05-14 19:15:18*
%MOMM*%
%LPD*%
G01*
G04 APERTURE LIST*
G04 Aperture macros list*
%AMRotRect*
0 Rectangle, with rotation*
0 The origin of the aperture is its center*
0 $1 length*
0 $2 width*
0 $3 Rotation angle, in degrees counterclockwise*
0 Add horizontal line*
21,1,$1,$2,0,0,$3*%
G04 Aperture macros list end*
%ADD10RotRect,0.900000X1.200000X343.000000*%
%ADD11RotRect,2.600000X2.600000X17.000000*%
%ADD12RotRect,0.900000X1.200000X17.000000*%
%ADD13RotRect,2.600000X2.600000X323.000000*%
%ADD14RotRect,2.600000X2.600000X12.000000*%
%ADD15RotRect,2.600000X2.600000X348.000000*%
%ADD16RotRect,0.900000X1.200000X348.000000*%
%ADD17RotRect,2.600000X2.600000X343.000000*%
%ADD18RotRect,0.900000X1.200000X12.000000*%
%ADD19RotRect,2.600000X2.600000X22.000000*%
%ADD20RotRect,2.600000X2.600000X37.000000*%
%ADD21RotRect,2.600000X2.600000X338.000000*%
%ADD22RotRect,0.900000X1.200000X323.000000*%
%ADD23RotRect,0.900000X1.200000X37.000000*%
%ADD24RotRect,0.900000X1.200000X22.000000*%
%ADD25RotRect,0.900000X1.200000X338.000000*%
G04 APERTURE END LIST*
D10*
%TO.C,D14*%
X139044561Y-124914738D03*
X142200367Y-125879564D03*
%TD*%
%TO.C,D18*%
X161892299Y-115168925D03*
X165048105Y-116133751D03*
%TD*%
D11*
%TO.C,S40*%
X241102742Y-155304809D03*
X252791280Y-154031786D03*
%TD*%
D12*
%TO.C,D32*%
X254404118Y-114586674D03*
X257559924Y-113621848D03*
%TD*%
%TO.C,D31*%
X259666809Y-131800159D03*
X262822615Y-130835333D03*
%TD*%
D10*
%TO.C,D11*%
X122629001Y-113621848D03*
X125784807Y-114586674D03*
%TD*%
D13*
%TO.C,S21*%
X176425685Y-172031532D03*
X184325932Y-180739493D03*
%TD*%
D11*
%TO.C,S36*%
X227970402Y-98669646D03*
X239658940Y-97396623D03*
%TD*%
D14*
%TO.C,S24*%
X308496349Y-87818896D03*
X320251360Y-87569440D03*
%TD*%
D15*
%TO.C,S1*%
X57800889Y-121670387D03*
X68641088Y-126223692D03*
%TD*%
D12*
%TO.C,D34*%
X243251249Y-143093050D03*
X246407055Y-142128224D03*
%TD*%
D16*
%TO.C,D6*%
X83183371Y-101455969D03*
X86411259Y-102142077D03*
%TD*%
D15*
%TO.C,S2*%
X61543299Y-104063731D03*
X72383498Y-108617036D03*
%TD*%
D17*
%TO.C,S16*%
X153014393Y-138649254D03*
X163416495Y-144130018D03*
%TD*%
%TO.C,S10*%
X119013786Y-119888691D03*
X129415888Y-125369455D03*
%TD*%
D12*
%TO.C,D35*%
X237988558Y-125879564D03*
X241144364Y-124914738D03*
%TD*%
D10*
%TO.C,D7*%
X97734662Y-130061794D03*
X100890468Y-131026620D03*
%TD*%
D14*
%TO.C,S26*%
X293653955Y-109375875D03*
X305408966Y-109126419D03*
%TD*%
D17*
%TO.C,S17*%
X158277084Y-121435769D03*
X168679186Y-126916533D03*
%TD*%
D18*
%TO.C,D27*%
X293777667Y-102142077D03*
X297005555Y-101455969D03*
%TD*%
D11*
%TO.C,S32*%
X249648653Y-104590241D03*
X261337191Y-103317218D03*
%TD*%
D16*
%TO.C,D5*%
X79440960Y-119062626D03*
X82668848Y-119748734D03*
%TD*%
D11*
%TO.C,S35*%
X233233092Y-115883132D03*
X244921630Y-114610109D03*
%TD*%
D19*
%TO.C,S41*%
X219989396Y-163188644D03*
X231522504Y-160901742D03*
%TD*%
D11*
%TO.C,S34*%
X238495783Y-133096617D03*
X250184321Y-131823594D03*
%TD*%
D12*
%TO.C,D33*%
X249141427Y-97373188D03*
X252297233Y-96408362D03*
%TD*%
D17*
%TO.C,S7*%
X99382137Y-119115153D03*
X109784239Y-124595917D03*
%TD*%
D16*
%TO.C,D3*%
X64598566Y-97505647D03*
X67826454Y-98191755D03*
%TD*%
D11*
%TO.C,S33*%
X244385962Y-87376755D03*
X256074500Y-86103732D03*
%TD*%
D20*
%TO.C,S42*%
X198532178Y-175973420D03*
X209080412Y-170779455D03*
%TD*%
D18*
%TO.C,D22*%
X319847292Y-133405068D03*
X323075180Y-132718960D03*
%TD*%
D12*
%TO.C,D40*%
X245858207Y-165301241D03*
X249014013Y-164336415D03*
%TD*%
D17*
%TO.C,S14*%
X140692037Y-113968097D03*
X151094139Y-119448861D03*
%TD*%
D18*
%TO.C,D25*%
X301262488Y-137355391D03*
X304490376Y-136669283D03*
%TD*%
D21*
%TO.C,S20*%
X154126475Y-160734970D03*
X164011314Y-167101481D03*
%TD*%
D17*
%TO.C,S12*%
X129539167Y-85461720D03*
X139941269Y-90942484D03*
%TD*%
D10*
%TO.C,D15*%
X144307252Y-107701253D03*
X147463058Y-108666079D03*
%TD*%
D14*
%TO.C,S27*%
X289911544Y-91769218D03*
X301666555Y-91519762D03*
%TD*%
%TO.C,S25*%
X297396365Y-126982532D03*
X309151376Y-126733076D03*
%TD*%
D10*
%TO.C,D17*%
X156629608Y-132382410D03*
X159785414Y-133347236D03*
%TD*%
%TO.C,D13*%
X133781871Y-142128224D03*
X136937677Y-143093050D03*
%TD*%
D16*
%TO.C,D2*%
X60856156Y-115112304D03*
X64084044Y-115798412D03*
%TD*%
D12*
%TO.C,D39*%
X215140820Y-116133751D03*
X218296626Y-115168925D03*
%TD*%
D22*
%TO.C,D21*%
X171133592Y-181754539D03*
X173769090Y-183740529D03*
%TD*%
D17*
%TO.C,S15*%
X145954727Y-96754611D03*
X156356829Y-102235375D03*
%TD*%
D18*
%TO.C,D26*%
X297520077Y-119748734D03*
X300747965Y-119062626D03*
%TD*%
D12*
%TO.C,D38*%
X220403511Y-133347236D03*
X223559317Y-132382410D03*
%TD*%
D10*
%TO.C,D19*%
X131174912Y-164336415D03*
X134330718Y-165301241D03*
%TD*%
D15*
%TO.C,S5*%
X80128104Y-108014053D03*
X90968303Y-112567358D03*
%TD*%
D11*
%TO.C,S37*%
X220910736Y-140564289D03*
X232599274Y-139291266D03*
%TD*%
D14*
%TO.C,S23*%
X312238759Y-105425553D03*
X323993770Y-105176097D03*
%TD*%
D10*
%TO.C,D10*%
X117366310Y-130835333D03*
X120522116Y-131800159D03*
%TD*%
D11*
%TO.C,S39*%
X210385355Y-106137318D03*
X222073893Y-104864295D03*
%TD*%
D10*
%TO.C,D9*%
X108260043Y-95634823D03*
X111415849Y-96599649D03*
%TD*%
D15*
%TO.C,S6*%
X83870514Y-90407396D03*
X94710713Y-94960701D03*
%TD*%
D11*
%TO.C,S38*%
X215648045Y-123350804D03*
X227336583Y-122077781D03*
%TD*%
D15*
%TO.C,S4*%
X76385693Y-125620710D03*
X87225892Y-130174015D03*
%TD*%
D10*
%TO.C,D12*%
X127891692Y-96408362D03*
X131047498Y-97373188D03*
%TD*%
D16*
%TO.C,D4*%
X75698550Y-136669283D03*
X78926438Y-137355391D03*
%TD*%
D17*
%TO.C,S18*%
X163539774Y-104222283D03*
X173941876Y-109703047D03*
%TD*%
D10*
%TO.C,D8*%
X102997352Y-112848309D03*
X106153158Y-113813135D03*
%TD*%
D17*
%TO.C,S11*%
X124276477Y-102675206D03*
X134678579Y-108155970D03*
%TD*%
D12*
%TO.C,D30*%
X268773076Y-96599649D03*
X271928882Y-95634823D03*
%TD*%
D23*
%TO.C,D42*%
X206419835Y-183740529D03*
X209055333Y-181754539D03*
%TD*%
D16*
%TO.C,D1*%
X57113745Y-132718960D03*
X60341633Y-133405068D03*
%TD*%
D17*
%TO.C,S19*%
X132822388Y-153389774D03*
X143224490Y-158870538D03*
%TD*%
D12*
%TO.C,D28*%
X279298458Y-131026620D03*
X282454264Y-130061794D03*
%TD*%
%TO.C,D37*%
X225666202Y-150560722D03*
X228822008Y-149595896D03*
%TD*%
D15*
%TO.C,S3*%
X65285710Y-86457074D03*
X76125909Y-91010379D03*
%TD*%
D12*
%TO.C,D36*%
X232725867Y-108666079D03*
X235881673Y-107701253D03*
%TD*%
D18*
%TO.C,D24*%
X312362471Y-98191755D03*
X315590359Y-97505647D03*
%TD*%
D12*
%TO.C,D29*%
X274035767Y-113813135D03*
X277191573Y-112848309D03*
%TD*%
D18*
%TO.C,D23*%
X316104882Y-115798412D03*
X319332770Y-115112304D03*
%TD*%
D11*
%TO.C,S31*%
X254911343Y-121803726D03*
X266599881Y-120530703D03*
%TD*%
D17*
%TO.C,S8*%
X104644828Y-101901667D03*
X115046930Y-107382431D03*
%TD*%
%TO.C,S9*%
X109907518Y-84688182D03*
X120309620Y-90168946D03*
%TD*%
D24*
%TO.C,D41*%
X225598012Y-172732572D03*
X228657718Y-171496370D03*
%TD*%
D11*
%TO.C,S30*%
X264017611Y-86603217D03*
X275706149Y-85330194D03*
%TD*%
D17*
%TO.C,S13*%
X135429346Y-131181582D03*
X145831448Y-136662346D03*
%TD*%
D14*
%TO.C,S22*%
X315981170Y-123032209D03*
X327736181Y-122782753D03*
%TD*%
D10*
%TO.C,D16*%
X151366918Y-149595896D03*
X154522724Y-150560722D03*
%TD*%
D25*
%TO.C,D20*%
X151531207Y-171496370D03*
X154590913Y-172732572D03*
%TD*%
D11*
%TO.C,S28*%
X274542992Y-121030188D03*
X286231530Y-119757165D03*
%TD*%
%TO.C,S29*%
X269280302Y-103816702D03*
X280968840Y-102543679D03*
%TD*%
M02*
