%TF.GenerationSoftware,KiCad,Pcbnew,8.0.6*%
%TF.CreationDate,2025-06-24T00:53:43+02:00*%
%TF.ProjectId,main,6d61696e-2e6b-4696-9361-645f70636258,v1.0.0*%
%TF.SameCoordinates,Original*%
%TF.FileFunction,Legend,Top*%
%TF.FilePolarity,Positive*%
%FSLAX46Y46*%
G04 Gerber Fmt 4.6, Leading zero omitted, Abs format (unit mm)*
G04 Created by KiCad (PCBNEW 8.0.6) date 2025-06-24 00:53:43*
%MOMM*%
%LPD*%
G01*
G04 APERTURE LIST*
%ADD10C,0.150000*%
%ADD11C,0.100000*%
%ADD12C,0.120000*%
G04 APERTURE END LIST*
D10*
X167529819Y-112647616D02*
X167053628Y-112980949D01*
X167529819Y-113219044D02*
X166529819Y-113219044D01*
X166529819Y-113219044D02*
X166529819Y-112838092D01*
X166529819Y-112838092D02*
X166577438Y-112742854D01*
X166577438Y-112742854D02*
X166625057Y-112695235D01*
X166625057Y-112695235D02*
X166720295Y-112647616D01*
X166720295Y-112647616D02*
X166863152Y-112647616D01*
X166863152Y-112647616D02*
X166958390Y-112695235D01*
X166958390Y-112695235D02*
X167006009Y-112742854D01*
X167006009Y-112742854D02*
X167053628Y-112838092D01*
X167053628Y-112838092D02*
X167053628Y-113219044D01*
X167482200Y-112266663D02*
X167529819Y-112123806D01*
X167529819Y-112123806D02*
X167529819Y-111885711D01*
X167529819Y-111885711D02*
X167482200Y-111790473D01*
X167482200Y-111790473D02*
X167434580Y-111742854D01*
X167434580Y-111742854D02*
X167339342Y-111695235D01*
X167339342Y-111695235D02*
X167244104Y-111695235D01*
X167244104Y-111695235D02*
X167148866Y-111742854D01*
X167148866Y-111742854D02*
X167101247Y-111790473D01*
X167101247Y-111790473D02*
X167053628Y-111885711D01*
X167053628Y-111885711D02*
X167006009Y-112076187D01*
X167006009Y-112076187D02*
X166958390Y-112171425D01*
X166958390Y-112171425D02*
X166910771Y-112219044D01*
X166910771Y-112219044D02*
X166815533Y-112266663D01*
X166815533Y-112266663D02*
X166720295Y-112266663D01*
X166720295Y-112266663D02*
X166625057Y-112219044D01*
X166625057Y-112219044D02*
X166577438Y-112171425D01*
X166577438Y-112171425D02*
X166529819Y-112076187D01*
X166529819Y-112076187D02*
X166529819Y-111838092D01*
X166529819Y-111838092D02*
X166577438Y-111695235D01*
X166529819Y-111409520D02*
X166529819Y-110838092D01*
X167529819Y-111123806D02*
X166529819Y-111123806D01*
X143195258Y-93598850D02*
X143290496Y-93433893D01*
X143290496Y-93433893D02*
X143379354Y-93375223D01*
X143379354Y-93375223D02*
X143509452Y-93340364D01*
X143509452Y-93340364D02*
X143698219Y-93394363D01*
X143698219Y-93394363D02*
X143986894Y-93561029D01*
X143986894Y-93561029D02*
X144128041Y-93697507D01*
X144128041Y-93697507D02*
X144162901Y-93827604D01*
X144162901Y-93827604D02*
X144156521Y-93933893D01*
X144156521Y-93933893D02*
X144061283Y-94098850D01*
X144061283Y-94098850D02*
X143972425Y-94157519D01*
X143972425Y-94157519D02*
X143842327Y-94192378D01*
X143842327Y-94192378D02*
X143653560Y-94138380D01*
X143653560Y-94138380D02*
X143364885Y-93971713D01*
X143364885Y-93971713D02*
X143223737Y-93835236D01*
X143223737Y-93835236D02*
X143188878Y-93705138D01*
X143188878Y-93705138D02*
X143195258Y-93598850D01*
X144202889Y-92805962D02*
X144036222Y-93094638D01*
X144489854Y-93356542D02*
X143623829Y-92856542D01*
X143623829Y-92856542D02*
X143861924Y-92444149D01*
X144631460Y-92063655D02*
X144464794Y-92352330D01*
X144918426Y-92614235D02*
X144052401Y-92114235D01*
X144052401Y-92114235D02*
X144290496Y-91701842D01*
X134701670Y-88310173D02*
X134796908Y-88145216D01*
X134796908Y-88145216D02*
X134885767Y-88086547D01*
X134885767Y-88086547D02*
X135015864Y-88051687D01*
X135015864Y-88051687D02*
X135204631Y-88105686D01*
X135204631Y-88105686D02*
X135493306Y-88272353D01*
X135493306Y-88272353D02*
X135634454Y-88408830D01*
X135634454Y-88408830D02*
X135669313Y-88538928D01*
X135669313Y-88538928D02*
X135662934Y-88645216D01*
X135662934Y-88645216D02*
X135567696Y-88810173D01*
X135567696Y-88810173D02*
X135478837Y-88868842D01*
X135478837Y-88868842D02*
X135348740Y-88903702D01*
X135348740Y-88903702D02*
X135159973Y-88849703D01*
X135159973Y-88849703D02*
X134871298Y-88683036D01*
X134871298Y-88683036D02*
X134730150Y-88546559D01*
X134730150Y-88546559D02*
X134695290Y-88416461D01*
X134695290Y-88416461D02*
X134701670Y-88310173D01*
X135996267Y-88067865D02*
X135130242Y-87567865D01*
X135130242Y-87567865D02*
X136281981Y-87572994D01*
X136281981Y-87572994D02*
X135415956Y-87072994D01*
D11*
%TO.C,D34*%
X227270054Y-133465233D02*
X227652567Y-133348282D01*
X227652567Y-133348282D02*
X227491764Y-132822324D01*
X227652567Y-133348282D02*
X227813380Y-133874254D01*
X227652567Y-133348282D02*
X228109407Y-132790337D01*
X228109407Y-132790337D02*
X228343305Y-133555382D01*
X228226356Y-133172864D02*
X228704504Y-133026679D01*
X228343305Y-133555382D02*
X227652567Y-133348282D01*
%TO.C,D26*%
X276635290Y-112592202D02*
X277026551Y-112509024D01*
X277026551Y-112509024D02*
X276912194Y-111971053D01*
X277026551Y-112509024D02*
X277140897Y-113047016D01*
X277026551Y-112509024D02*
X277530266Y-111993029D01*
X277530266Y-111993029D02*
X277696598Y-112775542D01*
X277613431Y-112384289D02*
X278102504Y-112280322D01*
X277696598Y-112775542D02*
X277026551Y-112509024D01*
%TO.C,D10*%
X114653053Y-122318527D02*
X115035581Y-122435483D01*
X115035581Y-122435483D02*
X114874772Y-122961450D01*
X115035581Y-122435483D02*
X115196379Y-121909508D01*
X115035581Y-122435483D02*
X115726305Y-122228371D01*
X115492407Y-122993417D02*
X115035581Y-122435483D01*
X115609357Y-122610899D02*
X116087511Y-122757085D01*
X115726305Y-122228371D02*
X115492407Y-122993417D01*
%TO.C,D29*%
X254521733Y-106311103D02*
X254904246Y-106194152D01*
X254904246Y-106194152D02*
X254743443Y-105668194D01*
X254904246Y-106194152D02*
X255065059Y-106720124D01*
X254904246Y-106194152D02*
X255361086Y-105636207D01*
X255361086Y-105636207D02*
X255594984Y-106401252D01*
X255478035Y-106018734D02*
X255956183Y-105872549D01*
X255594984Y-106401252D02*
X254904246Y-106194152D01*
%TO.C,D25*%
X280169790Y-129220712D02*
X280561051Y-129137534D01*
X280561051Y-129137534D02*
X280446694Y-128599563D01*
X280561051Y-129137534D02*
X280675397Y-129675526D01*
X280561051Y-129137534D02*
X281064766Y-128621539D01*
X281064766Y-128621539D02*
X281231098Y-129404052D01*
X281147931Y-129012799D02*
X281637004Y-128908832D01*
X281231098Y-129404052D02*
X280561051Y-129137534D01*
%TO.C,D16*%
X144828445Y-139909606D02*
X145210973Y-140026562D01*
X145210973Y-140026562D02*
X145050164Y-140552529D01*
X145210973Y-140026562D02*
X145371771Y-139500587D01*
X145210973Y-140026562D02*
X145901697Y-139819450D01*
X145667799Y-140584496D02*
X145210973Y-140026562D01*
X145784749Y-140201978D02*
X146262903Y-140348164D01*
X145901697Y-139819450D02*
X145667799Y-140584496D01*
%TO.C,D9*%
X106874647Y-89615370D02*
X107257175Y-89732326D01*
X107257175Y-89732326D02*
X107096366Y-90258293D01*
X107257175Y-89732326D02*
X107417973Y-89206351D01*
X107257175Y-89732326D02*
X107947899Y-89525214D01*
X107714001Y-90290260D02*
X107257175Y-89732326D01*
X107830951Y-89907742D02*
X108309105Y-90053928D01*
X107947899Y-89525214D02*
X107714001Y-90290260D01*
%TO.C,D3*%
X66664006Y-92117320D02*
X67055252Y-92200485D01*
X67055252Y-92200485D02*
X66940906Y-92738466D01*
X67055252Y-92200485D02*
X67169610Y-91662510D01*
X67055252Y-92200485D02*
X67725312Y-91933984D01*
X67558982Y-92716488D02*
X67055252Y-92200485D01*
X67642146Y-92325232D02*
X68131212Y-92429194D01*
X67725312Y-91933984D02*
X67558982Y-92716488D01*
%TO.C,D2*%
X63129505Y-108745829D02*
X63520751Y-108828994D01*
X63520751Y-108828994D02*
X63406405Y-109366975D01*
X63520751Y-108828994D02*
X63635109Y-108291019D01*
X63520751Y-108828994D02*
X64190811Y-108562493D01*
X64024481Y-109344997D02*
X63520751Y-108828994D01*
X64107645Y-108953741D02*
X64596711Y-109057703D01*
X64190811Y-108562493D02*
X64024481Y-109344997D01*
%TO.C,D21*%
X156546916Y-167936414D02*
X156866384Y-168177143D01*
X156866384Y-168177143D02*
X156535374Y-168616389D01*
X156866384Y-168177143D02*
X157197382Y-167737894D01*
X156866384Y-168177143D02*
X157586290Y-168218777D01*
X157104834Y-168857688D02*
X156866384Y-168177143D01*
X157345553Y-168538224D02*
X157744880Y-168839144D01*
X157586290Y-168218777D02*
X157104834Y-168857688D01*
%TO.C,D35*%
X222299740Y-117208053D02*
X222682253Y-117091102D01*
X222682253Y-117091102D02*
X222521450Y-116565144D01*
X222682253Y-117091102D02*
X222843066Y-117617074D01*
X222682253Y-117091102D02*
X223139093Y-116533157D01*
X223139093Y-116533157D02*
X223372991Y-117298202D01*
X223256042Y-116915684D02*
X223734190Y-116769499D01*
X223372991Y-117298202D02*
X222682253Y-117091102D01*
%TO.C,D12*%
X124593684Y-89804166D02*
X124976212Y-89921122D01*
X124976212Y-89921122D02*
X124815403Y-90447089D01*
X124976212Y-89921122D02*
X125137010Y-89395147D01*
X124976212Y-89921122D02*
X125666936Y-89714010D01*
X125433038Y-90479056D02*
X124976212Y-89921122D01*
X125549988Y-90096538D02*
X126028142Y-90242724D01*
X125666936Y-89714010D02*
X125433038Y-90479056D01*
%TO.C,D23*%
X293263798Y-109057710D02*
X293655059Y-108974532D01*
X293655059Y-108974532D02*
X293540702Y-108436561D01*
X293655059Y-108974532D02*
X293769405Y-109512524D01*
X293655059Y-108974532D02*
X294158774Y-108458537D01*
X294158774Y-108458537D02*
X294325106Y-109241050D01*
X294241939Y-108849797D02*
X294731012Y-108745830D01*
X294325106Y-109241050D02*
X293655059Y-108974532D01*
%TO.C,D33*%
X231832372Y-90242733D02*
X232214885Y-90125782D01*
X232214885Y-90125782D02*
X232054082Y-89599824D01*
X232214885Y-90125782D02*
X232375698Y-90651754D01*
X232214885Y-90125782D02*
X232671725Y-89567837D01*
X232671725Y-89567837D02*
X232905623Y-90332882D01*
X232788674Y-89950364D02*
X233266822Y-89804179D01*
X232905623Y-90332882D02*
X232214885Y-90125782D01*
D12*
%TO.C,JST1*%
X162914992Y-117214999D02*
X162914998Y-118215007D01*
X162914993Y-125035000D02*
X162914998Y-124035002D01*
X163835003Y-125035004D02*
X162914993Y-125035000D01*
X163915000Y-117215010D02*
X162914992Y-117214999D01*
D11*
X164475000Y-126074999D02*
X165475005Y-126075001D01*
X166974999Y-125575004D02*
X166974987Y-126575005D01*
X167474998Y-126075005D02*
X166474994Y-126075001D01*
D12*
X168114997Y-125035007D02*
X169035002Y-125035006D01*
X168115000Y-117215004D02*
X169035001Y-117215006D01*
X169035001Y-117215006D02*
X169034995Y-118215006D01*
X169035002Y-125035006D02*
X169034992Y-124035000D01*
D11*
%TO.C,D4*%
X76223518Y-128908844D02*
X76614764Y-128992009D01*
X76614764Y-128992009D02*
X76500418Y-129529990D01*
X76614764Y-128992009D02*
X76729122Y-128454034D01*
X76614764Y-128992009D02*
X77284824Y-128725508D01*
X77118494Y-129508012D02*
X76614764Y-128992009D01*
X77201658Y-129116756D02*
X77690724Y-129220718D01*
X77284824Y-128725508D02*
X77118494Y-129508012D01*
%TO.C,D36*%
X217329420Y-100950877D02*
X217711933Y-100833926D01*
X217711933Y-100833926D02*
X217551130Y-100307968D01*
X217711933Y-100833926D02*
X217872746Y-101359898D01*
X217711933Y-100833926D02*
X218168773Y-100275981D01*
X218168773Y-100275981D02*
X218402671Y-101041026D01*
X218285722Y-100658508D02*
X218763870Y-100512323D01*
X218402671Y-101041026D02*
X217711933Y-100833926D01*
%TO.C,D41*%
X217218484Y-158637924D02*
X217589353Y-158488088D01*
X217589353Y-158488088D02*
X217383328Y-157978138D01*
X217589353Y-158488088D02*
X217795392Y-158998037D01*
X217589353Y-158488088D02*
X217995822Y-157892447D01*
X217995822Y-157892447D02*
X218295504Y-158634194D01*
X218145670Y-158263316D02*
X218609254Y-158076020D01*
X218295504Y-158634194D02*
X217589353Y-158488088D01*
%TO.C,D14*%
X134126320Y-116769500D02*
X134508848Y-116886456D01*
X134508848Y-116886456D02*
X134348039Y-117412423D01*
X134508848Y-116886456D02*
X134669646Y-116360481D01*
X134508848Y-116886456D02*
X135199572Y-116679344D01*
X134965674Y-117444390D02*
X134508848Y-116886456D01*
X135082624Y-117061872D02*
X135560778Y-117208058D01*
X135199572Y-116679344D02*
X134965674Y-117444390D01*
%TO.C,D42*%
X200115624Y-168839135D02*
X200435092Y-168598418D01*
X200435092Y-168598418D02*
X200104095Y-168159160D01*
X200435092Y-168598418D02*
X200673547Y-167917864D01*
X200435092Y-168598418D02*
X200766095Y-169037663D01*
X200673547Y-167917864D02*
X201155001Y-168556776D01*
X200914276Y-168237324D02*
X201313604Y-167936411D01*
X201155001Y-168556776D02*
X200435092Y-168598418D01*
%TO.C,D30*%
X249551417Y-90053933D02*
X249933930Y-89936982D01*
X249933930Y-89936982D02*
X249773127Y-89411024D01*
X249933930Y-89936982D02*
X250094743Y-90462954D01*
X249933930Y-89936982D02*
X250390770Y-89379037D01*
X250390770Y-89379037D02*
X250624668Y-90144082D01*
X250507719Y-89761564D02*
X250985867Y-89615379D01*
X250624668Y-90144082D02*
X249933930Y-89936982D01*
%TO.C,D22*%
X296798304Y-125686217D02*
X297189565Y-125603039D01*
X297189565Y-125603039D02*
X297075208Y-125065068D01*
X297189565Y-125603039D02*
X297303911Y-126141031D01*
X297189565Y-125603039D02*
X297693280Y-125087044D01*
X297693280Y-125087044D02*
X297859612Y-125869557D01*
X297776445Y-125478304D02*
X298265518Y-125374337D01*
X297859612Y-125869557D02*
X297189565Y-125603039D01*
%TO.C,D7*%
X96934008Y-122129729D02*
X97316536Y-122246685D01*
X97316536Y-122246685D02*
X97155727Y-122772652D01*
X97316536Y-122246685D02*
X97477334Y-121720710D01*
X97316536Y-122246685D02*
X98007260Y-122039573D01*
X97773362Y-122804619D02*
X97316536Y-122246685D01*
X97890312Y-122422101D02*
X98368466Y-122568287D01*
X98007260Y-122039573D02*
X97773362Y-122804619D01*
%TO.C,D28*%
X259492048Y-122568289D02*
X259874561Y-122451338D01*
X259874561Y-122451338D02*
X259713758Y-121925380D01*
X259874561Y-122451338D02*
X260035374Y-122977310D01*
X259874561Y-122451338D02*
X260331401Y-121893393D01*
X260331401Y-121893393D02*
X260565299Y-122658438D01*
X260448350Y-122275920D02*
X260926498Y-122129735D01*
X260565299Y-122658438D02*
X259874561Y-122451338D01*
%TO.C,D31*%
X241773014Y-122757086D02*
X242155527Y-122640135D01*
X242155527Y-122640135D02*
X241994724Y-122114177D01*
X242155527Y-122640135D02*
X242316340Y-123166107D01*
X242155527Y-122640135D02*
X242612367Y-122082190D01*
X242612367Y-122082190D02*
X242846265Y-122847235D01*
X242729316Y-122464717D02*
X243207464Y-122318532D01*
X242846265Y-122847235D02*
X242155527Y-122640135D01*
%TO.C,D6*%
X83292516Y-95651823D02*
X83683762Y-95734988D01*
X83683762Y-95734988D02*
X83569416Y-96272969D01*
X83683762Y-95734988D02*
X83798120Y-95197013D01*
X83683762Y-95734988D02*
X84353822Y-95468487D01*
X84187492Y-96250991D02*
X83683762Y-95734988D01*
X84270656Y-95859735D02*
X84759722Y-95963697D01*
X84353822Y-95468487D02*
X84187492Y-96250991D01*
%TO.C,D37*%
X211597622Y-140348160D02*
X211980135Y-140231209D01*
X211980135Y-140231209D02*
X211819332Y-139705251D01*
X211980135Y-140231209D02*
X212140948Y-140757181D01*
X211980135Y-140231209D02*
X212436975Y-139673264D01*
X212436975Y-139673264D02*
X212670873Y-140438309D01*
X212553924Y-140055791D02*
X213032072Y-139909606D01*
X212670873Y-140438309D02*
X211980135Y-140231209D01*
%TO.C,D40*%
X234073795Y-152298953D02*
X234456308Y-152182002D01*
X234456308Y-152182002D02*
X234295505Y-151656044D01*
X234456308Y-152182002D02*
X234617121Y-152707974D01*
X234456308Y-152182002D02*
X234913148Y-151624057D01*
X234913148Y-151624057D02*
X235147046Y-152389102D01*
X235030097Y-152006584D02*
X235508245Y-151860399D01*
X235147046Y-152389102D02*
X234456308Y-152182002D01*
%TO.C,D5*%
X79758011Y-112280335D02*
X80149257Y-112363500D01*
X80149257Y-112363500D02*
X80034911Y-112901481D01*
X80149257Y-112363500D02*
X80263615Y-111825525D01*
X80149257Y-112363500D02*
X80819317Y-112096999D01*
X80652987Y-112879503D02*
X80149257Y-112363500D01*
X80736151Y-112488247D02*
X81225217Y-112592209D01*
X80819317Y-112096999D02*
X80652987Y-112879503D01*
%TO.C,D19*%
X122352258Y-151860403D02*
X122734786Y-151977359D01*
X122734786Y-151977359D02*
X122573977Y-152503326D01*
X122734786Y-151977359D02*
X122895584Y-151451384D01*
X122734786Y-151977359D02*
X123425510Y-151770247D01*
X123191612Y-152535293D02*
X122734786Y-151977359D01*
X123308562Y-152152775D02*
X123786716Y-152298961D01*
X123425510Y-151770247D02*
X123191612Y-152535293D01*
%TO.C,D38*%
X206627299Y-124090981D02*
X207009812Y-123974030D01*
X207009812Y-123974030D02*
X206849009Y-123448072D01*
X207009812Y-123974030D02*
X207170625Y-124500002D01*
X207009812Y-123974030D02*
X207466652Y-123416085D01*
X207466652Y-123416085D02*
X207700550Y-124181130D01*
X207583601Y-123798612D02*
X208061749Y-123652427D01*
X207700550Y-124181130D02*
X207009812Y-123974030D01*
D10*
%TO.C,RST1*%
X165324999Y-109099989D02*
X165325004Y-115100000D01*
X165324999Y-109099989D02*
X165575003Y-109099996D01*
X165325004Y-115100000D02*
X165575004Y-115099998D01*
X168824996Y-109099994D02*
X168574996Y-109099996D01*
X168824996Y-109099994D02*
X168825001Y-115100005D01*
X168825001Y-115100005D02*
X168574997Y-115099998D01*
D11*
%TO.C,D13*%
X129155999Y-133026673D02*
X129538527Y-133143629D01*
X129538527Y-133143629D02*
X129377718Y-133669596D01*
X129538527Y-133143629D02*
X129699325Y-132617654D01*
X129538527Y-133143629D02*
X130229251Y-132936517D01*
X129995353Y-133701563D02*
X129538527Y-133143629D01*
X130112303Y-133319045D02*
X130590457Y-133465231D01*
X130229251Y-132936517D02*
X129995353Y-133701563D01*
%TO.C,D39*%
X201656978Y-107833794D02*
X202039491Y-107716843D01*
X202039491Y-107716843D02*
X201878688Y-107190885D01*
X202039491Y-107716843D02*
X202200304Y-108242815D01*
X202039491Y-107716843D02*
X202496331Y-107158898D01*
X202496331Y-107158898D02*
X202730229Y-107923943D01*
X202613280Y-107541425D02*
X203091428Y-107395240D01*
X202730229Y-107923943D02*
X202039491Y-107716843D01*
D12*
%TO.C,PWR1*%
X137033174Y-88462258D02*
X136638180Y-89146412D01*
X137888528Y-91080746D02*
X137715328Y-90980745D01*
X140486604Y-92580750D02*
X139014356Y-91730740D01*
X142613747Y-92596414D02*
X143008752Y-91912245D01*
X142994131Y-90737573D02*
X138057790Y-87887568D01*
D11*
%TO.C,D27*%
X273100794Y-95963693D02*
X273492055Y-95880515D01*
X273492055Y-95880515D02*
X273377698Y-95342544D01*
X273492055Y-95880515D02*
X273606401Y-96418507D01*
X273492055Y-95880515D02*
X273995770Y-95364520D01*
X273995770Y-95364520D02*
X274162102Y-96147033D01*
X274078935Y-95755780D02*
X274568008Y-95651813D01*
X274162102Y-96147033D02*
X273492055Y-95880515D01*
%TO.C,D15*%
X139096639Y-100512312D02*
X139479167Y-100629268D01*
X139479167Y-100629268D02*
X139318358Y-101155235D01*
X139479167Y-100629268D02*
X139639965Y-100103293D01*
X139479167Y-100629268D02*
X140169891Y-100422156D01*
X139935993Y-101187202D02*
X139479167Y-100629268D01*
X140052943Y-100804684D02*
X140531097Y-100950870D01*
X140169891Y-100422156D02*
X139935993Y-101187202D01*
%TO.C,D17*%
X149798754Y-123652430D02*
X150181282Y-123769386D01*
X150181282Y-123769386D02*
X150020473Y-124295353D01*
X150181282Y-123769386D02*
X150342080Y-123243411D01*
X150181282Y-123769386D02*
X150872006Y-123562274D01*
X150638108Y-124327320D02*
X150181282Y-123769386D01*
X150755058Y-123944802D02*
X151233212Y-124090988D01*
X150872006Y-123562274D02*
X150638108Y-124327320D01*
%TO.C,D8*%
X101904331Y-105872555D02*
X102286859Y-105989511D01*
X102286859Y-105989511D02*
X102126050Y-106515478D01*
X102286859Y-105989511D02*
X102447657Y-105463536D01*
X102286859Y-105989511D02*
X102977583Y-105782399D01*
X102743685Y-106547445D02*
X102286859Y-105989511D01*
X102860635Y-106164927D02*
X103338789Y-106311113D01*
X102977583Y-105782399D02*
X102743685Y-106547445D01*
%TO.C,D11*%
X119623364Y-106061348D02*
X120005892Y-106178304D01*
X120005892Y-106178304D02*
X119845083Y-106704271D01*
X120005892Y-106178304D02*
X120166690Y-105652329D01*
X120005892Y-106178304D02*
X120696616Y-105971192D01*
X120462718Y-106736238D02*
X120005892Y-106178304D01*
X120579668Y-106353720D02*
X121057822Y-106499906D01*
X120696616Y-105971192D02*
X120462718Y-106736238D01*
%TO.C,D32*%
X236802696Y-106499908D02*
X237185209Y-106382957D01*
X237185209Y-106382957D02*
X237024406Y-105856999D01*
X237185209Y-106382957D02*
X237346022Y-106908929D01*
X237185209Y-106382957D02*
X237642049Y-105825012D01*
X237642049Y-105825012D02*
X237875947Y-106590057D01*
X237758998Y-106207539D02*
X238237146Y-106061354D01*
X237875947Y-106590057D02*
X237185209Y-106382957D01*
%TO.C,D1*%
X59595008Y-125374336D02*
X59986254Y-125457501D01*
X59986254Y-125457501D02*
X59871908Y-125995482D01*
X59986254Y-125457501D02*
X60100612Y-124919526D01*
X59986254Y-125457501D02*
X60656314Y-125191000D01*
X60489984Y-125973504D02*
X59986254Y-125457501D01*
X60573148Y-125582248D02*
X61062214Y-125686210D01*
X60656314Y-125191000D02*
X60489984Y-125973504D01*
%TO.C,D18*%
X154769073Y-107395245D02*
X155151601Y-107512201D01*
X155151601Y-107512201D02*
X154990792Y-108038168D01*
X155151601Y-107512201D02*
X155312399Y-106986226D01*
X155151601Y-107512201D02*
X155842325Y-107305089D01*
X155608427Y-108070135D02*
X155151601Y-107512201D01*
X155725377Y-107687617D02*
X156203531Y-107833803D01*
X155842325Y-107305089D02*
X155608427Y-108070135D01*
%TO.C,D20*%
X139251249Y-158076020D02*
X139622128Y-158225860D01*
X139622128Y-158225860D02*
X139416096Y-158735807D01*
X139622128Y-158225860D02*
X139828170Y-157715917D01*
X139622128Y-158225860D02*
X140328277Y-158079752D01*
X140028594Y-158821499D02*
X139622128Y-158225860D01*
X140178442Y-158450631D02*
X140642037Y-158637928D01*
X140328277Y-158079752D02*
X140028594Y-158821499D01*
%TO.C,D24*%
X289729301Y-92429197D02*
X290120562Y-92346019D01*
X290120562Y-92346019D02*
X290006205Y-91808048D01*
X290120562Y-92346019D02*
X290234908Y-92884011D01*
X290120562Y-92346019D02*
X290624277Y-91830024D01*
X290624277Y-91830024D02*
X290790609Y-92612537D01*
X290707442Y-92221284D02*
X291196515Y-92117317D01*
X290790609Y-92612537D02*
X290120562Y-92346019D01*
%TD*%
M02*
