%TF.GenerationSoftware,KiCad,Pcbnew,8.0.6*%
%TF.CreationDate,2025-07-24T19:22:05+02:00*%
%TF.ProjectId,main,6d61696e-2e6b-4696-9361-645f70636258,v1.0.0*%
%TF.SameCoordinates,Original*%
%TF.FileFunction,Profile,NP*%
%FSLAX46Y46*%
G04 Gerber Fmt 4.6, Leading zero omitted, Abs format (unit mm)*
G04 Created by KiCad (PCBNEW 8.0.6) date 2025-07-24 19:22:05*
%MOMM*%
%LPD*%
G01*
G04 APERTURE LIST*
%TA.AperFunction,Profile*%
%ADD10C,0.150000*%
%TD*%
%TA.AperFunction,Profile*%
%ADD11C,0.050000*%
%TD*%
%TA.AperFunction,Profile*%
%ADD12C,0.100000*%
%TD*%
G04 APERTURE END LIST*
D10*
X117447982Y-80593787D02*
G75*
G02*
X118011433Y-80681060I-21282J-1999913D01*
G01*
X82024373Y-142281781D02*
X49989174Y-135785765D01*
X58614095Y-85499037D02*
G75*
G02*
X60986232Y-83958547I1956405J-415964D01*
G01*
D11*
X172675001Y-104000003D02*
X172550005Y-104000000D01*
D10*
X200604836Y-183746562D02*
G75*
G02*
X199401211Y-184149296I-1203836J1597862D01*
G01*
X100296642Y-80411039D02*
X117447982Y-80593787D01*
X82651410Y-142308456D02*
G75*
G02*
X82024374Y-142281777I-229610J1985457D01*
G01*
X220797892Y-86561182D02*
G75*
G02*
X221220397Y-86376433I1007607J-1728818D01*
G01*
X309434081Y-133428266D02*
G75*
G02*
X307893587Y-135800348I-1956381J-415734D01*
G01*
X126038092Y-165901566D02*
G75*
G02*
X126169485Y-165948111I-600791J-1904735D01*
G01*
X141564209Y-172013237D02*
G75*
G02*
X142034726Y-172276776I-732209J-1859064D01*
G01*
X60986227Y-83958572D02*
X75183133Y-86976208D01*
X275827788Y-142286273D02*
G75*
G02*
X275218091Y-142309491I-380088J1964173D01*
G01*
X293239207Y-138915275D02*
G75*
G02*
X293203513Y-138922522I-410007J1927975D01*
G01*
D11*
X185100007Y-137099998D02*
X185124995Y-104050007D01*
D10*
X136640118Y-86376416D02*
G75*
G02*
X137062618Y-86561194I-584017J-1910784D01*
G01*
X76127097Y-86948916D02*
X99747189Y-80481928D01*
X158459306Y-184149294D02*
G75*
G02*
X157255654Y-183746578I194J2000695D01*
G01*
X307893595Y-135800385D02*
X293239207Y-138915275D01*
X141564209Y-172013237D02*
X126169485Y-165948111D01*
X76127097Y-86948916D02*
G75*
G02*
X75183129Y-86976228I-528197J1929217D01*
G01*
X98085182Y-140525087D02*
X82651410Y-142308456D01*
X126038092Y-165901566D02*
X110736830Y-161074411D01*
X191289902Y-103763208D02*
G75*
G02*
X190282637Y-104035362I-1007102J1727308D01*
G01*
X258113318Y-80481919D02*
X281733413Y-86948912D01*
X240412517Y-80593797D02*
X257563882Y-80411052D01*
X257765613Y-141600204D02*
X248302110Y-160078736D01*
X49989174Y-135785765D02*
G75*
G02*
X48430362Y-133409847I397426J1960065D01*
G01*
X282677367Y-86976209D02*
G75*
G02*
X281733410Y-86948922I-415867J1954709D01*
G01*
X110736830Y-161074411D02*
G75*
G02*
X109558406Y-160078752I601669J1907311D01*
G01*
X248302110Y-160078736D02*
G75*
G02*
X247123691Y-161074432I-1780310J911835D01*
G01*
X215825776Y-172276765D02*
X200604836Y-183746562D01*
D11*
X167577880Y-104035356D02*
X172550005Y-104000000D01*
D10*
X48430355Y-133409846D02*
X58614095Y-85499037D01*
X247123689Y-161074424D02*
X231822416Y-165901575D01*
X167577880Y-104035356D02*
G75*
G02*
X166570620Y-103763219I-80J1999856D01*
G01*
X299246411Y-85499037D02*
X309434081Y-133428266D01*
X118011430Y-80681071D02*
X136640118Y-86376416D01*
D11*
X172700000Y-137150003D02*
X172675001Y-104000003D01*
X172700000Y-137150003D02*
X185100007Y-137099998D01*
D10*
X109558404Y-160078753D02*
X100094892Y-141600199D01*
X231691032Y-165948117D02*
G75*
G02*
X231822417Y-165901579I728268J-1847283D01*
G01*
X282677367Y-86976209D02*
X296874294Y-83958564D01*
D11*
X185124995Y-104050007D02*
X190282637Y-104035373D01*
D10*
X231691032Y-165948117D02*
X216296308Y-172013226D01*
X215825776Y-172276765D02*
G75*
G02*
X216296307Y-172013224I1202324J-1594834D01*
G01*
X221220395Y-86376428D02*
X239849072Y-80681075D01*
X137062618Y-86561194D02*
X166570625Y-103763211D01*
X293203513Y-138922522D02*
X275827788Y-142286273D01*
X275218089Y-142309506D02*
X259775336Y-140525076D01*
X157255668Y-183746559D02*
X142034731Y-172276770D01*
X98085182Y-140525087D02*
G75*
G02*
X100094941Y-141600174I229618J-1986812D01*
G01*
X191289902Y-103763208D02*
X220797892Y-86561182D01*
X296874294Y-83958564D02*
G75*
G02*
X299246423Y-85499034I415806J-1956336D01*
G01*
X257765613Y-141600204D02*
G75*
G02*
X259775340Y-140525045I1780086J-911496D01*
G01*
X257563882Y-80411052D02*
G75*
G02*
X258113317Y-80481922I21218J-2000748D01*
G01*
X99747189Y-80481928D02*
G75*
G02*
X100296642Y-80411045I528111J-1928672D01*
G01*
X239849072Y-80681075D02*
G75*
G02*
X240412517Y-80593809I584628J-1912124D01*
G01*
X199401211Y-184149293D02*
X158459306Y-184149294D01*
D12*
%TO.C,CPG1316*%
X251785812Y-112999441D02*
G75*
G02*
X250785818Y-112999441I-499997J0D01*
G01*
X250785818Y-112999441D02*
G75*
G02*
X251785812Y-112999441I499997J0D01*
G01*
X261370902Y-104348249D02*
G75*
G02*
X260170896Y-104348249I-600003J0D01*
G01*
X260170896Y-104348249D02*
G75*
G02*
X261370902Y-104348249I600003J0D01*
G01*
X113700600Y-109796724D02*
G75*
G02*
X112700612Y-109796724I-499994J0D01*
G01*
X112700612Y-109796724D02*
G75*
G02*
X113700600Y-109796724I499994J0D01*
G01*
X126501772Y-107928562D02*
G75*
G02*
X125301776Y-107928562I-599998J0D01*
G01*
X125301776Y-107928562D02*
G75*
G02*
X126501772Y-107928562I599998J0D01*
G01*
X118670921Y-93539546D02*
G75*
G02*
X117670933Y-93539546I-499994J0D01*
G01*
X117670933Y-93539546D02*
G75*
G02*
X118670921Y-93539546I499994J0D01*
G01*
X131472093Y-91671384D02*
G75*
G02*
X130272097Y-91671384I-599998J0D01*
G01*
X130272097Y-91671384D02*
G75*
G02*
X131472093Y-91671384I599998J0D01*
G01*
X123233221Y-136762047D02*
G75*
G02*
X122233233Y-136762047I-499994J0D01*
G01*
X122233233Y-136762047D02*
G75*
G02*
X123233221Y-136762047I499994J0D01*
G01*
X136034393Y-134893885D02*
G75*
G02*
X134834397Y-134893885I-599998J0D01*
G01*
X134834397Y-134893885D02*
G75*
G02*
X136034393Y-134893885I599998J0D01*
G01*
X229096454Y-96931066D02*
G75*
G02*
X228096460Y-96931066I-499997J0D01*
G01*
X228096460Y-96931066D02*
G75*
G02*
X229096454Y-96931066I499997J0D01*
G01*
X238681544Y-88279874D02*
G75*
G02*
X237481538Y-88279874I-600003J0D01*
G01*
X237481538Y-88279874D02*
G75*
G02*
X238681544Y-88279874I600003J0D01*
G01*
X70650741Y-133189792D02*
G75*
G02*
X69650735Y-133189792I-500003J0D01*
G01*
X69650735Y-133189792D02*
G75*
G02*
X70650741Y-133189792I500003J0D01*
G01*
X83240763Y-130221752D02*
G75*
G02*
X82040769Y-130221752I-599997J0D01*
G01*
X82040769Y-130221752D02*
G75*
G02*
X83240763Y-130221752I599997J0D01*
G01*
X100951886Y-93350763D02*
G75*
G02*
X99951898Y-93350763I-499994J0D01*
G01*
X99951898Y-93350763D02*
G75*
G02*
X100951886Y-93350763I499994J0D01*
G01*
X113753058Y-91482601D02*
G75*
G02*
X112553062Y-91482601I-599998J0D01*
G01*
X112553062Y-91482601D02*
G75*
G02*
X113753058Y-91482601I599998J0D01*
G01*
X224534151Y-140153579D02*
G75*
G02*
X223534157Y-140153579I-499997J0D01*
G01*
X223534157Y-140153579D02*
G75*
G02*
X224534151Y-140153579I499997J0D01*
G01*
X234119241Y-131502387D02*
G75*
G02*
X232919235Y-131502387I-600003J0D01*
G01*
X232919235Y-131502387D02*
G75*
G02*
X234119241Y-131502387I600003J0D01*
G01*
X215077799Y-165582834D02*
G75*
G02*
X214077789Y-165582834I-500005J0D01*
G01*
X214077789Y-165582834D02*
G75*
G02*
X215077799Y-165582834I500005J0D01*
G01*
X223872792Y-156137892D02*
G75*
G02*
X222672808Y-156137892I-599992J0D01*
G01*
X222672808Y-156137892D02*
G75*
G02*
X223872792Y-156137892I599992J0D01*
G01*
X148846308Y-111130626D02*
G75*
G02*
X147846320Y-111130626I-499994J0D01*
G01*
X147846320Y-111130626D02*
G75*
G02*
X148846308Y-111130626I499994J0D01*
G01*
X161647480Y-109262464D02*
G75*
G02*
X160447484Y-109262464I-599998J0D01*
G01*
X160447484Y-109262464D02*
G75*
G02*
X161647480Y-109262464I599998J0D01*
G01*
X74185258Y-116561286D02*
G75*
G02*
X73185252Y-116561286I-500003J0D01*
G01*
X73185252Y-116561286D02*
G75*
G02*
X74185258Y-116561286I500003J0D01*
G01*
X86775280Y-113593246D02*
G75*
G02*
X85575286Y-113593246I-599997J0D01*
G01*
X85575286Y-113593246D02*
G75*
G02*
X86775280Y-113593246I599997J0D01*
G01*
X219563831Y-123896398D02*
G75*
G02*
X218563837Y-123896398I-499997J0D01*
G01*
X218563837Y-123896398D02*
G75*
G02*
X219563831Y-123896398I499997J0D01*
G01*
X229148921Y-115245206D02*
G75*
G02*
X227948915Y-115245206I-600003J0D01*
G01*
X227948915Y-115245206D02*
G75*
G02*
X229148921Y-115245206I600003J0D01*
G01*
X149733919Y-169249805D02*
G75*
G02*
X148733935Y-169249805I-499992J0D01*
G01*
X148733935Y-169249805D02*
G75*
G02*
X149733919Y-169249805I499992J0D01*
G01*
X162408082Y-171838359D02*
G75*
G02*
X161208064Y-171838359I-600009J0D01*
G01*
X161208064Y-171838359D02*
G75*
G02*
X162408082Y-171838359I600009J0D01*
G01*
X57556722Y-113026783D02*
G75*
G02*
X56556716Y-113026783I-500003J0D01*
G01*
X56556716Y-113026783D02*
G75*
G02*
X57556722Y-113026783I500003J0D01*
G01*
X70146744Y-110058743D02*
G75*
G02*
X68946750Y-110058743I-599997J0D01*
G01*
X68946750Y-110058743D02*
G75*
G02*
X70146744Y-110058743I599997J0D01*
G01*
X95981564Y-109607929D02*
G75*
G02*
X94981576Y-109607929I-499994J0D01*
G01*
X94981576Y-109607929D02*
G75*
G02*
X95981564Y-109607929I499994J0D01*
G01*
X108782736Y-107739767D02*
G75*
G02*
X107582740Y-107739767I-599998J0D01*
G01*
X107582740Y-107739767D02*
G75*
G02*
X108782736Y-107739767I599998J0D01*
G01*
X198921081Y-114522145D02*
G75*
G02*
X197921087Y-114522145I-499997J0D01*
G01*
X197921087Y-114522145D02*
G75*
G02*
X198921081Y-114522145I499997J0D01*
G01*
X208506171Y-105870953D02*
G75*
G02*
X207306165Y-105870953I-600003J0D01*
G01*
X207306165Y-105870953D02*
G75*
G02*
X208506171Y-105870953I600003J0D01*
G01*
X239037096Y-129445421D02*
G75*
G02*
X238037102Y-129445421I-499997J0D01*
G01*
X238037102Y-129445421D02*
G75*
G02*
X239037096Y-129445421I499997J0D01*
G01*
X248622186Y-120794229D02*
G75*
G02*
X247422180Y-120794229I-600003J0D01*
G01*
X247422180Y-120794229D02*
G75*
G02*
X248622186Y-120794229I600003J0D01*
G01*
X208861706Y-147036516D02*
G75*
G02*
X207861712Y-147036516I-499997J0D01*
G01*
X207861712Y-147036516D02*
G75*
G02*
X208861706Y-147036516I499997J0D01*
G01*
X218446796Y-138385324D02*
G75*
G02*
X217246790Y-138385324I-600003J0D01*
G01*
X217246790Y-138385324D02*
G75*
G02*
X218446796Y-138385324I600003J0D01*
G01*
X234066777Y-113188244D02*
G75*
G02*
X233066783Y-113188244I-499997J0D01*
G01*
X233066783Y-113188244D02*
G75*
G02*
X234066777Y-113188244I499997J0D01*
G01*
X243651867Y-104537052D02*
G75*
G02*
X242451861Y-104537052I-600003J0D01*
G01*
X242451861Y-104537052D02*
G75*
G02*
X243651867Y-104537052I600003J0D01*
G01*
X286422764Y-98810060D02*
G75*
G02*
X285422774Y-98810060I-499995J0D01*
G01*
X285422774Y-98810060D02*
G75*
G02*
X286422764Y-98810060I499995J0D01*
G01*
X296725767Y-91018472D02*
G75*
G02*
X295525767Y-91018472I-600000J0D01*
G01*
X295525767Y-91018472D02*
G75*
G02*
X296725767Y-91018472I600000J0D01*
G01*
X276863237Y-135601560D02*
G75*
G02*
X275863247Y-135601560I-499995J0D01*
G01*
X275863247Y-135601560D02*
G75*
G02*
X276863237Y-135601560I499995J0D01*
G01*
X287166240Y-127809972D02*
G75*
G02*
X285966240Y-127809972I-600000J0D01*
G01*
X285966240Y-127809972D02*
G75*
G02*
X287166240Y-127809972I600000J0D01*
G01*
X116429491Y-155595773D02*
G75*
G02*
X115429503Y-155595773I-499994J0D01*
G01*
X115429503Y-155595773D02*
G75*
G02*
X116429491Y-155595773I499994J0D01*
G01*
X129230663Y-153727611D02*
G75*
G02*
X128030667Y-153727611I-599998J0D01*
G01*
X128030667Y-153727611D02*
G75*
G02*
X129230663Y-153727611I599998J0D01*
G01*
X214593511Y-107639215D02*
G75*
G02*
X213593517Y-107639215I-499997J0D01*
G01*
X213593517Y-107639215D02*
G75*
G02*
X214593511Y-107639215I499997J0D01*
G01*
X224178601Y-98988023D02*
G75*
G02*
X222978595Y-98988023I-600003J0D01*
G01*
X222978595Y-98988023D02*
G75*
G02*
X224178601Y-98988023I600003J0D01*
G01*
X289957247Y-115438556D02*
G75*
G02*
X288957257Y-115438556I-499995J0D01*
G01*
X288957257Y-115438556D02*
G75*
G02*
X289957247Y-115438556I499995J0D01*
G01*
X300260250Y-107646968D02*
G75*
G02*
X299060250Y-107646968I-600000J0D01*
G01*
X299060250Y-107646968D02*
G75*
G02*
X300260250Y-107646968I600000J0D01*
G01*
X138905664Y-143644992D02*
G75*
G02*
X137905676Y-143644992I-499994J0D01*
G01*
X137905676Y-143644992D02*
G75*
G02*
X138905664Y-143644992I499994J0D01*
G01*
X151706836Y-141776830D02*
G75*
G02*
X150506840Y-141776830I-599998J0D01*
G01*
X150506840Y-141776830D02*
G75*
G02*
X151706836Y-141776830I599998J0D01*
G01*
X128203556Y-120504890D02*
G75*
G02*
X127203568Y-120504890I-499994J0D01*
G01*
X127203568Y-120504890D02*
G75*
G02*
X128203556Y-120504890I499994J0D01*
G01*
X141004728Y-118636728D02*
G75*
G02*
X139804732Y-118636728I-599998J0D01*
G01*
X139804732Y-118636728D02*
G75*
G02*
X141004728Y-118636728I599998J0D01*
G01*
X91011242Y-125865132D02*
G75*
G02*
X90011254Y-125865132I-499994J0D01*
G01*
X90011254Y-125865132D02*
G75*
G02*
X91011242Y-125865132I499994J0D01*
G01*
X103812414Y-123996970D02*
G75*
G02*
X102612418Y-123996970I-599998J0D01*
G01*
X102612418Y-123996970D02*
G75*
G02*
X103812414Y-123996970I599998J0D01*
G01*
X231337881Y-158987286D02*
G75*
G02*
X230337887Y-158987286I-499997J0D01*
G01*
X230337887Y-158987286D02*
G75*
G02*
X231337881Y-158987286I499997J0D01*
G01*
X240922971Y-150336094D02*
G75*
G02*
X239722965Y-150336094I-600003J0D01*
G01*
X239722965Y-150336094D02*
G75*
G02*
X240922971Y-150336094I600003J0D01*
G01*
X273328753Y-118973063D02*
G75*
G02*
X272328763Y-118973063I-499995J0D01*
G01*
X272328763Y-118973063D02*
G75*
G02*
X273328753Y-118973063I499995J0D01*
G01*
X283631756Y-111181475D02*
G75*
G02*
X282431756Y-111181475I-600000J0D01*
G01*
X282431756Y-111181475D02*
G75*
G02*
X283631756Y-111181475I600000J0D01*
G01*
X61091228Y-96398282D02*
G75*
G02*
X60091222Y-96398282I-500003J0D01*
G01*
X60091222Y-96398282D02*
G75*
G02*
X61091228Y-96398282I500003J0D01*
G01*
X73681250Y-93430242D02*
G75*
G02*
X72481256Y-93430242I-599997J0D01*
G01*
X72481256Y-93430242D02*
G75*
G02*
X73681250Y-93430242I599997J0D01*
G01*
X77719745Y-99932767D02*
G75*
G02*
X76719739Y-99932767I-500003J0D01*
G01*
X76719739Y-99932767D02*
G75*
G02*
X77719745Y-99932767I500003J0D01*
G01*
X90309767Y-96964727D02*
G75*
G02*
X89109773Y-96964727I-599997J0D01*
G01*
X89109773Y-96964727D02*
G75*
G02*
X90309767Y-96964727I599997J0D01*
G01*
X133027382Y-161237406D02*
G75*
G02*
X132027376Y-161237406I-500003J0D01*
G01*
X132027376Y-161237406D02*
G75*
G02*
X133027382Y-161237406I500003J0D01*
G01*
X145943051Y-160483332D02*
G75*
G02*
X144743055Y-160483332I-599998J0D01*
G01*
X144743055Y-160483332D02*
G75*
G02*
X145943051Y-160483332I599998J0D01*
G01*
X203891386Y-130779316D02*
G75*
G02*
X202891392Y-130779316I-499997J0D01*
G01*
X202891392Y-130779316D02*
G75*
G02*
X203891386Y-130779316I499997J0D01*
G01*
X213476476Y-122128124D02*
G75*
G02*
X212276470Y-122128124I-600003J0D01*
G01*
X212276470Y-122128124D02*
G75*
G02*
X213476476Y-122128124I600003J0D01*
G01*
X256756121Y-129256646D02*
G75*
G02*
X255756127Y-129256646I-499997J0D01*
G01*
X255756127Y-129256646D02*
G75*
G02*
X256756121Y-129256646I499997J0D01*
G01*
X266341211Y-120605454D02*
G75*
G02*
X265141205Y-120605454I-600003J0D01*
G01*
X265141205Y-120605454D02*
G75*
G02*
X266341211Y-120605454I600003J0D01*
G01*
X143875991Y-127387811D02*
G75*
G02*
X142876003Y-127387811I-499994J0D01*
G01*
X142876003Y-127387811D02*
G75*
G02*
X143875991Y-127387811I499994J0D01*
G01*
X156677163Y-125519649D02*
G75*
G02*
X155477167Y-125519649I-599998J0D01*
G01*
X155477167Y-125519649D02*
G75*
G02*
X156677163Y-125519649I599998J0D01*
G01*
X293491753Y-132067058D02*
G75*
G02*
X292491763Y-132067058I-499995J0D01*
G01*
X292491763Y-132067058D02*
G75*
G02*
X293491753Y-132067058I499995J0D01*
G01*
X303794756Y-124275470D02*
G75*
G02*
X302594756Y-124275470I-600000J0D01*
G01*
X302594756Y-124275470D02*
G75*
G02*
X303794756Y-124275470I600000J0D01*
G01*
X133173876Y-104247713D02*
G75*
G02*
X132173888Y-104247713I-499994J0D01*
G01*
X132173888Y-104247713D02*
G75*
G02*
X133173876Y-104247713I499994J0D01*
G01*
X145975048Y-102379551D02*
G75*
G02*
X144775052Y-102379551I-599998J0D01*
G01*
X144775052Y-102379551D02*
G75*
G02*
X145975048Y-102379551I599998J0D01*
G01*
X246815491Y-96742268D02*
G75*
G02*
X245815497Y-96742268I-499997J0D01*
G01*
X245815497Y-96742268D02*
G75*
G02*
X246815491Y-96742268I499997J0D01*
G01*
X256400581Y-88091076D02*
G75*
G02*
X255200575Y-88091076I-600003J0D01*
G01*
X255200575Y-88091076D02*
G75*
G02*
X256400581Y-88091076I600003J0D01*
G01*
X108730273Y-126053921D02*
G75*
G02*
X107730285Y-126053921I-499994J0D01*
G01*
X107730285Y-126053921D02*
G75*
G02*
X108730273Y-126053921I499994J0D01*
G01*
X121531445Y-124185759D02*
G75*
G02*
X120331449Y-124185759I-599998J0D01*
G01*
X120331449Y-124185759D02*
G75*
G02*
X121531445Y-124185759I599998J0D01*
G01*
X199862413Y-176230864D02*
G75*
G02*
X198862425Y-176230864I-499994J0D01*
G01*
X198862425Y-176230864D02*
G75*
G02*
X199862413Y-176230864I499994J0D01*
G01*
X205916609Y-164857320D02*
G75*
G02*
X204716589Y-164857320I-600010J0D01*
G01*
X204716589Y-164857320D02*
G75*
G02*
X205916609Y-164857320I600010J0D01*
G01*
X269794261Y-102344553D02*
G75*
G02*
X268794271Y-102344553I-499995J0D01*
G01*
X268794271Y-102344553D02*
G75*
G02*
X269794261Y-102344553I499995J0D01*
G01*
X280097264Y-94552965D02*
G75*
G02*
X278897264Y-94552965I-600000J0D01*
G01*
X278897264Y-94552965D02*
G75*
G02*
X280097264Y-94552965I600000J0D01*
G01*
X54022235Y-129655289D02*
G75*
G02*
X53022229Y-129655289I-500003J0D01*
G01*
X53022229Y-129655289D02*
G75*
G02*
X54022235Y-129655289I500003J0D01*
G01*
X66612257Y-126687249D02*
G75*
G02*
X65412263Y-126687249I-599997J0D01*
G01*
X65412263Y-126687249D02*
G75*
G02*
X66612257Y-126687249I599997J0D01*
G01*
%TD*%
M02*
