%TF.GenerationSoftware,KiCad,Pcbnew,8.0.6*%
%TF.CreationDate,2025-07-18T12:27:13+02:00*%
%TF.ProjectId,main,6d61696e-2e6b-4696-9361-645f70636258,v1.0.0*%
%TF.SameCoordinates,Original*%
%TF.FileFunction,Paste,Bot*%
%TF.FilePolarity,Positive*%
%FSLAX46Y46*%
G04 Gerber Fmt 4.6, Leading zero omitted, Abs format (unit mm)*
G04 Created by KiCad (PCBNEW 8.0.6) date 2025-07-18 12:27:13*
%MOMM*%
%LPD*%
G01*
G04 APERTURE LIST*
G04 Aperture macros list*
%AMRotRect*
0 Rectangle, with rotation*
0 The origin of the aperture is its center*
0 $1 length*
0 $2 width*
0 $3 Rotation angle, in degrees counterclockwise*
0 Add horizontal line*
21,1,$1,$2,0,0,$3*%
G04 Aperture macros list end*
%ADD10RotRect,1.550000X2.000000X343.000000*%
%ADD11RotRect,0.900000X1.200000X17.000000*%
%ADD12RotRect,0.900000X1.200000X12.000000*%
%ADD13RotRect,1.550000X2.000000X17.000000*%
%ADD14RotRect,1.550000X2.000000X348.000000*%
%ADD15RotRect,0.900000X1.200000X343.000000*%
%ADD16RotRect,1.550000X2.000000X22.000000*%
%ADD17RotRect,0.900000X1.200000X348.000000*%
%ADD18RotRect,0.900000X1.200000X323.000000*%
%ADD19RotRect,1.550000X2.000000X323.000000*%
%ADD20RotRect,0.900000X1.200000X22.000000*%
%ADD21RotRect,0.900000X1.200000X37.000000*%
%ADD22RotRect,1.550000X2.000000X12.000000*%
%ADD23RotRect,1.550000X2.000000X338.000000*%
%ADD24RotRect,1.550000X2.000000X37.000000*%
%ADD25RotRect,0.900000X1.200000X338.000000*%
G04 APERTURE END LIST*
D10*
%TO.C,CPG1316*%
X116385649Y-110665921D03*
X120210869Y-111835418D03*
%TD*%
%TO.C,CPG1316*%
X121355970Y-94408736D03*
X125181190Y-95578233D03*
%TD*%
%TO.C,CPG1316*%
X125918265Y-137631240D03*
X129743485Y-138800737D03*
%TD*%
D11*
%TO.C,D34*%
X226409371Y-133728371D03*
X229565183Y-132763545D03*
%TD*%
D12*
%TO.C,D26*%
X275754948Y-112779315D03*
X278982840Y-112093213D03*
%TD*%
D13*
%TO.C,CPG1316*%
X231723025Y-95870610D03*
X235548241Y-94701125D03*
%TD*%
D14*
%TO.C,CPG1316*%
X73399419Y-133778081D03*
X77312005Y-134609733D03*
%TD*%
D10*
%TO.C,CPG1316*%
X103636928Y-94219956D03*
X107462148Y-95389453D03*
%TD*%
D15*
%TO.C,D10*%
X113792381Y-122055400D03*
X116948179Y-123020220D03*
%TD*%
D11*
%TO.C,D29*%
X253661051Y-106574240D03*
X256816863Y-105609414D03*
%TD*%
D12*
%TO.C,D25*%
X279289452Y-129407823D03*
X282517344Y-128721721D03*
%TD*%
D15*
%TO.C,D16*%
X143967773Y-139646471D03*
X147123571Y-140611291D03*
%TD*%
D13*
%TO.C,CPG1316*%
X227160720Y-139093119D03*
X230985936Y-137923634D03*
%TD*%
D16*
%TO.C,CPG1316*%
X217600044Y-164253920D03*
X221308784Y-162755491D03*
%TD*%
D15*
%TO.C,D9*%
X106013978Y-89352235D03*
X109169776Y-90317055D03*
%TD*%
D17*
%TO.C,D3*%
X65783650Y-91930199D03*
X69011564Y-92616311D03*
%TD*%
D10*
%TO.C,CPG1316*%
X151531348Y-111999824D03*
X155356568Y-113169321D03*
%TD*%
D17*
%TO.C,D2*%
X62249151Y-108558712D03*
X65477065Y-109244824D03*
%TD*%
D18*
%TO.C,D21*%
X155828154Y-167394794D03*
X158463648Y-169380762D03*
%TD*%
D14*
%TO.C,CPG1316*%
X76933934Y-117149575D03*
X80846520Y-117981227D03*
%TD*%
D11*
%TO.C,D35*%
X221439059Y-117471188D03*
X224594871Y-116506362D03*
%TD*%
D13*
%TO.C,CPG1316*%
X222190398Y-122835938D03*
X226015614Y-121666453D03*
%TD*%
D15*
%TO.C,D12*%
X123733006Y-89541036D03*
X126888804Y-90505856D03*
%TD*%
D19*
%TO.C,CPG1316*%
X151929596Y-171155935D03*
X155124138Y-173563189D03*
%TD*%
D12*
%TO.C,D23*%
X292383464Y-109244816D03*
X295611356Y-108558714D03*
%TD*%
D11*
%TO.C,D33*%
X230971694Y-90505866D03*
X234127506Y-89541040D03*
%TD*%
D17*
%TO.C,D4*%
X75343167Y-128721726D03*
X78571081Y-129407838D03*
%TD*%
D11*
%TO.C,D36*%
X216468735Y-101214007D03*
X219624547Y-100249181D03*
%TD*%
D20*
%TO.C,D41*%
X216384019Y-158975078D03*
X219443715Y-157738874D03*
%TD*%
D14*
%TO.C,CPG1316*%
X60305399Y-113615073D03*
X64217985Y-114446725D03*
%TD*%
D10*
%TO.C,CPG1316*%
X98666608Y-110477127D03*
X102491828Y-111646624D03*
%TD*%
D13*
%TO.C,CPG1316*%
X201547649Y-113461690D03*
X205372865Y-112292205D03*
%TD*%
%TO.C,CPG1316*%
X241663664Y-128384964D03*
X245488880Y-127215479D03*
%TD*%
%TO.C,CPG1316*%
X211488277Y-145976056D03*
X215313493Y-144806571D03*
%TD*%
%TO.C,CPG1316*%
X236693345Y-112127788D03*
X240518561Y-110958303D03*
%TD*%
D15*
%TO.C,D14*%
X133265656Y-116506370D03*
X136421454Y-117471190D03*
%TD*%
D21*
%TO.C,D42*%
X199396862Y-169380780D03*
X202032368Y-167394770D03*
%TD*%
D11*
%TO.C,D30*%
X248690736Y-90317067D03*
X251846548Y-89352241D03*
%TD*%
D12*
%TO.C,D22*%
X295917965Y-125873331D03*
X299145857Y-125187229D03*
%TD*%
D15*
%TO.C,D7*%
X96073337Y-121866594D03*
X99229135Y-122831414D03*
%TD*%
D22*
%TO.C,CPG1316*%
X289129865Y-98026131D03*
X293042457Y-97194484D03*
%TD*%
%TO.C,CPG1316*%
X279570342Y-134817633D03*
X283482934Y-133985986D03*
%TD*%
D11*
%TO.C,D28*%
X258631370Y-122831426D03*
X261787182Y-121866600D03*
%TD*%
%TO.C,D31*%
X240912332Y-123020220D03*
X244068144Y-122055394D03*
%TD*%
D10*
%TO.C,CPG1316*%
X119114534Y-156464968D03*
X122939754Y-157634465D03*
%TD*%
D17*
%TO.C,D6*%
X82412158Y-95464704D03*
X85640072Y-96150816D03*
%TD*%
D13*
%TO.C,CPG1316*%
X217220077Y-106578751D03*
X221045293Y-105409266D03*
%TD*%
D11*
%TO.C,D37*%
X210736939Y-140611296D03*
X213892751Y-139646470D03*
%TD*%
D22*
%TO.C,CPG1316*%
X292664349Y-114654635D03*
X296576941Y-113822988D03*
%TD*%
D10*
%TO.C,CPG1316*%
X141590710Y-144514184D03*
X145415930Y-145683681D03*
%TD*%
%TO.C,CPG1316*%
X130888600Y-121374074D03*
X134713820Y-122543571D03*
%TD*%
D11*
%TO.C,D40*%
X233213117Y-152562090D03*
X236368929Y-151597264D03*
%TD*%
D10*
%TO.C,CPG1316*%
X93696285Y-126734318D03*
X97521505Y-127903815D03*
%TD*%
D17*
%TO.C,D5*%
X78877658Y-112093219D03*
X82105572Y-112779331D03*
%TD*%
D13*
%TO.C,CPG1316*%
X233964450Y-157926831D03*
X237789666Y-156757346D03*
%TD*%
D22*
%TO.C,CPG1316*%
X276035856Y-118189138D03*
X279948448Y-117357491D03*
%TD*%
D15*
%TO.C,D19*%
X121491592Y-151597273D03*
X124647390Y-152562093D03*
%TD*%
D14*
%TO.C,CPG1316*%
X63839904Y-96986563D03*
X67752490Y-97818215D03*
%TD*%
%TO.C,CPG1316*%
X80468420Y-100521058D03*
X84381006Y-101352710D03*
%TD*%
D11*
%TO.C,D38*%
X205766625Y-124354120D03*
X208922437Y-123389294D03*
%TD*%
D23*
%TO.C,CPG1316*%
X135624550Y-162380893D03*
X139333278Y-163879313D03*
%TD*%
D13*
%TO.C,CPG1316*%
X206517954Y-129718864D03*
X210343170Y-128549379D03*
%TD*%
%TO.C,CPG1316*%
X259382697Y-128196183D03*
X263207913Y-127026698D03*
%TD*%
D10*
%TO.C,CPG1316*%
X146561033Y-128257002D03*
X150386253Y-129426499D03*
%TD*%
D15*
%TO.C,D13*%
X128295330Y-132763543D03*
X131451128Y-133728363D03*
%TD*%
D11*
%TO.C,D39*%
X200796293Y-108096936D03*
X203952105Y-107132110D03*
%TD*%
D22*
%TO.C,CPG1316*%
X296198851Y-131283137D03*
X300111443Y-130451490D03*
%TD*%
D12*
%TO.C,D27*%
X272220457Y-96150800D03*
X275448349Y-95464698D03*
%TD*%
D10*
%TO.C,CPG1316*%
X135858918Y-105116909D03*
X139684138Y-106286406D03*
%TD*%
D15*
%TO.C,D15*%
X138235972Y-100249180D03*
X141391770Y-101214000D03*
%TD*%
%TO.C,D17*%
X148938086Y-123389299D03*
X152093884Y-124354119D03*
%TD*%
%TO.C,D8*%
X101043664Y-105609426D03*
X104199462Y-106574246D03*
%TD*%
%TO.C,D11*%
X118762691Y-105798215D03*
X121918489Y-106763035D03*
%TD*%
D11*
%TO.C,D32*%
X235942018Y-106763040D03*
X239097830Y-105798214D03*
%TD*%
D17*
%TO.C,D1*%
X58714655Y-125187215D03*
X61942569Y-125873327D03*
%TD*%
D13*
%TO.C,CPG1316*%
X249442059Y-95681812D03*
X253267275Y-94512327D03*
%TD*%
D10*
%TO.C,CPG1316*%
X111415320Y-126923112D03*
X115240540Y-128092609D03*
%TD*%
D15*
%TO.C,D18*%
X153908406Y-107132117D03*
X157064204Y-108096937D03*
%TD*%
D24*
%TO.C,CPG1316*%
X201937726Y-174165016D03*
X205132269Y-171757754D03*
%TD*%
D22*
%TO.C,CPG1316*%
X272501356Y-101560627D03*
X276413948Y-100728980D03*
%TD*%
D25*
%TO.C,D20*%
X138416788Y-157738875D03*
X141476508Y-158975073D03*
%TD*%
D12*
%TO.C,D24*%
X288848962Y-92616309D03*
X292076854Y-91930207D03*
%TD*%
D14*
%TO.C,CPG1316*%
X56770911Y-130243580D03*
X60683497Y-131075232D03*
%TD*%
D13*
%TO.C,CPG1316*%
X254412386Y-111938987D03*
X258237602Y-110769502D03*
%TD*%
M02*
