%TF.GenerationSoftware,KiCad,Pcbnew,8.0.6*%
%TF.CreationDate,2025-07-21T19:35:39+02:00*%
%TF.ProjectId,main,6d61696e-2e6b-4696-9361-645f70636258,v1.0.0*%
%TF.SameCoordinates,Original*%
%TF.FileFunction,Copper,L1,Top*%
%TF.FilePolarity,Positive*%
%FSLAX46Y46*%
G04 Gerber Fmt 4.6, Leading zero omitted, Abs format (unit mm)*
G04 Created by KiCad (PCBNEW 8.0.6) date 2025-07-21 19:35:39*
%MOMM*%
%LPD*%
G01*
G04 APERTURE LIST*
G04 Aperture macros list*
%AMRoundRect*
0 Rectangle with rounded corners*
0 $1 Rounding radius*
0 $2 $3 $4 $5 $6 $7 $8 $9 X,Y pos of 4 corners*
0 Add a 4 corners polygon primitive as box body*
4,1,4,$2,$3,$4,$5,$6,$7,$8,$9,$2,$3,0*
0 Add four circle primitives for the rounded corners*
1,1,$1+$1,$2,$3*
1,1,$1+$1,$4,$5*
1,1,$1+$1,$6,$7*
1,1,$1+$1,$8,$9*
0 Add four rect primitives between the rounded corners*
20,1,$1+$1,$2,$3,$4,$5,0*
20,1,$1+$1,$4,$5,$6,$7,0*
20,1,$1+$1,$6,$7,$8,$9,0*
20,1,$1+$1,$8,$9,$2,$3,0*%
%AMRotRect*
0 Rectangle, with rotation*
0 The origin of the aperture is its center*
0 $1 length*
0 $2 width*
0 $3 Rotation angle, in degrees counterclockwise*
0 Add horizontal line*
21,1,$1,$2,0,0,$3*%
G04 Aperture macros list end*
%TA.AperFunction,ComponentPad*%
%ADD10C,3.000000*%
%TD*%
%TA.AperFunction,ComponentPad*%
%ADD11C,1.400000*%
%TD*%
%TA.AperFunction,SMDPad,CuDef*%
%ADD12RotRect,1.550000X2.000000X17.000000*%
%TD*%
%TA.AperFunction,SMDPad,CuDef*%
%ADD13RotRect,2.000000X2.000000X17.000000*%
%TD*%
%TA.AperFunction,SMDPad,CuDef*%
%ADD14RotRect,1.550000X2.000000X343.000000*%
%TD*%
%TA.AperFunction,SMDPad,CuDef*%
%ADD15RotRect,2.000000X2.000000X343.000000*%
%TD*%
%TA.AperFunction,SMDPad,CuDef*%
%ADD16RotRect,0.900000X1.200000X17.000000*%
%TD*%
%TA.AperFunction,SMDPad,CuDef*%
%ADD17RotRect,0.900000X1.200000X12.000000*%
%TD*%
%TA.AperFunction,SMDPad,CuDef*%
%ADD18RotRect,1.550000X2.000000X348.000000*%
%TD*%
%TA.AperFunction,SMDPad,CuDef*%
%ADD19RotRect,2.000000X2.000000X348.000000*%
%TD*%
%TA.AperFunction,SMDPad,CuDef*%
%ADD20RotRect,0.900000X1.200000X343.000000*%
%TD*%
%TA.AperFunction,SMDPad,CuDef*%
%ADD21RotRect,1.550000X2.000000X22.000000*%
%TD*%
%TA.AperFunction,SMDPad,CuDef*%
%ADD22RotRect,2.000000X2.000000X22.000000*%
%TD*%
%TA.AperFunction,SMDPad,CuDef*%
%ADD23RotRect,0.900000X1.200000X348.000000*%
%TD*%
%TA.AperFunction,SMDPad,CuDef*%
%ADD24RotRect,0.900000X1.200000X323.000000*%
%TD*%
%TA.AperFunction,SMDPad,CuDef*%
%ADD25RotRect,1.550000X2.000000X323.000000*%
%TD*%
%TA.AperFunction,SMDPad,CuDef*%
%ADD26RotRect,2.000000X2.000000X323.000000*%
%TD*%
%TA.AperFunction,ComponentPad*%
%ADD27RoundRect,0.240000X-0.360000X-0.635000X0.360000X-0.635000X0.360000X0.635000X-0.360000X0.635000X0*%
%TD*%
%TA.AperFunction,ComponentPad*%
%ADD28O,1.200000X1.750000*%
%TD*%
%TA.AperFunction,SMDPad,CuDef*%
%ADD29RotRect,0.900000X1.200000X22.000000*%
%TD*%
%TA.AperFunction,SMDPad,CuDef*%
%ADD30RotRect,0.900000X1.200000X37.000000*%
%TD*%
%TA.AperFunction,SMDPad,CuDef*%
%ADD31RotRect,1.550000X2.000000X12.000000*%
%TD*%
%TA.AperFunction,SMDPad,CuDef*%
%ADD32RotRect,2.000000X2.000000X12.000000*%
%TD*%
%TA.AperFunction,SMDPad,CuDef*%
%ADD33RotRect,1.550000X2.000000X338.000000*%
%TD*%
%TA.AperFunction,SMDPad,CuDef*%
%ADD34RotRect,2.000000X2.000000X338.000000*%
%TD*%
%TA.AperFunction,ComponentPad*%
%ADD35C,1.700000*%
%TD*%
%TA.AperFunction,SMDPad,CuDef*%
%ADD36RotRect,1.000000X0.800000X150.000000*%
%TD*%
%TA.AperFunction,SMDPad,CuDef*%
%ADD37RotRect,0.700000X1.500000X150.000000*%
%TD*%
%TA.AperFunction,SMDPad,CuDef*%
%ADD38RotRect,1.550000X2.000000X37.000000*%
%TD*%
%TA.AperFunction,SMDPad,CuDef*%
%ADD39RotRect,2.000000X2.000000X37.000000*%
%TD*%
%TA.AperFunction,SMDPad,CuDef*%
%ADD40RotRect,0.900000X1.200000X338.000000*%
%TD*%
%TA.AperFunction,ViaPad*%
%ADD41C,0.600000*%
%TD*%
%TA.AperFunction,Conductor*%
%ADD42C,0.200000*%
%TD*%
%TA.AperFunction,Conductor*%
%ADD43C,0.250000*%
%TD*%
G04 APERTURE END LIST*
D10*
%TO.P,REF\u002A\u002A,1*%
%TO.N,N/C*%
X264127746Y-87342994D03*
%TD*%
%TO.P,REF\u002A\u002A,1*%
%TO.N,N/C*%
X93622789Y-87365094D03*
%TD*%
D11*
%TO.P,CPG1316,1*%
%TO.N,P6*%
X255368687Y-111646611D03*
D12*
X255368687Y-111646611D03*
D11*
%TO.P,CPG1316,2*%
%TO.N,mirror_ring_home*%
X258237600Y-110769492D03*
D12*
X258237600Y-110769492D03*
D13*
%TO.P,CPG1316,3*%
%TO.N,N/C*%
X248201585Y-104792577D03*
X251710051Y-116268232D03*
X260346663Y-101079458D03*
X263855129Y-112555113D03*
%TD*%
D11*
%TO.P,CPG1316,1*%
%TO.N,P7*%
X117341950Y-110958297D03*
D14*
X117341950Y-110958297D03*
D11*
%TO.P,CPG1316,2*%
%TO.N,middle_home*%
X120210864Y-111835407D03*
D14*
X120210864Y-111835407D03*
D15*
%TO.P,CPG1316,3*%
%TO.N,N/C*%
X111724421Y-112743910D03*
X115232887Y-101268255D03*
X123869493Y-116457031D03*
X127377959Y-104981376D03*
%TD*%
D11*
%TO.P,CPG1316,1*%
%TO.N,P7*%
X122312271Y-94701119D03*
D14*
X122312271Y-94701119D03*
D11*
%TO.P,CPG1316,2*%
%TO.N,middle_top*%
X125181185Y-95578229D03*
D14*
X125181185Y-95578229D03*
D15*
%TO.P,CPG1316,3*%
%TO.N,N/C*%
X116694742Y-96486732D03*
X120203208Y-85011077D03*
X128839814Y-100199853D03*
X132348280Y-88724198D03*
%TD*%
D11*
%TO.P,CPG1316,1*%
%TO.N,P8*%
X126874571Y-137923620D03*
D14*
X126874571Y-137923620D03*
D11*
%TO.P,CPG1316,2*%
%TO.N,index_bottom*%
X129743485Y-138800730D03*
D14*
X129743485Y-138800730D03*
D15*
%TO.P,CPG1316,3*%
%TO.N,N/C*%
X121257042Y-139709233D03*
X124765508Y-128233578D03*
X133402114Y-143422354D03*
X136910580Y-131946699D03*
%TD*%
D16*
%TO.P,D34,1*%
%TO.N,P2*%
X226409365Y-133728373D03*
%TO.P,D34,2*%
%TO.N,mirror_index_bottom*%
X229565183Y-132763549D03*
%TD*%
D17*
%TO.P,D26,1*%
%TO.N,P0*%
X275754943Y-112779312D03*
%TO.P,D26,2*%
%TO.N,mirror_pinky_home*%
X278982841Y-112093212D03*
%TD*%
D11*
%TO.P,CPG1316,1*%
%TO.N,P7*%
X232679328Y-95578236D03*
D12*
X232679328Y-95578236D03*
D11*
%TO.P,CPG1316,2*%
%TO.N,mirror_middle_top*%
X235548241Y-94701117D03*
D12*
X235548241Y-94701117D03*
D13*
%TO.P,CPG1316,3*%
%TO.N,N/C*%
X225512226Y-88724202D03*
X229020692Y-100199857D03*
X237657304Y-85011083D03*
X241165770Y-96486738D03*
%TD*%
D11*
%TO.P,CPG1316,1*%
%TO.N,P5*%
X74377567Y-133985994D03*
D18*
X74377567Y-133985994D03*
D11*
%TO.P,CPG1316,2*%
%TO.N,pinky_bottom*%
X77312010Y-134609730D03*
D18*
X77312010Y-134609730D03*
D19*
%TO.P,CPG1316,3*%
%TO.N,N/C*%
X68937044Y-136254415D03*
X71431985Y-124516653D03*
X81359519Y-138894889D03*
X83854460Y-127157127D03*
%TD*%
D11*
%TO.P,CPG1316,1*%
%TO.N,P6*%
X104593236Y-94512336D03*
D14*
X104593236Y-94512336D03*
D11*
%TO.P,CPG1316,2*%
%TO.N,ring_top*%
X107462150Y-95389446D03*
D14*
X107462150Y-95389446D03*
D15*
%TO.P,CPG1316,3*%
%TO.N,N/C*%
X98975707Y-96297949D03*
X102484173Y-84822294D03*
X111120779Y-100011070D03*
X114629245Y-88535415D03*
%TD*%
D20*
%TO.P,D10,1*%
%TO.N,P19*%
X113792383Y-122055404D03*
%TO.P,D10,2*%
%TO.N,middle_bottom*%
X116948177Y-123020220D03*
%TD*%
D16*
%TO.P,D29,1*%
%TO.N,P0*%
X253661050Y-106574235D03*
%TO.P,D29,2*%
%TO.N,mirror_ring_home*%
X256816868Y-105609411D03*
%TD*%
D17*
%TO.P,D25,1*%
%TO.N,P2*%
X279289450Y-129407823D03*
%TO.P,D25,2*%
%TO.N,mirror_pinky_bottom*%
X282517348Y-128721723D03*
%TD*%
D20*
%TO.P,D16,1*%
%TO.N,P19*%
X143967777Y-139646473D03*
%TO.P,D16,2*%
%TO.N,inner_bottom*%
X147123571Y-140611289D03*
%TD*%
D11*
%TO.P,CPG1316,1*%
%TO.N,P8*%
X228117026Y-138800749D03*
D12*
X228117026Y-138800749D03*
D11*
%TO.P,CPG1316,2*%
%TO.N,mirror_index_bottom*%
X230985939Y-137923630D03*
D12*
X230985939Y-137923630D03*
D13*
%TO.P,CPG1316,3*%
%TO.N,N/C*%
X220949924Y-131946715D03*
X224458390Y-143422370D03*
X233095002Y-128233596D03*
X236603468Y-139709251D03*
%TD*%
D11*
%TO.P,CPG1316,1*%
%TO.N,P8*%
X218527224Y-163879312D03*
D21*
X218527224Y-163879312D03*
D11*
%TO.P,CPG1316,2*%
%TO.N,mirror_home_thumb*%
X221308783Y-162755490D03*
D21*
X221308783Y-162755490D03*
D22*
%TO.P,CPG1316,3*%
%TO.N,N/C*%
X210790038Y-157676013D03*
X215285318Y-168802213D03*
X222565276Y-152918513D03*
X227060556Y-164044713D03*
%TD*%
D20*
%TO.P,D9,1*%
%TO.N,P21*%
X106013976Y-89352236D03*
%TO.P,D9,2*%
%TO.N,ring_top*%
X109169770Y-90317052D03*
%TD*%
D23*
%TO.P,D3,1*%
%TO.N,P21*%
X65783647Y-91930200D03*
%TO.P,D3,2*%
%TO.N,outer_top*%
X69011565Y-92616312D03*
%TD*%
D11*
%TO.P,CPG1316,1*%
%TO.N,P9*%
X152487658Y-112292199D03*
D14*
X152487658Y-112292199D03*
D11*
%TO.P,CPG1316,2*%
%TO.N,inner_top*%
X155356572Y-113169309D03*
D14*
X155356572Y-113169309D03*
D15*
%TO.P,CPG1316,3*%
%TO.N,N/C*%
X146870129Y-114077812D03*
X150378595Y-102602157D03*
X159015201Y-117790933D03*
X162523667Y-106315278D03*
%TD*%
D23*
%TO.P,D2,1*%
%TO.N,P20*%
X62249148Y-108558714D03*
%TO.P,D2,2*%
%TO.N,outer_home*%
X65477066Y-109244826D03*
%TD*%
D24*
%TO.P,D21,1*%
%TO.N,P18*%
X155828154Y-167394791D03*
%TO.P,D21,2*%
%TO.N,far_thumb*%
X158463642Y-169380763D03*
%TD*%
D11*
%TO.P,CPG1316,1*%
%TO.N,P5*%
X77912084Y-117357489D03*
D18*
X77912084Y-117357489D03*
D11*
%TO.P,CPG1316,2*%
%TO.N,pinky_home*%
X80846527Y-117981225D03*
D18*
X80846527Y-117981225D03*
D19*
%TO.P,CPG1316,3*%
%TO.N,N/C*%
X72471561Y-119625910D03*
X74966502Y-107888148D03*
X84894036Y-122266384D03*
X87388977Y-110528622D03*
%TD*%
D16*
%TO.P,D35,1*%
%TO.N,P0*%
X221439059Y-117471185D03*
%TO.P,D35,2*%
%TO.N,mirror_index_home*%
X224594877Y-116506361D03*
%TD*%
D11*
%TO.P,CPG1316,1*%
%TO.N,P8*%
X223146706Y-122543568D03*
D12*
X223146706Y-122543568D03*
D11*
%TO.P,CPG1316,2*%
%TO.N,mirror_index_home*%
X226015619Y-121666449D03*
D12*
X226015619Y-121666449D03*
D13*
%TO.P,CPG1316,3*%
%TO.N,N/C*%
X215979604Y-115689534D03*
X219488070Y-127165189D03*
X228124682Y-111976415D03*
X231633148Y-123452070D03*
%TD*%
D20*
%TO.P,D12,1*%
%TO.N,P21*%
X123733004Y-89541039D03*
%TO.P,D12,2*%
%TO.N,middle_top*%
X126888798Y-90505855D03*
%TD*%
D11*
%TO.P,CPG1316,1*%
%TO.N,P9*%
X152728241Y-171757747D03*
D25*
X152728241Y-171757747D03*
D11*
%TO.P,CPG1316,2*%
%TO.N,far_thumb*%
X155124143Y-173563187D03*
D25*
X155124143Y-173563187D03*
D26*
%TO.P,CPG1316,3*%
%TO.N,N/C*%
X146838771Y-171514370D03*
X154060558Y-161930744D03*
X156981442Y-179157420D03*
X164203229Y-169573794D03*
%TD*%
D17*
%TO.P,D23,1*%
%TO.N,P0*%
X292383463Y-109244815D03*
%TO.P,D23,2*%
%TO.N,mirror_outer_home*%
X295611361Y-108558715D03*
%TD*%
D16*
%TO.P,D33,1*%
%TO.N,P1*%
X230971691Y-90505862D03*
%TO.P,D33,2*%
%TO.N,mirror_middle_top*%
X234127509Y-89541038D03*
%TD*%
D27*
%TO.P,JST1,1*%
%TO.N,GND*%
X164974996Y-118674998D03*
D28*
%TO.P,JST1,2*%
%TO.N,BAT_P*%
X166974990Y-118675010D03*
%TD*%
D23*
%TO.P,D4,1*%
%TO.N,P19*%
X75343162Y-128721729D03*
%TO.P,D4,2*%
%TO.N,pinky_bottom*%
X78571080Y-129407841D03*
%TD*%
D16*
%TO.P,D36,1*%
%TO.N,P1*%
X216468734Y-101214007D03*
%TO.P,D36,2*%
%TO.N,mirror_index_top*%
X219624552Y-100249183D03*
%TD*%
D29*
%TO.P,D41,1*%
%TO.N,P3*%
X216384023Y-158975079D03*
%TO.P,D41,2*%
%TO.N,mirror_home_thumb*%
X219443709Y-157738875D03*
%TD*%
D11*
%TO.P,CPG1316,1*%
%TO.N,P4*%
X61283548Y-113822986D03*
D18*
X61283548Y-113822986D03*
D11*
%TO.P,CPG1316,2*%
%TO.N,outer_home*%
X64217991Y-114446722D03*
D18*
X64217991Y-114446722D03*
D19*
%TO.P,CPG1316,3*%
%TO.N,N/C*%
X55843025Y-116091407D03*
X58337966Y-104353645D03*
X68265500Y-118731881D03*
X70760441Y-106994119D03*
%TD*%
D11*
%TO.P,CPG1316,1*%
%TO.N,P6*%
X99622914Y-110769502D03*
D14*
X99622914Y-110769502D03*
D11*
%TO.P,CPG1316,2*%
%TO.N,ring_home*%
X102491828Y-111646612D03*
D14*
X102491828Y-111646612D03*
D15*
%TO.P,CPG1316,3*%
%TO.N,N/C*%
X94005385Y-112555115D03*
X97513851Y-101079460D03*
X106150457Y-116268236D03*
X109658923Y-104792581D03*
%TD*%
D11*
%TO.P,CPG1316,1*%
%TO.N,P9*%
X202503956Y-113169315D03*
D12*
X202503956Y-113169315D03*
D11*
%TO.P,CPG1316,2*%
%TO.N,mirror_inner_top*%
X205372869Y-112292196D03*
D12*
X205372869Y-112292196D03*
D13*
%TO.P,CPG1316,3*%
%TO.N,N/C*%
X195336854Y-106315281D03*
X198845320Y-117790936D03*
X207481932Y-102602162D03*
X210990398Y-114077817D03*
%TD*%
D11*
%TO.P,CPG1316,1*%
%TO.N,P7*%
X242619971Y-128092591D03*
D12*
X242619971Y-128092591D03*
D11*
%TO.P,CPG1316,2*%
%TO.N,mirror_middle_bottom*%
X245488884Y-127215472D03*
D12*
X245488884Y-127215472D03*
D13*
%TO.P,CPG1316,3*%
%TO.N,N/C*%
X235452869Y-121238557D03*
X238961335Y-132714212D03*
X247597947Y-117525438D03*
X251106413Y-129001093D03*
%TD*%
D11*
%TO.P,CPG1316,1*%
%TO.N,P9*%
X212444581Y-145683687D03*
D12*
X212444581Y-145683687D03*
D11*
%TO.P,CPG1316,2*%
%TO.N,mirror_inner_bottom*%
X215313494Y-144806568D03*
D12*
X215313494Y-144806568D03*
D13*
%TO.P,CPG1316,3*%
%TO.N,N/C*%
X205277479Y-138829653D03*
X208785945Y-150305308D03*
X217422557Y-135116534D03*
X220931023Y-146592189D03*
%TD*%
D11*
%TO.P,CPG1316,1*%
%TO.N,P7*%
X237649652Y-111835415D03*
D12*
X237649652Y-111835415D03*
D11*
%TO.P,CPG1316,2*%
%TO.N,mirror_middle_home*%
X240518565Y-110958296D03*
D12*
X240518565Y-110958296D03*
D13*
%TO.P,CPG1316,3*%
%TO.N,N/C*%
X230482550Y-104981381D03*
X233991016Y-116457036D03*
X242627628Y-101268262D03*
X246136094Y-112743917D03*
%TD*%
D20*
%TO.P,D14,1*%
%TO.N,P20*%
X133265662Y-116506373D03*
%TO.P,D14,2*%
%TO.N,index_home*%
X136421456Y-117471189D03*
%TD*%
D30*
%TO.P,D42,1*%
%TO.N,P3*%
X199396862Y-169380777D03*
%TO.P,D42,2*%
%TO.N,mirror_far_thumb*%
X202032366Y-167394771D03*
%TD*%
D16*
%TO.P,D30,1*%
%TO.N,P1*%
X248690734Y-90317065D03*
%TO.P,D30,2*%
%TO.N,mirror_ring_top*%
X251846552Y-89352241D03*
%TD*%
D17*
%TO.P,D22,1*%
%TO.N,P2*%
X295917966Y-125873332D03*
%TO.P,D22,2*%
%TO.N,mirror_outer_bottom*%
X299145864Y-125187232D03*
%TD*%
D20*
%TO.P,D7,1*%
%TO.N,P19*%
X96073340Y-121866596D03*
%TO.P,D7,2*%
%TO.N,ring_bottom*%
X99229134Y-122831412D03*
%TD*%
D11*
%TO.P,CPG1316,1*%
%TO.N,P4*%
X290108012Y-97818222D03*
D31*
X290108012Y-97818222D03*
D11*
%TO.P,CPG1316,2*%
%TO.N,mirror_outer_top*%
X293042455Y-97194489D03*
D31*
X293042455Y-97194489D03*
D32*
%TO.P,CPG1316,3*%
%TO.N,N/C*%
X286060498Y-102103387D03*
X283565562Y-90365623D03*
X298482974Y-99462907D03*
X295988038Y-87725143D03*
%TD*%
D11*
%TO.P,CPG1316,1*%
%TO.N,P5*%
X280548485Y-134609724D03*
D31*
X280548485Y-134609724D03*
D11*
%TO.P,CPG1316,2*%
%TO.N,mirror_pinky_bottom*%
X283482928Y-133985991D03*
D31*
X283482928Y-133985991D03*
D32*
%TO.P,CPG1316,3*%
%TO.N,N/C*%
X276500971Y-138894889D03*
X274006035Y-127157125D03*
X288923447Y-136254409D03*
X286428511Y-124516645D03*
%TD*%
D16*
%TO.P,D28,1*%
%TO.N,P2*%
X258631371Y-122831420D03*
%TO.P,D28,2*%
%TO.N,mirror_ring_bottom*%
X261787189Y-121866596D03*
%TD*%
%TO.P,D31,1*%
%TO.N,P2*%
X240912332Y-123020215D03*
%TO.P,D31,2*%
%TO.N,mirror_middle_bottom*%
X244068150Y-122055391D03*
%TD*%
D11*
%TO.P,CPG1316,1*%
%TO.N,P7*%
X120070842Y-156757345D03*
D14*
X120070842Y-156757345D03*
D11*
%TO.P,CPG1316,2*%
%TO.N,near_thumb*%
X122939756Y-157634455D03*
D14*
X122939756Y-157634455D03*
D15*
%TO.P,CPG1316,3*%
%TO.N,N/C*%
X114453313Y-158542958D03*
X117961779Y-147067303D03*
X126598385Y-162256079D03*
X130106851Y-150780424D03*
%TD*%
D23*
%TO.P,D6,1*%
%TO.N,P21*%
X82412158Y-95464703D03*
%TO.P,D6,2*%
%TO.N,pinky_top*%
X85640076Y-96150815D03*
%TD*%
D11*
%TO.P,CPG1316,1*%
%TO.N,P8*%
X218176386Y-106286385D03*
D12*
X218176386Y-106286385D03*
D11*
%TO.P,CPG1316,2*%
%TO.N,mirror_index_top*%
X221045299Y-105409266D03*
D12*
X221045299Y-105409266D03*
D13*
%TO.P,CPG1316,3*%
%TO.N,N/C*%
X211009284Y-99432351D03*
X214517750Y-110908006D03*
X223154362Y-95719232D03*
X226662828Y-107194887D03*
%TD*%
D16*
%TO.P,D37,1*%
%TO.N,P2*%
X210736937Y-140611292D03*
%TO.P,D37,2*%
%TO.N,mirror_inner_bottom*%
X213892755Y-139646468D03*
%TD*%
D11*
%TO.P,CPG1316,1*%
%TO.N,P4*%
X293642495Y-114446719D03*
D31*
X293642495Y-114446719D03*
D11*
%TO.P,CPG1316,2*%
%TO.N,mirror_outer_home*%
X296576938Y-113822986D03*
D31*
X296576938Y-113822986D03*
D32*
%TO.P,CPG1316,3*%
%TO.N,N/C*%
X289594981Y-118731884D03*
X287100045Y-106994120D03*
X302017457Y-116091404D03*
X299522521Y-104353640D03*
%TD*%
D11*
%TO.P,CPG1316,1*%
%TO.N,P9*%
X142547015Y-144806565D03*
D14*
X142547015Y-144806565D03*
D11*
%TO.P,CPG1316,2*%
%TO.N,inner_bottom*%
X145415929Y-145683675D03*
D14*
X145415929Y-145683675D03*
D15*
%TO.P,CPG1316,3*%
%TO.N,N/C*%
X136929486Y-146592178D03*
X140437952Y-135116523D03*
X149074558Y-150305299D03*
X152583024Y-138829644D03*
%TD*%
D11*
%TO.P,CPG1316,1*%
%TO.N,P8*%
X131844905Y-121666463D03*
D14*
X131844905Y-121666463D03*
D11*
%TO.P,CPG1316,2*%
%TO.N,index_home*%
X134713819Y-122543573D03*
D14*
X134713819Y-122543573D03*
D15*
%TO.P,CPG1316,3*%
%TO.N,N/C*%
X126227376Y-123452076D03*
X129735842Y-111976421D03*
X138372448Y-127165197D03*
X141880914Y-115689542D03*
%TD*%
D16*
%TO.P,D40,1*%
%TO.N,P3*%
X233213109Y-152562089D03*
%TO.P,D40,2*%
%TO.N,mirror_near_thumb*%
X236368927Y-151597265D03*
%TD*%
D11*
%TO.P,CPG1316,1*%
%TO.N,P6*%
X94652592Y-127026705D03*
D14*
X94652592Y-127026705D03*
D11*
%TO.P,CPG1316,2*%
%TO.N,ring_bottom*%
X97521506Y-127903815D03*
D14*
X97521506Y-127903815D03*
D15*
%TO.P,CPG1316,3*%
%TO.N,N/C*%
X89035063Y-128812318D03*
X92543529Y-117336663D03*
X101180135Y-132525439D03*
X104688601Y-121049784D03*
%TD*%
D23*
%TO.P,D5,1*%
%TO.N,P20*%
X78877655Y-112093220D03*
%TO.P,D5,2*%
%TO.N,pinky_home*%
X82105573Y-112779332D03*
%TD*%
D11*
%TO.P,CPG1316,1*%
%TO.N,P7*%
X234920756Y-157634456D03*
D12*
X234920756Y-157634456D03*
D11*
%TO.P,CPG1316,2*%
%TO.N,mirror_near_thumb*%
X237789669Y-156757337D03*
D12*
X237789669Y-156757337D03*
D13*
%TO.P,CPG1316,3*%
%TO.N,N/C*%
X227753654Y-150780422D03*
X231262120Y-162256077D03*
X239898732Y-147067303D03*
X243407198Y-158542958D03*
%TD*%
D11*
%TO.P,CPG1316,1*%
%TO.N,P5*%
X277014001Y-117981226D03*
D31*
X277014001Y-117981226D03*
D11*
%TO.P,CPG1316,2*%
%TO.N,mirror_pinky_home*%
X279948444Y-117357493D03*
D31*
X279948444Y-117357493D03*
D32*
%TO.P,CPG1316,3*%
%TO.N,N/C*%
X272966487Y-122266391D03*
X270471551Y-110528627D03*
X285388963Y-119625911D03*
X282894027Y-107888147D03*
%TD*%
D20*
%TO.P,D19,1*%
%TO.N,P18*%
X121491591Y-151597274D03*
%TO.P,D19,2*%
%TO.N,near_thumb*%
X124647385Y-152562090D03*
%TD*%
D11*
%TO.P,CPG1316,1*%
%TO.N,P4*%
X64818054Y-97194485D03*
D18*
X64818054Y-97194485D03*
D11*
%TO.P,CPG1316,2*%
%TO.N,outer_top*%
X67752497Y-97818221D03*
D18*
X67752497Y-97818221D03*
D19*
%TO.P,CPG1316,3*%
%TO.N,N/C*%
X59377531Y-99462906D03*
X61872472Y-87725144D03*
X71800006Y-102103380D03*
X74294947Y-90365618D03*
%TD*%
D11*
%TO.P,CPG1316,1*%
%TO.N,P5*%
X81446571Y-100728970D03*
D18*
X81446571Y-100728970D03*
D11*
%TO.P,CPG1316,2*%
%TO.N,pinky_top*%
X84381014Y-101352706D03*
D18*
X84381014Y-101352706D03*
D19*
%TO.P,CPG1316,3*%
%TO.N,N/C*%
X76006048Y-102997391D03*
X78500989Y-91259629D03*
X88428523Y-105637865D03*
X90923464Y-93900103D03*
%TD*%
D16*
%TO.P,D38,1*%
%TO.N,P0*%
X205766621Y-124354121D03*
%TO.P,D38,2*%
%TO.N,mirror_inner_home*%
X208922439Y-123389297D03*
%TD*%
D11*
%TO.P,CPG1316,1*%
%TO.N,P8*%
X136551734Y-162755497D03*
D33*
X136551734Y-162755497D03*
D11*
%TO.P,CPG1316,2*%
%TO.N,home_thumb*%
X139333286Y-163879312D03*
D33*
X139333286Y-163879312D03*
D34*
%TO.P,CPG1316,3*%
%TO.N,N/C*%
X130799956Y-164044718D03*
X135295239Y-152918513D03*
X142575193Y-168802225D03*
X147070476Y-157676020D03*
%TD*%
D35*
%TO.P,RST1,1*%
%TO.N,RST*%
X167074988Y-115349995D03*
%TO.P,RST1,2*%
%TO.N,GND*%
X167075006Y-108850003D03*
%TD*%
D11*
%TO.P,CPG1316,1*%
%TO.N,P9*%
X207474260Y-129426486D03*
D12*
X207474260Y-129426486D03*
D11*
%TO.P,CPG1316,2*%
%TO.N,mirror_inner_home*%
X210343173Y-128549367D03*
D12*
X210343173Y-128549367D03*
D13*
%TO.P,CPG1316,3*%
%TO.N,N/C*%
X200307158Y-122572452D03*
X203815624Y-134048107D03*
X212452236Y-118859333D03*
X215960702Y-130334988D03*
%TD*%
D11*
%TO.P,CPG1316,1*%
%TO.N,P6*%
X260338996Y-127903816D03*
D12*
X260338996Y-127903816D03*
D11*
%TO.P,CPG1316,2*%
%TO.N,mirror_ring_bottom*%
X263207909Y-127026697D03*
D12*
X263207909Y-127026697D03*
D13*
%TO.P,CPG1316,3*%
%TO.N,N/C*%
X253171894Y-121049782D03*
X256680360Y-132525437D03*
X265316972Y-117336663D03*
X268825438Y-128812318D03*
%TD*%
D11*
%TO.P,CPG1316,1*%
%TO.N,P9*%
X147517341Y-128549383D03*
D14*
X147517341Y-128549383D03*
D11*
%TO.P,CPG1316,2*%
%TO.N,inner_home*%
X150386255Y-129426493D03*
D14*
X150386255Y-129426493D03*
D15*
%TO.P,CPG1316,3*%
%TO.N,N/C*%
X141899812Y-130334996D03*
X145408278Y-118859341D03*
X154044884Y-134048117D03*
X157553350Y-122572462D03*
%TD*%
D20*
%TO.P,D13,1*%
%TO.N,P19*%
X128295334Y-132763541D03*
%TO.P,D13,2*%
%TO.N,index_bottom*%
X131451128Y-133728357D03*
%TD*%
D16*
%TO.P,D39,1*%
%TO.N,P1*%
X200796287Y-108096938D03*
%TO.P,D39,2*%
%TO.N,mirror_inner_top*%
X203952105Y-107132114D03*
%TD*%
D11*
%TO.P,CPG1316,1*%
%TO.N,P4*%
X297177001Y-131075221D03*
D31*
X297177001Y-131075221D03*
D11*
%TO.P,CPG1316,2*%
%TO.N,mirror_outer_bottom*%
X300111444Y-130451488D03*
D31*
X300111444Y-130451488D03*
D32*
%TO.P,CPG1316,3*%
%TO.N,N/C*%
X293129487Y-135360386D03*
X290634551Y-123622622D03*
X305551963Y-132719906D03*
X303057027Y-120982142D03*
%TD*%
D36*
%TO.P,PWR1,*%
%TO.N,*%
X142431953Y-93311298D03*
X136109983Y-89661287D03*
X137214959Y-87747365D03*
X143536956Y-91397369D03*
D37*
%TO.P,PWR1,1*%
%TO.N,N/C*%
X140894518Y-93174204D03*
%TO.P,PWR1,2*%
%TO.N,RAW*%
X138296443Y-91674212D03*
%TO.P,PWR1,3*%
%TO.N,BAT_P*%
X136997412Y-90924202D03*
%TD*%
D10*
%TO.P,REF\u002A\u002A,1*%
%TO.N,N/C*%
X178900000Y-173650000D03*
%TD*%
D17*
%TO.P,D27,1*%
%TO.N,P1*%
X272220458Y-96150796D03*
%TO.P,D27,2*%
%TO.N,mirror_pinky_top*%
X275448356Y-95464696D03*
%TD*%
D11*
%TO.P,CPG1316,1*%
%TO.N,P8*%
X136815226Y-105409286D03*
D14*
X136815226Y-105409286D03*
D11*
%TO.P,CPG1316,2*%
%TO.N,index_top*%
X139684140Y-106286396D03*
D14*
X139684140Y-106286396D03*
D15*
%TO.P,CPG1316,3*%
%TO.N,N/C*%
X131197697Y-107194899D03*
X134706163Y-95719244D03*
X143342769Y-110908020D03*
X146851235Y-99432365D03*
%TD*%
D20*
%TO.P,D15,1*%
%TO.N,P21*%
X138235976Y-100249181D03*
%TO.P,D15,2*%
%TO.N,index_top*%
X141391770Y-101213997D03*
%TD*%
%TO.P,D17,1*%
%TO.N,P20*%
X148938090Y-123389295D03*
%TO.P,D17,2*%
%TO.N,inner_home*%
X152093884Y-124354111D03*
%TD*%
%TO.P,D8,1*%
%TO.N,P20*%
X101043666Y-105609428D03*
%TO.P,D8,2*%
%TO.N,ring_home*%
X104199460Y-106574244D03*
%TD*%
%TO.P,D11,1*%
%TO.N,P20*%
X118762693Y-105798218D03*
%TO.P,D11,2*%
%TO.N,middle_home*%
X121918487Y-106763034D03*
%TD*%
D16*
%TO.P,D32,1*%
%TO.N,P0*%
X235942016Y-106763038D03*
%TO.P,D32,2*%
%TO.N,mirror_middle_home*%
X239097834Y-105798214D03*
%TD*%
D23*
%TO.P,D1,1*%
%TO.N,P19*%
X58714652Y-125187220D03*
%TO.P,D1,2*%
%TO.N,outer_bottom*%
X61942570Y-125873332D03*
%TD*%
D11*
%TO.P,CPG1316,1*%
%TO.N,P6*%
X250398366Y-95389438D03*
D12*
X250398366Y-95389438D03*
D11*
%TO.P,CPG1316,2*%
%TO.N,mirror_ring_top*%
X253267279Y-94512319D03*
D12*
X253267279Y-94512319D03*
D13*
%TO.P,CPG1316,3*%
%TO.N,N/C*%
X243231264Y-88535404D03*
X246739730Y-100011059D03*
X255376342Y-84822285D03*
X258884808Y-96297940D03*
%TD*%
D11*
%TO.P,CPG1316,1*%
%TO.N,P7*%
X112371623Y-127215494D03*
D14*
X112371623Y-127215494D03*
D11*
%TO.P,CPG1316,2*%
%TO.N,middle_bottom*%
X115240537Y-128092604D03*
D14*
X115240537Y-128092604D03*
D15*
%TO.P,CPG1316,3*%
%TO.N,N/C*%
X106754094Y-129001107D03*
X110262560Y-117525452D03*
X118899166Y-132714228D03*
X122407632Y-121238573D03*
%TD*%
D20*
%TO.P,D18,1*%
%TO.N,P21*%
X153908407Y-107132119D03*
%TO.P,D18,2*%
%TO.N,inner_top*%
X157064201Y-108096935D03*
%TD*%
D11*
%TO.P,CPG1316,1*%
%TO.N,P9*%
X202736364Y-173563198D03*
D38*
X202736364Y-173563198D03*
D11*
%TO.P,CPG1316,2*%
%TO.N,mirror_far_thumb*%
X205132274Y-171757756D03*
D38*
X205132274Y-171757756D03*
D39*
%TO.P,CPG1316,3*%
%TO.N,N/C*%
X193657282Y-169573807D03*
X200879065Y-179157425D03*
X203799953Y-161930759D03*
X211021736Y-171514377D03*
%TD*%
D11*
%TO.P,CPG1316,1*%
%TO.N,P5*%
X273479510Y-101352715D03*
D31*
X273479510Y-101352715D03*
D11*
%TO.P,CPG1316,2*%
%TO.N,mirror_pinky_top*%
X276413953Y-100728982D03*
D31*
X276413953Y-100728982D03*
D32*
%TO.P,CPG1316,3*%
%TO.N,N/C*%
X269431996Y-105637880D03*
X266937060Y-93900116D03*
X281854472Y-102997400D03*
X279359536Y-91259636D03*
%TD*%
D40*
%TO.P,D20,1*%
%TO.N,P18*%
X138416795Y-157738878D03*
%TO.P,D20,2*%
%TO.N,home_thumb*%
X141476501Y-158975080D03*
%TD*%
D17*
%TO.P,D24,1*%
%TO.N,P1*%
X288848962Y-92616314D03*
%TO.P,D24,2*%
%TO.N,mirror_outer_top*%
X292076860Y-91930214D03*
%TD*%
D11*
%TO.P,CPG1316,1*%
%TO.N,P4*%
X57749061Y-130451493D03*
D18*
X57749061Y-130451493D03*
D11*
%TO.P,CPG1316,2*%
%TO.N,outer_bottom*%
X60683504Y-131075229D03*
D18*
X60683504Y-131075229D03*
D19*
%TO.P,CPG1316,3*%
%TO.N,N/C*%
X52308538Y-132719914D03*
X54803479Y-120982152D03*
X64731013Y-135360388D03*
X67225954Y-123622626D03*
%TD*%
D35*
%TO.P,MCU1,1*%
%TO.N,P1*%
X186524988Y-107834997D03*
%TO.P,MCU1,2*%
%TO.N,P0*%
X186524984Y-110374992D03*
%TO.P,MCU1,3*%
%TO.N,GND*%
X186524992Y-112915001D03*
%TO.P,MCU1,4*%
X186524998Y-115454996D03*
%TO.P,MCU1,5*%
%TO.N,P2*%
X186524998Y-117995010D03*
%TO.P,MCU1,6*%
%TO.N,P3*%
X186524997Y-120534996D03*
%TO.P,MCU1,7*%
%TO.N,P4*%
X186524988Y-123075006D03*
%TO.P,MCU1,8*%
%TO.N,P5*%
X186524992Y-125615001D03*
%TO.P,MCU1,9*%
%TO.N,P6*%
X186524988Y-128154997D03*
%TO.P,MCU1,10*%
%TO.N,P7*%
X186524991Y-130695006D03*
%TO.P,MCU1,11*%
%TO.N,P8*%
X186524993Y-133234989D03*
%TO.P,MCU1,12*%
%TO.N,P9*%
X186524992Y-135775005D03*
%TO.P,MCU1,13*%
%TO.N,P10*%
X171284991Y-135774998D03*
%TO.P,MCU1,14*%
%TO.N,P16*%
X171284996Y-133234997D03*
%TO.P,MCU1,15*%
%TO.N,P14*%
X171285000Y-130695002D03*
%TO.P,MCU1,16*%
%TO.N,P15*%
X171284992Y-128154993D03*
%TO.P,MCU1,17*%
%TO.N,P18*%
X171284986Y-125614998D03*
%TO.P,MCU1,18*%
%TO.N,P19*%
X171284986Y-123074984D03*
%TO.P,MCU1,19*%
%TO.N,P20*%
X171284987Y-120534998D03*
%TO.P,MCU1,20*%
%TO.N,P21*%
X171284996Y-117994988D03*
%TO.P,MCU1,21*%
%TO.N,VCC*%
X171284992Y-115454993D03*
%TO.P,MCU1,22*%
%TO.N,RST*%
X171284996Y-112914997D03*
%TO.P,MCU1,23*%
%TO.N,GND*%
X171284993Y-110374988D03*
%TO.P,MCU1,24*%
%TO.N,RAW*%
X171284991Y-107835005D03*
%TD*%
D41*
%TO.N,P4*%
X165349998Y-128500009D03*
X149586282Y-118513270D03*
%TO.N,outer_bottom*%
X63116333Y-126122834D03*
%TO.N,outer_home*%
X66650826Y-109494317D03*
%TO.N,outer_top*%
X70185323Y-92865814D03*
%TO.N,P5*%
X166150004Y-128500002D03*
X149820191Y-117748213D03*
%TO.N,pinky_bottom*%
X79744843Y-129657328D03*
%TO.N,pinky_home*%
X83279339Y-113028815D03*
%TO.N,pinky_top*%
X86813843Y-96400307D03*
%TO.N,P6*%
X150054086Y-116983172D03*
X167000003Y-128500004D03*
%TO.N,ring_bottom*%
X100376718Y-123182266D03*
%TO.N,ring_home*%
X105347015Y-106925101D03*
%TO.N,ring_top*%
X110317347Y-90667917D03*
%TO.N,P7*%
X167799997Y-128499998D03*
X150287990Y-116218126D03*
%TO.N,middle_bottom*%
X118095741Y-123371063D03*
%TO.N,middle_home*%
X123066059Y-107113887D03*
%TO.N,middle_top*%
X128036380Y-90856705D03*
%TO.N,P8*%
X168600010Y-128500001D03*
X150584310Y-115419894D03*
%TO.N,index_bottom*%
X132598685Y-134079224D03*
%TO.N,index_home*%
X137569002Y-117822031D03*
%TO.N,index_top*%
X142539325Y-101564850D03*
%TO.N,P9*%
X169449999Y-128499997D03*
%TO.N,inner_bottom*%
X148271135Y-140962131D03*
%TO.N,inner_home*%
X153241453Y-124704966D03*
%TO.N,inner_top*%
X158211771Y-108447787D03*
%TO.N,near_thumb*%
X125794953Y-152912950D03*
%TO.N,home_thumb*%
X142589114Y-159424593D03*
%TO.N,far_thumb*%
X159422015Y-170102955D03*
%TO.N,mirror_outer_bottom*%
X300319627Y-124937732D03*
%TO.N,mirror_outer_home*%
X296785117Y-108309216D03*
%TO.N,mirror_outer_top*%
X293250635Y-91680716D03*
%TO.N,mirror_pinky_bottom*%
X283691102Y-128472234D03*
%TO.N,mirror_pinky_home*%
X280156612Y-111843709D03*
%TO.N,mirror_pinky_top*%
X276622106Y-95215212D03*
%TO.N,mirror_ring_bottom*%
X262934752Y-121515746D03*
%TO.N,mirror_ring_home*%
X257964430Y-105258568D03*
%TO.N,mirror_ring_top*%
X252994113Y-89001385D03*
%TO.N,mirror_middle_bottom*%
X245215699Y-121704545D03*
%TO.N,mirror_middle_home*%
X240245384Y-105447363D03*
%TO.N,mirror_middle_top*%
X235275061Y-89190184D03*
%TO.N,mirror_index_bottom*%
X230712755Y-132412694D03*
%TO.N,mirror_index_home*%
X225742420Y-116155516D03*
%TO.N,mirror_index_top*%
X220772107Y-99898332D03*
%TO.N,mirror_inner_bottom*%
X215040327Y-139295620D03*
%TO.N,mirror_inner_home*%
X210069996Y-123038446D03*
%TO.N,mirror_inner_top*%
X205099682Y-106781262D03*
%TO.N,mirror_near_thumb*%
X237516495Y-151246435D03*
%TO.N,mirror_home_thumb*%
X220556334Y-157289347D03*
%TO.N,mirror_far_thumb*%
X202990728Y-166672614D03*
%TO.N,P19*%
X112644803Y-121704540D03*
X74169405Y-128472222D03*
X127147757Y-132412697D03*
X94925760Y-121515744D03*
X57540886Y-124937735D03*
X142820191Y-139295615D03*
%TO.N,P20*%
X99896081Y-105258579D03*
X77703896Y-111843715D03*
X147790521Y-123038449D03*
X61075403Y-108309221D03*
X117615118Y-105447370D03*
X132118089Y-116155520D03*
%TO.N,P21*%
X137088391Y-99898327D03*
X64609887Y-91680712D03*
X104866405Y-89001387D03*
X152760820Y-106781264D03*
X122585441Y-89190196D03*
X81238400Y-95215200D03*
%TO.N,P18*%
X137304157Y-157289353D03*
X120344024Y-151246410D03*
X154869774Y-166672604D03*
%TO.N,P2*%
X278115670Y-129657333D03*
X257483800Y-123182273D03*
X239764758Y-123371070D03*
X294744184Y-126122828D03*
X209589394Y-140962137D03*
X225261814Y-134079212D03*
%TO.N,P0*%
X220291494Y-117822025D03*
X204619059Y-124704964D03*
X252513481Y-106925089D03*
X274581171Y-113028827D03*
X234794443Y-107113888D03*
X291209684Y-109494309D03*
%TO.N,P1*%
X229824131Y-90856714D03*
X287675177Y-92865809D03*
X271046672Y-96400300D03*
X199648745Y-108447781D03*
X215321184Y-101564861D03*
X247543169Y-90667910D03*
%TO.N,P3*%
X215271400Y-159424607D03*
X198438498Y-170102952D03*
X232065557Y-152912951D03*
%TD*%
D42*
%TO.N,P4*%
X139450669Y-116094199D02*
X139981817Y-117093144D01*
X108852863Y-98687676D02*
X112349166Y-96828674D01*
X165349999Y-129215681D02*
X165349998Y-128500009D01*
X140298560Y-113320912D02*
X139450669Y-116094199D01*
X128712954Y-107948876D02*
X129078115Y-108635642D01*
X123766655Y-98646234D02*
X126024022Y-102891737D01*
X82102931Y-102765834D02*
X82725609Y-102361463D01*
X139800604Y-112384407D02*
X140298560Y-113320912D01*
X83292163Y-99696022D02*
X83321821Y-99676761D01*
X96668206Y-98812314D02*
X100560107Y-99639554D01*
X129604669Y-105032138D02*
X128712954Y-107948876D01*
X117513209Y-98407473D02*
X119511082Y-97345182D01*
X166850014Y-137974994D02*
X166850001Y-130715685D01*
X96618028Y-98796968D02*
X96668206Y-98812314D01*
X82725609Y-102361463D02*
X83292163Y-99696022D01*
X186875009Y-140125006D02*
X189800000Y-137200007D01*
X128940748Y-103783460D02*
X129604669Y-105032138D01*
X169000008Y-140124998D02*
X186875009Y-140125006D01*
X189800000Y-137200007D02*
X189799996Y-126899993D01*
X92609837Y-97945005D02*
X96618028Y-98796968D01*
X100782920Y-99494866D02*
X104692949Y-97415860D01*
X129078115Y-108635642D02*
X135150636Y-110492206D01*
X100560107Y-99639554D02*
X100782920Y-99494866D01*
X126024022Y-102891737D02*
X128940748Y-103783460D01*
X64818045Y-97194480D02*
X66247511Y-99395666D01*
X144646705Y-117055361D02*
X149523860Y-118546463D01*
X139981817Y-117093144D02*
X142898553Y-117984863D01*
X189799996Y-126899993D02*
X186524993Y-123625007D01*
X135150636Y-110492206D02*
X135449415Y-111054108D01*
X149523860Y-118546463D02*
X149586282Y-118513270D01*
X142898553Y-117984863D02*
X144646705Y-117055361D01*
X135449415Y-111054108D02*
X139800604Y-112384407D01*
X89881909Y-99716545D02*
X92609837Y-97945005D01*
X166850014Y-137974994D02*
X169000008Y-140124998D01*
X112349166Y-96828674D02*
X117513209Y-98407473D01*
X84893352Y-98656199D02*
X89881909Y-99716545D01*
X66247511Y-99395666D02*
X82102931Y-102765834D01*
X119511082Y-97345182D02*
X123766655Y-98646234D01*
X166850001Y-130715685D02*
X165349999Y-129215681D01*
X104692949Y-97415860D02*
X108852863Y-98687676D01*
X83321821Y-99676761D02*
X84893352Y-98656199D01*
D43*
%TO.N,outer_bottom*%
X61942559Y-125873331D02*
X63116333Y-126122834D01*
D42*
X60683495Y-131075222D02*
X61764636Y-125988879D01*
%TO.N,outer_home*%
X64217990Y-114446723D02*
X65299128Y-109360378D01*
D43*
X65477043Y-109244832D02*
X66650826Y-109494317D01*
D42*
%TO.N,outer_top*%
X67930425Y-97702670D02*
X69011560Y-92616317D01*
D43*
X69011543Y-92616304D02*
X70185323Y-92865814D01*
D42*
%TO.N,P5*%
X129297387Y-107918416D02*
X129463365Y-108230589D01*
X139924867Y-116082316D02*
X140256834Y-116706656D01*
X118596195Y-95549225D02*
X119226934Y-96735462D01*
X148125328Y-117648323D02*
X148624805Y-117382742D01*
X166150001Y-129225001D02*
X166150004Y-128500002D01*
X129355241Y-103282771D02*
X130218356Y-104906060D01*
X167275006Y-137825002D02*
X167275005Y-130575008D01*
X167275003Y-130350003D02*
X166150001Y-129225001D01*
X140009218Y-111873070D02*
X140772749Y-113309042D01*
X189325005Y-137074993D02*
X186699994Y-139700000D01*
X140772749Y-113309042D02*
X139924867Y-116082316D01*
X100365482Y-99184567D02*
X100606314Y-99028166D01*
X148624805Y-117382742D02*
X149820191Y-117748213D01*
X140256834Y-116706656D02*
X142791042Y-117481438D01*
X89862302Y-99252321D02*
X92530936Y-97519299D01*
X144539180Y-116551933D02*
X148125328Y-117648323D01*
X84742372Y-98164047D02*
X81551271Y-100236373D01*
X189324998Y-128475006D02*
X189325005Y-137074993D01*
X115440396Y-94584393D02*
X118596195Y-95549225D01*
X186525000Y-125674999D02*
X189324998Y-128475006D01*
X124295361Y-98285028D02*
X126486338Y-102405664D01*
X167274998Y-130550000D02*
X167275003Y-130350003D01*
X167274998Y-130550000D02*
X167275003Y-130550000D01*
X130218356Y-104906060D02*
X129297387Y-107918416D01*
X100606314Y-99028166D02*
X104710289Y-96846042D01*
X104710289Y-96846042D02*
X108822415Y-98103237D01*
X108822415Y-98103237D02*
X115440396Y-94584393D01*
X92530936Y-97519299D02*
X100365482Y-99184567D01*
X142791042Y-117481438D02*
X144539180Y-116551933D01*
X119226934Y-96735462D02*
X124295361Y-98285028D01*
X135944927Y-110630483D02*
X140009218Y-111873070D01*
X167275005Y-130575008D02*
X167274998Y-130550000D01*
X135679355Y-110131005D02*
X135944927Y-110630483D01*
X169149993Y-139700003D02*
X167275006Y-137825002D01*
X129463365Y-108230589D02*
X135679355Y-110131005D01*
X84742372Y-98164047D02*
X89862302Y-99252321D01*
X186699994Y-139700000D02*
X169149993Y-139700003D01*
X126486338Y-102405664D02*
X129355241Y-103282771D01*
%TO.N,pinky_bottom*%
X77312012Y-134609732D02*
X78393145Y-129523381D01*
D43*
X78571077Y-129407836D02*
X79744843Y-129657328D01*
D42*
%TO.N,pinky_home*%
X81024422Y-117865684D02*
X82105566Y-112779330D01*
D43*
X82105556Y-112779328D02*
X83279339Y-113028815D01*
%TO.N,pinky_top*%
X85640059Y-96150814D02*
X86813843Y-96400307D01*
D42*
%TO.N,P6*%
X115127007Y-94070308D02*
X119095672Y-95283638D01*
X134490610Y-106638695D02*
X131158548Y-105619979D01*
X104358385Y-95280472D02*
X104952125Y-96397131D01*
X148858703Y-116617720D02*
X147984629Y-117082470D01*
X167050004Y-128599995D02*
X166999998Y-128550002D01*
X119660018Y-96345029D02*
X124537168Y-97836123D01*
X188900007Y-130530005D02*
X188900006Y-136850011D01*
X167874997Y-130274998D02*
X167000001Y-129400004D01*
X140379860Y-111515805D02*
X136444007Y-110312505D01*
X141276176Y-113201522D02*
X140379860Y-111515805D01*
X129692686Y-102863108D02*
X131158548Y-105619979D01*
X119095672Y-95283638D02*
X119660018Y-96345029D01*
X126728157Y-101956750D02*
X129692686Y-102863108D01*
X143284415Y-113815502D02*
X141276176Y-113201522D01*
X167000001Y-129400004D02*
X167000007Y-128649995D01*
X108633889Y-97522755D02*
X115127007Y-94070308D01*
X167875001Y-137724996D02*
X167874997Y-130274998D01*
X169350006Y-139200002D02*
X167875001Y-137724996D01*
X147984629Y-117082470D02*
X144446297Y-116000685D01*
X144446297Y-116000685D02*
X143284415Y-113815502D01*
X188900006Y-136850011D02*
X186549997Y-139199992D01*
X150054086Y-116983172D02*
X148858703Y-116617720D01*
X186524995Y-128155006D02*
X188900007Y-130530005D01*
X104952125Y-96397131D02*
X108633889Y-97522755D01*
X136444007Y-110312505D02*
X134490610Y-106638695D01*
X186549997Y-139199992D02*
X169350006Y-139200002D01*
X124537168Y-97836123D02*
X126728157Y-101956750D01*
D43*
%TO.N,ring_bottom*%
X99229147Y-122831428D02*
X100376718Y-123182266D01*
D42*
X97521506Y-127903808D02*
X99041845Y-122931001D01*
D43*
%TO.N,ring_home*%
X104199464Y-106574250D02*
X105347015Y-106925101D01*
D42*
X102491826Y-111646618D02*
X104012160Y-106673826D01*
%TO.N,ring_top*%
X107462144Y-95389444D02*
X108982485Y-90416646D01*
D43*
X109169760Y-90317071D02*
X110317347Y-90667917D01*
D42*
%TO.N,P7*%
X134727608Y-106232401D02*
X131619626Y-105282183D01*
X127194411Y-101628744D02*
X124937051Y-97383240D01*
X186350005Y-138800000D02*
X169700004Y-138800002D01*
X169700004Y-138800002D02*
X168374997Y-137474990D01*
X188400006Y-132569995D02*
X188400011Y-136750002D01*
X136686209Y-109915984D02*
X134727608Y-106232401D01*
X141517983Y-112752611D02*
X140654883Y-111129328D01*
X168375005Y-129975004D02*
X167849995Y-129450000D01*
X130158975Y-102535097D02*
X127194411Y-101628744D01*
X188400011Y-136750002D02*
X186350005Y-138800000D01*
X148901335Y-115794193D02*
X147652669Y-116458128D01*
X131619626Y-105282183D02*
X130158975Y-102535097D01*
X147652669Y-116458128D02*
X144735930Y-115566391D01*
X143574043Y-113381210D02*
X141517983Y-112752611D01*
X144735930Y-115566391D02*
X143574043Y-113381210D01*
X168374997Y-137474990D02*
X168375005Y-129975004D01*
X150335794Y-116232742D02*
X148901335Y-115794193D01*
X122092042Y-96513436D02*
X121880074Y-96114775D01*
X186524994Y-130694997D02*
X188400006Y-132569995D01*
X140654883Y-111129328D02*
X136686209Y-109915984D01*
X121880074Y-96114775D02*
X122312272Y-94701114D01*
X167849995Y-129450000D02*
X167850004Y-128549992D01*
X167850004Y-128549992D02*
X167799997Y-128499998D01*
X124937051Y-97383240D02*
X122092042Y-96513436D01*
D43*
%TO.N,middle_bottom*%
X116948188Y-123020227D02*
X118095741Y-123371063D01*
D42*
X115427847Y-127993003D02*
X116948179Y-123020218D01*
%TO.N,middle_home*%
X120398161Y-111735825D02*
X121918487Y-106763042D01*
D43*
X121918493Y-106763051D02*
X123066059Y-107113887D01*
%TO.N,middle_top*%
X126888816Y-90505865D02*
X128036380Y-90856705D01*
D42*
X125368474Y-95478645D02*
X126888802Y-90505857D01*
%TO.N,P8*%
X141025514Y-110772086D02*
X141921823Y-112457799D01*
X136083346Y-107803141D02*
X137009049Y-109544119D01*
X145044135Y-115242341D02*
X147387087Y-115958653D01*
X168600010Y-128500001D02*
X168599997Y-129499995D01*
X188000009Y-136450001D02*
X188000006Y-134709992D01*
X143882252Y-113057159D02*
X145044135Y-115242341D01*
X188000006Y-134709992D02*
X186525000Y-133234998D01*
X186050000Y-138399998D02*
X188000009Y-136450001D01*
X150201785Y-115302941D02*
X150393051Y-115361416D01*
X168900008Y-137299994D02*
X170000008Y-138400003D01*
X137009049Y-109544119D02*
X141025514Y-110772086D01*
X168599997Y-129499995D02*
X168900001Y-129800001D01*
X149197668Y-114995949D02*
X150345219Y-115346792D01*
X170000008Y-138400003D02*
X186050000Y-138399998D01*
X136815224Y-105409280D02*
X136083346Y-107803141D01*
X149197668Y-114995949D02*
X150201785Y-115302941D01*
X141921823Y-112457799D02*
X143882252Y-113057159D01*
X150345219Y-115346792D02*
X150584310Y-115419894D01*
X147387087Y-115958653D02*
X149197668Y-114995949D01*
X168900008Y-137299994D02*
X168900001Y-129800001D01*
X150201785Y-115302941D02*
X150345219Y-115346792D01*
%TO.N,index_bottom*%
X129743483Y-138800732D02*
X131263814Y-133827957D01*
D43*
X131451129Y-133728375D02*
X132598685Y-134079224D01*
D42*
%TO.N,index_home*%
X134713816Y-122543563D02*
X136234151Y-117570790D01*
D43*
X136421441Y-117471191D02*
X137569002Y-117822031D01*
D42*
%TO.N,index_top*%
X139684145Y-106286398D02*
X141204476Y-101313589D01*
D43*
X141391763Y-101214013D02*
X142539325Y-101564850D01*
D42*
%TO.N,P9*%
X186525004Y-137224996D02*
X186525007Y-135774997D01*
X185800002Y-137950002D02*
X186525004Y-137224996D01*
X169450001Y-137149996D02*
X170249993Y-137950004D01*
X170249993Y-137950004D02*
X185800002Y-137950002D01*
X169449999Y-128499997D02*
X169450001Y-137149996D01*
%TO.N,inner_bottom*%
X145415934Y-145683670D02*
X146936262Y-140710895D01*
D43*
X147123570Y-140611299D02*
X148271135Y-140962131D01*
%TO.N,inner_home*%
X152093878Y-124354126D02*
X153241453Y-124704966D01*
D42*
X150386254Y-129426497D02*
X151906580Y-124453705D01*
%TO.N,inner_top*%
X155356574Y-113169313D02*
X156876896Y-108196524D01*
D43*
X157064197Y-108096935D02*
X158211771Y-108447787D01*
%TO.N,near_thumb*%
X124647393Y-152562093D02*
X125794953Y-152912950D01*
D42*
X123127054Y-157534874D02*
X124647386Y-152562097D01*
%TO.N,home_thumb*%
X139333288Y-163879313D02*
X141281239Y-159057956D01*
D43*
X141476502Y-158975074D02*
X142589114Y-159424593D01*
%TO.N,far_thumb*%
X158463653Y-169380772D02*
X159422015Y-170102955D01*
D42*
X155124143Y-173563194D02*
X158253581Y-169410283D01*
D43*
%TO.N,mirror_outer_bottom*%
X299145847Y-125187214D02*
X300319627Y-124937732D01*
D42*
X300111448Y-130451491D02*
X299030312Y-125365155D01*
%TO.N,mirror_outer_home*%
X296692490Y-113645061D02*
X295611357Y-108558715D01*
D43*
X295611345Y-108558717D02*
X296785117Y-108309216D01*
%TO.N,mirror_outer_top*%
X292076835Y-91930204D02*
X293250635Y-91680716D01*
D42*
X293042456Y-97194485D02*
X291961311Y-92108128D01*
D43*
%TO.N,mirror_pinky_bottom*%
X282517336Y-128721716D02*
X283691102Y-128472234D01*
D42*
X283482936Y-133985985D02*
X282401806Y-128899645D01*
D43*
%TO.N,mirror_pinky_home*%
X278982833Y-112093219D02*
X280156612Y-111843709D01*
D42*
X279948445Y-117357497D02*
X278867315Y-112271128D01*
%TO.N,mirror_pinky_top*%
X276413948Y-100728986D02*
X275332807Y-95642620D01*
D43*
X275448338Y-95464702D02*
X276622106Y-95215212D01*
%TO.N,mirror_ring_bottom*%
X261787187Y-121866597D02*
X262934752Y-121515746D01*
D42*
X263307515Y-126839387D02*
X261787179Y-121866600D01*
D43*
%TO.N,mirror_ring_home*%
X256816862Y-105609415D02*
X257964430Y-105258568D01*
D42*
X258337197Y-110582197D02*
X256816872Y-105609404D01*
%TO.N,mirror_ring_top*%
X253366868Y-94325013D02*
X251846551Y-89352238D01*
D43*
X251846548Y-89352239D02*
X252994113Y-89001385D01*
D42*
%TO.N,mirror_middle_bottom*%
X245588472Y-127028167D02*
X244068145Y-122055391D01*
D43*
X244068131Y-122055393D02*
X245215699Y-121704545D01*
%TO.N,mirror_middle_home*%
X239097823Y-105798211D02*
X240245384Y-105447363D01*
D42*
X240518564Y-110958295D02*
X238998242Y-105985523D01*
D43*
%TO.N,mirror_middle_top*%
X234127502Y-89541034D02*
X235275061Y-89190184D01*
D42*
X235548245Y-94701126D02*
X234027914Y-89728350D01*
%TO.N,mirror_index_bottom*%
X230985941Y-137923627D02*
X229465607Y-132950838D01*
D43*
X229565192Y-132763543D02*
X230712755Y-132412694D01*
%TO.N,mirror_index_home*%
X224594863Y-116506366D02*
X225742420Y-116155516D01*
D42*
X226015611Y-121666455D02*
X224495276Y-116693669D01*
%TO.N,mirror_index_top*%
X221045291Y-105409269D02*
X219524955Y-100436484D01*
D43*
X219624558Y-100249177D02*
X220772107Y-99898332D01*
D42*
%TO.N,mirror_inner_bottom*%
X215313488Y-144806570D02*
X213793160Y-139833765D01*
D43*
X213892757Y-139646465D02*
X215040327Y-139295620D01*
%TO.N,mirror_inner_home*%
X208922432Y-123389283D02*
X210069996Y-123038446D01*
D42*
X210343168Y-128549376D02*
X208822845Y-123576593D01*
%TO.N,mirror_inner_top*%
X205472447Y-112104926D02*
X203952108Y-107132105D01*
D43*
X203952122Y-107132107D02*
X205099682Y-106781262D01*
%TO.N,mirror_near_thumb*%
X236368929Y-151597278D02*
X237516495Y-151246435D01*
D42*
X237789663Y-156757345D02*
X236269333Y-151784557D01*
%TO.N,mirror_home_thumb*%
X221308786Y-162755491D02*
X219360830Y-157934137D01*
D43*
X219443715Y-157738867D02*
X220556334Y-157289347D01*
D42*
%TO.N,mirror_far_thumb*%
X205132272Y-171757758D02*
X202002837Y-167604868D01*
D43*
X202032364Y-167394786D02*
X202990728Y-166672614D01*
D42*
%TO.N,P19*%
X109143612Y-124500584D02*
X113760605Y-122045678D01*
X96073337Y-121866604D02*
X97699718Y-121001838D01*
X97699718Y-121001838D02*
X109143612Y-124500584D01*
X123104257Y-131176469D02*
X128295326Y-132763541D01*
D43*
X128295324Y-132763549D02*
X127147757Y-132412697D01*
D42*
X94925760Y-121515744D02*
X91977274Y-120614314D01*
X76848419Y-127744199D02*
X75343169Y-128721739D01*
X60219904Y-124209699D02*
X74365671Y-127216479D01*
X87469013Y-128357061D02*
X85143995Y-129593288D01*
X169259997Y-121050004D02*
X171285000Y-123075001D01*
X91977274Y-120614314D02*
X90419532Y-121442571D01*
X113816700Y-121975817D02*
X115151882Y-121265895D01*
D43*
X58714671Y-125187225D02*
X57540886Y-124937735D01*
D42*
X85143995Y-129593288D02*
X84223065Y-129311737D01*
D43*
X75343179Y-128721725D02*
X74169405Y-128472222D01*
X96073330Y-121866604D02*
X94925760Y-121515744D01*
X113792370Y-122055389D02*
X112644803Y-121704540D01*
D42*
X139302666Y-138220204D02*
X143967762Y-139646470D01*
X128295326Y-132763541D02*
X130046564Y-131832392D01*
X130046564Y-131832392D02*
X137043658Y-133971599D01*
X118355495Y-122245329D02*
X123104257Y-131176469D01*
X145677528Y-138737378D02*
X143967778Y-139646469D01*
X74365671Y-127216479D02*
X75343183Y-128721725D01*
X84223065Y-129311737D02*
X76848419Y-127744199D01*
X87944105Y-126803057D02*
X87469013Y-128357061D01*
X151584920Y-119415155D02*
X152677513Y-118834218D01*
X137043658Y-133971599D02*
X139302666Y-138220204D01*
X159924989Y-121050007D02*
X169259997Y-121050004D01*
X58714671Y-125187225D02*
X60219904Y-124209699D01*
X115151882Y-121265895D02*
X118355495Y-122245329D01*
D43*
X143967755Y-139646473D02*
X142820191Y-139295615D01*
D42*
X145677528Y-138737378D02*
X151584920Y-119415155D01*
X152677513Y-118834218D02*
X159924989Y-121050007D01*
X90419532Y-121442571D02*
X88943066Y-126271908D01*
X88943066Y-126271908D02*
X87944105Y-126803057D01*
D43*
%TO.N,P20*%
X133265644Y-116506356D02*
X132686372Y-116329269D01*
X148938086Y-123389289D02*
X147790521Y-123038449D01*
D42*
X128098486Y-114926606D02*
X123316518Y-105933032D01*
X94086671Y-110302996D02*
X95694710Y-105043318D01*
D43*
X132686372Y-116329269D02*
X132118089Y-116155520D01*
D42*
X132686372Y-116329269D02*
X128098486Y-114926606D01*
X114208121Y-108219919D02*
X118762714Y-105798217D01*
D43*
X101043662Y-105609427D02*
X99896081Y-105258579D01*
X118762710Y-105798214D02*
X117615118Y-105447370D01*
D42*
X149974119Y-122838425D02*
X148938082Y-123389308D01*
X123316518Y-105933032D02*
X120280266Y-105004756D01*
X151096053Y-119168759D02*
X152675061Y-118329183D01*
X95694710Y-105043318D02*
X96971502Y-104364427D01*
X77726848Y-110321112D02*
X78877686Y-112093207D01*
X62249158Y-108558707D02*
X64021278Y-107407888D01*
X78877664Y-112093219D02*
X80412572Y-111096435D01*
X171284997Y-120534996D02*
X159889997Y-120534996D01*
D43*
X78877686Y-112093207D02*
X77703896Y-111843715D01*
X62249158Y-108558707D02*
X61075403Y-108309221D01*
D42*
X151096053Y-119168759D02*
X149974119Y-122838425D01*
X134876419Y-115649899D02*
X137833121Y-116553846D01*
X88818370Y-113104192D02*
X94086671Y-110302996D01*
X86445880Y-112378862D02*
X88818370Y-113104192D01*
X133265648Y-116506356D02*
X134876419Y-115649899D01*
X64021278Y-107407888D02*
X77726848Y-110321112D01*
X101043661Y-105609431D02*
X102732470Y-104711472D01*
X140015784Y-120658863D02*
X148936425Y-123386181D01*
X137833121Y-116553846D02*
X140015784Y-120658863D01*
X80412572Y-111096435D02*
X86445880Y-112378862D01*
X159889997Y-120534996D02*
X152675061Y-118329183D01*
X120280266Y-105004756D02*
X118778741Y-105803126D01*
X96971502Y-104364427D02*
X99896081Y-105258579D01*
X102732470Y-104711472D02*
X114208121Y-108219919D01*
%TO.N,P21*%
X81242101Y-93662941D02*
X82412172Y-95464699D01*
D43*
X153908389Y-107132112D02*
X152760820Y-106781264D01*
D42*
X100348275Y-98695309D02*
X100437020Y-98637670D01*
X67585428Y-90760117D02*
X81242101Y-93662941D01*
X104858557Y-88998991D02*
X104866405Y-89001387D01*
X123733020Y-89541028D02*
X125140871Y-88792461D01*
X101326993Y-98164473D02*
X102101768Y-95630255D01*
D43*
X82412158Y-95464694D02*
X81238400Y-95215200D01*
D42*
X147037427Y-101368934D02*
X149362849Y-105742391D01*
X159875006Y-120025003D02*
X162650007Y-120024986D01*
X123557803Y-89487463D02*
X119221760Y-91792988D01*
X65783655Y-91930202D02*
X67585428Y-90760117D01*
X85539888Y-97899076D02*
X85559148Y-97928729D01*
X82412160Y-95464702D02*
X83745343Y-97517632D01*
X152499358Y-117364776D02*
X152781530Y-117895469D01*
X106013981Y-89352236D02*
X107921301Y-88338105D01*
X85559148Y-97928729D02*
X89765191Y-98822754D01*
X149362849Y-105742391D02*
X153908396Y-107132116D01*
X83745343Y-97517632D02*
X85539888Y-97899076D01*
D43*
X123733013Y-89541039D02*
X122585441Y-89190196D01*
D42*
X101703420Y-94881050D02*
X103238382Y-89860446D01*
X103238382Y-89860446D02*
X104858557Y-88998991D01*
X140112092Y-99251634D02*
X147037427Y-101368934D01*
X100437020Y-98637670D02*
X101326993Y-98164473D01*
D43*
X65783655Y-91930202D02*
X64609887Y-91680712D01*
D42*
X107921301Y-88338105D02*
X119221760Y-91792988D01*
X154991826Y-109212277D02*
X152499358Y-117364776D01*
X102101768Y-95630255D02*
X101703420Y-94881050D01*
X153900150Y-107159132D02*
X154991826Y-109212277D01*
X162650007Y-120024986D02*
X169254989Y-120025002D01*
X128312734Y-89762190D02*
X133044904Y-98662119D01*
D43*
X138235955Y-100249171D02*
X137088391Y-99898327D01*
D42*
X138235959Y-100249184D02*
X140112092Y-99251634D01*
X159828254Y-120049866D02*
X159875006Y-120025003D01*
X89765191Y-98822754D02*
X92522778Y-97031945D01*
X133044904Y-98662119D02*
X138235959Y-100249184D01*
D43*
X106013982Y-89352242D02*
X104866405Y-89001387D01*
D42*
X152781530Y-117895469D02*
X159828254Y-120049866D01*
X169254989Y-120025002D02*
X171285010Y-117994997D01*
X125140871Y-88792461D02*
X128312734Y-89762190D01*
X92522778Y-97031945D02*
X100348275Y-98695309D01*
%TO.N,P18*%
X148863891Y-129768871D02*
X151917980Y-119779422D01*
X121491580Y-151597265D02*
X120458671Y-149654663D01*
D43*
X155828141Y-167394784D02*
X154869774Y-166672604D01*
D42*
X169849994Y-124179985D02*
X171285002Y-125614993D01*
X124074925Y-139365608D02*
X130529982Y-141339114D01*
X138416790Y-157738872D02*
X140208181Y-156978475D01*
X140208181Y-156978475D02*
X147913970Y-160091810D01*
X130529982Y-141339114D02*
X131653779Y-140741585D01*
D43*
X138416789Y-157738867D02*
X137304157Y-157289353D01*
D42*
X123513017Y-139664385D02*
X124074925Y-139365608D01*
X121491586Y-151597272D02*
X123274041Y-150649505D01*
X137304157Y-157289353D02*
X133267860Y-155658573D01*
X123274041Y-150649505D02*
X132314912Y-153413580D01*
X169849998Y-122375001D02*
X169849994Y-124179985D01*
X148863891Y-129768871D02*
X145501610Y-140766378D01*
X133844452Y-138535677D02*
X143909552Y-141612893D01*
X155781920Y-167359944D02*
X155571409Y-165862103D01*
X133267860Y-155658573D02*
X132314912Y-153413580D01*
X159925008Y-121599995D02*
X169074999Y-121600004D01*
X131653779Y-140741585D02*
X132033877Y-139498382D01*
X155571409Y-165862103D02*
X147913970Y-160091810D01*
X152667179Y-119381064D02*
X159925008Y-121599995D01*
X120458671Y-149654663D02*
X123513017Y-139664385D01*
X169074999Y-121600004D02*
X169849998Y-122375001D01*
X143909552Y-141612893D02*
X145501610Y-140766378D01*
X151917980Y-119779422D02*
X152667179Y-119381064D01*
X132033877Y-139498382D02*
X133844452Y-138535677D01*
D43*
X121491584Y-151597269D02*
X120344024Y-151246410D01*
D42*
%TO.N,P2*%
X225948461Y-134595241D02*
X226409368Y-133728369D01*
X245097702Y-120610473D02*
X252690617Y-124647698D01*
X227525299Y-131629631D02*
X226409368Y-133728369D01*
X195112990Y-110774991D02*
X198340510Y-109788242D01*
X270646243Y-124824954D02*
X262217669Y-120343414D01*
X199339443Y-110319381D02*
X198340510Y-109788242D01*
X186525013Y-117994993D02*
X187504998Y-117995010D01*
X259514923Y-121169737D02*
X258631369Y-122831427D01*
X188175000Y-117325005D02*
X188174995Y-111375001D01*
X241629882Y-121670693D02*
X245097702Y-120610473D01*
D43*
X279289451Y-129407837D02*
X278115670Y-129657333D01*
D42*
X208364924Y-139840351D02*
X210151500Y-140790296D01*
D43*
X226409376Y-133728368D02*
X225261814Y-134079212D01*
D42*
X210151500Y-140790296D02*
X210736945Y-140611307D01*
X188174995Y-111375001D02*
X188199992Y-111349999D01*
X252690617Y-124647698D02*
X258631369Y-122831427D01*
X203774671Y-124826367D02*
X208364924Y-139840351D01*
X279289461Y-129407835D02*
X274683903Y-130815890D01*
X279289460Y-129407830D02*
X280365867Y-127750303D01*
X188774996Y-110775004D02*
X195112990Y-110774991D01*
X272049633Y-129415206D02*
X270646243Y-124824954D01*
X280365867Y-127750303D02*
X294260440Y-124796920D01*
D43*
X240912341Y-123020224D02*
X239764758Y-123371070D01*
D42*
X238044659Y-128413547D02*
X227525299Y-131629631D01*
X240912330Y-123020214D02*
X241629882Y-121670693D01*
X238044659Y-128413547D02*
X240912330Y-123020214D01*
D43*
X295917951Y-125873322D02*
X294744184Y-126122828D01*
D42*
X294260440Y-124796920D02*
X295917967Y-125873331D01*
X188199992Y-111349999D02*
X188774996Y-110775004D01*
X274683903Y-130815890D02*
X272049633Y-129415206D01*
D43*
X210736946Y-140611300D02*
X209589394Y-140962137D01*
D42*
X210736946Y-140611303D02*
X211603896Y-138980807D01*
X262217669Y-120343414D02*
X259514923Y-121169737D01*
X203774671Y-124826367D02*
X199339443Y-110319381D01*
X187504998Y-117995010D02*
X188175000Y-117325005D01*
X211603896Y-138980807D02*
X225948461Y-134595241D01*
D43*
X258631382Y-122831433D02*
X257483800Y-123182273D01*
D42*
%TO.N,P0*%
X186525002Y-110374998D02*
X194964553Y-110374999D01*
X270128364Y-113297678D02*
X274319792Y-112016228D01*
X220978130Y-118338050D02*
X221439055Y-117471191D01*
D43*
X275754950Y-112779317D02*
X274581171Y-113028827D01*
D42*
X276792857Y-111181101D02*
X290785246Y-108206924D01*
D43*
X292383461Y-109244840D02*
X291209684Y-109494309D01*
D42*
X233124126Y-112062716D02*
X235942016Y-106763047D01*
X235942016Y-106763047D02*
X236659574Y-105413503D01*
X199709805Y-109991615D02*
X203777516Y-123296494D01*
X222604771Y-115278805D02*
X233124126Y-112062716D01*
D43*
X205766628Y-124354115D02*
X204619059Y-124704964D01*
X235942022Y-106763038D02*
X234794443Y-107113888D01*
D42*
X203777516Y-123296494D02*
X205766624Y-124354124D01*
X206633568Y-122723621D02*
X220978130Y-118338050D01*
X260669633Y-108268390D02*
X270128364Y-113297678D01*
X274319792Y-112016228D02*
X275754961Y-112779324D01*
X221439055Y-117471191D02*
X222604771Y-115278805D01*
X258197712Y-104030949D02*
X259602486Y-104777878D01*
X290785246Y-108206924D02*
X292383461Y-109244834D01*
X259602486Y-104777878D02*
X260669633Y-108268390D01*
X275754961Y-112779324D02*
X276792857Y-111181101D01*
D43*
X253661059Y-106574238D02*
X252513481Y-106925089D01*
X221439055Y-117471189D02*
X220291494Y-117822025D01*
D42*
X239744856Y-104470240D02*
X247337768Y-108507457D01*
X247337768Y-108507457D02*
X253661057Y-106574248D01*
X236659574Y-105413503D02*
X239744856Y-104470240D01*
X198435231Y-109313912D02*
X199709805Y-109991615D01*
X253661057Y-106574248D02*
X254395212Y-105193500D01*
X194964553Y-110374999D02*
X198435231Y-109313912D01*
X254395212Y-105193500D02*
X258197712Y-104030949D01*
X205766620Y-124354118D02*
X206633568Y-122723621D01*
%TO.N,P1*%
X287221093Y-91559156D02*
X288848975Y-92616312D01*
X272241573Y-96146329D02*
X273298714Y-94518454D01*
X231689261Y-89156321D02*
X230971690Y-90505871D01*
D43*
X248690735Y-90317060D02*
X247543169Y-90667910D01*
D42*
X249590869Y-88624140D02*
X252700061Y-87673579D01*
D43*
X216468741Y-101214008D02*
X215321184Y-101564861D01*
X230971703Y-90505859D02*
X229824131Y-90856714D01*
D42*
X267295589Y-97656490D02*
X272220457Y-96150800D01*
D43*
X272220453Y-96150804D02*
X271046672Y-96400300D01*
D42*
X226757269Y-96624622D02*
X229824131Y-90856714D01*
D43*
X200796327Y-108096948D02*
X199648745Y-108447781D01*
D42*
X200796303Y-108096933D02*
X201679849Y-106435230D01*
X186524985Y-107834997D02*
X188615003Y-109924996D01*
D43*
X288848968Y-92616308D02*
X287675177Y-92865809D01*
D42*
X216024421Y-102049663D02*
X216468732Y-101214013D01*
X194983828Y-109925005D02*
X200763924Y-108157851D01*
X201679849Y-106435230D02*
X216024421Y-102049663D01*
X242606527Y-92177201D02*
X235013597Y-88139964D01*
X248690732Y-90317057D02*
X249590869Y-88624140D01*
X188615003Y-109924996D02*
X194983828Y-109925005D01*
X248690732Y-90317057D02*
X242606527Y-92177201D01*
X235013597Y-88139964D02*
X231689261Y-89156321D01*
X217385468Y-99489863D02*
X226757269Y-96624622D01*
X216468732Y-101214013D02*
X217385468Y-99489863D01*
X252700061Y-87673579D02*
X254323352Y-88536680D01*
X273298714Y-94518454D02*
X287221093Y-91559156D01*
X254323352Y-88536680D02*
X255134685Y-91190432D01*
X255134685Y-91190432D02*
X267295589Y-97656490D01*
%TO.N,P3*%
X205770236Y-168320690D02*
X206295411Y-168394497D01*
X187999997Y-118249996D02*
X188700004Y-117550002D01*
X189150004Y-111224998D02*
X195024996Y-111225003D01*
X221034722Y-144855187D02*
X211639031Y-147727734D01*
X186525005Y-120534995D02*
X187290015Y-120534997D01*
X187999999Y-119824988D02*
X187999997Y-118249996D01*
X199430366Y-169355526D02*
X199685943Y-167537004D01*
X233213115Y-152562091D02*
X232050893Y-151944127D01*
X202141745Y-165686421D02*
X203979840Y-165944752D01*
X217129840Y-161954638D02*
X212795256Y-163705927D01*
X199685943Y-167537004D02*
X202141745Y-165686421D01*
X211591218Y-147742357D02*
X210124021Y-146962234D01*
X233213125Y-152562093D02*
X234528222Y-150088744D01*
X199030028Y-110675418D02*
X198218386Y-110243865D01*
X195024996Y-111225003D02*
X195028065Y-111219238D01*
X195028065Y-111219238D02*
X198218386Y-110243865D01*
X235236002Y-141454541D02*
X231521189Y-139479344D01*
X188699995Y-111675000D02*
X189150004Y-111224998D01*
X188700004Y-117550002D02*
X188699995Y-111675000D01*
X187290015Y-120534997D02*
X187999999Y-119824988D01*
D43*
X199396859Y-169380773D02*
X198438498Y-170102952D01*
D42*
X231521189Y-139479344D02*
X222412385Y-142264172D01*
X211639031Y-147727734D02*
X211591218Y-147742357D01*
X217364492Y-161401830D02*
X217129840Y-161954638D01*
X203979840Y-165944752D02*
X205770236Y-168320690D01*
X224314042Y-154309511D02*
X217132862Y-157210895D01*
X217132862Y-157210895D02*
X216384016Y-158975073D01*
X238621415Y-147739356D02*
X236823330Y-141858080D01*
X237924295Y-149050468D02*
X238621415Y-147739356D01*
X216384020Y-158975071D02*
X217364492Y-161401830D01*
X234528222Y-150088744D02*
X237924295Y-149050468D01*
X236823330Y-141858080D02*
X235761973Y-141293742D01*
X203326373Y-124728153D02*
X210124021Y-146962234D01*
X232050893Y-151944127D02*
X224314042Y-154309511D01*
X206529628Y-168427412D02*
X206295411Y-168394497D01*
X235761973Y-141293742D02*
X235236002Y-141454541D01*
X203326373Y-124728153D02*
X199030028Y-110675418D01*
X222412385Y-142264172D02*
X221034722Y-144855187D01*
D43*
X216384009Y-158975076D02*
X215271400Y-159424607D01*
D42*
X212795256Y-163705927D02*
X206529628Y-168427412D01*
D43*
X233213125Y-152562098D02*
X232065557Y-152912951D01*
D42*
%TO.N,RAW*%
X137755354Y-92680348D02*
X138296448Y-91674219D01*
X164881187Y-105218819D02*
X164349994Y-104622816D01*
X171285005Y-107834994D02*
X169359997Y-107835006D01*
X138506359Y-94813236D02*
X137779249Y-93445749D01*
X137779249Y-93445749D02*
X137755354Y-92680348D01*
X164881171Y-106131185D02*
X164881187Y-105218819D01*
X149336522Y-98124327D02*
X138530273Y-94820532D01*
X169075000Y-107549997D02*
X165800005Y-107550005D01*
X164349994Y-104622816D02*
X150548186Y-100403171D01*
X165800005Y-107550005D02*
X165475006Y-107225001D01*
X165475008Y-106725006D02*
X164881171Y-106131185D01*
X150548186Y-100403171D02*
X149336522Y-98124327D01*
X169359997Y-107835006D02*
X169075000Y-107549997D01*
X165475006Y-107225001D02*
X165475008Y-106725006D01*
X138530273Y-94820532D02*
X138506359Y-94813236D01*
%TO.N,GND*%
X167075001Y-108850000D02*
X169760010Y-108850005D01*
X169760010Y-108850005D02*
X171284992Y-110374985D01*
%TO.N,RST*%
X168850004Y-115349997D02*
X171284995Y-112914993D01*
X167075000Y-115349994D02*
X168850004Y-115349997D01*
%TO.N,BAT_P*%
X163875000Y-104922003D02*
X164346124Y-105374995D01*
X165850008Y-117250000D02*
X165850003Y-110349996D01*
X164346124Y-105374995D02*
X164346132Y-106196120D01*
X136540505Y-92584493D02*
X137872740Y-95090079D01*
X136502864Y-91852867D02*
X136997404Y-90924214D01*
X136502864Y-91852867D02*
X136540505Y-92584493D01*
X165049992Y-109549993D02*
X165850003Y-110349996D01*
X166974993Y-118374999D02*
X165850008Y-117250000D01*
X137872740Y-95090079D02*
X149013686Y-98496203D01*
X165050004Y-106899990D02*
X165049992Y-109549993D01*
X164346132Y-106196120D02*
X165050004Y-106899990D01*
X150208769Y-100743818D02*
X163875000Y-104922003D01*
X149013686Y-98496203D02*
X150208769Y-100743818D01*
%TD*%
M02*
