%TF.GenerationSoftware,KiCad,Pcbnew,8.0.6*%
%TF.CreationDate,2025-07-21T18:30:39+02:00*%
%TF.ProjectId,main,6d61696e-2e6b-4696-9361-645f70636258,v1.0.0*%
%TF.SameCoordinates,Original*%
%TF.FileFunction,Profile,NP*%
%FSLAX46Y46*%
G04 Gerber Fmt 4.6, Leading zero omitted, Abs format (unit mm)*
G04 Created by KiCad (PCBNEW 8.0.6) date 2025-07-21 18:30:39*
%MOMM*%
%LPD*%
G01*
G04 APERTURE LIST*
%TA.AperFunction,Profile*%
%ADD10C,0.150000*%
%TD*%
%TA.AperFunction,Profile*%
%ADD11C,0.050000*%
%TD*%
%TA.AperFunction,Profile*%
%ADD12C,0.100000*%
%TD*%
G04 APERTURE END LIST*
D10*
X117447981Y-80593788D02*
G75*
G02*
X118011425Y-80681085I-21280J-1999315D01*
G01*
X82024373Y-142281783D02*
X49989175Y-135785766D01*
X58614095Y-85499037D02*
G75*
G02*
X60986231Y-83958547I1956405J-415964D01*
G01*
D11*
X172675000Y-104000003D02*
X172550004Y-104000001D01*
D10*
X200604836Y-183746561D02*
G75*
G02*
X199401211Y-184149295I-1203835J1597860D01*
G01*
X100296642Y-80411040D02*
X117447981Y-80593788D01*
X82651411Y-142308455D02*
G75*
G02*
X82024373Y-142281781I-229610J1985855D01*
G01*
X220797893Y-86561183D02*
G75*
G02*
X221220393Y-86376425I1007608J-1728716D01*
G01*
X309434082Y-133428265D02*
G75*
G02*
X307893588Y-135800350I-1956384J-415734D01*
G01*
X126038092Y-165901566D02*
G75*
G02*
X126169486Y-165948112I-601091J-1905533D01*
G01*
X141564210Y-172013236D02*
G75*
G02*
X142034731Y-172276771I-732409J-1859464D01*
G01*
X60986226Y-83958572D02*
X75183133Y-86976209D01*
X275827788Y-142286273D02*
G75*
G02*
X275218090Y-142309513I-380188J1964870D01*
G01*
X293239208Y-138915274D02*
G75*
G02*
X293203512Y-138922523I-414309J1948573D01*
G01*
D11*
X185100005Y-137100000D02*
X185124995Y-104050006D01*
D10*
X136640119Y-86376417D02*
G75*
G02*
X137062618Y-86561195I-584018J-1910784D01*
G01*
X76127098Y-86948916D02*
X99747191Y-80481926D01*
X158459307Y-184149293D02*
G75*
G02*
X157255691Y-183746529I93J2000094D01*
G01*
X307893595Y-135800385D02*
X293239208Y-138915274D01*
X141564210Y-172013236D02*
X126169486Y-165948111D01*
X76127098Y-86948916D02*
G75*
G02*
X75183136Y-86976193I-528097J1928315D01*
G01*
X98085184Y-140525087D02*
X82651411Y-142308455D01*
X126038092Y-165901566D02*
X110736830Y-161074411D01*
X191289902Y-103763208D02*
G75*
G02*
X190282638Y-104035376I-1007102J1727206D01*
G01*
X258113318Y-80481919D02*
X281733412Y-86948912D01*
X240412518Y-80593797D02*
X257563882Y-80411053D01*
X257765614Y-141600202D02*
X248302110Y-160078736D01*
X49989175Y-135785766D02*
G75*
G02*
X48430364Y-133409849I397426J1960064D01*
G01*
X282677365Y-86976209D02*
G75*
G02*
X281733409Y-86948922I-415865J1954808D01*
G01*
X110736830Y-161074411D02*
G75*
G02*
X109558407Y-160078750I601672J1907311D01*
G01*
X248302110Y-160078736D02*
G75*
G02*
X247123688Y-161074422I-1780209J911736D01*
G01*
X215825776Y-172276765D02*
X200604836Y-183746561D01*
D11*
X167577879Y-104035355D02*
X172550004Y-104000001D01*
D10*
X48430356Y-133409847D02*
X58614095Y-85499037D01*
X247123688Y-161074421D02*
X231822417Y-165901574D01*
X167577879Y-104035355D02*
G75*
G02*
X166570626Y-103763209I23J2000157D01*
G01*
X299246411Y-85499037D02*
X309434082Y-133428265D01*
X118011429Y-80681071D02*
X136640119Y-86376417D01*
D11*
X172700002Y-137150004D02*
X172675000Y-104000003D01*
X172700002Y-137150004D02*
X185100005Y-137100000D01*
D10*
X109558403Y-160078752D02*
X100094892Y-141600199D01*
X231691032Y-165948118D02*
G75*
G02*
X231822416Y-165901572I730472J-1853181D01*
G01*
X282677365Y-86976209D02*
X296874293Y-83958565D01*
D11*
X185124995Y-104050006D02*
X190282638Y-104035373D01*
D10*
X231691032Y-165948118D02*
X216296307Y-172013226D01*
X215825776Y-172276765D02*
G75*
G02*
X216296303Y-172013216I1202923J-1595836D01*
G01*
X221220394Y-86376427D02*
X239849073Y-80681075D01*
X137062619Y-86561193D02*
X166570625Y-103763210D01*
X293203512Y-138922523D02*
X275827788Y-142286273D01*
X275218091Y-142309504D02*
X259775336Y-140525076D01*
X157255667Y-183746561D02*
X142034731Y-172276771D01*
X98085184Y-140525087D02*
G75*
G02*
X100094895Y-141600198I229617J-1986713D01*
G01*
X191289902Y-103763208D02*
X220797893Y-86561183D01*
X296874293Y-83958565D02*
G75*
G02*
X299246424Y-85499034I415808J-1956335D01*
G01*
X257765614Y-141600202D02*
G75*
G02*
X259775334Y-140525094I1779983J-911399D01*
G01*
X257563882Y-80411053D02*
G75*
G02*
X258113315Y-80481930I21218J-2000550D01*
G01*
X99747191Y-80481926D02*
G75*
G02*
X100296642Y-80411031I528205J-1929074D01*
G01*
X239849073Y-80681075D02*
G75*
G02*
X240412518Y-80593796I584629J-1911826D01*
G01*
X199401211Y-184149293D02*
X158459307Y-184149293D01*
D12*
%TO.C,CPG1316*%
X251785811Y-112999442D02*
G75*
G02*
X250785819Y-112999442I-499996J0D01*
G01*
X250785819Y-112999442D02*
G75*
G02*
X251785811Y-112999442I499996J0D01*
G01*
X261370904Y-104348250D02*
G75*
G02*
X260170894Y-104348250I-600005J0D01*
G01*
X260170894Y-104348250D02*
G75*
G02*
X261370904Y-104348250I600005J0D01*
G01*
X113700601Y-109796725D02*
G75*
G02*
X112700609Y-109796725I-499996J0D01*
G01*
X112700609Y-109796725D02*
G75*
G02*
X113700601Y-109796725I499996J0D01*
G01*
X126501775Y-107928561D02*
G75*
G02*
X125301779Y-107928561I-599998J0D01*
G01*
X125301779Y-107928561D02*
G75*
G02*
X126501775Y-107928561I599998J0D01*
G01*
X118670921Y-93539547D02*
G75*
G02*
X117670929Y-93539547I-499996J0D01*
G01*
X117670929Y-93539547D02*
G75*
G02*
X118670921Y-93539547I499996J0D01*
G01*
X131472095Y-91671383D02*
G75*
G02*
X130272099Y-91671383I-599998J0D01*
G01*
X130272099Y-91671383D02*
G75*
G02*
X131472095Y-91671383I599998J0D01*
G01*
X123233221Y-136762048D02*
G75*
G02*
X122233229Y-136762048I-499996J0D01*
G01*
X122233229Y-136762048D02*
G75*
G02*
X123233221Y-136762048I499996J0D01*
G01*
X136034395Y-134893884D02*
G75*
G02*
X134834399Y-134893884I-599998J0D01*
G01*
X134834399Y-134893884D02*
G75*
G02*
X136034395Y-134893884I599998J0D01*
G01*
X229096452Y-96931066D02*
G75*
G02*
X228096460Y-96931066I-499996J0D01*
G01*
X228096460Y-96931066D02*
G75*
G02*
X229096452Y-96931066I499996J0D01*
G01*
X238681545Y-88279874D02*
G75*
G02*
X237481535Y-88279874I-600005J0D01*
G01*
X237481535Y-88279874D02*
G75*
G02*
X238681545Y-88279874I600005J0D01*
G01*
X70650741Y-133189792D02*
G75*
G02*
X69650737Y-133189792I-500002J0D01*
G01*
X69650737Y-133189792D02*
G75*
G02*
X70650741Y-133189792I500002J0D01*
G01*
X83240764Y-130221752D02*
G75*
G02*
X82040766Y-130221752I-599999J0D01*
G01*
X82040766Y-130221752D02*
G75*
G02*
X83240764Y-130221752I599999J0D01*
G01*
X100951886Y-93350765D02*
G75*
G02*
X99951894Y-93350765I-499996J0D01*
G01*
X99951894Y-93350765D02*
G75*
G02*
X100951886Y-93350765I499996J0D01*
G01*
X113753060Y-91482601D02*
G75*
G02*
X112553064Y-91482601I-599998J0D01*
G01*
X112553064Y-91482601D02*
G75*
G02*
X113753060Y-91482601I599998J0D01*
G01*
X224534149Y-140153580D02*
G75*
G02*
X223534157Y-140153580I-499996J0D01*
G01*
X223534157Y-140153580D02*
G75*
G02*
X224534149Y-140153580I499996J0D01*
G01*
X234119242Y-131502388D02*
G75*
G02*
X232919232Y-131502388I-600005J0D01*
G01*
X232919232Y-131502388D02*
G75*
G02*
X234119242Y-131502388I600005J0D01*
G01*
X215077801Y-165582831D02*
G75*
G02*
X214077787Y-165582831I-500007J0D01*
G01*
X214077787Y-165582831D02*
G75*
G02*
X215077801Y-165582831I500007J0D01*
G01*
X223872794Y-156137891D02*
G75*
G02*
X222672810Y-156137891I-599992J0D01*
G01*
X222672810Y-156137891D02*
G75*
G02*
X223872794Y-156137891I599992J0D01*
G01*
X148846308Y-111130629D02*
G75*
G02*
X147846316Y-111130629I-499996J0D01*
G01*
X147846316Y-111130629D02*
G75*
G02*
X148846308Y-111130629I499996J0D01*
G01*
X161647482Y-109262465D02*
G75*
G02*
X160447486Y-109262465I-599998J0D01*
G01*
X160447486Y-109262465D02*
G75*
G02*
X161647482Y-109262465I599998J0D01*
G01*
X74185259Y-116561287D02*
G75*
G02*
X73185255Y-116561287I-500002J0D01*
G01*
X73185255Y-116561287D02*
G75*
G02*
X74185259Y-116561287I500002J0D01*
G01*
X86775282Y-113593247D02*
G75*
G02*
X85575284Y-113593247I-599999J0D01*
G01*
X85575284Y-113593247D02*
G75*
G02*
X86775282Y-113593247I599999J0D01*
G01*
X219563830Y-123896398D02*
G75*
G02*
X218563838Y-123896398I-499996J0D01*
G01*
X218563838Y-123896398D02*
G75*
G02*
X219563830Y-123896398I499996J0D01*
G01*
X229148923Y-115245206D02*
G75*
G02*
X227948913Y-115245206I-600005J0D01*
G01*
X227948913Y-115245206D02*
G75*
G02*
X229148923Y-115245206I600005J0D01*
G01*
X149733922Y-169249804D02*
G75*
G02*
X148733934Y-169249804I-499994J0D01*
G01*
X148733934Y-169249804D02*
G75*
G02*
X149733922Y-169249804I499994J0D01*
G01*
X162408080Y-171838360D02*
G75*
G02*
X161208068Y-171838360I-600006J0D01*
G01*
X161208068Y-171838360D02*
G75*
G02*
X162408080Y-171838360I600006J0D01*
G01*
X57556722Y-113026782D02*
G75*
G02*
X56556718Y-113026782I-500002J0D01*
G01*
X56556718Y-113026782D02*
G75*
G02*
X57556722Y-113026782I500002J0D01*
G01*
X70146745Y-110058742D02*
G75*
G02*
X68946747Y-110058742I-599999J0D01*
G01*
X68946747Y-110058742D02*
G75*
G02*
X70146745Y-110058742I599999J0D01*
G01*
X95981565Y-109607931D02*
G75*
G02*
X94981573Y-109607931I-499996J0D01*
G01*
X94981573Y-109607931D02*
G75*
G02*
X95981565Y-109607931I499996J0D01*
G01*
X108782739Y-107739767D02*
G75*
G02*
X107582743Y-107739767I-599998J0D01*
G01*
X107582743Y-107739767D02*
G75*
G02*
X108782739Y-107739767I599998J0D01*
G01*
X198921081Y-114522145D02*
G75*
G02*
X197921089Y-114522145I-499996J0D01*
G01*
X197921089Y-114522145D02*
G75*
G02*
X198921081Y-114522145I499996J0D01*
G01*
X208506174Y-105870953D02*
G75*
G02*
X207306164Y-105870953I-600005J0D01*
G01*
X207306164Y-105870953D02*
G75*
G02*
X208506174Y-105870953I600005J0D01*
G01*
X239037096Y-129445422D02*
G75*
G02*
X238037104Y-129445422I-499996J0D01*
G01*
X238037104Y-129445422D02*
G75*
G02*
X239037096Y-129445422I499996J0D01*
G01*
X248622189Y-120794230D02*
G75*
G02*
X247422179Y-120794230I-600005J0D01*
G01*
X247422179Y-120794230D02*
G75*
G02*
X248622189Y-120794230I600005J0D01*
G01*
X208861706Y-147036516D02*
G75*
G02*
X207861714Y-147036516I-499996J0D01*
G01*
X207861714Y-147036516D02*
G75*
G02*
X208861706Y-147036516I499996J0D01*
G01*
X218446799Y-138385324D02*
G75*
G02*
X217246789Y-138385324I-600005J0D01*
G01*
X217246789Y-138385324D02*
G75*
G02*
X218446799Y-138385324I600005J0D01*
G01*
X234066775Y-113188245D02*
G75*
G02*
X233066783Y-113188245I-499996J0D01*
G01*
X233066783Y-113188245D02*
G75*
G02*
X234066775Y-113188245I499996J0D01*
G01*
X243651868Y-104537053D02*
G75*
G02*
X242451858Y-104537053I-600005J0D01*
G01*
X242451858Y-104537053D02*
G75*
G02*
X243651868Y-104537053I600005J0D01*
G01*
X286422765Y-98810059D02*
G75*
G02*
X285422771Y-98810059I-499997J0D01*
G01*
X285422771Y-98810059D02*
G75*
G02*
X286422765Y-98810059I499997J0D01*
G01*
X296725767Y-91018471D02*
G75*
G02*
X295525769Y-91018471I-599999J0D01*
G01*
X295525769Y-91018471D02*
G75*
G02*
X296725767Y-91018471I599999J0D01*
G01*
X276863238Y-135601561D02*
G75*
G02*
X275863244Y-135601561I-499997J0D01*
G01*
X275863244Y-135601561D02*
G75*
G02*
X276863238Y-135601561I499997J0D01*
G01*
X287166240Y-127809973D02*
G75*
G02*
X285966242Y-127809973I-599999J0D01*
G01*
X285966242Y-127809973D02*
G75*
G02*
X287166240Y-127809973I599999J0D01*
G01*
X116429492Y-155595772D02*
G75*
G02*
X115429500Y-155595772I-499996J0D01*
G01*
X115429500Y-155595772D02*
G75*
G02*
X116429492Y-155595772I499996J0D01*
G01*
X129230666Y-153727608D02*
G75*
G02*
X128030670Y-153727608I-599998J0D01*
G01*
X128030670Y-153727608D02*
G75*
G02*
X129230666Y-153727608I599998J0D01*
G01*
X214593509Y-107639213D02*
G75*
G02*
X213593517Y-107639213I-499996J0D01*
G01*
X213593517Y-107639213D02*
G75*
G02*
X214593509Y-107639213I499996J0D01*
G01*
X224178602Y-98988021D02*
G75*
G02*
X222978592Y-98988021I-600005J0D01*
G01*
X222978592Y-98988021D02*
G75*
G02*
X224178602Y-98988021I600005J0D01*
G01*
X289957248Y-115438557D02*
G75*
G02*
X288957254Y-115438557I-499997J0D01*
G01*
X288957254Y-115438557D02*
G75*
G02*
X289957248Y-115438557I499997J0D01*
G01*
X300260250Y-107646969D02*
G75*
G02*
X299060252Y-107646969I-599999J0D01*
G01*
X299060252Y-107646969D02*
G75*
G02*
X300260250Y-107646969I599999J0D01*
G01*
X138905665Y-143644993D02*
G75*
G02*
X137905673Y-143644993I-499996J0D01*
G01*
X137905673Y-143644993D02*
G75*
G02*
X138905665Y-143644993I499996J0D01*
G01*
X151706839Y-141776829D02*
G75*
G02*
X150506843Y-141776829I-599998J0D01*
G01*
X150506843Y-141776829D02*
G75*
G02*
X151706839Y-141776829I599998J0D01*
G01*
X128203556Y-120504890D02*
G75*
G02*
X127203564Y-120504890I-499996J0D01*
G01*
X127203564Y-120504890D02*
G75*
G02*
X128203556Y-120504890I499996J0D01*
G01*
X141004730Y-118636726D02*
G75*
G02*
X139804734Y-118636726I-599998J0D01*
G01*
X139804734Y-118636726D02*
G75*
G02*
X141004730Y-118636726I599998J0D01*
G01*
X91011243Y-125865133D02*
G75*
G02*
X90011251Y-125865133I-499996J0D01*
G01*
X90011251Y-125865133D02*
G75*
G02*
X91011243Y-125865133I499996J0D01*
G01*
X103812417Y-123996969D02*
G75*
G02*
X102612421Y-123996969I-599998J0D01*
G01*
X102612421Y-123996969D02*
G75*
G02*
X103812417Y-123996969I599998J0D01*
G01*
X231337879Y-158987286D02*
G75*
G02*
X230337887Y-158987286I-499996J0D01*
G01*
X230337887Y-158987286D02*
G75*
G02*
X231337879Y-158987286I499996J0D01*
G01*
X240922972Y-150336094D02*
G75*
G02*
X239722962Y-150336094I-600005J0D01*
G01*
X239722962Y-150336094D02*
G75*
G02*
X240922972Y-150336094I600005J0D01*
G01*
X273328755Y-118973064D02*
G75*
G02*
X272328761Y-118973064I-499997J0D01*
G01*
X272328761Y-118973064D02*
G75*
G02*
X273328755Y-118973064I499997J0D01*
G01*
X283631757Y-111181476D02*
G75*
G02*
X282431759Y-111181476I-599999J0D01*
G01*
X282431759Y-111181476D02*
G75*
G02*
X283631757Y-111181476I599999J0D01*
G01*
X61091227Y-96398281D02*
G75*
G02*
X60091223Y-96398281I-500002J0D01*
G01*
X60091223Y-96398281D02*
G75*
G02*
X61091227Y-96398281I500002J0D01*
G01*
X73681250Y-93430241D02*
G75*
G02*
X72481252Y-93430241I-599999J0D01*
G01*
X72481252Y-93430241D02*
G75*
G02*
X73681250Y-93430241I599999J0D01*
G01*
X77719744Y-99932767D02*
G75*
G02*
X76719740Y-99932767I-500002J0D01*
G01*
X76719740Y-99932767D02*
G75*
G02*
X77719744Y-99932767I500002J0D01*
G01*
X90309767Y-96964727D02*
G75*
G02*
X89109769Y-96964727I-599999J0D01*
G01*
X89109769Y-96964727D02*
G75*
G02*
X90309767Y-96964727I599999J0D01*
G01*
X133027383Y-161237405D02*
G75*
G02*
X132027377Y-161237405I-500003J0D01*
G01*
X132027377Y-161237405D02*
G75*
G02*
X133027383Y-161237405I500003J0D01*
G01*
X145943053Y-160483333D02*
G75*
G02*
X144743055Y-160483333I-599999J0D01*
G01*
X144743055Y-160483333D02*
G75*
G02*
X145943053Y-160483333I599999J0D01*
G01*
X203891385Y-130779317D02*
G75*
G02*
X202891393Y-130779317I-499996J0D01*
G01*
X202891393Y-130779317D02*
G75*
G02*
X203891385Y-130779317I499996J0D01*
G01*
X213476478Y-122128125D02*
G75*
G02*
X212276468Y-122128125I-600005J0D01*
G01*
X212276468Y-122128125D02*
G75*
G02*
X213476478Y-122128125I600005J0D01*
G01*
X256756122Y-129256645D02*
G75*
G02*
X255756130Y-129256645I-499996J0D01*
G01*
X255756130Y-129256645D02*
G75*
G02*
X256756122Y-129256645I499996J0D01*
G01*
X266341215Y-120605453D02*
G75*
G02*
X265141205Y-120605453I-600005J0D01*
G01*
X265141205Y-120605453D02*
G75*
G02*
X266341215Y-120605453I600005J0D01*
G01*
X143875991Y-127387811D02*
G75*
G02*
X142875999Y-127387811I-499996J0D01*
G01*
X142875999Y-127387811D02*
G75*
G02*
X143875991Y-127387811I499996J0D01*
G01*
X156677165Y-125519647D02*
G75*
G02*
X155477169Y-125519647I-599998J0D01*
G01*
X155477169Y-125519647D02*
G75*
G02*
X156677165Y-125519647I599998J0D01*
G01*
X293491755Y-132067060D02*
G75*
G02*
X292491761Y-132067060I-499997J0D01*
G01*
X292491761Y-132067060D02*
G75*
G02*
X293491755Y-132067060I499997J0D01*
G01*
X303794757Y-124275472D02*
G75*
G02*
X302594759Y-124275472I-599999J0D01*
G01*
X302594759Y-124275472D02*
G75*
G02*
X303794757Y-124275472I599999J0D01*
G01*
X133173876Y-104247714D02*
G75*
G02*
X132173884Y-104247714I-499996J0D01*
G01*
X132173884Y-104247714D02*
G75*
G02*
X133173876Y-104247714I499996J0D01*
G01*
X145975050Y-102379550D02*
G75*
G02*
X144775054Y-102379550I-599998J0D01*
G01*
X144775054Y-102379550D02*
G75*
G02*
X145975050Y-102379550I599998J0D01*
G01*
X246815490Y-96742268D02*
G75*
G02*
X245815498Y-96742268I-499996J0D01*
G01*
X245815498Y-96742268D02*
G75*
G02*
X246815490Y-96742268I499996J0D01*
G01*
X256400583Y-88091076D02*
G75*
G02*
X255200573Y-88091076I-600005J0D01*
G01*
X255200573Y-88091076D02*
G75*
G02*
X256400583Y-88091076I600005J0D01*
G01*
X108730273Y-126053923D02*
G75*
G02*
X107730281Y-126053923I-499996J0D01*
G01*
X107730281Y-126053923D02*
G75*
G02*
X108730273Y-126053923I499996J0D01*
G01*
X121531447Y-124185759D02*
G75*
G02*
X120331451Y-124185759I-599998J0D01*
G01*
X120331451Y-124185759D02*
G75*
G02*
X121531447Y-124185759I599998J0D01*
G01*
X199862411Y-176230863D02*
G75*
G02*
X198862421Y-176230863I-499995J0D01*
G01*
X198862421Y-176230863D02*
G75*
G02*
X199862411Y-176230863I499995J0D01*
G01*
X205916608Y-164857319D02*
G75*
G02*
X204716592Y-164857319I-600008J0D01*
G01*
X204716592Y-164857319D02*
G75*
G02*
X205916608Y-164857319I600008J0D01*
G01*
X269794262Y-102344552D02*
G75*
G02*
X268794268Y-102344552I-499997J0D01*
G01*
X268794268Y-102344552D02*
G75*
G02*
X269794262Y-102344552I499997J0D01*
G01*
X280097264Y-94552964D02*
G75*
G02*
X278897266Y-94552964I-599999J0D01*
G01*
X278897266Y-94552964D02*
G75*
G02*
X280097264Y-94552964I599999J0D01*
G01*
X54022235Y-129655291D02*
G75*
G02*
X53022231Y-129655291I-500002J0D01*
G01*
X53022231Y-129655291D02*
G75*
G02*
X54022235Y-129655291I500002J0D01*
G01*
X66612258Y-126687251D02*
G75*
G02*
X65412260Y-126687251I-599999J0D01*
G01*
X65412260Y-126687251D02*
G75*
G02*
X66612258Y-126687251I599999J0D01*
G01*
%TD*%
M02*
