%TF.GenerationSoftware,KiCad,Pcbnew,8.0.6*%
%TF.CreationDate,2025-05-26T13:53:34+02:00*%
%TF.ProjectId,main-rounded,6d61696e-2d72-46f7-956e-6465642e6b69,v1.0.0*%
%TF.SameCoordinates,Original*%
%TF.FileFunction,Legend,Top*%
%TF.FilePolarity,Positive*%
%FSLAX46Y46*%
G04 Gerber Fmt 4.6, Leading zero omitted, Abs format (unit mm)*
G04 Created by KiCad (PCBNEW 8.0.6) date 2025-05-26 13:53:34*
%MOMM*%
%LPD*%
G01*
G04 APERTURE LIST*
%ADD10C,0.100000*%
%ADD11C,0.000000*%
%ADD12C,0.127000*%
%ADD13C,0.200000*%
%ADD14C,0.120000*%
G04 APERTURE END LIST*
D10*
%TO.C,D14*%
X139905235Y-125177872D02*
X140287757Y-125294821D01*
X140287757Y-125294821D02*
X140126953Y-125820789D01*
X140287757Y-125294821D02*
X140448562Y-124768853D01*
X140287757Y-125294821D02*
X140978489Y-125087722D01*
X140744592Y-125852766D02*
X140287757Y-125294821D01*
X140861540Y-125470244D02*
X141339693Y-125616430D01*
X140978489Y-125087722D02*
X140744592Y-125852766D01*
%TO.C,D18*%
X162752973Y-115432059D02*
X163135495Y-115549008D01*
X163135495Y-115549008D02*
X162974691Y-116074976D01*
X163135495Y-115549008D02*
X163296300Y-115023040D01*
X163135495Y-115549008D02*
X163826227Y-115341909D01*
X163592330Y-116106953D02*
X163135495Y-115549008D01*
X163709278Y-115724431D02*
X164187431Y-115870617D01*
X163826227Y-115341909D02*
X163592330Y-116106953D01*
%TO.C,D32*%
X255264792Y-114323540D02*
X255647314Y-114206591D01*
X255647314Y-114206591D02*
X255486510Y-113680623D01*
X255647314Y-114206591D02*
X255808119Y-114732559D01*
X255647314Y-114206591D02*
X256104149Y-113648646D01*
X256104149Y-113648646D02*
X256338046Y-114413690D01*
X256221097Y-114031168D02*
X256699250Y-113884982D01*
X256338046Y-114413690D02*
X255647314Y-114206591D01*
%TO.C,D31*%
X260527483Y-131537025D02*
X260910005Y-131420076D01*
X260910005Y-131420076D02*
X260749201Y-130894108D01*
X260910005Y-131420076D02*
X261070810Y-131946044D01*
X260910005Y-131420076D02*
X261366840Y-130862131D01*
X261366840Y-130862131D02*
X261600737Y-131627175D01*
X261483788Y-131244653D02*
X261961941Y-131098467D01*
X261600737Y-131627175D02*
X260910005Y-131420076D01*
%TO.C,D11*%
X123489675Y-113884982D02*
X123872197Y-114001931D01*
X123872197Y-114001931D02*
X123711393Y-114527899D01*
X123872197Y-114001931D02*
X124033002Y-113475963D01*
X123872197Y-114001931D02*
X124562929Y-113794832D01*
X124329032Y-114559876D02*
X123872197Y-114001931D01*
X124445980Y-114177354D02*
X124924133Y-114323540D01*
X124562929Y-113794832D02*
X124329032Y-114559876D01*
%TO.C,D34*%
X244111923Y-142829916D02*
X244494445Y-142712967D01*
X244494445Y-142712967D02*
X244333641Y-142186999D01*
X244494445Y-142712967D02*
X244655250Y-143238935D01*
X244494445Y-142712967D02*
X244951280Y-142155022D01*
X244951280Y-142155022D02*
X245185177Y-142920066D01*
X245068228Y-142537544D02*
X245546381Y-142391358D01*
X245185177Y-142920066D02*
X244494445Y-142712967D01*
%TO.C,D6*%
X84063704Y-101643089D02*
X84454963Y-101726254D01*
X84454963Y-101726254D02*
X84340612Y-102264235D01*
X84454963Y-101726254D02*
X84569315Y-101188273D01*
X84454963Y-101726254D02*
X85125017Y-101459742D01*
X84958687Y-102242260D02*
X84454963Y-101726254D01*
X85041852Y-101851001D02*
X85530926Y-101954957D01*
X85125017Y-101459742D02*
X84958687Y-102242260D01*
%TO.C,D35*%
X238849232Y-125616430D02*
X239231754Y-125499481D01*
X239231754Y-125499481D02*
X239070950Y-124973513D01*
X239231754Y-125499481D02*
X239392559Y-126025449D01*
X239231754Y-125499481D02*
X239688589Y-124941536D01*
X239688589Y-124941536D02*
X239922486Y-125706580D01*
X239805537Y-125324058D02*
X240283690Y-125177872D01*
X239922486Y-125706580D02*
X239231754Y-125499481D01*
%TO.C,D7*%
X98595336Y-130324928D02*
X98977858Y-130441877D01*
X98977858Y-130441877D02*
X98817054Y-130967845D01*
X98977858Y-130441877D02*
X99138663Y-129915909D01*
X98977858Y-130441877D02*
X99668590Y-130234778D01*
X99434693Y-130999822D02*
X98977858Y-130441877D01*
X99551641Y-130617300D02*
X100029794Y-130763486D01*
X99668590Y-130234778D02*
X99434693Y-130999822D01*
%TO.C,D27*%
X294658000Y-101954957D02*
X295049259Y-101871792D01*
X295049259Y-101871792D02*
X294934908Y-101333811D01*
X295049259Y-101871792D02*
X295163611Y-102409773D01*
X295049259Y-101871792D02*
X295552983Y-101355786D01*
X295552983Y-101355786D02*
X295719313Y-102138304D01*
X295636148Y-101747045D02*
X296125222Y-101643089D01*
X295719313Y-102138304D02*
X295049259Y-101871792D01*
%TO.C,D5*%
X80321293Y-119249746D02*
X80712552Y-119332911D01*
X80712552Y-119332911D02*
X80598201Y-119870892D01*
X80712552Y-119332911D02*
X80826904Y-118794930D01*
X80712552Y-119332911D02*
X81382606Y-119066399D01*
X81216276Y-119848917D02*
X80712552Y-119332911D01*
X81299441Y-119457658D02*
X81788515Y-119561614D01*
X81382606Y-119066399D02*
X81216276Y-119848917D01*
%TO.C,D33*%
X250002101Y-97110054D02*
X250384623Y-96993105D01*
X250384623Y-96993105D02*
X250223819Y-96467137D01*
X250384623Y-96993105D02*
X250545428Y-97519073D01*
X250384623Y-96993105D02*
X250841458Y-96435160D01*
X250841458Y-96435160D02*
X251075355Y-97200204D01*
X250958406Y-96817682D02*
X251436559Y-96671496D01*
X251075355Y-97200204D02*
X250384623Y-96993105D01*
%TO.C,D3*%
X65478899Y-97692767D02*
X65870158Y-97775932D01*
X65870158Y-97775932D02*
X65755807Y-98313913D01*
X65870158Y-97775932D02*
X65984510Y-97237951D01*
X65870158Y-97775932D02*
X66540212Y-97509420D01*
X66373882Y-98291938D02*
X65870158Y-97775932D01*
X66457047Y-97900679D02*
X66946121Y-98004635D01*
X66540212Y-97509420D02*
X66373882Y-98291938D01*
%TO.C,D22*%
X320727625Y-133217948D02*
X321118884Y-133134783D01*
X321118884Y-133134783D02*
X321004533Y-132596802D01*
X321118884Y-133134783D02*
X321233236Y-133672764D01*
X321118884Y-133134783D02*
X321622608Y-132618777D01*
X321622608Y-132618777D02*
X321788938Y-133401295D01*
X321705773Y-133010036D02*
X322194847Y-132906080D01*
X321788938Y-133401295D02*
X321118884Y-133134783D01*
D11*
%TO.C,G\u002A\u002A\u002A*%
G36*
X188025687Y-159539033D02*
G01*
X188135895Y-159622248D01*
X188193222Y-159795171D01*
X188220509Y-160086897D01*
X188234540Y-160390580D01*
X188256333Y-160892160D01*
X188764333Y-160898580D01*
X189272333Y-160905000D01*
X189296884Y-161601037D01*
X189306639Y-161960765D01*
X189284128Y-162186021D01*
X189198082Y-162311093D01*
X189017230Y-162370268D01*
X188710302Y-162397835D01*
X188562141Y-162406672D01*
X188190616Y-162429000D01*
X188181141Y-163021667D01*
X188171667Y-163614333D01*
X187554348Y-163639279D01*
X186937029Y-163664226D01*
X186961681Y-162961946D01*
X186986333Y-162259667D01*
X187515500Y-162234460D01*
X188044667Y-162209253D01*
X188044667Y-161620626D01*
X188044667Y-161032000D01*
X187491037Y-161032000D01*
X186937407Y-161032000D01*
X186961870Y-160291167D01*
X186986333Y-159550333D01*
X187555264Y-159525357D01*
X187839756Y-159516433D01*
X188025687Y-159539033D01*
G37*
G36*
X193352714Y-159522183D02*
G01*
X193552990Y-159584589D01*
X193662426Y-159725004D01*
X193703925Y-159973212D01*
X193700393Y-160358999D01*
X193700034Y-160368002D01*
X193675000Y-160989667D01*
X193128499Y-161032000D01*
X192581999Y-161074333D01*
X192576348Y-161642406D01*
X192570698Y-162210478D01*
X193122849Y-162235072D01*
X193675000Y-162259667D01*
X193675000Y-162937000D01*
X193675000Y-163614333D01*
X193061167Y-163639209D01*
X192447333Y-163664085D01*
X192447333Y-163029416D01*
X192447333Y-162394747D01*
X191918167Y-162369540D01*
X191389000Y-162344333D01*
X191364449Y-161648296D01*
X191354616Y-161306132D01*
X191361064Y-161096389D01*
X191393207Y-160982294D01*
X191460455Y-160927076D01*
X191556513Y-160897891D01*
X191814530Y-160871724D01*
X191999031Y-160886708D01*
X192223660Y-160910196D01*
X192358632Y-160856190D01*
X192425729Y-160696681D01*
X192446732Y-160403659D01*
X192447333Y-160310199D01*
X192453397Y-159937979D01*
X192487161Y-159703348D01*
X192571987Y-159574615D01*
X192731235Y-159520093D01*
X192988264Y-159508092D01*
X193038691Y-159508000D01*
X193352714Y-159522183D01*
G37*
G36*
X182047984Y-147633243D02*
G01*
X182327643Y-147644478D01*
X182541189Y-147669865D01*
X182619484Y-147692973D01*
X182658606Y-147803368D01*
X182687226Y-148074220D01*
X182704771Y-148496943D01*
X182710667Y-149056663D01*
X182710667Y-150364000D01*
X183261000Y-150364000D01*
X183811333Y-150364000D01*
X183811333Y-151629960D01*
X183811333Y-152895920D01*
X184340500Y-152921126D01*
X184869667Y-152946333D01*
X184892035Y-155588958D01*
X184914403Y-158231583D01*
X185378868Y-158226035D01*
X185664310Y-158205859D01*
X185826931Y-158157689D01*
X185853072Y-158123410D01*
X185855566Y-157992033D01*
X185852225Y-157748501D01*
X185845362Y-157497167D01*
X185845937Y-157184888D01*
X185876584Y-157014008D01*
X185941457Y-156958551D01*
X186088703Y-156950782D01*
X186334767Y-156941702D01*
X186478333Y-156937385D01*
X186901667Y-156925667D01*
X186944000Y-156290667D01*
X186986333Y-155655667D01*
X187494333Y-155613333D01*
X188002333Y-155571000D01*
X188044667Y-154258667D01*
X188087000Y-152946333D01*
X188679667Y-152946333D01*
X189272333Y-152946333D01*
X189295663Y-154282501D01*
X189318993Y-155618670D01*
X190311663Y-155594835D01*
X191304333Y-155571000D01*
X191346667Y-154258667D01*
X191389000Y-152946333D01*
X191931624Y-152920777D01*
X192282430Y-152919868D01*
X192485124Y-152959250D01*
X192544160Y-153005444D01*
X192568895Y-153125604D01*
X192589966Y-153382170D01*
X192605662Y-153742225D01*
X192614270Y-154172854D01*
X192615370Y-154374984D01*
X192616667Y-155634302D01*
X193083661Y-155595575D01*
X193391115Y-155585607D01*
X193582343Y-155636488D01*
X193681233Y-155776470D01*
X193711673Y-156033803D01*
X193703550Y-156328675D01*
X193694278Y-156651462D01*
X193730151Y-156841864D01*
X193844678Y-156934807D01*
X194071366Y-156965217D01*
X194316925Y-156968000D01*
X194733333Y-156968000D01*
X194733333Y-157603508D01*
X194733333Y-158239016D01*
X195220167Y-158217341D01*
X195707000Y-158195667D01*
X195749333Y-155571000D01*
X195791667Y-152946333D01*
X196320833Y-152921126D01*
X196850000Y-152895920D01*
X196850000Y-151629960D01*
X196853760Y-151109789D01*
X196866050Y-150740563D01*
X196888384Y-150504039D01*
X196922276Y-150381975D01*
X196955833Y-150354596D01*
X197098125Y-150346864D01*
X197340693Y-150337797D01*
X197485000Y-150333430D01*
X197908333Y-150321667D01*
X197931650Y-148988166D01*
X197945340Y-148492278D01*
X197966515Y-148091126D01*
X197993444Y-147806653D01*
X198024396Y-147660805D01*
X198037483Y-147646200D01*
X198164938Y-147641276D01*
X198396992Y-147638223D01*
X198543333Y-147637733D01*
X198804999Y-147639323D01*
X198997099Y-147643368D01*
X199049183Y-147646200D01*
X199081258Y-147730608D01*
X199109999Y-147962397D01*
X199133678Y-148319623D01*
X199150562Y-148780341D01*
X199155017Y-148988166D01*
X199178333Y-150321667D01*
X199603856Y-150326108D01*
X199924087Y-150340795D01*
X200115504Y-150399208D01*
X200207916Y-150535233D01*
X200231130Y-150782757D01*
X200222723Y-151029628D01*
X200194333Y-151591667D01*
X200744667Y-151634000D01*
X201295000Y-151676333D01*
X201337333Y-152946333D01*
X201379667Y-154216333D01*
X201803000Y-154218991D01*
X202070575Y-154233051D01*
X202274137Y-154265801D01*
X202332167Y-154287488D01*
X202396083Y-154418472D01*
X202431137Y-154710075D01*
X202438000Y-154993814D01*
X202438000Y-155634302D01*
X202904994Y-155595575D01*
X203251463Y-155590194D01*
X203440694Y-155644404D01*
X203459194Y-155661926D01*
X203498714Y-155793819D01*
X203521285Y-156043001D01*
X203522496Y-156357891D01*
X203521367Y-156388668D01*
X203496333Y-157010333D01*
X202988333Y-157012035D01*
X202480333Y-157013736D01*
X202438000Y-159679035D01*
X202395667Y-162344333D01*
X201870129Y-162369446D01*
X201344592Y-162394558D01*
X201319796Y-163004446D01*
X201295000Y-163614333D01*
X200730383Y-163639211D01*
X200409623Y-163645031D01*
X200214729Y-163606749D01*
X200117289Y-163492727D01*
X200088889Y-163271326D01*
X200099756Y-162937000D01*
X200107117Y-162674686D01*
X200101310Y-162480822D01*
X200092974Y-162427443D01*
X199999581Y-162381491D01*
X199791048Y-162356750D01*
X199621300Y-162355833D01*
X199178333Y-162370446D01*
X199136000Y-163712056D01*
X199093667Y-165053667D01*
X198585667Y-165053667D01*
X198077667Y-165053667D01*
X198073533Y-166323667D01*
X198069399Y-167593667D01*
X197523199Y-167636000D01*
X196977000Y-167678333D01*
X196977000Y-168228667D01*
X196966980Y-168529836D01*
X196940858Y-168769152D01*
X196908503Y-168884833D01*
X196778447Y-168949467D01*
X196505104Y-168985017D01*
X196294670Y-168990667D01*
X195749333Y-168990667D01*
X195749333Y-168313333D01*
X195749333Y-167636000D01*
X194733333Y-167636000D01*
X193717333Y-167636000D01*
X193717333Y-168211733D01*
X193702481Y-168540592D01*
X193662532Y-168784540D01*
X193615733Y-168889066D01*
X193477771Y-168946849D01*
X193235823Y-168983653D01*
X193065400Y-168990667D01*
X192616667Y-168990667D01*
X192616667Y-169534075D01*
X192619882Y-169776637D01*
X192617087Y-169965630D01*
X192589625Y-170107691D01*
X192518834Y-170209457D01*
X192386055Y-170277563D01*
X192172630Y-170318648D01*
X191859899Y-170339346D01*
X191429202Y-170346295D01*
X190861880Y-170346132D01*
X190335719Y-170345333D01*
X189744688Y-170343224D01*
X189210217Y-170337285D01*
X188755432Y-170328102D01*
X188403458Y-170316257D01*
X188177423Y-170302335D01*
X188101111Y-170288889D01*
X188073528Y-170182117D01*
X188053421Y-169953305D01*
X188044752Y-169649710D01*
X188044667Y-169615595D01*
X188044667Y-168998747D01*
X187515500Y-168973540D01*
X186986333Y-168948333D01*
X186961557Y-168289511D01*
X186936781Y-167630688D01*
X185945557Y-167654511D01*
X184954333Y-167678333D01*
X184912000Y-168313333D01*
X184869667Y-168948333D01*
X184277000Y-168948333D01*
X183684333Y-168948333D01*
X183680432Y-168313333D01*
X183676531Y-167678333D01*
X183108932Y-167653298D01*
X182541333Y-167628263D01*
X182541333Y-166324462D01*
X182541333Y-165020661D01*
X182054500Y-165037164D01*
X181567667Y-165053667D01*
X181525333Y-163701590D01*
X181483000Y-162349513D01*
X181017333Y-162357963D01*
X180551667Y-162366413D01*
X180526870Y-163015325D01*
X180502074Y-163664238D01*
X179934204Y-163639286D01*
X179366333Y-163614333D01*
X179341457Y-163000500D01*
X179316581Y-162386667D01*
X178822658Y-162386667D01*
X178507498Y-162367768D01*
X178295225Y-162316334D01*
X178239194Y-162278778D01*
X178209834Y-162154729D01*
X178187561Y-161862565D01*
X178172404Y-161403357D01*
X178164393Y-160778176D01*
X178163558Y-159988093D01*
X178165327Y-159611756D01*
X178167489Y-158804472D01*
X178163309Y-158142667D01*
X178152923Y-157631446D01*
X178136469Y-157275916D01*
X178114084Y-157081182D01*
X178096333Y-157043241D01*
X177967541Y-157035573D01*
X177734561Y-157026565D01*
X177588333Y-157022096D01*
X177165000Y-157010333D01*
X177140476Y-156315960D01*
X177121641Y-155782667D01*
X178325941Y-155782667D01*
X178339118Y-156354167D01*
X178352295Y-156925667D01*
X178786738Y-156934292D01*
X178983304Y-156934895D01*
X179139655Y-156939616D01*
X179260331Y-156965818D01*
X179349872Y-157030866D01*
X179412817Y-157152125D01*
X179453706Y-157346957D01*
X179477080Y-157632726D01*
X179487476Y-158026798D01*
X179489436Y-158546536D01*
X179487499Y-159209303D01*
X179486468Y-159610721D01*
X179481976Y-162175000D01*
X179949686Y-162200283D01*
X180417395Y-162225567D01*
X180442198Y-161565283D01*
X180467000Y-160905000D01*
X181017333Y-160905000D01*
X181567667Y-160905000D01*
X181592324Y-161557217D01*
X181616981Y-162209434D01*
X182142657Y-162234550D01*
X182668333Y-162259667D01*
X182691684Y-163546850D01*
X182715034Y-164834033D01*
X183242017Y-164859183D01*
X183769000Y-164884333D01*
X183792316Y-166217833D01*
X183815633Y-167551333D01*
X184279150Y-167551333D01*
X184742667Y-167551333D01*
X184742667Y-166969033D01*
X184760989Y-166580028D01*
X184816837Y-166348814D01*
X184860405Y-166289020D01*
X185013684Y-166241373D01*
X185332914Y-166215558D01*
X185818942Y-166211523D01*
X186024571Y-166215153D01*
X187071000Y-166239000D01*
X187095657Y-166891217D01*
X187120314Y-167543434D01*
X187645990Y-167568550D01*
X188171667Y-167593667D01*
X188196542Y-168207500D01*
X188221418Y-168821333D01*
X190330667Y-168821333D01*
X192439915Y-168821333D01*
X192464791Y-168207500D01*
X192489667Y-167593667D01*
X193015343Y-167568550D01*
X193541019Y-167543434D01*
X193565676Y-166891217D01*
X193590333Y-166239000D01*
X194712167Y-166215376D01*
X195191515Y-166209148D01*
X195523022Y-166215117D01*
X195727846Y-166234864D01*
X195827147Y-166269972D01*
X195844989Y-166300042D01*
X195852188Y-166436897D01*
X195860047Y-166686176D01*
X195866156Y-166958667D01*
X195876333Y-167509000D01*
X196360995Y-167534327D01*
X196845658Y-167559654D01*
X196868995Y-166221994D01*
X196892333Y-164884333D01*
X197419316Y-164859183D01*
X197946299Y-164834033D01*
X197969649Y-163546850D01*
X197993000Y-162259667D01*
X198518676Y-162234550D01*
X199044352Y-162209434D01*
X199069009Y-161557217D01*
X199093667Y-160905000D01*
X199558310Y-160890184D01*
X199891751Y-160895259D01*
X200096366Y-160956649D01*
X200199749Y-161104665D01*
X200229497Y-161369614D01*
X200222383Y-161619579D01*
X200194333Y-162175000D01*
X200681167Y-162200392D01*
X201168000Y-162225784D01*
X201168000Y-159600760D01*
X201168000Y-156975737D01*
X201739500Y-156950702D01*
X202311000Y-156925667D01*
X202336080Y-156354167D01*
X202361160Y-155782667D01*
X201866180Y-155782667D01*
X201580355Y-155766195D01*
X201358034Y-155723650D01*
X201269600Y-155681067D01*
X201214187Y-155541493D01*
X201178187Y-155279116D01*
X201168000Y-155003733D01*
X201168000Y-154428000D01*
X200669178Y-154428000D01*
X200388699Y-154422609D01*
X200232274Y-154393841D01*
X200154687Y-154322806D01*
X200111859Y-154195167D01*
X200090019Y-154019828D01*
X200074714Y-153718704D01*
X200067431Y-153335266D01*
X200069109Y-152946333D01*
X200074561Y-152540135D01*
X200077683Y-152190550D01*
X200078240Y-151935474D01*
X200076095Y-151814016D01*
X200027774Y-151747493D01*
X199875323Y-151723692D01*
X199598071Y-151736613D01*
X199298239Y-151744362D01*
X199111647Y-151712799D01*
X199072359Y-151684190D01*
X199046930Y-151557816D01*
X199035150Y-151315683D01*
X199039265Y-151020759D01*
X199062622Y-150448667D01*
X198551248Y-150448667D01*
X198039874Y-150448667D01*
X198063811Y-151655167D01*
X198067662Y-152100558D01*
X198061772Y-152493369D01*
X198047351Y-152798542D01*
X198025608Y-152981022D01*
X198017095Y-153008212D01*
X197944201Y-153093205D01*
X197804671Y-153126780D01*
X197552724Y-153118057D01*
X197492444Y-153112750D01*
X197214062Y-153097841D01*
X197060302Y-153123734D01*
X196989757Y-153197956D01*
X196987070Y-153204622D01*
X196974164Y-153321001D01*
X196962931Y-153584134D01*
X196953755Y-153971446D01*
X196947024Y-154460363D01*
X196943121Y-155028311D01*
X196942433Y-155652714D01*
X196942764Y-155799734D01*
X196944787Y-156538538D01*
X196943734Y-157124959D01*
X196935994Y-157575951D01*
X196917954Y-157908463D01*
X196886002Y-158139446D01*
X196836526Y-158285853D01*
X196765914Y-158364633D01*
X196670554Y-158392737D01*
X196546834Y-158387118D01*
X196396037Y-158365439D01*
X196194405Y-158343894D01*
X196047773Y-158361675D01*
X195947410Y-158440643D01*
X195884583Y-158602654D01*
X195850561Y-158869566D01*
X195836612Y-159263239D01*
X195834000Y-159772367D01*
X195834000Y-161032000D01*
X195241333Y-161032000D01*
X194648667Y-161032000D01*
X194648667Y-159679968D01*
X194648667Y-158327937D01*
X194119500Y-158346468D01*
X193590333Y-158365000D01*
X193548000Y-157696081D01*
X193505667Y-157027161D01*
X192997667Y-157018747D01*
X192489667Y-157010333D01*
X192464708Y-156392388D01*
X192439749Y-155774442D01*
X191956708Y-155799721D01*
X191473667Y-155825000D01*
X191494657Y-156370445D01*
X191490365Y-156739765D01*
X191442758Y-156945459D01*
X191409990Y-156982982D01*
X191284629Y-157010177D01*
X191032857Y-157030699D01*
X190697482Y-157044181D01*
X190321310Y-157050256D01*
X189947145Y-157048556D01*
X189617795Y-157038713D01*
X189376066Y-157020361D01*
X189279258Y-157001275D01*
X189205825Y-156934477D01*
X189163989Y-156781706D01*
X189146839Y-156509021D01*
X189145333Y-156343500D01*
X189145333Y-155737118D01*
X188700833Y-155751644D01*
X188256333Y-155766171D01*
X188230869Y-156343578D01*
X188203287Y-156655525D01*
X188156321Y-156886760D01*
X188103869Y-156988477D01*
X187958498Y-157029677D01*
X187725629Y-157047078D01*
X187663667Y-157046466D01*
X187420055Y-157042200D01*
X187242815Y-157043591D01*
X187219167Y-157044815D01*
X187156427Y-157117450D01*
X187122056Y-157332831D01*
X187113333Y-157634966D01*
X187097984Y-158009406D01*
X187038444Y-158241287D01*
X186914469Y-158355682D01*
X186705818Y-158377662D01*
X186530588Y-158356766D01*
X186316092Y-158330294D01*
X186159585Y-158344030D01*
X186051957Y-158419436D01*
X185984095Y-158577975D01*
X185946889Y-158841110D01*
X185931228Y-159230303D01*
X185928000Y-159767017D01*
X185928000Y-159776235D01*
X185928000Y-161039737D01*
X185356500Y-161014702D01*
X184785000Y-160989667D01*
X184769428Y-159677333D01*
X184753856Y-158365000D01*
X184290727Y-158383475D01*
X183958438Y-158373631D01*
X183762555Y-158315070D01*
X183736081Y-158291677D01*
X183705241Y-158167932D01*
X183678696Y-157878399D01*
X183656595Y-157426572D01*
X183639090Y-156815945D01*
X183626331Y-156050012D01*
X183622115Y-155648535D01*
X183599667Y-153115667D01*
X183176333Y-153109220D01*
X182908706Y-153102654D01*
X182705134Y-153093221D01*
X182647167Y-153088053D01*
X182604318Y-153036934D01*
X182573757Y-152885343D01*
X182554046Y-152615290D01*
X182543753Y-152208785D01*
X182541333Y-151761000D01*
X182541333Y-150448667D01*
X182075667Y-150448667D01*
X181610000Y-150448667D01*
X181610000Y-151079626D01*
X181610000Y-151710586D01*
X181080833Y-151735793D01*
X180551667Y-151761000D01*
X180528350Y-153094500D01*
X180505033Y-154428000D01*
X179999183Y-154428000D01*
X179493333Y-154428000D01*
X179493333Y-155003733D01*
X179478481Y-155332592D01*
X179438532Y-155576540D01*
X179391733Y-155681067D01*
X179255556Y-155737017D01*
X179011942Y-155773918D01*
X178808037Y-155782667D01*
X178325941Y-155782667D01*
X177121641Y-155782667D01*
X177115952Y-155621588D01*
X177648476Y-155596294D01*
X178181000Y-155571000D01*
X178181000Y-154964854D01*
X178190264Y-154656232D01*
X178214636Y-154415051D01*
X178248986Y-154290540D01*
X178251577Y-154287521D01*
X178369430Y-154248474D01*
X178599153Y-154222617D01*
X178801910Y-154216333D01*
X179281667Y-154216333D01*
X179305038Y-152925166D01*
X179328410Y-151634000D01*
X179872977Y-151634000D01*
X180417544Y-151634000D01*
X180442272Y-150979349D01*
X180467000Y-150324699D01*
X180975000Y-150323183D01*
X181483000Y-150321667D01*
X181525333Y-148975766D01*
X181567667Y-147629866D01*
X182047984Y-147633243D01*
G37*
D10*
%TO.C,D40*%
X246718881Y-165038107D02*
X247101403Y-164921158D01*
X247101403Y-164921158D02*
X246940599Y-164395190D01*
X247101403Y-164921158D02*
X247262208Y-165447126D01*
X247101403Y-164921158D02*
X247558238Y-164363213D01*
X247558238Y-164363213D02*
X247792135Y-165128257D01*
X247675186Y-164745735D02*
X248153339Y-164599549D01*
X247792135Y-165128257D02*
X247101403Y-164921158D01*
%TO.C,D25*%
X302142821Y-137168271D02*
X302534080Y-137085106D01*
X302534080Y-137085106D02*
X302419729Y-136547125D01*
X302534080Y-137085106D02*
X302648432Y-137623087D01*
X302534080Y-137085106D02*
X303037804Y-136569100D01*
X303037804Y-136569100D02*
X303204134Y-137351618D01*
X303120969Y-136960359D02*
X303610043Y-136856403D01*
X303204134Y-137351618D02*
X302534080Y-137085106D01*
%TO.C,D15*%
X145167926Y-107964387D02*
X145550448Y-108081336D01*
X145550448Y-108081336D02*
X145389644Y-108607304D01*
X145550448Y-108081336D02*
X145711253Y-107555368D01*
X145550448Y-108081336D02*
X146241180Y-107874237D01*
X146007283Y-108639281D02*
X145550448Y-108081336D01*
X146124231Y-108256759D02*
X146602384Y-108402945D01*
X146241180Y-107874237D02*
X146007283Y-108639281D01*
%TO.C,D17*%
X157490282Y-132645544D02*
X157872804Y-132762493D01*
X157872804Y-132762493D02*
X157712000Y-133288461D01*
X157872804Y-132762493D02*
X158033609Y-132236525D01*
X157872804Y-132762493D02*
X158563536Y-132555394D01*
X158329639Y-133320438D02*
X157872804Y-132762493D01*
X158446587Y-132937916D02*
X158924740Y-133084102D01*
X158563536Y-132555394D02*
X158329639Y-133320438D01*
%TO.C,D13*%
X134642545Y-142391358D02*
X135025067Y-142508307D01*
X135025067Y-142508307D02*
X134864263Y-143034275D01*
X135025067Y-142508307D02*
X135185872Y-141982339D01*
X135025067Y-142508307D02*
X135715799Y-142301208D01*
X135481902Y-143066252D02*
X135025067Y-142508307D01*
X135598850Y-142683730D02*
X136077003Y-142829916D01*
X135715799Y-142301208D02*
X135481902Y-143066252D01*
D12*
%TO.C,REF\u002A\u002A*%
X146754253Y-89043531D02*
X146385796Y-89708244D01*
X147627788Y-91448576D02*
X147487849Y-91371007D01*
X147655079Y-88490985D02*
X152605427Y-91235006D01*
X150251647Y-92903007D02*
X148799780Y-92098220D01*
X152614204Y-92291756D02*
X152245747Y-92956469D01*
D13*
X150064985Y-94802143D02*
G75*
G02*
X149864985Y-94802143I-100000J0D01*
G01*
X149864985Y-94802143D02*
G75*
G02*
X150064985Y-94802143I100000J0D01*
G01*
D10*
%TO.C,D2*%
X61736489Y-115299424D02*
X62127748Y-115382589D01*
X62127748Y-115382589D02*
X62013397Y-115920570D01*
X62127748Y-115382589D02*
X62242100Y-114844608D01*
X62127748Y-115382589D02*
X62797802Y-115116077D01*
X62631472Y-115898595D02*
X62127748Y-115382589D01*
X62714637Y-115507336D02*
X63203711Y-115611292D01*
X62797802Y-115116077D02*
X62631472Y-115898595D01*
%TO.C,D39*%
X216001494Y-115870617D02*
X216384016Y-115753668D01*
X216384016Y-115753668D02*
X216223212Y-115227700D01*
X216384016Y-115753668D02*
X216544821Y-116279636D01*
X216384016Y-115753668D02*
X216840851Y-115195723D01*
X216840851Y-115195723D02*
X217074748Y-115960767D01*
X216957799Y-115578245D02*
X217435952Y-115432059D01*
X217074748Y-115960767D02*
X216384016Y-115753668D01*
%TO.C,D21*%
X171852364Y-182296173D02*
X172171819Y-182536899D01*
X172171819Y-182536899D02*
X171840820Y-182976148D01*
X172171819Y-182536899D02*
X172502817Y-182097649D01*
X172171819Y-182536899D02*
X172891726Y-182578534D01*
X172410274Y-183217442D02*
X172171819Y-182536899D01*
X172651000Y-182897988D02*
X173050318Y-183198895D01*
X172891726Y-182578534D02*
X172410274Y-183217442D01*
%TO.C,D26*%
X298400410Y-119561614D02*
X298791669Y-119478449D01*
X298791669Y-119478449D02*
X298677318Y-118940468D01*
X298791669Y-119478449D02*
X298906021Y-120016430D01*
X298791669Y-119478449D02*
X299295393Y-118962443D01*
X299295393Y-118962443D02*
X299461723Y-119744961D01*
X299378558Y-119353702D02*
X299867632Y-119249746D01*
X299461723Y-119744961D02*
X298791669Y-119478449D01*
%TO.C,D38*%
X221264185Y-133084102D02*
X221646707Y-132967153D01*
X221646707Y-132967153D02*
X221485903Y-132441185D01*
X221646707Y-132967153D02*
X221807512Y-133493121D01*
X221646707Y-132967153D02*
X222103542Y-132409208D01*
X222103542Y-132409208D02*
X222337439Y-133174252D01*
X222220490Y-132791730D02*
X222698643Y-132645544D01*
X222337439Y-133174252D02*
X221646707Y-132967153D01*
%TO.C,D19*%
X132035586Y-164599549D02*
X132418108Y-164716498D01*
X132418108Y-164716498D02*
X132257304Y-165242466D01*
X132418108Y-164716498D02*
X132578913Y-164190530D01*
X132418108Y-164716498D02*
X133108840Y-164509399D01*
X132874943Y-165274443D02*
X132418108Y-164716498D01*
X132991891Y-164891921D02*
X133470044Y-165038107D01*
X133108840Y-164509399D02*
X132874943Y-165274443D01*
%TO.C,D10*%
X118226984Y-131098467D02*
X118609506Y-131215416D01*
X118609506Y-131215416D02*
X118448702Y-131741384D01*
X118609506Y-131215416D02*
X118770311Y-130689448D01*
X118609506Y-131215416D02*
X119300238Y-131008317D01*
X119066341Y-131773361D02*
X118609506Y-131215416D01*
X119183289Y-131390839D02*
X119661442Y-131537025D01*
X119300238Y-131008317D02*
X119066341Y-131773361D01*
%TO.C,D9*%
X109120717Y-95897957D02*
X109503239Y-96014906D01*
X109503239Y-96014906D02*
X109342435Y-96540874D01*
X109503239Y-96014906D02*
X109664044Y-95488938D01*
X109503239Y-96014906D02*
X110193971Y-95807807D01*
X109960074Y-96572851D02*
X109503239Y-96014906D01*
X110077022Y-96190329D02*
X110555175Y-96336515D01*
X110193971Y-95807807D02*
X109960074Y-96572851D01*
%TO.C,D12*%
X128752366Y-96671496D02*
X129134888Y-96788445D01*
X129134888Y-96788445D02*
X128974084Y-97314413D01*
X129134888Y-96788445D02*
X129295693Y-96262477D01*
X129134888Y-96788445D02*
X129825620Y-96581346D01*
X129591723Y-97346390D02*
X129134888Y-96788445D01*
X129708671Y-96963868D02*
X130186824Y-97110054D01*
X129825620Y-96581346D02*
X129591723Y-97346390D01*
%TO.C,D4*%
X76578883Y-136856403D02*
X76970142Y-136939568D01*
X76970142Y-136939568D02*
X76855791Y-137477549D01*
X76970142Y-136939568D02*
X77084494Y-136401587D01*
X76970142Y-136939568D02*
X77640196Y-136673056D01*
X77473866Y-137455574D02*
X76970142Y-136939568D01*
X77557031Y-137064315D02*
X78046105Y-137168271D01*
X77640196Y-136673056D02*
X77473866Y-137455574D01*
%TO.C,D8*%
X103858026Y-113111443D02*
X104240548Y-113228392D01*
X104240548Y-113228392D02*
X104079744Y-113754360D01*
X104240548Y-113228392D02*
X104401353Y-112702424D01*
X104240548Y-113228392D02*
X104931280Y-113021293D01*
X104697383Y-113786337D02*
X104240548Y-113228392D01*
X104814331Y-113403815D02*
X105292484Y-113550001D01*
X104931280Y-113021293D02*
X104697383Y-113786337D01*
%TO.C,D30*%
X269633750Y-96336515D02*
X270016272Y-96219566D01*
X270016272Y-96219566D02*
X269855468Y-95693598D01*
X270016272Y-96219566D02*
X270177077Y-96745534D01*
X270016272Y-96219566D02*
X270473107Y-95661621D01*
X270473107Y-95661621D02*
X270707004Y-96426665D01*
X270590055Y-96044143D02*
X271068208Y-95897957D01*
X270707004Y-96426665D02*
X270016272Y-96219566D01*
D14*
%TO.C,JST1*%
X173940000Y-125540000D02*
X173940000Y-126540000D01*
X173940000Y-133360000D02*
X173940000Y-132360000D01*
X174860000Y-133360000D02*
X173940000Y-133360000D01*
X174940000Y-125540000D02*
X173940000Y-125540000D01*
D10*
X175500000Y-134400000D02*
X176500000Y-134400000D01*
X178000000Y-133900000D02*
X178000000Y-134900000D01*
X178500000Y-134400000D02*
X177500000Y-134400000D01*
D14*
X179140000Y-125540000D02*
X180060000Y-125540000D01*
X179140000Y-133360000D02*
X180060000Y-133360000D01*
X180060000Y-125540000D02*
X180060000Y-126540000D01*
X180060000Y-133360000D02*
X180060000Y-132360000D01*
D10*
%TO.C,D42*%
X207138607Y-183198895D02*
X207458062Y-182958169D01*
X207458062Y-182958169D02*
X207127063Y-182518920D01*
X207458062Y-182958169D02*
X207696517Y-182277626D01*
X207458062Y-182958169D02*
X207789060Y-183397419D01*
X207696517Y-182277626D02*
X208177969Y-182916534D01*
X207937243Y-182597080D02*
X208336561Y-182296173D01*
X208177969Y-182916534D02*
X207458062Y-182958169D01*
%TO.C,D1*%
X57994078Y-132906080D02*
X58385337Y-132989245D01*
X58385337Y-132989245D02*
X58270986Y-133527226D01*
X58385337Y-132989245D02*
X58499689Y-132451264D01*
X58385337Y-132989245D02*
X59055391Y-132722733D01*
X58889061Y-133505251D02*
X58385337Y-132989245D01*
X58972226Y-133113992D02*
X59461300Y-133217948D01*
X59055391Y-132722733D02*
X58889061Y-133505251D01*
%TO.C,D28*%
X280159132Y-130763486D02*
X280541654Y-130646537D01*
X280541654Y-130646537D02*
X280380850Y-130120569D01*
X280541654Y-130646537D02*
X280702459Y-131172505D01*
X280541654Y-130646537D02*
X280998489Y-130088592D01*
X280998489Y-130088592D02*
X281232386Y-130853636D01*
X281115437Y-130471114D02*
X281593590Y-130324928D01*
X281232386Y-130853636D02*
X280541654Y-130646537D01*
%TO.C,D37*%
X226526876Y-150297588D02*
X226909398Y-150180639D01*
X226909398Y-150180639D02*
X226748594Y-149654671D01*
X226909398Y-150180639D02*
X227070203Y-150706607D01*
X226909398Y-150180639D02*
X227366233Y-149622694D01*
X227366233Y-149622694D02*
X227600130Y-150387738D01*
X227483181Y-150005216D02*
X227961334Y-149859030D01*
X227600130Y-150387738D02*
X226909398Y-150180639D01*
D12*
%TO.C,REF\u002A\u002A*%
X174505000Y-117950000D02*
X174505000Y-113450000D01*
X176350000Y-112750000D02*
X178650000Y-112750000D01*
X176350000Y-118745000D02*
X178650000Y-118745000D01*
X180495000Y-113450000D02*
X180495000Y-118050000D01*
D13*
X175350000Y-120195000D02*
G75*
G02*
X175150000Y-120195000I-100000J0D01*
G01*
X175150000Y-120195000D02*
G75*
G02*
X175350000Y-120195000I100000J0D01*
G01*
D12*
X179255000Y-115750000D02*
G75*
G02*
X175745000Y-115750000I-1755000J0D01*
G01*
X175745000Y-115750000D02*
G75*
G02*
X179255000Y-115750000I1755000J0D01*
G01*
D10*
%TO.C,D36*%
X233586541Y-108402945D02*
X233969063Y-108285996D01*
X233969063Y-108285996D02*
X233808259Y-107760028D01*
X233969063Y-108285996D02*
X234129868Y-108811964D01*
X233969063Y-108285996D02*
X234425898Y-107728051D01*
X234425898Y-107728051D02*
X234659795Y-108493095D01*
X234542846Y-108110573D02*
X235020999Y-107964387D01*
X234659795Y-108493095D02*
X233969063Y-108285996D01*
%TO.C,D24*%
X313242804Y-98004635D02*
X313634063Y-97921470D01*
X313634063Y-97921470D02*
X313519712Y-97383489D01*
X313634063Y-97921470D02*
X313748415Y-98459451D01*
X313634063Y-97921470D02*
X314137787Y-97405464D01*
X314137787Y-97405464D02*
X314304117Y-98187982D01*
X314220952Y-97796723D02*
X314710026Y-97692767D01*
X314304117Y-98187982D02*
X313634063Y-97921470D01*
%TO.C,D29*%
X274896441Y-113550001D02*
X275278963Y-113433052D01*
X275278963Y-113433052D02*
X275118159Y-112907084D01*
X275278963Y-113433052D02*
X275439768Y-113959020D01*
X275278963Y-113433052D02*
X275735798Y-112875107D01*
X275735798Y-112875107D02*
X275969695Y-113640151D01*
X275852746Y-113257629D02*
X276330899Y-113111443D01*
X275969695Y-113640151D02*
X275278963Y-113433052D01*
%TO.C,D23*%
X316985215Y-115611292D02*
X317376474Y-115528127D01*
X317376474Y-115528127D02*
X317262123Y-114990146D01*
X317376474Y-115528127D02*
X317490826Y-116066108D01*
X317376474Y-115528127D02*
X317880198Y-115012121D01*
X317880198Y-115012121D02*
X318046528Y-115794639D01*
X317963363Y-115403380D02*
X318452437Y-115299424D01*
X318046528Y-115794639D02*
X317376474Y-115528127D01*
%TO.C,D41*%
X226432477Y-172395426D02*
X226803351Y-172245583D01*
X226803351Y-172245583D02*
X226597317Y-171735632D01*
X226803351Y-172245583D02*
X227009384Y-172755534D01*
X226803351Y-172245583D02*
X227209818Y-171649946D01*
X227209818Y-171649946D02*
X227509504Y-172391693D01*
X227359661Y-172020819D02*
X227823253Y-171833516D01*
X227509504Y-172391693D02*
X226803351Y-172245583D01*
%TO.C,D16*%
X152227592Y-149859030D02*
X152610114Y-149975979D01*
X152610114Y-149975979D02*
X152449310Y-150501947D01*
X152610114Y-149975979D02*
X152770919Y-149450011D01*
X152610114Y-149975979D02*
X153300846Y-149768880D01*
X153066949Y-150533924D02*
X152610114Y-149975979D01*
X153183897Y-150151402D02*
X153662050Y-150297588D01*
X153300846Y-149768880D02*
X153066949Y-150533924D01*
%TO.C,D20*%
X152365672Y-171833516D02*
X152736546Y-171983359D01*
X152736546Y-171983359D02*
X152530512Y-172493310D01*
X152736546Y-171983359D02*
X152942579Y-171473408D01*
X152736546Y-171983359D02*
X153442699Y-171837249D01*
X153143013Y-172578996D02*
X152736546Y-171983359D01*
X153292856Y-172208123D02*
X153756448Y-172395426D01*
X153442699Y-171837249D02*
X153143013Y-172578996D01*
%TD*%
M02*
