%TF.GenerationSoftware,KiCad,Pcbnew,8.0.6*%
%TF.CreationDate,2025-08-02T20:54:24+02:00*%
%TF.ProjectId,main,6d61696e-2e6b-4696-9361-645f70636258,v1.0.0*%
%TF.SameCoordinates,Original*%
%TF.FileFunction,Legend,Bot*%
%TF.FilePolarity,Positive*%
%FSLAX46Y46*%
G04 Gerber Fmt 4.6, Leading zero omitted, Abs format (unit mm)*
G04 Created by KiCad (PCBNEW 8.0.6) date 2025-08-02 20:54:24*
%MOMM*%
%LPD*%
G01*
G04 APERTURE LIST*
%ADD10C,0.100000*%
%ADD11C,0.120000*%
G04 APERTURE END LIST*
D10*
%TO.C,D34*%
X227270050Y-133465235D02*
X227652563Y-133348287D01*
X227652563Y-133348287D02*
X227491760Y-132822328D01*
X227652563Y-133348287D02*
X227813375Y-133874261D01*
X227652563Y-133348287D02*
X228109398Y-132790338D01*
X228109398Y-132790338D02*
X228343302Y-133555386D01*
X228226353Y-133172868D02*
X228704498Y-133026687D01*
X228343302Y-133555386D02*
X227652563Y-133348287D01*
%TO.C,D26*%
X276635289Y-112592197D02*
X277026543Y-112509020D01*
X277026543Y-112509020D02*
X276912193Y-111971048D01*
X277026543Y-112509020D02*
X277140888Y-113047016D01*
X277026543Y-112509020D02*
X277530255Y-111993027D01*
X277530255Y-111993027D02*
X277696591Y-112775545D01*
X277613425Y-112384293D02*
X278102495Y-112280327D01*
X277696591Y-112775545D02*
X277026543Y-112509020D01*
%TO.C,D10*%
X114653046Y-122318527D02*
X115035580Y-122435489D01*
X115035580Y-122435489D02*
X114874773Y-122961448D01*
X115035580Y-122435489D02*
X115196376Y-121909509D01*
X115035580Y-122435489D02*
X115726307Y-122228374D01*
X115492397Y-122993425D02*
X115035580Y-122435489D01*
X115609354Y-122610906D02*
X116087514Y-122757097D01*
X115726307Y-122228374D02*
X115492397Y-122993425D01*
%TO.C,D29*%
X254521736Y-106311097D02*
X254904249Y-106194149D01*
X254904249Y-106194149D02*
X254743446Y-105668190D01*
X254904249Y-106194149D02*
X255065061Y-106720123D01*
X254904249Y-106194149D02*
X255361084Y-105636200D01*
X255361084Y-105636200D02*
X255594988Y-106401248D01*
X255478039Y-106018730D02*
X255956184Y-105872549D01*
X255594988Y-106401248D02*
X254904249Y-106194149D01*
%TO.C,D25*%
X280169796Y-129220708D02*
X280561050Y-129137531D01*
X280561050Y-129137531D02*
X280446700Y-128599559D01*
X280561050Y-129137531D02*
X280675395Y-129675527D01*
X280561050Y-129137531D02*
X281064762Y-128621538D01*
X281064762Y-128621538D02*
X281231098Y-129404056D01*
X281147932Y-129012804D02*
X281637002Y-128908838D01*
X281231098Y-129404056D02*
X280561050Y-129137531D01*
%TO.C,D16*%
X144828440Y-139909596D02*
X145210974Y-140026558D01*
X145210974Y-140026558D02*
X145050167Y-140552517D01*
X145210974Y-140026558D02*
X145371770Y-139500578D01*
X145210974Y-140026558D02*
X145901701Y-139819443D01*
X145667791Y-140584494D02*
X145210974Y-140026558D01*
X145784748Y-140201975D02*
X146262908Y-140348166D01*
X145901701Y-139819443D02*
X145667791Y-140584494D01*
%TO.C,D9*%
X106874639Y-89615359D02*
X107257173Y-89732321D01*
X107257173Y-89732321D02*
X107096366Y-90258280D01*
X107257173Y-89732321D02*
X107417969Y-89206341D01*
X107257173Y-89732321D02*
X107947900Y-89525206D01*
X107713990Y-90290257D02*
X107257173Y-89732321D01*
X107830947Y-89907738D02*
X108309107Y-90053929D01*
X107947900Y-89525206D02*
X107713990Y-90290257D01*
%TO.C,D3*%
X66664007Y-92117317D02*
X67055252Y-92200489D01*
X67055252Y-92200489D02*
X66940911Y-92738460D01*
X67055252Y-92200489D02*
X67169613Y-91662507D01*
X67055252Y-92200489D02*
X67725311Y-91933993D01*
X67558987Y-92716492D02*
X67055252Y-92200489D01*
X67642143Y-92325236D02*
X68131207Y-92429197D01*
X67725311Y-91933993D02*
X67558987Y-92716492D01*
%TO.C,D2*%
X63129507Y-108745830D02*
X63520752Y-108829002D01*
X63520752Y-108829002D02*
X63406411Y-109366973D01*
X63520752Y-108829002D02*
X63635113Y-108291020D01*
X63520752Y-108829002D02*
X64190811Y-108562506D01*
X64024487Y-109345005D02*
X63520752Y-108829002D01*
X64107643Y-108953749D02*
X64596707Y-109057710D01*
X64190811Y-108562506D02*
X64024487Y-109345005D01*
%TO.C,D21*%
X156546919Y-167936419D02*
X156866381Y-168177145D01*
X156866381Y-168177145D02*
X156535373Y-168616383D01*
X156866381Y-168177145D02*
X157197385Y-167737888D01*
X156866381Y-168177145D02*
X157586292Y-168218776D01*
X157104832Y-168857681D02*
X156866381Y-168177145D01*
X157345554Y-168538218D02*
X157744877Y-168839135D01*
X157586292Y-168218776D02*
X157104832Y-168857681D01*
%TO.C,D35*%
X222299744Y-117208047D02*
X222682257Y-117091099D01*
X222682257Y-117091099D02*
X222521454Y-116565140D01*
X222682257Y-117091099D02*
X222843069Y-117617073D01*
X222682257Y-117091099D02*
X223139092Y-116533150D01*
X223139092Y-116533150D02*
X223372996Y-117298198D01*
X223256047Y-116915680D02*
X223734192Y-116769499D01*
X223372996Y-117298198D02*
X222682257Y-117091099D01*
%TO.C,D12*%
X124593667Y-89804162D02*
X124976201Y-89921124D01*
X124976201Y-89921124D02*
X124815394Y-90447083D01*
X124976201Y-89921124D02*
X125136997Y-89395144D01*
X124976201Y-89921124D02*
X125666928Y-89714009D01*
X125433018Y-90479060D02*
X124976201Y-89921124D01*
X125549975Y-90096541D02*
X126028135Y-90242732D01*
X125666928Y-89714009D02*
X125433018Y-90479060D01*
%TO.C,D23*%
X293263809Y-109057700D02*
X293655063Y-108974523D01*
X293655063Y-108974523D02*
X293540713Y-108436551D01*
X293655063Y-108974523D02*
X293769408Y-109512519D01*
X293655063Y-108974523D02*
X294158775Y-108458530D01*
X294158775Y-108458530D02*
X294325111Y-109241048D01*
X294241945Y-108849796D02*
X294731015Y-108745830D01*
X294325111Y-109241048D02*
X293655063Y-108974523D01*
%TO.C,D33*%
X231832376Y-90242724D02*
X232214889Y-90125776D01*
X232214889Y-90125776D02*
X232054086Y-89599817D01*
X232214889Y-90125776D02*
X232375701Y-90651750D01*
X232214889Y-90125776D02*
X232671724Y-89567827D01*
X232671724Y-89567827D02*
X232905628Y-90332875D01*
X232788679Y-89950357D02*
X233266824Y-89804176D01*
X232905628Y-90332875D02*
X232214889Y-90125776D01*
%TO.C,D4*%
X76223521Y-128908845D02*
X76614766Y-128992017D01*
X76614766Y-128992017D02*
X76500425Y-129529988D01*
X76614766Y-128992017D02*
X76729127Y-128454035D01*
X76614766Y-128992017D02*
X77284825Y-128725521D01*
X77118501Y-129508020D02*
X76614766Y-128992017D01*
X77201657Y-129116764D02*
X77690721Y-129220725D01*
X77284825Y-128725521D02*
X77118501Y-129508020D01*
%TO.C,D36*%
X217329418Y-100950869D02*
X217711931Y-100833921D01*
X217711931Y-100833921D02*
X217551128Y-100307962D01*
X217711931Y-100833921D02*
X217872743Y-101359895D01*
X217711931Y-100833921D02*
X218168766Y-100275972D01*
X218168766Y-100275972D02*
X218402670Y-101041020D01*
X218285721Y-100658502D02*
X218763866Y-100512321D01*
X218402670Y-101041020D02*
X217711931Y-100833921D01*
%TO.C,D41*%
X217218474Y-158637929D02*
X217589344Y-158488098D01*
X217589344Y-158488098D02*
X217383324Y-157978142D01*
X217589344Y-158488098D02*
X217795391Y-158998044D01*
X217589344Y-158488098D02*
X217995822Y-157892455D01*
X217995822Y-157892455D02*
X218295498Y-158634202D01*
X218145670Y-158263313D02*
X218609258Y-158076025D01*
X218295498Y-158634202D02*
X217589344Y-158488098D01*
%TO.C,D14*%
X134126325Y-116769495D02*
X134508859Y-116886457D01*
X134508859Y-116886457D02*
X134348052Y-117412416D01*
X134508859Y-116886457D02*
X134669655Y-116360477D01*
X134508859Y-116886457D02*
X135199586Y-116679342D01*
X134965676Y-117444393D02*
X134508859Y-116886457D01*
X135082633Y-117061874D02*
X135560793Y-117208065D01*
X135199586Y-116679342D02*
X134965676Y-117444393D01*
%TO.C,D42*%
X200115618Y-168839135D02*
X200435084Y-168598418D01*
X200435084Y-168598418D02*
X200104098Y-168159160D01*
X200435084Y-168598418D02*
X200673544Y-167917859D01*
X200435084Y-168598418D02*
X200766090Y-169037662D01*
X200673544Y-167917859D02*
X201155000Y-168556772D01*
X200914275Y-168237332D02*
X201313608Y-167936411D01*
X201155000Y-168556772D02*
X200435084Y-168598418D01*
%TO.C,D30*%
X249551419Y-90053926D02*
X249933932Y-89936978D01*
X249933932Y-89936978D02*
X249773129Y-89411019D01*
X249933932Y-89936978D02*
X250094744Y-90462952D01*
X249933932Y-89936978D02*
X250390767Y-89379029D01*
X250390767Y-89379029D02*
X250624671Y-90144077D01*
X250507722Y-89761559D02*
X250985867Y-89615378D01*
X250624671Y-90144077D02*
X249933932Y-89936978D01*
%TO.C,D22*%
X296798312Y-125686217D02*
X297189566Y-125603040D01*
X297189566Y-125603040D02*
X297075216Y-125065068D01*
X297189566Y-125603040D02*
X297303911Y-126141036D01*
X297189566Y-125603040D02*
X297693278Y-125087047D01*
X297693278Y-125087047D02*
X297859614Y-125869565D01*
X297776448Y-125478313D02*
X298265518Y-125374347D01*
X297859614Y-125869565D02*
X297189566Y-125603040D01*
%TO.C,D7*%
X96934003Y-122129719D02*
X97316537Y-122246681D01*
X97316537Y-122246681D02*
X97155730Y-122772640D01*
X97316537Y-122246681D02*
X97477333Y-121720701D01*
X97316537Y-122246681D02*
X98007264Y-122039566D01*
X97773354Y-122804617D02*
X97316537Y-122246681D01*
X97890311Y-122422098D02*
X98368471Y-122568289D01*
X98007264Y-122039566D02*
X97773354Y-122804617D01*
%TO.C,D28*%
X259492056Y-122568282D02*
X259874569Y-122451334D01*
X259874569Y-122451334D02*
X259713766Y-121925375D01*
X259874569Y-122451334D02*
X260035381Y-122977308D01*
X259874569Y-122451334D02*
X260331404Y-121893385D01*
X260331404Y-121893385D02*
X260565308Y-122658433D01*
X260448359Y-122275915D02*
X260926504Y-122129734D01*
X260565308Y-122658433D02*
X259874569Y-122451334D01*
%TO.C,D31*%
X241773017Y-122757077D02*
X242155530Y-122640129D01*
X242155530Y-122640129D02*
X241994727Y-122114170D01*
X242155530Y-122640129D02*
X242316342Y-123166103D01*
X242155530Y-122640129D02*
X242612365Y-122082180D01*
X242612365Y-122082180D02*
X242846269Y-122847228D01*
X242729320Y-122464710D02*
X243207465Y-122318529D01*
X242846269Y-122847228D02*
X242155530Y-122640129D01*
%TO.C,D6*%
X83292517Y-95651819D02*
X83683762Y-95734991D01*
X83683762Y-95734991D02*
X83569421Y-96272962D01*
X83683762Y-95734991D02*
X83798123Y-95197009D01*
X83683762Y-95734991D02*
X84353821Y-95468495D01*
X84187497Y-96250994D02*
X83683762Y-95734991D01*
X84270653Y-95859738D02*
X84759717Y-95963699D01*
X84353821Y-95468495D02*
X84187497Y-96250994D01*
%TO.C,D37*%
X211597622Y-140348154D02*
X211980135Y-140231206D01*
X211980135Y-140231206D02*
X211819332Y-139705247D01*
X211980135Y-140231206D02*
X212140947Y-140757180D01*
X211980135Y-140231206D02*
X212436970Y-139673257D01*
X212436970Y-139673257D02*
X212670874Y-140438305D01*
X212553925Y-140055787D02*
X213032070Y-139909606D01*
X212670874Y-140438305D02*
X211980135Y-140231206D01*
%TO.C,D40*%
X234073794Y-152298951D02*
X234456307Y-152182003D01*
X234456307Y-152182003D02*
X234295504Y-151656044D01*
X234456307Y-152182003D02*
X234617119Y-152707977D01*
X234456307Y-152182003D02*
X234913142Y-151624054D01*
X234913142Y-151624054D02*
X235147046Y-152389102D01*
X235030097Y-152006584D02*
X235508242Y-151860403D01*
X235147046Y-152389102D02*
X234456307Y-152182003D01*
%TO.C,D5*%
X79758014Y-112280336D02*
X80149259Y-112363508D01*
X80149259Y-112363508D02*
X80034918Y-112901479D01*
X80149259Y-112363508D02*
X80263620Y-111825526D01*
X80149259Y-112363508D02*
X80819318Y-112097012D01*
X80652994Y-112879511D02*
X80149259Y-112363508D01*
X80736150Y-112488255D02*
X81225214Y-112592216D01*
X80819318Y-112097012D02*
X80652994Y-112879511D01*
%TO.C,D19*%
X122352254Y-151860397D02*
X122734788Y-151977359D01*
X122734788Y-151977359D02*
X122573981Y-152503318D01*
X122734788Y-151977359D02*
X122895584Y-151451379D01*
X122734788Y-151977359D02*
X123425515Y-151770244D01*
X123191605Y-152535295D02*
X122734788Y-151977359D01*
X123308562Y-152152776D02*
X123786722Y-152298967D01*
X123425515Y-151770244D02*
X123191605Y-152535295D01*
%TO.C,D38*%
X206627305Y-124090983D02*
X207009818Y-123974035D01*
X207009818Y-123974035D02*
X206849015Y-123448076D01*
X207009818Y-123974035D02*
X207170630Y-124500009D01*
X207009818Y-123974035D02*
X207466653Y-123416086D01*
X207466653Y-123416086D02*
X207700557Y-124181134D01*
X207583608Y-123798616D02*
X208061753Y-123652435D01*
X207700557Y-124181134D02*
X207009818Y-123974035D01*
%TO.C,D13*%
X129155997Y-133026664D02*
X129538531Y-133143626D01*
X129538531Y-133143626D02*
X129377724Y-133669585D01*
X129538531Y-133143626D02*
X129699327Y-132617646D01*
X129538531Y-133143626D02*
X130229258Y-132936511D01*
X129995348Y-133701562D02*
X129538531Y-133143626D01*
X130112305Y-133319043D02*
X130590465Y-133465234D01*
X130229258Y-132936511D02*
X129995348Y-133701562D01*
%TO.C,D39*%
X201656973Y-107833800D02*
X202039486Y-107716852D01*
X202039486Y-107716852D02*
X201878683Y-107190893D01*
X202039486Y-107716852D02*
X202200298Y-108242826D01*
X202039486Y-107716852D02*
X202496321Y-107158903D01*
X202496321Y-107158903D02*
X202730225Y-107923951D01*
X202613276Y-107541433D02*
X203091421Y-107395252D01*
X202730225Y-107923951D02*
X202039486Y-107716852D01*
%TO.C,D27*%
X273100804Y-95963681D02*
X273492058Y-95880504D01*
X273492058Y-95880504D02*
X273377708Y-95342532D01*
X273492058Y-95880504D02*
X273606403Y-96418500D01*
X273492058Y-95880504D02*
X273995770Y-95364511D01*
X273995770Y-95364511D02*
X274162106Y-96147029D01*
X274078940Y-95755777D02*
X274568010Y-95651811D01*
X274162106Y-96147029D02*
X273492058Y-95880504D01*
%TO.C,D15*%
X139096639Y-100512304D02*
X139479173Y-100629266D01*
X139479173Y-100629266D02*
X139318366Y-101155225D01*
X139479173Y-100629266D02*
X139639969Y-100103286D01*
X139479173Y-100629266D02*
X140169900Y-100422151D01*
X139935990Y-101187202D02*
X139479173Y-100629266D01*
X140052947Y-100804683D02*
X140531107Y-100950874D01*
X140169900Y-100422151D02*
X139935990Y-101187202D01*
%TO.C,D17*%
X149798753Y-123652418D02*
X150181287Y-123769380D01*
X150181287Y-123769380D02*
X150020480Y-124295339D01*
X150181287Y-123769380D02*
X150342083Y-123243400D01*
X150181287Y-123769380D02*
X150872014Y-123562265D01*
X150638104Y-124327316D02*
X150181287Y-123769380D01*
X150755061Y-123944797D02*
X151233221Y-124090988D01*
X150872014Y-123562265D02*
X150638104Y-124327316D01*
%TO.C,D8*%
X101904329Y-105872551D02*
X102286863Y-105989513D01*
X102286863Y-105989513D02*
X102126056Y-106515472D01*
X102286863Y-105989513D02*
X102447659Y-105463533D01*
X102286863Y-105989513D02*
X102977590Y-105782398D01*
X102743680Y-106547449D02*
X102286863Y-105989513D01*
X102860637Y-106164930D02*
X103338797Y-106311121D01*
X102977590Y-105782398D02*
X102743680Y-106547449D01*
%TO.C,D11*%
X119623356Y-106061341D02*
X120005890Y-106178303D01*
X120005890Y-106178303D02*
X119845083Y-106704262D01*
X120005890Y-106178303D02*
X120166686Y-105652323D01*
X120005890Y-106178303D02*
X120696617Y-105971188D01*
X120462707Y-106736239D02*
X120005890Y-106178303D01*
X120579664Y-106353720D02*
X121057824Y-106499911D01*
X120696617Y-105971188D02*
X120462707Y-106736239D01*
%TO.C,D32*%
X236802701Y-106499901D02*
X237185214Y-106382953D01*
X237185214Y-106382953D02*
X237024411Y-105856994D01*
X237185214Y-106382953D02*
X237346026Y-106908927D01*
X237185214Y-106382953D02*
X237642049Y-105825004D01*
X237642049Y-105825004D02*
X237875953Y-106590052D01*
X237759004Y-106207534D02*
X238237149Y-106061353D01*
X237875953Y-106590052D02*
X237185214Y-106382953D01*
%TO.C,D1*%
X59595011Y-125374335D02*
X59986256Y-125457507D01*
X59986256Y-125457507D02*
X59871915Y-125995478D01*
X59986256Y-125457507D02*
X60100617Y-124919525D01*
X59986256Y-125457507D02*
X60656315Y-125191011D01*
X60489991Y-125973510D02*
X59986256Y-125457507D01*
X60573147Y-125582254D02*
X61062211Y-125686215D01*
X60656315Y-125191011D02*
X60489991Y-125973510D01*
%TO.C,D18*%
X154769070Y-107395242D02*
X155151604Y-107512204D01*
X155151604Y-107512204D02*
X154990797Y-108038163D01*
X155151604Y-107512204D02*
X155312400Y-106986224D01*
X155151604Y-107512204D02*
X155842331Y-107305089D01*
X155608421Y-108070140D02*
X155151604Y-107512204D01*
X155725378Y-107687621D02*
X156203538Y-107833812D01*
X155842331Y-107305089D02*
X155608421Y-108070140D01*
%TO.C,D20*%
X139251251Y-158076025D02*
X139622136Y-158225863D01*
X139622136Y-158225863D02*
X139416106Y-158735804D01*
X139622136Y-158225863D02*
X139828172Y-157715916D01*
X139622136Y-158225863D02*
X140328279Y-158079760D01*
X140028593Y-158821507D02*
X139622136Y-158225863D01*
X140178443Y-158450639D02*
X140642045Y-158637933D01*
X140328279Y-158079760D02*
X140028593Y-158821507D01*
%TO.C,D24*%
X289729308Y-92429199D02*
X290120562Y-92346022D01*
X290120562Y-92346022D02*
X290006212Y-91808050D01*
X290120562Y-92346022D02*
X290234907Y-92884018D01*
X290120562Y-92346022D02*
X290624274Y-91830029D01*
X290624274Y-91830029D02*
X290790610Y-92612547D01*
X290707444Y-92221295D02*
X291196514Y-92117329D01*
X290790610Y-92612547D02*
X290120562Y-92346022D01*
D11*
%TO.C,MCU1*%
X169954992Y-106504994D02*
X169955003Y-137104996D01*
X172614989Y-106504998D02*
X169954992Y-106504994D01*
X172614989Y-106504998D02*
X172615001Y-137104997D01*
X172615001Y-137104997D02*
X169955003Y-137104996D01*
X185194992Y-106505006D02*
X185195004Y-137104989D01*
X187854978Y-106505006D02*
X185194992Y-106505006D01*
X187854978Y-106505006D02*
X187854988Y-137105006D01*
X187854985Y-109104999D02*
X185194992Y-109104999D01*
X187854988Y-137105006D02*
X185195004Y-137104989D01*
%TD*%
M02*
