%TF.GenerationSoftware,KiCad,Pcbnew,8.0.6*%
%TF.CreationDate,2025-05-14T19:15:18+02:00*%
%TF.ProjectId,main-rounded,6d61696e-2d72-46f7-956e-6465642e6b69,v1.0.0*%
%TF.SameCoordinates,Original*%
%TF.FileFunction,Legend,Bot*%
%TF.FilePolarity,Positive*%
%FSLAX46Y46*%
G04 Gerber Fmt 4.6, Leading zero omitted, Abs format (unit mm)*
G04 Created by KiCad (PCBNEW 8.0.6) date 2025-05-14 19:15:18*
%MOMM*%
%LPD*%
G01*
G04 APERTURE LIST*
%ADD10C,0.100000*%
%ADD11C,0.120000*%
G04 APERTURE END LIST*
D10*
%TO.C,D14*%
X139905235Y-125177872D02*
X140287757Y-125294821D01*
X140287757Y-125294821D02*
X140126953Y-125820789D01*
X140287757Y-125294821D02*
X140448562Y-124768853D01*
X140287757Y-125294821D02*
X140978489Y-125087722D01*
X140744592Y-125852766D02*
X140287757Y-125294821D01*
X140861540Y-125470244D02*
X141339693Y-125616430D01*
X140978489Y-125087722D02*
X140744592Y-125852766D01*
%TO.C,D18*%
X162752973Y-115432059D02*
X163135495Y-115549008D01*
X163135495Y-115549008D02*
X162974691Y-116074976D01*
X163135495Y-115549008D02*
X163296300Y-115023040D01*
X163135495Y-115549008D02*
X163826227Y-115341909D01*
X163592330Y-116106953D02*
X163135495Y-115549008D01*
X163709278Y-115724431D02*
X164187431Y-115870617D01*
X163826227Y-115341909D02*
X163592330Y-116106953D01*
%TO.C,D32*%
X255264792Y-114323540D02*
X255647314Y-114206591D01*
X255647314Y-114206591D02*
X255486510Y-113680623D01*
X255647314Y-114206591D02*
X255808119Y-114732559D01*
X255647314Y-114206591D02*
X256104149Y-113648646D01*
X256104149Y-113648646D02*
X256338046Y-114413690D01*
X256221097Y-114031168D02*
X256699250Y-113884982D01*
X256338046Y-114413690D02*
X255647314Y-114206591D01*
%TO.C,D31*%
X260527483Y-131537025D02*
X260910005Y-131420076D01*
X260910005Y-131420076D02*
X260749201Y-130894108D01*
X260910005Y-131420076D02*
X261070810Y-131946044D01*
X260910005Y-131420076D02*
X261366840Y-130862131D01*
X261366840Y-130862131D02*
X261600737Y-131627175D01*
X261483788Y-131244653D02*
X261961941Y-131098467D01*
X261600737Y-131627175D02*
X260910005Y-131420076D01*
%TO.C,D11*%
X123489675Y-113884982D02*
X123872197Y-114001931D01*
X123872197Y-114001931D02*
X123711393Y-114527899D01*
X123872197Y-114001931D02*
X124033002Y-113475963D01*
X123872197Y-114001931D02*
X124562929Y-113794832D01*
X124329032Y-114559876D02*
X123872197Y-114001931D01*
X124445980Y-114177354D02*
X124924133Y-114323540D01*
X124562929Y-113794832D02*
X124329032Y-114559876D01*
%TO.C,D34*%
X244111923Y-142829916D02*
X244494445Y-142712967D01*
X244494445Y-142712967D02*
X244333641Y-142186999D01*
X244494445Y-142712967D02*
X244655250Y-143238935D01*
X244494445Y-142712967D02*
X244951280Y-142155022D01*
X244951280Y-142155022D02*
X245185177Y-142920066D01*
X245068228Y-142537544D02*
X245546381Y-142391358D01*
X245185177Y-142920066D02*
X244494445Y-142712967D01*
%TO.C,D6*%
X84063704Y-101643089D02*
X84454963Y-101726254D01*
X84454963Y-101726254D02*
X84340612Y-102264235D01*
X84454963Y-101726254D02*
X84569315Y-101188273D01*
X84454963Y-101726254D02*
X85125017Y-101459742D01*
X84958687Y-102242260D02*
X84454963Y-101726254D01*
X85041852Y-101851001D02*
X85530926Y-101954957D01*
X85125017Y-101459742D02*
X84958687Y-102242260D01*
%TO.C,D35*%
X238849232Y-125616430D02*
X239231754Y-125499481D01*
X239231754Y-125499481D02*
X239070950Y-124973513D01*
X239231754Y-125499481D02*
X239392559Y-126025449D01*
X239231754Y-125499481D02*
X239688589Y-124941536D01*
X239688589Y-124941536D02*
X239922486Y-125706580D01*
X239805537Y-125324058D02*
X240283690Y-125177872D01*
X239922486Y-125706580D02*
X239231754Y-125499481D01*
%TO.C,D7*%
X98595336Y-130324928D02*
X98977858Y-130441877D01*
X98977858Y-130441877D02*
X98817054Y-130967845D01*
X98977858Y-130441877D02*
X99138663Y-129915909D01*
X98977858Y-130441877D02*
X99668590Y-130234778D01*
X99434693Y-130999822D02*
X98977858Y-130441877D01*
X99551641Y-130617300D02*
X100029794Y-130763486D01*
X99668590Y-130234778D02*
X99434693Y-130999822D01*
%TO.C,D27*%
X294658000Y-101954957D02*
X295049259Y-101871792D01*
X295049259Y-101871792D02*
X294934908Y-101333811D01*
X295049259Y-101871792D02*
X295163611Y-102409773D01*
X295049259Y-101871792D02*
X295552983Y-101355786D01*
X295552983Y-101355786D02*
X295719313Y-102138304D01*
X295636148Y-101747045D02*
X296125222Y-101643089D01*
X295719313Y-102138304D02*
X295049259Y-101871792D01*
%TO.C,D5*%
X80321293Y-119249746D02*
X80712552Y-119332911D01*
X80712552Y-119332911D02*
X80598201Y-119870892D01*
X80712552Y-119332911D02*
X80826904Y-118794930D01*
X80712552Y-119332911D02*
X81382606Y-119066399D01*
X81216276Y-119848917D02*
X80712552Y-119332911D01*
X81299441Y-119457658D02*
X81788515Y-119561614D01*
X81382606Y-119066399D02*
X81216276Y-119848917D01*
%TO.C,D33*%
X250002101Y-97110054D02*
X250384623Y-96993105D01*
X250384623Y-96993105D02*
X250223819Y-96467137D01*
X250384623Y-96993105D02*
X250545428Y-97519073D01*
X250384623Y-96993105D02*
X250841458Y-96435160D01*
X250841458Y-96435160D02*
X251075355Y-97200204D01*
X250958406Y-96817682D02*
X251436559Y-96671496D01*
X251075355Y-97200204D02*
X250384623Y-96993105D01*
%TO.C,D3*%
X65478899Y-97692767D02*
X65870158Y-97775932D01*
X65870158Y-97775932D02*
X65755807Y-98313913D01*
X65870158Y-97775932D02*
X65984510Y-97237951D01*
X65870158Y-97775932D02*
X66540212Y-97509420D01*
X66373882Y-98291938D02*
X65870158Y-97775932D01*
X66457047Y-97900679D02*
X66946121Y-98004635D01*
X66540212Y-97509420D02*
X66373882Y-98291938D01*
%TO.C,D22*%
X320727625Y-133217948D02*
X321118884Y-133134783D01*
X321118884Y-133134783D02*
X321004533Y-132596802D01*
X321118884Y-133134783D02*
X321233236Y-133672764D01*
X321118884Y-133134783D02*
X321622608Y-132618777D01*
X321622608Y-132618777D02*
X321788938Y-133401295D01*
X321705773Y-133010036D02*
X322194847Y-132906080D01*
X321788938Y-133401295D02*
X321118884Y-133134783D01*
%TO.C,D40*%
X246718881Y-165038107D02*
X247101403Y-164921158D01*
X247101403Y-164921158D02*
X246940599Y-164395190D01*
X247101403Y-164921158D02*
X247262208Y-165447126D01*
X247101403Y-164921158D02*
X247558238Y-164363213D01*
X247558238Y-164363213D02*
X247792135Y-165128257D01*
X247675186Y-164745735D02*
X248153339Y-164599549D01*
X247792135Y-165128257D02*
X247101403Y-164921158D01*
%TO.C,D25*%
X302142821Y-137168271D02*
X302534080Y-137085106D01*
X302534080Y-137085106D02*
X302419729Y-136547125D01*
X302534080Y-137085106D02*
X302648432Y-137623087D01*
X302534080Y-137085106D02*
X303037804Y-136569100D01*
X303037804Y-136569100D02*
X303204134Y-137351618D01*
X303120969Y-136960359D02*
X303610043Y-136856403D01*
X303204134Y-137351618D02*
X302534080Y-137085106D01*
%TO.C,D15*%
X145167926Y-107964387D02*
X145550448Y-108081336D01*
X145550448Y-108081336D02*
X145389644Y-108607304D01*
X145550448Y-108081336D02*
X145711253Y-107555368D01*
X145550448Y-108081336D02*
X146241180Y-107874237D01*
X146007283Y-108639281D02*
X145550448Y-108081336D01*
X146124231Y-108256759D02*
X146602384Y-108402945D01*
X146241180Y-107874237D02*
X146007283Y-108639281D01*
%TO.C,D17*%
X157490282Y-132645544D02*
X157872804Y-132762493D01*
X157872804Y-132762493D02*
X157712000Y-133288461D01*
X157872804Y-132762493D02*
X158033609Y-132236525D01*
X157872804Y-132762493D02*
X158563536Y-132555394D01*
X158329639Y-133320438D02*
X157872804Y-132762493D01*
X158446587Y-132937916D02*
X158924740Y-133084102D01*
X158563536Y-132555394D02*
X158329639Y-133320438D01*
%TO.C,D13*%
X134642545Y-142391358D02*
X135025067Y-142508307D01*
X135025067Y-142508307D02*
X134864263Y-143034275D01*
X135025067Y-142508307D02*
X135185872Y-141982339D01*
X135025067Y-142508307D02*
X135715799Y-142301208D01*
X135481902Y-143066252D02*
X135025067Y-142508307D01*
X135598850Y-142683730D02*
X136077003Y-142829916D01*
X135715799Y-142301208D02*
X135481902Y-143066252D01*
%TO.C,D2*%
X61736489Y-115299424D02*
X62127748Y-115382589D01*
X62127748Y-115382589D02*
X62013397Y-115920570D01*
X62127748Y-115382589D02*
X62242100Y-114844608D01*
X62127748Y-115382589D02*
X62797802Y-115116077D01*
X62631472Y-115898595D02*
X62127748Y-115382589D01*
X62714637Y-115507336D02*
X63203711Y-115611292D01*
X62797802Y-115116077D02*
X62631472Y-115898595D01*
%TO.C,D39*%
X216001494Y-115870617D02*
X216384016Y-115753668D01*
X216384016Y-115753668D02*
X216223212Y-115227700D01*
X216384016Y-115753668D02*
X216544821Y-116279636D01*
X216384016Y-115753668D02*
X216840851Y-115195723D01*
X216840851Y-115195723D02*
X217074748Y-115960767D01*
X216957799Y-115578245D02*
X217435952Y-115432059D01*
X217074748Y-115960767D02*
X216384016Y-115753668D01*
%TO.C,D21*%
X171852364Y-182296173D02*
X172171819Y-182536899D01*
X172171819Y-182536899D02*
X171840820Y-182976148D01*
X172171819Y-182536899D02*
X172502817Y-182097649D01*
X172171819Y-182536899D02*
X172891726Y-182578534D01*
X172410274Y-183217442D02*
X172171819Y-182536899D01*
X172651000Y-182897988D02*
X173050318Y-183198895D01*
X172891726Y-182578534D02*
X172410274Y-183217442D01*
%TO.C,D26*%
X298400410Y-119561614D02*
X298791669Y-119478449D01*
X298791669Y-119478449D02*
X298677318Y-118940468D01*
X298791669Y-119478449D02*
X298906021Y-120016430D01*
X298791669Y-119478449D02*
X299295393Y-118962443D01*
X299295393Y-118962443D02*
X299461723Y-119744961D01*
X299378558Y-119353702D02*
X299867632Y-119249746D01*
X299461723Y-119744961D02*
X298791669Y-119478449D01*
%TO.C,D38*%
X221264185Y-133084102D02*
X221646707Y-132967153D01*
X221646707Y-132967153D02*
X221485903Y-132441185D01*
X221646707Y-132967153D02*
X221807512Y-133493121D01*
X221646707Y-132967153D02*
X222103542Y-132409208D01*
X222103542Y-132409208D02*
X222337439Y-133174252D01*
X222220490Y-132791730D02*
X222698643Y-132645544D01*
X222337439Y-133174252D02*
X221646707Y-132967153D01*
%TO.C,D19*%
X132035586Y-164599549D02*
X132418108Y-164716498D01*
X132418108Y-164716498D02*
X132257304Y-165242466D01*
X132418108Y-164716498D02*
X132578913Y-164190530D01*
X132418108Y-164716498D02*
X133108840Y-164509399D01*
X132874943Y-165274443D02*
X132418108Y-164716498D01*
X132991891Y-164891921D02*
X133470044Y-165038107D01*
X133108840Y-164509399D02*
X132874943Y-165274443D01*
%TO.C,D10*%
X118226984Y-131098467D02*
X118609506Y-131215416D01*
X118609506Y-131215416D02*
X118448702Y-131741384D01*
X118609506Y-131215416D02*
X118770311Y-130689448D01*
X118609506Y-131215416D02*
X119300238Y-131008317D01*
X119066341Y-131773361D02*
X118609506Y-131215416D01*
X119183289Y-131390839D02*
X119661442Y-131537025D01*
X119300238Y-131008317D02*
X119066341Y-131773361D01*
%TO.C,D9*%
X109120717Y-95897957D02*
X109503239Y-96014906D01*
X109503239Y-96014906D02*
X109342435Y-96540874D01*
X109503239Y-96014906D02*
X109664044Y-95488938D01*
X109503239Y-96014906D02*
X110193971Y-95807807D01*
X109960074Y-96572851D02*
X109503239Y-96014906D01*
X110077022Y-96190329D02*
X110555175Y-96336515D01*
X110193971Y-95807807D02*
X109960074Y-96572851D01*
%TO.C,D12*%
X128752366Y-96671496D02*
X129134888Y-96788445D01*
X129134888Y-96788445D02*
X128974084Y-97314413D01*
X129134888Y-96788445D02*
X129295693Y-96262477D01*
X129134888Y-96788445D02*
X129825620Y-96581346D01*
X129591723Y-97346390D02*
X129134888Y-96788445D01*
X129708671Y-96963868D02*
X130186824Y-97110054D01*
X129825620Y-96581346D02*
X129591723Y-97346390D01*
%TO.C,D4*%
X76578883Y-136856403D02*
X76970142Y-136939568D01*
X76970142Y-136939568D02*
X76855791Y-137477549D01*
X76970142Y-136939568D02*
X77084494Y-136401587D01*
X76970142Y-136939568D02*
X77640196Y-136673056D01*
X77473866Y-137455574D02*
X76970142Y-136939568D01*
X77557031Y-137064315D02*
X78046105Y-137168271D01*
X77640196Y-136673056D02*
X77473866Y-137455574D01*
%TO.C,D8*%
X103858026Y-113111443D02*
X104240548Y-113228392D01*
X104240548Y-113228392D02*
X104079744Y-113754360D01*
X104240548Y-113228392D02*
X104401353Y-112702424D01*
X104240548Y-113228392D02*
X104931280Y-113021293D01*
X104697383Y-113786337D02*
X104240548Y-113228392D01*
X104814331Y-113403815D02*
X105292484Y-113550001D01*
X104931280Y-113021293D02*
X104697383Y-113786337D01*
%TO.C,D30*%
X269633750Y-96336515D02*
X270016272Y-96219566D01*
X270016272Y-96219566D02*
X269855468Y-95693598D01*
X270016272Y-96219566D02*
X270177077Y-96745534D01*
X270016272Y-96219566D02*
X270473107Y-95661621D01*
X270473107Y-95661621D02*
X270707004Y-96426665D01*
X270590055Y-96044143D02*
X271068208Y-95897957D01*
X270707004Y-96426665D02*
X270016272Y-96219566D01*
%TO.C,D42*%
X207138607Y-183198895D02*
X207458062Y-182958169D01*
X207458062Y-182958169D02*
X207127063Y-182518920D01*
X207458062Y-182958169D02*
X207696517Y-182277626D01*
X207458062Y-182958169D02*
X207789060Y-183397419D01*
X207696517Y-182277626D02*
X208177969Y-182916534D01*
X207937243Y-182597080D02*
X208336561Y-182296173D01*
X208177969Y-182916534D02*
X207458062Y-182958169D01*
%TO.C,D1*%
X57994078Y-132906080D02*
X58385337Y-132989245D01*
X58385337Y-132989245D02*
X58270986Y-133527226D01*
X58385337Y-132989245D02*
X58499689Y-132451264D01*
X58385337Y-132989245D02*
X59055391Y-132722733D01*
X58889061Y-133505251D02*
X58385337Y-132989245D01*
X58972226Y-133113992D02*
X59461300Y-133217948D01*
X59055391Y-132722733D02*
X58889061Y-133505251D01*
%TO.C,D28*%
X280159132Y-130763486D02*
X280541654Y-130646537D01*
X280541654Y-130646537D02*
X280380850Y-130120569D01*
X280541654Y-130646537D02*
X280702459Y-131172505D01*
X280541654Y-130646537D02*
X280998489Y-130088592D01*
X280998489Y-130088592D02*
X281232386Y-130853636D01*
X281115437Y-130471114D02*
X281593590Y-130324928D01*
X281232386Y-130853636D02*
X280541654Y-130646537D01*
%TO.C,D37*%
X226526876Y-150297588D02*
X226909398Y-150180639D01*
X226909398Y-150180639D02*
X226748594Y-149654671D01*
X226909398Y-150180639D02*
X227070203Y-150706607D01*
X226909398Y-150180639D02*
X227366233Y-149622694D01*
X227366233Y-149622694D02*
X227600130Y-150387738D01*
X227483181Y-150005216D02*
X227961334Y-149859030D01*
X227600130Y-150387738D02*
X226909398Y-150180639D01*
%TO.C,D36*%
X233586541Y-108402945D02*
X233969063Y-108285996D01*
X233969063Y-108285996D02*
X233808259Y-107760028D01*
X233969063Y-108285996D02*
X234129868Y-108811964D01*
X233969063Y-108285996D02*
X234425898Y-107728051D01*
X234425898Y-107728051D02*
X234659795Y-108493095D01*
X234542846Y-108110573D02*
X235020999Y-107964387D01*
X234659795Y-108493095D02*
X233969063Y-108285996D01*
%TO.C,D24*%
X313242804Y-98004635D02*
X313634063Y-97921470D01*
X313634063Y-97921470D02*
X313519712Y-97383489D01*
X313634063Y-97921470D02*
X313748415Y-98459451D01*
X313634063Y-97921470D02*
X314137787Y-97405464D01*
X314137787Y-97405464D02*
X314304117Y-98187982D01*
X314220952Y-97796723D02*
X314710026Y-97692767D01*
X314304117Y-98187982D02*
X313634063Y-97921470D01*
%TO.C,D29*%
X274896441Y-113550001D02*
X275278963Y-113433052D01*
X275278963Y-113433052D02*
X275118159Y-112907084D01*
X275278963Y-113433052D02*
X275439768Y-113959020D01*
X275278963Y-113433052D02*
X275735798Y-112875107D01*
X275735798Y-112875107D02*
X275969695Y-113640151D01*
X275852746Y-113257629D02*
X276330899Y-113111443D01*
X275969695Y-113640151D02*
X275278963Y-113433052D01*
%TO.C,D23*%
X316985215Y-115611292D02*
X317376474Y-115528127D01*
X317376474Y-115528127D02*
X317262123Y-114990146D01*
X317376474Y-115528127D02*
X317490826Y-116066108D01*
X317376474Y-115528127D02*
X317880198Y-115012121D01*
X317880198Y-115012121D02*
X318046528Y-115794639D01*
X317963363Y-115403380D02*
X318452437Y-115299424D01*
X318046528Y-115794639D02*
X317376474Y-115528127D01*
%TO.C,D41*%
X226432477Y-172395426D02*
X226803351Y-172245583D01*
X226803351Y-172245583D02*
X226597317Y-171735632D01*
X226803351Y-172245583D02*
X227009384Y-172755534D01*
X226803351Y-172245583D02*
X227209818Y-171649946D01*
X227209818Y-171649946D02*
X227509504Y-172391693D01*
X227359661Y-172020819D02*
X227823253Y-171833516D01*
X227509504Y-172391693D02*
X226803351Y-172245583D01*
%TO.C,D16*%
X152227592Y-149859030D02*
X152610114Y-149975979D01*
X152610114Y-149975979D02*
X152449310Y-150501947D01*
X152610114Y-149975979D02*
X152770919Y-149450011D01*
X152610114Y-149975979D02*
X153300846Y-149768880D01*
X153066949Y-150533924D02*
X152610114Y-149975979D01*
X153183897Y-150151402D02*
X153662050Y-150297588D01*
X153300846Y-149768880D02*
X153066949Y-150533924D01*
%TO.C,D20*%
X152365672Y-171833516D02*
X152736546Y-171983359D01*
X152736546Y-171983359D02*
X152530512Y-172493310D01*
X152736546Y-171983359D02*
X152942579Y-171473408D01*
X152736546Y-171983359D02*
X153442699Y-171837249D01*
X153143013Y-172578996D02*
X152736546Y-171983359D01*
X153292856Y-172208123D02*
X153756448Y-172395426D01*
X153442699Y-171837249D02*
X153143013Y-172578996D01*
D11*
%TO.C,MCU1*%
X181170000Y-106130000D02*
X181170000Y-136730000D01*
X183830000Y-106130000D02*
X181170000Y-106130000D01*
X183830000Y-106130000D02*
X183830000Y-136730000D01*
X183830000Y-136730000D02*
X181170000Y-136730000D01*
X196410000Y-106130000D02*
X196410000Y-136730000D01*
X199070000Y-106130000D02*
X196410000Y-106130000D01*
X199070000Y-106130000D02*
X199070000Y-136730000D01*
X199070000Y-108730000D02*
X196410000Y-108730000D01*
X199070000Y-136730000D02*
X196410000Y-136730000D01*
%TD*%
M02*
