%TF.GenerationSoftware,KiCad,Pcbnew,8.0.6*%
%TF.CreationDate,2025-07-21T16:42:00+02:00*%
%TF.ProjectId,main,6d61696e-2e6b-4696-9361-645f70636258,v1.0.0*%
%TF.SameCoordinates,Original*%
%TF.FileFunction,Legend,Bot*%
%TF.FilePolarity,Positive*%
%FSLAX46Y46*%
G04 Gerber Fmt 4.6, Leading zero omitted, Abs format (unit mm)*
G04 Created by KiCad (PCBNEW 8.0.6) date 2025-07-21 16:42:00*
%MOMM*%
%LPD*%
G01*
G04 APERTURE LIST*
%ADD10C,0.100000*%
%ADD11C,0.120000*%
G04 APERTURE END LIST*
D10*
%TO.C,D34*%
X227270053Y-133465233D02*
X227652565Y-133348285D01*
X227652565Y-133348285D02*
X227491761Y-132822325D01*
X227652565Y-133348285D02*
X227813375Y-133874259D01*
X227652565Y-133348285D02*
X228109400Y-132790337D01*
X228109400Y-132790337D02*
X228343302Y-133555383D01*
X228226355Y-133172868D02*
X228704499Y-133026685D01*
X228343302Y-133555383D02*
X227652565Y-133348285D01*
%TO.C,D26*%
X276635294Y-112592199D02*
X277026548Y-112509020D01*
X277026548Y-112509020D02*
X276912192Y-111971051D01*
X277026548Y-112509020D02*
X277140892Y-113047016D01*
X277026548Y-112509020D02*
X277530261Y-111993027D01*
X277530261Y-111993027D02*
X277696595Y-112775547D01*
X277613426Y-112384292D02*
X278102496Y-112280325D01*
X277696595Y-112775547D02*
X277026548Y-112509020D01*
%TO.C,D10*%
X114653045Y-122318529D02*
X115035580Y-122435491D01*
X115035580Y-122435491D02*
X114874774Y-122961450D01*
X115035580Y-122435491D02*
X115196378Y-121909512D01*
X115035580Y-122435491D02*
X115726309Y-122228378D01*
X115492400Y-122993425D02*
X115035580Y-122435491D01*
X115609357Y-122610907D02*
X116087517Y-122757097D01*
X115726309Y-122228378D02*
X115492400Y-122993425D01*
%TO.C,D29*%
X254521735Y-106311098D02*
X254904247Y-106194150D01*
X254904247Y-106194150D02*
X254743443Y-105668190D01*
X254904247Y-106194150D02*
X255065057Y-106720124D01*
X254904247Y-106194150D02*
X255361082Y-105636202D01*
X255361082Y-105636202D02*
X255594984Y-106401248D01*
X255478037Y-106018733D02*
X255956181Y-105872550D01*
X255594984Y-106401248D02*
X254904247Y-106194150D01*
%TO.C,D25*%
X280169798Y-129220708D02*
X280561052Y-129137529D01*
X280561052Y-129137529D02*
X280446696Y-128599560D01*
X280561052Y-129137529D02*
X280675396Y-129675525D01*
X280561052Y-129137529D02*
X281064765Y-128621536D01*
X281064765Y-128621536D02*
X281231099Y-129404056D01*
X281147930Y-129012801D02*
X281637000Y-128908834D01*
X281231099Y-129404056D02*
X280561052Y-129137529D01*
%TO.C,D16*%
X144828436Y-139909598D02*
X145210971Y-140026560D01*
X145210971Y-140026560D02*
X145050165Y-140552519D01*
X145210971Y-140026560D02*
X145371769Y-139500581D01*
X145210971Y-140026560D02*
X145901700Y-139819447D01*
X145667791Y-140584494D02*
X145210971Y-140026560D01*
X145784748Y-140201976D02*
X146262908Y-140348166D01*
X145901700Y-139819447D02*
X145667791Y-140584494D01*
%TO.C,D9*%
X106874639Y-89615363D02*
X107257174Y-89732325D01*
X107257174Y-89732325D02*
X107096368Y-90258284D01*
X107257174Y-89732325D02*
X107417972Y-89206346D01*
X107257174Y-89732325D02*
X107947903Y-89525212D01*
X107713994Y-90290259D02*
X107257174Y-89732325D01*
X107830951Y-89907741D02*
X108309111Y-90053931D01*
X107947903Y-89525212D02*
X107713994Y-90290259D01*
%TO.C,D3*%
X66664005Y-92117315D02*
X67055250Y-92200488D01*
X67055250Y-92200488D02*
X66940907Y-92738459D01*
X67055250Y-92200488D02*
X67169612Y-91662507D01*
X67055250Y-92200488D02*
X67725309Y-91933989D01*
X67558983Y-92716490D02*
X67055250Y-92200488D01*
X67642142Y-92325234D02*
X68131207Y-92429195D01*
X67725309Y-91933989D02*
X67558983Y-92716490D01*
%TO.C,D2*%
X63129507Y-108745831D02*
X63520752Y-108829004D01*
X63520752Y-108829004D02*
X63406409Y-109366975D01*
X63520752Y-108829004D02*
X63635114Y-108291023D01*
X63520752Y-108829004D02*
X64190811Y-108562505D01*
X64024485Y-109345006D02*
X63520752Y-108829004D01*
X64107644Y-108953750D02*
X64596709Y-109057711D01*
X64190811Y-108562505D02*
X64024485Y-109345006D01*
%TO.C,D21*%
X156546918Y-167936416D02*
X156866386Y-168177143D01*
X156866386Y-168177143D02*
X156535376Y-168616383D01*
X156866386Y-168177143D02*
X157197385Y-167737892D01*
X156866386Y-168177143D02*
X157586295Y-168218777D01*
X157104837Y-168857683D02*
X156866386Y-168177143D01*
X157345556Y-168538220D02*
X157744880Y-168839138D01*
X157586295Y-168218777D02*
X157104837Y-168857683D01*
%TO.C,D35*%
X222299744Y-117208048D02*
X222682256Y-117091100D01*
X222682256Y-117091100D02*
X222521452Y-116565140D01*
X222682256Y-117091100D02*
X222843066Y-117617074D01*
X222682256Y-117091100D02*
X223139091Y-116533152D01*
X223139091Y-116533152D02*
X223372993Y-117298198D01*
X223256046Y-116915683D02*
X223734190Y-116769500D01*
X223372993Y-117298198D02*
X222682256Y-117091100D01*
%TO.C,D12*%
X124593667Y-89804164D02*
X124976202Y-89921126D01*
X124976202Y-89921126D02*
X124815396Y-90447085D01*
X124976202Y-89921126D02*
X125137000Y-89395147D01*
X124976202Y-89921126D02*
X125666931Y-89714013D01*
X125433022Y-90479060D02*
X124976202Y-89921126D01*
X125549979Y-90096542D02*
X126028139Y-90242732D01*
X125666931Y-89714013D02*
X125433022Y-90479060D01*
%TO.C,D23*%
X293263808Y-109057703D02*
X293655062Y-108974524D01*
X293655062Y-108974524D02*
X293540706Y-108436555D01*
X293655062Y-108974524D02*
X293769406Y-109512520D01*
X293655062Y-108974524D02*
X294158775Y-108458531D01*
X294158775Y-108458531D02*
X294325109Y-109241051D01*
X294241940Y-108849796D02*
X294731010Y-108745829D01*
X294325109Y-109241051D02*
X293655062Y-108974524D01*
%TO.C,D33*%
X231832377Y-90242726D02*
X232214889Y-90125778D01*
X232214889Y-90125778D02*
X232054085Y-89599818D01*
X232214889Y-90125778D02*
X232375699Y-90651752D01*
X232214889Y-90125778D02*
X232671724Y-89567830D01*
X232671724Y-89567830D02*
X232905626Y-90332876D01*
X232788679Y-89950361D02*
X233266823Y-89804178D01*
X232905626Y-90332876D02*
X232214889Y-90125778D01*
%TO.C,D4*%
X76223520Y-128908845D02*
X76614765Y-128992018D01*
X76614765Y-128992018D02*
X76500422Y-129529989D01*
X76614765Y-128992018D02*
X76729127Y-128454037D01*
X76614765Y-128992018D02*
X77284824Y-128725519D01*
X77118498Y-129508020D02*
X76614765Y-128992018D01*
X77201657Y-129116764D02*
X77690722Y-129220725D01*
X77284824Y-128725519D02*
X77118498Y-129508020D01*
%TO.C,D36*%
X217329420Y-100950869D02*
X217711932Y-100833921D01*
X217711932Y-100833921D02*
X217551128Y-100307961D01*
X217711932Y-100833921D02*
X217872742Y-101359895D01*
X217711932Y-100833921D02*
X218168767Y-100275973D01*
X218168767Y-100275973D02*
X218402669Y-101041019D01*
X218285722Y-100658504D02*
X218763866Y-100512321D01*
X218402669Y-101041019D02*
X217711932Y-100833921D01*
%TO.C,D41*%
X217218475Y-158637928D02*
X217589345Y-158488094D01*
X217589345Y-158488094D02*
X217383324Y-157978143D01*
X217589345Y-158488094D02*
X217795390Y-158998043D01*
X217589345Y-158488094D02*
X217995820Y-157892456D01*
X217995820Y-157892456D02*
X218295499Y-158634198D01*
X218145669Y-158263316D02*
X218609257Y-158076026D01*
X218295499Y-158634198D02*
X217589345Y-158488094D01*
%TO.C,D14*%
X134126321Y-116769498D02*
X134508856Y-116886460D01*
X134508856Y-116886460D02*
X134348050Y-117412419D01*
X134508856Y-116886460D02*
X134669654Y-116360481D01*
X134508856Y-116886460D02*
X135199585Y-116679347D01*
X134965676Y-117444394D02*
X134508856Y-116886460D01*
X135082633Y-117061876D02*
X135560793Y-117208066D01*
X135199585Y-116679347D02*
X134965676Y-117444394D01*
%TO.C,D42*%
X200115620Y-168839134D02*
X200435086Y-168598414D01*
X200435086Y-168598414D02*
X200104095Y-168159158D01*
X200435086Y-168598414D02*
X200673547Y-167917860D01*
X200435086Y-168598414D02*
X200766092Y-169037659D01*
X200673547Y-167917860D02*
X201155000Y-168556773D01*
X200914275Y-168237328D02*
X201313606Y-167936410D01*
X201155000Y-168556773D02*
X200435086Y-168598414D01*
%TO.C,D30*%
X249551419Y-90053927D02*
X249933931Y-89936979D01*
X249933931Y-89936979D02*
X249773127Y-89411019D01*
X249933931Y-89936979D02*
X250094741Y-90462953D01*
X249933931Y-89936979D02*
X250390766Y-89379031D01*
X250390766Y-89379031D02*
X250624668Y-90144077D01*
X250507721Y-89761562D02*
X250985865Y-89615379D01*
X250624668Y-90144077D02*
X249933931Y-89936979D01*
%TO.C,D22*%
X296798313Y-125686219D02*
X297189567Y-125603040D01*
X297189567Y-125603040D02*
X297075211Y-125065071D01*
X297189567Y-125603040D02*
X297303911Y-126141036D01*
X297189567Y-125603040D02*
X297693280Y-125087047D01*
X297693280Y-125087047D02*
X297859614Y-125869567D01*
X297776445Y-125478312D02*
X298265515Y-125374345D01*
X297859614Y-125869567D02*
X297189567Y-125603040D01*
%TO.C,D7*%
X96933999Y-122129720D02*
X97316534Y-122246682D01*
X97316534Y-122246682D02*
X97155728Y-122772641D01*
X97316534Y-122246682D02*
X97477332Y-121720703D01*
X97316534Y-122246682D02*
X98007263Y-122039569D01*
X97773354Y-122804616D02*
X97316534Y-122246682D01*
X97890311Y-122422098D02*
X98368471Y-122568288D01*
X98007263Y-122039569D02*
X97773354Y-122804616D01*
%TO.C,D28*%
X259492055Y-122568285D02*
X259874567Y-122451337D01*
X259874567Y-122451337D02*
X259713763Y-121925377D01*
X259874567Y-122451337D02*
X260035377Y-122977311D01*
X259874567Y-122451337D02*
X260331402Y-121893389D01*
X260331402Y-121893389D02*
X260565304Y-122658435D01*
X260448357Y-122275920D02*
X260926501Y-122129737D01*
X260565304Y-122658435D02*
X259874567Y-122451337D01*
%TO.C,D31*%
X241773017Y-122757079D02*
X242155529Y-122640131D01*
X242155529Y-122640131D02*
X241994725Y-122114171D01*
X242155529Y-122640131D02*
X242316339Y-123166105D01*
X242155529Y-122640131D02*
X242612364Y-122082183D01*
X242612364Y-122082183D02*
X242846266Y-122847229D01*
X242729319Y-122464714D02*
X243207463Y-122318531D01*
X242846266Y-122847229D02*
X242155529Y-122640131D01*
%TO.C,D6*%
X83292516Y-95651818D02*
X83683761Y-95734991D01*
X83683761Y-95734991D02*
X83569418Y-96272962D01*
X83683761Y-95734991D02*
X83798123Y-95197010D01*
X83683761Y-95734991D02*
X84353820Y-95468492D01*
X84187494Y-96250993D02*
X83683761Y-95734991D01*
X84270653Y-95859737D02*
X84759718Y-95963698D01*
X84353820Y-95468492D02*
X84187494Y-96250993D01*
%TO.C,D37*%
X211597621Y-140348156D02*
X211980133Y-140231208D01*
X211980133Y-140231208D02*
X211819329Y-139705248D01*
X211980133Y-140231208D02*
X212140943Y-140757182D01*
X211980133Y-140231208D02*
X212436968Y-139673260D01*
X212436968Y-139673260D02*
X212670870Y-140438306D01*
X212553923Y-140055791D02*
X213032067Y-139909608D01*
X212670870Y-140438306D02*
X211980133Y-140231208D01*
%TO.C,D40*%
X234073797Y-152298951D02*
X234456309Y-152182003D01*
X234456309Y-152182003D02*
X234295505Y-151656043D01*
X234456309Y-152182003D02*
X234617119Y-152707977D01*
X234456309Y-152182003D02*
X234913144Y-151624055D01*
X234913144Y-151624055D02*
X235147046Y-152389101D01*
X235030099Y-152006586D02*
X235508243Y-151860403D01*
X235147046Y-152389101D02*
X234456309Y-152182003D01*
%TO.C,D5*%
X79758011Y-112280334D02*
X80149256Y-112363507D01*
X80149256Y-112363507D02*
X80034913Y-112901478D01*
X80149256Y-112363507D02*
X80263618Y-111825526D01*
X80149256Y-112363507D02*
X80819315Y-112097008D01*
X80652989Y-112879509D02*
X80149256Y-112363507D01*
X80736148Y-112488253D02*
X81225213Y-112592214D01*
X80819315Y-112097008D02*
X80652989Y-112879509D01*
%TO.C,D19*%
X122352254Y-151860397D02*
X122734789Y-151977359D01*
X122734789Y-151977359D02*
X122573983Y-152503318D01*
X122734789Y-151977359D02*
X122895587Y-151451380D01*
X122734789Y-151977359D02*
X123425518Y-151770246D01*
X123191609Y-152535293D02*
X122734789Y-151977359D01*
X123308566Y-152152775D02*
X123786726Y-152298965D01*
X123425518Y-151770246D02*
X123191609Y-152535293D01*
%TO.C,D38*%
X206627307Y-124090982D02*
X207009819Y-123974034D01*
X207009819Y-123974034D02*
X206849015Y-123448074D01*
X207009819Y-123974034D02*
X207170629Y-124500008D01*
X207009819Y-123974034D02*
X207466654Y-123416086D01*
X207466654Y-123416086D02*
X207700556Y-124181132D01*
X207583609Y-123798617D02*
X208061753Y-123652434D01*
X207700556Y-124181132D02*
X207009819Y-123974034D01*
%TO.C,D13*%
X129155993Y-133026666D02*
X129538528Y-133143628D01*
X129538528Y-133143628D02*
X129377722Y-133669587D01*
X129538528Y-133143628D02*
X129699326Y-132617649D01*
X129538528Y-133143628D02*
X130229257Y-132936515D01*
X129995348Y-133701562D02*
X129538528Y-133143628D01*
X130112305Y-133319044D02*
X130590465Y-133465234D01*
X130229257Y-132936515D02*
X129995348Y-133701562D01*
%TO.C,D39*%
X201656975Y-107833798D02*
X202039487Y-107716850D01*
X202039487Y-107716850D02*
X201878683Y-107190890D01*
X202039487Y-107716850D02*
X202200297Y-108242824D01*
X202039487Y-107716850D02*
X202496322Y-107158902D01*
X202496322Y-107158902D02*
X202730224Y-107923948D01*
X202613277Y-107541433D02*
X203091421Y-107395250D01*
X202730224Y-107923948D02*
X202039487Y-107716850D01*
%TO.C,D27*%
X273100803Y-95963686D02*
X273492057Y-95880507D01*
X273492057Y-95880507D02*
X273377701Y-95342538D01*
X273492057Y-95880507D02*
X273606401Y-96418503D01*
X273492057Y-95880507D02*
X273995770Y-95364514D01*
X273995770Y-95364514D02*
X274162104Y-96147034D01*
X274078935Y-95755779D02*
X274568005Y-95651812D01*
X274162104Y-96147034D02*
X273492057Y-95880507D01*
%TO.C,D15*%
X139096635Y-100512306D02*
X139479170Y-100629268D01*
X139479170Y-100629268D02*
X139318364Y-101155227D01*
X139479170Y-100629268D02*
X139639968Y-100103289D01*
X139479170Y-100629268D02*
X140169899Y-100422155D01*
X139935990Y-101187202D02*
X139479170Y-100629268D01*
X140052947Y-100804684D02*
X140531107Y-100950874D01*
X140169899Y-100422155D02*
X139935990Y-101187202D01*
%TO.C,D17*%
X149798751Y-123652423D02*
X150181286Y-123769385D01*
X150181286Y-123769385D02*
X150020480Y-124295344D01*
X150181286Y-123769385D02*
X150342084Y-123243406D01*
X150181286Y-123769385D02*
X150872015Y-123562272D01*
X150638106Y-124327319D02*
X150181286Y-123769385D01*
X150755063Y-123944801D02*
X151233223Y-124090991D01*
X150872015Y-123562272D02*
X150638106Y-124327319D01*
%TO.C,D8*%
X101904327Y-105872551D02*
X102286862Y-105989513D01*
X102286862Y-105989513D02*
X102126056Y-106515472D01*
X102286862Y-105989513D02*
X102447660Y-105463534D01*
X102286862Y-105989513D02*
X102977591Y-105782400D01*
X102743682Y-106547447D02*
X102286862Y-105989513D01*
X102860639Y-106164929D02*
X103338799Y-106311119D01*
X102977591Y-105782400D02*
X102743682Y-106547447D01*
%TO.C,D11*%
X119623354Y-106061343D02*
X120005889Y-106178305D01*
X120005889Y-106178305D02*
X119845083Y-106704264D01*
X120005889Y-106178305D02*
X120166687Y-105652326D01*
X120005889Y-106178305D02*
X120696618Y-105971192D01*
X120462709Y-106736239D02*
X120005889Y-106178305D01*
X120579666Y-106353721D02*
X121057826Y-106499911D01*
X120696618Y-105971192D02*
X120462709Y-106736239D01*
%TO.C,D32*%
X236802702Y-106499900D02*
X237185214Y-106382952D01*
X237185214Y-106382952D02*
X237024410Y-105856992D01*
X237185214Y-106382952D02*
X237346024Y-106908926D01*
X237185214Y-106382952D02*
X237642049Y-105825004D01*
X237642049Y-105825004D02*
X237875951Y-106590050D01*
X237759004Y-106207535D02*
X238237148Y-106061352D01*
X237875951Y-106590050D02*
X237185214Y-106382952D01*
%TO.C,D1*%
X59595010Y-125374335D02*
X59986255Y-125457508D01*
X59986255Y-125457508D02*
X59871912Y-125995479D01*
X59986255Y-125457508D02*
X60100617Y-124919527D01*
X59986255Y-125457508D02*
X60656314Y-125191009D01*
X60489988Y-125973510D02*
X59986255Y-125457508D01*
X60573147Y-125582254D02*
X61062212Y-125686215D01*
X60656314Y-125191009D02*
X60489988Y-125973510D01*
%TO.C,D18*%
X154769068Y-107395243D02*
X155151603Y-107512205D01*
X155151603Y-107512205D02*
X154990797Y-108038164D01*
X155151603Y-107512205D02*
X155312401Y-106986226D01*
X155151603Y-107512205D02*
X155842332Y-107305092D01*
X155608423Y-108070139D02*
X155151603Y-107512205D01*
X155725380Y-107687621D02*
X156203540Y-107833811D01*
X155842332Y-107305092D02*
X155608423Y-108070139D01*
%TO.C,D20*%
X139251250Y-158076023D02*
X139622133Y-158225863D01*
X139622133Y-158225863D02*
X139416102Y-158735807D01*
X139622133Y-158225863D02*
X139828170Y-157715917D01*
X139622133Y-158225863D02*
X140328280Y-158079759D01*
X140028591Y-158821508D02*
X139622133Y-158225863D01*
X140178441Y-158450640D02*
X140642042Y-158637933D01*
X140328280Y-158079759D02*
X140028591Y-158821508D01*
%TO.C,D24*%
X289729310Y-92429198D02*
X290120564Y-92346019D01*
X290120564Y-92346019D02*
X290006208Y-91808050D01*
X290120564Y-92346019D02*
X290234908Y-92884015D01*
X290120564Y-92346019D02*
X290624277Y-91830026D01*
X290624277Y-91830026D02*
X290790611Y-92612546D01*
X290707442Y-92221291D02*
X291196512Y-92117324D01*
X290790611Y-92612546D02*
X290120564Y-92346019D01*
D11*
%TO.C,MCU1*%
X169954993Y-106505001D02*
X169955001Y-137104998D01*
X172614989Y-106505000D02*
X169954993Y-106505001D01*
X172614989Y-106505000D02*
X172615000Y-137104997D01*
X172615000Y-137104997D02*
X169955001Y-137104998D01*
X185194992Y-106505008D02*
X185195004Y-137104993D01*
X187854984Y-106505008D02*
X185194992Y-106505008D01*
X187854984Y-106505008D02*
X187854989Y-137105008D01*
X187854989Y-137105008D02*
X185195004Y-137104993D01*
X187854989Y-109105000D02*
X185194992Y-109105003D01*
%TD*%
M02*
