%TF.GenerationSoftware,KiCad,Pcbnew,8.0.6*%
%TF.CreationDate,2025-08-02T20:54:25+02:00*%
%TF.ProjectId,main,6d61696e-2e6b-4696-9361-645f70636258,v1.0.0*%
%TF.SameCoordinates,Original*%
%TF.FileFunction,Profile,NP*%
%FSLAX46Y46*%
G04 Gerber Fmt 4.6, Leading zero omitted, Abs format (unit mm)*
G04 Created by KiCad (PCBNEW 8.0.6) date 2025-08-02 20:54:25*
%MOMM*%
%LPD*%
G01*
G04 APERTURE LIST*
%TA.AperFunction,Profile*%
%ADD10C,0.150000*%
%TD*%
%TA.AperFunction,Profile*%
%ADD11C,0.050000*%
%TD*%
%TA.AperFunction,Profile*%
%ADD12C,0.100000*%
%TD*%
G04 APERTURE END LIST*
D10*
X117447982Y-80593787D02*
G75*
G02*
X118011433Y-80681060I-21282J-1999913D01*
G01*
X82024373Y-142281781D02*
X49989174Y-135785765D01*
X58614096Y-85499037D02*
G75*
G02*
X60986232Y-83958547I1956404J-415963D01*
G01*
D11*
X172675001Y-104000003D02*
X172550005Y-104000001D01*
D10*
X200604836Y-183746562D02*
G75*
G02*
X199401211Y-184149296I-1203836J1597862D01*
G01*
X100296642Y-80411039D02*
X117447982Y-80593787D01*
X82651410Y-142308456D02*
G75*
G02*
X82024373Y-142281780I-229610J1985656D01*
G01*
X220797892Y-86561182D02*
G75*
G02*
X221220395Y-86376428I1007808J-1729218D01*
G01*
X309434082Y-133428267D02*
G75*
G02*
X307893587Y-135800348I-1956382J-415732D01*
G01*
X126038091Y-165901566D02*
G75*
G02*
X126169485Y-165948111I-600891J-1905034D01*
G01*
X141564209Y-172013238D02*
G75*
G02*
X142034731Y-172276770I-732509J-1859662D01*
G01*
X60986227Y-83958572D02*
X75183133Y-86976209D01*
X275827789Y-142286272D02*
G75*
G02*
X275218088Y-142309517I-380189J1964472D01*
G01*
X293239207Y-138915275D02*
G75*
G02*
X293203513Y-138922523I-411907J1936875D01*
G01*
D11*
X185100007Y-137099998D02*
X185124995Y-104050007D01*
D10*
X136640118Y-86376416D02*
G75*
G02*
X137062612Y-86561201I-584318J-1911384D01*
G01*
X76127097Y-86948916D02*
X99747189Y-80481928D01*
X158459306Y-184149294D02*
G75*
G02*
X157255654Y-183746577I194J2000694D01*
G01*
X307893595Y-135800385D02*
X293239207Y-138915275D01*
X141564209Y-172013238D02*
X126169485Y-165948111D01*
X76127097Y-86948916D02*
G75*
G02*
X75183129Y-86976228I-528197J1929216D01*
G01*
X98085183Y-140525087D02*
X82651410Y-142308456D01*
X126038091Y-165901566D02*
X110736830Y-161074411D01*
X191289902Y-103763208D02*
G75*
G02*
X190282637Y-104035362I-1007102J1727308D01*
G01*
X258113317Y-80481918D02*
X281733413Y-86948912D01*
X240412517Y-80593797D02*
X257563882Y-80411052D01*
X257765613Y-141600204D02*
X248302110Y-160078736D01*
X49989174Y-135785765D02*
G75*
G02*
X48430362Y-133409847I397426J1960065D01*
G01*
X282677367Y-86976209D02*
G75*
G02*
X281733410Y-86948922I-415867J1954709D01*
G01*
X110736830Y-161074411D02*
G75*
G02*
X109558406Y-160078752I601669J1907311D01*
G01*
X248302110Y-160078736D02*
G75*
G02*
X247123691Y-161074432I-1780310J911835D01*
G01*
X215825776Y-172276765D02*
X200604836Y-183746562D01*
D11*
X167577880Y-104035356D02*
X172550005Y-104000001D01*
D10*
X48430355Y-133409846D02*
X58614096Y-85499037D01*
X247123689Y-161074424D02*
X231822416Y-165901575D01*
X167577880Y-104035356D02*
G75*
G02*
X166570620Y-103763219I-80J1999856D01*
G01*
X299246411Y-85499037D02*
X309434082Y-133428267D01*
X118011430Y-80681071D02*
X136640118Y-86376416D01*
D11*
X172700000Y-137150003D02*
X172675001Y-104000003D01*
X172700000Y-137150003D02*
X185100007Y-137099998D01*
D10*
X109558404Y-160078753D02*
X100094892Y-141600199D01*
X231691032Y-165948118D02*
G75*
G02*
X231822416Y-165901576I729768J-1851382D01*
G01*
X282677367Y-86976209D02*
X296874294Y-83958564D01*
D11*
X185124995Y-104050007D02*
X190282637Y-104035373D01*
D10*
X231691032Y-165948118D02*
X216296308Y-172013225D01*
X215825776Y-172276765D02*
G75*
G02*
X216296305Y-172013217I1202524J-1595135D01*
G01*
X221220395Y-86376428D02*
X239849072Y-80681075D01*
X137062617Y-86561193D02*
X166570625Y-103763211D01*
X293203513Y-138922524D02*
X275827789Y-142286272D01*
X275218089Y-142309506D02*
X259775336Y-140525076D01*
X157255667Y-183746559D02*
X142034731Y-172276770D01*
X98085183Y-140525087D02*
G75*
G02*
X100094942Y-141600174I229617J-1986813D01*
G01*
X191289902Y-103763208D02*
X220797892Y-86561182D01*
X296874294Y-83958564D02*
G75*
G02*
X299246423Y-85499034I415806J-1956336D01*
G01*
X257765613Y-141600204D02*
G75*
G02*
X259775334Y-140525091I1779987J-911396D01*
G01*
X257563882Y-80411052D02*
G75*
G02*
X258113318Y-80481915I21218J-2000948D01*
G01*
X99747189Y-80481928D02*
G75*
G02*
X100296642Y-80411028I528211J-1928972D01*
G01*
X239849072Y-80681075D02*
G75*
G02*
X240412517Y-80593807I584728J-1912725D01*
G01*
X199401211Y-184149293D02*
X158459306Y-184149294D01*
D12*
%TO.C,CPG1316*%
X251785812Y-112999442D02*
G75*
G02*
X250785816Y-112999442I-499998J0D01*
G01*
X250785816Y-112999442D02*
G75*
G02*
X251785812Y-112999442I499998J0D01*
G01*
X261370902Y-104348248D02*
G75*
G02*
X260170898Y-104348248I-600002J0D01*
G01*
X260170898Y-104348248D02*
G75*
G02*
X261370902Y-104348248I600002J0D01*
G01*
X113700600Y-109796724D02*
G75*
G02*
X112700612Y-109796724I-499994J0D01*
G01*
X112700612Y-109796724D02*
G75*
G02*
X113700600Y-109796724I499994J0D01*
G01*
X126501773Y-107928562D02*
G75*
G02*
X125301775Y-107928562I-599999J0D01*
G01*
X125301775Y-107928562D02*
G75*
G02*
X126501773Y-107928562I599999J0D01*
G01*
X118670921Y-93539546D02*
G75*
G02*
X117670933Y-93539546I-499994J0D01*
G01*
X117670933Y-93539546D02*
G75*
G02*
X118670921Y-93539546I499994J0D01*
G01*
X131472094Y-91671384D02*
G75*
G02*
X130272096Y-91671384I-599999J0D01*
G01*
X130272096Y-91671384D02*
G75*
G02*
X131472094Y-91671384I599999J0D01*
G01*
X123233221Y-136762047D02*
G75*
G02*
X122233233Y-136762047I-499994J0D01*
G01*
X122233233Y-136762047D02*
G75*
G02*
X123233221Y-136762047I499994J0D01*
G01*
X136034394Y-134893885D02*
G75*
G02*
X134834396Y-134893885I-599999J0D01*
G01*
X134834396Y-134893885D02*
G75*
G02*
X136034394Y-134893885I599999J0D01*
G01*
X229096454Y-96931067D02*
G75*
G02*
X228096458Y-96931067I-499998J0D01*
G01*
X228096458Y-96931067D02*
G75*
G02*
X229096454Y-96931067I499998J0D01*
G01*
X238681544Y-88279873D02*
G75*
G02*
X237481540Y-88279873I-600002J0D01*
G01*
X237481540Y-88279873D02*
G75*
G02*
X238681544Y-88279873I600002J0D01*
G01*
X70650741Y-133189792D02*
G75*
G02*
X69650735Y-133189792I-500003J0D01*
G01*
X69650735Y-133189792D02*
G75*
G02*
X70650741Y-133189792I500003J0D01*
G01*
X83240763Y-130221752D02*
G75*
G02*
X82040769Y-130221752I-599997J0D01*
G01*
X82040769Y-130221752D02*
G75*
G02*
X83240763Y-130221752I599997J0D01*
G01*
X100951886Y-93350765D02*
G75*
G02*
X99951898Y-93350765I-499994J0D01*
G01*
X99951898Y-93350765D02*
G75*
G02*
X100951886Y-93350765I499994J0D01*
G01*
X113753059Y-91482603D02*
G75*
G02*
X112553061Y-91482603I-599999J0D01*
G01*
X112553061Y-91482603D02*
G75*
G02*
X113753059Y-91482603I599999J0D01*
G01*
X224534151Y-140153580D02*
G75*
G02*
X223534155Y-140153580I-499998J0D01*
G01*
X223534155Y-140153580D02*
G75*
G02*
X224534151Y-140153580I499998J0D01*
G01*
X234119241Y-131502386D02*
G75*
G02*
X232919237Y-131502386I-600002J0D01*
G01*
X232919237Y-131502386D02*
G75*
G02*
X234119241Y-131502386I600002J0D01*
G01*
X215077799Y-165582834D02*
G75*
G02*
X214077789Y-165582834I-500005J0D01*
G01*
X214077789Y-165582834D02*
G75*
G02*
X215077799Y-165582834I500005J0D01*
G01*
X223872792Y-156137892D02*
G75*
G02*
X222672808Y-156137892I-599992J0D01*
G01*
X222672808Y-156137892D02*
G75*
G02*
X223872792Y-156137892I599992J0D01*
G01*
X148846308Y-111130626D02*
G75*
G02*
X147846320Y-111130626I-499994J0D01*
G01*
X147846320Y-111130626D02*
G75*
G02*
X148846308Y-111130626I499994J0D01*
G01*
X161647481Y-109262464D02*
G75*
G02*
X160447483Y-109262464I-599999J0D01*
G01*
X160447483Y-109262464D02*
G75*
G02*
X161647481Y-109262464I599999J0D01*
G01*
X74185258Y-116561286D02*
G75*
G02*
X73185252Y-116561286I-500003J0D01*
G01*
X73185252Y-116561286D02*
G75*
G02*
X74185258Y-116561286I500003J0D01*
G01*
X86775280Y-113593246D02*
G75*
G02*
X85575286Y-113593246I-599997J0D01*
G01*
X85575286Y-113593246D02*
G75*
G02*
X86775280Y-113593246I599997J0D01*
G01*
X219563831Y-123896398D02*
G75*
G02*
X218563835Y-123896398I-499998J0D01*
G01*
X218563835Y-123896398D02*
G75*
G02*
X219563831Y-123896398I499998J0D01*
G01*
X229148921Y-115245204D02*
G75*
G02*
X227948917Y-115245204I-600002J0D01*
G01*
X227948917Y-115245204D02*
G75*
G02*
X229148921Y-115245204I600002J0D01*
G01*
X149733918Y-169249805D02*
G75*
G02*
X148733936Y-169249805I-499991J0D01*
G01*
X148733936Y-169249805D02*
G75*
G02*
X149733918Y-169249805I499991J0D01*
G01*
X162408083Y-171838359D02*
G75*
G02*
X161208063Y-171838359I-600010J0D01*
G01*
X161208063Y-171838359D02*
G75*
G02*
X162408083Y-171838359I600010J0D01*
G01*
X57556722Y-113026783D02*
G75*
G02*
X56556716Y-113026783I-500003J0D01*
G01*
X56556716Y-113026783D02*
G75*
G02*
X57556722Y-113026783I500003J0D01*
G01*
X70146744Y-110058743D02*
G75*
G02*
X68946750Y-110058743I-599997J0D01*
G01*
X68946750Y-110058743D02*
G75*
G02*
X70146744Y-110058743I599997J0D01*
G01*
X95981564Y-109607929D02*
G75*
G02*
X94981576Y-109607929I-499994J0D01*
G01*
X94981576Y-109607929D02*
G75*
G02*
X95981564Y-109607929I499994J0D01*
G01*
X108782737Y-107739767D02*
G75*
G02*
X107582739Y-107739767I-599999J0D01*
G01*
X107582739Y-107739767D02*
G75*
G02*
X108782737Y-107739767I599999J0D01*
G01*
X198921081Y-114522147D02*
G75*
G02*
X197921085Y-114522147I-499998J0D01*
G01*
X197921085Y-114522147D02*
G75*
G02*
X198921081Y-114522147I499998J0D01*
G01*
X208506171Y-105870953D02*
G75*
G02*
X207306167Y-105870953I-600002J0D01*
G01*
X207306167Y-105870953D02*
G75*
G02*
X208506171Y-105870953I600002J0D01*
G01*
X239037096Y-129445422D02*
G75*
G02*
X238037100Y-129445422I-499998J0D01*
G01*
X238037100Y-129445422D02*
G75*
G02*
X239037096Y-129445422I499998J0D01*
G01*
X248622186Y-120794228D02*
G75*
G02*
X247422182Y-120794228I-600002J0D01*
G01*
X247422182Y-120794228D02*
G75*
G02*
X248622186Y-120794228I600002J0D01*
G01*
X208861706Y-147036518D02*
G75*
G02*
X207861710Y-147036518I-499998J0D01*
G01*
X207861710Y-147036518D02*
G75*
G02*
X208861706Y-147036518I499998J0D01*
G01*
X218446796Y-138385324D02*
G75*
G02*
X217246792Y-138385324I-600002J0D01*
G01*
X217246792Y-138385324D02*
G75*
G02*
X218446796Y-138385324I600002J0D01*
G01*
X234066777Y-113188246D02*
G75*
G02*
X233066781Y-113188246I-499998J0D01*
G01*
X233066781Y-113188246D02*
G75*
G02*
X234066777Y-113188246I499998J0D01*
G01*
X243651867Y-104537052D02*
G75*
G02*
X242451863Y-104537052I-600002J0D01*
G01*
X242451863Y-104537052D02*
G75*
G02*
X243651867Y-104537052I600002J0D01*
G01*
X286422763Y-98810060D02*
G75*
G02*
X285422773Y-98810060I-499995J0D01*
G01*
X285422773Y-98810060D02*
G75*
G02*
X286422763Y-98810060I499995J0D01*
G01*
X296725766Y-91018472D02*
G75*
G02*
X295525766Y-91018472I-600000J0D01*
G01*
X295525766Y-91018472D02*
G75*
G02*
X296725766Y-91018472I600000J0D01*
G01*
X276863236Y-135601560D02*
G75*
G02*
X275863246Y-135601560I-499995J0D01*
G01*
X275863246Y-135601560D02*
G75*
G02*
X276863236Y-135601560I499995J0D01*
G01*
X287166239Y-127809972D02*
G75*
G02*
X285966239Y-127809972I-600000J0D01*
G01*
X285966239Y-127809972D02*
G75*
G02*
X287166239Y-127809972I600000J0D01*
G01*
X116429491Y-155595773D02*
G75*
G02*
X115429503Y-155595773I-499994J0D01*
G01*
X115429503Y-155595773D02*
G75*
G02*
X116429491Y-155595773I499994J0D01*
G01*
X129230664Y-153727611D02*
G75*
G02*
X128030666Y-153727611I-599999J0D01*
G01*
X128030666Y-153727611D02*
G75*
G02*
X129230664Y-153727611I599999J0D01*
G01*
X214593511Y-107639217D02*
G75*
G02*
X213593515Y-107639217I-499998J0D01*
G01*
X213593515Y-107639217D02*
G75*
G02*
X214593511Y-107639217I499998J0D01*
G01*
X224178601Y-98988023D02*
G75*
G02*
X222978597Y-98988023I-600002J0D01*
G01*
X222978597Y-98988023D02*
G75*
G02*
X224178601Y-98988023I600002J0D01*
G01*
X289957247Y-115438556D02*
G75*
G02*
X288957257Y-115438556I-499995J0D01*
G01*
X288957257Y-115438556D02*
G75*
G02*
X289957247Y-115438556I499995J0D01*
G01*
X300260250Y-107646968D02*
G75*
G02*
X299060250Y-107646968I-600000J0D01*
G01*
X299060250Y-107646968D02*
G75*
G02*
X300260250Y-107646968I600000J0D01*
G01*
X138905664Y-143644992D02*
G75*
G02*
X137905676Y-143644992I-499994J0D01*
G01*
X137905676Y-143644992D02*
G75*
G02*
X138905664Y-143644992I499994J0D01*
G01*
X151706837Y-141776830D02*
G75*
G02*
X150506839Y-141776830I-599999J0D01*
G01*
X150506839Y-141776830D02*
G75*
G02*
X151706837Y-141776830I599999J0D01*
G01*
X128203556Y-120504891D02*
G75*
G02*
X127203568Y-120504891I-499994J0D01*
G01*
X127203568Y-120504891D02*
G75*
G02*
X128203556Y-120504891I499994J0D01*
G01*
X141004729Y-118636729D02*
G75*
G02*
X139804731Y-118636729I-599999J0D01*
G01*
X139804731Y-118636729D02*
G75*
G02*
X141004729Y-118636729I599999J0D01*
G01*
X91011242Y-125865132D02*
G75*
G02*
X90011254Y-125865132I-499994J0D01*
G01*
X90011254Y-125865132D02*
G75*
G02*
X91011242Y-125865132I499994J0D01*
G01*
X103812415Y-123996970D02*
G75*
G02*
X102612417Y-123996970I-599999J0D01*
G01*
X102612417Y-123996970D02*
G75*
G02*
X103812415Y-123996970I599999J0D01*
G01*
X231337881Y-158987287D02*
G75*
G02*
X230337885Y-158987287I-499998J0D01*
G01*
X230337885Y-158987287D02*
G75*
G02*
X231337881Y-158987287I499998J0D01*
G01*
X240922971Y-150336093D02*
G75*
G02*
X239722967Y-150336093I-600002J0D01*
G01*
X239722967Y-150336093D02*
G75*
G02*
X240922971Y-150336093I600002J0D01*
G01*
X273328753Y-118973063D02*
G75*
G02*
X272328763Y-118973063I-499995J0D01*
G01*
X272328763Y-118973063D02*
G75*
G02*
X273328753Y-118973063I499995J0D01*
G01*
X283631756Y-111181475D02*
G75*
G02*
X282431756Y-111181475I-600000J0D01*
G01*
X282431756Y-111181475D02*
G75*
G02*
X283631756Y-111181475I600000J0D01*
G01*
X61091228Y-96398282D02*
G75*
G02*
X60091222Y-96398282I-500003J0D01*
G01*
X60091222Y-96398282D02*
G75*
G02*
X61091228Y-96398282I500003J0D01*
G01*
X73681250Y-93430242D02*
G75*
G02*
X72481256Y-93430242I-599997J0D01*
G01*
X72481256Y-93430242D02*
G75*
G02*
X73681250Y-93430242I599997J0D01*
G01*
X77719745Y-99932767D02*
G75*
G02*
X76719739Y-99932767I-500003J0D01*
G01*
X76719739Y-99932767D02*
G75*
G02*
X77719745Y-99932767I500003J0D01*
G01*
X90309767Y-96964727D02*
G75*
G02*
X89109773Y-96964727I-599997J0D01*
G01*
X89109773Y-96964727D02*
G75*
G02*
X90309767Y-96964727I599997J0D01*
G01*
X133027382Y-161237406D02*
G75*
G02*
X132027376Y-161237406I-500003J0D01*
G01*
X132027376Y-161237406D02*
G75*
G02*
X133027382Y-161237406I500003J0D01*
G01*
X145943051Y-160483332D02*
G75*
G02*
X144743055Y-160483332I-599998J0D01*
G01*
X144743055Y-160483332D02*
G75*
G02*
X145943051Y-160483332I599998J0D01*
G01*
X203891385Y-130779317D02*
G75*
G02*
X202891389Y-130779317I-499998J0D01*
G01*
X202891389Y-130779317D02*
G75*
G02*
X203891385Y-130779317I499998J0D01*
G01*
X213476475Y-122128123D02*
G75*
G02*
X212276471Y-122128123I-600002J0D01*
G01*
X212276471Y-122128123D02*
G75*
G02*
X213476475Y-122128123I600002J0D01*
G01*
X256756121Y-129256647D02*
G75*
G02*
X255756125Y-129256647I-499998J0D01*
G01*
X255756125Y-129256647D02*
G75*
G02*
X256756121Y-129256647I499998J0D01*
G01*
X266341211Y-120605453D02*
G75*
G02*
X265141207Y-120605453I-600002J0D01*
G01*
X265141207Y-120605453D02*
G75*
G02*
X266341211Y-120605453I600002J0D01*
G01*
X143875991Y-127387811D02*
G75*
G02*
X142876003Y-127387811I-499994J0D01*
G01*
X142876003Y-127387811D02*
G75*
G02*
X143875991Y-127387811I499994J0D01*
G01*
X156677164Y-125519649D02*
G75*
G02*
X155477166Y-125519649I-599999J0D01*
G01*
X155477166Y-125519649D02*
G75*
G02*
X156677164Y-125519649I599999J0D01*
G01*
X293491753Y-132067058D02*
G75*
G02*
X292491763Y-132067058I-499995J0D01*
G01*
X292491763Y-132067058D02*
G75*
G02*
X293491753Y-132067058I499995J0D01*
G01*
X303794756Y-124275470D02*
G75*
G02*
X302594756Y-124275470I-600000J0D01*
G01*
X302594756Y-124275470D02*
G75*
G02*
X303794756Y-124275470I600000J0D01*
G01*
X133173876Y-104247714D02*
G75*
G02*
X132173888Y-104247714I-499994J0D01*
G01*
X132173888Y-104247714D02*
G75*
G02*
X133173876Y-104247714I499994J0D01*
G01*
X145975049Y-102379552D02*
G75*
G02*
X144775051Y-102379552I-599999J0D01*
G01*
X144775051Y-102379552D02*
G75*
G02*
X145975049Y-102379552I599999J0D01*
G01*
X246815491Y-96742269D02*
G75*
G02*
X245815495Y-96742269I-499998J0D01*
G01*
X245815495Y-96742269D02*
G75*
G02*
X246815491Y-96742269I499998J0D01*
G01*
X256400581Y-88091075D02*
G75*
G02*
X255200577Y-88091075I-600002J0D01*
G01*
X255200577Y-88091075D02*
G75*
G02*
X256400581Y-88091075I600002J0D01*
G01*
X108730273Y-126053921D02*
G75*
G02*
X107730285Y-126053921I-499994J0D01*
G01*
X107730285Y-126053921D02*
G75*
G02*
X108730273Y-126053921I499994J0D01*
G01*
X121531446Y-124185759D02*
G75*
G02*
X120331448Y-124185759I-599999J0D01*
G01*
X120331448Y-124185759D02*
G75*
G02*
X121531446Y-124185759I599999J0D01*
G01*
X199862412Y-176230865D02*
G75*
G02*
X198862426Y-176230865I-499993J0D01*
G01*
X198862426Y-176230865D02*
G75*
G02*
X199862412Y-176230865I499993J0D01*
G01*
X205916608Y-164857319D02*
G75*
G02*
X204716590Y-164857319I-600009J0D01*
G01*
X204716590Y-164857319D02*
G75*
G02*
X205916608Y-164857319I600009J0D01*
G01*
X269794261Y-102344553D02*
G75*
G02*
X268794271Y-102344553I-499995J0D01*
G01*
X268794271Y-102344553D02*
G75*
G02*
X269794261Y-102344553I499995J0D01*
G01*
X280097264Y-94552965D02*
G75*
G02*
X278897264Y-94552965I-600000J0D01*
G01*
X278897264Y-94552965D02*
G75*
G02*
X280097264Y-94552965I600000J0D01*
G01*
X54022235Y-129655289D02*
G75*
G02*
X53022229Y-129655289I-500003J0D01*
G01*
X53022229Y-129655289D02*
G75*
G02*
X54022235Y-129655289I500003J0D01*
G01*
X66612257Y-126687249D02*
G75*
G02*
X65412263Y-126687249I-599997J0D01*
G01*
X65412263Y-126687249D02*
G75*
G02*
X66612257Y-126687249I599997J0D01*
G01*
%TD*%
M02*
