%TF.GenerationSoftware,KiCad,Pcbnew,8.0.6*%
%TF.CreationDate,2025-06-24T00:53:43+02:00*%
%TF.ProjectId,main,6d61696e-2e6b-4696-9361-645f70636258,v1.0.0*%
%TF.SameCoordinates,Original*%
%TF.FileFunction,Soldermask,Top*%
%TF.FilePolarity,Negative*%
%FSLAX46Y46*%
G04 Gerber Fmt 4.6, Leading zero omitted, Abs format (unit mm)*
G04 Created by KiCad (PCBNEW 8.0.6) date 2025-06-24 00:53:43*
%MOMM*%
%LPD*%
G01*
G04 APERTURE LIST*
G04 Aperture macros list*
%AMRoundRect*
0 Rectangle with rounded corners*
0 $1 Rounding radius*
0 $2 $3 $4 $5 $6 $7 $8 $9 X,Y pos of 4 corners*
0 Add a 4 corners polygon primitive as box body*
4,1,4,$2,$3,$4,$5,$6,$7,$8,$9,$2,$3,0*
0 Add four circle primitives for the rounded corners*
1,1,$1+$1,$2,$3*
1,1,$1+$1,$4,$5*
1,1,$1+$1,$6,$7*
1,1,$1+$1,$8,$9*
0 Add four rect primitives between the rounded corners*
20,1,$1+$1,$2,$3,$4,$5,0*
20,1,$1+$1,$4,$5,$6,$7,0*
20,1,$1+$1,$6,$7,$8,$9,0*
20,1,$1+$1,$8,$9,$2,$3,0*%
G04 Aperture macros list end*
%ADD10C,1.500000*%
%ADD11RoundRect,0.050000X-0.448764X-1.182893X1.033508X-0.729717X0.448764X1.182893X-1.033508X0.729717X0*%
%ADD12RoundRect,0.050000X-0.663933X-1.248676X1.248676X-0.663933X0.663933X1.248676X-1.248676X0.663933X0*%
%ADD13RoundRect,0.050000X-1.033508X-0.729717X0.448764X-1.182893X1.033508X0.729717X-0.448764X1.182893X0*%
%ADD14RoundRect,0.050000X-1.248676X-0.663933X0.663933X-1.248676X1.248676X0.663933X-0.663933X1.248676X0*%
%ADD15RoundRect,0.050000X-0.254914X-0.705350X0.605760X-0.442216X0.254914X0.705350X-0.605760X0.442216X0*%
%ADD16RoundRect,0.050000X-0.315419X-0.680449X0.564913X-0.493328X0.315419X0.680449X-0.564913X0.493328X0*%
%ADD17RoundRect,0.050000X-0.965976X-0.817016X0.550153X-1.139279X0.965976X0.817016X-0.550153X1.139279X0*%
%ADD18RoundRect,0.050000X-1.186059X-0.770236X0.770236X-1.186059X1.186059X0.770236X-0.770236X1.186059X0*%
%ADD19RoundRect,0.050000X-0.605760X-0.442216X0.254914X-0.705350X0.605760X0.442216X-0.254914X0.705350X0*%
%ADD20RoundRect,0.050000X-0.343961X-1.217504X1.093174X-0.636864X0.343961X1.217504X-1.093174X0.636864X0*%
%ADD21RoundRect,0.050000X-0.552577X-1.301790X1.301790X-0.552577X0.552577X1.301790X-1.301790X0.552577X0*%
%ADD22RoundRect,0.050000X-0.564913X-0.493328X0.315419X-0.680449X0.564913X0.493328X-0.315419X0.680449X0*%
%ADD23RoundRect,0.050000X-0.720475X-0.208365X-0.001703X-0.749998X0.720475X0.208365X0.001703X0.749998X0*%
%ADD24RoundRect,0.050000X-1.220758X-0.332229X0.017127X-1.265042X1.220758X0.332229X-0.017127X1.265042X0*%
%ADD25RoundRect,0.050000X-1.400451X-0.196820X0.196820X-1.400451X1.400451X0.196820X-0.196820X1.400451X0*%
%ADD26RoundRect,0.260000X-0.390000X-0.665000X0.390000X-0.665000X0.390000X0.665000X-0.390000X0.665000X0*%
%ADD27O,1.300000X1.850000*%
%ADD28RoundRect,0.050000X-0.192469X-0.724883X0.641997X-0.387737X0.192469X0.724883X-0.641997X0.387737X0*%
%ADD29RoundRect,0.050000X0.001703X-0.749998X0.720475X-0.208365X-0.001703X0.749998X-0.720475X0.208365X0*%
%ADD30RoundRect,0.050000X-0.550153X-1.139279X0.965976X-0.817016X0.550153X1.139279X-0.965976X0.817016X0*%
%ADD31RoundRect,0.050000X-0.770236X-1.186059X1.186059X-0.770236X0.770236X1.186059X-1.186059X0.770236X0*%
%ADD32RoundRect,0.050000X-1.093174X-0.636864X0.343961X-1.217504X1.093174X0.636864X-0.343961X1.217504X0*%
%ADD33RoundRect,0.050000X-1.301790X-0.552577X0.552577X-1.301790X1.301790X0.552577X-0.552577X1.301790X0*%
%ADD34C,1.800000*%
%ADD35RoundRect,0.050000X0.633013X0.096410X-0.233013X0.596410X-0.633013X-0.096410X0.233013X-0.596410X0*%
%ADD36C,1.000000*%
%ADD37RoundRect,0.050000X0.678109X0.474519X0.071891X0.824519X-0.678109X-0.474519X-0.071891X-0.824519X0*%
%ADD38RoundRect,0.050000X-0.017127X-1.265042X1.220758X-0.332229X0.017127X1.265042X-1.220758X0.332229X0*%
%ADD39RoundRect,0.050000X-0.196820X-1.400451X1.400451X-0.196820X0.196820X1.400451X-1.400451X0.196820X0*%
%ADD40RoundRect,0.050000X-0.641997X-0.387737X0.192469X-0.724883X0.641997X0.387737X-0.192469X0.724883X0*%
G04 APERTURE END LIST*
D10*
%TO.C,CPG1316*%
X254412383Y-111939001D03*
D11*
X254412383Y-111939001D03*
D10*
X259193916Y-110477127D03*
D11*
X259193916Y-110477127D03*
D12*
X248201598Y-104792591D03*
X251710065Y-116268245D03*
X260346663Y-101079467D03*
X263855130Y-112555121D03*
%TD*%
D10*
%TO.C,CPG1316*%
X116385650Y-110665929D03*
D13*
X116385650Y-110665929D03*
D10*
X121167169Y-112127797D03*
D13*
X121167169Y-112127797D03*
D14*
X115232886Y-101268259D03*
X111724425Y-112743927D03*
X127377957Y-104981379D03*
X123869496Y-116457047D03*
%TD*%
D10*
%TO.C,CPG1316*%
X121355974Y-94408746D03*
D13*
X121355974Y-94408746D03*
D10*
X126137493Y-95870614D03*
D13*
X126137493Y-95870614D03*
D14*
X120203210Y-85011076D03*
X116694749Y-96486744D03*
X132348281Y-88724196D03*
X128839820Y-100199864D03*
%TD*%
D10*
%TO.C,CPG1316*%
X125918275Y-137631247D03*
D13*
X125918275Y-137631247D03*
D10*
X130699794Y-139093115D03*
D13*
X130699794Y-139093115D03*
D14*
X124765511Y-128233577D03*
X121257050Y-139709245D03*
X136910582Y-131946697D03*
X133402121Y-143422365D03*
%TD*%
D15*
%TO.C,D34*%
X226409371Y-133728372D03*
X229565187Y-132763540D03*
%TD*%
D16*
%TO.C,D26*%
X275754951Y-112779316D03*
X278982843Y-112093208D03*
%TD*%
D10*
%TO.C,CPG1316*%
X231723020Y-95870617D03*
D11*
X231723020Y-95870617D03*
D10*
X236504553Y-94408743D03*
D11*
X236504553Y-94408743D03*
D12*
X225512235Y-88724207D03*
X229020702Y-100199861D03*
X237657300Y-85011083D03*
X241165767Y-96486737D03*
%TD*%
D10*
%TO.C,CPG1316*%
X73399425Y-133778073D03*
D17*
X73399425Y-133778073D03*
D10*
X78290158Y-134817642D03*
D17*
X78290158Y-134817642D03*
D18*
X68937047Y-136254414D03*
X71431992Y-124516642D03*
X81359526Y-138894900D03*
X83854471Y-127157128D03*
%TD*%
D10*
%TO.C,CPG1316*%
X103636930Y-94219957D03*
D13*
X103636930Y-94219957D03*
D10*
X108418449Y-95681825D03*
D13*
X108418449Y-95681825D03*
D14*
X102484166Y-84822287D03*
X98975705Y-96297955D03*
X114629237Y-88535407D03*
X111120776Y-100011075D03*
%TD*%
D19*
%TO.C,D10*%
X113792381Y-122055391D03*
X116948183Y-123020221D03*
%TD*%
D15*
%TO.C,D29*%
X253661050Y-106574242D03*
X256816866Y-105609410D03*
%TD*%
D16*
%TO.C,D25*%
X279289451Y-129407826D03*
X282517343Y-128721718D03*
%TD*%
D19*
%TO.C,D16*%
X143967773Y-139646470D03*
X147123575Y-140611300D03*
%TD*%
D10*
%TO.C,CPG1316*%
X227160712Y-139093123D03*
D11*
X227160712Y-139093123D03*
D10*
X231942245Y-137631249D03*
D11*
X231942245Y-137631249D03*
D12*
X220949927Y-131946713D03*
X224458394Y-143422367D03*
X233094992Y-128233589D03*
X236603459Y-139709243D03*
%TD*%
D10*
%TO.C,CPG1316*%
X217600048Y-164253913D03*
D20*
X217600048Y-164253913D03*
D10*
X222235962Y-162380892D03*
D20*
X222235962Y-162380892D03*
D21*
X210790042Y-157676012D03*
X215285326Y-168802216D03*
X222565278Y-152918510D03*
X227060562Y-164044714D03*
%TD*%
D19*
%TO.C,D9*%
X106013975Y-89352234D03*
X109169777Y-90317064D03*
%TD*%
D22*
%TO.C,D3*%
X65783656Y-91930202D03*
X69011562Y-92616312D03*
%TD*%
D10*
%TO.C,CPG1316*%
X151531355Y-111999825D03*
D13*
X151531355Y-111999825D03*
D10*
X156312874Y-113461693D03*
D13*
X156312874Y-113461693D03*
D14*
X150378591Y-102602155D03*
X146870130Y-114077823D03*
X162523662Y-106315275D03*
X159015201Y-117790943D03*
%TD*%
D22*
%TO.C,D2*%
X62249155Y-108558711D03*
X65477061Y-109244821D03*
%TD*%
D23*
%TO.C,D21*%
X155828149Y-167394794D03*
X158463647Y-169380764D03*
%TD*%
D10*
%TO.C,CPG1316*%
X76933932Y-117149569D03*
D17*
X76933932Y-117149569D03*
D10*
X81824665Y-118189138D03*
D17*
X81824665Y-118189138D03*
D18*
X72471554Y-119625910D03*
X74966499Y-107888138D03*
X84894033Y-122266396D03*
X87388978Y-110528624D03*
%TD*%
D15*
%TO.C,D35*%
X221439057Y-117471192D03*
X224594873Y-116506360D03*
%TD*%
D10*
%TO.C,CPG1316*%
X222190390Y-122835948D03*
D11*
X222190390Y-122835948D03*
D10*
X226971923Y-121374074D03*
D11*
X226971923Y-121374074D03*
D12*
X215979605Y-115689538D03*
X219488072Y-127165192D03*
X228124670Y-111976414D03*
X231633137Y-123452068D03*
%TD*%
D19*
%TO.C,D12*%
X123733012Y-89541030D03*
X126888814Y-90505860D03*
%TD*%
D10*
%TO.C,CPG1316*%
X151929596Y-171155938D03*
D24*
X151929596Y-171155938D03*
D10*
X155922778Y-174165012D03*
D24*
X155922778Y-174165012D03*
D25*
X146838774Y-171514380D03*
X154060559Y-161930753D03*
X156981445Y-179157429D03*
X164203230Y-169573802D03*
%TD*%
D16*
%TO.C,D23*%
X292383459Y-109244824D03*
X295611351Y-108558716D03*
%TD*%
D15*
%TO.C,D33*%
X230971689Y-90505872D03*
X234127505Y-89541040D03*
%TD*%
D26*
%TO.C,JST1*%
X164974997Y-118675001D03*
D27*
X166974995Y-118675007D03*
%TD*%
D22*
%TO.C,D4*%
X75343168Y-128721726D03*
X78571074Y-129407836D03*
%TD*%
D15*
%TO.C,D36*%
X216468737Y-101214016D03*
X219624553Y-100249184D03*
%TD*%
D28*
%TO.C,D41*%
X216384019Y-158975073D03*
X219443719Y-157738871D03*
%TD*%
D10*
%TO.C,CPG1316*%
X60305402Y-113615069D03*
D17*
X60305402Y-113615069D03*
D10*
X65196135Y-114654638D03*
D17*
X65196135Y-114654638D03*
D18*
X55843024Y-116091410D03*
X58337969Y-104353638D03*
X68265503Y-118731896D03*
X70760448Y-106994124D03*
%TD*%
D10*
%TO.C,CPG1316*%
X98666615Y-110477134D03*
D13*
X98666615Y-110477134D03*
D10*
X103448134Y-111939002D03*
D13*
X103448134Y-111939002D03*
D14*
X97513851Y-101079464D03*
X94005390Y-112555132D03*
X109658922Y-104792584D03*
X106150461Y-116268252D03*
%TD*%
D10*
%TO.C,CPG1316*%
X201547641Y-113461700D03*
D11*
X201547641Y-113461700D03*
D10*
X206329174Y-111999826D03*
D11*
X206329174Y-111999826D03*
D12*
X195336856Y-106315290D03*
X198845323Y-117790944D03*
X207481921Y-102602166D03*
X210990388Y-114077820D03*
%TD*%
D10*
%TO.C,CPG1316*%
X241663655Y-128384975D03*
D11*
X241663655Y-128384975D03*
D10*
X246445188Y-126923101D03*
D11*
X246445188Y-126923101D03*
D12*
X235452870Y-121238565D03*
X238961337Y-132714219D03*
X247597935Y-117525441D03*
X251106402Y-129001095D03*
%TD*%
D10*
%TO.C,CPG1316*%
X211488272Y-145976060D03*
D11*
X211488272Y-145976060D03*
D10*
X216269805Y-144514186D03*
D11*
X216269805Y-144514186D03*
D12*
X205277487Y-138829650D03*
X208785954Y-150305304D03*
X217422552Y-135116526D03*
X220931019Y-146592180D03*
%TD*%
D10*
%TO.C,CPG1316*%
X236693339Y-112127797D03*
D11*
X236693339Y-112127797D03*
D10*
X241474872Y-110665923D03*
D11*
X241474872Y-110665923D03*
D12*
X230482554Y-104981387D03*
X233991021Y-116457041D03*
X242627619Y-101268263D03*
X246136086Y-112743917D03*
%TD*%
D19*
%TO.C,D14*%
X133265648Y-116506364D03*
X136421450Y-117471194D03*
%TD*%
D29*
%TO.C,D42*%
X199396861Y-169380774D03*
X202032367Y-167394772D03*
%TD*%
D15*
%TO.C,D30*%
X248690734Y-90317072D03*
X251846550Y-89352240D03*
%TD*%
D16*
%TO.C,D22*%
X295917965Y-125873331D03*
X299145857Y-125187223D03*
%TD*%
D19*
%TO.C,D7*%
X96073336Y-121866593D03*
X99229138Y-122831423D03*
%TD*%
D10*
%TO.C,CPG1316*%
X289129869Y-98026129D03*
D30*
X289129869Y-98026129D03*
D10*
X294020606Y-96986571D03*
D30*
X294020606Y-96986571D03*
D31*
X283565554Y-90365617D03*
X286060502Y-102103396D03*
X295988030Y-87725132D03*
X298482978Y-99462911D03*
%TD*%
D10*
%TO.C,CPG1316*%
X279570352Y-134817629D03*
D30*
X279570352Y-134817629D03*
D10*
X284461089Y-133778071D03*
D30*
X284461089Y-133778071D03*
D31*
X274006037Y-127157117D03*
X276500985Y-138894896D03*
X286428513Y-124516632D03*
X288923461Y-136254411D03*
%TD*%
D15*
%TO.C,D28*%
X258631365Y-122831428D03*
X261787181Y-121866596D03*
%TD*%
%TO.C,D31*%
X240912331Y-123020225D03*
X244068147Y-122055393D03*
%TD*%
D10*
%TO.C,CPG1316*%
X119114535Y-156464969D03*
D13*
X119114535Y-156464969D03*
D10*
X123896054Y-157926837D03*
D13*
X123896054Y-157926837D03*
D14*
X117961771Y-147067299D03*
X114453310Y-158542967D03*
X130106842Y-150780419D03*
X126598381Y-162256087D03*
%TD*%
D22*
%TO.C,D6*%
X82412166Y-95464705D03*
X85640072Y-96150815D03*
%TD*%
D10*
%TO.C,CPG1316*%
X217220068Y-106578764D03*
D11*
X217220068Y-106578764D03*
D10*
X222001601Y-105116890D03*
D11*
X222001601Y-105116890D03*
D12*
X211009283Y-99432354D03*
X214517750Y-110908008D03*
X223154348Y-95719230D03*
X226662815Y-107194884D03*
%TD*%
D15*
%TO.C,D37*%
X210736939Y-140611299D03*
X213892755Y-139646467D03*
%TD*%
D10*
%TO.C,CPG1316*%
X292664362Y-114654631D03*
D30*
X292664362Y-114654631D03*
D10*
X297555099Y-113615073D03*
D30*
X297555099Y-113615073D03*
D31*
X287100047Y-106994119D03*
X289594995Y-118731898D03*
X299522523Y-104353634D03*
X302017471Y-116091413D03*
%TD*%
D10*
%TO.C,CPG1316*%
X141590717Y-144514184D03*
D13*
X141590717Y-144514184D03*
D10*
X146372236Y-145976052D03*
D13*
X146372236Y-145976052D03*
D14*
X140437953Y-135116514D03*
X136929492Y-146592182D03*
X152583024Y-138829634D03*
X149074563Y-150305302D03*
%TD*%
D10*
%TO.C,CPG1316*%
X130888600Y-121374072D03*
D13*
X130888600Y-121374072D03*
D10*
X135670119Y-122835940D03*
D13*
X135670119Y-122835940D03*
D14*
X129735836Y-111976402D03*
X126227375Y-123452070D03*
X141880907Y-115689522D03*
X138372446Y-127165190D03*
%TD*%
D15*
%TO.C,D40*%
X233213112Y-152562092D03*
X236368928Y-151597260D03*
%TD*%
D10*
%TO.C,CPG1316*%
X93696287Y-126734315D03*
D13*
X93696287Y-126734315D03*
D10*
X98477806Y-128196183D03*
D13*
X98477806Y-128196183D03*
D14*
X92543523Y-117336645D03*
X89035062Y-128812313D03*
X104688594Y-121049765D03*
X101180133Y-132525433D03*
%TD*%
D22*
%TO.C,D5*%
X78877661Y-112093217D03*
X82105567Y-112779327D03*
%TD*%
D10*
%TO.C,CPG1316*%
X233964447Y-157926841D03*
D11*
X233964447Y-157926841D03*
D10*
X238745980Y-156464967D03*
D11*
X238745980Y-156464967D03*
D12*
X227753662Y-150780431D03*
X231262129Y-162256085D03*
X239898727Y-147067307D03*
X243407194Y-158542961D03*
%TD*%
D10*
%TO.C,CPG1316*%
X276035865Y-118189135D03*
D30*
X276035865Y-118189135D03*
D10*
X280926602Y-117149577D03*
D30*
X280926602Y-117149577D03*
D31*
X270471550Y-110528623D03*
X272966498Y-122266402D03*
X282894026Y-107888138D03*
X285388974Y-119625917D03*
%TD*%
D19*
%TO.C,D19*%
X121491586Y-151597267D03*
X124647388Y-152562097D03*
%TD*%
D10*
%TO.C,CPG1316*%
X63839908Y-96986559D03*
D17*
X63839908Y-96986559D03*
D10*
X68730641Y-98026128D03*
D17*
X68730641Y-98026128D03*
D18*
X59377530Y-99462900D03*
X61872475Y-87725128D03*
X71800009Y-102103386D03*
X74294954Y-90365614D03*
%TD*%
D10*
%TO.C,CPG1316*%
X80468421Y-100521057D03*
D17*
X80468421Y-100521057D03*
D10*
X85359154Y-101560626D03*
D17*
X85359154Y-101560626D03*
D18*
X76006043Y-102997398D03*
X78500988Y-91259626D03*
X88428522Y-105637884D03*
X90923467Y-93900112D03*
%TD*%
D15*
%TO.C,D38*%
X205766616Y-124354120D03*
X208922432Y-123389288D03*
%TD*%
D10*
%TO.C,CPG1316*%
X135624543Y-162380886D03*
D32*
X135624543Y-162380886D03*
D10*
X140260465Y-164253929D03*
D32*
X140260465Y-164253929D03*
D33*
X135295232Y-152918521D03*
X130799956Y-164044722D03*
X147070474Y-157676020D03*
X142575198Y-168802221D03*
%TD*%
D34*
%TO.C,RST1*%
X167074994Y-115349994D03*
X167075006Y-108850000D03*
%TD*%
D10*
%TO.C,CPG1316*%
X206517948Y-129718872D03*
D11*
X206517948Y-129718872D03*
D10*
X211299481Y-128256998D03*
D11*
X211299481Y-128256998D03*
D12*
X200307163Y-122572462D03*
X203815630Y-134048116D03*
X212452228Y-118859338D03*
X215960695Y-130334992D03*
%TD*%
D10*
%TO.C,CPG1316*%
X259382694Y-128196188D03*
D11*
X259382694Y-128196188D03*
D10*
X264164227Y-126734314D03*
D11*
X264164227Y-126734314D03*
D12*
X253171909Y-121049778D03*
X256680376Y-132525432D03*
X265316974Y-117336654D03*
X268825441Y-128812308D03*
%TD*%
D10*
%TO.C,CPG1316*%
X146561044Y-128257004D03*
D13*
X146561044Y-128257004D03*
D10*
X151342563Y-129718872D03*
D13*
X151342563Y-129718872D03*
D14*
X145408280Y-118859334D03*
X141899819Y-130335002D03*
X157553351Y-122572454D03*
X154044890Y-134048122D03*
%TD*%
D19*
%TO.C,D13*%
X128295327Y-132763537D03*
X131451129Y-133728367D03*
%TD*%
D15*
%TO.C,D39*%
X200796295Y-108096933D03*
X203952111Y-107132101D03*
%TD*%
D10*
%TO.C,CPG1316*%
X296198863Y-131283134D03*
D30*
X296198863Y-131283134D03*
D10*
X301089600Y-130243576D03*
D30*
X301089600Y-130243576D03*
D31*
X290634548Y-123622622D03*
X293129496Y-135360401D03*
X303057024Y-120982137D03*
X305551972Y-132719916D03*
%TD*%
D35*
%TO.C,PWR1*%
X142431956Y-93311293D03*
X136109979Y-89661286D03*
D36*
X141125000Y-91275000D03*
X138526932Y-89775001D03*
D35*
X137214961Y-87747371D03*
X143536952Y-91397368D03*
D37*
X140894513Y-93174210D03*
X138296444Y-91674213D03*
X136997404Y-90924209D03*
%TD*%
D16*
%TO.C,D27*%
X272220455Y-96150807D03*
X275448347Y-95464699D03*
%TD*%
D10*
%TO.C,CPG1316*%
X135858923Y-105116907D03*
D13*
X135858923Y-105116907D03*
D10*
X140640442Y-106578775D03*
D13*
X140640442Y-106578775D03*
D14*
X134706159Y-95719237D03*
X131197698Y-107194905D03*
X146851230Y-99432357D03*
X143342769Y-110908025D03*
%TD*%
D19*
%TO.C,D15*%
X138235967Y-100249176D03*
X141391769Y-101214006D03*
%TD*%
%TO.C,D17*%
X148938082Y-123389294D03*
X152093884Y-124354124D03*
%TD*%
%TO.C,D8*%
X101043659Y-105609419D03*
X104199461Y-106574249D03*
%TD*%
%TO.C,D11*%
X118762692Y-105798212D03*
X121918494Y-106763042D03*
%TD*%
D15*
%TO.C,D32*%
X235942013Y-106763047D03*
X239097829Y-105798215D03*
%TD*%
D22*
%TO.C,D1*%
X58714658Y-125187218D03*
X61942564Y-125873328D03*
%TD*%
D10*
%TO.C,CPG1316*%
X249442056Y-95681818D03*
D11*
X249442056Y-95681818D03*
D10*
X254223589Y-94219944D03*
D11*
X254223589Y-94219944D03*
D12*
X243231271Y-88535408D03*
X246739738Y-100011062D03*
X255376336Y-84822284D03*
X258884803Y-96297938D03*
%TD*%
D10*
%TO.C,CPG1316*%
X111415326Y-126923111D03*
D13*
X111415326Y-126923111D03*
D10*
X116196845Y-128384979D03*
D13*
X116196845Y-128384979D03*
D14*
X110262562Y-117525441D03*
X106754101Y-129001109D03*
X122407633Y-121238561D03*
X118899172Y-132714229D03*
%TD*%
D19*
%TO.C,D18*%
X153908401Y-107132109D03*
X157064203Y-108096939D03*
%TD*%
D10*
%TO.C,CPG1316*%
X201937721Y-174165019D03*
D38*
X201937721Y-174165019D03*
D10*
X205930903Y-171155947D03*
D38*
X205930903Y-171155947D03*
D39*
X193657277Y-169573810D03*
X200879059Y-179157429D03*
X203799951Y-161930759D03*
X211021733Y-171514378D03*
%TD*%
D10*
%TO.C,CPG1316*%
X272501365Y-101560624D03*
D30*
X272501365Y-101560624D03*
D10*
X277392102Y-100521066D03*
D30*
X277392102Y-100521066D03*
D31*
X266937050Y-93900112D03*
X269431998Y-105637891D03*
X279359526Y-91259627D03*
X281854474Y-102997406D03*
%TD*%
D40*
%TO.C,D20*%
X138416786Y-157738878D03*
X141476500Y-158975070D03*
%TD*%
D16*
%TO.C,D24*%
X288848962Y-92616311D03*
X292076854Y-91930203D03*
%TD*%
D10*
%TO.C,CPG1316*%
X56770909Y-130243575D03*
D17*
X56770909Y-130243575D03*
D10*
X61661642Y-131283144D03*
D17*
X61661642Y-131283144D03*
D18*
X52308531Y-132719916D03*
X54803476Y-120982144D03*
X64731010Y-135360402D03*
X67225955Y-123622630D03*
%TD*%
D34*
%TO.C,MCU1*%
X186524991Y-107834996D03*
X186524993Y-110374997D03*
X186525000Y-112915000D03*
X186524997Y-115454997D03*
X186525000Y-117995004D03*
X186524999Y-120534997D03*
X186524987Y-123075003D03*
X186524997Y-125614999D03*
X186524992Y-128155004D03*
X186524993Y-130695005D03*
X186524991Y-133234995D03*
X186524996Y-135775000D03*
X171284995Y-135774999D03*
X171284997Y-133235000D03*
X171284995Y-130694999D03*
X171284988Y-128154996D03*
X171284991Y-125614999D03*
X171284988Y-123074992D03*
X171284989Y-120534999D03*
X171285001Y-117994993D03*
X171284991Y-115454997D03*
X171284996Y-112914992D03*
X171284995Y-110374991D03*
X171284997Y-107835001D03*
%TD*%
M02*
