%TF.GenerationSoftware,KiCad,Pcbnew,8.0.6*%
%TF.CreationDate,2025-07-21T23:15:59+02:00*%
%TF.ProjectId,main,6d61696e-2e6b-4696-9361-645f70636258,v1.0.0*%
%TF.SameCoordinates,Original*%
%TF.FileFunction,Legend,Top*%
%TF.FilePolarity,Positive*%
%FSLAX46Y46*%
G04 Gerber Fmt 4.6, Leading zero omitted, Abs format (unit mm)*
G04 Created by KiCad (PCBNEW 8.0.6) date 2025-07-21 23:15:59*
%MOMM*%
%LPD*%
G01*
G04 APERTURE LIST*
%ADD10C,0.150000*%
%ADD11C,0.120000*%
%ADD12C,0.100000*%
G04 APERTURE END LIST*
D10*
X167529816Y-112647618D02*
X167053625Y-112980951D01*
X167529816Y-113219046D02*
X166529816Y-113219046D01*
X166529816Y-113219046D02*
X166529816Y-112838094D01*
X166529816Y-112838094D02*
X166577435Y-112742856D01*
X166577435Y-112742856D02*
X166625054Y-112695237D01*
X166625054Y-112695237D02*
X166720292Y-112647618D01*
X166720292Y-112647618D02*
X166863149Y-112647618D01*
X166863149Y-112647618D02*
X166958387Y-112695237D01*
X166958387Y-112695237D02*
X167006006Y-112742856D01*
X167006006Y-112742856D02*
X167053625Y-112838094D01*
X167053625Y-112838094D02*
X167053625Y-113219046D01*
X167482197Y-112266665D02*
X167529816Y-112123808D01*
X167529816Y-112123808D02*
X167529816Y-111885713D01*
X167529816Y-111885713D02*
X167482197Y-111790475D01*
X167482197Y-111790475D02*
X167434577Y-111742856D01*
X167434577Y-111742856D02*
X167339339Y-111695237D01*
X167339339Y-111695237D02*
X167244101Y-111695237D01*
X167244101Y-111695237D02*
X167148863Y-111742856D01*
X167148863Y-111742856D02*
X167101244Y-111790475D01*
X167101244Y-111790475D02*
X167053625Y-111885713D01*
X167053625Y-111885713D02*
X167006006Y-112076189D01*
X167006006Y-112076189D02*
X166958387Y-112171427D01*
X166958387Y-112171427D02*
X166910768Y-112219046D01*
X166910768Y-112219046D02*
X166815530Y-112266665D01*
X166815530Y-112266665D02*
X166720292Y-112266665D01*
X166720292Y-112266665D02*
X166625054Y-112219046D01*
X166625054Y-112219046D02*
X166577435Y-112171427D01*
X166577435Y-112171427D02*
X166529816Y-112076189D01*
X166529816Y-112076189D02*
X166529816Y-111838094D01*
X166529816Y-111838094D02*
X166577435Y-111695237D01*
X166529816Y-111409522D02*
X166529816Y-110838094D01*
X167529816Y-111123808D02*
X166529816Y-111123808D01*
X143195262Y-93598853D02*
X143290500Y-93433896D01*
X143290500Y-93433896D02*
X143379358Y-93375226D01*
X143379358Y-93375226D02*
X143509456Y-93340367D01*
X143509456Y-93340367D02*
X143698223Y-93394366D01*
X143698223Y-93394366D02*
X143986898Y-93561032D01*
X143986898Y-93561032D02*
X144128045Y-93697510D01*
X144128045Y-93697510D02*
X144162905Y-93827607D01*
X144162905Y-93827607D02*
X144156525Y-93933896D01*
X144156525Y-93933896D02*
X144061287Y-94098853D01*
X144061287Y-94098853D02*
X143972429Y-94157522D01*
X143972429Y-94157522D02*
X143842331Y-94192381D01*
X143842331Y-94192381D02*
X143653564Y-94138383D01*
X143653564Y-94138383D02*
X143364889Y-93971716D01*
X143364889Y-93971716D02*
X143223741Y-93835239D01*
X143223741Y-93835239D02*
X143188882Y-93705141D01*
X143188882Y-93705141D02*
X143195262Y-93598853D01*
X144202893Y-92805965D02*
X144036226Y-93094641D01*
X144489858Y-93356545D02*
X143623833Y-92856545D01*
X143623833Y-92856545D02*
X143861928Y-92444152D01*
X144631464Y-92063658D02*
X144464798Y-92352333D01*
X144918430Y-92614238D02*
X144052405Y-92114238D01*
X144052405Y-92114238D02*
X144290500Y-91701845D01*
X134701664Y-88310166D02*
X134796902Y-88145209D01*
X134796902Y-88145209D02*
X134885761Y-88086540D01*
X134885761Y-88086540D02*
X135015858Y-88051680D01*
X135015858Y-88051680D02*
X135204625Y-88105679D01*
X135204625Y-88105679D02*
X135493300Y-88272346D01*
X135493300Y-88272346D02*
X135634448Y-88408823D01*
X135634448Y-88408823D02*
X135669307Y-88538921D01*
X135669307Y-88538921D02*
X135662928Y-88645209D01*
X135662928Y-88645209D02*
X135567690Y-88810166D01*
X135567690Y-88810166D02*
X135478831Y-88868835D01*
X135478831Y-88868835D02*
X135348734Y-88903695D01*
X135348734Y-88903695D02*
X135159967Y-88849696D01*
X135159967Y-88849696D02*
X134871292Y-88683029D01*
X134871292Y-88683029D02*
X134730144Y-88546552D01*
X134730144Y-88546552D02*
X134695284Y-88416454D01*
X134695284Y-88416454D02*
X134701664Y-88310166D01*
X135996261Y-88067858D02*
X135130236Y-87567858D01*
X135130236Y-87567858D02*
X136281975Y-87572987D01*
X136281975Y-87572987D02*
X135415950Y-87072987D01*
D11*
%TO.C,REF\u002A\u002A*%
X265827746Y-87342994D02*
G75*
G02*
X262427746Y-87342994I-1700000J0D01*
G01*
X262427746Y-87342994D02*
G75*
G02*
X265827746Y-87342994I1700000J0D01*
G01*
X95322789Y-87365094D02*
G75*
G02*
X91922789Y-87365094I-1700000J0D01*
G01*
X91922789Y-87365094D02*
G75*
G02*
X95322789Y-87365094I1700000J0D01*
G01*
D12*
%TO.C,D34*%
X227270050Y-133465235D02*
X227652562Y-133348287D01*
X227652562Y-133348287D02*
X227491760Y-132822328D01*
X227652562Y-133348287D02*
X228109398Y-132790338D01*
X227652562Y-133348287D02*
X227813374Y-133874261D01*
X228109398Y-132790338D02*
X228343302Y-133555386D01*
X228226353Y-133172868D02*
X228704498Y-133026687D01*
X228343302Y-133555386D02*
X227652562Y-133348287D01*
%TO.C,D26*%
X276635289Y-112592198D02*
X277026544Y-112509020D01*
X277026544Y-112509020D02*
X276912194Y-111971049D01*
X277026544Y-112509020D02*
X277140888Y-113047016D01*
X277026544Y-112509020D02*
X277530255Y-111993027D01*
X277530255Y-111993027D02*
X277696592Y-112775546D01*
X277613423Y-112384292D02*
X278102495Y-112280326D01*
X277696592Y-112775546D02*
X277026544Y-112509020D01*
%TO.C,D10*%
X114653046Y-122318527D02*
X115035581Y-122435489D01*
X115035581Y-122435489D02*
X115196376Y-121909509D01*
X115035581Y-122435489D02*
X114874773Y-122961448D01*
X115035581Y-122435489D02*
X115726307Y-122228374D01*
X115492398Y-122993425D02*
X115035581Y-122435489D01*
X115726307Y-122228374D02*
X115492398Y-122993425D01*
X115609355Y-122610907D02*
X116087514Y-122757097D01*
%TO.C,D29*%
X254521735Y-106311097D02*
X254904247Y-106194149D01*
X254904247Y-106194149D02*
X254743445Y-105668190D01*
X254904247Y-106194149D02*
X255361083Y-105636200D01*
X254904247Y-106194149D02*
X255065059Y-106720123D01*
X255361083Y-105636200D02*
X255594987Y-106401248D01*
X255478038Y-106018730D02*
X255956183Y-105872549D01*
X255594987Y-106401248D02*
X254904247Y-106194149D01*
%TO.C,D25*%
X280169796Y-129220709D02*
X280561051Y-129137531D01*
X280561051Y-129137531D02*
X280446701Y-128599560D01*
X280561051Y-129137531D02*
X280675395Y-129675527D01*
X280561051Y-129137531D02*
X281064762Y-128621538D01*
X281064762Y-128621538D02*
X281231099Y-129404057D01*
X281147930Y-129012803D02*
X281637002Y-128908837D01*
X281231099Y-129404057D02*
X280561051Y-129137531D01*
%TO.C,D16*%
X144828440Y-139909596D02*
X145210975Y-140026558D01*
X145210975Y-140026558D02*
X145371770Y-139500578D01*
X145210975Y-140026558D02*
X145050167Y-140552517D01*
X145210975Y-140026558D02*
X145901701Y-139819443D01*
X145667792Y-140584494D02*
X145210975Y-140026558D01*
X145901701Y-139819443D02*
X145667792Y-140584494D01*
X145784749Y-140201976D02*
X146262908Y-140348166D01*
%TO.C,D9*%
X106874639Y-89615359D02*
X107257174Y-89732321D01*
X107257174Y-89732321D02*
X107417969Y-89206341D01*
X107257174Y-89732321D02*
X107096366Y-90258280D01*
X107257174Y-89732321D02*
X107947900Y-89525206D01*
X107713991Y-90290257D02*
X107257174Y-89732321D01*
X107947900Y-89525206D02*
X107713991Y-90290257D01*
X107830948Y-89907739D02*
X108309107Y-90053929D01*
%TO.C,D3*%
X66664006Y-92117316D02*
X67055250Y-92200487D01*
X67055250Y-92200487D02*
X67169612Y-91662506D01*
X67055250Y-92200487D02*
X66940908Y-92738459D01*
X67055250Y-92200487D02*
X67725310Y-91933992D01*
X67725310Y-91933992D02*
X67558987Y-92716493D01*
X67642142Y-92325235D02*
X68131206Y-92429196D01*
X67558987Y-92716493D02*
X67055250Y-92200487D01*
%TO.C,D2*%
X63129507Y-108745830D02*
X63520751Y-108829001D01*
X63520751Y-108829001D02*
X63635113Y-108291020D01*
X63520751Y-108829001D02*
X63406409Y-109366973D01*
X63520751Y-108829001D02*
X64190811Y-108562506D01*
X64190811Y-108562506D02*
X64024488Y-109345007D01*
X64107643Y-108953749D02*
X64596707Y-109057710D01*
X64024488Y-109345007D02*
X63520751Y-108829001D01*
%TO.C,D21*%
X156546920Y-167936420D02*
X156866383Y-168177144D01*
X156866383Y-168177144D02*
X156535373Y-168616383D01*
X156866383Y-168177144D02*
X157197385Y-167737889D01*
X156866383Y-168177144D02*
X157586292Y-168218776D01*
X157104833Y-168857681D02*
X156866383Y-168177144D01*
X157345553Y-168538218D02*
X157744876Y-168839134D01*
X157586292Y-168218776D02*
X157104833Y-168857681D01*
%TO.C,D35*%
X222299744Y-117208047D02*
X222682256Y-117091099D01*
X222682256Y-117091099D02*
X222521454Y-116565140D01*
X222682256Y-117091099D02*
X223139092Y-116533150D01*
X222682256Y-117091099D02*
X222843068Y-117617073D01*
X223139092Y-116533150D02*
X223372996Y-117298198D01*
X223256047Y-116915680D02*
X223734192Y-116769499D01*
X223372996Y-117298198D02*
X222682256Y-117091099D01*
%TO.C,D12*%
X124593667Y-89804162D02*
X124976202Y-89921124D01*
X124976202Y-89921124D02*
X125136997Y-89395144D01*
X124976202Y-89921124D02*
X124815394Y-90447083D01*
X124976202Y-89921124D02*
X125666928Y-89714009D01*
X125433019Y-90479060D02*
X124976202Y-89921124D01*
X125666928Y-89714009D02*
X125433019Y-90479060D01*
X125549976Y-90096542D02*
X126028135Y-90242732D01*
%TO.C,D23*%
X293263809Y-109057701D02*
X293655064Y-108974523D01*
X293655064Y-108974523D02*
X293540714Y-108436552D01*
X293655064Y-108974523D02*
X293769408Y-109512519D01*
X293655064Y-108974523D02*
X294158775Y-108458530D01*
X294158775Y-108458530D02*
X294325112Y-109241049D01*
X294241943Y-108849795D02*
X294731015Y-108745829D01*
X294325112Y-109241049D02*
X293655064Y-108974523D01*
%TO.C,D33*%
X231832376Y-90242724D02*
X232214888Y-90125776D01*
X232214888Y-90125776D02*
X232054086Y-89599817D01*
X232214888Y-90125776D02*
X232671724Y-89567827D01*
X232214888Y-90125776D02*
X232375700Y-90651750D01*
X232671724Y-89567827D02*
X232905628Y-90332875D01*
X232788679Y-89950357D02*
X233266824Y-89804176D01*
X232905628Y-90332875D02*
X232214888Y-90125776D01*
D11*
%TO.C,JST1*%
X162914993Y-117214993D02*
X162914988Y-118215003D01*
X163914996Y-117215004D02*
X162914993Y-117214993D01*
X162914991Y-125034999D02*
X162914990Y-124034998D01*
X163835001Y-125035003D02*
X162914991Y-125034999D01*
D12*
X164474999Y-126074993D02*
X165475003Y-126075000D01*
D11*
X168115002Y-117215004D02*
X169034990Y-117215010D01*
X169034990Y-117215010D02*
X169034993Y-118215002D01*
D12*
X166975003Y-125575007D02*
X166974988Y-126575012D01*
X167474995Y-126075007D02*
X166474994Y-126074999D01*
D11*
X168114993Y-125035014D02*
X169034997Y-125034997D01*
X169034997Y-125034997D02*
X169034994Y-124034995D01*
D12*
%TO.C,D4*%
X76223521Y-128908845D02*
X76614765Y-128992016D01*
X76614765Y-128992016D02*
X76729127Y-128454035D01*
X76614765Y-128992016D02*
X76500423Y-129529988D01*
X76614765Y-128992016D02*
X77284825Y-128725521D01*
X77284825Y-128725521D02*
X77118502Y-129508022D01*
X77201657Y-129116764D02*
X77690721Y-129220725D01*
X77118502Y-129508022D02*
X76614765Y-128992016D01*
%TO.C,D36*%
X217329419Y-100950869D02*
X217711931Y-100833921D01*
X217711931Y-100833921D02*
X217551129Y-100307962D01*
X217711931Y-100833921D02*
X218168767Y-100275972D01*
X217711931Y-100833921D02*
X217872743Y-101359895D01*
X218168767Y-100275972D02*
X218402671Y-101041020D01*
X218285722Y-100658502D02*
X218763867Y-100512321D01*
X218402671Y-101041020D02*
X217711931Y-100833921D01*
%TO.C,D41*%
X217218474Y-158637929D02*
X217589344Y-158488098D01*
X217589344Y-158488098D02*
X217383324Y-157978142D01*
X217589344Y-158488098D02*
X217995822Y-157892455D01*
X217589344Y-158488098D02*
X217795391Y-158998045D01*
X217995822Y-157892455D02*
X218295498Y-158634202D01*
X218145670Y-158263312D02*
X218609258Y-158076025D01*
X218295498Y-158634202D02*
X217589344Y-158488098D01*
%TO.C,D14*%
X134126325Y-116769496D02*
X134508860Y-116886458D01*
X134508860Y-116886458D02*
X134669655Y-116360478D01*
X134508860Y-116886458D02*
X134348052Y-117412417D01*
X134508860Y-116886458D02*
X135199586Y-116679343D01*
X134965677Y-117444394D02*
X134508860Y-116886458D01*
X135199586Y-116679343D02*
X134965677Y-117444394D01*
X135082634Y-117061876D02*
X135560793Y-117208066D01*
%TO.C,D42*%
X200115620Y-168839135D02*
X200435087Y-168598418D01*
X200435087Y-168598418D02*
X200104098Y-168159160D01*
X200435087Y-168598418D02*
X200673545Y-167917861D01*
X200435087Y-168598418D02*
X200766091Y-169037663D01*
X200673545Y-167917861D02*
X201155002Y-168556772D01*
X200914276Y-168237333D02*
X201313608Y-167936413D01*
X201155002Y-168556772D02*
X200435087Y-168598418D01*
%TO.C,D30*%
X249551419Y-90053927D02*
X249933931Y-89936979D01*
X249933931Y-89936979D02*
X249773129Y-89411020D01*
X249933931Y-89936979D02*
X250390767Y-89379030D01*
X249933931Y-89936979D02*
X250094743Y-90462953D01*
X250390767Y-89379030D02*
X250624671Y-90144078D01*
X250507722Y-89761560D02*
X250985867Y-89615379D01*
X250624671Y-90144078D02*
X249933931Y-89936979D01*
%TO.C,D22*%
X296798312Y-125686218D02*
X297189567Y-125603040D01*
X297189567Y-125603040D02*
X297075217Y-125065069D01*
X297189567Y-125603040D02*
X297303911Y-126141036D01*
X297189567Y-125603040D02*
X297693278Y-125087047D01*
X297693278Y-125087047D02*
X297859615Y-125869566D01*
X297776446Y-125478312D02*
X298265518Y-125374346D01*
X297859615Y-125869566D02*
X297189567Y-125603040D01*
%TO.C,D7*%
X96934003Y-122129719D02*
X97316538Y-122246681D01*
X97316538Y-122246681D02*
X97477333Y-121720701D01*
X97316538Y-122246681D02*
X97155730Y-122772640D01*
X97316538Y-122246681D02*
X98007264Y-122039566D01*
X97773355Y-122804617D02*
X97316538Y-122246681D01*
X98007264Y-122039566D02*
X97773355Y-122804617D01*
X97890312Y-122422099D02*
X98368471Y-122568289D01*
%TO.C,D28*%
X259492056Y-122568282D02*
X259874568Y-122451334D01*
X259874568Y-122451334D02*
X259713766Y-121925375D01*
X259874568Y-122451334D02*
X260331404Y-121893385D01*
X259874568Y-122451334D02*
X260035380Y-122977308D01*
X260331404Y-121893385D02*
X260565308Y-122658433D01*
X260448359Y-122275915D02*
X260926504Y-122129734D01*
X260565308Y-122658433D02*
X259874568Y-122451334D01*
%TO.C,D31*%
X241773017Y-122757077D02*
X242155529Y-122640129D01*
X242155529Y-122640129D02*
X241994727Y-122114170D01*
X242155529Y-122640129D02*
X242612365Y-122082180D01*
X242155529Y-122640129D02*
X242316341Y-123166103D01*
X242612365Y-122082180D02*
X242846269Y-122847228D01*
X242729320Y-122464710D02*
X243207465Y-122318529D01*
X242846269Y-122847228D02*
X242155529Y-122640129D01*
%TO.C,D6*%
X83292517Y-95651819D02*
X83683761Y-95734990D01*
X83683761Y-95734990D02*
X83798123Y-95197009D01*
X83683761Y-95734990D02*
X83569419Y-96272962D01*
X83683761Y-95734990D02*
X84353821Y-95468495D01*
X84353821Y-95468495D02*
X84187498Y-96250996D01*
X84270653Y-95859738D02*
X84759717Y-95963699D01*
X84187498Y-96250996D02*
X83683761Y-95734990D01*
%TO.C,D37*%
X211597622Y-140348154D02*
X211980134Y-140231206D01*
X211980134Y-140231206D02*
X211819332Y-139705247D01*
X211980134Y-140231206D02*
X212436970Y-139673257D01*
X211980134Y-140231206D02*
X212140946Y-140757180D01*
X212436970Y-139673257D02*
X212670874Y-140438305D01*
X212553925Y-140055787D02*
X213032070Y-139909606D01*
X212670874Y-140438305D02*
X211980134Y-140231206D01*
%TO.C,D40*%
X234073794Y-152298951D02*
X234456306Y-152182003D01*
X234456306Y-152182003D02*
X234295504Y-151656044D01*
X234456306Y-152182003D02*
X234913142Y-151624054D01*
X234456306Y-152182003D02*
X234617118Y-152707977D01*
X234913142Y-151624054D02*
X235147046Y-152389102D01*
X235030097Y-152006584D02*
X235508242Y-151860403D01*
X235147046Y-152389102D02*
X234456306Y-152182003D01*
%TO.C,D5*%
X79758014Y-112280336D02*
X80149258Y-112363507D01*
X80149258Y-112363507D02*
X80263620Y-111825526D01*
X80149258Y-112363507D02*
X80034916Y-112901479D01*
X80149258Y-112363507D02*
X80819318Y-112097012D01*
X80819318Y-112097012D02*
X80652995Y-112879513D01*
X80736150Y-112488255D02*
X81225214Y-112592216D01*
X80652995Y-112879513D02*
X80149258Y-112363507D01*
%TO.C,D19*%
X122352254Y-151860397D02*
X122734789Y-151977359D01*
X122734789Y-151977359D02*
X122895584Y-151451379D01*
X122734789Y-151977359D02*
X122573981Y-152503318D01*
X122734789Y-151977359D02*
X123425515Y-151770244D01*
X123191606Y-152535295D02*
X122734789Y-151977359D01*
X123425515Y-151770244D02*
X123191606Y-152535295D01*
X123308563Y-152152777D02*
X123786722Y-152298967D01*
%TO.C,D38*%
X206627306Y-124090983D02*
X207009818Y-123974035D01*
X207009818Y-123974035D02*
X206849016Y-123448076D01*
X207009818Y-123974035D02*
X207466654Y-123416086D01*
X207009818Y-123974035D02*
X207170630Y-124500009D01*
X207466654Y-123416086D02*
X207700558Y-124181134D01*
X207583609Y-123798616D02*
X208061754Y-123652435D01*
X207700558Y-124181134D02*
X207009818Y-123974035D01*
D10*
%TO.C,RST1*%
X165324998Y-109099997D02*
X165574996Y-109099996D01*
X165324998Y-109099997D02*
X165325002Y-115100004D01*
X165325002Y-115100004D02*
X165575005Y-115099999D01*
X168824992Y-109099994D02*
X168574989Y-109099999D01*
X168824992Y-109099994D02*
X168824996Y-115100001D01*
X168824996Y-115100001D02*
X168574998Y-115100002D01*
D12*
%TO.C,D13*%
X129155997Y-133026664D02*
X129538532Y-133143626D01*
X129538532Y-133143626D02*
X129699327Y-132617646D01*
X129538532Y-133143626D02*
X129377724Y-133669585D01*
X129538532Y-133143626D02*
X130229258Y-132936511D01*
X129995349Y-133701562D02*
X129538532Y-133143626D01*
X130229258Y-132936511D02*
X129995349Y-133701562D01*
X130112306Y-133319044D02*
X130590465Y-133465234D01*
%TO.C,D39*%
X201656972Y-107833800D02*
X202039484Y-107716852D01*
X202039484Y-107716852D02*
X201878682Y-107190893D01*
X202039484Y-107716852D02*
X202496320Y-107158903D01*
X202039484Y-107716852D02*
X202200296Y-108242826D01*
X202496320Y-107158903D02*
X202730224Y-107923951D01*
X202613275Y-107541433D02*
X203091420Y-107395252D01*
X202730224Y-107923951D02*
X202039484Y-107716852D01*
D11*
%TO.C,PWR1*%
X137033170Y-88462268D02*
X136638177Y-89146406D01*
X137888535Y-91080745D02*
X137715334Y-90980735D01*
X140486604Y-92580751D02*
X139014349Y-91730742D01*
X142994129Y-90737576D02*
X138057793Y-87887572D01*
X142613745Y-92596405D02*
X143008745Y-91912244D01*
%TO.C,REF\u002A\u002A*%
X180600000Y-173650000D02*
G75*
G02*
X177200000Y-173650000I-1700000J0D01*
G01*
X177200000Y-173650000D02*
G75*
G02*
X180600000Y-173650000I1700000J0D01*
G01*
D12*
%TO.C,D27*%
X273100804Y-95963682D02*
X273492059Y-95880504D01*
X273492059Y-95880504D02*
X273377709Y-95342533D01*
X273492059Y-95880504D02*
X273606403Y-96418500D01*
X273492059Y-95880504D02*
X273995770Y-95364511D01*
X273995770Y-95364511D02*
X274162107Y-96147030D01*
X274078938Y-95755776D02*
X274568010Y-95651810D01*
X274162107Y-96147030D02*
X273492059Y-95880504D01*
%TO.C,D15*%
X139096639Y-100512304D02*
X139479174Y-100629266D01*
X139479174Y-100629266D02*
X139639969Y-100103286D01*
X139479174Y-100629266D02*
X139318366Y-101155225D01*
X139479174Y-100629266D02*
X140169900Y-100422151D01*
X139935991Y-101187202D02*
X139479174Y-100629266D01*
X140169900Y-100422151D02*
X139935991Y-101187202D01*
X140052948Y-100804684D02*
X140531107Y-100950874D01*
%TO.C,D17*%
X149798753Y-123652418D02*
X150181288Y-123769380D01*
X150181288Y-123769380D02*
X150342083Y-123243400D01*
X150181288Y-123769380D02*
X150020480Y-124295339D01*
X150181288Y-123769380D02*
X150872014Y-123562265D01*
X150638105Y-124327316D02*
X150181288Y-123769380D01*
X150872014Y-123562265D02*
X150638105Y-124327316D01*
X150755062Y-123944798D02*
X151233221Y-124090988D01*
%TO.C,D8*%
X101904329Y-105872551D02*
X102286864Y-105989513D01*
X102286864Y-105989513D02*
X102447659Y-105463533D01*
X102286864Y-105989513D02*
X102126056Y-106515472D01*
X102286864Y-105989513D02*
X102977590Y-105782398D01*
X102743681Y-106547449D02*
X102286864Y-105989513D01*
X102977590Y-105782398D02*
X102743681Y-106547449D01*
X102860638Y-106164931D02*
X103338797Y-106311121D01*
%TO.C,D11*%
X119623356Y-106061341D02*
X120005891Y-106178303D01*
X120005891Y-106178303D02*
X120166686Y-105652323D01*
X120005891Y-106178303D02*
X119845083Y-106704262D01*
X120005891Y-106178303D02*
X120696617Y-105971188D01*
X120462708Y-106736239D02*
X120005891Y-106178303D01*
X120696617Y-105971188D02*
X120462708Y-106736239D01*
X120579665Y-106353721D02*
X121057824Y-106499911D01*
%TO.C,D32*%
X236802701Y-106499900D02*
X237185213Y-106382952D01*
X237185213Y-106382952D02*
X237024411Y-105856993D01*
X237185213Y-106382952D02*
X237642049Y-105825003D01*
X237185213Y-106382952D02*
X237346025Y-106908926D01*
X237642049Y-105825003D02*
X237875953Y-106590051D01*
X237759004Y-106207533D02*
X238237149Y-106061352D01*
X237875953Y-106590051D02*
X237185213Y-106382952D01*
%TO.C,D1*%
X59595011Y-125374336D02*
X59986255Y-125457507D01*
X59986255Y-125457507D02*
X60100617Y-124919526D01*
X59986255Y-125457507D02*
X59871913Y-125995479D01*
X59986255Y-125457507D02*
X60656315Y-125191012D01*
X60656315Y-125191012D02*
X60489992Y-125973513D01*
X60573147Y-125582255D02*
X61062211Y-125686216D01*
X60489992Y-125973513D02*
X59986255Y-125457507D01*
%TO.C,D18*%
X154769070Y-107395242D02*
X155151605Y-107512204D01*
X155151605Y-107512204D02*
X155312400Y-106986224D01*
X155151605Y-107512204D02*
X154990797Y-108038163D01*
X155151605Y-107512204D02*
X155842331Y-107305089D01*
X155608422Y-108070140D02*
X155151605Y-107512204D01*
X155842331Y-107305089D02*
X155608422Y-108070140D01*
X155725379Y-107687622D02*
X156203538Y-107833812D01*
%TO.C,D20*%
X139251252Y-158076024D02*
X139622136Y-158225863D01*
X139622136Y-158225863D02*
X139416106Y-158735804D01*
X139622136Y-158225863D02*
X139828173Y-157715917D01*
X139622136Y-158225863D02*
X140328279Y-158079760D01*
X140028592Y-158821508D02*
X139622136Y-158225863D01*
X140178442Y-158450640D02*
X140642044Y-158637934D01*
X140328279Y-158079760D02*
X140028592Y-158821508D01*
%TO.C,D24*%
X289729308Y-92429200D02*
X290120563Y-92346022D01*
X290120563Y-92346022D02*
X290006213Y-91808051D01*
X290120563Y-92346022D02*
X290234907Y-92884018D01*
X290120563Y-92346022D02*
X290624274Y-91830029D01*
X290624274Y-91830029D02*
X290790611Y-92612548D01*
X290707442Y-92221294D02*
X291196514Y-92117328D01*
X290790611Y-92612548D02*
X290120563Y-92346022D01*
%TD*%
M02*
