%TF.GenerationSoftware,KiCad,Pcbnew,8.0.6*%
%TF.CreationDate,2025-05-14T19:15:18+02:00*%
%TF.ProjectId,main-rounded,6d61696e-2d72-46f7-956e-6465642e6b69,v1.0.0*%
%TF.SameCoordinates,Original*%
%TF.FileFunction,Profile,NP*%
%FSLAX46Y46*%
G04 Gerber Fmt 4.6, Leading zero omitted, Abs format (unit mm)*
G04 Created by KiCad (PCBNEW 8.0.6) date 2025-05-14 19:15:18*
%MOMM*%
%LPD*%
G01*
G04 APERTURE LIST*
%TA.AperFunction,Profile*%
%ADD10C,0.150000*%
%TD*%
%TA.AperFunction,Profile*%
%ADD11C,0.050000*%
%TD*%
G04 APERTURE END LIST*
D10*
X275800018Y-144294857D02*
G75*
G02*
X277539435Y-143466258I1623482J-1168043D01*
G01*
X121266752Y-167060474D02*
G75*
G02*
X120233439Y-166317541I590148J1910874D01*
G01*
X177391910Y-193357266D02*
X160583743Y-180691404D01*
D11*
X184000000Y-105500000D02*
X184250000Y-105500000D01*
X290584636Y-144223722D02*
X291040378Y-144198006D01*
D10*
X160090213Y-180418980D02*
X140861025Y-173115840D01*
X144321564Y-85223255D02*
G75*
G02*
X144703037Y-85384747I-584564J-1912145D01*
G01*
X201593385Y-193759995D02*
X178595540Y-193759995D01*
X104122851Y-78089161D02*
X123223451Y-78841775D01*
X239327900Y-173115840D02*
G75*
G02*
X239447854Y-173074583I709300J-1867260D01*
G01*
X314741420Y-140111697D02*
X291040378Y-144198006D01*
D11*
X180500000Y-105500000D02*
X180000000Y-104000000D01*
X219605182Y-180691404D02*
X220098712Y-180418980D01*
X196250000Y-136500000D02*
X196000000Y-105500000D01*
D10*
X102649491Y-143466255D02*
G75*
G02*
X104388926Y-144294844I115909J-1996745D01*
G01*
X60631813Y-80816208D02*
X76821733Y-84257482D01*
X47249510Y-134155522D02*
X58259694Y-82356680D01*
X239327900Y-173115840D02*
X220098712Y-180418980D01*
D11*
X184250000Y-136500000D02*
X196250000Y-136500000D01*
X184000000Y-105500000D02*
X180500000Y-105500000D01*
D10*
X256459475Y-78927614D02*
G75*
G02*
X256965473Y-78841761I584825J-1912786D01*
G01*
X123729450Y-78927614D02*
X144321564Y-85223255D01*
X321929231Y-82356680D02*
X332948551Y-134198502D01*
D11*
X200500000Y-104000000D02*
X201651327Y-103981494D01*
D10*
X89132326Y-144190956D02*
X48832588Y-136536215D01*
D11*
X201651327Y-103981494D02*
X202118665Y-103795823D01*
D10*
X202797015Y-193357266D02*
G75*
G02*
X201593385Y-193759967I-1203615J1597366D01*
G01*
X140741070Y-173074585D02*
X121266752Y-167060474D01*
X331408079Y-136570621D02*
X314817436Y-140097071D01*
X319557112Y-80816208D02*
G75*
G02*
X321929263Y-82356673I415788J-1956392D01*
G01*
X290584636Y-144223722D02*
X277539435Y-143466255D01*
D11*
X180000000Y-104000000D02*
X179036478Y-104044703D01*
D10*
X178595540Y-193759995D02*
G75*
G02*
X177391920Y-193357252I-40J1999795D01*
G01*
X77696732Y-84247763D02*
G75*
G02*
X76821737Y-84257462I-459132J1946963D01*
G01*
X120233414Y-166317559D02*
X104388907Y-144294857D01*
X77696732Y-84247763D02*
X103584932Y-78141034D01*
X58259694Y-82356680D02*
G75*
G02*
X60631816Y-80816193I1956306J-415820D01*
G01*
X48832588Y-136536214D02*
G75*
G02*
X47249453Y-134155510I373212J1964914D01*
G01*
X235867362Y-85223255D02*
X256459475Y-78927614D01*
X303367192Y-84257482D02*
G75*
G02*
X302492197Y-84247751I-415792J1956582D01*
G01*
D11*
X184250000Y-105500000D02*
X184250000Y-136500000D01*
D10*
X276066074Y-78089161D02*
G75*
G02*
X276603994Y-78141032I78726J-1998739D01*
G01*
X303367192Y-84257482D02*
X319557112Y-80816208D01*
X259955511Y-166317559D02*
G75*
G02*
X258922175Y-167060480I-1623511J1168059D01*
G01*
X235485887Y-85384744D02*
G75*
G02*
X235867364Y-85223263I966613J-1752156D01*
G01*
X314817436Y-140097071D02*
G75*
G02*
X314741420Y-140111698I-414636J1949971D01*
G01*
D11*
X196000000Y-105500000D02*
X200000000Y-105500000D01*
D10*
X123223451Y-78841775D02*
G75*
G02*
X123729452Y-78927609I-78751J-1998625D01*
G01*
X258922173Y-167060474D02*
X239447855Y-173074585D01*
X102649491Y-143466255D02*
X89621478Y-144222724D01*
D11*
X200000000Y-105500000D02*
X200500000Y-104000000D01*
D10*
X332948551Y-134198502D02*
G75*
G02*
X331408082Y-136570633I-1956351J-415798D01*
G01*
X140741070Y-173074585D02*
G75*
G02*
X140861025Y-173115841I-590770J-1912715D01*
G01*
X276603993Y-78141034D02*
X302492194Y-84247763D01*
X144703038Y-85384744D02*
X178070260Y-103795823D01*
D11*
X178070260Y-103795823D02*
X179036478Y-104044703D01*
D10*
X160090213Y-180418980D02*
G75*
G02*
X160583740Y-180691408I-710413J-1870220D01*
G01*
X256965474Y-78841775D02*
X276066074Y-78089161D01*
X219605182Y-180691404D02*
X202797015Y-193357266D01*
X103584932Y-78141034D02*
G75*
G02*
X104122851Y-78089165I459168J-1946666D01*
G01*
X89621478Y-144222724D02*
G75*
G02*
X89132327Y-144190955I-115978J1995924D01*
G01*
X275800018Y-144294857D02*
X259955511Y-166317559D01*
X202118665Y-103795823D02*
X235485887Y-85384744D01*
M02*
