M48
; DRILL file {KiCad 8.0.6} date 2025-06-24T18:46:20+0200
; FORMAT={-:-/ absolute / inch / decimal}
; #@! TF.CreationDate,2025-06-24T18:46:20+02:00
; #@! TF.GenerationSoftware,Kicad,Pcbnew,8.0.6
; #@! TF.FileFunction,Plated,1,2,PTH
FMAT,2
INCH
; #@! TA.AperFunction,Plated,PTH,ViaDrill
T1C0.0118
; #@! TA.AperFunction,Plated,PTH,ComponentDrill
T2C0.0295
; #@! TA.AperFunction,Plated,PTH,ComponentDrill
T3C0.0394
%
G90
G05
T1
X2.2654Y-4.9188
X2.4045Y-4.2641
X2.4849Y-4.9655
X2.5437Y-3.6095
X2.624Y-4.3108
X2.7632Y-3.6561
X2.9201Y-5.058
X3.0592Y-4.4033
X3.1396Y-5.1046
X3.1984Y-3.7486
X3.2787Y-4.45
X3.4179Y-3.7953
X3.7372Y-4.7841
X3.9329Y-4.144
X3.9518Y-4.8497
X4.1286Y-3.504
X4.1475Y-4.2096
X4.3432Y-3.5696
X4.4348Y-4.7915
X4.6305Y-4.1515
X4.6494Y-4.8571
X4.738Y-5.9546
X4.8262Y-3.5114
X4.8451Y-4.2171
X4.9526Y-6.0202
X5.0058Y-5.2131
X5.0408Y-3.577
X5.2015Y-4.5731
X5.2204Y-5.2787
X5.3972Y-3.933
X5.4057Y-6.1925
X5.4161Y-4.6387
X5.6118Y-3.9986
X5.6137Y-6.2766
X5.6228Y-5.4841
X5.8185Y-4.844
X5.8374Y-5.5497
X5.8892Y-4.6659
X5.8984Y-4.6358
X5.9076Y-4.6056
X5.9168Y-4.5755
X5.9285Y-4.5441
X6.0142Y-4.204
X6.0331Y-4.9096
X6.0972Y-6.5619
X6.2288Y-4.2696
X6.2765Y-6.697
X6.5098Y-5.0591
X6.5413Y-5.0591
X6.5748Y-5.0591
X6.6063Y-5.0591
X6.6378Y-5.0591
X6.6713Y-5.0591
X7.8125Y-6.697
X7.8602Y-4.2696
X7.9918Y-6.5619
X8.0559Y-4.9096
X8.0748Y-4.204
X8.2516Y-5.5497
X8.2705Y-4.844
X8.4662Y-5.4841
X8.4753Y-6.2766
X8.4772Y-3.9986
X8.6729Y-4.6387
X8.6833Y-6.1925
X8.6918Y-3.933
X8.8686Y-5.2787
X8.8875Y-4.5731
X9.0482Y-3.577
X9.0832Y-5.2131
X9.1364Y-6.0202
X9.2439Y-4.2171
X9.2628Y-3.5114
X9.351Y-5.9546
X9.4396Y-4.8571
X9.4585Y-4.1515
X9.6542Y-4.7915
X9.7458Y-3.5696
X9.9415Y-4.2096
X9.9604Y-3.504
X10.1372Y-4.8497
X10.1561Y-4.144
X10.3518Y-4.7841
X10.6711Y-3.7953
X10.8103Y-4.45
X10.8906Y-3.7486
X10.9494Y-5.1046
X11.0298Y-4.4033
X11.1689Y-5.058
X11.3258Y-3.6561
X11.4649Y-4.3108
X11.5453Y-3.6095
X11.6041Y-4.9655
X11.6845Y-4.2641
X11.8236Y-4.9188
T2
X6.4951Y-4.6722
X6.5738Y-4.6722
T3
X2.2351Y-5.1277
X2.3742Y-4.473
X2.4276Y-5.1686
X2.5134Y-3.8184
X2.5668Y-4.514
X2.7059Y-3.8593
X2.8897Y-5.2669
X3.0289Y-4.6122
X3.0823Y-5.3078
X3.168Y-3.9575
X3.2214Y-4.6531
X3.3606Y-3.9984
X3.6888Y-4.9895
X3.8771Y-5.0471
X3.8845Y-4.3495
X4.0728Y-4.407
X4.0802Y-3.7094
X4.2684Y-3.767
X4.3864Y-4.997
X4.5747Y-5.0545
X4.5821Y-4.3569
X4.6895Y-6.16
X4.7704Y-4.4145
X4.7778Y-3.7169
X4.8778Y-6.2176
X4.9574Y-5.4186
X4.966Y-3.7744
X5.1457Y-5.4761
X5.1531Y-4.7785
X5.3395Y-6.3929
X5.3413Y-4.8361
X5.3488Y-4.1385
X5.5221Y-6.4667
X5.537Y-4.196
X5.5744Y-5.6895
X5.7627Y-5.7471
X5.7701Y-5.0495
X5.9584Y-5.107
X5.9658Y-4.4094
X5.9815Y-6.7384
X6.1387Y-6.8569
X6.1541Y-4.467
X6.5778Y-4.5413
X6.5778Y-4.2854
X6.7435Y-4.7455
X6.7435Y-4.8455
X6.7435Y-4.9455
X6.7435Y-5.0455
X6.7435Y-4.5455
X6.7435Y-4.3455
X6.7435Y-5.1455
X6.7435Y-5.2455
X6.7435Y-4.4455
X6.7435Y-5.3455
X6.7435Y-4.2455
X6.7435Y-4.6455
X7.3435Y-4.8455
X7.3435Y-5.2455
X7.3435Y-5.0455
X7.3435Y-4.2455
X7.3435Y-4.3455
X7.3435Y-5.1455
X7.3435Y-5.3455
X7.3435Y-4.9455
X7.3435Y-4.4455
X7.3435Y-4.5455
X7.3435Y-4.6455
X7.3435Y-4.7455
X7.9349Y-4.467
X7.9503Y-6.8569
X8.1075Y-6.7384
X8.1232Y-4.4094
X8.1306Y-5.107
X8.3189Y-5.0495
X8.3263Y-5.7471
X8.5146Y-5.6895
X8.552Y-4.196
X8.5669Y-6.4667
X8.7402Y-4.1385
X8.7477Y-4.8361
X8.7494Y-6.3929
X8.9359Y-4.7785
X8.9433Y-5.4761
X9.123Y-3.7744
X9.1316Y-5.4186
X9.2112Y-6.2176
X9.3112Y-3.7169
X9.3186Y-4.4145
X9.3994Y-6.16
X9.5069Y-4.3569
X9.5143Y-5.0545
X9.7026Y-4.997
X9.8206Y-3.767
X10.0088Y-3.7094
X10.0162Y-4.407
X10.2045Y-4.3495
X10.2119Y-5.0471
X10.4002Y-4.9895
X10.7284Y-3.9984
X10.8676Y-4.6531
X10.9209Y-3.9575
X11.0067Y-5.3078
X11.0601Y-4.6122
X11.1993Y-5.2669
X11.3831Y-3.8593
X11.5222Y-4.514
X11.5756Y-3.8184
X11.6614Y-5.1686
X11.7148Y-4.473
X11.8539Y-5.1277
M30
