%TF.GenerationSoftware,KiCad,Pcbnew,8.0.6*%
%TF.CreationDate,2025-07-18T12:27:13+02:00*%
%TF.ProjectId,main,6d61696e-2e6b-4696-9361-645f70636258,v1.0.0*%
%TF.SameCoordinates,Original*%
%TF.FileFunction,Legend,Top*%
%TF.FilePolarity,Positive*%
%FSLAX46Y46*%
G04 Gerber Fmt 4.6, Leading zero omitted, Abs format (unit mm)*
G04 Created by KiCad (PCBNEW 8.0.6) date 2025-07-18 12:27:13*
%MOMM*%
%LPD*%
G01*
G04 APERTURE LIST*
%ADD10C,0.150000*%
%ADD11C,0.100000*%
%ADD12C,0.120000*%
G04 APERTURE END LIST*
D10*
X167529816Y-112647617D02*
X167053625Y-112980950D01*
X167529816Y-113219045D02*
X166529816Y-113219045D01*
X166529816Y-113219045D02*
X166529816Y-112838093D01*
X166529816Y-112838093D02*
X166577435Y-112742855D01*
X166577435Y-112742855D02*
X166625054Y-112695236D01*
X166625054Y-112695236D02*
X166720292Y-112647617D01*
X166720292Y-112647617D02*
X166863149Y-112647617D01*
X166863149Y-112647617D02*
X166958387Y-112695236D01*
X166958387Y-112695236D02*
X167006006Y-112742855D01*
X167006006Y-112742855D02*
X167053625Y-112838093D01*
X167053625Y-112838093D02*
X167053625Y-113219045D01*
X167482197Y-112266664D02*
X167529816Y-112123807D01*
X167529816Y-112123807D02*
X167529816Y-111885712D01*
X167529816Y-111885712D02*
X167482197Y-111790474D01*
X167482197Y-111790474D02*
X167434577Y-111742855D01*
X167434577Y-111742855D02*
X167339339Y-111695236D01*
X167339339Y-111695236D02*
X167244101Y-111695236D01*
X167244101Y-111695236D02*
X167148863Y-111742855D01*
X167148863Y-111742855D02*
X167101244Y-111790474D01*
X167101244Y-111790474D02*
X167053625Y-111885712D01*
X167053625Y-111885712D02*
X167006006Y-112076188D01*
X167006006Y-112076188D02*
X166958387Y-112171426D01*
X166958387Y-112171426D02*
X166910768Y-112219045D01*
X166910768Y-112219045D02*
X166815530Y-112266664D01*
X166815530Y-112266664D02*
X166720292Y-112266664D01*
X166720292Y-112266664D02*
X166625054Y-112219045D01*
X166625054Y-112219045D02*
X166577435Y-112171426D01*
X166577435Y-112171426D02*
X166529816Y-112076188D01*
X166529816Y-112076188D02*
X166529816Y-111838093D01*
X166529816Y-111838093D02*
X166577435Y-111695236D01*
X166529816Y-111409521D02*
X166529816Y-110838093D01*
X167529816Y-111123807D02*
X166529816Y-111123807D01*
X143195259Y-93598851D02*
X143290497Y-93433894D01*
X143290497Y-93433894D02*
X143379355Y-93375224D01*
X143379355Y-93375224D02*
X143509453Y-93340365D01*
X143509453Y-93340365D02*
X143698220Y-93394364D01*
X143698220Y-93394364D02*
X143986895Y-93561030D01*
X143986895Y-93561030D02*
X144128042Y-93697508D01*
X144128042Y-93697508D02*
X144162902Y-93827605D01*
X144162902Y-93827605D02*
X144156522Y-93933894D01*
X144156522Y-93933894D02*
X144061284Y-94098851D01*
X144061284Y-94098851D02*
X143972426Y-94157520D01*
X143972426Y-94157520D02*
X143842328Y-94192379D01*
X143842328Y-94192379D02*
X143653561Y-94138381D01*
X143653561Y-94138381D02*
X143364886Y-93971714D01*
X143364886Y-93971714D02*
X143223738Y-93835237D01*
X143223738Y-93835237D02*
X143188879Y-93705139D01*
X143188879Y-93705139D02*
X143195259Y-93598851D01*
X144202890Y-92805963D02*
X144036223Y-93094639D01*
X144489855Y-93356543D02*
X143623830Y-92856543D01*
X143623830Y-92856543D02*
X143861925Y-92444150D01*
X144631461Y-92063656D02*
X144464795Y-92352331D01*
X144918427Y-92614236D02*
X144052402Y-92114236D01*
X144052402Y-92114236D02*
X144290497Y-91701843D01*
X134701667Y-88310172D02*
X134796905Y-88145215D01*
X134796905Y-88145215D02*
X134885764Y-88086546D01*
X134885764Y-88086546D02*
X135015861Y-88051686D01*
X135015861Y-88051686D02*
X135204628Y-88105685D01*
X135204628Y-88105685D02*
X135493303Y-88272352D01*
X135493303Y-88272352D02*
X135634451Y-88408829D01*
X135634451Y-88408829D02*
X135669310Y-88538927D01*
X135669310Y-88538927D02*
X135662931Y-88645215D01*
X135662931Y-88645215D02*
X135567693Y-88810172D01*
X135567693Y-88810172D02*
X135478834Y-88868841D01*
X135478834Y-88868841D02*
X135348737Y-88903701D01*
X135348737Y-88903701D02*
X135159970Y-88849702D01*
X135159970Y-88849702D02*
X134871295Y-88683035D01*
X134871295Y-88683035D02*
X134730147Y-88546558D01*
X134730147Y-88546558D02*
X134695287Y-88416460D01*
X134695287Y-88416460D02*
X134701667Y-88310172D01*
X135996264Y-88067864D02*
X135130239Y-87567864D01*
X135130239Y-87567864D02*
X136281978Y-87572993D01*
X136281978Y-87572993D02*
X135415953Y-87072993D01*
D11*
%TO.C,D34*%
X227270051Y-133465235D02*
X227652567Y-133348283D01*
X227652567Y-133348283D02*
X227491765Y-132822325D01*
X227652567Y-133348283D02*
X227813378Y-133874259D01*
X227652567Y-133348283D02*
X228109402Y-132790340D01*
X228109402Y-132790340D02*
X228343301Y-133555382D01*
X228226354Y-133172867D02*
X228704503Y-133026681D01*
X228343301Y-133555382D02*
X227652567Y-133348283D01*
%TO.C,D26*%
X276635287Y-112592203D02*
X277026548Y-112509022D01*
X277026548Y-112509022D02*
X276912191Y-111971053D01*
X277026548Y-112509022D02*
X277140886Y-113047018D01*
X277026548Y-112509022D02*
X277530262Y-111993029D01*
X277530262Y-111993029D02*
X277696594Y-112775546D01*
X277613426Y-112384292D02*
X278102501Y-112280325D01*
X277696594Y-112775546D02*
X277026548Y-112509022D01*
%TO.C,D10*%
X114653045Y-122318529D02*
X115035580Y-122435486D01*
X115035580Y-122435486D02*
X114874776Y-122961449D01*
X115035580Y-122435486D02*
X115196378Y-121909508D01*
X115035580Y-122435486D02*
X115726307Y-122228374D01*
X115492400Y-122993422D02*
X115035580Y-122435486D01*
X115609356Y-122610905D02*
X116087515Y-122757091D01*
X115726307Y-122228374D02*
X115492400Y-122993422D01*
%TO.C,D29*%
X254521731Y-106311104D02*
X254904247Y-106194152D01*
X254904247Y-106194152D02*
X254743445Y-105668194D01*
X254904247Y-106194152D02*
X255065058Y-106720128D01*
X254904247Y-106194152D02*
X255361082Y-105636209D01*
X255361082Y-105636209D02*
X255594981Y-106401251D01*
X255478034Y-106018736D02*
X255956183Y-105872550D01*
X255594981Y-106401251D02*
X254904247Y-106194152D01*
%TO.C,D25*%
X280169791Y-129220711D02*
X280561052Y-129137530D01*
X280561052Y-129137530D02*
X280446695Y-128599561D01*
X280561052Y-129137530D02*
X280675390Y-129675526D01*
X280561052Y-129137530D02*
X281064766Y-128621537D01*
X281064766Y-128621537D02*
X281231098Y-129404054D01*
X281147930Y-129012800D02*
X281637005Y-128908833D01*
X281231098Y-129404054D02*
X280561052Y-129137530D01*
%TO.C,D16*%
X144828437Y-139909600D02*
X145210972Y-140026557D01*
X145210972Y-140026557D02*
X145050168Y-140552520D01*
X145210972Y-140026557D02*
X145371770Y-139500579D01*
X145210972Y-140026557D02*
X145901699Y-139819445D01*
X145667792Y-140584493D02*
X145210972Y-140026557D01*
X145784748Y-140201976D02*
X146262907Y-140348162D01*
X145901699Y-139819445D02*
X145667792Y-140584493D01*
%TO.C,D9*%
X106874642Y-89615364D02*
X107257177Y-89732321D01*
X107257177Y-89732321D02*
X107096373Y-90258284D01*
X107257177Y-89732321D02*
X107417975Y-89206343D01*
X107257177Y-89732321D02*
X107947904Y-89525209D01*
X107713997Y-90290257D02*
X107257177Y-89732321D01*
X107830953Y-89907740D02*
X108309112Y-90053926D01*
X107947904Y-89525209D02*
X107713997Y-90290257D01*
%TO.C,D3*%
X66664002Y-92117315D02*
X67055250Y-92200483D01*
X67055250Y-92200483D02*
X66940907Y-92738460D01*
X67055250Y-92200483D02*
X67169611Y-91662508D01*
X67055250Y-92200483D02*
X67725312Y-91933989D01*
X67558984Y-92716489D02*
X67055250Y-92200483D01*
X67642143Y-92325233D02*
X68131212Y-92429195D01*
X67725312Y-91933989D02*
X67558984Y-92716489D01*
%TO.C,D2*%
X63129503Y-108745828D02*
X63520751Y-108828996D01*
X63520751Y-108828996D02*
X63406408Y-109366973D01*
X63520751Y-108828996D02*
X63635112Y-108291021D01*
X63520751Y-108828996D02*
X64190813Y-108562502D01*
X64024485Y-109345002D02*
X63520751Y-108828996D01*
X64107644Y-108953746D02*
X64596713Y-109057708D01*
X64190813Y-108562502D02*
X64024485Y-109345002D01*
%TO.C,D21*%
X156546920Y-167936414D02*
X156866389Y-168177142D01*
X156866389Y-168177142D02*
X156535379Y-168616386D01*
X156866389Y-168177142D02*
X157197387Y-167737895D01*
X156866389Y-168177142D02*
X157586297Y-168218776D01*
X157104840Y-168857684D02*
X156866389Y-168177142D01*
X157345556Y-168538221D02*
X157744882Y-168839142D01*
X157586297Y-168218776D02*
X157104840Y-168857684D01*
%TO.C,D35*%
X222299739Y-117208052D02*
X222682255Y-117091100D01*
X222682255Y-117091100D02*
X222521453Y-116565142D01*
X222682255Y-117091100D02*
X222843066Y-117617076D01*
X222682255Y-117091100D02*
X223139090Y-116533157D01*
X223139090Y-116533157D02*
X223372989Y-117298199D01*
X223256042Y-116915684D02*
X223734191Y-116769498D01*
X223372989Y-117298199D02*
X222682255Y-117091100D01*
%TO.C,D12*%
X124593670Y-89804165D02*
X124976205Y-89921122D01*
X124976205Y-89921122D02*
X124815401Y-90447085D01*
X124976205Y-89921122D02*
X125137003Y-89395144D01*
X124976205Y-89921122D02*
X125666932Y-89714010D01*
X125433025Y-90479058D02*
X124976205Y-89921122D01*
X125549981Y-90096541D02*
X126028140Y-90242727D01*
X125666932Y-89714010D02*
X125433025Y-90479058D01*
%TO.C,D23*%
X293263803Y-109057704D02*
X293655064Y-108974523D01*
X293655064Y-108974523D02*
X293540707Y-108436554D01*
X293655064Y-108974523D02*
X293769402Y-109512519D01*
X293655064Y-108974523D02*
X294158778Y-108458530D01*
X294158778Y-108458530D02*
X294325110Y-109241047D01*
X294241942Y-108849793D02*
X294731017Y-108745826D01*
X294325110Y-109241047D02*
X293655064Y-108974523D01*
%TO.C,D33*%
X231832374Y-90242730D02*
X232214890Y-90125778D01*
X232214890Y-90125778D02*
X232054088Y-89599820D01*
X232214890Y-90125778D02*
X232375701Y-90651754D01*
X232214890Y-90125778D02*
X232671725Y-89567835D01*
X232671725Y-89567835D02*
X232905624Y-90332877D01*
X232788677Y-89950362D02*
X233266826Y-89804176D01*
X232905624Y-90332877D02*
X232214890Y-90125778D01*
D12*
%TO.C,JST1*%
X162914991Y-117214996D02*
X162914993Y-118215001D01*
X162914988Y-125034999D02*
X162914996Y-124034998D01*
X163835001Y-125035005D02*
X162914988Y-125034999D01*
X163914999Y-117215009D02*
X162914991Y-117214996D01*
D11*
X164474999Y-126074996D02*
X165475002Y-126075001D01*
X166974999Y-125575003D02*
X166974989Y-126575003D01*
X167475000Y-126075005D02*
X166474992Y-126074995D01*
D12*
X168114996Y-125035010D02*
X169034999Y-125034999D01*
X168114998Y-117214998D02*
X169034998Y-117215011D01*
X169034998Y-117215011D02*
X169034997Y-118214999D01*
X169034999Y-125034999D02*
X169034992Y-124034993D01*
D11*
%TO.C,D4*%
X76223519Y-128908842D02*
X76614767Y-128992010D01*
X76614767Y-128992010D02*
X76500424Y-129529987D01*
X76614767Y-128992010D02*
X76729128Y-128454035D01*
X76614767Y-128992010D02*
X77284829Y-128725516D01*
X77118501Y-129508016D02*
X76614767Y-128992010D01*
X77201660Y-129116760D02*
X77690729Y-129220722D01*
X77284829Y-128725516D02*
X77118501Y-129508016D01*
%TO.C,D36*%
X217329415Y-100950871D02*
X217711931Y-100833919D01*
X217711931Y-100833919D02*
X217551129Y-100307961D01*
X217711931Y-100833919D02*
X217872742Y-101359895D01*
X217711931Y-100833919D02*
X218168766Y-100275976D01*
X218168766Y-100275976D02*
X218402665Y-101041018D01*
X218285718Y-100658503D02*
X218763867Y-100512317D01*
X218402665Y-101041018D02*
X217711931Y-100833919D01*
%TO.C,D41*%
X217218478Y-158637925D02*
X217589346Y-158488093D01*
X217589346Y-158488093D02*
X217383326Y-157978141D01*
X217589346Y-158488093D02*
X217795391Y-158998045D01*
X217589346Y-158488093D02*
X217995819Y-157892454D01*
X217995819Y-157892454D02*
X218295502Y-158634198D01*
X218145669Y-158263317D02*
X218609256Y-158076027D01*
X218295502Y-158634198D02*
X217589346Y-158488093D01*
%TO.C,D14*%
X134126320Y-116769499D02*
X134508855Y-116886456D01*
X134508855Y-116886456D02*
X134348051Y-117412419D01*
X134508855Y-116886456D02*
X134669653Y-116360478D01*
X134508855Y-116886456D02*
X135199582Y-116679344D01*
X134965675Y-117444392D02*
X134508855Y-116886456D01*
X135082631Y-117061875D02*
X135560790Y-117208061D01*
X135199582Y-116679344D02*
X134965675Y-117444392D01*
%TO.C,D42*%
X200115624Y-168839137D02*
X200435091Y-168598418D01*
X200435091Y-168598418D02*
X200104095Y-168159163D01*
X200435091Y-168598418D02*
X200673549Y-167917865D01*
X200435091Y-168598418D02*
X200766094Y-169037666D01*
X200673549Y-167917865D02*
X201155001Y-168556777D01*
X200914276Y-168237328D02*
X201313606Y-167936413D01*
X201155001Y-168556777D02*
X200435091Y-168598418D01*
%TO.C,D30*%
X249551416Y-90053931D02*
X249933932Y-89936979D01*
X249933932Y-89936979D02*
X249773130Y-89411021D01*
X249933932Y-89936979D02*
X250094743Y-90462955D01*
X249933932Y-89936979D02*
X250390767Y-89379036D01*
X250390767Y-89379036D02*
X250624666Y-90144078D01*
X250507719Y-89761563D02*
X250985868Y-89615377D01*
X250624666Y-90144078D02*
X249933932Y-89936979D01*
%TO.C,D22*%
X296798304Y-125686219D02*
X297189565Y-125603038D01*
X297189565Y-125603038D02*
X297075208Y-125065069D01*
X297189565Y-125603038D02*
X297303903Y-126141034D01*
X297189565Y-125603038D02*
X297693279Y-125087045D01*
X297693279Y-125087045D02*
X297859611Y-125869562D01*
X297776443Y-125478308D02*
X298265518Y-125374341D01*
X297859611Y-125869562D02*
X297189565Y-125603038D01*
%TO.C,D7*%
X96934001Y-122129723D02*
X97316536Y-122246680D01*
X97316536Y-122246680D02*
X97155732Y-122772643D01*
X97316536Y-122246680D02*
X97477334Y-121720702D01*
X97316536Y-122246680D02*
X98007263Y-122039568D01*
X97773356Y-122804616D02*
X97316536Y-122246680D01*
X97890312Y-122422099D02*
X98368471Y-122568285D01*
X98007263Y-122039568D02*
X97773356Y-122804616D01*
%TO.C,D28*%
X259492050Y-122568290D02*
X259874566Y-122451338D01*
X259874566Y-122451338D02*
X259713764Y-121925380D01*
X259874566Y-122451338D02*
X260035377Y-122977314D01*
X259874566Y-122451338D02*
X260331401Y-121893395D01*
X260331401Y-121893395D02*
X260565300Y-122658437D01*
X260448353Y-122275922D02*
X260926502Y-122129736D01*
X260565300Y-122658437D02*
X259874566Y-122451338D01*
%TO.C,D31*%
X241773012Y-122757084D02*
X242155528Y-122640132D01*
X242155528Y-122640132D02*
X241994726Y-122114174D01*
X242155528Y-122640132D02*
X242316339Y-123166108D01*
X242155528Y-122640132D02*
X242612363Y-122082189D01*
X242612363Y-122082189D02*
X242846262Y-122847231D01*
X242729315Y-122464716D02*
X243207464Y-122318530D01*
X242846262Y-122847231D02*
X242155528Y-122640132D01*
%TO.C,D6*%
X83292510Y-95651820D02*
X83683758Y-95734988D01*
X83683758Y-95734988D02*
X83569415Y-96272965D01*
X83683758Y-95734988D02*
X83798119Y-95197013D01*
X83683758Y-95734988D02*
X84353820Y-95468494D01*
X84187492Y-96250994D02*
X83683758Y-95734988D01*
X84270651Y-95859738D02*
X84759720Y-95963700D01*
X84353820Y-95468494D02*
X84187492Y-96250994D01*
%TO.C,D37*%
X211597619Y-140348160D02*
X211980135Y-140231208D01*
X211980135Y-140231208D02*
X211819333Y-139705250D01*
X211980135Y-140231208D02*
X212140946Y-140757184D01*
X211980135Y-140231208D02*
X212436970Y-139673265D01*
X212436970Y-139673265D02*
X212670869Y-140438307D01*
X212553922Y-140055792D02*
X213032071Y-139909606D01*
X212670869Y-140438307D02*
X211980135Y-140231208D01*
%TO.C,D40*%
X234073797Y-152298954D02*
X234456313Y-152182002D01*
X234456313Y-152182002D02*
X234295511Y-151656044D01*
X234456313Y-152182002D02*
X234617124Y-152707978D01*
X234456313Y-152182002D02*
X234913148Y-151624059D01*
X234913148Y-151624059D02*
X235147047Y-152389101D01*
X235030100Y-152006586D02*
X235508249Y-151860400D01*
X235147047Y-152389101D02*
X234456313Y-152182002D01*
%TO.C,D5*%
X79758010Y-112280335D02*
X80149258Y-112363503D01*
X80149258Y-112363503D02*
X80034915Y-112901480D01*
X80149258Y-112363503D02*
X80263619Y-111825528D01*
X80149258Y-112363503D02*
X80819320Y-112097009D01*
X80652992Y-112879509D02*
X80149258Y-112363503D01*
X80736151Y-112488253D02*
X81225220Y-112592215D01*
X80819320Y-112097009D02*
X80652992Y-112879509D01*
%TO.C,D19*%
X122352256Y-151860402D02*
X122734791Y-151977359D01*
X122734791Y-151977359D02*
X122573987Y-152503322D01*
X122734791Y-151977359D02*
X122895589Y-151451381D01*
X122734791Y-151977359D02*
X123425518Y-151770247D01*
X123191611Y-152535295D02*
X122734791Y-151977359D01*
X123308567Y-152152778D02*
X123786726Y-152298964D01*
X123425518Y-151770247D02*
X123191611Y-152535295D01*
%TO.C,D38*%
X206627305Y-124090984D02*
X207009821Y-123974032D01*
X207009821Y-123974032D02*
X206849019Y-123448074D01*
X207009821Y-123974032D02*
X207170632Y-124500008D01*
X207009821Y-123974032D02*
X207466656Y-123416089D01*
X207466656Y-123416089D02*
X207700555Y-124181131D01*
X207583608Y-123798616D02*
X208061757Y-123652430D01*
X207700555Y-124181131D02*
X207009821Y-123974032D01*
D10*
%TO.C,RST1*%
X165324993Y-109099996D02*
X165325002Y-115099997D01*
X165324993Y-109099996D02*
X165575001Y-109099996D01*
X165325002Y-115099997D02*
X165575004Y-115099997D01*
X168824992Y-109099999D02*
X168574990Y-109099999D01*
X168824992Y-109099999D02*
X168825001Y-115100000D01*
X168825001Y-115100000D02*
X168574993Y-115100000D01*
D11*
%TO.C,D13*%
X129155994Y-133026672D02*
X129538529Y-133143629D01*
X129538529Y-133143629D02*
X129377725Y-133669592D01*
X129538529Y-133143629D02*
X129699327Y-132617651D01*
X129538529Y-133143629D02*
X130229256Y-132936517D01*
X129995349Y-133701565D02*
X129538529Y-133143629D01*
X130112305Y-133319048D02*
X130590464Y-133465234D01*
X130229256Y-132936517D02*
X129995349Y-133701565D01*
%TO.C,D39*%
X201656973Y-107833800D02*
X202039489Y-107716848D01*
X202039489Y-107716848D02*
X201878687Y-107190890D01*
X202039489Y-107716848D02*
X202200300Y-108242824D01*
X202039489Y-107716848D02*
X202496324Y-107158905D01*
X202496324Y-107158905D02*
X202730223Y-107923947D01*
X202613276Y-107541432D02*
X203091425Y-107395246D01*
X202730223Y-107923947D02*
X202039489Y-107716848D01*
D12*
%TO.C,PWR1*%
X137033171Y-88462267D02*
X136638179Y-89146411D01*
X137888530Y-91080749D02*
X137715332Y-90980745D01*
X140486603Y-92580752D02*
X139014351Y-91730742D01*
X142613745Y-92596409D02*
X143008746Y-91912241D01*
X142994126Y-90737577D02*
X138057790Y-87887567D01*
D11*
%TO.C,D27*%
X273100796Y-95963688D02*
X273492057Y-95880507D01*
X273492057Y-95880507D02*
X273377700Y-95342538D01*
X273492057Y-95880507D02*
X273606395Y-96418503D01*
X273492057Y-95880507D02*
X273995771Y-95364514D01*
X273995771Y-95364514D02*
X274162103Y-96147031D01*
X274078935Y-95755777D02*
X274568010Y-95651810D01*
X274162103Y-96147031D02*
X273492057Y-95880507D01*
%TO.C,D15*%
X139096636Y-100512309D02*
X139479171Y-100629266D01*
X139479171Y-100629266D02*
X139318367Y-101155229D01*
X139479171Y-100629266D02*
X139639969Y-100103288D01*
X139479171Y-100629266D02*
X140169898Y-100422154D01*
X139935991Y-101187202D02*
X139479171Y-100629266D01*
X140052947Y-100804685D02*
X140531106Y-100950871D01*
X140169898Y-100422154D02*
X139935991Y-101187202D01*
%TO.C,D17*%
X149798750Y-123652428D02*
X150181285Y-123769385D01*
X150181285Y-123769385D02*
X150020481Y-124295348D01*
X150181285Y-123769385D02*
X150342083Y-123243407D01*
X150181285Y-123769385D02*
X150872012Y-123562273D01*
X150638105Y-124327321D02*
X150181285Y-123769385D01*
X150755061Y-123944804D02*
X151233220Y-124090990D01*
X150872012Y-123562273D02*
X150638105Y-124327321D01*
%TO.C,D8*%
X101904328Y-105872555D02*
X102286863Y-105989512D01*
X102286863Y-105989512D02*
X102126059Y-106515475D01*
X102286863Y-105989512D02*
X102447661Y-105463534D01*
X102286863Y-105989512D02*
X102977590Y-105782400D01*
X102743683Y-106547448D02*
X102286863Y-105989512D01*
X102860639Y-106164931D02*
X103338798Y-106311117D01*
X102977590Y-105782400D02*
X102743683Y-106547448D01*
%TO.C,D11*%
X119623355Y-106061344D02*
X120005890Y-106178301D01*
X120005890Y-106178301D02*
X119845086Y-106704264D01*
X120005890Y-106178301D02*
X120166688Y-105652323D01*
X120005890Y-106178301D02*
X120696617Y-105971189D01*
X120462710Y-106736237D02*
X120005890Y-106178301D01*
X120579666Y-106353720D02*
X121057825Y-106499906D01*
X120696617Y-105971189D02*
X120462710Y-106736237D01*
%TO.C,D32*%
X236802698Y-106499904D02*
X237185214Y-106382952D01*
X237185214Y-106382952D02*
X237024412Y-105856994D01*
X237185214Y-106382952D02*
X237346025Y-106908928D01*
X237185214Y-106382952D02*
X237642049Y-105825009D01*
X237642049Y-105825009D02*
X237875948Y-106590051D01*
X237759001Y-106207536D02*
X238237150Y-106061350D01*
X237875948Y-106590051D02*
X237185214Y-106382952D01*
%TO.C,D1*%
X59595007Y-125374331D02*
X59986255Y-125457499D01*
X59986255Y-125457499D02*
X59871912Y-125995476D01*
X59986255Y-125457499D02*
X60100616Y-124919524D01*
X59986255Y-125457499D02*
X60656317Y-125191005D01*
X60489989Y-125973505D02*
X59986255Y-125457499D01*
X60573148Y-125582249D02*
X61062217Y-125686211D01*
X60656317Y-125191005D02*
X60489989Y-125973505D01*
%TO.C,D18*%
X154769070Y-107395246D02*
X155151605Y-107512203D01*
X155151605Y-107512203D02*
X154990801Y-108038166D01*
X155151605Y-107512203D02*
X155312403Y-106986225D01*
X155151605Y-107512203D02*
X155842332Y-107305091D01*
X155608425Y-108070139D02*
X155151605Y-107512203D01*
X155725381Y-107687622D02*
X156203540Y-107833808D01*
X155842332Y-107305091D02*
X155608425Y-108070139D01*
%TO.C,D20*%
X139251251Y-158076018D02*
X139622132Y-158225860D01*
X139622132Y-158225860D02*
X139416107Y-158735807D01*
X139622132Y-158225860D02*
X139828173Y-157715911D01*
X139622132Y-158225860D02*
X140328283Y-158079752D01*
X140028593Y-158821503D02*
X139622132Y-158225860D01*
X140178445Y-158450634D02*
X140642045Y-158637930D01*
X140328283Y-158079752D02*
X140028593Y-158821503D01*
%TO.C,D24*%
X289729301Y-92429197D02*
X290120562Y-92346016D01*
X290120562Y-92346016D02*
X290006205Y-91808047D01*
X290120562Y-92346016D02*
X290234900Y-92884012D01*
X290120562Y-92346016D02*
X290624276Y-91830023D01*
X290624276Y-91830023D02*
X290790608Y-92612540D01*
X290707440Y-92221286D02*
X291196515Y-92117319D01*
X290790608Y-92612540D02*
X290120562Y-92346016D01*
%TD*%
M02*
