%TF.GenerationSoftware,KiCad,Pcbnew,8.0.6*%
%TF.CreationDate,2025-07-18T12:26:57+02:00*%
%TF.ProjectId,main,6d61696e-2e6b-4696-9361-645f70636258,v1.0.0*%
%TF.SameCoordinates,Original*%
%TF.FileFunction,Drillmap*%
%TF.FilePolarity,Positive*%
%FSLAX45Y45*%
G04 Gerber Fmt 4.5, Leading zero omitted, Abs format (unit mm)*
G04 Created by KiCad (PCBNEW 8.0.6) date 2025-07-18 12:26:57*
%MOMM*%
%LPD*%
G01*
G04 APERTURE LIST*
%ADD10C,0.150000*%
%ADD11C,0.050000*%
%ADD12C,0.100000*%
%ADD13C,0.200000*%
G04 APERTURE END LIST*
D10*
X11744798Y-8059379D02*
G75*
G02*
X11801143Y-8068108I-2129J-199952D01*
G01*
X8202437Y-14228178D02*
X4998918Y-13578577D01*
X5861409Y-8549904D02*
G75*
G02*
X6098623Y-8395854I195641J-41596D01*
G01*
D11*
X17267500Y-10400000D02*
X17255001Y-10400000D01*
D10*
X20060484Y-18374656D02*
G75*
G02*
X19940121Y-18414930I-120384J159786D01*
G01*
X10029664Y-8041104D02*
X11744798Y-8059379D01*
X8265141Y-14230846D02*
G75*
G02*
X8202437Y-14228179I-22961J198616D01*
G01*
X22079789Y-8656119D02*
G75*
G02*
X22122039Y-8637642I100781J-172911D01*
G01*
X30943408Y-13342827D02*
G75*
G02*
X30789359Y-13580035I-195639J-41573D01*
G01*
X12603809Y-16590157D02*
G75*
G02*
X12616948Y-16594811I-60109J-190563D01*
G01*
X14156421Y-17201324D02*
G75*
G02*
X14203473Y-17227676I-73271J-186006D01*
G01*
X6098622Y-8395857D02*
X7518313Y-8697621D01*
X27582779Y-14228627D02*
G75*
G02*
X27521809Y-14230949I-38009J196387D01*
G01*
X29323921Y-13891527D02*
G75*
G02*
X29320351Y-13892252I-42271J198938D01*
G01*
D11*
X18510000Y-13710000D02*
X18512500Y-10405000D01*
D10*
X13664012Y-8637642D02*
G75*
G02*
X13706262Y-8656119I-58382J-191039D01*
G01*
X7612710Y-8694892D02*
X9974719Y-8048192D01*
X15845931Y-18414930D02*
G75*
G02*
X15725565Y-18374658I-1J200010D01*
G01*
X30789360Y-13580038D02*
X29323921Y-13891527D01*
X14156421Y-17201324D02*
X12616948Y-16594811D01*
X7612710Y-8694892D02*
G75*
G02*
X7518313Y-8697624I-52820J192862D01*
G01*
X9808518Y-14052508D02*
X8265141Y-14230846D01*
X12603809Y-16590157D02*
X11073683Y-16107441D01*
X19128990Y-10376321D02*
G75*
G02*
X19028264Y-10403536I-100699J172691D01*
G01*
X25811332Y-8048192D02*
X28173341Y-8694892D01*
X24041251Y-8059380D02*
X25756388Y-8041105D01*
X25776562Y-14160020D02*
X24830211Y-16007874D01*
X4998918Y-13578577D02*
G75*
G02*
X4843036Y-13340984I39743J196007D01*
G01*
X28267737Y-8697620D02*
G75*
G02*
X28173341Y-8694892I-41587J195510D01*
G01*
X11073683Y-16107441D02*
G75*
G02*
X10955841Y-16007875I60168J190731D01*
G01*
X24830211Y-16007874D02*
G75*
G02*
X24712368Y-16107441I-178010J91164D01*
G01*
X21582578Y-17227677D02*
X20060484Y-18374656D01*
D11*
X16757788Y-10403536D02*
X17255001Y-10400000D01*
D10*
X4843035Y-13340984D02*
X5861409Y-8549904D01*
X24712369Y-16107442D02*
X23182242Y-16590157D01*
X16757788Y-10403536D02*
G75*
G02*
X16657062Y-10376321I2J200016D01*
G01*
X29924641Y-8549904D02*
X30943408Y-13342827D01*
X11801143Y-8068107D02*
X13664012Y-8637642D01*
D11*
X17270000Y-13715000D02*
X17267500Y-10400000D01*
X17270000Y-13715000D02*
X18510000Y-13710000D01*
D10*
X10955840Y-16007875D02*
X10009489Y-14160020D01*
X23169103Y-16594812D02*
G75*
G02*
X23182242Y-16590158I73017J-185259D01*
G01*
X28267737Y-8697620D02*
X29687429Y-8395856D01*
D11*
X18512500Y-10405000D02*
X19028264Y-10403537D01*
D10*
X23169103Y-16594812D02*
X21629631Y-17201323D01*
X21582578Y-17227677D02*
G75*
G02*
X21629630Y-17201322I120353J-159694D01*
G01*
X22122040Y-8637643D02*
X23984908Y-8068107D01*
X13706262Y-8656120D02*
X16657062Y-10376321D01*
X29320351Y-13892252D02*
X27582779Y-14228627D01*
X27521809Y-14230950D02*
X25977533Y-14052508D01*
X15725567Y-18374656D02*
X14203473Y-17227677D01*
X9808518Y-14052508D02*
G75*
G02*
X10009490Y-14160020I22962J-198672D01*
G01*
X19128990Y-10376321D02*
X22079789Y-8656119D01*
X29687429Y-8395856D02*
G75*
G02*
X29924643Y-8549903I41581J-195634D01*
G01*
X25776562Y-14160020D02*
G75*
G02*
X25977534Y-14052505I178008J-91150D01*
G01*
X25756388Y-8041105D02*
G75*
G02*
X25811332Y-8048193I2122J-200055D01*
G01*
X9974719Y-8048192D02*
G75*
G02*
X10029664Y-8041105I52811J-192898D01*
G01*
X23984908Y-8068107D02*
G75*
G02*
X24041251Y-8059379I58472J-191233D01*
G01*
X19940121Y-18414929D02*
X15845931Y-18414930D01*
D12*
X11370061Y-10979673D02*
G75*
G02*
X11270060Y-10979673I-50000J0D01*
G01*
X11270060Y-10979673D02*
G75*
G02*
X11370061Y-10979673I50000J0D01*
G01*
X12650179Y-10792857D02*
G75*
G02*
X12530178Y-10792857I-60000J0D01*
G01*
X12530178Y-10792857D02*
G75*
G02*
X12650179Y-10792857I60000J0D01*
G01*
X11867093Y-9353955D02*
G75*
G02*
X11767092Y-9353955I-50000J0D01*
G01*
X11767092Y-9353955D02*
G75*
G02*
X11867093Y-9353955I50000J0D01*
G01*
X13147211Y-9167138D02*
G75*
G02*
X13027211Y-9167138I-60000J0D01*
G01*
X13027211Y-9167138D02*
G75*
G02*
X13147211Y-9167138I60000J0D01*
G01*
X12323322Y-13676205D02*
G75*
G02*
X12223322Y-13676205I-50000J0D01*
G01*
X12223322Y-13676205D02*
G75*
G02*
X12323322Y-13676205I50000J0D01*
G01*
X13603440Y-13489388D02*
G75*
G02*
X13483440Y-13489388I-60000J0D01*
G01*
X13483440Y-13489388D02*
G75*
G02*
X13603440Y-13489388I60000J0D01*
G01*
X22909645Y-9693107D02*
G75*
G02*
X22809646Y-9693107I-50000J0D01*
G01*
X22809646Y-9693107D02*
G75*
G02*
X22909645Y-9693107I50000J0D01*
G01*
X23868155Y-8827988D02*
G75*
G02*
X23748154Y-8827988I-60000J0D01*
G01*
X23748154Y-8827988D02*
G75*
G02*
X23868155Y-8827988I60000J0D01*
G01*
X7065074Y-13318979D02*
G75*
G02*
X6965075Y-13318979I-50000J0D01*
G01*
X6965075Y-13318979D02*
G75*
G02*
X7065074Y-13318979I50000J0D01*
G01*
X8324077Y-13022175D02*
G75*
G02*
X8204076Y-13022175I-60000J0D01*
G01*
X8204076Y-13022175D02*
G75*
G02*
X8324077Y-13022175I60000J0D01*
G01*
X10095189Y-9335077D02*
G75*
G02*
X9995188Y-9335077I-50000J0D01*
G01*
X9995188Y-9335077D02*
G75*
G02*
X10095189Y-9335077I50000J0D01*
G01*
X11375307Y-9148260D02*
G75*
G02*
X11255306Y-9148260I-60000J0D01*
G01*
X11255306Y-9148260D02*
G75*
G02*
X11375307Y-9148260I60000J0D01*
G01*
X22453415Y-14015358D02*
G75*
G02*
X22353415Y-14015358I-50000J0D01*
G01*
X22353415Y-14015358D02*
G75*
G02*
X22453415Y-14015358I50000J0D01*
G01*
X23411924Y-13150239D02*
G75*
G02*
X23291924Y-13150239I-60000J0D01*
G01*
X23291924Y-13150239D02*
G75*
G02*
X23411924Y-13150239I60000J0D01*
G01*
X21507780Y-16558284D02*
G75*
G02*
X21407781Y-16558284I-50000J0D01*
G01*
X21407781Y-16558284D02*
G75*
G02*
X21507780Y-16558284I50000J0D01*
G01*
X22387280Y-15613789D02*
G75*
G02*
X22267279Y-15613789I-60000J0D01*
G01*
X22267279Y-15613789D02*
G75*
G02*
X22387280Y-15613789I60001J0D01*
G01*
X14884630Y-11113063D02*
G75*
G02*
X14784630Y-11113063I-50000J0D01*
G01*
X14784630Y-11113063D02*
G75*
G02*
X14884630Y-11113063I50000J0D01*
G01*
X16164749Y-10926247D02*
G75*
G02*
X16044748Y-10926247I-60000J0D01*
G01*
X16044748Y-10926247D02*
G75*
G02*
X16164749Y-10926247I60000J0D01*
G01*
X7418525Y-11656129D02*
G75*
G02*
X7318526Y-11656129I-50000J0D01*
G01*
X7318526Y-11656129D02*
G75*
G02*
X7418525Y-11656129I50000J0D01*
G01*
X8677528Y-11359325D02*
G75*
G02*
X8557527Y-11359325I-60000J0D01*
G01*
X8557527Y-11359325D02*
G75*
G02*
X8677528Y-11359325I60000J0D01*
G01*
X21956383Y-12389639D02*
G75*
G02*
X21856383Y-12389639I-50000J0D01*
G01*
X21856383Y-12389639D02*
G75*
G02*
X21956383Y-12389639I50000J0D01*
G01*
X22914892Y-11524521D02*
G75*
G02*
X22794892Y-11524521I-60000J0D01*
G01*
X22794892Y-11524521D02*
G75*
G02*
X22914892Y-11524521I60000J0D01*
G01*
X14973392Y-16924981D02*
G75*
G02*
X14873393Y-16924981I-50000J0D01*
G01*
X14873393Y-16924981D02*
G75*
G02*
X14973392Y-16924981I50000J0D01*
G01*
X16240808Y-17183836D02*
G75*
G02*
X16120807Y-17183836I-60001J0D01*
G01*
X16120807Y-17183836D02*
G75*
G02*
X16240808Y-17183836I60001J0D01*
G01*
X5755672Y-11302679D02*
G75*
G02*
X5655673Y-11302679I-50000J0D01*
G01*
X5655673Y-11302679D02*
G75*
G02*
X5755672Y-11302679I50000J0D01*
G01*
X7014675Y-11005874D02*
G75*
G02*
X6894674Y-11005874I-60000J0D01*
G01*
X6894674Y-11005874D02*
G75*
G02*
X7014675Y-11005874I60000J0D01*
G01*
X9598157Y-10960794D02*
G75*
G02*
X9498156Y-10960794I-50000J0D01*
G01*
X9498156Y-10960794D02*
G75*
G02*
X9598157Y-10960794I50000J0D01*
G01*
X10878275Y-10773977D02*
G75*
G02*
X10758274Y-10773977I-60000J0D01*
G01*
X10758274Y-10773977D02*
G75*
G02*
X10878275Y-10773977I60000J0D01*
G01*
X19892108Y-11452215D02*
G75*
G02*
X19792108Y-11452215I-50000J0D01*
G01*
X19792108Y-11452215D02*
G75*
G02*
X19892108Y-11452215I50000J0D01*
G01*
X20850617Y-10587096D02*
G75*
G02*
X20730617Y-10587096I-60000J0D01*
G01*
X20730617Y-10587096D02*
G75*
G02*
X20850617Y-10587096I60000J0D01*
G01*
X23903709Y-12944542D02*
G75*
G02*
X23803710Y-12944542I-50000J0D01*
G01*
X23803710Y-12944542D02*
G75*
G02*
X23903709Y-12944542I50000J0D01*
G01*
X24862219Y-12079423D02*
G75*
G02*
X24742218Y-12079423I-60000J0D01*
G01*
X24742218Y-12079423D02*
G75*
G02*
X24862219Y-12079423I60000J0D01*
G01*
X20886171Y-14703651D02*
G75*
G02*
X20786171Y-14703651I-50000J0D01*
G01*
X20786171Y-14703651D02*
G75*
G02*
X20886171Y-14703651I50000J0D01*
G01*
X21844680Y-13838532D02*
G75*
G02*
X21724680Y-13838532I-60000J0D01*
G01*
X21724680Y-13838532D02*
G75*
G02*
X21844680Y-13838532I60000J0D01*
G01*
X23406677Y-11318824D02*
G75*
G02*
X23306678Y-11318824I-50000J0D01*
G01*
X23306678Y-11318824D02*
G75*
G02*
X23406677Y-11318824I50000J0D01*
G01*
X24365187Y-10453706D02*
G75*
G02*
X24245186Y-10453706I-60000J0D01*
G01*
X24245186Y-10453706D02*
G75*
G02*
X24365187Y-10453706I60000J0D01*
G01*
X28642277Y-9881006D02*
G75*
G02*
X28542278Y-9881006I-50000J0D01*
G01*
X28542278Y-9881006D02*
G75*
G02*
X28642277Y-9881006I50000J0D01*
G01*
X29672577Y-9101847D02*
G75*
G02*
X29552576Y-9101847I-60000J0D01*
G01*
X29552576Y-9101847D02*
G75*
G02*
X29672577Y-9101847I60000J0D01*
G01*
X27686324Y-13560156D02*
G75*
G02*
X27586325Y-13560156I-50000J0D01*
G01*
X27586325Y-13560156D02*
G75*
G02*
X27686324Y-13560156I50000J0D01*
G01*
X28716624Y-12780997D02*
G75*
G02*
X28596624Y-12780997I-60000J0D01*
G01*
X28596624Y-12780997D02*
G75*
G02*
X28716624Y-12780997I60000J0D01*
G01*
X11642949Y-15559578D02*
G75*
G02*
X11542949Y-15559578I-50000J0D01*
G01*
X11542949Y-15559578D02*
G75*
G02*
X11642949Y-15559578I50000J0D01*
G01*
X12923067Y-15372761D02*
G75*
G02*
X12803067Y-15372761I-60000J0D01*
G01*
X12803067Y-15372761D02*
G75*
G02*
X12923067Y-15372761I60000J0D01*
G01*
X21459351Y-10763921D02*
G75*
G02*
X21359351Y-10763921I-50000J0D01*
G01*
X21359351Y-10763921D02*
G75*
G02*
X21459351Y-10763921I50000J0D01*
G01*
X22417860Y-9898802D02*
G75*
G02*
X22297860Y-9898802I-60000J0D01*
G01*
X22297860Y-9898802D02*
G75*
G02*
X22417860Y-9898802I60000J0D01*
G01*
X28995725Y-11543856D02*
G75*
G02*
X28895726Y-11543856I-50000J0D01*
G01*
X28895726Y-11543856D02*
G75*
G02*
X28995725Y-11543856I50000J0D01*
G01*
X30026025Y-10764697D02*
G75*
G02*
X29906025Y-10764697I-60000J0D01*
G01*
X29906025Y-10764697D02*
G75*
G02*
X30026025Y-10764697I60000J0D01*
G01*
X13890567Y-14364499D02*
G75*
G02*
X13790566Y-14364499I-50000J0D01*
G01*
X13790566Y-14364499D02*
G75*
G02*
X13890567Y-14364499I50000J0D01*
G01*
X15170685Y-14177683D02*
G75*
G02*
X15050685Y-14177683I-60000J0D01*
G01*
X15050685Y-14177683D02*
G75*
G02*
X15170685Y-14177683I60000J0D01*
G01*
X12820356Y-12050488D02*
G75*
G02*
X12720355Y-12050488I-50000J0D01*
G01*
X12720355Y-12050488D02*
G75*
G02*
X12820356Y-12050488I50000J0D01*
G01*
X14100474Y-11863672D02*
G75*
G02*
X13980474Y-11863672I-60000J0D01*
G01*
X13980474Y-11863672D02*
G75*
G02*
X14100474Y-11863672I60000J0D01*
G01*
X9101124Y-12586513D02*
G75*
G02*
X9001124Y-12586513I-50000J0D01*
G01*
X9001124Y-12586513D02*
G75*
G02*
X9101124Y-12586513I50000J0D01*
G01*
X10381242Y-12399696D02*
G75*
G02*
X10261242Y-12399696I-60000J0D01*
G01*
X10261242Y-12399696D02*
G75*
G02*
X10381242Y-12399696I60000J0D01*
G01*
X23133788Y-15898729D02*
G75*
G02*
X23033788Y-15898729I-50000J0D01*
G01*
X23033788Y-15898729D02*
G75*
G02*
X23133788Y-15898729I50000J0D01*
G01*
X24092297Y-15033610D02*
G75*
G02*
X23972297Y-15033610I-60000J0D01*
G01*
X23972297Y-15033610D02*
G75*
G02*
X24092297Y-15033610I60000J0D01*
G01*
X27332876Y-11897307D02*
G75*
G02*
X27232877Y-11897307I-50000J0D01*
G01*
X27232877Y-11897307D02*
G75*
G02*
X27332876Y-11897307I50000J0D01*
G01*
X28363176Y-11118147D02*
G75*
G02*
X28243176Y-11118147I-60000J0D01*
G01*
X28243176Y-11118147D02*
G75*
G02*
X28363176Y-11118147I60000J0D01*
G01*
X6109122Y-9639828D02*
G75*
G02*
X6009123Y-9639828I-50000J0D01*
G01*
X6009123Y-9639828D02*
G75*
G02*
X6109122Y-9639828I50000J0D01*
G01*
X7368125Y-9343023D02*
G75*
G02*
X7248124Y-9343023I-60000J0D01*
G01*
X7248124Y-9343023D02*
G75*
G02*
X7368125Y-9343023I60000J0D01*
G01*
X7771974Y-9993277D02*
G75*
G02*
X7671975Y-9993277I-50000J0D01*
G01*
X7671975Y-9993277D02*
G75*
G02*
X7771974Y-9993277I50000J0D01*
G01*
X9030977Y-9696473D02*
G75*
G02*
X8910976Y-9696473I-60000J0D01*
G01*
X8910976Y-9696473D02*
G75*
G02*
X9030977Y-9696473I60000J0D01*
G01*
X13302738Y-16123740D02*
G75*
G02*
X13202738Y-16123740I-50000J0D01*
G01*
X13202738Y-16123740D02*
G75*
G02*
X13302738Y-16123740I50000J0D01*
G01*
X14594304Y-16048333D02*
G75*
G02*
X14474305Y-16048333I-60000J0D01*
G01*
X14474305Y-16048333D02*
G75*
G02*
X14594304Y-16048333I60000J0D01*
G01*
X20389138Y-13077932D02*
G75*
G02*
X20289139Y-13077932I-50000J0D01*
G01*
X20289139Y-13077932D02*
G75*
G02*
X20389138Y-13077932I50000J0D01*
G01*
X21347648Y-12212813D02*
G75*
G02*
X21227647Y-12212813I-60000J0D01*
G01*
X21227647Y-12212813D02*
G75*
G02*
X21347648Y-12212813I60000J0D01*
G01*
X25675612Y-12925664D02*
G75*
G02*
X25575613Y-12925664I-50000J0D01*
G01*
X25575613Y-12925664D02*
G75*
G02*
X25675612Y-12925664I50000J0D01*
G01*
X26634122Y-12060545D02*
G75*
G02*
X26514122Y-12060545I-60000J0D01*
G01*
X26514122Y-12060545D02*
G75*
G02*
X26634122Y-12060545I60000J0D01*
G01*
X14387599Y-12738781D02*
G75*
G02*
X14287599Y-12738781I-50000J0D01*
G01*
X14287599Y-12738781D02*
G75*
G02*
X14387599Y-12738781I50000J0D01*
G01*
X15667717Y-12551965D02*
G75*
G02*
X15547717Y-12551965I-60000J0D01*
G01*
X15547717Y-12551965D02*
G75*
G02*
X15667717Y-12551965I60000J0D01*
G01*
X29349175Y-13206706D02*
G75*
G02*
X29249176Y-13206706I-50000J0D01*
G01*
X29249176Y-13206706D02*
G75*
G02*
X29349175Y-13206706I50000J0D01*
G01*
X30379475Y-12427547D02*
G75*
G02*
X30259475Y-12427547I-60000J0D01*
G01*
X30259475Y-12427547D02*
G75*
G02*
X30379475Y-12427547I60000J0D01*
G01*
X13317387Y-10424772D02*
G75*
G02*
X13217387Y-10424772I-50000J0D01*
G01*
X13217387Y-10424772D02*
G75*
G02*
X13317387Y-10424772I50000J0D01*
G01*
X14597506Y-10237955D02*
G75*
G02*
X14477505Y-10237955I-60000J0D01*
G01*
X14477505Y-10237955D02*
G75*
G02*
X14597506Y-10237955I60000J0D01*
G01*
X24681549Y-9674227D02*
G75*
G02*
X24581549Y-9674227I-50000J0D01*
G01*
X24581549Y-9674227D02*
G75*
G02*
X24681549Y-9674227I50000J0D01*
G01*
X25640058Y-8809108D02*
G75*
G02*
X25520058Y-8809108I-60000J0D01*
G01*
X25520058Y-8809108D02*
G75*
G02*
X25640058Y-8809108I60000J0D01*
G01*
X10873028Y-12605392D02*
G75*
G02*
X10773027Y-12605392I-50000J0D01*
G01*
X10773027Y-12605392D02*
G75*
G02*
X10873028Y-12605392I50000J0D01*
G01*
X12153146Y-12418576D02*
G75*
G02*
X12033146Y-12418576I-60000J0D01*
G01*
X12033146Y-12418576D02*
G75*
G02*
X12153146Y-12418576I60000J0D01*
G01*
X19986242Y-17623086D02*
G75*
G02*
X19886241Y-17623086I-50000J0D01*
G01*
X19886241Y-17623086D02*
G75*
G02*
X19986242Y-17623086I50000J0D01*
G01*
X20591660Y-16485732D02*
G75*
G02*
X20471659Y-16485732I-60000J0D01*
G01*
X20471659Y-16485732D02*
G75*
G02*
X20591660Y-16485732I60000J0D01*
G01*
X26979426Y-10234456D02*
G75*
G02*
X26879427Y-10234456I-50000J0D01*
G01*
X26879427Y-10234456D02*
G75*
G02*
X26979426Y-10234456I50000J0D01*
G01*
X28009726Y-9455296D02*
G75*
G02*
X27889726Y-9455296I-60000J0D01*
G01*
X27889726Y-9455296D02*
G75*
G02*
X28009726Y-9455296I60000J0D01*
G01*
X5402223Y-12965529D02*
G75*
G02*
X5302224Y-12965529I-50000J0D01*
G01*
X5302224Y-12965529D02*
G75*
G02*
X5402223Y-12965529I50000J0D01*
G01*
X6661226Y-12668725D02*
G75*
G02*
X6541225Y-12668725I-60000J0D01*
G01*
X6541225Y-12668725D02*
G75*
G02*
X6661226Y-12668725I60000J0D01*
G01*
X25178581Y-11299944D02*
G75*
G02*
X25078582Y-11299944I-50000J0D01*
G01*
X25078582Y-11299944D02*
G75*
G02*
X25178581Y-11299944I50000J0D01*
G01*
X26137091Y-10434826D02*
G75*
G02*
X26017091Y-10434826I-60000J0D01*
G01*
X26017091Y-10434826D02*
G75*
G02*
X26137091Y-10434826I60000J0D01*
G01*
D13*
D12*
X5739089Y-12478773D02*
X5769089Y-12508773D01*
X5769089Y-12478773D02*
X5739089Y-12508773D01*
X6092540Y-10815922D02*
X6122540Y-10845922D01*
X6122540Y-10815922D02*
X6092540Y-10845922D01*
X6296633Y-12597283D02*
X6326633Y-12627283D01*
X6326633Y-12597283D02*
X6296633Y-12627283D01*
X6445988Y-9153071D02*
X6475988Y-9183071D01*
X6475988Y-9153071D02*
X6445988Y-9183071D01*
X6650083Y-10934432D02*
X6680083Y-10964432D01*
X6680083Y-10934432D02*
X6650083Y-10964432D01*
X7003532Y-9271581D02*
X7033532Y-9301581D01*
X7033532Y-9271581D02*
X7003532Y-9301581D01*
X7401940Y-12832222D02*
X7431940Y-12862222D01*
X7431940Y-12832222D02*
X7401940Y-12862222D01*
X7755390Y-11169372D02*
X7785390Y-11199372D01*
X7785390Y-11169372D02*
X7755390Y-11199372D01*
X7959484Y-12950733D02*
X7989484Y-12980733D01*
X7989484Y-12950733D02*
X7959484Y-12980733D01*
X8108840Y-9506520D02*
X8138840Y-9536520D01*
X8138840Y-9506520D02*
X8108840Y-9536520D01*
X8312934Y-11287881D02*
X8342934Y-11317881D01*
X8342934Y-11287881D02*
X8312934Y-11317881D01*
X8666384Y-9625031D02*
X8696384Y-9655031D01*
X8696384Y-9625031D02*
X8666384Y-9655031D01*
X9477577Y-12136575D02*
X9507577Y-12166575D01*
X9507577Y-12136575D02*
X9477577Y-12166575D01*
X9974608Y-10510858D02*
X10004608Y-10540858D01*
X10004608Y-10510858D02*
X9974608Y-10540858D01*
X10022671Y-12303227D02*
X10052671Y-12333227D01*
X10052671Y-12303227D02*
X10022671Y-12333227D01*
X10471641Y-8885139D02*
X10501641Y-8915139D01*
X10501641Y-8885139D02*
X10471641Y-8915139D01*
X10519702Y-10677510D02*
X10549702Y-10707510D01*
X10549702Y-10677510D02*
X10519702Y-10707510D01*
X11016735Y-9051791D02*
X11046735Y-9081791D01*
X11046735Y-9051791D02*
X11016735Y-9081791D01*
X11249480Y-12155454D02*
X11279480Y-12185454D01*
X11279480Y-12155454D02*
X11249480Y-12185454D01*
X11746512Y-10529737D02*
X11776512Y-10559737D01*
X11776512Y-10529737D02*
X11746512Y-10559737D01*
X11794574Y-12322106D02*
X11824574Y-12352106D01*
X11824574Y-12322106D02*
X11794574Y-12352106D01*
X12019402Y-15109641D02*
X12049402Y-15139641D01*
X12049402Y-15109641D02*
X12019402Y-15139641D01*
X12243544Y-8904019D02*
X12273544Y-8934019D01*
X12273544Y-8904019D02*
X12243544Y-8934019D01*
X12291606Y-10696389D02*
X12321606Y-10726389D01*
X12321606Y-10696389D02*
X12291606Y-10726389D01*
X12564496Y-15276295D02*
X12594496Y-15306295D01*
X12594496Y-15276295D02*
X12564496Y-15306295D01*
X12699775Y-13226270D02*
X12729775Y-13256270D01*
X12729775Y-13226270D02*
X12699775Y-13256270D01*
X12788638Y-9070671D02*
X12818638Y-9100671D01*
X12818638Y-9070671D02*
X12788638Y-9100671D01*
X13196809Y-11600552D02*
X13226809Y-11630552D01*
X13226809Y-11600552D02*
X13196809Y-11630552D01*
X13244869Y-13392922D02*
X13274869Y-13422922D01*
X13274869Y-13392922D02*
X13244869Y-13422922D01*
X13693839Y-9974833D02*
X13723839Y-10004833D01*
X13723839Y-9974833D02*
X13693839Y-10004833D01*
X13715416Y-15713935D02*
X13745416Y-15743935D01*
X13745416Y-15713935D02*
X13715416Y-15743935D01*
X13741900Y-11767203D02*
X13771900Y-11797203D01*
X13771900Y-11767203D02*
X13741900Y-11797203D01*
X14238933Y-10141485D02*
X14268933Y-10171485D01*
X14268933Y-10141485D02*
X14238933Y-10171485D01*
X14243912Y-15927460D02*
X14273912Y-15957460D01*
X14273912Y-15927460D02*
X14243912Y-15957460D01*
X14267019Y-13914562D02*
X14297019Y-13944562D01*
X14297019Y-13914562D02*
X14267019Y-13944562D01*
X14764052Y-12288845D02*
X14794052Y-12318845D01*
X14794052Y-12288845D02*
X14764052Y-12318845D01*
X14812113Y-14081214D02*
X14842113Y-14111214D01*
X14842113Y-14081214D02*
X14812113Y-14111214D01*
X14943628Y-11836327D02*
X14973628Y-11866327D01*
X14973628Y-11836327D02*
X14943628Y-11866327D01*
X14967019Y-11759822D02*
X14997019Y-11789822D01*
X14997019Y-11759822D02*
X14967019Y-11789822D01*
X14990408Y-11683317D02*
X15020408Y-11713317D01*
X15020408Y-11683317D02*
X14990408Y-11713317D01*
X15013799Y-11606813D02*
X15043799Y-11636813D01*
X15043799Y-11606813D02*
X15013799Y-11636813D01*
X15043431Y-11526990D02*
X15073431Y-11556990D01*
X15073431Y-11526990D02*
X15043431Y-11556990D01*
X15261083Y-10663126D02*
X15291083Y-10693126D01*
X15291083Y-10663126D02*
X15261083Y-10693126D01*
X15309145Y-12455496D02*
X15339145Y-12485496D01*
X15339145Y-12455496D02*
X15309145Y-12485496D01*
X15471978Y-16652260D02*
X15501978Y-16682260D01*
X15501978Y-16652260D02*
X15471978Y-16682260D01*
X15806177Y-10829779D02*
X15836177Y-10859779D01*
X15836177Y-10829779D02*
X15806177Y-10859779D01*
X15927201Y-16995296D02*
X15957201Y-17025296D01*
X15957201Y-16995296D02*
X15927201Y-17025296D01*
X16520000Y-12835000D02*
X16550000Y-12865000D01*
X16550000Y-12835000D02*
X16520000Y-12865000D01*
X16600000Y-12835000D02*
X16630000Y-12865000D01*
X16630000Y-12835000D02*
X16600000Y-12865000D01*
X16685001Y-12835001D02*
X16715001Y-12865001D01*
X16715001Y-12835001D02*
X16685001Y-12865001D01*
X16764999Y-12835000D02*
X16795000Y-12865000D01*
X16795000Y-12835000D02*
X16764999Y-12865000D01*
X16845000Y-12835000D02*
X16875000Y-12865000D01*
X16875000Y-12835000D02*
X16845000Y-12865000D01*
X16930000Y-12835000D02*
X16960000Y-12865000D01*
X16960000Y-12835000D02*
X16930000Y-12865000D01*
X19828850Y-16995295D02*
X19858850Y-17025295D01*
X19858850Y-16995295D02*
X19828850Y-17025295D01*
X19949874Y-10829778D02*
X19979874Y-10859778D01*
X19979874Y-10829778D02*
X19949874Y-10859778D01*
X20284073Y-16652261D02*
X20314073Y-16682261D01*
X20314073Y-16652261D02*
X20284073Y-16682261D01*
X20446906Y-12455496D02*
X20476906Y-12485496D01*
X20476906Y-12455496D02*
X20446906Y-12485496D01*
X20494968Y-10663126D02*
X20524968Y-10693126D01*
X20524968Y-10663126D02*
X20494968Y-10693126D01*
X20943939Y-14081214D02*
X20973939Y-14111214D01*
X20973939Y-14081214D02*
X20943939Y-14111214D01*
X20992000Y-12288844D02*
X21022000Y-12318844D01*
X21022000Y-12288844D02*
X20992000Y-12318844D01*
X21489032Y-13914562D02*
X21519032Y-13944562D01*
X21519032Y-13914562D02*
X21489032Y-13944562D01*
X21512140Y-15927461D02*
X21542140Y-15957461D01*
X21542140Y-15927461D02*
X21512140Y-15957461D01*
X21517118Y-10141486D02*
X21547118Y-10171486D01*
X21547118Y-10141486D02*
X21517118Y-10171486D01*
X22014150Y-11767202D02*
X22044150Y-11797202D01*
X22044150Y-11767202D02*
X22014150Y-11797202D01*
X22040634Y-15713935D02*
X22070634Y-15743935D01*
X22070634Y-15713935D02*
X22040634Y-15743935D01*
X22062211Y-9974834D02*
X22092211Y-10004834D01*
X22092211Y-9974834D02*
X22062211Y-10004834D01*
X22511182Y-13392921D02*
X22541182Y-13422921D01*
X22541182Y-13392921D02*
X22511182Y-13422921D01*
X22559243Y-11600551D02*
X22589243Y-11630551D01*
X22589243Y-11600551D02*
X22559243Y-11630551D01*
X22967413Y-9070672D02*
X22997413Y-9100672D01*
X22997413Y-9070672D02*
X22967413Y-9100672D01*
X23056275Y-13226270D02*
X23086275Y-13256270D01*
X23086275Y-13226270D02*
X23056275Y-13256270D01*
X23191555Y-15276295D02*
X23221555Y-15306295D01*
X23221555Y-15276295D02*
X23191555Y-15306295D01*
X23464444Y-10696389D02*
X23494444Y-10726389D01*
X23494444Y-10696389D02*
X23464444Y-10726389D01*
X23512506Y-8904019D02*
X23542506Y-8934019D01*
X23542506Y-8904019D02*
X23512506Y-8934019D01*
X23736649Y-15109643D02*
X23766649Y-15139643D01*
X23766649Y-15109643D02*
X23736649Y-15139643D01*
X23961476Y-12322107D02*
X23991476Y-12352107D01*
X23991476Y-12322107D02*
X23961476Y-12352107D01*
X24009538Y-10529737D02*
X24039538Y-10559737D01*
X24039538Y-10529737D02*
X24009538Y-10559737D01*
X24506570Y-12155454D02*
X24536570Y-12185454D01*
X24536570Y-12155454D02*
X24506570Y-12185454D01*
X24739316Y-9051791D02*
X24769316Y-9081791D01*
X24769316Y-9051791D02*
X24739316Y-9081791D01*
X25236348Y-10677509D02*
X25266348Y-10707509D01*
X25266348Y-10677509D02*
X25236348Y-10707509D01*
X25284411Y-8885139D02*
X25314411Y-8915139D01*
X25314411Y-8885139D02*
X25284411Y-8915139D01*
X25733380Y-12303227D02*
X25763380Y-12333227D01*
X25763380Y-12303227D02*
X25733380Y-12333227D01*
X25781443Y-10510857D02*
X25811443Y-10540857D01*
X25811443Y-10510857D02*
X25781443Y-10540857D01*
X26278475Y-12136575D02*
X26308475Y-12166575D01*
X26308475Y-12136575D02*
X26278475Y-12166575D01*
X27089667Y-9625030D02*
X27119667Y-9655030D01*
X27119667Y-9625030D02*
X27089667Y-9655030D01*
X27443117Y-11287882D02*
X27473117Y-11317882D01*
X27473117Y-11287882D02*
X27443117Y-11317882D01*
X27647211Y-9506521D02*
X27677211Y-9536521D01*
X27677211Y-9506521D02*
X27647211Y-9536521D01*
X27796567Y-12950733D02*
X27826567Y-12980733D01*
X27826567Y-12950733D02*
X27796567Y-12980733D01*
X28000661Y-11169371D02*
X28030661Y-11199371D01*
X28030661Y-11169371D02*
X28000661Y-11199371D01*
X28354110Y-12832223D02*
X28384110Y-12862223D01*
X28384110Y-12832223D02*
X28354110Y-12862223D01*
X28752518Y-9271581D02*
X28782518Y-9301581D01*
X28782518Y-9271581D02*
X28752518Y-9301581D01*
X29105968Y-10934431D02*
X29135968Y-10964431D01*
X29135968Y-10934431D02*
X29105968Y-10964431D01*
X29310063Y-9153072D02*
X29340063Y-9183072D01*
X29340063Y-9153072D02*
X29310063Y-9183072D01*
X29459418Y-12597283D02*
X29489418Y-12627283D01*
X29489418Y-12597283D02*
X29459418Y-12627283D01*
X29663512Y-10815922D02*
X29693512Y-10845922D01*
X29693512Y-10815922D02*
X29663512Y-10845922D01*
X30016963Y-12478773D02*
X30046963Y-12508773D01*
X30046963Y-12478773D02*
X30016963Y-12508773D01*
X16535000Y-11867500D02*
G75*
G02*
X16460000Y-11867500I-37500J0D01*
G01*
X16460000Y-11867500D02*
G75*
G02*
X16535000Y-11867500I37500J0D01*
G01*
X16734999Y-11867501D02*
G75*
G02*
X16659999Y-11867501I-37500J0D01*
G01*
X16659999Y-11867501D02*
G75*
G02*
X16734999Y-11867501I37500J0D01*
G01*
X5677091Y-12974358D02*
X5677091Y-13074358D01*
X5627091Y-13024358D02*
X5727091Y-13024358D01*
X6030540Y-11311507D02*
X6030540Y-11411507D01*
X5980540Y-11361507D02*
X6080540Y-11361507D01*
X6068350Y-13057523D02*
X6068350Y-13157523D01*
X6018350Y-13107523D02*
X6118350Y-13107523D01*
X6383990Y-9648656D02*
X6383990Y-9748656D01*
X6333990Y-9698656D02*
X6433990Y-9698656D01*
X6421798Y-11394672D02*
X6421798Y-11494672D01*
X6371798Y-11444672D02*
X6471798Y-11444672D01*
X6775249Y-9731822D02*
X6775249Y-9831822D01*
X6725249Y-9781822D02*
X6825249Y-9781822D01*
X7339942Y-13327808D02*
X7339942Y-13427808D01*
X7289942Y-13377808D02*
X7389942Y-13377808D01*
X7693393Y-11664957D02*
X7693393Y-11764957D01*
X7643393Y-11714957D02*
X7743393Y-11714957D01*
X7731200Y-13410973D02*
X7731200Y-13510973D01*
X7681200Y-13460973D02*
X7781200Y-13460973D01*
X8046842Y-10002106D02*
X8046842Y-10102106D01*
X7996842Y-10052106D02*
X8096842Y-10052106D01*
X8084652Y-11748123D02*
X8084652Y-11848123D01*
X8034652Y-11798123D02*
X8134652Y-11798123D01*
X8438101Y-10085271D02*
X8438101Y-10185271D01*
X8388101Y-10135271D02*
X8488101Y-10135271D01*
X9369629Y-12623432D02*
X9369629Y-12723432D01*
X9319629Y-12673432D02*
X9419629Y-12673432D01*
X9752151Y-12740381D02*
X9752151Y-12840381D01*
X9702151Y-12790381D02*
X9802151Y-12790381D01*
X9866661Y-10997713D02*
X9866661Y-11097713D01*
X9816661Y-11047713D02*
X9916661Y-11047713D01*
X10249183Y-11114662D02*
X10249183Y-11214662D01*
X10199183Y-11164662D02*
X10299183Y-11164662D01*
X10363693Y-9371996D02*
X10363693Y-9471996D01*
X10313693Y-9421996D02*
X10413693Y-9421996D01*
X10746215Y-9488945D02*
X10746215Y-9588945D01*
X10696215Y-9538945D02*
X10796215Y-9538945D01*
X11141532Y-12642311D02*
X11141532Y-12742311D01*
X11091532Y-12692311D02*
X11191532Y-12692311D01*
X11524054Y-12759261D02*
X11524054Y-12859261D01*
X11474054Y-12809261D02*
X11574054Y-12809261D01*
X11638565Y-11016592D02*
X11638565Y-11116592D01*
X11588565Y-11066592D02*
X11688565Y-11066592D01*
X11911453Y-15596497D02*
X11911453Y-15696497D01*
X11861453Y-15646497D02*
X11961453Y-15646497D01*
X12021087Y-11133542D02*
X12021087Y-11233542D01*
X11971087Y-11183542D02*
X12071087Y-11183542D01*
X12135597Y-9390874D02*
X12135597Y-9490874D01*
X12085597Y-9440874D02*
X12185597Y-9440874D01*
X12293975Y-15713446D02*
X12293975Y-15813446D01*
X12243975Y-15763446D02*
X12343975Y-15763446D01*
X12518119Y-9507823D02*
X12518119Y-9607823D01*
X12468119Y-9557823D02*
X12568119Y-9557823D01*
X12591826Y-13713124D02*
X12591826Y-13813124D01*
X12541826Y-13763124D02*
X12641826Y-13763124D01*
X12974348Y-13830074D02*
X12974348Y-13930074D01*
X12924348Y-13880074D02*
X13024348Y-13880074D01*
X13088860Y-12087407D02*
X13088860Y-12187407D01*
X13038860Y-12137407D02*
X13138860Y-12137407D01*
X13471382Y-12204357D02*
X13471382Y-12304357D01*
X13421382Y-12254357D02*
X13521382Y-12254357D01*
X13562455Y-16188089D02*
X13562455Y-16288089D01*
X13512455Y-16238089D02*
X13612455Y-16238089D01*
X13585892Y-10461691D02*
X13585892Y-10561691D01*
X13535892Y-10511691D02*
X13635892Y-10511691D01*
X13933328Y-16337931D02*
X13933328Y-16437931D01*
X13883328Y-16387931D02*
X13983328Y-16387931D01*
X13968414Y-10578641D02*
X13968414Y-10678641D01*
X13918414Y-10628641D02*
X14018414Y-10628641D01*
X14159071Y-14401418D02*
X14159071Y-14501418D01*
X14109071Y-14451418D02*
X14209071Y-14451418D01*
X14541593Y-14518368D02*
X14541593Y-14618368D01*
X14491593Y-14568368D02*
X14591593Y-14568368D01*
X14656103Y-12775700D02*
X14656103Y-12875700D01*
X14606103Y-12825700D02*
X14706103Y-12825700D01*
X15038625Y-12892650D02*
X15038625Y-12992650D01*
X14988625Y-12942650D02*
X15088625Y-12942650D01*
X15153135Y-11149982D02*
X15153135Y-11249982D01*
X15103135Y-11199982D02*
X15203135Y-11199982D01*
X15192960Y-17065594D02*
X15192960Y-17165594D01*
X15142960Y-17115594D02*
X15242960Y-17115594D01*
X15512414Y-17306319D02*
X15512414Y-17406319D01*
X15462414Y-17356319D02*
X15562414Y-17356319D01*
X15535657Y-11266932D02*
X15535657Y-11366932D01*
X15485657Y-11316932D02*
X15585657Y-11316932D01*
X16707499Y-11485000D02*
X16707499Y-11585000D01*
X16657499Y-11535000D02*
X16757499Y-11535000D01*
X16707500Y-10835000D02*
X16707500Y-10935000D01*
X16657500Y-10885000D02*
X16757500Y-10885000D01*
X17128499Y-12003500D02*
X17128499Y-12103500D01*
X17078499Y-12053500D02*
X17178499Y-12053500D01*
X17128499Y-12257499D02*
X17128499Y-12357499D01*
X17078499Y-12307499D02*
X17178499Y-12307499D01*
X17128499Y-11495500D02*
X17128499Y-11595500D01*
X17078499Y-11545500D02*
X17178499Y-11545500D01*
X17128499Y-10987499D02*
X17128499Y-11087499D01*
X17078499Y-11037499D02*
X17178499Y-11037499D01*
X17128499Y-12511500D02*
X17128499Y-12611500D01*
X17078499Y-12561500D02*
X17178499Y-12561500D01*
X17128499Y-12765499D02*
X17128499Y-12865499D01*
X17078499Y-12815499D02*
X17178499Y-12815499D01*
X17128499Y-13273500D02*
X17128499Y-13373500D01*
X17078499Y-13323500D02*
X17178499Y-13323500D01*
X17128500Y-13527500D02*
X17128500Y-13627500D01*
X17078500Y-13577500D02*
X17178500Y-13577500D01*
X17128500Y-13019500D02*
X17128500Y-13119500D01*
X17078500Y-13069500D02*
X17178500Y-13069500D01*
X17128500Y-10733501D02*
X17128500Y-10833501D01*
X17078500Y-10783501D02*
X17178500Y-10783501D01*
X17128500Y-11749500D02*
X17128500Y-11849500D01*
X17078500Y-11799500D02*
X17178500Y-11799500D01*
X17128500Y-11241500D02*
X17128500Y-11341500D01*
X17078500Y-11291500D02*
X17178500Y-11291500D01*
X18652499Y-12765500D02*
X18652499Y-12865500D01*
X18602499Y-12815500D02*
X18702499Y-12815500D01*
X18652499Y-12257500D02*
X18652499Y-12357500D01*
X18602499Y-12307500D02*
X18702499Y-12307500D01*
X18652499Y-13273499D02*
X18652499Y-13373499D01*
X18602499Y-13323499D02*
X18702499Y-13323499D01*
X18652499Y-10987500D02*
X18652499Y-11087500D01*
X18602499Y-11037500D02*
X18702499Y-11037500D01*
X18652499Y-13527501D02*
X18652499Y-13627501D01*
X18602499Y-13577501D02*
X18702499Y-13577501D01*
X18652499Y-10733500D02*
X18652499Y-10833500D01*
X18602499Y-10783500D02*
X18702499Y-10783500D01*
X18652499Y-11241500D02*
X18652499Y-11341500D01*
X18602499Y-11291500D02*
X18702499Y-11291500D01*
X18652500Y-11495500D02*
X18652500Y-11595500D01*
X18602500Y-11545500D02*
X18702500Y-11545500D01*
X18652500Y-13019501D02*
X18652500Y-13119501D01*
X18602500Y-13069501D02*
X18702500Y-13069501D01*
X18652500Y-12511500D02*
X18652500Y-12611500D01*
X18602500Y-12561500D02*
X18702500Y-12561500D01*
X18652500Y-11749501D02*
X18652500Y-11849501D01*
X18602500Y-11799501D02*
X18702500Y-11799501D01*
X18652500Y-12003500D02*
X18652500Y-12103500D01*
X18602500Y-12053500D02*
X18702500Y-12053500D01*
X20154765Y-11296169D02*
X20154765Y-11396169D01*
X20104765Y-11346169D02*
X20204765Y-11346169D01*
X20193773Y-17366502D02*
X20193773Y-17466502D01*
X20143773Y-17416502D02*
X20243773Y-17416502D01*
X20513227Y-17125775D02*
X20513227Y-17225775D01*
X20463227Y-17175775D02*
X20563227Y-17175775D01*
X20537287Y-11179221D02*
X20537287Y-11279220D01*
X20487287Y-11229220D02*
X20587287Y-11229220D01*
X20651795Y-12921886D02*
X20651795Y-13021886D01*
X20601795Y-12971886D02*
X20701795Y-12971886D01*
X21034317Y-12804938D02*
X21034317Y-12904938D01*
X20984317Y-12854938D02*
X21084317Y-12854938D01*
X21148828Y-14547606D02*
X21148828Y-14647606D01*
X21098828Y-14597606D02*
X21198828Y-14597606D01*
X21531349Y-14430657D02*
X21531349Y-14530657D01*
X21481349Y-14480657D02*
X21581349Y-14480657D01*
X21722008Y-10607875D02*
X21722008Y-10707875D01*
X21672008Y-10657875D02*
X21772008Y-10657875D01*
X21760004Y-16375392D02*
X21760004Y-16475392D01*
X21710004Y-16425392D02*
X21810004Y-16425392D01*
X22104529Y-10490927D02*
X22104529Y-10590927D01*
X22054529Y-10540927D02*
X22154529Y-10540927D01*
X22130878Y-16225549D02*
X22130878Y-16325549D01*
X22080878Y-16275549D02*
X22180878Y-16275549D01*
X22219040Y-12233594D02*
X22219040Y-12333594D01*
X22169040Y-12283594D02*
X22269040Y-12283594D01*
X22601561Y-12116645D02*
X22601561Y-12216645D01*
X22551561Y-12166645D02*
X22651561Y-12166645D01*
X22716072Y-13859312D02*
X22716072Y-13959312D01*
X22666072Y-13909312D02*
X22766072Y-13909312D01*
X23098594Y-13742363D02*
X23098594Y-13842363D01*
X23048594Y-13792363D02*
X23148594Y-13792363D01*
X23172302Y-9537061D02*
X23172302Y-9637061D01*
X23122302Y-9587061D02*
X23222302Y-9587061D01*
X23396445Y-15742683D02*
X23396445Y-15842683D01*
X23346445Y-15792683D02*
X23446445Y-15792683D01*
X23554824Y-9420113D02*
X23554824Y-9520113D01*
X23504824Y-9470113D02*
X23604824Y-9470113D01*
X23669334Y-11162779D02*
X23669334Y-11262779D01*
X23619334Y-11212779D02*
X23719334Y-11212779D01*
X23778967Y-15625735D02*
X23778967Y-15725735D01*
X23728967Y-15675735D02*
X23828967Y-15675735D01*
X24051856Y-11045830D02*
X24051856Y-11145830D01*
X24001856Y-11095830D02*
X24101856Y-11095830D01*
X24166366Y-12788496D02*
X24166366Y-12888496D01*
X24116366Y-12838496D02*
X24216366Y-12838496D01*
X24548888Y-12671548D02*
X24548888Y-12771548D01*
X24498888Y-12721548D02*
X24598888Y-12721548D01*
X24944206Y-9518181D02*
X24944206Y-9618181D01*
X24894206Y-9568181D02*
X24994206Y-9568181D01*
X25326727Y-9401233D02*
X25326727Y-9501233D01*
X25276727Y-9451233D02*
X25376727Y-9451233D01*
X25441239Y-11143899D02*
X25441239Y-11243899D01*
X25391239Y-11193899D02*
X25491239Y-11193899D01*
X25823760Y-11026950D02*
X25823760Y-11126950D01*
X25773760Y-11076950D02*
X25873760Y-11076950D01*
X25938270Y-12769618D02*
X25938270Y-12869618D01*
X25888270Y-12819618D02*
X25988270Y-12819618D01*
X26320791Y-12652670D02*
X26320791Y-12752670D01*
X26270791Y-12702670D02*
X26370791Y-12702670D01*
X27250136Y-10106063D02*
X27250136Y-10206063D01*
X27200136Y-10156063D02*
X27300136Y-10156063D01*
X27603586Y-11768914D02*
X27603586Y-11868914D01*
X27553586Y-11818914D02*
X27653586Y-11818914D01*
X27641395Y-10022898D02*
X27641395Y-10122898D01*
X27591395Y-10072898D02*
X27691395Y-10072898D01*
X27957034Y-13431763D02*
X27957034Y-13531763D01*
X27907034Y-13481763D02*
X28007034Y-13481763D01*
X27994845Y-11685749D02*
X27994845Y-11785749D01*
X27944845Y-11735749D02*
X28044845Y-11735749D01*
X28348293Y-13348599D02*
X28348293Y-13448599D01*
X28298293Y-13398599D02*
X28398293Y-13398599D01*
X28912986Y-9752613D02*
X28912986Y-9852613D01*
X28862986Y-9802613D02*
X28962986Y-9802613D01*
X29266435Y-11415463D02*
X29266435Y-11515463D01*
X29216435Y-11465463D02*
X29316435Y-11465463D01*
X29304246Y-9669448D02*
X29304246Y-9769448D01*
X29254246Y-9719448D02*
X29354246Y-9719448D01*
X29619885Y-13078314D02*
X29619885Y-13178314D01*
X29569885Y-13128314D02*
X29669885Y-13128314D01*
X29657694Y-11332299D02*
X29657694Y-11432299D01*
X29607694Y-11382299D02*
X29707694Y-11382299D01*
X30011144Y-12995149D02*
X30011144Y-13095149D01*
X29961144Y-13045149D02*
X30061144Y-13045149D01*
D13*
X5091942Y-18733914D02*
X5091942Y-18533914D01*
X5091942Y-18533914D02*
X5139561Y-18533914D01*
X5139561Y-18533914D02*
X5168132Y-18543437D01*
X5168132Y-18543437D02*
X5187180Y-18562485D01*
X5187180Y-18562485D02*
X5196704Y-18581533D01*
X5196704Y-18581533D02*
X5206228Y-18619628D01*
X5206228Y-18619628D02*
X5206228Y-18648199D01*
X5206228Y-18648199D02*
X5196704Y-18686295D01*
X5196704Y-18686295D02*
X5187180Y-18705342D01*
X5187180Y-18705342D02*
X5168132Y-18724390D01*
X5168132Y-18724390D02*
X5139561Y-18733914D01*
X5139561Y-18733914D02*
X5091942Y-18733914D01*
X5291942Y-18733914D02*
X5291942Y-18600580D01*
X5291942Y-18638676D02*
X5301466Y-18619628D01*
X5301466Y-18619628D02*
X5310990Y-18610104D01*
X5310990Y-18610104D02*
X5330037Y-18600580D01*
X5330037Y-18600580D02*
X5349085Y-18600580D01*
X5415751Y-18733914D02*
X5415751Y-18600580D01*
X5415751Y-18533914D02*
X5406228Y-18543437D01*
X5406228Y-18543437D02*
X5415751Y-18552961D01*
X5415751Y-18552961D02*
X5425275Y-18543437D01*
X5425275Y-18543437D02*
X5415751Y-18533914D01*
X5415751Y-18533914D02*
X5415751Y-18552961D01*
X5539561Y-18733914D02*
X5520513Y-18724390D01*
X5520513Y-18724390D02*
X5510990Y-18705342D01*
X5510990Y-18705342D02*
X5510990Y-18533914D01*
X5644323Y-18733914D02*
X5625275Y-18724390D01*
X5625275Y-18724390D02*
X5615751Y-18705342D01*
X5615751Y-18705342D02*
X5615751Y-18533914D01*
X5872894Y-18733914D02*
X5872894Y-18533914D01*
X5872894Y-18533914D02*
X5939561Y-18676771D01*
X5939561Y-18676771D02*
X6006228Y-18533914D01*
X6006228Y-18533914D02*
X6006228Y-18733914D01*
X6187180Y-18733914D02*
X6187180Y-18629152D01*
X6187180Y-18629152D02*
X6177656Y-18610104D01*
X6177656Y-18610104D02*
X6158609Y-18600580D01*
X6158609Y-18600580D02*
X6120513Y-18600580D01*
X6120513Y-18600580D02*
X6101466Y-18610104D01*
X6187180Y-18724390D02*
X6168132Y-18733914D01*
X6168132Y-18733914D02*
X6120513Y-18733914D01*
X6120513Y-18733914D02*
X6101466Y-18724390D01*
X6101466Y-18724390D02*
X6091942Y-18705342D01*
X6091942Y-18705342D02*
X6091942Y-18686295D01*
X6091942Y-18686295D02*
X6101466Y-18667247D01*
X6101466Y-18667247D02*
X6120513Y-18657723D01*
X6120513Y-18657723D02*
X6168132Y-18657723D01*
X6168132Y-18657723D02*
X6187180Y-18648199D01*
X6282418Y-18600580D02*
X6282418Y-18800580D01*
X6282418Y-18610104D02*
X6301466Y-18600580D01*
X6301466Y-18600580D02*
X6339561Y-18600580D01*
X6339561Y-18600580D02*
X6358609Y-18610104D01*
X6358609Y-18610104D02*
X6368132Y-18619628D01*
X6368132Y-18619628D02*
X6377656Y-18638676D01*
X6377656Y-18638676D02*
X6377656Y-18695818D01*
X6377656Y-18695818D02*
X6368132Y-18714866D01*
X6368132Y-18714866D02*
X6358609Y-18724390D01*
X6358609Y-18724390D02*
X6339561Y-18733914D01*
X6339561Y-18733914D02*
X6301466Y-18733914D01*
X6301466Y-18733914D02*
X6282418Y-18724390D01*
X6463370Y-18714866D02*
X6472894Y-18724390D01*
X6472894Y-18724390D02*
X6463370Y-18733914D01*
X6463370Y-18733914D02*
X6453847Y-18724390D01*
X6453847Y-18724390D02*
X6463370Y-18714866D01*
X6463370Y-18714866D02*
X6463370Y-18733914D01*
X6463370Y-18610104D02*
X6472894Y-18619628D01*
X6472894Y-18619628D02*
X6463370Y-18629152D01*
X6463370Y-18629152D02*
X6453847Y-18619628D01*
X6453847Y-18619628D02*
X6463370Y-18610104D01*
X6463370Y-18610104D02*
X6463370Y-18629152D01*
D12*
X4801165Y-19047430D02*
X4831165Y-19077430D01*
X4831165Y-19047430D02*
X4801165Y-19077430D01*
D13*
X5130037Y-18953914D02*
X5149085Y-18953914D01*
X5149085Y-18953914D02*
X5168132Y-18963437D01*
X5168132Y-18963437D02*
X5177656Y-18972961D01*
X5177656Y-18972961D02*
X5187180Y-18992009D01*
X5187180Y-18992009D02*
X5196704Y-19030104D01*
X5196704Y-19030104D02*
X5196704Y-19077723D01*
X5196704Y-19077723D02*
X5187180Y-19115818D01*
X5187180Y-19115818D02*
X5177656Y-19134866D01*
X5177656Y-19134866D02*
X5168132Y-19144390D01*
X5168132Y-19144390D02*
X5149085Y-19153914D01*
X5149085Y-19153914D02*
X5130037Y-19153914D01*
X5130037Y-19153914D02*
X5110990Y-19144390D01*
X5110990Y-19144390D02*
X5101466Y-19134866D01*
X5101466Y-19134866D02*
X5091942Y-19115818D01*
X5091942Y-19115818D02*
X5082418Y-19077723D01*
X5082418Y-19077723D02*
X5082418Y-19030104D01*
X5082418Y-19030104D02*
X5091942Y-18992009D01*
X5091942Y-18992009D02*
X5101466Y-18972961D01*
X5101466Y-18972961D02*
X5110990Y-18963437D01*
X5110990Y-18963437D02*
X5130037Y-18953914D01*
X5282418Y-19134866D02*
X5291942Y-19144390D01*
X5291942Y-19144390D02*
X5282418Y-19153914D01*
X5282418Y-19153914D02*
X5272894Y-19144390D01*
X5272894Y-19144390D02*
X5282418Y-19134866D01*
X5282418Y-19134866D02*
X5282418Y-19153914D01*
X5358609Y-18953914D02*
X5482418Y-18953914D01*
X5482418Y-18953914D02*
X5415751Y-19030104D01*
X5415751Y-19030104D02*
X5444323Y-19030104D01*
X5444323Y-19030104D02*
X5463371Y-19039628D01*
X5463371Y-19039628D02*
X5472894Y-19049152D01*
X5472894Y-19049152D02*
X5482418Y-19068199D01*
X5482418Y-19068199D02*
X5482418Y-19115818D01*
X5482418Y-19115818D02*
X5472894Y-19134866D01*
X5472894Y-19134866D02*
X5463371Y-19144390D01*
X5463371Y-19144390D02*
X5444323Y-19153914D01*
X5444323Y-19153914D02*
X5387180Y-19153914D01*
X5387180Y-19153914D02*
X5368132Y-19144390D01*
X5368132Y-19144390D02*
X5358609Y-19134866D01*
X5606228Y-18953914D02*
X5625275Y-18953914D01*
X5625275Y-18953914D02*
X5644323Y-18963437D01*
X5644323Y-18963437D02*
X5653847Y-18972961D01*
X5653847Y-18972961D02*
X5663370Y-18992009D01*
X5663370Y-18992009D02*
X5672894Y-19030104D01*
X5672894Y-19030104D02*
X5672894Y-19077723D01*
X5672894Y-19077723D02*
X5663370Y-19115818D01*
X5663370Y-19115818D02*
X5653847Y-19134866D01*
X5653847Y-19134866D02*
X5644323Y-19144390D01*
X5644323Y-19144390D02*
X5625275Y-19153914D01*
X5625275Y-19153914D02*
X5606228Y-19153914D01*
X5606228Y-19153914D02*
X5587180Y-19144390D01*
X5587180Y-19144390D02*
X5577656Y-19134866D01*
X5577656Y-19134866D02*
X5568132Y-19115818D01*
X5568132Y-19115818D02*
X5558609Y-19077723D01*
X5558609Y-19077723D02*
X5558609Y-19030104D01*
X5558609Y-19030104D02*
X5568132Y-18992009D01*
X5568132Y-18992009D02*
X5577656Y-18972961D01*
X5577656Y-18972961D02*
X5587180Y-18963437D01*
X5587180Y-18963437D02*
X5606228Y-18953914D01*
X5796704Y-18953914D02*
X5815751Y-18953914D01*
X5815751Y-18953914D02*
X5834799Y-18963437D01*
X5834799Y-18963437D02*
X5844323Y-18972961D01*
X5844323Y-18972961D02*
X5853847Y-18992009D01*
X5853847Y-18992009D02*
X5863370Y-19030104D01*
X5863370Y-19030104D02*
X5863370Y-19077723D01*
X5863370Y-19077723D02*
X5853847Y-19115818D01*
X5853847Y-19115818D02*
X5844323Y-19134866D01*
X5844323Y-19134866D02*
X5834799Y-19144390D01*
X5834799Y-19144390D02*
X5815751Y-19153914D01*
X5815751Y-19153914D02*
X5796704Y-19153914D01*
X5796704Y-19153914D02*
X5777656Y-19144390D01*
X5777656Y-19144390D02*
X5768132Y-19134866D01*
X5768132Y-19134866D02*
X5758609Y-19115818D01*
X5758609Y-19115818D02*
X5749085Y-19077723D01*
X5749085Y-19077723D02*
X5749085Y-19030104D01*
X5749085Y-19030104D02*
X5758609Y-18992009D01*
X5758609Y-18992009D02*
X5768132Y-18972961D01*
X5768132Y-18972961D02*
X5777656Y-18963437D01*
X5777656Y-18963437D02*
X5796704Y-18953914D01*
X5949085Y-19153914D02*
X5949085Y-19020580D01*
X5949085Y-19039628D02*
X5958609Y-19030104D01*
X5958609Y-19030104D02*
X5977656Y-19020580D01*
X5977656Y-19020580D02*
X6006228Y-19020580D01*
X6006228Y-19020580D02*
X6025275Y-19030104D01*
X6025275Y-19030104D02*
X6034799Y-19049152D01*
X6034799Y-19049152D02*
X6034799Y-19153914D01*
X6034799Y-19049152D02*
X6044323Y-19030104D01*
X6044323Y-19030104D02*
X6063370Y-19020580D01*
X6063370Y-19020580D02*
X6091942Y-19020580D01*
X6091942Y-19020580D02*
X6110990Y-19030104D01*
X6110990Y-19030104D02*
X6120513Y-19049152D01*
X6120513Y-19049152D02*
X6120513Y-19153914D01*
X6215751Y-19153914D02*
X6215751Y-19020580D01*
X6215751Y-19039628D02*
X6225275Y-19030104D01*
X6225275Y-19030104D02*
X6244323Y-19020580D01*
X6244323Y-19020580D02*
X6272894Y-19020580D01*
X6272894Y-19020580D02*
X6291942Y-19030104D01*
X6291942Y-19030104D02*
X6301466Y-19049152D01*
X6301466Y-19049152D02*
X6301466Y-19153914D01*
X6301466Y-19049152D02*
X6310990Y-19030104D01*
X6310990Y-19030104D02*
X6330037Y-19020580D01*
X6330037Y-19020580D02*
X6358609Y-19020580D01*
X6358609Y-19020580D02*
X6377656Y-19030104D01*
X6377656Y-19030104D02*
X6387180Y-19049152D01*
X6387180Y-19049152D02*
X6387180Y-19153914D01*
X6777656Y-18944390D02*
X6606228Y-19201533D01*
X7034799Y-18953914D02*
X7053847Y-18953914D01*
X7053847Y-18953914D02*
X7072894Y-18963437D01*
X7072894Y-18963437D02*
X7082418Y-18972961D01*
X7082418Y-18972961D02*
X7091942Y-18992009D01*
X7091942Y-18992009D02*
X7101466Y-19030104D01*
X7101466Y-19030104D02*
X7101466Y-19077723D01*
X7101466Y-19077723D02*
X7091942Y-19115818D01*
X7091942Y-19115818D02*
X7082418Y-19134866D01*
X7082418Y-19134866D02*
X7072894Y-19144390D01*
X7072894Y-19144390D02*
X7053847Y-19153914D01*
X7053847Y-19153914D02*
X7034799Y-19153914D01*
X7034799Y-19153914D02*
X7015752Y-19144390D01*
X7015752Y-19144390D02*
X7006228Y-19134866D01*
X7006228Y-19134866D02*
X6996704Y-19115818D01*
X6996704Y-19115818D02*
X6987180Y-19077723D01*
X6987180Y-19077723D02*
X6987180Y-19030104D01*
X6987180Y-19030104D02*
X6996704Y-18992009D01*
X6996704Y-18992009D02*
X7006228Y-18972961D01*
X7006228Y-18972961D02*
X7015752Y-18963437D01*
X7015752Y-18963437D02*
X7034799Y-18953914D01*
X7187180Y-19134866D02*
X7196704Y-19144390D01*
X7196704Y-19144390D02*
X7187180Y-19153914D01*
X7187180Y-19153914D02*
X7177656Y-19144390D01*
X7177656Y-19144390D02*
X7187180Y-19134866D01*
X7187180Y-19134866D02*
X7187180Y-19153914D01*
X7320513Y-18953914D02*
X7339561Y-18953914D01*
X7339561Y-18953914D02*
X7358609Y-18963437D01*
X7358609Y-18963437D02*
X7368133Y-18972961D01*
X7368133Y-18972961D02*
X7377656Y-18992009D01*
X7377656Y-18992009D02*
X7387180Y-19030104D01*
X7387180Y-19030104D02*
X7387180Y-19077723D01*
X7387180Y-19077723D02*
X7377656Y-19115818D01*
X7377656Y-19115818D02*
X7368133Y-19134866D01*
X7368133Y-19134866D02*
X7358609Y-19144390D01*
X7358609Y-19144390D02*
X7339561Y-19153914D01*
X7339561Y-19153914D02*
X7320513Y-19153914D01*
X7320513Y-19153914D02*
X7301466Y-19144390D01*
X7301466Y-19144390D02*
X7291942Y-19134866D01*
X7291942Y-19134866D02*
X7282418Y-19115818D01*
X7282418Y-19115818D02*
X7272894Y-19077723D01*
X7272894Y-19077723D02*
X7272894Y-19030104D01*
X7272894Y-19030104D02*
X7282418Y-18992009D01*
X7282418Y-18992009D02*
X7291942Y-18972961D01*
X7291942Y-18972961D02*
X7301466Y-18963437D01*
X7301466Y-18963437D02*
X7320513Y-18953914D01*
X7577656Y-19153914D02*
X7463371Y-19153914D01*
X7520513Y-19153914D02*
X7520513Y-18953914D01*
X7520513Y-18953914D02*
X7501466Y-18982485D01*
X7501466Y-18982485D02*
X7482418Y-19001533D01*
X7482418Y-19001533D02*
X7463371Y-19011056D01*
X7768133Y-19153914D02*
X7653847Y-19153914D01*
X7710990Y-19153914D02*
X7710990Y-18953914D01*
X7710990Y-18953914D02*
X7691942Y-18982485D01*
X7691942Y-18982485D02*
X7672894Y-19001533D01*
X7672894Y-19001533D02*
X7653847Y-19011056D01*
X7882418Y-19039628D02*
X7863371Y-19030104D01*
X7863371Y-19030104D02*
X7853847Y-19020580D01*
X7853847Y-19020580D02*
X7844323Y-19001533D01*
X7844323Y-19001533D02*
X7844323Y-18992009D01*
X7844323Y-18992009D02*
X7853847Y-18972961D01*
X7853847Y-18972961D02*
X7863371Y-18963437D01*
X7863371Y-18963437D02*
X7882418Y-18953914D01*
X7882418Y-18953914D02*
X7920514Y-18953914D01*
X7920514Y-18953914D02*
X7939561Y-18963437D01*
X7939561Y-18963437D02*
X7949085Y-18972961D01*
X7949085Y-18972961D02*
X7958609Y-18992009D01*
X7958609Y-18992009D02*
X7958609Y-19001533D01*
X7958609Y-19001533D02*
X7949085Y-19020580D01*
X7949085Y-19020580D02*
X7939561Y-19030104D01*
X7939561Y-19030104D02*
X7920514Y-19039628D01*
X7920514Y-19039628D02*
X7882418Y-19039628D01*
X7882418Y-19039628D02*
X7863371Y-19049152D01*
X7863371Y-19049152D02*
X7853847Y-19058676D01*
X7853847Y-19058676D02*
X7844323Y-19077723D01*
X7844323Y-19077723D02*
X7844323Y-19115818D01*
X7844323Y-19115818D02*
X7853847Y-19134866D01*
X7853847Y-19134866D02*
X7863371Y-19144390D01*
X7863371Y-19144390D02*
X7882418Y-19153914D01*
X7882418Y-19153914D02*
X7920514Y-19153914D01*
X7920514Y-19153914D02*
X7939561Y-19144390D01*
X7939561Y-19144390D02*
X7949085Y-19134866D01*
X7949085Y-19134866D02*
X7958609Y-19115818D01*
X7958609Y-19115818D02*
X7958609Y-19077723D01*
X7958609Y-19077723D02*
X7949085Y-19058676D01*
X7949085Y-19058676D02*
X7939561Y-19049152D01*
X7939561Y-19049152D02*
X7920514Y-19039628D01*
X8034799Y-18953914D02*
X8034799Y-18992009D01*
X8110990Y-18953914D02*
X8110990Y-18992009D01*
X8406228Y-19230104D02*
X8396704Y-19220580D01*
X8396704Y-19220580D02*
X8377656Y-19192009D01*
X8377656Y-19192009D02*
X8368133Y-19172961D01*
X8368133Y-19172961D02*
X8358609Y-19144390D01*
X8358609Y-19144390D02*
X8349085Y-19096771D01*
X8349085Y-19096771D02*
X8349085Y-19058676D01*
X8349085Y-19058676D02*
X8358609Y-19011056D01*
X8358609Y-19011056D02*
X8368133Y-18982485D01*
X8368133Y-18982485D02*
X8377656Y-18963437D01*
X8377656Y-18963437D02*
X8396704Y-18934866D01*
X8396704Y-18934866D02*
X8406228Y-18925342D01*
X8491942Y-19153914D02*
X8530037Y-19153914D01*
X8530037Y-19153914D02*
X8549085Y-19144390D01*
X8549085Y-19144390D02*
X8558609Y-19134866D01*
X8558609Y-19134866D02*
X8577657Y-19106295D01*
X8577657Y-19106295D02*
X8587180Y-19068199D01*
X8587180Y-19068199D02*
X8587180Y-18992009D01*
X8587180Y-18992009D02*
X8577657Y-18972961D01*
X8577657Y-18972961D02*
X8568133Y-18963437D01*
X8568133Y-18963437D02*
X8549085Y-18953914D01*
X8549085Y-18953914D02*
X8510990Y-18953914D01*
X8510990Y-18953914D02*
X8491942Y-18963437D01*
X8491942Y-18963437D02*
X8482418Y-18972961D01*
X8482418Y-18972961D02*
X8472895Y-18992009D01*
X8472895Y-18992009D02*
X8472895Y-19039628D01*
X8472895Y-19039628D02*
X8482418Y-19058676D01*
X8482418Y-19058676D02*
X8491942Y-19068199D01*
X8491942Y-19068199D02*
X8510990Y-19077723D01*
X8510990Y-19077723D02*
X8549085Y-19077723D01*
X8549085Y-19077723D02*
X8568133Y-19068199D01*
X8568133Y-19068199D02*
X8577657Y-19058676D01*
X8577657Y-19058676D02*
X8587180Y-19039628D01*
X8768133Y-18953914D02*
X8672895Y-18953914D01*
X8672895Y-18953914D02*
X8663371Y-19049152D01*
X8663371Y-19049152D02*
X8672895Y-19039628D01*
X8672895Y-19039628D02*
X8691942Y-19030104D01*
X8691942Y-19030104D02*
X8739561Y-19030104D01*
X8739561Y-19030104D02*
X8758609Y-19039628D01*
X8758609Y-19039628D02*
X8768133Y-19049152D01*
X8768133Y-19049152D02*
X8777657Y-19068199D01*
X8777657Y-19068199D02*
X8777657Y-19115818D01*
X8777657Y-19115818D02*
X8768133Y-19134866D01*
X8768133Y-19134866D02*
X8758609Y-19144390D01*
X8758609Y-19144390D02*
X8739561Y-19153914D01*
X8739561Y-19153914D02*
X8691942Y-19153914D01*
X8691942Y-19153914D02*
X8672895Y-19144390D01*
X8672895Y-19144390D02*
X8663371Y-19134866D01*
X9015752Y-19153914D02*
X9015752Y-18953914D01*
X9101466Y-19153914D02*
X9101466Y-19049152D01*
X9101466Y-19049152D02*
X9091942Y-19030104D01*
X9091942Y-19030104D02*
X9072895Y-19020580D01*
X9072895Y-19020580D02*
X9044323Y-19020580D01*
X9044323Y-19020580D02*
X9025276Y-19030104D01*
X9025276Y-19030104D02*
X9015752Y-19039628D01*
X9225276Y-19153914D02*
X9206228Y-19144390D01*
X9206228Y-19144390D02*
X9196704Y-19134866D01*
X9196704Y-19134866D02*
X9187180Y-19115818D01*
X9187180Y-19115818D02*
X9187180Y-19058676D01*
X9187180Y-19058676D02*
X9196704Y-19039628D01*
X9196704Y-19039628D02*
X9206228Y-19030104D01*
X9206228Y-19030104D02*
X9225276Y-19020580D01*
X9225276Y-19020580D02*
X9253847Y-19020580D01*
X9253847Y-19020580D02*
X9272895Y-19030104D01*
X9272895Y-19030104D02*
X9282419Y-19039628D01*
X9282419Y-19039628D02*
X9291942Y-19058676D01*
X9291942Y-19058676D02*
X9291942Y-19115818D01*
X9291942Y-19115818D02*
X9282419Y-19134866D01*
X9282419Y-19134866D02*
X9272895Y-19144390D01*
X9272895Y-19144390D02*
X9253847Y-19153914D01*
X9253847Y-19153914D02*
X9225276Y-19153914D01*
X9406228Y-19153914D02*
X9387180Y-19144390D01*
X9387180Y-19144390D02*
X9377657Y-19125342D01*
X9377657Y-19125342D02*
X9377657Y-18953914D01*
X9558609Y-19144390D02*
X9539561Y-19153914D01*
X9539561Y-19153914D02*
X9501466Y-19153914D01*
X9501466Y-19153914D02*
X9482419Y-19144390D01*
X9482419Y-19144390D02*
X9472895Y-19125342D01*
X9472895Y-19125342D02*
X9472895Y-19049152D01*
X9472895Y-19049152D02*
X9482419Y-19030104D01*
X9482419Y-19030104D02*
X9501466Y-19020580D01*
X9501466Y-19020580D02*
X9539561Y-19020580D01*
X9539561Y-19020580D02*
X9558609Y-19030104D01*
X9558609Y-19030104D02*
X9568133Y-19049152D01*
X9568133Y-19049152D02*
X9568133Y-19068199D01*
X9568133Y-19068199D02*
X9472895Y-19087247D01*
X9644323Y-19144390D02*
X9663371Y-19153914D01*
X9663371Y-19153914D02*
X9701466Y-19153914D01*
X9701466Y-19153914D02*
X9720514Y-19144390D01*
X9720514Y-19144390D02*
X9730038Y-19125342D01*
X9730038Y-19125342D02*
X9730038Y-19115818D01*
X9730038Y-19115818D02*
X9720514Y-19096771D01*
X9720514Y-19096771D02*
X9701466Y-19087247D01*
X9701466Y-19087247D02*
X9672895Y-19087247D01*
X9672895Y-19087247D02*
X9653847Y-19077723D01*
X9653847Y-19077723D02*
X9644323Y-19058676D01*
X9644323Y-19058676D02*
X9644323Y-19049152D01*
X9644323Y-19049152D02*
X9653847Y-19030104D01*
X9653847Y-19030104D02*
X9672895Y-19020580D01*
X9672895Y-19020580D02*
X9701466Y-19020580D01*
X9701466Y-19020580D02*
X9720514Y-19030104D01*
X9796704Y-19230104D02*
X9806228Y-19220580D01*
X9806228Y-19220580D02*
X9825276Y-19192009D01*
X9825276Y-19192009D02*
X9834800Y-19172961D01*
X9834800Y-19172961D02*
X9844323Y-19144390D01*
X9844323Y-19144390D02*
X9853847Y-19096771D01*
X9853847Y-19096771D02*
X9853847Y-19058676D01*
X9853847Y-19058676D02*
X9844323Y-19011056D01*
X9844323Y-19011056D02*
X9834800Y-18982485D01*
X9834800Y-18982485D02*
X9825276Y-18963437D01*
X9825276Y-18963437D02*
X9806228Y-18934866D01*
X9806228Y-18934866D02*
X9796704Y-18925342D01*
D12*
X4831165Y-19326430D02*
G75*
G02*
X4756165Y-19326430I-37500J0D01*
G01*
X4756165Y-19326430D02*
G75*
G02*
X4831165Y-19326430I37500J0D01*
G01*
D13*
X5130037Y-19217914D02*
X5149085Y-19217914D01*
X5149085Y-19217914D02*
X5168132Y-19227437D01*
X5168132Y-19227437D02*
X5177656Y-19236961D01*
X5177656Y-19236961D02*
X5187180Y-19256009D01*
X5187180Y-19256009D02*
X5196704Y-19294104D01*
X5196704Y-19294104D02*
X5196704Y-19341723D01*
X5196704Y-19341723D02*
X5187180Y-19379818D01*
X5187180Y-19379818D02*
X5177656Y-19398866D01*
X5177656Y-19398866D02*
X5168132Y-19408390D01*
X5168132Y-19408390D02*
X5149085Y-19417914D01*
X5149085Y-19417914D02*
X5130037Y-19417914D01*
X5130037Y-19417914D02*
X5110990Y-19408390D01*
X5110990Y-19408390D02*
X5101466Y-19398866D01*
X5101466Y-19398866D02*
X5091942Y-19379818D01*
X5091942Y-19379818D02*
X5082418Y-19341723D01*
X5082418Y-19341723D02*
X5082418Y-19294104D01*
X5082418Y-19294104D02*
X5091942Y-19256009D01*
X5091942Y-19256009D02*
X5101466Y-19236961D01*
X5101466Y-19236961D02*
X5110990Y-19227437D01*
X5110990Y-19227437D02*
X5130037Y-19217914D01*
X5282418Y-19398866D02*
X5291942Y-19408390D01*
X5291942Y-19408390D02*
X5282418Y-19417914D01*
X5282418Y-19417914D02*
X5272894Y-19408390D01*
X5272894Y-19408390D02*
X5282418Y-19398866D01*
X5282418Y-19398866D02*
X5282418Y-19417914D01*
X5358609Y-19217914D02*
X5491942Y-19217914D01*
X5491942Y-19217914D02*
X5406228Y-19417914D01*
X5663370Y-19217914D02*
X5568132Y-19217914D01*
X5568132Y-19217914D02*
X5558609Y-19313152D01*
X5558609Y-19313152D02*
X5568132Y-19303628D01*
X5568132Y-19303628D02*
X5587180Y-19294104D01*
X5587180Y-19294104D02*
X5634799Y-19294104D01*
X5634799Y-19294104D02*
X5653847Y-19303628D01*
X5653847Y-19303628D02*
X5663370Y-19313152D01*
X5663370Y-19313152D02*
X5672894Y-19332199D01*
X5672894Y-19332199D02*
X5672894Y-19379818D01*
X5672894Y-19379818D02*
X5663370Y-19398866D01*
X5663370Y-19398866D02*
X5653847Y-19408390D01*
X5653847Y-19408390D02*
X5634799Y-19417914D01*
X5634799Y-19417914D02*
X5587180Y-19417914D01*
X5587180Y-19417914D02*
X5568132Y-19408390D01*
X5568132Y-19408390D02*
X5558609Y-19398866D01*
X5796704Y-19217914D02*
X5815751Y-19217914D01*
X5815751Y-19217914D02*
X5834799Y-19227437D01*
X5834799Y-19227437D02*
X5844323Y-19236961D01*
X5844323Y-19236961D02*
X5853847Y-19256009D01*
X5853847Y-19256009D02*
X5863370Y-19294104D01*
X5863370Y-19294104D02*
X5863370Y-19341723D01*
X5863370Y-19341723D02*
X5853847Y-19379818D01*
X5853847Y-19379818D02*
X5844323Y-19398866D01*
X5844323Y-19398866D02*
X5834799Y-19408390D01*
X5834799Y-19408390D02*
X5815751Y-19417914D01*
X5815751Y-19417914D02*
X5796704Y-19417914D01*
X5796704Y-19417914D02*
X5777656Y-19408390D01*
X5777656Y-19408390D02*
X5768132Y-19398866D01*
X5768132Y-19398866D02*
X5758609Y-19379818D01*
X5758609Y-19379818D02*
X5749085Y-19341723D01*
X5749085Y-19341723D02*
X5749085Y-19294104D01*
X5749085Y-19294104D02*
X5758609Y-19256009D01*
X5758609Y-19256009D02*
X5768132Y-19236961D01*
X5768132Y-19236961D02*
X5777656Y-19227437D01*
X5777656Y-19227437D02*
X5796704Y-19217914D01*
X5949085Y-19417914D02*
X5949085Y-19284580D01*
X5949085Y-19303628D02*
X5958609Y-19294104D01*
X5958609Y-19294104D02*
X5977656Y-19284580D01*
X5977656Y-19284580D02*
X6006228Y-19284580D01*
X6006228Y-19284580D02*
X6025275Y-19294104D01*
X6025275Y-19294104D02*
X6034799Y-19313152D01*
X6034799Y-19313152D02*
X6034799Y-19417914D01*
X6034799Y-19313152D02*
X6044323Y-19294104D01*
X6044323Y-19294104D02*
X6063370Y-19284580D01*
X6063370Y-19284580D02*
X6091942Y-19284580D01*
X6091942Y-19284580D02*
X6110990Y-19294104D01*
X6110990Y-19294104D02*
X6120513Y-19313152D01*
X6120513Y-19313152D02*
X6120513Y-19417914D01*
X6215751Y-19417914D02*
X6215751Y-19284580D01*
X6215751Y-19303628D02*
X6225275Y-19294104D01*
X6225275Y-19294104D02*
X6244323Y-19284580D01*
X6244323Y-19284580D02*
X6272894Y-19284580D01*
X6272894Y-19284580D02*
X6291942Y-19294104D01*
X6291942Y-19294104D02*
X6301466Y-19313152D01*
X6301466Y-19313152D02*
X6301466Y-19417914D01*
X6301466Y-19313152D02*
X6310990Y-19294104D01*
X6310990Y-19294104D02*
X6330037Y-19284580D01*
X6330037Y-19284580D02*
X6358609Y-19284580D01*
X6358609Y-19284580D02*
X6377656Y-19294104D01*
X6377656Y-19294104D02*
X6387180Y-19313152D01*
X6387180Y-19313152D02*
X6387180Y-19417914D01*
X6777656Y-19208390D02*
X6606228Y-19465533D01*
X7034799Y-19217914D02*
X7053847Y-19217914D01*
X7053847Y-19217914D02*
X7072894Y-19227437D01*
X7072894Y-19227437D02*
X7082418Y-19236961D01*
X7082418Y-19236961D02*
X7091942Y-19256009D01*
X7091942Y-19256009D02*
X7101466Y-19294104D01*
X7101466Y-19294104D02*
X7101466Y-19341723D01*
X7101466Y-19341723D02*
X7091942Y-19379818D01*
X7091942Y-19379818D02*
X7082418Y-19398866D01*
X7082418Y-19398866D02*
X7072894Y-19408390D01*
X7072894Y-19408390D02*
X7053847Y-19417914D01*
X7053847Y-19417914D02*
X7034799Y-19417914D01*
X7034799Y-19417914D02*
X7015752Y-19408390D01*
X7015752Y-19408390D02*
X7006228Y-19398866D01*
X7006228Y-19398866D02*
X6996704Y-19379818D01*
X6996704Y-19379818D02*
X6987180Y-19341723D01*
X6987180Y-19341723D02*
X6987180Y-19294104D01*
X6987180Y-19294104D02*
X6996704Y-19256009D01*
X6996704Y-19256009D02*
X7006228Y-19236961D01*
X7006228Y-19236961D02*
X7015752Y-19227437D01*
X7015752Y-19227437D02*
X7034799Y-19217914D01*
X7187180Y-19398866D02*
X7196704Y-19408390D01*
X7196704Y-19408390D02*
X7187180Y-19417914D01*
X7187180Y-19417914D02*
X7177656Y-19408390D01*
X7177656Y-19408390D02*
X7187180Y-19398866D01*
X7187180Y-19398866D02*
X7187180Y-19417914D01*
X7320513Y-19217914D02*
X7339561Y-19217914D01*
X7339561Y-19217914D02*
X7358609Y-19227437D01*
X7358609Y-19227437D02*
X7368133Y-19236961D01*
X7368133Y-19236961D02*
X7377656Y-19256009D01*
X7377656Y-19256009D02*
X7387180Y-19294104D01*
X7387180Y-19294104D02*
X7387180Y-19341723D01*
X7387180Y-19341723D02*
X7377656Y-19379818D01*
X7377656Y-19379818D02*
X7368133Y-19398866D01*
X7368133Y-19398866D02*
X7358609Y-19408390D01*
X7358609Y-19408390D02*
X7339561Y-19417914D01*
X7339561Y-19417914D02*
X7320513Y-19417914D01*
X7320513Y-19417914D02*
X7301466Y-19408390D01*
X7301466Y-19408390D02*
X7291942Y-19398866D01*
X7291942Y-19398866D02*
X7282418Y-19379818D01*
X7282418Y-19379818D02*
X7272894Y-19341723D01*
X7272894Y-19341723D02*
X7272894Y-19294104D01*
X7272894Y-19294104D02*
X7282418Y-19256009D01*
X7282418Y-19256009D02*
X7291942Y-19236961D01*
X7291942Y-19236961D02*
X7301466Y-19227437D01*
X7301466Y-19227437D02*
X7320513Y-19217914D01*
X7463371Y-19236961D02*
X7472894Y-19227437D01*
X7472894Y-19227437D02*
X7491942Y-19217914D01*
X7491942Y-19217914D02*
X7539561Y-19217914D01*
X7539561Y-19217914D02*
X7558609Y-19227437D01*
X7558609Y-19227437D02*
X7568133Y-19236961D01*
X7568133Y-19236961D02*
X7577656Y-19256009D01*
X7577656Y-19256009D02*
X7577656Y-19275056D01*
X7577656Y-19275056D02*
X7568133Y-19303628D01*
X7568133Y-19303628D02*
X7453847Y-19417914D01*
X7453847Y-19417914D02*
X7577656Y-19417914D01*
X7672894Y-19417914D02*
X7710990Y-19417914D01*
X7710990Y-19417914D02*
X7730037Y-19408390D01*
X7730037Y-19408390D02*
X7739561Y-19398866D01*
X7739561Y-19398866D02*
X7758609Y-19370295D01*
X7758609Y-19370295D02*
X7768133Y-19332199D01*
X7768133Y-19332199D02*
X7768133Y-19256009D01*
X7768133Y-19256009D02*
X7758609Y-19236961D01*
X7758609Y-19236961D02*
X7749085Y-19227437D01*
X7749085Y-19227437D02*
X7730037Y-19217914D01*
X7730037Y-19217914D02*
X7691942Y-19217914D01*
X7691942Y-19217914D02*
X7672894Y-19227437D01*
X7672894Y-19227437D02*
X7663371Y-19236961D01*
X7663371Y-19236961D02*
X7653847Y-19256009D01*
X7653847Y-19256009D02*
X7653847Y-19303628D01*
X7653847Y-19303628D02*
X7663371Y-19322676D01*
X7663371Y-19322676D02*
X7672894Y-19332199D01*
X7672894Y-19332199D02*
X7691942Y-19341723D01*
X7691942Y-19341723D02*
X7730037Y-19341723D01*
X7730037Y-19341723D02*
X7749085Y-19332199D01*
X7749085Y-19332199D02*
X7758609Y-19322676D01*
X7758609Y-19322676D02*
X7768133Y-19303628D01*
X7949085Y-19217914D02*
X7853847Y-19217914D01*
X7853847Y-19217914D02*
X7844323Y-19313152D01*
X7844323Y-19313152D02*
X7853847Y-19303628D01*
X7853847Y-19303628D02*
X7872894Y-19294104D01*
X7872894Y-19294104D02*
X7920514Y-19294104D01*
X7920514Y-19294104D02*
X7939561Y-19303628D01*
X7939561Y-19303628D02*
X7949085Y-19313152D01*
X7949085Y-19313152D02*
X7958609Y-19332199D01*
X7958609Y-19332199D02*
X7958609Y-19379818D01*
X7958609Y-19379818D02*
X7949085Y-19398866D01*
X7949085Y-19398866D02*
X7939561Y-19408390D01*
X7939561Y-19408390D02*
X7920514Y-19417914D01*
X7920514Y-19417914D02*
X7872894Y-19417914D01*
X7872894Y-19417914D02*
X7853847Y-19408390D01*
X7853847Y-19408390D02*
X7844323Y-19398866D01*
X8034799Y-19217914D02*
X8034799Y-19256009D01*
X8110990Y-19217914D02*
X8110990Y-19256009D01*
X8406228Y-19494104D02*
X8396704Y-19484580D01*
X8396704Y-19484580D02*
X8377656Y-19456009D01*
X8377656Y-19456009D02*
X8368133Y-19436961D01*
X8368133Y-19436961D02*
X8358609Y-19408390D01*
X8358609Y-19408390D02*
X8349085Y-19360771D01*
X8349085Y-19360771D02*
X8349085Y-19322676D01*
X8349085Y-19322676D02*
X8358609Y-19275056D01*
X8358609Y-19275056D02*
X8368133Y-19246485D01*
X8368133Y-19246485D02*
X8377656Y-19227437D01*
X8377656Y-19227437D02*
X8396704Y-19198866D01*
X8396704Y-19198866D02*
X8406228Y-19189342D01*
X8472895Y-19236961D02*
X8482418Y-19227437D01*
X8482418Y-19227437D02*
X8501466Y-19217914D01*
X8501466Y-19217914D02*
X8549085Y-19217914D01*
X8549085Y-19217914D02*
X8568133Y-19227437D01*
X8568133Y-19227437D02*
X8577657Y-19236961D01*
X8577657Y-19236961D02*
X8587180Y-19256009D01*
X8587180Y-19256009D02*
X8587180Y-19275056D01*
X8587180Y-19275056D02*
X8577657Y-19303628D01*
X8577657Y-19303628D02*
X8463371Y-19417914D01*
X8463371Y-19417914D02*
X8587180Y-19417914D01*
X8825276Y-19417914D02*
X8825276Y-19217914D01*
X8910990Y-19417914D02*
X8910990Y-19313152D01*
X8910990Y-19313152D02*
X8901466Y-19294104D01*
X8901466Y-19294104D02*
X8882419Y-19284580D01*
X8882419Y-19284580D02*
X8853847Y-19284580D01*
X8853847Y-19284580D02*
X8834799Y-19294104D01*
X8834799Y-19294104D02*
X8825276Y-19303628D01*
X9034799Y-19417914D02*
X9015752Y-19408390D01*
X9015752Y-19408390D02*
X9006228Y-19398866D01*
X9006228Y-19398866D02*
X8996704Y-19379818D01*
X8996704Y-19379818D02*
X8996704Y-19322676D01*
X8996704Y-19322676D02*
X9006228Y-19303628D01*
X9006228Y-19303628D02*
X9015752Y-19294104D01*
X9015752Y-19294104D02*
X9034799Y-19284580D01*
X9034799Y-19284580D02*
X9063371Y-19284580D01*
X9063371Y-19284580D02*
X9082419Y-19294104D01*
X9082419Y-19294104D02*
X9091942Y-19303628D01*
X9091942Y-19303628D02*
X9101466Y-19322676D01*
X9101466Y-19322676D02*
X9101466Y-19379818D01*
X9101466Y-19379818D02*
X9091942Y-19398866D01*
X9091942Y-19398866D02*
X9082419Y-19408390D01*
X9082419Y-19408390D02*
X9063371Y-19417914D01*
X9063371Y-19417914D02*
X9034799Y-19417914D01*
X9215752Y-19417914D02*
X9196704Y-19408390D01*
X9196704Y-19408390D02*
X9187180Y-19389342D01*
X9187180Y-19389342D02*
X9187180Y-19217914D01*
X9368133Y-19408390D02*
X9349085Y-19417914D01*
X9349085Y-19417914D02*
X9310990Y-19417914D01*
X9310990Y-19417914D02*
X9291942Y-19408390D01*
X9291942Y-19408390D02*
X9282419Y-19389342D01*
X9282419Y-19389342D02*
X9282419Y-19313152D01*
X9282419Y-19313152D02*
X9291942Y-19294104D01*
X9291942Y-19294104D02*
X9310990Y-19284580D01*
X9310990Y-19284580D02*
X9349085Y-19284580D01*
X9349085Y-19284580D02*
X9368133Y-19294104D01*
X9368133Y-19294104D02*
X9377657Y-19313152D01*
X9377657Y-19313152D02*
X9377657Y-19332199D01*
X9377657Y-19332199D02*
X9282419Y-19351247D01*
X9453847Y-19408390D02*
X9472895Y-19417914D01*
X9472895Y-19417914D02*
X9510990Y-19417914D01*
X9510990Y-19417914D02*
X9530038Y-19408390D01*
X9530038Y-19408390D02*
X9539561Y-19389342D01*
X9539561Y-19389342D02*
X9539561Y-19379818D01*
X9539561Y-19379818D02*
X9530038Y-19360771D01*
X9530038Y-19360771D02*
X9510990Y-19351247D01*
X9510990Y-19351247D02*
X9482419Y-19351247D01*
X9482419Y-19351247D02*
X9463371Y-19341723D01*
X9463371Y-19341723D02*
X9453847Y-19322676D01*
X9453847Y-19322676D02*
X9453847Y-19313152D01*
X9453847Y-19313152D02*
X9463371Y-19294104D01*
X9463371Y-19294104D02*
X9482419Y-19284580D01*
X9482419Y-19284580D02*
X9510990Y-19284580D01*
X9510990Y-19284580D02*
X9530038Y-19294104D01*
X9606228Y-19494104D02*
X9615752Y-19484580D01*
X9615752Y-19484580D02*
X9634800Y-19456009D01*
X9634800Y-19456009D02*
X9644323Y-19436961D01*
X9644323Y-19436961D02*
X9653847Y-19408390D01*
X9653847Y-19408390D02*
X9663371Y-19360771D01*
X9663371Y-19360771D02*
X9663371Y-19322676D01*
X9663371Y-19322676D02*
X9653847Y-19275056D01*
X9653847Y-19275056D02*
X9644323Y-19246485D01*
X9644323Y-19246485D02*
X9634800Y-19227437D01*
X9634800Y-19227437D02*
X9615752Y-19198866D01*
X9615752Y-19198866D02*
X9606228Y-19189342D01*
D12*
X4781165Y-19540430D02*
X4781165Y-19640430D01*
X4731165Y-19590430D02*
X4831165Y-19590430D01*
D13*
X5196704Y-19681914D02*
X5082418Y-19681914D01*
X5139561Y-19681914D02*
X5139561Y-19481914D01*
X5139561Y-19481914D02*
X5120513Y-19510485D01*
X5120513Y-19510485D02*
X5101466Y-19529533D01*
X5101466Y-19529533D02*
X5082418Y-19539056D01*
X5282418Y-19662866D02*
X5291942Y-19672390D01*
X5291942Y-19672390D02*
X5282418Y-19681914D01*
X5282418Y-19681914D02*
X5272894Y-19672390D01*
X5272894Y-19672390D02*
X5282418Y-19662866D01*
X5282418Y-19662866D02*
X5282418Y-19681914D01*
X5415751Y-19481914D02*
X5434799Y-19481914D01*
X5434799Y-19481914D02*
X5453847Y-19491437D01*
X5453847Y-19491437D02*
X5463371Y-19500961D01*
X5463371Y-19500961D02*
X5472894Y-19520009D01*
X5472894Y-19520009D02*
X5482418Y-19558104D01*
X5482418Y-19558104D02*
X5482418Y-19605723D01*
X5482418Y-19605723D02*
X5472894Y-19643818D01*
X5472894Y-19643818D02*
X5463371Y-19662866D01*
X5463371Y-19662866D02*
X5453847Y-19672390D01*
X5453847Y-19672390D02*
X5434799Y-19681914D01*
X5434799Y-19681914D02*
X5415751Y-19681914D01*
X5415751Y-19681914D02*
X5396704Y-19672390D01*
X5396704Y-19672390D02*
X5387180Y-19662866D01*
X5387180Y-19662866D02*
X5377656Y-19643818D01*
X5377656Y-19643818D02*
X5368132Y-19605723D01*
X5368132Y-19605723D02*
X5368132Y-19558104D01*
X5368132Y-19558104D02*
X5377656Y-19520009D01*
X5377656Y-19520009D02*
X5387180Y-19500961D01*
X5387180Y-19500961D02*
X5396704Y-19491437D01*
X5396704Y-19491437D02*
X5415751Y-19481914D01*
X5606228Y-19481914D02*
X5625275Y-19481914D01*
X5625275Y-19481914D02*
X5644323Y-19491437D01*
X5644323Y-19491437D02*
X5653847Y-19500961D01*
X5653847Y-19500961D02*
X5663370Y-19520009D01*
X5663370Y-19520009D02*
X5672894Y-19558104D01*
X5672894Y-19558104D02*
X5672894Y-19605723D01*
X5672894Y-19605723D02*
X5663370Y-19643818D01*
X5663370Y-19643818D02*
X5653847Y-19662866D01*
X5653847Y-19662866D02*
X5644323Y-19672390D01*
X5644323Y-19672390D02*
X5625275Y-19681914D01*
X5625275Y-19681914D02*
X5606228Y-19681914D01*
X5606228Y-19681914D02*
X5587180Y-19672390D01*
X5587180Y-19672390D02*
X5577656Y-19662866D01*
X5577656Y-19662866D02*
X5568132Y-19643818D01*
X5568132Y-19643818D02*
X5558609Y-19605723D01*
X5558609Y-19605723D02*
X5558609Y-19558104D01*
X5558609Y-19558104D02*
X5568132Y-19520009D01*
X5568132Y-19520009D02*
X5577656Y-19500961D01*
X5577656Y-19500961D02*
X5587180Y-19491437D01*
X5587180Y-19491437D02*
X5606228Y-19481914D01*
X5796704Y-19481914D02*
X5815751Y-19481914D01*
X5815751Y-19481914D02*
X5834799Y-19491437D01*
X5834799Y-19491437D02*
X5844323Y-19500961D01*
X5844323Y-19500961D02*
X5853847Y-19520009D01*
X5853847Y-19520009D02*
X5863370Y-19558104D01*
X5863370Y-19558104D02*
X5863370Y-19605723D01*
X5863370Y-19605723D02*
X5853847Y-19643818D01*
X5853847Y-19643818D02*
X5844323Y-19662866D01*
X5844323Y-19662866D02*
X5834799Y-19672390D01*
X5834799Y-19672390D02*
X5815751Y-19681914D01*
X5815751Y-19681914D02*
X5796704Y-19681914D01*
X5796704Y-19681914D02*
X5777656Y-19672390D01*
X5777656Y-19672390D02*
X5768132Y-19662866D01*
X5768132Y-19662866D02*
X5758609Y-19643818D01*
X5758609Y-19643818D02*
X5749085Y-19605723D01*
X5749085Y-19605723D02*
X5749085Y-19558104D01*
X5749085Y-19558104D02*
X5758609Y-19520009D01*
X5758609Y-19520009D02*
X5768132Y-19500961D01*
X5768132Y-19500961D02*
X5777656Y-19491437D01*
X5777656Y-19491437D02*
X5796704Y-19481914D01*
X5949085Y-19681914D02*
X5949085Y-19548580D01*
X5949085Y-19567628D02*
X5958609Y-19558104D01*
X5958609Y-19558104D02*
X5977656Y-19548580D01*
X5977656Y-19548580D02*
X6006228Y-19548580D01*
X6006228Y-19548580D02*
X6025275Y-19558104D01*
X6025275Y-19558104D02*
X6034799Y-19577152D01*
X6034799Y-19577152D02*
X6034799Y-19681914D01*
X6034799Y-19577152D02*
X6044323Y-19558104D01*
X6044323Y-19558104D02*
X6063370Y-19548580D01*
X6063370Y-19548580D02*
X6091942Y-19548580D01*
X6091942Y-19548580D02*
X6110990Y-19558104D01*
X6110990Y-19558104D02*
X6120513Y-19577152D01*
X6120513Y-19577152D02*
X6120513Y-19681914D01*
X6215751Y-19681914D02*
X6215751Y-19548580D01*
X6215751Y-19567628D02*
X6225275Y-19558104D01*
X6225275Y-19558104D02*
X6244323Y-19548580D01*
X6244323Y-19548580D02*
X6272894Y-19548580D01*
X6272894Y-19548580D02*
X6291942Y-19558104D01*
X6291942Y-19558104D02*
X6301466Y-19577152D01*
X6301466Y-19577152D02*
X6301466Y-19681914D01*
X6301466Y-19577152D02*
X6310990Y-19558104D01*
X6310990Y-19558104D02*
X6330037Y-19548580D01*
X6330037Y-19548580D02*
X6358609Y-19548580D01*
X6358609Y-19548580D02*
X6377656Y-19558104D01*
X6377656Y-19558104D02*
X6387180Y-19577152D01*
X6387180Y-19577152D02*
X6387180Y-19681914D01*
X6777656Y-19472390D02*
X6606228Y-19729533D01*
X7034799Y-19481914D02*
X7053847Y-19481914D01*
X7053847Y-19481914D02*
X7072894Y-19491437D01*
X7072894Y-19491437D02*
X7082418Y-19500961D01*
X7082418Y-19500961D02*
X7091942Y-19520009D01*
X7091942Y-19520009D02*
X7101466Y-19558104D01*
X7101466Y-19558104D02*
X7101466Y-19605723D01*
X7101466Y-19605723D02*
X7091942Y-19643818D01*
X7091942Y-19643818D02*
X7082418Y-19662866D01*
X7082418Y-19662866D02*
X7072894Y-19672390D01*
X7072894Y-19672390D02*
X7053847Y-19681914D01*
X7053847Y-19681914D02*
X7034799Y-19681914D01*
X7034799Y-19681914D02*
X7015752Y-19672390D01*
X7015752Y-19672390D02*
X7006228Y-19662866D01*
X7006228Y-19662866D02*
X6996704Y-19643818D01*
X6996704Y-19643818D02*
X6987180Y-19605723D01*
X6987180Y-19605723D02*
X6987180Y-19558104D01*
X6987180Y-19558104D02*
X6996704Y-19520009D01*
X6996704Y-19520009D02*
X7006228Y-19500961D01*
X7006228Y-19500961D02*
X7015752Y-19491437D01*
X7015752Y-19491437D02*
X7034799Y-19481914D01*
X7187180Y-19662866D02*
X7196704Y-19672390D01*
X7196704Y-19672390D02*
X7187180Y-19681914D01*
X7187180Y-19681914D02*
X7177656Y-19672390D01*
X7177656Y-19672390D02*
X7187180Y-19662866D01*
X7187180Y-19662866D02*
X7187180Y-19681914D01*
X7320513Y-19481914D02*
X7339561Y-19481914D01*
X7339561Y-19481914D02*
X7358609Y-19491437D01*
X7358609Y-19491437D02*
X7368133Y-19500961D01*
X7368133Y-19500961D02*
X7377656Y-19520009D01*
X7377656Y-19520009D02*
X7387180Y-19558104D01*
X7387180Y-19558104D02*
X7387180Y-19605723D01*
X7387180Y-19605723D02*
X7377656Y-19643818D01*
X7377656Y-19643818D02*
X7368133Y-19662866D01*
X7368133Y-19662866D02*
X7358609Y-19672390D01*
X7358609Y-19672390D02*
X7339561Y-19681914D01*
X7339561Y-19681914D02*
X7320513Y-19681914D01*
X7320513Y-19681914D02*
X7301466Y-19672390D01*
X7301466Y-19672390D02*
X7291942Y-19662866D01*
X7291942Y-19662866D02*
X7282418Y-19643818D01*
X7282418Y-19643818D02*
X7272894Y-19605723D01*
X7272894Y-19605723D02*
X7272894Y-19558104D01*
X7272894Y-19558104D02*
X7282418Y-19520009D01*
X7282418Y-19520009D02*
X7291942Y-19500961D01*
X7291942Y-19500961D02*
X7301466Y-19491437D01*
X7301466Y-19491437D02*
X7320513Y-19481914D01*
X7453847Y-19481914D02*
X7577656Y-19481914D01*
X7577656Y-19481914D02*
X7510990Y-19558104D01*
X7510990Y-19558104D02*
X7539561Y-19558104D01*
X7539561Y-19558104D02*
X7558609Y-19567628D01*
X7558609Y-19567628D02*
X7568133Y-19577152D01*
X7568133Y-19577152D02*
X7577656Y-19596199D01*
X7577656Y-19596199D02*
X7577656Y-19643818D01*
X7577656Y-19643818D02*
X7568133Y-19662866D01*
X7568133Y-19662866D02*
X7558609Y-19672390D01*
X7558609Y-19672390D02*
X7539561Y-19681914D01*
X7539561Y-19681914D02*
X7482418Y-19681914D01*
X7482418Y-19681914D02*
X7463371Y-19672390D01*
X7463371Y-19672390D02*
X7453847Y-19662866D01*
X7672894Y-19681914D02*
X7710990Y-19681914D01*
X7710990Y-19681914D02*
X7730037Y-19672390D01*
X7730037Y-19672390D02*
X7739561Y-19662866D01*
X7739561Y-19662866D02*
X7758609Y-19634295D01*
X7758609Y-19634295D02*
X7768133Y-19596199D01*
X7768133Y-19596199D02*
X7768133Y-19520009D01*
X7768133Y-19520009D02*
X7758609Y-19500961D01*
X7758609Y-19500961D02*
X7749085Y-19491437D01*
X7749085Y-19491437D02*
X7730037Y-19481914D01*
X7730037Y-19481914D02*
X7691942Y-19481914D01*
X7691942Y-19481914D02*
X7672894Y-19491437D01*
X7672894Y-19491437D02*
X7663371Y-19500961D01*
X7663371Y-19500961D02*
X7653847Y-19520009D01*
X7653847Y-19520009D02*
X7653847Y-19567628D01*
X7653847Y-19567628D02*
X7663371Y-19586676D01*
X7663371Y-19586676D02*
X7672894Y-19596199D01*
X7672894Y-19596199D02*
X7691942Y-19605723D01*
X7691942Y-19605723D02*
X7730037Y-19605723D01*
X7730037Y-19605723D02*
X7749085Y-19596199D01*
X7749085Y-19596199D02*
X7758609Y-19586676D01*
X7758609Y-19586676D02*
X7768133Y-19567628D01*
X7939561Y-19548580D02*
X7939561Y-19681914D01*
X7891942Y-19472390D02*
X7844323Y-19615247D01*
X7844323Y-19615247D02*
X7968133Y-19615247D01*
X8034799Y-19481914D02*
X8034799Y-19520009D01*
X8110990Y-19481914D02*
X8110990Y-19520009D01*
X8406228Y-19758104D02*
X8396704Y-19748580D01*
X8396704Y-19748580D02*
X8377656Y-19720009D01*
X8377656Y-19720009D02*
X8368133Y-19700961D01*
X8368133Y-19700961D02*
X8358609Y-19672390D01*
X8358609Y-19672390D02*
X8349085Y-19624771D01*
X8349085Y-19624771D02*
X8349085Y-19586676D01*
X8349085Y-19586676D02*
X8358609Y-19539056D01*
X8358609Y-19539056D02*
X8368133Y-19510485D01*
X8368133Y-19510485D02*
X8377656Y-19491437D01*
X8377656Y-19491437D02*
X8396704Y-19462866D01*
X8396704Y-19462866D02*
X8406228Y-19453342D01*
X8587180Y-19681914D02*
X8472895Y-19681914D01*
X8530037Y-19681914D02*
X8530037Y-19481914D01*
X8530037Y-19481914D02*
X8510990Y-19510485D01*
X8510990Y-19510485D02*
X8491942Y-19529533D01*
X8491942Y-19529533D02*
X8472895Y-19539056D01*
X8777657Y-19681914D02*
X8663371Y-19681914D01*
X8720514Y-19681914D02*
X8720514Y-19481914D01*
X8720514Y-19481914D02*
X8701466Y-19510485D01*
X8701466Y-19510485D02*
X8682418Y-19529533D01*
X8682418Y-19529533D02*
X8663371Y-19539056D01*
X8901466Y-19481914D02*
X8920514Y-19481914D01*
X8920514Y-19481914D02*
X8939561Y-19491437D01*
X8939561Y-19491437D02*
X8949085Y-19500961D01*
X8949085Y-19500961D02*
X8958609Y-19520009D01*
X8958609Y-19520009D02*
X8968133Y-19558104D01*
X8968133Y-19558104D02*
X8968133Y-19605723D01*
X8968133Y-19605723D02*
X8958609Y-19643818D01*
X8958609Y-19643818D02*
X8949085Y-19662866D01*
X8949085Y-19662866D02*
X8939561Y-19672390D01*
X8939561Y-19672390D02*
X8920514Y-19681914D01*
X8920514Y-19681914D02*
X8901466Y-19681914D01*
X8901466Y-19681914D02*
X8882418Y-19672390D01*
X8882418Y-19672390D02*
X8872895Y-19662866D01*
X8872895Y-19662866D02*
X8863371Y-19643818D01*
X8863371Y-19643818D02*
X8853847Y-19605723D01*
X8853847Y-19605723D02*
X8853847Y-19558104D01*
X8853847Y-19558104D02*
X8863371Y-19520009D01*
X8863371Y-19520009D02*
X8872895Y-19500961D01*
X8872895Y-19500961D02*
X8882418Y-19491437D01*
X8882418Y-19491437D02*
X8901466Y-19481914D01*
X9206228Y-19681914D02*
X9206228Y-19481914D01*
X9291942Y-19681914D02*
X9291942Y-19577152D01*
X9291942Y-19577152D02*
X9282419Y-19558104D01*
X9282419Y-19558104D02*
X9263371Y-19548580D01*
X9263371Y-19548580D02*
X9234799Y-19548580D01*
X9234799Y-19548580D02*
X9215752Y-19558104D01*
X9215752Y-19558104D02*
X9206228Y-19567628D01*
X9415752Y-19681914D02*
X9396704Y-19672390D01*
X9396704Y-19672390D02*
X9387180Y-19662866D01*
X9387180Y-19662866D02*
X9377657Y-19643818D01*
X9377657Y-19643818D02*
X9377657Y-19586676D01*
X9377657Y-19586676D02*
X9387180Y-19567628D01*
X9387180Y-19567628D02*
X9396704Y-19558104D01*
X9396704Y-19558104D02*
X9415752Y-19548580D01*
X9415752Y-19548580D02*
X9444323Y-19548580D01*
X9444323Y-19548580D02*
X9463371Y-19558104D01*
X9463371Y-19558104D02*
X9472895Y-19567628D01*
X9472895Y-19567628D02*
X9482419Y-19586676D01*
X9482419Y-19586676D02*
X9482419Y-19643818D01*
X9482419Y-19643818D02*
X9472895Y-19662866D01*
X9472895Y-19662866D02*
X9463371Y-19672390D01*
X9463371Y-19672390D02*
X9444323Y-19681914D01*
X9444323Y-19681914D02*
X9415752Y-19681914D01*
X9596704Y-19681914D02*
X9577657Y-19672390D01*
X9577657Y-19672390D02*
X9568133Y-19653342D01*
X9568133Y-19653342D02*
X9568133Y-19481914D01*
X9749085Y-19672390D02*
X9730038Y-19681914D01*
X9730038Y-19681914D02*
X9691942Y-19681914D01*
X9691942Y-19681914D02*
X9672895Y-19672390D01*
X9672895Y-19672390D02*
X9663371Y-19653342D01*
X9663371Y-19653342D02*
X9663371Y-19577152D01*
X9663371Y-19577152D02*
X9672895Y-19558104D01*
X9672895Y-19558104D02*
X9691942Y-19548580D01*
X9691942Y-19548580D02*
X9730038Y-19548580D01*
X9730038Y-19548580D02*
X9749085Y-19558104D01*
X9749085Y-19558104D02*
X9758609Y-19577152D01*
X9758609Y-19577152D02*
X9758609Y-19596199D01*
X9758609Y-19596199D02*
X9663371Y-19615247D01*
X9834800Y-19672390D02*
X9853847Y-19681914D01*
X9853847Y-19681914D02*
X9891942Y-19681914D01*
X9891942Y-19681914D02*
X9910990Y-19672390D01*
X9910990Y-19672390D02*
X9920514Y-19653342D01*
X9920514Y-19653342D02*
X9920514Y-19643818D01*
X9920514Y-19643818D02*
X9910990Y-19624771D01*
X9910990Y-19624771D02*
X9891942Y-19615247D01*
X9891942Y-19615247D02*
X9863371Y-19615247D01*
X9863371Y-19615247D02*
X9844323Y-19605723D01*
X9844323Y-19605723D02*
X9834800Y-19586676D01*
X9834800Y-19586676D02*
X9834800Y-19577152D01*
X9834800Y-19577152D02*
X9844323Y-19558104D01*
X9844323Y-19558104D02*
X9863371Y-19548580D01*
X9863371Y-19548580D02*
X9891942Y-19548580D01*
X9891942Y-19548580D02*
X9910990Y-19558104D01*
X9987181Y-19758104D02*
X9996704Y-19748580D01*
X9996704Y-19748580D02*
X10015752Y-19720009D01*
X10015752Y-19720009D02*
X10025276Y-19700961D01*
X10025276Y-19700961D02*
X10034800Y-19672390D01*
X10034800Y-19672390D02*
X10044323Y-19624771D01*
X10044323Y-19624771D02*
X10044323Y-19586676D01*
X10044323Y-19586676D02*
X10034800Y-19539056D01*
X10034800Y-19539056D02*
X10025276Y-19510485D01*
X10025276Y-19510485D02*
X10015752Y-19491437D01*
X10015752Y-19491437D02*
X9996704Y-19462866D01*
X9996704Y-19462866D02*
X9987181Y-19453342D01*
M02*
