%TF.GenerationSoftware,KiCad,Pcbnew,8.0.6*%
%TF.CreationDate,2025-07-18T12:27:13+02:00*%
%TF.ProjectId,main,6d61696e-2e6b-4696-9361-645f70636258,v1.0.0*%
%TF.SameCoordinates,Original*%
%TF.FileFunction,Profile,NP*%
%FSLAX46Y46*%
G04 Gerber Fmt 4.6, Leading zero omitted, Abs format (unit mm)*
G04 Created by KiCad (PCBNEW 8.0.6) date 2025-07-18 12:27:13*
%MOMM*%
%LPD*%
G01*
G04 APERTURE LIST*
%TA.AperFunction,Profile*%
%ADD10C,0.150000*%
%TD*%
%TA.AperFunction,Profile*%
%ADD11C,0.050000*%
%TD*%
%TA.AperFunction,Profile*%
%ADD12C,0.100000*%
%TD*%
G04 APERTURE END LIST*
D10*
X117447983Y-80593788D02*
G75*
G02*
X118011427Y-80681078I-21287J-1999515D01*
G01*
X82024374Y-142281782D02*
X49989176Y-135785766D01*
X58614094Y-85499037D02*
G75*
G02*
X60986230Y-83958538I1956409J-415959D01*
G01*
D11*
X172674998Y-104000003D02*
X172550005Y-103999998D01*
D10*
X200604839Y-183746560D02*
G75*
G02*
X199401210Y-184149295I-1203838J1597864D01*
G01*
X100296636Y-80411044D02*
X117447983Y-80593788D01*
X82651411Y-142308457D02*
G75*
G02*
X82024373Y-142281788I-229611J1986157D01*
G01*
X220797890Y-86561186D02*
G75*
G02*
X221220394Y-86376420I1007813J-1729112D01*
G01*
X309434081Y-133428267D02*
G75*
G02*
X307893591Y-135800349I-1956385J-415732D01*
G01*
X126038095Y-165901569D02*
G75*
G02*
X126169484Y-165948111I-601094J-1905627D01*
G01*
X141564213Y-172013238D02*
G75*
G02*
X142034731Y-172276762I-732712J-1860060D01*
G01*
X60986223Y-83958570D02*
X75183134Y-86976210D01*
X275827788Y-142286273D02*
G75*
G02*
X275218094Y-142309495I-380090J1963872D01*
G01*
X293239207Y-138915274D02*
G75*
G02*
X293203510Y-138922525I-422705J1989377D01*
G01*
D11*
X185100002Y-137100000D02*
X185124998Y-104050004D01*
D10*
X136640118Y-86376418D02*
G75*
G02*
X137062621Y-86561192I-583816J-1910387D01*
G01*
X76127102Y-86948918D02*
X99747192Y-80481922D01*
X158459306Y-184149298D02*
G75*
G02*
X157255654Y-183746581I-5J2000097D01*
G01*
X307893598Y-135800384D02*
X293239207Y-138915274D01*
X141564213Y-172013238D02*
X126169485Y-165948109D01*
X76127102Y-86948918D02*
G75*
G02*
X75183128Y-86976239I-528202J1928622D01*
G01*
X98085183Y-140525084D02*
X82651411Y-142308457D01*
X126038095Y-165901569D02*
X110736829Y-161074411D01*
X191289899Y-103763209D02*
G75*
G02*
X190282639Y-104035362I-1006994J1726913D01*
G01*
X258113323Y-80481919D02*
X281733412Y-86948917D01*
X240412515Y-80593799D02*
X257563882Y-80411051D01*
X257765619Y-141600204D02*
X248302107Y-160078736D01*
X49989176Y-135785766D02*
G75*
G02*
X48430364Y-133409844I397425J1960065D01*
G01*
X282677366Y-86976204D02*
G75*
G02*
X281733411Y-86948921I-415865J1955098D01*
G01*
X110736829Y-161074411D02*
G75*
G02*
X109558405Y-160078747I601675J1907313D01*
G01*
X248302107Y-160078736D02*
G75*
G02*
X247123684Y-161074409I-1780102J911635D01*
G01*
X215825778Y-172276765D02*
X200604839Y-183746560D01*
D11*
X167577880Y-104035357D02*
X172550005Y-103999998D01*
D10*
X48430352Y-133409842D02*
X58614094Y-85499037D01*
X247123688Y-161074421D02*
X231822417Y-165901574D01*
X167577880Y-104035357D02*
G75*
G02*
X166570620Y-103763212I15J2000155D01*
G01*
X299246411Y-85499036D02*
X309434081Y-133428267D01*
X118011429Y-80681072D02*
X136640118Y-86376418D01*
D11*
X172700003Y-137149999D02*
X172674998Y-104000003D01*
X172700003Y-137149999D02*
X185100002Y-137100000D01*
D10*
X109558402Y-160078749D02*
X100094892Y-141600203D01*
X231691029Y-165948119D02*
G75*
G02*
X231822418Y-165901578I730172J-1852585D01*
G01*
X282677366Y-86976204D02*
X296874294Y-83958563D01*
D11*
X185124998Y-104050004D02*
X190282639Y-104035372D01*
D10*
X231691029Y-165948119D02*
X216296306Y-172013227D01*
X215825778Y-172276765D02*
G75*
G02*
X216296303Y-172013220I1203526J-1596935D01*
G01*
X221220396Y-86376426D02*
X239849076Y-80681073D01*
X137062619Y-86561196D02*
X166570620Y-103763212D01*
X293203510Y-138922523D02*
X275827788Y-142286273D01*
X275218093Y-142309504D02*
X259775334Y-140525079D01*
X157255671Y-183746558D02*
X142034726Y-172276769D01*
X98085183Y-140525084D02*
G75*
G02*
X100094898Y-141600200I229616J-1986717D01*
G01*
X191289899Y-103763209D02*
X220797890Y-86561186D01*
X296874294Y-83958563D02*
G75*
G02*
X299246428Y-85499032I415807J-1956340D01*
G01*
X257765619Y-141600204D02*
G75*
G02*
X259775337Y-140525054I1780077J-911497D01*
G01*
X257563882Y-80411051D02*
G75*
G02*
X258113320Y-80481930I21216J-2000552D01*
G01*
X99747192Y-80481922D02*
G75*
G02*
X100296636Y-80411050I528109J-1928980D01*
G01*
X239849076Y-80681073D02*
G75*
G02*
X240412515Y-80593790I584722J-1912331D01*
G01*
X199401210Y-184149294D02*
X158459306Y-184149298D01*
D12*
%TO.C,CPG1316*%
X113700606Y-109796731D02*
G75*
G02*
X112700602Y-109796731I-500002J0D01*
G01*
X112700602Y-109796731D02*
G75*
G02*
X113700606Y-109796731I500002J0D01*
G01*
X126501787Y-107928565D02*
G75*
G02*
X125301785Y-107928565I-600001J0D01*
G01*
X125301785Y-107928565D02*
G75*
G02*
X126501787Y-107928565I600001J0D01*
G01*
X118670927Y-93539546D02*
G75*
G02*
X117670923Y-93539546I-500002J0D01*
G01*
X117670923Y-93539546D02*
G75*
G02*
X118670927Y-93539546I500002J0D01*
G01*
X131472108Y-91671380D02*
G75*
G02*
X130272106Y-91671380I-600001J0D01*
G01*
X130272106Y-91671380D02*
G75*
G02*
X131472108Y-91671380I600001J0D01*
G01*
X123233222Y-136762050D02*
G75*
G02*
X122233218Y-136762050I-500002J0D01*
G01*
X122233218Y-136762050D02*
G75*
G02*
X123233222Y-136762050I500002J0D01*
G01*
X136034403Y-134893884D02*
G75*
G02*
X134834401Y-134893884I-600001J0D01*
G01*
X134834401Y-134893884D02*
G75*
G02*
X136034403Y-134893884I600001J0D01*
G01*
X229096453Y-96931067D02*
G75*
G02*
X228096459Y-96931067I-499997J0D01*
G01*
X228096459Y-96931067D02*
G75*
G02*
X229096453Y-96931067I499997J0D01*
G01*
X238681547Y-88279879D02*
G75*
G02*
X237481545Y-88279879I-600001J0D01*
G01*
X237481545Y-88279879D02*
G75*
G02*
X238681547Y-88279879I600001J0D01*
G01*
X70650738Y-133189794D02*
G75*
G02*
X69650748Y-133189794I-499995J0D01*
G01*
X69650748Y-133189794D02*
G75*
G02*
X70650738Y-133189794I499995J0D01*
G01*
X83240767Y-130221752D02*
G75*
G02*
X82040759Y-130221752I-600004J0D01*
G01*
X82040759Y-130221752D02*
G75*
G02*
X83240767Y-130221752I600004J0D01*
G01*
X100951885Y-93350766D02*
G75*
G02*
X99951881Y-93350766I-500002J0D01*
G01*
X99951881Y-93350766D02*
G75*
G02*
X100951885Y-93350766I500002J0D01*
G01*
X113753066Y-91482600D02*
G75*
G02*
X112553064Y-91482600I-600001J0D01*
G01*
X112553064Y-91482600D02*
G75*
G02*
X113753066Y-91482600I600001J0D01*
G01*
X224534148Y-140153576D02*
G75*
G02*
X223534154Y-140153576I-499997J0D01*
G01*
X223534154Y-140153576D02*
G75*
G02*
X224534148Y-140153576I499997J0D01*
G01*
X234119242Y-131502388D02*
G75*
G02*
X232919240Y-131502388I-600001J0D01*
G01*
X232919240Y-131502388D02*
G75*
G02*
X234119242Y-131502388I600001J0D01*
G01*
X215077800Y-165582837D02*
G75*
G02*
X214077810Y-165582837I-499995J0D01*
G01*
X214077810Y-165582837D02*
G75*
G02*
X215077800Y-165582837I499995J0D01*
G01*
X223872800Y-156137887D02*
G75*
G02*
X222672790Y-156137887I-600005J0D01*
G01*
X222672790Y-156137887D02*
G75*
G02*
X223872800Y-156137887I600005J0D01*
G01*
X148846305Y-111130634D02*
G75*
G02*
X147846301Y-111130634I-500002J0D01*
G01*
X147846301Y-111130634D02*
G75*
G02*
X148846305Y-111130634I500002J0D01*
G01*
X161647486Y-109262468D02*
G75*
G02*
X160447484Y-109262468I-600001J0D01*
G01*
X160447484Y-109262468D02*
G75*
G02*
X161647486Y-109262468I600001J0D01*
G01*
X74185253Y-116561288D02*
G75*
G02*
X73185263Y-116561288I-499995J0D01*
G01*
X73185263Y-116561288D02*
G75*
G02*
X74185253Y-116561288I499995J0D01*
G01*
X86775282Y-113593246D02*
G75*
G02*
X85575274Y-113593246I-600004J0D01*
G01*
X85575274Y-113593246D02*
G75*
G02*
X86775282Y-113593246I600004J0D01*
G01*
X219563826Y-123896395D02*
G75*
G02*
X218563832Y-123896395I-499997J0D01*
G01*
X218563832Y-123896395D02*
G75*
G02*
X219563826Y-123896395I499997J0D01*
G01*
X229148920Y-115245207D02*
G75*
G02*
X227948918Y-115245207I-600001J0D01*
G01*
X227948918Y-115245207D02*
G75*
G02*
X229148920Y-115245207I600001J0D01*
G01*
X149733921Y-169249807D02*
G75*
G02*
X148733931Y-169249807I-499995J0D01*
G01*
X148733931Y-169249807D02*
G75*
G02*
X149733921Y-169249807I499995J0D01*
G01*
X162408078Y-171838361D02*
G75*
G02*
X161208066Y-171838361I-600006J0D01*
G01*
X161208066Y-171838361D02*
G75*
G02*
X162408078Y-171838361I600006J0D01*
G01*
X57556718Y-113026786D02*
G75*
G02*
X56556728Y-113026786I-499995J0D01*
G01*
X56556728Y-113026786D02*
G75*
G02*
X57556718Y-113026786I499995J0D01*
G01*
X70146747Y-110058744D02*
G75*
G02*
X68946739Y-110058744I-600004J0D01*
G01*
X68946739Y-110058744D02*
G75*
G02*
X70146747Y-110058744I600004J0D01*
G01*
X95981565Y-109607937D02*
G75*
G02*
X94981561Y-109607937I-500002J0D01*
G01*
X94981561Y-109607937D02*
G75*
G02*
X95981565Y-109607937I500002J0D01*
G01*
X108782746Y-107739771D02*
G75*
G02*
X107582744Y-107739771I-600001J0D01*
G01*
X107582744Y-107739771D02*
G75*
G02*
X108782746Y-107739771I600001J0D01*
G01*
X198921077Y-114522147D02*
G75*
G02*
X197921083Y-114522147I-499997J0D01*
G01*
X197921083Y-114522147D02*
G75*
G02*
X198921077Y-114522147I499997J0D01*
G01*
X208506171Y-105870959D02*
G75*
G02*
X207306169Y-105870959I-600001J0D01*
G01*
X207306169Y-105870959D02*
G75*
G02*
X208506171Y-105870959I600001J0D01*
G01*
X239037092Y-129445421D02*
G75*
G02*
X238037098Y-129445421I-499997J0D01*
G01*
X238037098Y-129445421D02*
G75*
G02*
X239037092Y-129445421I499997J0D01*
G01*
X248622186Y-120794233D02*
G75*
G02*
X247422184Y-120794233I-600001J0D01*
G01*
X247422184Y-120794233D02*
G75*
G02*
X248622186Y-120794233I600001J0D01*
G01*
X208861705Y-147036513D02*
G75*
G02*
X207861711Y-147036513I-499997J0D01*
G01*
X207861711Y-147036513D02*
G75*
G02*
X208861705Y-147036513I499997J0D01*
G01*
X218446799Y-138385325D02*
G75*
G02*
X217246797Y-138385325I-600001J0D01*
G01*
X217246797Y-138385325D02*
G75*
G02*
X218446799Y-138385325I600001J0D01*
G01*
X234066773Y-113188245D02*
G75*
G02*
X233066779Y-113188245I-499997J0D01*
G01*
X233066779Y-113188245D02*
G75*
G02*
X234066773Y-113188245I499997J0D01*
G01*
X243651867Y-104537057D02*
G75*
G02*
X242451865Y-104537057I-600001J0D01*
G01*
X242451865Y-104537057D02*
G75*
G02*
X243651867Y-104537057I600001J0D01*
G01*
X286422768Y-98810059D02*
G75*
G02*
X285422776Y-98810059I-499996J0D01*
G01*
X285422776Y-98810059D02*
G75*
G02*
X286422768Y-98810059I499996J0D01*
G01*
X296725767Y-91018465D02*
G75*
G02*
X295525765Y-91018465I-600001J0D01*
G01*
X295525765Y-91018465D02*
G75*
G02*
X296725767Y-91018465I600001J0D01*
G01*
X276863245Y-135601561D02*
G75*
G02*
X275863253Y-135601561I-499996J0D01*
G01*
X275863253Y-135601561D02*
G75*
G02*
X276863245Y-135601561I499996J0D01*
G01*
X287166244Y-127809967D02*
G75*
G02*
X285966242Y-127809967I-600001J0D01*
G01*
X285966242Y-127809967D02*
G75*
G02*
X287166244Y-127809967I600001J0D01*
G01*
X116429491Y-155595778D02*
G75*
G02*
X115429487Y-155595778I-500002J0D01*
G01*
X115429487Y-155595778D02*
G75*
G02*
X116429491Y-155595778I500002J0D01*
G01*
X129230672Y-153727612D02*
G75*
G02*
X128030670Y-153727612I-600001J0D01*
G01*
X128030670Y-153727612D02*
G75*
G02*
X129230672Y-153727612I600001J0D01*
G01*
X214593505Y-107639208D02*
G75*
G02*
X213593511Y-107639208I-499997J0D01*
G01*
X213593511Y-107639208D02*
G75*
G02*
X214593505Y-107639208I499997J0D01*
G01*
X224178599Y-98988020D02*
G75*
G02*
X222978597Y-98988020I-600001J0D01*
G01*
X222978597Y-98988020D02*
G75*
G02*
X224178599Y-98988020I600001J0D01*
G01*
X289957252Y-115438563D02*
G75*
G02*
X288957260Y-115438563I-499996J0D01*
G01*
X288957260Y-115438563D02*
G75*
G02*
X289957252Y-115438563I499996J0D01*
G01*
X300260251Y-107646969D02*
G75*
G02*
X299060249Y-107646969I-600001J0D01*
G01*
X299060249Y-107646969D02*
G75*
G02*
X300260251Y-107646969I600001J0D01*
G01*
X138905667Y-143644994D02*
G75*
G02*
X137905663Y-143644994I-500002J0D01*
G01*
X137905663Y-143644994D02*
G75*
G02*
X138905667Y-143644994I500002J0D01*
G01*
X151706848Y-141776828D02*
G75*
G02*
X150506846Y-141776828I-600001J0D01*
G01*
X150506846Y-141776828D02*
G75*
G02*
X151706848Y-141776828I600001J0D01*
G01*
X128203557Y-120504884D02*
G75*
G02*
X127203553Y-120504884I-500002J0D01*
G01*
X127203553Y-120504884D02*
G75*
G02*
X128203557Y-120504884I500002J0D01*
G01*
X141004738Y-118636718D02*
G75*
G02*
X139804736Y-118636718I-600001J0D01*
G01*
X139804736Y-118636718D02*
G75*
G02*
X141004738Y-118636718I600001J0D01*
G01*
X91011242Y-125865128D02*
G75*
G02*
X90011238Y-125865128I-500002J0D01*
G01*
X90011238Y-125865128D02*
G75*
G02*
X91011242Y-125865128I500002J0D01*
G01*
X103812423Y-123996962D02*
G75*
G02*
X102612421Y-123996962I-600001J0D01*
G01*
X102612421Y-123996962D02*
G75*
G02*
X103812423Y-123996962I600001J0D01*
G01*
X231337878Y-158987288D02*
G75*
G02*
X230337884Y-158987288I-499997J0D01*
G01*
X230337884Y-158987288D02*
G75*
G02*
X231337878Y-158987288I499997J0D01*
G01*
X240922972Y-150336100D02*
G75*
G02*
X239722970Y-150336100I-600001J0D01*
G01*
X239722970Y-150336100D02*
G75*
G02*
X240922972Y-150336100I600001J0D01*
G01*
X273328759Y-118973066D02*
G75*
G02*
X272328767Y-118973066I-499996J0D01*
G01*
X272328767Y-118973066D02*
G75*
G02*
X273328759Y-118973066I499996J0D01*
G01*
X283631758Y-111181472D02*
G75*
G02*
X282431756Y-111181472I-600001J0D01*
G01*
X282431756Y-111181472D02*
G75*
G02*
X283631758Y-111181472I600001J0D01*
G01*
X61091223Y-96398276D02*
G75*
G02*
X60091233Y-96398276I-499995J0D01*
G01*
X60091233Y-96398276D02*
G75*
G02*
X61091223Y-96398276I499995J0D01*
G01*
X73681252Y-93430234D02*
G75*
G02*
X72481244Y-93430234I-600004J0D01*
G01*
X72481244Y-93430234D02*
G75*
G02*
X73681252Y-93430234I600004J0D01*
G01*
X77719739Y-99932771D02*
G75*
G02*
X76719749Y-99932771I-499995J0D01*
G01*
X76719749Y-99932771D02*
G75*
G02*
X77719739Y-99932771I499995J0D01*
G01*
X90309768Y-96964729D02*
G75*
G02*
X89109760Y-96964729I-600004J0D01*
G01*
X89109760Y-96964729D02*
G75*
G02*
X90309768Y-96964729I600004J0D01*
G01*
X133027382Y-161237402D02*
G75*
G02*
X132027380Y-161237402I-500001J0D01*
G01*
X132027380Y-161237402D02*
G75*
G02*
X133027382Y-161237402I500001J0D01*
G01*
X145943045Y-160483334D02*
G75*
G02*
X144743053Y-160483334I-599996J0D01*
G01*
X144743053Y-160483334D02*
G75*
G02*
X145943045Y-160483334I599996J0D01*
G01*
X203891382Y-130779321D02*
G75*
G02*
X202891388Y-130779321I-499997J0D01*
G01*
X202891388Y-130779321D02*
G75*
G02*
X203891382Y-130779321I499997J0D01*
G01*
X213476476Y-122128133D02*
G75*
G02*
X212276474Y-122128133I-600001J0D01*
G01*
X212276474Y-122128133D02*
G75*
G02*
X213476476Y-122128133I600001J0D01*
G01*
X256756125Y-129256640D02*
G75*
G02*
X255756131Y-129256640I-499997J0D01*
G01*
X255756131Y-129256640D02*
G75*
G02*
X256756125Y-129256640I499997J0D01*
G01*
X266341219Y-120605452D02*
G75*
G02*
X265141217Y-120605452I-600001J0D01*
G01*
X265141217Y-120605452D02*
G75*
G02*
X266341219Y-120605452I600001J0D01*
G01*
X143875990Y-127387812D02*
G75*
G02*
X142875986Y-127387812I-500002J0D01*
G01*
X142875986Y-127387812D02*
G75*
G02*
X143875990Y-127387812I500002J0D01*
G01*
X156677171Y-125519646D02*
G75*
G02*
X155477169Y-125519646I-600001J0D01*
G01*
X155477169Y-125519646D02*
G75*
G02*
X156677171Y-125519646I600001J0D01*
G01*
X293491754Y-132067065D02*
G75*
G02*
X292491762Y-132067065I-499996J0D01*
G01*
X292491762Y-132067065D02*
G75*
G02*
X293491754Y-132067065I499996J0D01*
G01*
X303794753Y-124275471D02*
G75*
G02*
X302594751Y-124275471I-600001J0D01*
G01*
X302594751Y-124275471D02*
G75*
G02*
X303794753Y-124275471I600001J0D01*
G01*
X133173875Y-104247719D02*
G75*
G02*
X132173871Y-104247719I-500002J0D01*
G01*
X132173871Y-104247719D02*
G75*
G02*
X133173875Y-104247719I500002J0D01*
G01*
X145975056Y-102379553D02*
G75*
G02*
X144775054Y-102379553I-600001J0D01*
G01*
X144775054Y-102379553D02*
G75*
G02*
X145975056Y-102379553I600001J0D01*
G01*
X246815487Y-96742269D02*
G75*
G02*
X245815493Y-96742269I-499997J0D01*
G01*
X245815493Y-96742269D02*
G75*
G02*
X246815487Y-96742269I499997J0D01*
G01*
X256400581Y-88091081D02*
G75*
G02*
X255200579Y-88091081I-600001J0D01*
G01*
X255200579Y-88091081D02*
G75*
G02*
X256400581Y-88091081I600001J0D01*
G01*
X108730277Y-126053922D02*
G75*
G02*
X107730273Y-126053922I-500002J0D01*
G01*
X107730273Y-126053922D02*
G75*
G02*
X108730277Y-126053922I500002J0D01*
G01*
X121531458Y-124185756D02*
G75*
G02*
X120331456Y-124185756I-600001J0D01*
G01*
X120331456Y-124185756D02*
G75*
G02*
X121531458Y-124185756I600001J0D01*
G01*
X199862416Y-176230863D02*
G75*
G02*
X198862414Y-176230863I-500001J0D01*
G01*
X198862414Y-176230863D02*
G75*
G02*
X199862416Y-176230863I500001J0D01*
G01*
X205916600Y-164857317D02*
G75*
G02*
X204716594Y-164857317I-600003J0D01*
G01*
X204716594Y-164857317D02*
G75*
G02*
X205916600Y-164857317I600003J0D01*
G01*
X269794259Y-102344555D02*
G75*
G02*
X268794267Y-102344555I-499996J0D01*
G01*
X268794267Y-102344555D02*
G75*
G02*
X269794259Y-102344555I499996J0D01*
G01*
X280097258Y-94552961D02*
G75*
G02*
X278897256Y-94552961I-600001J0D01*
G01*
X278897256Y-94552961D02*
G75*
G02*
X280097258Y-94552961I600001J0D01*
G01*
X54022230Y-129655293D02*
G75*
G02*
X53022240Y-129655293I-499995J0D01*
G01*
X53022240Y-129655293D02*
G75*
G02*
X54022230Y-129655293I499995J0D01*
G01*
X66612259Y-126687251D02*
G75*
G02*
X65412251Y-126687251I-600004J0D01*
G01*
X65412251Y-126687251D02*
G75*
G02*
X66612259Y-126687251I600004J0D01*
G01*
X251785814Y-112999444D02*
G75*
G02*
X250785820Y-112999444I-499997J0D01*
G01*
X250785820Y-112999444D02*
G75*
G02*
X251785814Y-112999444I499997J0D01*
G01*
X261370908Y-104348256D02*
G75*
G02*
X260170906Y-104348256I-600001J0D01*
G01*
X260170906Y-104348256D02*
G75*
G02*
X261370908Y-104348256I600001J0D01*
G01*
%TD*%
M02*
