%TF.GenerationSoftware,KiCad,Pcbnew,8.0.6*%
%TF.CreationDate,2025-05-16T17:03:22+02:00*%
%TF.ProjectId,main,6d61696e-2e6b-4696-9361-645f70636258,v1.0.0*%
%TF.SameCoordinates,Original*%
%TF.FileFunction,Soldermask,Bot*%
%TF.FilePolarity,Negative*%
%FSLAX46Y46*%
G04 Gerber Fmt 4.6, Leading zero omitted, Abs format (unit mm)*
G04 Created by KiCad (PCBNEW 8.0.6) date 2025-05-16 17:03:22*
%MOMM*%
%LPD*%
G01*
G04 APERTURE LIST*
G04 Aperture macros list*
%AMRoundRect*
0 Rectangle with rounded corners*
0 $1 Rounding radius*
0 $2 $3 $4 $5 $6 $7 $8 $9 X,Y pos of 4 corners*
0 Add a 4 corners polygon primitive as box body*
4,1,4,$2,$3,$4,$5,$6,$7,$8,$9,$2,$3,0*
0 Add four circle primitives for the rounded corners*
1,1,$1+$1,$2,$3*
1,1,$1+$1,$4,$5*
1,1,$1+$1,$6,$7*
1,1,$1+$1,$8,$9*
0 Add four rect primitives between the rounded corners*
20,1,$1+$1,$2,$3,$4,$5,0*
20,1,$1+$1,$4,$5,$6,$7,0*
20,1,$1+$1,$6,$7,$8,$9,0*
20,1,$1+$1,$8,$9,$2,$3,0*%
G04 Aperture macros list end*
%ADD10C,3.900000*%
%ADD11RoundRect,0.050000X-1.110073X-0.590236X0.590236X-1.110073X1.110073X0.590236X-0.590236X1.110073X0*%
%ADD12RoundRect,0.050000X-0.605760X-0.442216X0.254914X-0.705350X0.605760X0.442216X-0.254914X0.705350X0*%
%ADD13C,2.005000*%
%ADD14RoundRect,0.050000X-0.684740X-1.054407X1.054407X-0.684740X0.684740X1.054407X-1.054407X0.684740X0*%
%ADD15RoundRect,0.050000X-0.315419X-0.680449X0.564913X-0.493328X0.315419X0.680449X-0.564913X0.493328X0*%
%ADD16RoundRect,0.050000X-0.590236X-1.110073X1.110073X-0.590236X0.590236X1.110073X-1.110073X0.590236X0*%
%ADD17RoundRect,0.050000X-0.254914X-0.705350X0.605760X-0.442216X0.254914X0.705350X-0.605760X0.442216X0*%
%ADD18RoundRect,0.050000X-1.054407X-0.684740X0.684740X-1.054407X1.054407X0.684740X-0.684740X1.054407X0*%
%ADD19RoundRect,0.050000X-0.564913X-0.493328X0.315419X-0.680449X0.564913X0.493328X-0.315419X0.680449X0*%
%ADD20RoundRect,0.050000X-0.491241X-1.157292X1.157292X-0.491241X0.491241X1.157292X-1.157292X0.491241X0*%
%ADD21RoundRect,0.050000X-0.192469X-0.724883X0.641997X-0.387737X0.192469X0.724883X-0.641997X0.387737X0*%
%ADD22RoundRect,0.050000X-0.174973X-1.245001X1.245001X-0.174973X0.174973X1.245001X-1.245001X0.174973X0*%
%ADD23RoundRect,0.050000X0.001703X-0.749998X0.720475X-0.208365X-0.001703X0.749998X-0.720475X0.208365X0*%
%ADD24RoundRect,0.260000X-0.390000X-0.665000X0.390000X-0.665000X0.390000X0.665000X-0.390000X0.665000X0*%
%ADD25O,1.300000X1.850000*%
%ADD26RoundRect,0.050000X-1.245001X-0.174973X0.174973X-1.245001X1.245001X0.174973X-0.174973X1.245001X0*%
%ADD27RoundRect,0.050000X-0.720475X-0.208365X-0.001703X-0.749998X0.720475X0.208365X0.001703X0.749998X0*%
%ADD28RoundRect,0.102000X0.749000X-0.749000X0.749000X0.749000X-0.749000X0.749000X-0.749000X-0.749000X0*%
%ADD29C,1.702000*%
%ADD30C,1.000000*%
%ADD31RoundRect,0.050000X-1.157292X-0.491241X0.491241X-1.157292X1.157292X0.491241X-0.491241X1.157292X0*%
%ADD32RoundRect,0.050000X-0.641997X-0.387737X0.192469X-0.724883X0.641997X0.387737X-0.192469X0.724883X0*%
%ADD33C,1.800000*%
G04 APERTURE END LIST*
D10*
%TO.C,H10*%
X226704171Y-113980440D03*
%TD*%
D11*
%TO.C,D16*%
X149301300Y-148964373D03*
D12*
X151366918Y-149595896D03*
X154522724Y-150560722D03*
D13*
X156588342Y-151192245D03*
%TD*%
D14*
%TO.C,D22*%
X318150317Y-133854159D03*
D15*
X320263115Y-133405068D03*
X323491003Y-132718960D03*
D13*
X325603801Y-132269869D03*
%TD*%
D14*
%TO.C,D24*%
X310249673Y-96684551D03*
D15*
X312362471Y-96235460D03*
X315590359Y-95549352D03*
D13*
X317703157Y-95100261D03*
%TD*%
D10*
%TO.C,H6*%
X109629682Y-127581170D03*
%TD*%
D16*
%TO.C,D38*%
X218461345Y-133022454D03*
D17*
X220526963Y-132390931D03*
X223682769Y-131426105D03*
D13*
X225748387Y-130794582D03*
%TD*%
D11*
%TO.C,D17*%
X154856362Y-130794582D03*
D12*
X156921980Y-131426105D03*
X160077786Y-132390931D03*
D13*
X162143404Y-133022454D03*
%TD*%
D16*
%TO.C,D37*%
X224016407Y-151192245D03*
D17*
X226082025Y-150560722D03*
X229237831Y-149595896D03*
D13*
X231303449Y-148964373D03*
%TD*%
D18*
%TO.C,D1*%
X55000947Y-132269869D03*
D19*
X57113745Y-132718960D03*
X60341633Y-133405068D03*
D13*
X62454431Y-133854159D03*
%TD*%
D11*
%TO.C,D7*%
X95669044Y-129430271D03*
D12*
X97734662Y-130061794D03*
X100890468Y-131026620D03*
D13*
X102956086Y-131658143D03*
%TD*%
D11*
%TO.C,D14*%
X137271315Y-123326911D03*
D12*
X139336933Y-123958434D03*
X142492739Y-124923260D03*
D13*
X144558357Y-125554783D03*
%TD*%
D14*
%TO.C,D25*%
X299565513Y-137804482D03*
D15*
X301678311Y-137355391D03*
X304906199Y-136669283D03*
D13*
X307018997Y-136220192D03*
%TD*%
D10*
%TO.C,H1*%
X75231512Y-102168249D03*
%TD*%
D16*
%TO.C,D35*%
X236046392Y-125554783D03*
D17*
X238112010Y-124923260D03*
X241267816Y-123958434D03*
D13*
X243333434Y-123326911D03*
%TD*%
D10*
%TO.C,H4*%
X311860081Y-132686454D03*
%TD*%
D11*
%TO.C,D12*%
X126410817Y-93864229D03*
D12*
X128476435Y-94495752D03*
X131632241Y-95460578D03*
D13*
X133697859Y-96092101D03*
%TD*%
D10*
%TO.C,H2*%
X305373236Y-102168249D03*
%TD*%
D11*
%TO.C,D13*%
X131716253Y-141496701D03*
D12*
X133781871Y-142128224D03*
X136937677Y-143093050D03*
D13*
X139003295Y-143724573D03*
%TD*%
D10*
%TO.C,H12*%
X215459436Y-173437661D03*
%TD*%
D14*
%TO.C,D26*%
X295615191Y-119219677D03*
D15*
X297727989Y-118770586D03*
X300955877Y-118084478D03*
D13*
X303068675Y-117635387D03*
%TD*%
D11*
%TO.C,D8*%
X101224106Y-111260481D03*
D12*
X103289724Y-111892004D03*
X106445530Y-112856830D03*
D13*
X108511148Y-113488353D03*
%TD*%
D10*
%TO.C,H3*%
X68744668Y-132686454D03*
%TD*%
D14*
%TO.C,D27*%
X291664869Y-100634873D03*
D15*
X293777667Y-100185782D03*
X297005555Y-99499674D03*
D13*
X299118353Y-99050583D03*
%TD*%
D20*
%TO.C,D41*%
X224011118Y-173541722D03*
D21*
X226013835Y-172732572D03*
X229073541Y-171496370D03*
D13*
X231076258Y-170687220D03*
%TD*%
D11*
%TO.C,D10*%
X115300692Y-130203810D03*
D12*
X117366310Y-130835333D03*
X120522116Y-131800159D03*
D13*
X122587734Y-132431682D03*
%TD*%
D10*
%TO.C,H7*%
X260743880Y-97194737D03*
%TD*%
D11*
%TO.C,D19*%
X129109294Y-163704892D03*
D12*
X131174912Y-164336415D03*
X134330718Y-165301241D03*
D13*
X136396336Y-165932764D03*
%TD*%
D16*
%TO.C,D30*%
X266538538Y-95318563D03*
D17*
X268604156Y-94687040D03*
X271759962Y-93722214D03*
D13*
X273825580Y-93090691D03*
%TD*%
D18*
%TO.C,D2*%
X58951269Y-113685065D03*
D19*
X61064067Y-114134156D03*
X64291955Y-114820264D03*
D13*
X66404753Y-115269355D03*
%TD*%
D10*
%TO.C,H8*%
X270975067Y-127581170D03*
%TD*%
D16*
%TO.C,D33*%
X246906890Y-96092101D03*
D17*
X248972508Y-95460578D03*
X252128314Y-94495752D03*
D13*
X254193932Y-93864229D03*
%TD*%
D16*
%TO.C,D40*%
X244208413Y-165932764D03*
D17*
X246274031Y-165301241D03*
X249429837Y-164336415D03*
D13*
X251495455Y-163704892D03*
%TD*%
D16*
%TO.C,D31*%
X258017014Y-132431682D03*
D17*
X260082632Y-131800159D03*
X263238438Y-130835333D03*
D13*
X265304056Y-130203810D03*
%TD*%
D22*
%TO.C,D42*%
X205110606Y-185040449D03*
D23*
X206835658Y-183740529D03*
X209471156Y-181754539D03*
D13*
X211196208Y-180454619D03*
%TD*%
D24*
%TO.C,JST1*%
X176500000Y-120500000D03*
D25*
X178500000Y-120500000D03*
%TD*%
D26*
%TO.C,D21*%
X169408540Y-180454619D03*
D27*
X171133592Y-181754539D03*
X173769090Y-183740529D03*
D13*
X175494142Y-185040449D03*
%TD*%
D10*
%TO.C,H11*%
X165145313Y-173437661D03*
%TD*%
D18*
%TO.C,D6*%
X81486396Y-99050583D03*
D19*
X83599194Y-99499674D03*
X86827082Y-100185782D03*
D13*
X88939880Y-100634873D03*
%TD*%
D11*
%TO.C,D18*%
X160411424Y-112624792D03*
D12*
X162477042Y-113256315D03*
X165632848Y-114221141D03*
D13*
X167698466Y-114852664D03*
%TD*%
D18*
%TO.C,D4*%
X73585752Y-136220192D03*
D19*
X75698550Y-136669283D03*
X78926438Y-137355391D03*
D13*
X81039236Y-137804482D03*
%TD*%
D18*
%TO.C,D5*%
X77536074Y-117635387D03*
D19*
X79648872Y-118084478D03*
X82876760Y-118770586D03*
D13*
X84989558Y-119219677D03*
%TD*%
D11*
%TO.C,D15*%
X142826377Y-105157120D03*
D12*
X144891995Y-105788643D03*
X148047801Y-106753469D03*
D13*
X150113419Y-107384992D03*
%TD*%
D10*
%TO.C,H9*%
X153900578Y-113980440D03*
%TD*%
D11*
%TO.C,D11*%
X120855755Y-112034020D03*
D12*
X122921373Y-112665543D03*
X126077179Y-113630369D03*
D13*
X128142797Y-114261892D03*
%TD*%
D16*
%TO.C,D28*%
X277648663Y-131658143D03*
D17*
X279714281Y-131026620D03*
X282870087Y-130061794D03*
D13*
X284935705Y-129430271D03*
%TD*%
D16*
%TO.C,D29*%
X272093601Y-113488353D03*
D17*
X274159219Y-112856830D03*
X277315025Y-111892004D03*
D13*
X279380643Y-111260481D03*
%TD*%
D28*
%TO.C,REF\u002A\u002A*%
X175000000Y-116500000D03*
D29*
X175000000Y-110000000D03*
X179500000Y-116500000D03*
X179500000Y-110000000D03*
%TD*%
D30*
%TO.C,REF\u002A\u002A*%
X152000000Y-89500000D03*
X149376140Y-88045572D03*
%TD*%
D31*
%TO.C,D20*%
X149528490Y-170687220D03*
D32*
X151531207Y-171496370D03*
X154590913Y-172732572D03*
D13*
X156593630Y-173541722D03*
%TD*%
D16*
%TO.C,D36*%
X230491329Y-107384992D03*
D17*
X232556947Y-106753469D03*
X235712753Y-105788643D03*
D13*
X237778371Y-105157120D03*
%TD*%
D11*
%TO.C,D9*%
X106779168Y-93090691D03*
D12*
X108844786Y-93722214D03*
X112000592Y-94687040D03*
D13*
X114066210Y-95318563D03*
%TD*%
D18*
%TO.C,D3*%
X62901592Y-95100261D03*
D19*
X65014390Y-95549352D03*
X68242278Y-96235460D03*
D13*
X70355076Y-96684551D03*
%TD*%
D16*
%TO.C,D32*%
X252461952Y-114261892D03*
D17*
X254527570Y-113630369D03*
X257683376Y-112665543D03*
D13*
X259748994Y-112034020D03*
%TD*%
D16*
%TO.C,D39*%
X212906282Y-114852664D03*
D17*
X214971900Y-114221141D03*
X218127706Y-113256315D03*
D13*
X220193324Y-112624792D03*
%TD*%
D16*
%TO.C,D34*%
X241601454Y-143724573D03*
D17*
X243667072Y-143093050D03*
X246822878Y-142128224D03*
D13*
X248888496Y-141496701D03*
%TD*%
D14*
%TO.C,D23*%
X314199995Y-115269355D03*
D15*
X316312793Y-114820264D03*
X319540681Y-114134156D03*
D13*
X321653479Y-113685065D03*
%TD*%
D10*
%TO.C,H5*%
X119860869Y-97194737D03*
%TD*%
D33*
%TO.C,MCU1*%
X198120000Y-105800000D03*
X198120000Y-108340000D03*
X198120000Y-110880000D03*
X198120000Y-113420000D03*
X198120000Y-115960000D03*
X198120000Y-118500000D03*
X198120000Y-121040000D03*
X198120000Y-123580000D03*
X198120000Y-126120000D03*
X198120000Y-128660000D03*
X198120000Y-131200000D03*
X198120000Y-133740000D03*
X182880000Y-133740000D03*
X182880000Y-131200000D03*
X182880000Y-128660000D03*
X182880000Y-126120000D03*
X182880000Y-123580000D03*
X182880000Y-121040000D03*
X182880000Y-118500000D03*
X182880000Y-115960000D03*
X182880000Y-113420000D03*
X182880000Y-110880000D03*
X182880000Y-108340000D03*
X182880000Y-105800000D03*
%TD*%
M02*
