%TF.GenerationSoftware,KiCad,Pcbnew,8.0.6*%
%TF.CreationDate,2025-07-21T16:42:00+02:00*%
%TF.ProjectId,main,6d61696e-2e6b-4696-9361-645f70636258,v1.0.0*%
%TF.SameCoordinates,Original*%
%TF.FileFunction,Soldermask,Bot*%
%TF.FilePolarity,Negative*%
%FSLAX46Y46*%
G04 Gerber Fmt 4.6, Leading zero omitted, Abs format (unit mm)*
G04 Created by KiCad (PCBNEW 8.0.6) date 2025-07-21 16:42:00*
%MOMM*%
%LPD*%
G01*
G04 APERTURE LIST*
G04 Aperture macros list*
%AMRoundRect*
0 Rectangle with rounded corners*
0 $1 Rounding radius*
0 $2 $3 $4 $5 $6 $7 $8 $9 X,Y pos of 4 corners*
0 Add a 4 corners polygon primitive as box body*
4,1,4,$2,$3,$4,$5,$6,$7,$8,$9,$2,$3,0*
0 Add four circle primitives for the rounded corners*
1,1,$1+$1,$2,$3*
1,1,$1+$1,$4,$5*
1,1,$1+$1,$6,$7*
1,1,$1+$1,$8,$9*
0 Add four rect primitives between the rounded corners*
20,1,$1+$1,$2,$3,$4,$5,0*
20,1,$1+$1,$4,$5,$6,$7,0*
20,1,$1+$1,$6,$7,$8,$9,0*
20,1,$1+$1,$8,$9,$2,$3,0*%
G04 Aperture macros list end*
%ADD10C,1.500000*%
%ADD11RoundRect,0.050000X-0.448764X-1.182893X1.033508X-0.729717X0.448764X1.182893X-1.033508X0.729717X0*%
%ADD12RoundRect,0.050000X-1.033508X-0.729717X0.448764X-1.182893X1.033508X0.729717X-0.448764X1.182893X0*%
%ADD13RoundRect,0.050000X-0.965976X-0.817016X0.550153X-1.139279X0.965976X0.817016X-0.550153X1.139279X0*%
%ADD14RoundRect,0.050000X-0.343961X-1.217504X1.093174X-0.636864X0.343961X1.217504X-1.093174X0.636864X0*%
%ADD15RoundRect,0.050000X-1.220758X-0.332229X0.017127X-1.265042X1.220758X0.332229X-0.017127X1.265042X0*%
%ADD16RoundRect,0.050000X-0.550153X-1.139279X0.965976X-0.817016X0.550153X1.139279X-0.965976X0.817016X0*%
%ADD17RoundRect,0.050000X-1.093174X-0.636864X0.343961X-1.217504X1.093174X0.636864X-0.343961X1.217504X0*%
%ADD18RoundRect,0.050000X-0.017127X-1.265042X1.220758X-0.332229X0.017127X1.265042X-1.220758X0.332229X0*%
%ADD19RoundRect,0.050000X-0.254914X-0.705350X0.605760X-0.442216X0.254914X0.705350X-0.605760X0.442216X0*%
%ADD20RoundRect,0.050000X-0.315419X-0.680449X0.564913X-0.493328X0.315419X0.680449X-0.564913X0.493328X0*%
%ADD21RoundRect,0.050000X-0.605760X-0.442216X0.254914X-0.705350X0.605760X0.442216X-0.254914X0.705350X0*%
%ADD22RoundRect,0.050000X-0.564913X-0.493328X0.315419X-0.680449X0.564913X0.493328X-0.315419X0.680449X0*%
%ADD23RoundRect,0.050000X-0.720475X-0.208365X-0.001703X-0.749998X0.720475X0.208365X0.001703X0.749998X0*%
%ADD24RoundRect,0.260000X-0.390000X-0.665000X0.390000X-0.665000X0.390000X0.665000X-0.390000X0.665000X0*%
%ADD25O,1.300000X1.850000*%
%ADD26RoundRect,0.050000X-0.192469X-0.724883X0.641997X-0.387737X0.192469X0.724883X-0.641997X0.387737X0*%
%ADD27RoundRect,0.050000X0.001703X-0.749998X0.720475X-0.208365X-0.001703X0.749998X-0.720475X0.208365X0*%
%ADD28C,1.800000*%
%ADD29C,1.000000*%
%ADD30RoundRect,0.050000X-0.641997X-0.387737X0.192469X-0.724883X0.641997X0.387737X-0.192469X0.724883X0*%
G04 APERTURE END LIST*
D10*
%TO.C,CPG1316*%
X255368691Y-111646613D03*
D11*
X255368691Y-111646613D03*
D10*
X258237602Y-110769495D03*
D11*
X258237602Y-110769495D03*
%TD*%
D10*
%TO.C,CPG1316*%
X117341952Y-110958296D03*
D12*
X117341952Y-110958296D03*
D10*
X120210869Y-111835410D03*
D12*
X120210869Y-111835410D03*
%TD*%
D10*
%TO.C,CPG1316*%
X122312272Y-94701117D03*
D12*
X122312272Y-94701117D03*
D10*
X125181189Y-95578231D03*
D12*
X125181189Y-95578231D03*
%TD*%
D10*
%TO.C,CPG1316*%
X126874571Y-137923618D03*
D12*
X126874571Y-137923618D03*
D10*
X129743488Y-138800732D03*
D12*
X129743488Y-138800732D03*
%TD*%
D10*
%TO.C,CPG1316*%
X232679329Y-95578235D03*
D11*
X232679329Y-95578235D03*
D10*
X235548240Y-94701117D03*
D11*
X235548240Y-94701117D03*
%TD*%
D10*
%TO.C,CPG1316*%
X74377568Y-133985993D03*
D13*
X74377568Y-133985993D03*
D10*
X77312008Y-134609731D03*
D13*
X77312008Y-134609731D03*
%TD*%
D10*
%TO.C,CPG1316*%
X104593234Y-94512337D03*
D12*
X104593234Y-94512337D03*
D10*
X107462151Y-95389451D03*
D12*
X107462151Y-95389451D03*
%TD*%
D10*
%TO.C,CPG1316*%
X228117024Y-138800745D03*
D11*
X228117024Y-138800745D03*
D10*
X230985935Y-137923627D03*
D11*
X230985935Y-137923627D03*
%TD*%
D10*
%TO.C,CPG1316*%
X218527225Y-163879309D03*
D14*
X218527225Y-163879309D03*
D10*
X221308782Y-162755488D03*
D14*
X221308782Y-162755488D03*
%TD*%
D10*
%TO.C,CPG1316*%
X152487654Y-112292201D03*
D12*
X152487654Y-112292201D03*
D10*
X155356571Y-113169315D03*
D12*
X155356571Y-113169315D03*
%TD*%
D10*
%TO.C,CPG1316*%
X223146705Y-122543566D03*
D11*
X223146705Y-122543566D03*
D10*
X226015616Y-121666448D03*
D11*
X226015616Y-121666448D03*
%TD*%
D10*
%TO.C,CPG1316*%
X152728241Y-171757748D03*
D15*
X152728241Y-171757748D03*
D10*
X155124145Y-173563191D03*
D15*
X155124145Y-173563191D03*
%TD*%
D10*
%TO.C,CPG1316*%
X61283549Y-113822983D03*
D13*
X61283549Y-113822983D03*
D10*
X64217989Y-114446721D03*
D13*
X64217989Y-114446721D03*
%TD*%
D10*
%TO.C,CPG1316*%
X99622913Y-110769504D03*
D12*
X99622913Y-110769504D03*
D10*
X102491830Y-111646618D03*
D12*
X102491830Y-111646618D03*
%TD*%
D10*
%TO.C,CPG1316*%
X202503954Y-113169318D03*
D11*
X202503954Y-113169318D03*
D10*
X205372865Y-112292200D03*
D11*
X205372865Y-112292200D03*
%TD*%
D10*
%TO.C,CPG1316*%
X212444581Y-145683684D03*
D11*
X212444581Y-145683684D03*
D10*
X215313492Y-144806566D03*
D11*
X215313492Y-144806566D03*
%TD*%
D10*
%TO.C,CPG1316*%
X237649651Y-111835417D03*
D11*
X237649651Y-111835417D03*
D10*
X240518562Y-110958299D03*
D11*
X240518562Y-110958299D03*
%TD*%
D10*
%TO.C,CPG1316*%
X290108013Y-97818223D03*
D16*
X290108013Y-97818223D03*
D10*
X293042456Y-97194490D03*
D16*
X293042456Y-97194490D03*
%TD*%
D10*
%TO.C,CPG1316*%
X280548487Y-134609723D03*
D16*
X280548487Y-134609723D03*
D10*
X283482930Y-133985990D03*
D16*
X283482930Y-133985990D03*
%TD*%
D10*
%TO.C,CPG1316*%
X120070840Y-156757343D03*
D12*
X120070840Y-156757343D03*
D10*
X122939757Y-157634457D03*
D12*
X122939757Y-157634457D03*
%TD*%
D10*
%TO.C,CPG1316*%
X218176382Y-106286383D03*
D11*
X218176382Y-106286383D03*
D10*
X221045293Y-105409265D03*
D11*
X221045293Y-105409265D03*
%TD*%
D10*
%TO.C,CPG1316*%
X293642496Y-114446722D03*
D16*
X293642496Y-114446722D03*
D10*
X296576939Y-113822989D03*
D16*
X296576939Y-113822989D03*
%TD*%
D10*
%TO.C,CPG1316*%
X142547013Y-144806560D03*
D12*
X142547013Y-144806560D03*
D10*
X145415930Y-145683674D03*
D12*
X145415930Y-145683674D03*
%TD*%
D10*
%TO.C,CPG1316*%
X131844904Y-121666458D03*
D12*
X131844904Y-121666458D03*
D10*
X134713821Y-122543572D03*
D12*
X134713821Y-122543572D03*
%TD*%
D10*
%TO.C,CPG1316*%
X94652591Y-127026700D03*
D12*
X94652591Y-127026700D03*
D10*
X97521508Y-127903814D03*
D12*
X97521508Y-127903814D03*
%TD*%
D10*
%TO.C,CPG1316*%
X234920756Y-157634456D03*
D11*
X234920756Y-157634456D03*
D10*
X237789667Y-156757338D03*
D11*
X237789667Y-156757338D03*
%TD*%
D10*
%TO.C,CPG1316*%
X277014003Y-117981226D03*
D16*
X277014003Y-117981226D03*
D10*
X279948446Y-117357493D03*
D16*
X279948446Y-117357493D03*
%TD*%
D10*
%TO.C,CPG1316*%
X64818055Y-97194481D03*
D13*
X64818055Y-97194481D03*
D10*
X67752495Y-97818219D03*
D13*
X67752495Y-97818219D03*
%TD*%
D10*
%TO.C,CPG1316*%
X81446569Y-100728970D03*
D13*
X81446569Y-100728970D03*
D10*
X84381009Y-101352708D03*
D13*
X84381009Y-101352708D03*
%TD*%
D10*
%TO.C,CPG1316*%
X136551734Y-162755496D03*
D17*
X136551734Y-162755496D03*
D10*
X139333287Y-163879311D03*
D17*
X139333287Y-163879311D03*
%TD*%
D10*
%TO.C,CPG1316*%
X207474261Y-129426488D03*
D11*
X207474261Y-129426488D03*
D10*
X210343172Y-128549370D03*
D11*
X210343172Y-128549370D03*
%TD*%
D10*
%TO.C,CPG1316*%
X260339000Y-127903811D03*
D11*
X260339000Y-127903811D03*
D10*
X263207911Y-127026693D03*
D11*
X263207911Y-127026693D03*
%TD*%
D10*
%TO.C,CPG1316*%
X147517340Y-128549381D03*
D12*
X147517340Y-128549381D03*
D10*
X150386257Y-129426495D03*
D12*
X150386257Y-129426495D03*
%TD*%
D10*
%TO.C,CPG1316*%
X297177004Y-131075225D03*
D16*
X297177004Y-131075225D03*
D10*
X300111447Y-130451492D03*
D16*
X300111447Y-130451492D03*
%TD*%
D10*
%TO.C,CPG1316*%
X136815223Y-105409284D03*
D12*
X136815223Y-105409284D03*
D10*
X139684140Y-106286398D03*
D12*
X139684140Y-106286398D03*
%TD*%
D10*
%TO.C,CPG1316*%
X250398368Y-95389438D03*
D11*
X250398368Y-95389438D03*
D10*
X253267279Y-94512320D03*
D11*
X253267279Y-94512320D03*
%TD*%
D10*
%TO.C,CPG1316*%
X112371623Y-127215492D03*
D12*
X112371623Y-127215492D03*
D10*
X115240540Y-128092606D03*
D12*
X115240540Y-128092606D03*
%TD*%
D10*
%TO.C,CPG1316*%
X202736364Y-173563198D03*
D18*
X202736364Y-173563198D03*
D10*
X205132273Y-171757754D03*
D18*
X205132273Y-171757754D03*
%TD*%
D10*
%TO.C,CPG1316*%
X273479508Y-101352715D03*
D16*
X273479508Y-101352715D03*
D10*
X276413951Y-100728982D03*
D16*
X276413951Y-100728982D03*
%TD*%
D10*
%TO.C,CPG1316*%
X57749062Y-130451492D03*
D13*
X57749062Y-130451492D03*
D10*
X60683502Y-131075230D03*
D13*
X60683502Y-131075230D03*
%TD*%
D19*
%TO.C,D34*%
X226409368Y-133728372D03*
X229565184Y-132763546D03*
%TD*%
D20*
%TO.C,D26*%
X275754947Y-112779311D03*
X278982843Y-112093213D03*
%TD*%
D21*
%TO.C,D10*%
X113792384Y-122055404D03*
X116948178Y-123020222D03*
%TD*%
D19*
%TO.C,D29*%
X253661050Y-106574237D03*
X256816866Y-105609411D03*
%TD*%
D20*
%TO.C,D25*%
X279289451Y-129407820D03*
X282517347Y-128721722D03*
%TD*%
D21*
%TO.C,D16*%
X143967775Y-139646473D03*
X147123569Y-140611291D03*
%TD*%
%TO.C,D9*%
X106013978Y-89352238D03*
X109169772Y-90317056D03*
%TD*%
D22*
%TO.C,D3*%
X65783647Y-91930199D03*
X69011565Y-92616311D03*
%TD*%
%TO.C,D2*%
X62249149Y-108558715D03*
X65477067Y-109244827D03*
%TD*%
D23*
%TO.C,D21*%
X155828152Y-167394793D03*
X158463646Y-169380761D03*
%TD*%
D19*
%TO.C,D35*%
X221439059Y-117471187D03*
X224594875Y-116506361D03*
%TD*%
D21*
%TO.C,D12*%
X123733006Y-89541039D03*
X126888800Y-90505857D03*
%TD*%
D20*
%TO.C,D23*%
X292383461Y-109244815D03*
X295611357Y-108558717D03*
%TD*%
D19*
%TO.C,D33*%
X230971692Y-90505865D03*
X234127508Y-89541039D03*
%TD*%
D24*
%TO.C,JST1*%
X164974994Y-118674999D03*
D25*
X166974988Y-118675007D03*
%TD*%
D22*
%TO.C,D4*%
X75343162Y-128721729D03*
X78571080Y-129407841D03*
%TD*%
D19*
%TO.C,D36*%
X216468735Y-101214008D03*
X219624551Y-100249182D03*
%TD*%
D26*
%TO.C,D41*%
X216384021Y-158975081D03*
X219443711Y-157738873D03*
%TD*%
D21*
%TO.C,D14*%
X133265660Y-116506373D03*
X136421454Y-117471191D03*
%TD*%
D27*
%TO.C,D42*%
X199396859Y-169380777D03*
X202032367Y-167394767D03*
%TD*%
D19*
%TO.C,D30*%
X248690734Y-90317066D03*
X251846550Y-89352240D03*
%TD*%
D20*
%TO.C,D22*%
X295917966Y-125873331D03*
X299145862Y-125187233D03*
%TD*%
D21*
%TO.C,D7*%
X96073338Y-121866595D03*
X99229132Y-122831413D03*
%TD*%
D19*
%TO.C,D28*%
X258631370Y-122831424D03*
X261787186Y-121866598D03*
%TD*%
%TO.C,D31*%
X240912332Y-123020218D03*
X244068148Y-122055392D03*
%TD*%
D22*
%TO.C,D6*%
X82412158Y-95464702D03*
X85640076Y-96150814D03*
%TD*%
D19*
%TO.C,D37*%
X210736936Y-140611295D03*
X213892752Y-139646469D03*
%TD*%
%TO.C,D40*%
X233213112Y-152562090D03*
X236368928Y-151597264D03*
%TD*%
D22*
%TO.C,D5*%
X78877653Y-112093218D03*
X82105571Y-112779330D03*
%TD*%
D21*
%TO.C,D19*%
X121491593Y-151597272D03*
X124647387Y-152562090D03*
%TD*%
D19*
%TO.C,D38*%
X205766622Y-124354121D03*
X208922438Y-123389295D03*
%TD*%
D28*
%TO.C,RST1*%
X167074990Y-115349994D03*
X167075004Y-108850000D03*
%TD*%
D21*
%TO.C,D13*%
X128295332Y-132763541D03*
X131451126Y-133728359D03*
%TD*%
D19*
%TO.C,D39*%
X200796290Y-108096937D03*
X203952106Y-107132111D03*
%TD*%
D29*
%TO.C,PWR1*%
X138526928Y-89774998D03*
X141124997Y-91274991D03*
%TD*%
D20*
%TO.C,D27*%
X272220456Y-96150798D03*
X275448352Y-95464700D03*
%TD*%
D21*
%TO.C,D15*%
X138235974Y-100249181D03*
X141391768Y-101213999D03*
%TD*%
%TO.C,D17*%
X148938090Y-123389298D03*
X152093884Y-124354116D03*
%TD*%
%TO.C,D8*%
X101043666Y-105609426D03*
X104199460Y-106574244D03*
%TD*%
%TO.C,D11*%
X118762693Y-105798218D03*
X121918487Y-106763036D03*
%TD*%
D19*
%TO.C,D32*%
X235942017Y-106763039D03*
X239097833Y-105798213D03*
%TD*%
D22*
%TO.C,D1*%
X58714652Y-125187219D03*
X61942570Y-125873331D03*
%TD*%
D21*
%TO.C,D18*%
X153908407Y-107132118D03*
X157064201Y-108096936D03*
%TD*%
D30*
%TO.C,D20*%
X138416791Y-157738879D03*
X141476501Y-158975077D03*
%TD*%
D20*
%TO.C,D24*%
X288848963Y-92616310D03*
X292076859Y-91930212D03*
%TD*%
D28*
%TO.C,MCU1*%
X186524991Y-107835002D03*
X186524986Y-110374998D03*
X186524994Y-112915006D03*
X186524998Y-115455002D03*
X186525000Y-117995010D03*
X186524999Y-120534998D03*
X186524987Y-123075007D03*
X186524993Y-125615004D03*
X186524988Y-128155002D03*
X186524994Y-130695012D03*
X186524993Y-133234994D03*
X186524994Y-135775006D03*
X171284993Y-135775002D03*
X171284995Y-133235000D03*
X171285000Y-130695004D03*
X171284992Y-128154996D03*
X171284988Y-125615000D03*
X171284986Y-123074992D03*
X171284987Y-120535004D03*
X171284999Y-117994995D03*
X171284993Y-115454998D03*
X171284998Y-112915000D03*
X171284992Y-110374990D03*
X171284993Y-107835008D03*
%TD*%
D10*
%TO.C,CPG1316*%
X77912084Y-117357488D03*
D13*
X77912084Y-117357488D03*
D10*
X80846524Y-117981226D03*
D13*
X80846524Y-117981226D03*
%TD*%
D10*
%TO.C,CPG1316*%
X242619972Y-128092594D03*
D11*
X242619972Y-128092594D03*
D10*
X245488883Y-127215476D03*
D11*
X245488883Y-127215476D03*
%TD*%
M02*
