%TF.GenerationSoftware,KiCad,Pcbnew,8.0.6*%
%TF.CreationDate,2025-05-26T13:53:34+02:00*%
%TF.ProjectId,main-rounded,6d61696e-2d72-46f7-956e-6465642e6b69,v1.0.0*%
%TF.SameCoordinates,Original*%
%TF.FileFunction,Copper,L2,Bot*%
%TF.FilePolarity,Positive*%
%FSLAX46Y46*%
G04 Gerber Fmt 4.6, Leading zero omitted, Abs format (unit mm)*
G04 Created by KiCad (PCBNEW 8.0.6) date 2025-05-26 13:53:34*
%MOMM*%
%LPD*%
G01*
G04 APERTURE LIST*
G04 Aperture macros list*
%AMRoundRect*
0 Rectangle with rounded corners*
0 $1 Rounding radius*
0 $2 $3 $4 $5 $6 $7 $8 $9 X,Y pos of 4 corners*
0 Add a 4 corners polygon primitive as box body*
4,1,4,$2,$3,$4,$5,$6,$7,$8,$9,$2,$3,0*
0 Add four circle primitives for the rounded corners*
1,1,$1+$1,$2,$3*
1,1,$1+$1,$4,$5*
1,1,$1+$1,$6,$7*
1,1,$1+$1,$8,$9*
0 Add four rect primitives between the rounded corners*
20,1,$1+$1,$2,$3,$4,$5,0*
20,1,$1+$1,$4,$5,$6,$7,0*
20,1,$1+$1,$6,$7,$8,$9,0*
20,1,$1+$1,$8,$9,$2,$3,0*%
%AMRotRect*
0 Rectangle, with rotation*
0 The origin of the aperture is its center*
0 $1 length*
0 $2 width*
0 $3 Rotation angle, in degrees counterclockwise*
0 Add horizontal line*
21,1,$1,$2,0,0,$3*%
G04 Aperture macros list end*
%TA.AperFunction,Conductor*%
%ADD10C,0.200000*%
%TD*%
%TA.AperFunction,ComponentPad*%
%ADD11RotRect,1.778000X1.778000X343.000000*%
%TD*%
%TA.AperFunction,SMDPad,CuDef*%
%ADD12RotRect,0.900000X1.200000X343.000000*%
%TD*%
%TA.AperFunction,ComponentPad*%
%ADD13C,1.905000*%
%TD*%
%TA.AperFunction,SMDPad,CuDef*%
%ADD14RotRect,2.600000X2.600000X17.000000*%
%TD*%
%TA.AperFunction,ComponentPad*%
%ADD15RotRect,1.778000X1.778000X17.000000*%
%TD*%
%TA.AperFunction,SMDPad,CuDef*%
%ADD16RotRect,0.900000X1.200000X17.000000*%
%TD*%
%TA.AperFunction,SMDPad,CuDef*%
%ADD17RotRect,2.600000X2.600000X323.000000*%
%TD*%
%TA.AperFunction,SMDPad,CuDef*%
%ADD18RotRect,2.600000X2.600000X12.000000*%
%TD*%
%TA.AperFunction,SMDPad,CuDef*%
%ADD19RotRect,2.600000X2.600000X348.000000*%
%TD*%
%TA.AperFunction,ComponentPad*%
%ADD20RotRect,1.778000X1.778000X348.000000*%
%TD*%
%TA.AperFunction,SMDPad,CuDef*%
%ADD21RotRect,0.900000X1.200000X348.000000*%
%TD*%
%TA.AperFunction,ComponentPad*%
%ADD22C,3.800000*%
%TD*%
%TA.AperFunction,SMDPad,CuDef*%
%ADD23RotRect,2.600000X2.600000X343.000000*%
%TD*%
%TA.AperFunction,ComponentPad*%
%ADD24RotRect,1.778000X1.778000X12.000000*%
%TD*%
%TA.AperFunction,SMDPad,CuDef*%
%ADD25RotRect,0.900000X1.200000X12.000000*%
%TD*%
%TA.AperFunction,SMDPad,CuDef*%
%ADD26RotRect,2.600000X2.600000X22.000000*%
%TD*%
%TA.AperFunction,SMDPad,CuDef*%
%ADD27RotRect,2.600000X2.600000X37.000000*%
%TD*%
%TA.AperFunction,SMDPad,CuDef*%
%ADD28RotRect,2.600000X2.600000X338.000000*%
%TD*%
%TA.AperFunction,ComponentPad*%
%ADD29RotRect,1.778000X1.778000X323.000000*%
%TD*%
%TA.AperFunction,SMDPad,CuDef*%
%ADD30RotRect,0.900000X1.200000X323.000000*%
%TD*%
%TA.AperFunction,ComponentPad*%
%ADD31RoundRect,0.240000X-0.360000X-0.635000X0.360000X-0.635000X0.360000X0.635000X-0.360000X0.635000X0*%
%TD*%
%TA.AperFunction,ComponentPad*%
%ADD32O,1.200000X1.750000*%
%TD*%
%TA.AperFunction,ComponentPad*%
%ADD33RotRect,1.778000X1.778000X37.000000*%
%TD*%
%TA.AperFunction,SMDPad,CuDef*%
%ADD34RotRect,0.900000X1.200000X37.000000*%
%TD*%
%TA.AperFunction,ComponentPad*%
%ADD35R,1.498000X1.498000*%
%TD*%
%TA.AperFunction,ComponentPad*%
%ADD36C,1.498000*%
%TD*%
%TA.AperFunction,ComponentPad*%
%ADD37RotRect,1.778000X1.778000X22.000000*%
%TD*%
%TA.AperFunction,SMDPad,CuDef*%
%ADD38RotRect,0.900000X1.200000X22.000000*%
%TD*%
%TA.AperFunction,ComponentPad*%
%ADD39RotRect,1.778000X1.778000X338.000000*%
%TD*%
%TA.AperFunction,SMDPad,CuDef*%
%ADD40RotRect,0.900000X1.200000X338.000000*%
%TD*%
%TA.AperFunction,ComponentPad*%
%ADD41C,1.700000*%
%TD*%
%TA.AperFunction,ViaPad*%
%ADD42C,0.600000*%
%TD*%
G04 APERTURE END LIST*
D10*
%TO.N,P4*%
X241000000Y-85000000D02*
X240000000Y-86000000D01*
X244000000Y-84000000D02*
X241000000Y-85000000D01*
X238500000Y-88500000D02*
X237000000Y-90000000D01*
%TD*%
D11*
%TO.P,D14,1*%
%TO.N,P20*%
X136978943Y-124283215D03*
D12*
X139044561Y-124914738D03*
%TO.P,D14,2*%
%TO.N,index_home*%
X142200367Y-125879564D03*
D13*
X144265985Y-126511087D03*
%TD*%
D11*
%TO.P,D18,1*%
%TO.N,P21*%
X159826681Y-114537402D03*
D12*
X161892299Y-115168925D03*
%TO.P,D18,2*%
%TO.N,inner_top*%
X165048105Y-116133751D03*
D13*
X167113723Y-116765274D03*
%TD*%
D14*
%TO.P,S40,1*%
%TO.N,P7*%
X241102742Y-155304809D03*
%TO.P,S40,2*%
%TO.N,mirror_near_thumb*%
X252791280Y-154031786D03*
%TD*%
D15*
%TO.P,D32,1*%
%TO.N,P0*%
X252338500Y-115218197D03*
D16*
X254404118Y-114586674D03*
%TO.P,D32,2*%
%TO.N,mirror_middle_home*%
X257559924Y-113621848D03*
D13*
X259625542Y-112990325D03*
%TD*%
D15*
%TO.P,D31,1*%
%TO.N,P2*%
X257601191Y-132431682D03*
D16*
X259666809Y-131800159D03*
%TO.P,D31,2*%
%TO.N,mirror_middle_bottom*%
X262822615Y-130835333D03*
D13*
X264888233Y-130203810D03*
%TD*%
D11*
%TO.P,D11,1*%
%TO.N,P20*%
X120563383Y-112990325D03*
D12*
X122629001Y-113621848D03*
%TO.P,D11,2*%
%TO.N,middle_home*%
X125784807Y-114586674D03*
D13*
X127850425Y-115218197D03*
%TD*%
D17*
%TO.P,S21,1*%
%TO.N,P9*%
X176425685Y-172031532D03*
%TO.P,S21,2*%
%TO.N,far_thumb*%
X184325932Y-180739493D03*
%TD*%
D14*
%TO.P,S36,1*%
%TO.N,P8*%
X227970402Y-98669646D03*
%TO.P,S36,2*%
%TO.N,mirror_index_top*%
X239658940Y-97396623D03*
%TD*%
D18*
%TO.P,S24,1*%
%TO.N,P4*%
X308496349Y-87818896D03*
%TO.P,S24,2*%
%TO.N,mirror_outer_top*%
X320251360Y-87569440D03*
%TD*%
D19*
%TO.P,S1,1*%
%TO.N,P4*%
X57800889Y-121670387D03*
%TO.P,S1,2*%
%TO.N,outer_bottom*%
X68641088Y-126223692D03*
%TD*%
D15*
%TO.P,D34,1*%
%TO.N,P2*%
X241185631Y-143724573D03*
D16*
X243251249Y-143093050D03*
%TO.P,D34,2*%
%TO.N,mirror_index_bottom*%
X246407055Y-142128224D03*
D13*
X248472673Y-141496701D03*
%TD*%
D20*
%TO.P,D6,1*%
%TO.N,P21*%
X81070573Y-101006878D03*
D21*
X83183371Y-101455969D03*
%TO.P,D6,2*%
%TO.N,pinky_top*%
X86411259Y-102142077D03*
D13*
X88524057Y-102591168D03*
%TD*%
D19*
%TO.P,S2,1*%
%TO.N,P4*%
X61543299Y-104063731D03*
%TO.P,S2,2*%
%TO.N,outer_home*%
X72383498Y-108617036D03*
%TD*%
D22*
%TO.P,H3,*%
%TO.N,*%
X67861043Y-136843582D03*
%TD*%
D23*
%TO.P,S16,1*%
%TO.N,P9*%
X153014393Y-138649254D03*
%TO.P,S16,2*%
%TO.N,inner_bottom*%
X163416495Y-144130018D03*
%TD*%
%TO.P,S10,1*%
%TO.N,P7*%
X119013786Y-119888691D03*
%TO.P,S10,2*%
%TO.N,middle_bottom*%
X129415888Y-125369455D03*
%TD*%
D15*
%TO.P,D35,1*%
%TO.N,P0*%
X235922940Y-126511087D03*
D16*
X237988558Y-125879564D03*
%TO.P,D35,2*%
%TO.N,mirror_index_home*%
X241144364Y-124914738D03*
D13*
X243209982Y-124283215D03*
%TD*%
D11*
%TO.P,D7,1*%
%TO.N,P19*%
X95669044Y-129430271D03*
D12*
X97734662Y-130061794D03*
%TO.P,D7,2*%
%TO.N,ring_bottom*%
X100890468Y-131026620D03*
D13*
X102956086Y-131658143D03*
%TD*%
D22*
%TO.P,H9,*%
%TO.N,*%
X169921428Y-121639132D03*
%TD*%
D18*
%TO.P,S26,1*%
%TO.N,P5*%
X293653955Y-109375875D03*
%TO.P,S26,2*%
%TO.N,mirror_pinky_home*%
X305408966Y-109126419D03*
%TD*%
D23*
%TO.P,S17,1*%
%TO.N,P9*%
X158277084Y-121435769D03*
%TO.P,S17,2*%
%TO.N,inner_home*%
X168679186Y-126916533D03*
%TD*%
D24*
%TO.P,D27,1*%
%TO.N,P1*%
X291664869Y-102591168D03*
D25*
X293777667Y-102142077D03*
%TO.P,D27,2*%
%TO.N,mirror_pinky_top*%
X297005555Y-101455969D03*
D13*
X299118353Y-101006878D03*
%TD*%
D14*
%TO.P,S32,1*%
%TO.N,P7*%
X249648653Y-104590241D03*
%TO.P,S32,2*%
%TO.N,mirror_middle_home*%
X261337191Y-103317218D03*
%TD*%
D20*
%TO.P,D5,1*%
%TO.N,P20*%
X77328162Y-118613535D03*
D21*
X79440960Y-119062626D03*
%TO.P,D5,2*%
%TO.N,pinky_home*%
X82668848Y-119748734D03*
D13*
X84781646Y-120197825D03*
%TD*%
D14*
%TO.P,S35,1*%
%TO.N,P8*%
X233233092Y-115883132D03*
%TO.P,S35,2*%
%TO.N,mirror_index_home*%
X244921630Y-114610109D03*
%TD*%
D26*
%TO.P,S41,1*%
%TO.N,P8*%
X219989396Y-163188644D03*
%TO.P,S41,2*%
%TO.N,mirror_home_thumb*%
X231522504Y-160901742D03*
%TD*%
D14*
%TO.P,S34,1*%
%TO.N,P8*%
X238495783Y-133096617D03*
%TO.P,S34,2*%
%TO.N,mirror_index_bottom*%
X250184321Y-131823594D03*
%TD*%
D15*
%TO.P,D33,1*%
%TO.N,P1*%
X247075809Y-98004711D03*
D16*
X249141427Y-97373188D03*
%TO.P,D33,2*%
%TO.N,mirror_middle_top*%
X252297233Y-96408362D03*
D13*
X254362851Y-95776839D03*
%TD*%
D23*
%TO.P,S7,1*%
%TO.N,P6*%
X99382137Y-119115153D03*
%TO.P,S7,2*%
%TO.N,ring_bottom*%
X109784239Y-124595917D03*
%TD*%
D22*
%TO.P,H7,*%
%TO.N,*%
X260090871Y-95803284D03*
%TD*%
D20*
%TO.P,D3,1*%
%TO.N,P21*%
X62485768Y-97056556D03*
D21*
X64598566Y-97505647D03*
%TO.P,D3,2*%
%TO.N,outer_top*%
X67826454Y-98191755D03*
D13*
X69939252Y-98640846D03*
%TD*%
D22*
%TO.P,H2,*%
%TO.N,*%
X304843061Y-101630268D03*
%TD*%
D14*
%TO.P,S33,1*%
%TO.N,P7*%
X244385962Y-87376755D03*
%TO.P,S33,2*%
%TO.N,mirror_middle_top*%
X256074500Y-86103732D03*
%TD*%
D27*
%TO.P,S42,1*%
%TO.N,P9*%
X198532178Y-175973420D03*
%TO.P,S42,2*%
%TO.N,mirror_far_thumb*%
X209080412Y-170779455D03*
%TD*%
D24*
%TO.P,D22,1*%
%TO.N,P2*%
X317734494Y-133854159D03*
D25*
X319847292Y-133405068D03*
%TO.P,D22,2*%
%TO.N,mirror_outer_bottom*%
X323075180Y-132718960D03*
D13*
X325187978Y-132269869D03*
%TD*%
D15*
%TO.P,D40,1*%
%TO.N,P3*%
X243792589Y-165932764D03*
D16*
X245858207Y-165301241D03*
%TO.P,D40,2*%
%TO.N,mirror_near_thumb*%
X249014013Y-164336415D03*
D13*
X251079631Y-163704892D03*
%TD*%
D23*
%TO.P,S14,1*%
%TO.N,P8*%
X140692037Y-113968097D03*
%TO.P,S14,2*%
%TO.N,index_home*%
X151094139Y-119448861D03*
%TD*%
D24*
%TO.P,D25,1*%
%TO.N,P2*%
X299149690Y-137804482D03*
D25*
X301262488Y-137355391D03*
%TO.P,D25,2*%
%TO.N,mirror_pinky_bottom*%
X304490376Y-136669283D03*
D13*
X306603174Y-136220192D03*
%TD*%
D28*
%TO.P,S20,1*%
%TO.N,P8*%
X154126475Y-160734970D03*
%TO.P,S20,2*%
%TO.N,home_thumb*%
X164011314Y-167101481D03*
%TD*%
D23*
%TO.P,S12,1*%
%TO.N,P7*%
X129539167Y-85461720D03*
%TO.P,S12,2*%
%TO.N,middle_top*%
X139941269Y-90942484D03*
%TD*%
D11*
%TO.P,D15,1*%
%TO.N,P21*%
X142241634Y-107069730D03*
D12*
X144307252Y-107701253D03*
%TO.P,D15,2*%
%TO.N,index_top*%
X147463058Y-108666079D03*
D13*
X149528676Y-109297602D03*
%TD*%
D18*
%TO.P,S27,1*%
%TO.N,P5*%
X289911544Y-91769218D03*
%TO.P,S27,2*%
%TO.N,mirror_pinky_top*%
X301666555Y-91519762D03*
%TD*%
%TO.P,S25,1*%
%TO.N,P5*%
X297396365Y-126982532D03*
%TO.P,S25,2*%
%TO.N,mirror_pinky_bottom*%
X309151376Y-126733076D03*
%TD*%
D11*
%TO.P,D17,1*%
%TO.N,P20*%
X154563990Y-131750887D03*
D12*
X156629608Y-132382410D03*
%TO.P,D17,2*%
%TO.N,inner_home*%
X159785414Y-133347236D03*
D13*
X161851032Y-133978759D03*
%TD*%
D11*
%TO.P,D13,1*%
%TO.N,P19*%
X131716253Y-141496701D03*
D12*
X133781871Y-142128224D03*
%TO.P,D13,2*%
%TO.N,index_bottom*%
X136937677Y-143093050D03*
D13*
X139003295Y-143724573D03*
%TD*%
D22*
%TO.P,H5,*%
%TO.N,*%
X120098055Y-95803284D03*
%TD*%
D20*
%TO.P,D2,1*%
%TO.N,P20*%
X58743358Y-114663213D03*
D21*
X60856156Y-115112304D03*
%TO.P,D2,2*%
%TO.N,outer_home*%
X64084044Y-115798412D03*
D13*
X66196842Y-116247503D03*
%TD*%
D15*
%TO.P,D39,1*%
%TO.N,P1*%
X213075202Y-116765274D03*
D16*
X215140820Y-116133751D03*
%TO.P,D39,2*%
%TO.N,mirror_inner_top*%
X218296626Y-115168925D03*
D13*
X220362244Y-114537402D03*
%TD*%
D22*
%TO.P,H10,*%
%TO.N,*%
X210267497Y-121639132D03*
%TD*%
%TO.P,H6,*%
%TO.N,*%
X109572673Y-130230255D03*
%TD*%
D29*
%TO.P,D21,1*%
%TO.N,P18*%
X169408540Y-180454619D03*
D30*
X171133592Y-181754539D03*
%TO.P,D21,2*%
%TO.N,far_thumb*%
X173769090Y-183740529D03*
D13*
X175494142Y-185040449D03*
%TD*%
D23*
%TO.P,S15,1*%
%TO.N,P8*%
X145954727Y-96754611D03*
%TO.P,S15,2*%
%TO.N,index_top*%
X156356829Y-102235375D03*
%TD*%
D24*
%TO.P,D26,1*%
%TO.N,P0*%
X295407279Y-120197825D03*
D25*
X297520077Y-119748734D03*
%TO.P,D26,2*%
%TO.N,mirror_pinky_home*%
X300747965Y-119062626D03*
D13*
X302860763Y-118613535D03*
%TD*%
D15*
%TO.P,D38,1*%
%TO.N,P0*%
X218337893Y-133978759D03*
D16*
X220403511Y-133347236D03*
%TO.P,D38,2*%
%TO.N,mirror_inner_home*%
X223559317Y-132382410D03*
D13*
X225624935Y-131750887D03*
%TD*%
D11*
%TO.P,D19,1*%
%TO.N,P18*%
X129109294Y-163704892D03*
D12*
X131174912Y-164336415D03*
%TO.P,D19,2*%
%TO.N,near_thumb*%
X134330718Y-165301241D03*
D13*
X136396336Y-165932764D03*
%TD*%
D19*
%TO.P,S5,1*%
%TO.N,P5*%
X80128104Y-108014053D03*
%TO.P,S5,2*%
%TO.N,pinky_home*%
X90968303Y-112567358D03*
%TD*%
D14*
%TO.P,S37,1*%
%TO.N,P9*%
X220910736Y-140564289D03*
%TO.P,S37,2*%
%TO.N,mirror_inner_bottom*%
X232599274Y-139291266D03*
%TD*%
D18*
%TO.P,S23,1*%
%TO.N,P4*%
X312238759Y-105425553D03*
%TO.P,S23,2*%
%TO.N,mirror_outer_home*%
X323993770Y-105176097D03*
%TD*%
D22*
%TO.P,H11,*%
%TO.N,*%
X165145313Y-173437661D03*
%TD*%
D11*
%TO.P,D10,1*%
%TO.N,P19*%
X115300692Y-130203810D03*
D12*
X117366310Y-130835333D03*
%TO.P,D10,2*%
%TO.N,middle_bottom*%
X120522116Y-131800159D03*
D13*
X122587734Y-132431682D03*
%TD*%
D14*
%TO.P,S39,1*%
%TO.N,P9*%
X210385355Y-106137318D03*
%TO.P,S39,2*%
%TO.N,mirror_inner_top*%
X222073893Y-104864295D03*
%TD*%
D11*
%TO.P,D9,1*%
%TO.N,P21*%
X106194425Y-95003300D03*
D12*
X108260043Y-95634823D03*
%TO.P,D9,2*%
%TO.N,ring_top*%
X111415849Y-96599649D03*
D13*
X113481467Y-97231172D03*
%TD*%
D19*
%TO.P,S6,1*%
%TO.N,P5*%
X83870514Y-90407396D03*
%TO.P,S6,2*%
%TO.N,pinky_top*%
X94710713Y-94960701D03*
%TD*%
D14*
%TO.P,S38,1*%
%TO.N,P9*%
X215648045Y-123350804D03*
%TO.P,S38,2*%
%TO.N,mirror_inner_home*%
X227336583Y-122077781D03*
%TD*%
D19*
%TO.P,S4,1*%
%TO.N,P5*%
X76385693Y-125620710D03*
%TO.P,S4,2*%
%TO.N,pinky_bottom*%
X87225892Y-130174015D03*
%TD*%
D11*
%TO.P,D12,1*%
%TO.N,P21*%
X125826074Y-95776839D03*
D12*
X127891692Y-96408362D03*
%TO.P,D12,2*%
%TO.N,middle_top*%
X131047498Y-97373188D03*
D13*
X133113116Y-98004711D03*
%TD*%
D20*
%TO.P,D4,1*%
%TO.N,P19*%
X73585752Y-136220192D03*
D21*
X75698550Y-136669283D03*
%TO.P,D4,2*%
%TO.N,pinky_bottom*%
X78926438Y-137355391D03*
D13*
X81039236Y-137804482D03*
%TD*%
D23*
%TO.P,S18,1*%
%TO.N,P9*%
X163539774Y-104222283D03*
%TO.P,S18,2*%
%TO.N,inner_top*%
X173941876Y-109703047D03*
%TD*%
D11*
%TO.P,D8,1*%
%TO.N,P20*%
X100931734Y-112216786D03*
D12*
X102997352Y-112848309D03*
%TO.P,D8,2*%
%TO.N,ring_home*%
X106153158Y-113813135D03*
D13*
X108218776Y-114444658D03*
%TD*%
D23*
%TO.P,S11,1*%
%TO.N,P7*%
X124276477Y-102675206D03*
%TO.P,S11,2*%
%TO.N,middle_home*%
X134678579Y-108155970D03*
%TD*%
D22*
%TO.P,H8,*%
%TO.N,*%
X270616252Y-130230255D03*
%TD*%
%TO.P,H1,*%
%TO.N,*%
X75345864Y-101630268D03*
%TD*%
D15*
%TO.P,D30,1*%
%TO.N,P1*%
X266707458Y-97231172D03*
D16*
X268773076Y-96599649D03*
%TO.P,D30,2*%
%TO.N,mirror_ring_top*%
X271928882Y-95634823D03*
D13*
X273994500Y-95003300D03*
%TD*%
D31*
%TO.P,JST1,1*%
%TO.N,GND*%
X176000000Y-127000000D03*
D32*
%TO.P,JST1,2*%
%TO.N,Bat+*%
X178000000Y-127000000D03*
%TD*%
D33*
%TO.P,D42,1*%
%TO.N,P3*%
X204694783Y-185040449D03*
D34*
X206419835Y-183740529D03*
%TO.P,D42,2*%
%TO.N,mirror_far_thumb*%
X209055333Y-181754539D03*
D13*
X210780385Y-180454619D03*
%TD*%
D20*
%TO.P,D1,1*%
%TO.N,P19*%
X55000947Y-132269869D03*
D21*
X57113745Y-132718960D03*
%TO.P,D1,2*%
%TO.N,outer_bottom*%
X60341633Y-133405068D03*
D13*
X62454431Y-133854159D03*
%TD*%
D23*
%TO.P,S19,1*%
%TO.N,P7*%
X132822388Y-153389774D03*
%TO.P,S19,2*%
%TO.N,near_thumb*%
X143224490Y-158870538D03*
%TD*%
D15*
%TO.P,D28,1*%
%TO.N,P2*%
X277232840Y-131658143D03*
D16*
X279298458Y-131026620D03*
%TO.P,D28,2*%
%TO.N,mirror_ring_bottom*%
X282454264Y-130061794D03*
D13*
X284519882Y-129430271D03*
%TD*%
D15*
%TO.P,D37,1*%
%TO.N,P2*%
X223600584Y-151192245D03*
D16*
X225666202Y-150560722D03*
%TO.P,D37,2*%
%TO.N,mirror_inner_bottom*%
X228822008Y-149595896D03*
D13*
X230887626Y-148964373D03*
%TD*%
D35*
%TO.P,REF\u002A\u002A,1*%
%TO.N,GND*%
X175250000Y-119000000D03*
D36*
%TO.P,REF\u002A\u002A,2*%
X175250000Y-112500000D03*
%TO.P,REF\u002A\u002A,3*%
%TO.N,RST*%
X179750000Y-119000000D03*
%TO.P,REF\u002A\u002A,4*%
X179750000Y-112500000D03*
%TD*%
D22*
%TO.P,H4,*%
%TO.N,*%
X312327882Y-136843582D03*
%TD*%
D19*
%TO.P,S3,1*%
%TO.N,P4*%
X65285710Y-86457074D03*
%TO.P,S3,2*%
%TO.N,outer_top*%
X76125909Y-91010379D03*
%TD*%
D15*
%TO.P,D36,1*%
%TO.N,P1*%
X230660249Y-109297602D03*
D16*
X232725867Y-108666079D03*
%TO.P,D36,2*%
%TO.N,mirror_index_top*%
X235881673Y-107701253D03*
D13*
X237947291Y-107069730D03*
%TD*%
D24*
%TO.P,D24,1*%
%TO.N,P1*%
X310249673Y-98640846D03*
D25*
X312362471Y-98191755D03*
%TO.P,D24,2*%
%TO.N,mirror_outer_top*%
X315590359Y-97505647D03*
D13*
X317703157Y-97056556D03*
%TD*%
D15*
%TO.P,D29,1*%
%TO.N,P0*%
X271970149Y-114444658D03*
D16*
X274035767Y-113813135D03*
%TO.P,D29,2*%
%TO.N,mirror_ring_home*%
X277191573Y-112848309D03*
D13*
X279257191Y-112216786D03*
%TD*%
D22*
%TO.P,H12,*%
%TO.N,*%
X215043612Y-173437661D03*
%TD*%
D24*
%TO.P,D23,1*%
%TO.N,P0*%
X313992084Y-116247503D03*
D25*
X316104882Y-115798412D03*
%TO.P,D23,2*%
%TO.N,mirror_outer_home*%
X319332770Y-115112304D03*
D13*
X321445568Y-114663213D03*
%TD*%
D14*
%TO.P,S31,1*%
%TO.N,P7*%
X254911343Y-121803726D03*
%TO.P,S31,2*%
%TO.N,mirror_middle_bottom*%
X266599881Y-120530703D03*
%TD*%
D23*
%TO.P,S8,1*%
%TO.N,P6*%
X104644828Y-101901667D03*
%TO.P,S8,2*%
%TO.N,ring_home*%
X115046930Y-107382431D03*
%TD*%
%TO.P,S9,1*%
%TO.N,P6*%
X109907518Y-84688182D03*
%TO.P,S9,2*%
%TO.N,ring_top*%
X120309620Y-90168946D03*
%TD*%
D37*
%TO.P,D41,1*%
%TO.N,P3*%
X223595295Y-173541722D03*
D38*
X225598012Y-172732572D03*
%TO.P,D41,2*%
%TO.N,mirror_home_thumb*%
X228657718Y-171496370D03*
D13*
X230660435Y-170687220D03*
%TD*%
D14*
%TO.P,S30,1*%
%TO.N,P6*%
X264017611Y-86603217D03*
%TO.P,S30,2*%
%TO.N,mirror_ring_top*%
X275706149Y-85330194D03*
%TD*%
D23*
%TO.P,S13,1*%
%TO.N,P8*%
X135429346Y-131181582D03*
%TO.P,S13,2*%
%TO.N,index_bottom*%
X145831448Y-136662346D03*
%TD*%
D18*
%TO.P,S22,1*%
%TO.N,P4*%
X315981170Y-123032209D03*
%TO.P,S22,2*%
%TO.N,mirror_outer_bottom*%
X327736181Y-122782753D03*
%TD*%
D11*
%TO.P,D16,1*%
%TO.N,P19*%
X149301300Y-148964373D03*
D12*
X151366918Y-149595896D03*
%TO.P,D16,2*%
%TO.N,inner_bottom*%
X154522724Y-150560722D03*
D13*
X156588342Y-151192245D03*
%TD*%
D39*
%TO.P,D20,1*%
%TO.N,P18*%
X149528490Y-170687220D03*
D40*
X151531207Y-171496370D03*
%TO.P,D20,2*%
%TO.N,home_thumb*%
X154590913Y-172732572D03*
D13*
X156593630Y-173541722D03*
%TD*%
D14*
%TO.P,S28,1*%
%TO.N,P6*%
X274542992Y-121030188D03*
%TO.P,S28,2*%
%TO.N,mirror_ring_bottom*%
X286231530Y-119757165D03*
%TD*%
%TO.P,S29,1*%
%TO.N,P6*%
X269280302Y-103816702D03*
%TO.P,S29,2*%
%TO.N,mirror_ring_home*%
X280968840Y-102543679D03*
%TD*%
D41*
%TO.P,MCU1,1*%
%TO.N,P1*%
X197740000Y-107460000D03*
%TO.P,MCU1,2*%
%TO.N,P0*%
X197740000Y-110000000D03*
%TO.P,MCU1,3*%
%TO.N,GND*%
X197740000Y-112540000D03*
%TO.P,MCU1,4*%
X197740000Y-115080000D03*
%TO.P,MCU1,5*%
%TO.N,P2*%
X197740000Y-117620000D03*
%TO.P,MCU1,6*%
%TO.N,P3*%
X197740000Y-120160000D03*
%TO.P,MCU1,7*%
%TO.N,P4*%
X197740000Y-122700000D03*
%TO.P,MCU1,8*%
%TO.N,P5*%
X197740000Y-125240000D03*
%TO.P,MCU1,9*%
%TO.N,P6*%
X197740000Y-127780000D03*
%TO.P,MCU1,10*%
%TO.N,P7*%
X197740000Y-130320000D03*
%TO.P,MCU1,11*%
%TO.N,P8*%
X197740000Y-132860000D03*
%TO.P,MCU1,12*%
%TO.N,P9*%
X197740000Y-135400000D03*
%TO.P,MCU1,13*%
%TO.N,P10*%
X182500000Y-135400000D03*
%TO.P,MCU1,14*%
%TO.N,P16*%
X182500000Y-132860000D03*
%TO.P,MCU1,15*%
%TO.N,P14*%
X182500000Y-130320000D03*
%TO.P,MCU1,16*%
%TO.N,P15*%
X182500000Y-127780000D03*
%TO.P,MCU1,17*%
%TO.N,P18*%
X182500000Y-125240000D03*
%TO.P,MCU1,18*%
%TO.N,P19*%
X182500000Y-122700000D03*
%TO.P,MCU1,19*%
%TO.N,P20*%
X182500000Y-120160000D03*
%TO.P,MCU1,20*%
%TO.N,P21*%
X182500000Y-117620000D03*
%TO.P,MCU1,21*%
%TO.N,VCC*%
X182500000Y-115080000D03*
%TO.P,MCU1,22*%
%TO.N,RST*%
X182500000Y-112540000D03*
%TO.P,MCU1,23*%
%TO.N,GND*%
X182500000Y-110000000D03*
%TO.P,MCU1,24*%
%TO.N,RAW*%
X182500000Y-107460000D03*
%TD*%
D42*
%TO.N,P4*%
X171000000Y-117000000D03*
X74000000Y-96500000D03*
X204000000Y-134500000D03*
%TO.N,P5*%
X203000000Y-134500000D03*
X93500000Y-99000000D03*
X171500000Y-116000000D03*
%TO.N,P6*%
X202000000Y-134500000D03*
X172000000Y-115000000D03*
X118500000Y-91500000D03*
%TO.N,P7*%
X172500000Y-114000000D03*
X138000000Y-95500000D03*
X201000000Y-134500000D03*
%TO.N,P8*%
X173000000Y-113000000D03*
X200000000Y-134500000D03*
X154000000Y-103900000D03*
%TO.N,RAW*%
X155500000Y-97000000D03*
%TO.N,GND*%
X177522956Y-121500000D03*
X180500000Y-115750000D03*
%TO.N,Bat+*%
X155500000Y-98000000D03*
%TD*%
D10*
%TO.N,GND*%
X181000000Y-113292850D02*
X181000000Y-113292871D01*
%TO.N,P9*%
X177495963Y-120504027D02*
G75*
G03*
X177495596Y-120504394I33537J-33873D01*
G01*
X177442208Y-120557782D02*
G75*
G03*
X177441963Y-120558026I29792J-30118D01*
G01*
X177477012Y-120522949D02*
X177478006Y-120521983D01*
X177354866Y-120645142D02*
G75*
G03*
X177354377Y-120645630I119034J-119758D01*
G01*
X177352178Y-120647827D02*
G75*
G03*
X177351689Y-120648316I59522J-60073D01*
G01*
X177424126Y-120575859D02*
X177424373Y-120575619D01*
X177186971Y-120813102D02*
G75*
G03*
X177186761Y-120813312I10929J-11098D01*
G01*
X177493520Y-120506469D02*
G75*
G03*
X177493275Y-120506714I14880J-15131D01*
G01*
X177164465Y-120835622D02*
G75*
G03*
X177164046Y-120836043I44035J-44178D01*
G01*
X177499875Y-120500120D02*
G75*
G03*
X177499631Y-120500363I29425J-29780D01*
G01*
X177494742Y-120505247D02*
G75*
G03*
X177494497Y-120505491I29758J-30153D01*
G01*
X177496079Y-120503899D02*
X177496575Y-120503417D01*
X177111221Y-120888902D02*
G75*
G03*
X177110538Y-120889587I116779J-117098D01*
G01*
X177168059Y-120832026D02*
G75*
G03*
X177167640Y-120832445I43641J-44074D01*
G01*
X177355354Y-120644653D02*
G75*
G03*
X177354866Y-120645142I119346J-119547D01*
G01*
X177498742Y-120501250D02*
G75*
G03*
X177498561Y-120501433I8258J-8350D01*
G01*
X177159798Y-120840292D02*
G75*
G03*
X177159625Y-120840465I7402J-7608D01*
G01*
X177499203Y-120500789D02*
G75*
G03*
X177499079Y-120500912I7497J-7711D01*
G01*
X177495380Y-120504608D02*
X177495444Y-120504546D01*
X177490863Y-120509127D02*
X177490924Y-120509066D01*
X177014546Y-120985643D02*
G75*
G03*
X177014047Y-120986142I61954J-62457D01*
G01*
X177161377Y-120838713D02*
G75*
G03*
X177161036Y-120839054I28923J-29287D01*
G01*
X177386871Y-120613127D02*
G75*
G03*
X177386382Y-120613616I59529J-60073D01*
G01*
X177463464Y-120536525D02*
G75*
G03*
X177463219Y-120536769I29736J-30175D01*
G01*
X177493764Y-120506224D02*
G75*
G03*
X177493520Y-120506469I29936J-29976D01*
G01*
X177301225Y-120698800D02*
X177300352Y-120699673D01*
X177490221Y-120509768D02*
X177488878Y-120511111D01*
X177157947Y-120842145D02*
X177155767Y-120844327D01*
X177327260Y-120672755D02*
X177325794Y-120674220D01*
X177357644Y-120642361D02*
X177356605Y-120643400D01*
X177433780Y-120566211D02*
X177433291Y-120566700D01*
X177231014Y-120769039D02*
X177229695Y-120770358D01*
X177229695Y-120770358D02*
X177228376Y-120771677D01*
X177476049Y-120523940D02*
X177475071Y-120524918D01*
X177209550Y-120790513D02*
X177207595Y-120792468D01*
X177391511Y-120608484D02*
X177389557Y-120610439D01*
X177238201Y-120761848D02*
X177234607Y-120765444D01*
X176980813Y-121019402D02*
X176978020Y-121022197D01*
X177159970Y-120840119D02*
X177159798Y-120840292D01*
X177141077Y-120859025D02*
X177138179Y-120861923D01*
X177483747Y-120516243D02*
X177482526Y-120517464D01*
X177423152Y-120576840D02*
X177422908Y-120577084D01*
X177162713Y-120837376D02*
X177161710Y-120838379D01*
X177389557Y-120610439D02*
X177387603Y-120612394D01*
X177241794Y-120758254D02*
X177238679Y-120761371D01*
X177374412Y-120625590D02*
X177371968Y-120628034D01*
X177025257Y-120974923D02*
X177024258Y-120975922D01*
X177038969Y-120961201D02*
X177036874Y-120963298D01*
X177164884Y-120835201D02*
X177164465Y-120835622D01*
X177176085Y-120823996D02*
X177172071Y-120828011D01*
X177335323Y-120664689D02*
X177330436Y-120669578D01*
X177272616Y-120727419D02*
X177263675Y-120736364D01*
X177120378Y-120879736D02*
X177118776Y-120881341D01*
X177322618Y-120677398D02*
X177314801Y-120685219D01*
X177252159Y-120747883D02*
X177248363Y-120751680D01*
X177498561Y-120501433D02*
X177498378Y-120501614D01*
X177349247Y-120650760D02*
X177347781Y-120652226D01*
X177137492Y-120862611D02*
X177133219Y-120866886D01*
X177415945Y-120584047D02*
X177412036Y-120587957D01*
X177460898Y-120539091D02*
X177458332Y-120541658D01*
X177479960Y-120520029D02*
X177478983Y-120521006D01*
X177422419Y-120577573D02*
X177421198Y-120578794D01*
X177423396Y-120576596D02*
X177423152Y-120576840D01*
X177211503Y-120788558D02*
X177209550Y-120790513D01*
X176959929Y-121040300D02*
X176954538Y-121045695D01*
X177354377Y-120645630D02*
X177353888Y-120646118D01*
X177096239Y-120903893D02*
X177088460Y-120911678D01*
X177343140Y-120656868D02*
X177342165Y-120657843D01*
X177439888Y-120560102D02*
X177437567Y-120562423D01*
X177069121Y-120931029D02*
X177060548Y-120939609D01*
X177430848Y-120569143D02*
X177430359Y-120569632D01*
X177436957Y-120563033D02*
X177435002Y-120564988D01*
X177221353Y-120778704D02*
X177219347Y-120780711D01*
X177020872Y-120979310D02*
X177016488Y-120983698D01*
X177027254Y-120972925D02*
X177026256Y-120973924D01*
X176983606Y-121016607D02*
X176980813Y-121019402D01*
X177050378Y-120949785D02*
X177044997Y-120955170D01*
X177426938Y-120573054D02*
X177425473Y-120574519D01*
X177233379Y-120766673D02*
X177232242Y-120767811D01*
X177011107Y-120989083D02*
X177005726Y-120994469D01*
X177186029Y-120814050D02*
X177185609Y-120814470D01*
X177227808Y-120772246D02*
X177225353Y-120774703D01*
X177219347Y-120780711D02*
X177217341Y-120782718D01*
X177146452Y-120853646D02*
X177144393Y-120855706D01*
X177441567Y-120558423D02*
X177440530Y-120559460D01*
X177362074Y-120637931D02*
X177360485Y-120639520D01*
X177030792Y-120969384D02*
X177028101Y-120972078D01*
X177302098Y-120697927D02*
X177301225Y-120698800D01*
X177170964Y-120829119D02*
X177169166Y-120830917D01*
X177478983Y-120521006D02*
X177478006Y-120521983D01*
X177116372Y-120883748D02*
X177113166Y-120886956D01*
X177490984Y-120509005D02*
X177490924Y-120509066D01*
X177043403Y-120956766D02*
X177041210Y-120958960D01*
X177205431Y-120794632D02*
X177203897Y-120796167D01*
X177497767Y-120502226D02*
X177497462Y-120502531D01*
X177379298Y-120620700D02*
X177376855Y-120623145D01*
X177434269Y-120565722D02*
X177433780Y-120566211D01*
X177430359Y-120569632D02*
X177429870Y-120570121D01*
X177103218Y-120896911D02*
X177097041Y-120903092D01*
X177060548Y-120939609D02*
X177051975Y-120948188D01*
X177302971Y-120697053D02*
X177302098Y-120697927D01*
X177127465Y-120872643D02*
X177126480Y-120873629D01*
X177340210Y-120659800D02*
X177335323Y-120664689D01*
X177477026Y-120522963D02*
X177476049Y-120523940D01*
X177353522Y-120646485D02*
X177353277Y-120646728D01*
X177149313Y-120850785D02*
X177148092Y-120852006D01*
X177350712Y-120649293D02*
X177349247Y-120650760D01*
X177486189Y-120513800D02*
X177484968Y-120515022D01*
X177164046Y-120836043D02*
X177163626Y-120836463D01*
X177148092Y-120852006D02*
X177146871Y-120853227D01*
X177088460Y-120911678D02*
X177080681Y-120919463D01*
X177475071Y-120524918D02*
X177474094Y-120525895D01*
X177036874Y-120963298D02*
X177034779Y-120965394D01*
X177180098Y-120819981D02*
X177176085Y-120823996D01*
X177492787Y-120507203D02*
X177491565Y-120508425D01*
X177126480Y-120873629D02*
X177125495Y-120874614D01*
X177365127Y-120634877D02*
X177362562Y-120637443D01*
X177111905Y-120888217D02*
X177111221Y-120888902D01*
X177462761Y-120537227D02*
X177461601Y-120538388D01*
X177353766Y-120646241D02*
X177353522Y-120646485D01*
X177352667Y-120647338D02*
X177352178Y-120647827D01*
X177484968Y-120515022D02*
X177483747Y-120516243D01*
X177108593Y-120891533D02*
X177104020Y-120896110D01*
X177232242Y-120767811D02*
X177231105Y-120768948D01*
X177404220Y-120595775D02*
X177400311Y-120599684D01*
X177367692Y-120632310D02*
X177365127Y-120634877D01*
X177360485Y-120639520D02*
X177358896Y-120641109D01*
X177328725Y-120671290D02*
X177327260Y-120672755D01*
X177143974Y-120856126D02*
X177141077Y-120859025D01*
X177248024Y-120752020D02*
X177244909Y-120755137D01*
X177474094Y-120525895D02*
X177473117Y-120526872D01*
X177376855Y-120623145D02*
X177374412Y-120625590D01*
X177161036Y-120839054D02*
X177160707Y-120839383D01*
X177152780Y-120847316D02*
X177150875Y-120849221D01*
X177150533Y-120849563D02*
X177149313Y-120850785D01*
X176978020Y-121022197D02*
X176975227Y-121024992D01*
X177041210Y-120958960D02*
X177039018Y-120961153D01*
X177188125Y-120811946D02*
X177187286Y-120812787D01*
X177412036Y-120587957D02*
X177408128Y-120591866D01*
X177263675Y-120736364D02*
X177254733Y-120745309D01*
X177159374Y-120840716D02*
X177158699Y-120841391D01*
X177014047Y-120986142D02*
X177013548Y-120986640D01*
X177244909Y-120755137D02*
X177241794Y-120758254D01*
X177356331Y-120643675D02*
X177355843Y-120644164D01*
X177429138Y-120570854D02*
X177427184Y-120572808D01*
X177023911Y-120976270D02*
X177022218Y-120977964D01*
X177118776Y-120881341D02*
X177117173Y-120882946D01*
X177167640Y-120832445D02*
X177167221Y-120832864D01*
X177494497Y-120505491D02*
X177494252Y-120505736D01*
X177026256Y-120973924D02*
X177025257Y-120974923D01*
X177168477Y-120831607D02*
X177168059Y-120832026D01*
X177386382Y-120613616D02*
X177385893Y-120614104D01*
X177408128Y-120591866D02*
X177404220Y-120595775D01*
X177393466Y-120606529D02*
X177391511Y-120608484D01*
X177424129Y-120575863D02*
X177423885Y-120576107D01*
X177344115Y-120655892D02*
X177343140Y-120656868D01*
X177384672Y-120615326D02*
X177381740Y-120618259D01*
X177355843Y-120644164D02*
X177355354Y-120644653D01*
%TO.N,P4*%
X197059593Y-141962253D02*
G75*
G02*
X197060172Y-141962260I-693J-84847D01*
G01*
X197096657Y-141962716D02*
G75*
G02*
X197096901Y-141962719I-57J-14884D01*
G01*
X196776073Y-141958651D02*
G75*
G02*
X196777050Y-141958664I-2773J-241949D01*
G01*
X197078110Y-141962484D02*
X197077623Y-141962478D01*
X197050348Y-141962136D02*
G75*
G02*
X197050715Y-141962141I-248J-34164D01*
G01*
X196808320Y-141959059D02*
X196807649Y-141959051D01*
X196545999Y-141955706D02*
X196545814Y-141955548D01*
X196545060Y-141955694D02*
G75*
G02*
X196545305Y-141955697I-60J-15206D01*
G01*
X197077257Y-141962474D02*
G75*
G02*
X197077501Y-141962477I-57J-14926D01*
G01*
X196802096Y-141958980D02*
X196801920Y-141958830D01*
X197125581Y-141963079D02*
X197123994Y-141963059D01*
X196914828Y-141960417D02*
G75*
G02*
X196915072Y-141960419I-28J-14883D01*
G01*
X196823909Y-141959258D02*
G75*
G02*
X196824886Y-141959271I-2709J-241942D01*
G01*
X197101177Y-141962775D02*
G75*
G02*
X197102153Y-141962786I-2177J-238225D01*
G01*
X196925506Y-141960553D02*
X196925139Y-141960549D01*
X197065480Y-141962327D02*
X197065357Y-141962325D01*
X196955220Y-141960931D02*
G75*
G02*
X196956197Y-141960944I-2720J-241869D01*
G01*
X197147940Y-141963359D02*
X197147281Y-141963351D01*
X197090802Y-141962644D02*
G75*
G02*
X197091046Y-141962648I-102J-14856D01*
G01*
X196802400Y-141958984D02*
G75*
G02*
X196802703Y-141958987I-100J-23216D01*
G01*
X196763627Y-141958491D02*
G75*
G02*
X196764115Y-141958498I-627J-61309D01*
G01*
X197082746Y-141962543D02*
G75*
G02*
X197082867Y-141962544I30J-3576D01*
G01*
X197026185Y-141961832D02*
X197026192Y-141961832D01*
X197082746Y-141962543D02*
X197082625Y-141962541D01*
X196479588Y-141954855D02*
X196479465Y-141954853D01*
X196939050Y-141960726D02*
G75*
G02*
X196939173Y-141960727I30J-3576D01*
G01*
X196923432Y-141960528D02*
G75*
G02*
X196923554Y-141960529I30J-3874D01*
G01*
X196540176Y-141955629D02*
G75*
G02*
X196540420Y-141955632I-76J-14871D01*
G01*
X196693699Y-141957596D02*
X196693452Y-141957592D01*
X196799686Y-141958950D02*
X196799693Y-141958950D01*
X196531514Y-141955519D02*
X196531269Y-141955515D01*
X197093484Y-141962677D02*
G75*
G02*
X197093729Y-141962680I-84J-15223D01*
G01*
X197080420Y-141962513D02*
X197080444Y-141962514D01*
X197026162Y-141961831D02*
X197026185Y-141961832D01*
X196799686Y-141958950D02*
X196799664Y-141958948D01*
X196799663Y-141958948D01*
X196744345Y-141958246D02*
G75*
G02*
X196745321Y-141958259I-2645J-238154D01*
G01*
X196809336Y-141959073D02*
G75*
G02*
X196810144Y-141959084I-1836J-163227D01*
G01*
X196546319Y-141955710D02*
G75*
G02*
X196546638Y-141955713I-119J-25690D01*
G01*
X197070299Y-141962386D02*
G75*
G02*
X197070540Y-141962390I-99J-14714D01*
G01*
X197099346Y-141962752D02*
G75*
G02*
X197099590Y-141962755I-46J-14848D01*
G01*
X196531514Y-141955519D02*
G75*
G02*
X196531758Y-141955521I-14J-14881D01*
G01*
X197084618Y-141962568D02*
X197084693Y-141962568D01*
X197069323Y-141962374D02*
G75*
G02*
X197069567Y-141962376I-23J-14926D01*
G01*
X196939050Y-141960726D02*
X196938927Y-141960724D01*
X196923432Y-141960528D02*
X196923309Y-141960526D01*
X197097636Y-141962730D02*
X197097391Y-141962726D01*
X196526205Y-141955451D02*
G75*
G02*
X196526449Y-141955455I-105J-14849D01*
G01*
X197054619Y-141962190D02*
G75*
G02*
X197054744Y-141962191I31J-3576D01*
G01*
X197070781Y-141962391D02*
X197070540Y-141962389D01*
X197065480Y-141962327D02*
G75*
G02*
X197065602Y-141962328I30J-3576D01*
G01*
X197081489Y-141962526D02*
G75*
G02*
X197081687Y-141962530I-89J-9774D01*
G01*
X197108987Y-141962871D02*
X197108439Y-141962404D01*
X196808725Y-141959065D02*
X196808586Y-141959063D01*
X196541153Y-141955643D02*
X196540908Y-141955639D01*
X197054619Y-141962190D02*
X197054494Y-141962188D01*
X197092998Y-141962673D02*
X197093241Y-141962675D01*
X196951315Y-141960882D02*
X196952291Y-141960895D01*
X196733117Y-141958101D02*
X196734093Y-141958114D01*
X197013151Y-141961667D02*
X197018352Y-141961733D01*
X196732140Y-141958088D02*
X196733117Y-141958101D01*
X197110877Y-141962894D02*
X197111090Y-141962897D01*
X196957662Y-141960963D02*
X196959615Y-141960988D01*
X196547287Y-141955721D02*
X196548904Y-141955742D01*
X196654587Y-141957095D02*
X196660812Y-141957174D01*
X196737998Y-141958165D02*
X196738974Y-141958177D01*
X197151914Y-141963409D02*
X197153409Y-141963427D01*
X196813657Y-141959127D02*
X196814634Y-141959140D01*
X196640614Y-141956916D02*
X196641590Y-141956929D01*
X197143064Y-141963298D02*
X197144619Y-141963318D01*
X196691441Y-141957567D02*
X196692537Y-141957580D01*
X196276586Y-141952250D02*
X196304151Y-141952603D01*
X196639637Y-141956903D02*
X196640614Y-141956916D01*
X196906101Y-141960307D02*
X196906956Y-141960318D01*
X197057999Y-141962234D02*
X197058288Y-141962237D01*
X197063099Y-141962296D02*
X197063708Y-141962303D01*
X196942288Y-141960767D02*
X196942531Y-141960770D01*
X196786324Y-141958782D02*
X196786567Y-141958785D01*
X196645251Y-141956976D02*
X196653550Y-141957082D01*
X196928862Y-141960596D02*
X196930813Y-141960621D01*
X196950583Y-141960874D02*
X196951070Y-141960879D01*
X196947898Y-141960838D02*
X196948143Y-141960841D01*
X196833306Y-141959379D02*
X196836113Y-141959415D01*
X196692839Y-141957584D02*
X196693330Y-141957590D01*
X196862106Y-141959745D02*
X196863449Y-141959762D01*
X196614498Y-141956582D02*
X196624749Y-141956714D01*
X197059012Y-141962246D02*
X197059593Y-141962253D01*
X197037199Y-141961970D02*
X197038480Y-141961985D01*
X196817565Y-141959179D02*
X196818542Y-141959191D01*
X196796413Y-141958908D02*
X196797710Y-141958925D01*
X196915927Y-141960431D02*
X196917391Y-141960450D01*
X197081862Y-141962531D02*
X197082411Y-141962538D01*
X196789008Y-141958816D02*
X196789741Y-141958825D01*
X196992320Y-141961403D02*
X197007941Y-141961601D01*
X196971574Y-141961140D02*
X196976699Y-141961205D01*
X196789985Y-141958828D02*
X196791205Y-141958843D01*
X197125581Y-141963079D02*
X197127168Y-141963099D01*
X196800326Y-141958957D02*
X196801607Y-141958974D01*
X197112952Y-141962921D02*
X197113318Y-141962924D01*
X197096901Y-141962719D02*
X197097144Y-141962722D01*
X197144619Y-141963318D02*
X197146174Y-141963336D01*
X196806978Y-141959042D02*
X196807649Y-141959051D01*
X197095313Y-141962699D02*
X197096286Y-141962711D01*
X197150823Y-141963395D02*
X197151510Y-141963404D01*
X196830743Y-141959346D02*
X196833062Y-141959376D01*
X197018352Y-141961733D02*
X197023553Y-141961798D01*
X196695166Y-141957615D02*
X196696873Y-141957636D01*
X196604584Y-141956456D02*
X196614161Y-141956578D01*
X196479161Y-141954849D02*
X196479405Y-141954852D01*
X196836113Y-141959415D02*
X196838920Y-141959450D01*
X196403283Y-141953875D02*
X196408590Y-141953943D01*
X197060172Y-141962260D02*
X197060751Y-141962267D01*
X197113784Y-141962930D02*
X197113952Y-141962933D01*
X196899816Y-141960227D02*
X196902501Y-141960262D01*
X196927215Y-141960574D02*
X196928558Y-141960592D01*
X196164427Y-141950811D02*
X196248388Y-141951888D01*
X197117284Y-141962975D02*
X197118413Y-141962989D01*
X196952291Y-141960895D02*
X196953268Y-141960906D01*
X196895850Y-141960177D02*
X196899389Y-141960222D01*
X196919648Y-141960479D02*
X196920502Y-141960490D01*
X196304151Y-141952603D02*
X196331716Y-141952956D01*
X196797710Y-141958925D02*
X196799007Y-141958940D01*
X196902501Y-141960262D02*
X196905186Y-141960296D01*
X196779978Y-141958700D02*
X196780953Y-141958713D01*
X196936671Y-141960695D02*
X196937402Y-141960704D01*
X197028778Y-141961864D02*
X197033965Y-141961928D01*
X197140522Y-141963266D02*
X197142735Y-141963294D01*
X197042532Y-141962038D02*
X197043798Y-141962053D01*
X197087720Y-141962605D02*
X197088147Y-141962610D01*
X197100201Y-141962762D02*
X197101177Y-141962775D01*
X197088698Y-141962617D02*
X197088879Y-141962620D01*
X196915072Y-141960420D02*
X196915315Y-141960423D01*
X196717986Y-141957907D02*
X196723843Y-141957983D01*
X197058433Y-141962239D02*
X197059012Y-141962246D01*
X196347398Y-141953158D02*
X196348664Y-141953175D01*
X196748249Y-141958295D02*
X196752154Y-141958344D01*
X196828669Y-141959320D02*
X196830498Y-141959343D01*
X196538796Y-141955611D02*
X196539146Y-141955616D01*
X196676554Y-141957377D02*
X196677651Y-141957391D01*
X196931117Y-141960625D02*
X196932461Y-141960642D01*
X197135128Y-141963198D02*
X197136167Y-141963211D01*
X196758256Y-141958423D02*
X196758745Y-141958429D01*
X196781319Y-141958718D02*
X196781562Y-141958721D01*
X196782417Y-141958733D02*
X196782906Y-141958739D01*
X197122866Y-141963045D02*
X197123535Y-141963053D01*
X197155606Y-141963455D02*
X197156095Y-141963462D01*
X196700168Y-141957678D02*
X196701635Y-141957696D01*
X196688512Y-141957529D02*
X196690099Y-141957550D01*
X196857134Y-141959681D02*
X196860001Y-141959718D01*
X196434524Y-141954276D02*
X196439587Y-141954340D01*
X197098858Y-141962746D02*
X197099102Y-141962749D01*
X196863449Y-141959762D02*
X196864792Y-141959779D01*
X197071030Y-141962395D02*
X197071277Y-141962399D01*
X196922333Y-141960514D02*
X196922943Y-141960521D01*
X196803056Y-141958992D02*
X196803393Y-141958997D01*
X197056861Y-141962218D02*
X197057198Y-141962223D01*
X196775096Y-141958637D02*
X196776073Y-141958651D01*
X196680703Y-141957429D02*
X196683021Y-141957459D01*
X196418965Y-141954076D02*
X196424274Y-141954144D01*
X196535303Y-141955567D02*
X196536630Y-141955584D01*
X197110117Y-141962885D02*
X197110695Y-141962892D01*
X197130128Y-141963135D02*
X197131286Y-141963150D01*
X196471594Y-141954751D02*
X196476720Y-141954818D01*
X197115210Y-141962949D02*
X197115971Y-141962958D01*
X196917817Y-141960456D02*
X196918428Y-141960464D01*
X196551497Y-141955775D02*
X196554090Y-141955808D01*
X196757767Y-141958416D02*
X196758256Y-141958423D01*
X196670879Y-141957304D02*
X196674296Y-141957348D01*
X196777050Y-141958664D02*
X196778027Y-141958676D01*
X196936123Y-141960689D02*
X196936488Y-141960693D01*
X196595007Y-141956333D02*
X196604584Y-141956456D01*
X196873212Y-141959886D02*
X196882975Y-141960012D01*
X196739462Y-141958183D02*
X196741415Y-141958207D01*
X196737022Y-141958152D02*
X196737998Y-141958165D01*
X197088879Y-141962620D02*
X197089060Y-141962622D01*
X196442875Y-141954382D02*
X196444386Y-141954401D01*
X196921722Y-141960506D02*
X196922333Y-141960514D01*
X196967669Y-141961090D02*
X196970353Y-141961125D01*
X197055856Y-141962205D02*
X197056191Y-141962210D01*
X197134089Y-141963185D02*
X197135128Y-141963198D01*
X196792486Y-141958858D02*
X196793828Y-141958876D01*
X197075975Y-141962457D02*
X197076097Y-141962458D01*
X197035918Y-141961953D02*
X197037199Y-141961970D01*
X196810144Y-141959084D02*
X196810952Y-141959093D01*
X197056191Y-141962210D02*
X197056526Y-141962214D01*
X196513054Y-141955283D02*
X196518363Y-141955351D01*
X197051509Y-141962151D02*
X197052728Y-141962166D01*
X197094338Y-141962687D02*
X197095313Y-141962699D01*
X197122196Y-141963036D02*
X197122866Y-141963045D01*
X197084731Y-141962568D02*
X197084882Y-141962569D01*
X197044431Y-141962061D02*
X197046962Y-141962092D01*
X196763138Y-141958484D02*
X196763627Y-141958491D01*
X196536630Y-141955584D02*
X196537957Y-141955601D01*
X196704074Y-141957728D02*
X196710419Y-141957810D01*
X196698701Y-141957659D02*
X196700168Y-141957678D01*
X196962360Y-141961022D02*
X196964679Y-141961051D01*
X197127168Y-141963099D02*
X197128755Y-141963118D01*
X196540420Y-141955632D02*
X196540663Y-141955635D01*
X196822932Y-141959245D02*
X196823909Y-141959258D01*
X196866226Y-141959798D02*
X196870436Y-141959851D01*
X196743369Y-141958233D02*
X196744345Y-141958246D01*
X197116155Y-141962961D02*
X197117284Y-141962975D01*
X196906956Y-141960318D02*
X196907811Y-141960328D01*
X197076158Y-141962459D02*
X197076403Y-141962462D01*
X197061881Y-141962281D02*
X197062490Y-141962289D01*
X196563730Y-141955932D02*
X196563973Y-141955935D01*
X197079237Y-141962498D02*
X197079665Y-141962503D01*
X196424396Y-141954146D02*
X196429461Y-141954211D01*
X196814634Y-141959140D02*
X196815611Y-141959153D01*
X196912387Y-141960386D02*
X196913606Y-141960401D01*
X197066761Y-141962343D02*
X197067248Y-141962349D01*
X196954243Y-141960918D02*
X196955220Y-141960931D01*
X196668866Y-141957278D02*
X196669475Y-141957286D01*
X196742148Y-141958217D02*
X196742636Y-141958224D01*
X196844778Y-141959524D02*
X196846365Y-141959545D01*
X196624749Y-141956714D02*
X196635000Y-141956845D01*
X197102153Y-141962786D02*
X197103128Y-141962797D01*
X196576515Y-141956096D02*
X196581580Y-141956161D01*
X197089458Y-141962627D02*
X197090435Y-141962639D01*
X196544815Y-141955691D02*
X196545060Y-141955694D01*
X196584235Y-141956195D02*
X196594609Y-141956328D01*
X196678934Y-141957407D02*
X196680153Y-141957422D01*
X196827541Y-141959306D02*
X196827968Y-141959311D01*
X196937889Y-141960711D02*
X196938622Y-141960720D01*
X196745565Y-141958262D02*
X196747028Y-141958280D01*
X197104226Y-141962810D02*
X197105081Y-141962821D01*
X197105081Y-141962821D02*
X197105936Y-141962832D01*
X197118726Y-141962993D02*
X197120481Y-141963015D01*
X197083037Y-141962546D02*
X197083191Y-141962549D01*
X196850117Y-141959592D02*
X196852864Y-141959627D01*
X196346131Y-141953141D02*
X196347398Y-141953158D01*
X196544329Y-141955685D02*
X196544572Y-141955688D01*
X197105936Y-141962832D02*
X197106790Y-141962843D01*
X196549147Y-141955745D02*
X196551250Y-141955772D01*
X196668256Y-141957271D02*
X196668866Y-141957278D01*
X196976699Y-141961205D02*
X196981824Y-141961269D01*
X197099590Y-141962755D02*
X197099834Y-141962758D01*
X196768873Y-141958559D02*
X196770582Y-141958581D01*
X196458413Y-141954582D02*
X196468909Y-141954717D01*
X197154515Y-141963441D02*
X197155232Y-141963450D01*
X196675455Y-141957363D02*
X196676554Y-141957377D01*
X196806368Y-141959036D02*
X196806917Y-141959042D01*
X196981886Y-141961270D02*
X196987134Y-141961337D01*
X197039808Y-141962002D02*
X197041121Y-141962019D01*
X196824886Y-141959271D02*
X196825863Y-141959284D01*
X196554090Y-141955808D02*
X196556683Y-141955841D01*
X196774242Y-141958627D02*
X196774973Y-141958636D01*
X196441363Y-141954363D02*
X196442875Y-141954382D01*
X196518363Y-141955351D02*
X196523672Y-141955419D01*
X196770582Y-141958581D02*
X196772291Y-141958602D01*
X197064319Y-141962312D02*
X197065052Y-141962321D01*
X196944483Y-141960794D02*
X196945458Y-141960807D01*
X196429461Y-141954211D02*
X196434524Y-141954276D01*
X197050715Y-141962141D02*
X197051082Y-141962146D01*
X196812593Y-141959114D02*
X196813628Y-141959127D01*
X196860763Y-141959728D02*
X196862106Y-141959745D01*
X196686925Y-141957508D02*
X196688512Y-141957529D01*
X197153798Y-141963432D02*
X197154515Y-141963441D01*
X196924772Y-141960545D02*
X196925139Y-141960549D01*
X197150136Y-141963386D02*
X197150823Y-141963395D01*
X196956197Y-141960944D02*
X196957174Y-141960957D01*
X197062490Y-141962289D02*
X197063099Y-141962296D01*
X196943201Y-141960779D02*
X196943812Y-141960786D01*
X196710419Y-141957810D02*
X196716764Y-141957892D01*
X196526449Y-141955454D02*
X196526692Y-141955457D01*
X197108040Y-141962859D02*
X197108987Y-141962871D01*
X196723843Y-141957983D02*
X196729700Y-141958058D01*
X196846365Y-141959545D02*
X196847950Y-141959566D01*
X197047602Y-141962101D02*
X197049555Y-141962126D01*
X196539146Y-141955616D02*
X196539495Y-141955620D01*
X196397975Y-141953806D02*
X196403283Y-141953875D01*
X197128969Y-141963121D02*
X197130128Y-141963135D01*
X196791205Y-141958843D02*
X196792424Y-141958858D01*
X196947106Y-141960827D02*
X196947716Y-141960836D01*
X196808725Y-141959065D02*
X196808863Y-141959066D01*
X196911167Y-141960371D02*
X196912387Y-141960386D01*
X196925933Y-141960559D02*
X196927154Y-141960574D01*
X196752154Y-141958344D02*
X196756059Y-141958394D01*
X196779003Y-141958688D02*
X196779978Y-141958700D01*
X197052728Y-141962166D02*
X197053947Y-141962181D01*
X196932523Y-141960643D02*
X196933743Y-141960658D01*
X196919099Y-141960472D02*
X196919342Y-141960475D01*
X196447674Y-141954444D02*
X196455759Y-141954548D01*
X196934048Y-141960662D02*
X196934658Y-141960669D01*
X196742636Y-141958224D02*
X196743123Y-141958230D01*
X197146622Y-141963342D02*
X197147281Y-141963351D01*
X196661605Y-141957185D02*
X196666242Y-141957245D01*
X196847950Y-141959566D02*
X196849535Y-141959585D01*
X196773511Y-141958618D02*
X196774242Y-141958627D01*
X196945458Y-141960807D02*
X196946433Y-141960819D01*
X197093729Y-141962680D02*
X197093973Y-141962683D01*
X196361180Y-141953335D02*
X196387479Y-141953672D01*
X196677714Y-141957392D02*
X196678934Y-141957407D01*
X196882975Y-141960012D02*
X196892738Y-141960137D01*
%TO.N,Bat+*%
X178520428Y-117374999D02*
G75*
G03*
X178487060Y-116126984I-10508028J343499D01*
G01*
X178058507Y-111125000D02*
G75*
G03*
X178076679Y-111374754I9241893J546900D01*
G01*
X178048982Y-110937532D02*
G75*
G03*
X178054803Y-111062395I4981018J169632D01*
G01*
X178500000Y-118112623D02*
G75*
G02*
X178503678Y-117887437I6887400J123D01*
G01*
X178503679Y-117887437D02*
G75*
G02*
X178499921Y-117887376I-1879J37D01*
G01*
X178500000Y-118112623D02*
X178500000Y-117887377D01*
%TO.N,GND*%
X181000000Y-113292882D02*
X180999996Y-113292881D01*
X180500000Y-115250000D02*
G75*
G02*
X180662285Y-114277069I2997600J0D01*
G01*
X181000000Y-113292871D02*
X181000000Y-113292882D01*
%TO.N,P9*%
X177442576Y-120557415D02*
G75*
G03*
X177442332Y-120557661I14924J-15085D01*
G01*
X177424741Y-120575252D02*
G75*
G03*
X177424496Y-120575497I14859J-15148D01*
G01*
X177160543Y-120839548D02*
G75*
G03*
X177160214Y-120839877I26857J-27252D01*
G01*
X177202292Y-120797777D02*
X177201339Y-120798754D01*
X177202292Y-120797777D02*
G75*
G03*
X177201453Y-120798618I176208J-176623D01*
G01*
X177495350Y-120504640D02*
G75*
G03*
X177495107Y-120504883I14650J-14860D01*
G01*
X177463832Y-120536158D02*
G75*
G03*
X177463587Y-120536403I14868J-15142D01*
G01*
X177431582Y-120568411D02*
G75*
G02*
X177432559Y-120567434I239118J-238189D01*
G01*
X177186658Y-120813419D02*
G75*
G03*
X177186239Y-120813840I44042J-44181D01*
G01*
X177499509Y-120500485D02*
G75*
G03*
X177499265Y-120500728I29391J-29815D01*
G01*
X176951843Y-121048393D02*
G75*
G03*
X176947550Y-121054553I15257J-15207D01*
G01*
X177481426Y-120518565D02*
G75*
G02*
X177481670Y-120518319I15174J-14835D01*
G01*
X177497310Y-120502684D02*
G75*
G03*
X177496820Y-120503173I119290J-120016D01*
G01*
X176589030Y-121826527D02*
G75*
G03*
X176500005Y-122229609I867970J-403073D01*
G01*
X177495107Y-120504883D02*
G75*
G03*
X177494863Y-120505125I14593J-14917D01*
G01*
X177481426Y-120518565D02*
G75*
G03*
X177481181Y-120518809I29774J-30135D01*
G01*
X177207595Y-120792468D02*
X177205431Y-120794632D01*
X176954538Y-121045695D02*
X176951843Y-121048393D01*
X177362074Y-120637931D02*
X177362562Y-120637443D01*
X177442208Y-120557782D02*
X177442331Y-120557660D01*
X177424373Y-120575619D02*
X177424496Y-120575497D01*
X177422908Y-120577084D02*
X177422419Y-120577573D01*
X177133219Y-120866886D02*
X177127465Y-120872643D01*
X177186239Y-120813840D02*
X177186029Y-120814050D01*
X177347781Y-120652226D02*
X177344115Y-120655892D01*
X177426938Y-120573054D02*
X177427184Y-120572808D01*
X177252159Y-120747883D02*
X177254733Y-120745309D01*
X177353888Y-120646118D02*
X177353766Y-120646241D01*
X177351689Y-120648316D02*
X177350712Y-120649293D01*
X177020872Y-120979310D02*
X177022218Y-120977964D01*
X177494252Y-120505736D02*
X177493764Y-120506224D01*
X177493275Y-120506714D02*
X177492787Y-120507203D01*
X177159970Y-120840119D02*
X177160214Y-120839877D01*
X177159625Y-120840465D02*
X177159374Y-120840716D01*
X177172071Y-120828011D02*
X177170964Y-120829119D01*
X177342165Y-120657843D02*
X177340210Y-120659800D01*
X177030792Y-120969384D02*
X177034779Y-120965394D01*
X177155767Y-120844327D02*
X177152780Y-120847316D01*
X177490984Y-120509005D02*
X177491565Y-120508425D01*
X177496575Y-120503417D02*
X177496820Y-120503173D01*
X177385893Y-120614104D02*
X177384672Y-120615326D01*
X177120378Y-120879736D02*
X177125495Y-120874614D01*
X177234607Y-120765444D02*
X177233379Y-120766673D01*
X177113166Y-120886956D02*
X177111905Y-120888217D01*
X177463587Y-120536403D02*
X177463464Y-120536525D01*
X177460898Y-120539091D02*
X177461601Y-120538388D01*
X177353277Y-120646728D02*
X177352667Y-120647338D01*
X177357644Y-120642361D02*
X177358896Y-120641109D01*
X177325794Y-120674220D02*
X177322618Y-120677398D01*
X177499509Y-120500485D02*
X177499631Y-120500363D01*
X177110538Y-120889587D02*
X177108593Y-120891533D01*
X177144393Y-120855706D02*
X177143974Y-120856126D01*
X177038969Y-120961201D02*
X177039018Y-120961153D01*
X177186971Y-120813102D02*
X177187286Y-120812787D01*
X177433291Y-120566700D02*
X177432559Y-120567434D01*
X177495596Y-120504394D02*
X177495444Y-120504546D01*
X177435002Y-120564988D02*
X177434269Y-120565722D01*
X177116372Y-120883748D02*
X177117173Y-120882946D01*
X177490221Y-120509768D02*
X177490863Y-120509127D01*
X177387603Y-120612394D02*
X177386871Y-120613127D01*
X177498742Y-120501250D02*
X177499079Y-120500912D01*
X177160543Y-120839548D02*
X177160707Y-120839383D01*
X177423396Y-120576596D02*
X177423885Y-120576107D01*
X177011107Y-120989083D02*
X177013548Y-120986640D01*
X177231014Y-120769039D02*
X177231105Y-120768948D01*
X177430848Y-120569143D02*
X177431582Y-120568411D01*
X177429870Y-120570121D02*
X177429138Y-120570854D01*
X177096239Y-120903893D02*
X177097041Y-120903092D01*
X177221353Y-120778704D02*
X177225353Y-120774703D01*
X177016488Y-120983698D02*
X177014546Y-120985643D01*
X177161710Y-120838379D02*
X177161377Y-120838713D01*
X177050378Y-120949785D02*
X177051975Y-120948188D01*
X177211503Y-120788558D02*
X177217341Y-120782718D01*
X177494742Y-120505247D02*
X177494864Y-120505126D01*
X177330436Y-120669578D02*
X177328725Y-120671290D01*
X177498378Y-120501614D02*
X177497767Y-120502226D01*
X177439888Y-120560102D02*
X177440530Y-120559460D01*
%TO.N,P4*%
X196781684Y-141958723D02*
G75*
G02*
X196782173Y-141958730I-584J-60677D01*
G01*
X197069201Y-141962372D02*
G75*
G03*
X197068714Y-141962367I-901J-59928D01*
G01*
X197111409Y-141962902D02*
G75*
G03*
X197111197Y-141962898I-309J-11198D01*
G01*
X196826832Y-141958724D02*
X196827328Y-141959303D01*
X196786203Y-141958781D02*
G75*
G03*
X196785958Y-141958778I-303J-15219D01*
G01*
X196785836Y-141958777D02*
G75*
G03*
X196785347Y-141958770I-1136J-60623D01*
G01*
X196942042Y-141960764D02*
X196941063Y-141960752D01*
X196948511Y-141960846D02*
G75*
G03*
X196948266Y-141960843I-311J-15154D01*
G01*
X196942896Y-141960775D02*
G75*
G03*
X196942653Y-141960772I-296J-14925D01*
G01*
X196563609Y-141955931D02*
G75*
G03*
X196563366Y-141955928I-309J-14969D01*
G01*
X196816100Y-141959160D02*
G75*
G02*
X196817077Y-141959173I-2700J-241940D01*
G01*
X196918733Y-141960468D02*
G75*
G02*
X196918977Y-141960471I-33J-14932D01*
G01*
X197079023Y-141962495D02*
G75*
G03*
X197078902Y-141962494I-91J-3690D01*
G01*
X196940451Y-141960744D02*
G75*
G02*
X196940697Y-141960747I-51J-15156D01*
G01*
X196966083Y-141961070D02*
X196965838Y-141961066D01*
X196788397Y-141958809D02*
X196788152Y-141958805D01*
X196784005Y-141958753D02*
X196783580Y-141958391D01*
X197080444Y-141962514D02*
G75*
G03*
X197081390Y-141962525I3056J223714D01*
G01*
X196940451Y-141960744D02*
X196940204Y-141960740D01*
X196787787Y-141958801D02*
X196786812Y-141958789D01*
X196788642Y-141958812D02*
G75*
G03*
X196788397Y-141958808I-342J-15188D01*
G01*
X197085980Y-141962583D02*
G75*
G03*
X197085859Y-141962582I-91J-3690D01*
G01*
X196966327Y-141961073D02*
G75*
G03*
X196966083Y-141961070I-327J-14927D01*
G01*
X197091168Y-141962649D02*
G75*
G02*
X197091657Y-141962656I-668J-60651D01*
G01*
X196939838Y-141960451D02*
X196940085Y-141960739D01*
X196573737Y-141956061D02*
G75*
G02*
X196573983Y-141956064I-37J-15139D01*
G01*
X197078902Y-141962494D02*
G75*
G03*
X197078781Y-141962493I-91J-3690D01*
G01*
X197114433Y-141962940D02*
G75*
G02*
X197114829Y-141962945I-333J-39260D01*
G01*
X197086467Y-141962589D02*
G75*
G02*
X197086590Y-141962590I30J-3576D01*
G01*
X196923982Y-141960535D02*
G75*
G02*
X196924469Y-141960542I-582J-60165D01*
G01*
X196573737Y-141956061D02*
X196573490Y-141956057D01*
X197085021Y-141962571D02*
X197085043Y-141962571D01*
X197085052Y-141962572D01*
X196784858Y-141958763D02*
G75*
G02*
X196785347Y-141958770I-658J-60637D01*
G01*
X197114433Y-141962940D02*
X197114036Y-141962934D01*
X197066030Y-141962334D02*
X197065747Y-141962093D01*
X197085737Y-141962581D02*
G75*
G02*
X197085859Y-141962582I30J-3278D01*
G01*
X196701635Y-141957696D02*
X196704074Y-141957728D01*
X196614498Y-141956582D02*
X196614161Y-141956578D01*
X196397975Y-141953806D02*
X196387479Y-141953672D01*
X196917391Y-141960450D02*
X196917817Y-141960456D01*
X197028778Y-141961864D02*
X197026192Y-141961832D01*
X196732140Y-141958088D02*
X196729700Y-141958058D01*
X196922943Y-141960521D02*
X196923309Y-141960526D01*
X196670879Y-141957304D02*
X196669475Y-141957286D01*
X196930813Y-141960621D02*
X196931117Y-141960625D01*
X196826352Y-141959291D02*
X196825863Y-141959284D01*
X196775096Y-141958637D02*
X196774973Y-141958636D01*
X197146174Y-141963336D02*
X197146622Y-141963342D01*
X196923982Y-141960535D02*
X196923554Y-141960529D01*
X196925506Y-141960553D02*
X196925933Y-141960559D01*
X197084731Y-141962568D02*
X197084693Y-141962568D01*
X196938622Y-141960720D02*
X196938927Y-141960724D01*
X196857134Y-141959681D02*
X196852864Y-141959627D01*
X197111090Y-141962897D02*
X197111197Y-141962899D01*
X197066761Y-141962343D02*
X197066518Y-141962340D01*
X196595007Y-141956333D02*
X196594609Y-141956328D01*
X197147940Y-141963359D02*
X197150136Y-141963386D01*
X197093241Y-141962675D02*
X197093484Y-141962677D01*
X197155606Y-141963455D02*
X197155232Y-141963450D01*
X197096657Y-141962716D02*
X197096286Y-141962711D01*
X196933743Y-141960658D02*
X196934048Y-141960662D01*
X197054494Y-141962188D02*
X197053947Y-141962181D01*
X196808320Y-141959059D02*
X196808586Y-141959063D01*
X196806978Y-141959042D02*
X196806917Y-141959042D01*
X196547287Y-141955721D02*
X196546638Y-141955713D01*
X196758745Y-141958429D02*
X196763138Y-141958484D01*
X196540176Y-141955629D02*
X196539495Y-141955620D01*
X196786324Y-141958782D02*
X196786203Y-141958781D01*
X196668256Y-141957271D02*
X196666242Y-141957245D01*
X196810952Y-141959093D02*
X196812593Y-141959114D01*
X197065357Y-141962325D02*
X197065052Y-141962321D01*
X196928862Y-141960596D02*
X196928558Y-141960592D01*
X196782173Y-141958730D02*
X196782417Y-141958733D01*
X196743369Y-141958233D02*
X196743123Y-141958230D01*
X196936671Y-141960695D02*
X196936488Y-141960693D01*
X196914828Y-141960417D02*
X196913606Y-141960401D01*
X197033965Y-141961928D02*
X197035918Y-141961953D01*
X197056861Y-141962218D02*
X197056526Y-141962214D01*
X197082411Y-141962538D02*
X197082625Y-141962541D01*
X197094338Y-141962687D02*
X197093973Y-141962683D01*
X196895850Y-141960177D02*
X196892738Y-141960137D01*
X197077623Y-141962478D02*
X197077501Y-141962477D01*
X196907811Y-141960328D02*
X196911167Y-141960371D01*
X196764115Y-141958498D02*
X196768873Y-141958559D01*
X196789741Y-141958825D02*
X196789985Y-141958828D01*
X196948143Y-141960841D02*
X196948266Y-141960843D01*
X197089060Y-141962622D02*
X197089458Y-141962627D01*
X196951315Y-141960882D02*
X196951070Y-141960879D01*
X196639637Y-141956903D02*
X196635000Y-141956845D01*
X196918977Y-141960471D02*
X196919099Y-141960472D01*
X196581580Y-141956161D02*
X196584235Y-141956195D01*
X197013151Y-141961667D02*
X197007941Y-141961601D01*
X196538796Y-141955611D02*
X196537957Y-141955601D01*
X196992320Y-141961403D02*
X196987134Y-141961337D01*
X196471594Y-141954751D02*
X196468909Y-141954717D01*
X197082867Y-141962544D02*
X197083037Y-141962546D01*
X197043798Y-141962053D02*
X197044431Y-141962061D01*
X196939599Y-141960733D02*
X196939173Y-141960727D01*
X196674296Y-141957348D02*
X196675455Y-141957363D01*
X197099102Y-141962749D02*
X197099346Y-141962752D01*
X196906101Y-141960307D02*
X196905186Y-141960296D01*
X196924469Y-141960542D02*
X196924772Y-141960545D01*
X196944483Y-141960794D02*
X196943812Y-141960786D01*
X196833306Y-141959379D02*
X196833062Y-141959376D01*
X196947106Y-141960827D02*
X196946433Y-141960819D01*
X197050348Y-141962136D02*
X197049555Y-141962126D01*
X197066030Y-141962334D02*
X197065602Y-141962328D01*
X197038480Y-141961985D02*
X197039808Y-141962002D01*
X196683021Y-141957459D02*
X196686925Y-141957508D01*
X196757767Y-141958416D02*
X196756059Y-141958394D01*
X196331716Y-141952956D02*
X196346131Y-141953141D01*
X196920502Y-141960490D02*
X196921722Y-141960506D01*
X197113318Y-141962924D02*
X197113784Y-141962930D01*
X196551497Y-141955775D02*
X196551250Y-141955772D01*
X197153409Y-141963427D02*
X197153798Y-141963432D01*
X197128755Y-141963118D02*
X197128969Y-141963121D01*
X197088147Y-141962610D02*
X197088698Y-141962617D01*
X196696873Y-141957636D02*
X196698701Y-141957659D01*
X196444386Y-141954401D02*
X196447674Y-141954444D01*
X196408590Y-141953943D02*
X196418965Y-141954076D01*
X196738974Y-141958177D02*
X196739462Y-141958183D01*
X196799007Y-141958940D02*
X196799663Y-141958948D01*
X196780953Y-141958713D02*
X196781319Y-141958718D01*
X196734093Y-141958114D02*
X196737022Y-141958152D01*
X196693330Y-141957590D02*
X196693452Y-141957592D01*
X197055856Y-141962205D02*
X197054744Y-141962191D01*
X196816100Y-141959160D02*
X196815611Y-141959153D01*
X197023553Y-141961798D02*
X197026162Y-141961831D01*
X197140522Y-141963266D02*
X197136167Y-141963211D01*
X196276586Y-141952250D02*
X196248388Y-141951888D01*
X197051509Y-141962151D02*
X197051082Y-141962146D01*
X196942531Y-141960770D02*
X196942653Y-141960772D01*
X197110117Y-141962885D02*
X197109933Y-141962883D01*
X197058288Y-141962237D02*
X197058433Y-141962239D01*
X196802703Y-141958987D02*
X196803056Y-141958992D01*
X196563609Y-141955931D02*
X196563730Y-141955932D01*
X197131286Y-141963150D02*
X197134089Y-141963185D01*
X196439587Y-141954340D02*
X196441363Y-141954363D01*
X197076097Y-141962458D02*
X197076158Y-141962459D01*
X196796413Y-141958908D02*
X196793828Y-141958876D01*
X196531269Y-141955515D02*
X196526692Y-141955457D01*
X196915927Y-141960431D02*
X196915315Y-141960423D01*
X197123994Y-141963059D02*
X197123535Y-141963053D01*
X196535303Y-141955567D02*
X196531758Y-141955522D01*
X196741415Y-141958207D02*
X196742148Y-141958217D01*
X196526205Y-141955451D02*
X196523672Y-141955419D01*
X196971574Y-141961140D02*
X196970353Y-141961125D01*
X196959615Y-141960988D02*
X196962360Y-141961022D01*
X196809336Y-141959073D02*
X196808863Y-141959066D01*
X196540663Y-141955635D02*
X196540908Y-141955639D01*
X196677651Y-141957391D02*
X196677714Y-141957392D01*
X197151914Y-141963409D02*
X197151510Y-141963404D01*
X196545999Y-141955706D02*
X196545305Y-141955697D01*
X196479405Y-141954852D02*
X196479465Y-141954853D01*
X196544815Y-141955691D02*
X196544572Y-141955688D01*
X196817565Y-141959179D02*
X196817077Y-141959173D01*
X196748249Y-141958295D02*
X196747028Y-141958280D01*
X197115971Y-141962958D02*
X197116155Y-141962961D01*
X196873212Y-141959886D02*
X196870436Y-141959851D01*
X196800326Y-141958957D02*
X196799693Y-141958950D01*
X196654587Y-141957095D02*
X196653550Y-141957082D01*
X197080420Y-141962513D02*
X197079665Y-141962503D01*
X196772291Y-141958602D02*
X196773511Y-141958618D01*
X197122196Y-141963036D02*
X197120481Y-141963015D01*
X196691441Y-141957567D02*
X196690099Y-141957550D01*
X196641590Y-141956929D02*
X196645251Y-141956976D01*
X197097144Y-141962722D02*
X197097391Y-141962726D01*
X197071030Y-141962395D02*
X197070781Y-141962391D01*
X197070299Y-141962386D02*
X197069567Y-141962377D01*
X197090802Y-141962644D02*
X197090435Y-141962639D01*
X197100201Y-141962762D02*
X197099834Y-141962758D01*
X196348664Y-141953175D02*
X196361180Y-141953335D01*
X197081862Y-141962531D02*
X197081687Y-141962529D01*
X196802096Y-141958980D02*
X196801607Y-141958974D01*
X196828669Y-141959320D02*
X196827968Y-141959311D01*
%TO.N,P9*%
X168255799Y-102585266D02*
G75*
G03*
X165019885Y-103111138I-1116399J-3349234D01*
G01*
X197499859Y-136921225D02*
G75*
G03*
X197543454Y-136823306I-147259J124225D01*
G01*
X154500000Y-128750000D02*
G75*
G03*
X152582232Y-130462179I395500J-2373100D01*
G01*
X194119930Y-137430273D02*
G75*
G02*
X195373661Y-137463532I101470J-19822127D01*
G01*
X174719317Y-126550667D02*
G75*
G03*
X174500001Y-127500000I1944983J-949333D01*
G01*
X196589130Y-137284231D02*
X197411466Y-136983053D01*
X175366407Y-125224921D02*
G75*
G03*
X175488103Y-124750000I-1091407J532721D01*
G01*
X177201453Y-120798618D02*
X177188125Y-120811946D01*
X177437567Y-120562423D02*
X177436957Y-120563033D01*
X176158113Y-123683772D02*
G75*
G02*
X175749998Y-124249998I-1948713J974372D01*
G01*
X177500000Y-111290569D02*
X177500000Y-111750000D01*
X176500000Y-122440983D02*
G75*
G02*
X176250013Y-123500007I-2368100J-17D01*
G01*
X179500000Y-135792893D02*
G75*
G03*
X179999998Y-137000002I1707100J-7D01*
G01*
X177424741Y-120575252D02*
X177425473Y-120574519D01*
X137685767Y-151707948D02*
X135271743Y-151171498D01*
X180000000Y-137000000D02*
G75*
G03*
X181207097Y-137496371I1198400J1198400D01*
G01*
X149750000Y-145750000D02*
G75*
G03*
X151359603Y-144277017I-413600J2067900D01*
G01*
X195373661Y-137463531D02*
G75*
G03*
X196589132Y-137284236I175739J3018231D01*
G01*
X177300352Y-120699673D02*
X177272616Y-120727419D01*
X177000000Y-108153926D02*
G75*
G03*
X175031731Y-105125175I-3314400J26D01*
G01*
X177150875Y-120849221D02*
X177150533Y-120849563D01*
X178000000Y-119292893D02*
G75*
G02*
X177500002Y-120500002I-1707100J-7D01*
G01*
X197499859Y-136921225D02*
G75*
G02*
X197411467Y-136983055I-160759J135725D01*
G01*
X161417545Y-110303522D02*
G75*
G02*
X159750004Y-111708358I-2019145J704622D01*
G01*
X177133776Y-109401328D02*
X177250000Y-109750000D01*
X155664885Y-158517726D02*
X157769743Y-159453219D01*
X178000000Y-116774754D02*
G75*
G03*
X177749994Y-114250001I-12873900J-46D01*
G01*
X158148505Y-113134186D02*
G75*
G02*
X159750003Y-111708353I1932095J-557814D01*
G01*
X174500000Y-127646446D02*
X174500000Y-127500000D01*
X177162713Y-120837376D02*
X177163626Y-120836463D01*
X177314801Y-120685219D02*
X177302971Y-120697053D01*
X156853239Y-117620773D02*
G75*
G03*
X157356940Y-120249483I2836861J-819027D01*
G01*
X151457151Y-134399970D02*
G75*
G03*
X152007204Y-137324621I3195649J-913030D01*
G01*
X177000000Y-108576963D02*
G75*
G03*
X177133764Y-109401332I2606900J-37D01*
G01*
X153250000Y-158250000D02*
G75*
G02*
X150790659Y-158096893I-941400J4707000D01*
G01*
X177745145Y-114225725D02*
G75*
G02*
X177499997Y-111750000I12378455J2475725D01*
G01*
X156466540Y-127052643D02*
G75*
G02*
X154500000Y-128750001I-2377140J766243D01*
G01*
X197740000Y-135400000D02*
X197543486Y-136823310D01*
X159500000Y-161250000D02*
G75*
G03*
X161230247Y-163046801I3075600J1230200D01*
G01*
X177169166Y-120830917D02*
X177168477Y-120831607D01*
X174750000Y-128250000D02*
G75*
G03*
X175353553Y-128500019I603600J603600D01*
G01*
X147270162Y-145664589D02*
G75*
G03*
X149750001Y-145750007I1420838J5209689D01*
G01*
X138500000Y-145000000D02*
G75*
G03*
X141500000Y-145000000I1500000J4500010D01*
G01*
X174639946Y-104951087D02*
G75*
G03*
X170278390Y-103259466I-19701746J-44329013D01*
G01*
X177463832Y-120536158D02*
X177473117Y-120526872D01*
X144525425Y-144916024D02*
X147270162Y-145664589D01*
X175676977Y-124323022D02*
G75*
G03*
X175488076Y-124749999I457723J-457778D01*
G01*
X137750000Y-144750000D02*
G75*
G03*
X136250000Y-144750000I-750000J-2249985D01*
G01*
X144525425Y-144916024D02*
G75*
G03*
X141500002Y-145000007I-1374025J-5038076D01*
G01*
X152544966Y-140245725D02*
G75*
G03*
X152007188Y-137324633I-3158166J928625D01*
G01*
X136250000Y-144750000D02*
G75*
G03*
X135250000Y-145750000I500000J-1500000D01*
G01*
X177027254Y-120972925D02*
X177028101Y-120972078D01*
X174750000Y-128250000D02*
G75*
G02*
X174500022Y-127646446I603500J603500D01*
G01*
X177164884Y-120835201D02*
X177167221Y-120832864D01*
X176158113Y-123683772D02*
X176250000Y-123500000D01*
X177792893Y-128500000D02*
G75*
G02*
X179000002Y-128999998I7J-1707100D01*
G01*
X177146452Y-120853646D02*
X177146871Y-120853227D01*
X175366407Y-125224921D02*
X174719317Y-126550667D01*
X137685767Y-151707948D02*
G75*
G02*
X139500007Y-153249997I-553067J-2488952D01*
G01*
X139500000Y-153250000D02*
G75*
G03*
X141277218Y-154925689I2695100J1078100D01*
G01*
X177157947Y-120842145D02*
X177158699Y-120841391D01*
X177462761Y-120537227D02*
X177463219Y-120536769D01*
X153250000Y-158250000D02*
G75*
G02*
X155664891Y-158517711I786400J-3931900D01*
G01*
X157769743Y-159453219D02*
G75*
G02*
X159499980Y-161250008I-1345343J-3026981D01*
G01*
X179500000Y-130207106D02*
G75*
G03*
X179000002Y-128999998I-1707100J6D01*
G01*
X177495963Y-120504027D02*
X177496085Y-120503905D01*
X194119930Y-137430273D02*
X181207097Y-137496380D01*
X179500000Y-130207106D02*
X179500000Y-135792893D01*
X166478533Y-165749520D02*
G75*
G03*
X162361625Y-163549603I-17196933J-27230080D01*
G01*
X177792893Y-128500000D02*
X175353553Y-128500000D01*
X176500000Y-122440983D02*
X176500000Y-122229609D01*
X177044997Y-120955170D02*
X177043403Y-120956766D01*
X158148505Y-113134186D02*
X156853239Y-117620773D01*
X175676977Y-124323022D02*
X175749999Y-124249999D01*
X134250000Y-150250000D02*
G75*
G03*
X135271743Y-151171499I1324600J441500D01*
G01*
X176589030Y-121826527D02*
X176947541Y-121054549D01*
X177138179Y-120861923D02*
X177137492Y-120862611D01*
X176959929Y-121040300D02*
X176975227Y-121024992D01*
X177499875Y-120500120D02*
X177499999Y-120499999D01*
X157816488Y-122864681D02*
G75*
G03*
X157356937Y-120249486I-2706488J872381D01*
G01*
X177024258Y-120975922D02*
X177023911Y-120976270D01*
X162929958Y-105969708D02*
G75*
G02*
X165019893Y-103111148I5739542J-2002992D01*
G01*
X177500000Y-111290569D02*
G75*
G03*
X177249995Y-109750002I-4871800J-31D01*
G01*
X177400311Y-120599684D02*
X177393466Y-120606529D01*
X177185609Y-120814470D02*
X177180098Y-120819981D01*
X177248363Y-120751680D02*
X177248024Y-120752020D01*
X177069121Y-120931029D02*
X177080681Y-120919463D01*
X177103218Y-120896911D02*
X177104020Y-120896110D01*
X176983606Y-121016607D02*
X177005726Y-120994469D01*
X134250000Y-150250000D02*
G75*
G02*
X134250000Y-148750000I2250000J750000D01*
G01*
X177186658Y-120813419D02*
X177186762Y-120813313D01*
X166478533Y-165749520D02*
X176425685Y-172031532D01*
X177482526Y-120517464D02*
X177481671Y-120518320D01*
X177203897Y-120796167D02*
X177203130Y-120796935D01*
X177228376Y-120771677D02*
X177227808Y-120772246D01*
X177238201Y-120761848D02*
X177238679Y-120761371D01*
X177356605Y-120643400D02*
X177356331Y-120643675D01*
X177481181Y-120518809D02*
X177479960Y-120520029D01*
X177371968Y-120628034D02*
X177367692Y-120632310D01*
X177379298Y-120620700D02*
X177381740Y-120618259D01*
X162361622Y-163549610D02*
X161230256Y-163046780D01*
X177415945Y-120584047D02*
X177421198Y-120578794D01*
X134250000Y-148750000D02*
X135250000Y-145750000D01*
X177441963Y-120558026D02*
X177441567Y-120558423D01*
X177442576Y-120557415D02*
X177458332Y-120541658D01*
X177488878Y-120511111D02*
X177486189Y-120513800D01*
X161417545Y-110303522D02*
X162929958Y-105969708D01*
X177495350Y-120504640D02*
X177495381Y-120504609D01*
X177497310Y-120502684D02*
X177497462Y-120502531D01*
X177499203Y-120500789D02*
X177499265Y-120500728D01*
X178000000Y-119292893D02*
X178000000Y-116774754D01*
X177745145Y-114225725D02*
X177750000Y-114250000D01*
X177000000Y-108153926D02*
X177000000Y-108576963D01*
X175031717Y-105125207D02*
X174639946Y-104951087D01*
X168255799Y-102585266D02*
X170278391Y-103259463D01*
X157816488Y-122864681D02*
X156466540Y-127052643D01*
X151457151Y-134399970D02*
X152582234Y-130462180D01*
X152544966Y-140245725D02*
X151359605Y-144277018D01*
X138500000Y-145000000D02*
X137750000Y-144750000D01*
X150790661Y-158096887D02*
X141277203Y-154925734D01*
%TO.N,Bat+*%
X178058507Y-111125000D02*
X178054803Y-111062395D01*
X178500000Y-118112623D02*
X178500000Y-123969223D01*
X178503679Y-117887437D02*
X178520428Y-117374999D01*
X178487056Y-116126984D02*
X178076678Y-111374754D01*
%TO.N,GND*%
X180999996Y-113292881D02*
X180662282Y-114277068D01*
X180500000Y-115250000D02*
X180500000Y-115750000D01*
%TO.N,RST*%
X179750000Y-119000000D02*
X179750000Y-112500000D01*
%TO.N,GND*%
X181000000Y-113292850D02*
X181000000Y-111750000D01*
X181000000Y-111750000D02*
G75*
G02*
X181624035Y-110583970I1401400J0D01*
G01*
X181624037Y-110583974D02*
X182500000Y-110000000D01*
%TO.N,P4*%
X197086590Y-141962590D02*
X197086652Y-141962591D01*
X57240219Y-113845234D02*
X56144464Y-118254034D01*
X171000000Y-117000000D02*
X171600000Y-117400000D01*
X197085737Y-141962581D02*
X197085433Y-141962578D01*
X224067096Y-95271668D02*
X237000000Y-90000000D01*
X196803681Y-141959000D02*
X196804873Y-141959017D01*
X197091902Y-141962659D02*
X197091657Y-141962656D01*
X197057999Y-141962234D02*
X197057855Y-141962233D01*
X172500000Y-120763523D02*
X172500000Y-121250000D01*
X197075486Y-141962452D02*
X197075425Y-141962452D01*
X197106790Y-141962843D02*
X197108040Y-141962859D01*
X196513054Y-141955283D02*
X196500884Y-141955128D01*
X197103128Y-141962797D02*
X197104226Y-141962810D01*
X223458773Y-96208773D02*
X223881265Y-95480120D01*
X308745145Y-98725725D02*
X309776540Y-103882704D01*
X197092998Y-141962673D02*
X197092877Y-141962672D01*
X197076650Y-141962466D02*
X197076403Y-141962462D01*
X172317391Y-119736959D02*
X172243623Y-118519789D01*
X196778027Y-141958676D02*
X196779003Y-141958688D01*
X196781684Y-141958723D02*
X196781562Y-141958721D01*
X201323222Y-105530329D02*
X201176776Y-105969669D01*
X197084882Y-141962569D02*
X197085021Y-141962571D01*
X197075914Y-141962457D02*
X197075975Y-141962457D01*
X196942896Y-141960775D02*
X196943201Y-141960779D01*
X196500395Y-141955121D02*
X196479892Y-141954859D01*
X196935941Y-141960687D02*
X196936123Y-141960689D01*
X196806094Y-141959033D02*
X196806368Y-141959036D01*
X196787787Y-141958801D02*
X196788152Y-141958805D01*
X196782906Y-141958739D02*
X196784005Y-141958753D01*
X74000000Y-96500000D02*
X72193375Y-96138675D01*
X197091046Y-141962647D02*
X197091168Y-141962649D01*
X196717986Y-141957907D02*
X196716764Y-141957892D01*
X59768539Y-110956981D02*
X61174098Y-105497722D01*
X196981824Y-141961269D02*
X196981886Y-141961270D01*
X196692537Y-141957580D02*
X196692839Y-141957584D01*
X196942288Y-141960767D02*
X196942042Y-141960764D01*
X197073352Y-141962427D02*
X197073230Y-141962425D01*
X197075179Y-141962449D02*
X197074327Y-141962439D01*
X196563366Y-141955928D02*
X196556683Y-141955841D01*
X196937402Y-141960704D02*
X196937889Y-141960711D01*
X196458413Y-141954582D02*
X196455759Y-141954548D01*
X65285710Y-86457074D02*
X66006958Y-88561455D01*
X196940697Y-141960747D02*
X196941063Y-141960752D01*
X196927215Y-141960574D02*
X196927154Y-141960574D01*
X71000000Y-95500000D02*
X70853553Y-95353553D01*
X197041777Y-141962028D02*
X197041121Y-141962019D01*
X196813657Y-141959127D02*
X196813628Y-141959127D01*
X198870000Y-121850000D02*
X197740000Y-122700000D01*
X314490585Y-122766104D02*
X315981170Y-123032209D01*
X197046962Y-141962092D02*
X197047602Y-141962101D01*
X69917765Y-91962180D02*
X70362639Y-93519238D01*
X196953268Y-141960906D02*
X196954243Y-141960918D01*
X196573490Y-141956057D02*
X196563973Y-141955935D01*
X196695166Y-141957615D02*
X196694312Y-141957605D01*
X196966327Y-141961073D02*
X196967669Y-141961090D01*
X172000000Y-131500000D02*
X172292893Y-131792893D01*
X174646446Y-132500000D02*
X174000000Y-132500000D01*
X197083191Y-141962549D02*
X197083268Y-141962550D01*
X198343791Y-141981926D02*
X197218822Y-141964341D01*
X204000000Y-134500000D02*
X204000000Y-136500000D01*
X197081390Y-141962525D02*
X197081489Y-141962526D01*
X196818542Y-141959191D02*
X196822932Y-141959245D01*
X197071400Y-141962401D02*
X197071277Y-141962399D01*
X197156095Y-141963462D02*
X197156340Y-141963466D01*
X179731876Y-141308802D02*
X180201912Y-141429498D01*
X196680703Y-141957429D02*
X196680153Y-141957422D01*
X196541276Y-141955645D02*
X196541153Y-141955643D01*
X197083969Y-141962559D02*
X197084092Y-141962561D01*
X197112036Y-141962910D02*
X197111409Y-141962902D01*
X196693822Y-141957598D02*
X196693699Y-141957596D01*
X196576515Y-141956096D02*
X196573983Y-141956064D01*
X197063708Y-141962303D02*
X197064319Y-141962312D01*
X197067248Y-141962349D02*
X197067495Y-141962353D01*
X197115210Y-141962949D02*
X197114829Y-141962945D01*
X197077257Y-141962474D02*
X197077135Y-141962473D01*
X256009709Y-82598057D02*
X254735435Y-82852912D01*
X196860001Y-141959718D02*
X196860763Y-141959728D01*
X308496349Y-87818896D02*
X309759858Y-94273284D01*
X196164427Y-141950811D02*
X182840089Y-141780000D01*
X250941022Y-82537496D02*
X251882044Y-82574992D01*
X245557346Y-83480884D02*
X244000000Y-84000000D01*
X197086467Y-141962589D02*
X197085980Y-141962583D01*
X196950583Y-141960874D02*
X196950340Y-141960871D01*
X200000000Y-119585998D02*
X200000000Y-107559016D01*
X196918428Y-141960464D02*
X196918733Y-141960468D01*
X196745321Y-141958259D02*
X196745565Y-141958262D01*
X196803393Y-141958997D02*
X196803562Y-141958999D01*
X200534496Y-141483314D02*
X201788175Y-140857158D01*
X197114036Y-141962934D02*
X197113952Y-141962933D01*
X197079023Y-141962495D02*
X197079237Y-141962498D01*
X280032437Y-89519384D02*
X277835738Y-82563172D01*
X197143064Y-141963298D02*
X197142735Y-141963294D01*
X196850117Y-141959592D02*
X196849535Y-141959585D01*
X197078110Y-141962484D02*
X197078781Y-141962493D01*
X196964679Y-141961051D02*
X196965838Y-141961066D01*
X197118413Y-141962989D02*
X197118726Y-141962993D01*
X60240814Y-100158881D02*
X61029473Y-96823357D01*
X197110877Y-141962894D02*
X197110695Y-141962892D01*
X260540141Y-84355962D02*
X266959858Y-82644037D01*
X197069201Y-141962372D02*
X197069323Y-141962374D01*
X196784737Y-141958761D02*
X196784858Y-141958763D01*
X196424274Y-141954144D02*
X196424396Y-141954146D01*
X269250000Y-83250000D02*
X269030330Y-83176776D01*
X196827328Y-141959303D02*
X196827541Y-141959306D01*
X196479161Y-141954849D02*
X196476720Y-141954818D01*
X63905750Y-92672479D02*
X65285710Y-86457074D01*
X285905948Y-92230326D02*
X284519381Y-92522234D01*
X311777350Y-116386750D02*
X312703050Y-121015252D01*
X197072741Y-141962418D02*
X197072986Y-141962422D01*
X196830743Y-141959346D02*
X196830498Y-141959343D01*
X308496349Y-87818896D02*
X302839956Y-88369553D01*
X196947898Y-141960838D02*
X196947716Y-141960836D01*
X197112952Y-141962921D02*
X197112769Y-141962919D01*
X275929355Y-81918838D02*
X270763875Y-83296299D01*
X196786567Y-141958785D02*
X196786812Y-141958789D01*
X297687187Y-87798366D02*
X289090231Y-89752220D01*
X196838920Y-141959450D02*
X196844778Y-141959524D01*
X196785836Y-141958777D02*
X196785958Y-141958778D01*
X172223606Y-122829179D02*
X172262828Y-122711512D01*
X197097759Y-141962732D02*
X197097636Y-141962730D01*
X197060751Y-141962267D02*
X197061881Y-141962281D01*
X197041899Y-141962030D02*
X197042532Y-141962038D01*
X56141709Y-119210129D02*
X57800889Y-121670387D01*
X197085052Y-141962572D02*
X197085068Y-141962573D01*
X249071045Y-82654825D02*
X248500000Y-82750000D01*
X196479588Y-141954855D02*
X196479649Y-141954856D01*
X202426131Y-140336179D02*
X202698417Y-140018513D01*
X197098736Y-141962745D02*
X197098858Y-141962746D01*
X257947213Y-82723606D02*
X259000000Y-83250000D01*
X196788642Y-141958812D02*
X196789008Y-141958816D01*
X196542253Y-141955658D02*
X196543230Y-141955671D01*
X222141068Y-97314243D02*
X203024985Y-104307932D01*
X313267713Y-111604993D02*
X312425910Y-106549500D01*
X197075669Y-141962454D02*
X197075607Y-141962453D01*
X196949365Y-141960858D02*
X196948511Y-141960846D01*
X196934963Y-141960673D02*
X196934658Y-141960669D01*
X197083387Y-141962551D02*
X197083724Y-141962556D01*
X196544207Y-141955684D02*
X196544329Y-141955685D01*
X196548904Y-141955742D02*
X196549147Y-141955745D01*
X196792486Y-141958858D02*
X196792424Y-141958858D01*
X197084580Y-141962568D02*
X197084618Y-141962568D01*
X197068471Y-141962365D02*
X197068714Y-141962367D01*
X175505891Y-133353504D02*
X175563290Y-136797439D01*
X196957662Y-141960963D02*
X196957174Y-141960957D01*
X197087720Y-141962605D02*
X197087507Y-141962603D01*
X196864792Y-141959779D02*
X196866226Y-141959798D01*
X197057366Y-141962226D02*
X197057198Y-141962223D01*
X196660812Y-141957174D02*
X196661605Y-141957185D01*
X196940085Y-141960739D02*
X196940204Y-141960740D01*
X171000000Y-125207106D02*
X171000000Y-129085786D01*
X240000000Y-86000000D02*
X238500000Y-88500000D01*
X196899816Y-141960227D02*
X196899389Y-141960222D01*
X196932461Y-141960642D02*
X196932523Y-141960643D01*
X178181945Y-140638166D02*
X177460067Y-140180156D01*
X197072376Y-141962414D02*
X197072498Y-141962415D01*
X196919648Y-141960479D02*
X196919342Y-141960475D01*
X70500000Y-94500000D02*
G75*
G03*
X70853554Y-95353552I1207100J0D01*
G01*
X312500000Y-114000000D02*
G75*
G03*
X313267659Y-111605002I-1943600J1943500D01*
G01*
X197041838Y-141962029D02*
X197041899Y-141962030D01*
X196803622Y-141959000D02*
X196803681Y-141959000D01*
X197077135Y-141962473D02*
G75*
G03*
X197076893Y-141962469I-335J-14627D01*
G01*
X197218822Y-141964341D02*
G75*
G03*
X197156340Y-141963466I-299322J-19140559D01*
G01*
X197041777Y-141962028D02*
X197041838Y-141962029D01*
X197112036Y-141962910D02*
G75*
G02*
X197112769Y-141962919I-1336J-135990D01*
G01*
X196935452Y-141960680D02*
G75*
G02*
X196935941Y-141960687I-652J-60620D01*
G01*
X253250000Y-83000000D02*
G75*
G02*
X251882044Y-82574993I0J2414000D01*
G01*
X197074327Y-141962439D02*
X197073352Y-141962427D01*
X289090231Y-89752220D02*
G75*
G03*
X287499981Y-90999991I523769J-2304780D01*
G01*
X197084580Y-141962568D02*
G75*
G03*
X197084092Y-141962561I-1080J-59532D01*
G01*
X197087507Y-141962603D02*
X197086652Y-141962591D01*
X197098736Y-141962745D02*
G75*
G03*
X197097759Y-141962732I-3736J-241855D01*
G01*
X175563290Y-136797439D02*
G75*
G03*
X177460085Y-140180128I4086210J68139D01*
G01*
X197072986Y-141962422D02*
G75*
G02*
X197073230Y-141962425I-86J-14878D01*
G01*
X197083268Y-141962550D02*
X197083328Y-141962551D01*
X275929355Y-81918838D02*
G75*
G02*
X277078950Y-81883317I650745J-2440162D01*
G01*
X197057611Y-141962230D02*
G75*
G02*
X197057855Y-141962234I-111J-14870D01*
G01*
X297687187Y-87798366D02*
G75*
G02*
X300250008Y-87999980I957813J-4214234D01*
G01*
X196935452Y-141960680D02*
G75*
G03*
X196934963Y-141960673I-1152J-60620D01*
G01*
X281750000Y-91921052D02*
G75*
G03*
X284519377Y-92522214I2055500J2789652D01*
G01*
X180201912Y-141429498D02*
G75*
G03*
X182840089Y-141780008I2781588J10832498D01*
G01*
X197072741Y-141962418D02*
G75*
G03*
X197072498Y-141962414I-341J-14982D01*
G01*
X309250000Y-96500000D02*
G75*
G03*
X309759883Y-94273279I-2248900J1686700D01*
G01*
X202000000Y-104750000D02*
G75*
G02*
X203024984Y-104307930I4423100J-8846100D01*
G01*
X259750000Y-84000000D02*
G75*
G03*
X260540135Y-84355938I613400J306700D01*
G01*
X196542253Y-141955658D02*
G75*
G03*
X196541276Y-141955645I-3753J-241842D01*
G01*
X308745145Y-98725725D02*
G75*
G02*
X309249973Y-96499980I2741455J548325D01*
G01*
X197067975Y-141961786D02*
X197068471Y-141962365D01*
X68000000Y-90250000D02*
G75*
G02*
X66006953Y-88561457I419200J2515300D01*
G01*
X198343791Y-141981926D02*
G75*
G03*
X200534488Y-141483299I74009J4736526D01*
G01*
X222141068Y-97314243D02*
G75*
G03*
X223458743Y-96208756I-868168J2372843D01*
G01*
X223958773Y-95358115D02*
G75*
G02*
X224067094Y-95271663I198627J-137785D01*
G01*
X172500000Y-121250000D02*
G75*
G02*
X172262829Y-122711512I-4621700J0D01*
G01*
X62476691Y-94750000D02*
G75*
G03*
X63905708Y-92672470I-1855891J2806800D01*
G01*
X200000000Y-119585998D02*
G75*
G02*
X198869998Y-121849998I-2833000J-2D01*
G01*
X197085068Y-141962573D02*
G75*
G02*
X197085433Y-141962578I-268J-33827D01*
G01*
X196693822Y-141957598D02*
G75*
G02*
X196694312Y-141957605I-622J-60002D01*
G01*
X197075179Y-141962449D02*
G75*
G02*
X197075425Y-141962452I-79J-15151D01*
G01*
X58500000Y-112400000D02*
G75*
G03*
X57240260Y-113845244I781000J-1952400D01*
G01*
X196544207Y-141955684D02*
G75*
G03*
X196543230Y-141955671I-3707J-241916D01*
G01*
X196803562Y-141958999D02*
X196803614Y-141959000D01*
X196803622Y-141959001D01*
X172292893Y-131792893D02*
G75*
G03*
X174000000Y-132500004I1707107J1707093D01*
G01*
X196500640Y-141955125D02*
X196500395Y-141955121D01*
X196500640Y-141955125D02*
G75*
G02*
X196500884Y-141955128I-40J-14875D01*
G01*
X71000000Y-95500000D02*
G75*
G03*
X72193374Y-96138678I1651400J1651400D01*
G01*
X200500000Y-106750000D02*
G75*
G03*
X200000011Y-107559016I404500J-809000D01*
G01*
X197075486Y-141962452D02*
G75*
G02*
X197075607Y-141962453I30J-3576D01*
G01*
X196806094Y-141959033D02*
X196804873Y-141959017D01*
X62476691Y-94750000D02*
G75*
G03*
X61029512Y-96823366I1893109J-2863100D01*
G01*
X172500000Y-120763523D02*
G75*
G03*
X172416673Y-120249998I-1623900J23D01*
G01*
X285905948Y-92230326D02*
G75*
G03*
X287499967Y-90999983I-477048J2265826D01*
G01*
X175505891Y-133353504D02*
G75*
G03*
X175249991Y-132750009I-873991J-14596D01*
G01*
X69917765Y-91962180D02*
G75*
G03*
X68000000Y-90250003I-2313265J-660920D01*
G01*
X302839956Y-88369553D02*
G75*
G02*
X300250005Y-87999987I-535856J5504753D01*
G01*
X197072376Y-141962414D02*
G75*
G03*
X197071400Y-141962401I-3676J-238186D01*
G01*
X259750000Y-84000000D02*
G75*
G03*
X259000000Y-83250000I-1500000J-750000D01*
G01*
X56041666Y-118750000D02*
G75*
G02*
X56144467Y-118254035I6369034J-1061500D01*
G01*
X197076893Y-141962470D02*
X197076650Y-141962466D01*
X314490585Y-122766104D02*
G75*
G02*
X312703056Y-121015251I390315J2186404D01*
G01*
X277078947Y-81883333D02*
G75*
G02*
X277835732Y-82563174I-197747J-981267D01*
G01*
X197057611Y-141962230D02*
X197057366Y-141962226D01*
X197091902Y-141962659D02*
G75*
G02*
X197092877Y-141962672I-2702J-240941D01*
G01*
X309776540Y-103882704D02*
G75*
G03*
X311119368Y-105212836I1658760J331704D01*
G01*
X201323222Y-105530329D02*
G75*
G02*
X202000010Y-104750019I1280278J-426771D01*
G01*
X197075669Y-141962454D02*
G75*
G02*
X197075914Y-141962457I-69J-15146D01*
G01*
X266959858Y-82644037D02*
G75*
G02*
X268000007Y-82749987I380242J-1425763D01*
G01*
X172000000Y-131500000D02*
G75*
G02*
X171000006Y-129085786I2414200J2414200D01*
G01*
X197083328Y-141962551D02*
X197083387Y-141962551D01*
X202426131Y-140336179D02*
G75*
G02*
X201788174Y-140857156I-1772231J1519079D01*
G01*
X58500000Y-112400000D02*
G75*
G03*
X59768556Y-110956985I-789100J1972800D01*
G01*
X245557346Y-83480884D02*
G75*
G02*
X248500001Y-82750005I6128854J-18386616D01*
G01*
X171000000Y-125207106D02*
G75*
G02*
X171499998Y-123999998I1707100J6D01*
G01*
X56141709Y-119210129D02*
G75*
G02*
X56041707Y-118750007I527291J355529D01*
G01*
X269030330Y-83176776D02*
G75*
G02*
X268000002Y-82749997I2487570J7462576D01*
G01*
X201176776Y-105969669D02*
G75*
G02*
X200500012Y-106750024I-1280376J426769D01*
G01*
X179731876Y-141308802D02*
G75*
G02*
X178181944Y-140638168I1343024J5230302D01*
G01*
X172416666Y-120250000D02*
G75*
G02*
X172317388Y-119736959I1903134J634400D01*
G01*
X60240814Y-100158881D02*
G75*
G03*
X60721705Y-102831813I3313886J-783519D01*
G01*
X280032437Y-89519384D02*
G75*
G03*
X281750013Y-91921034I4544663J1435184D01*
G01*
X174646446Y-132500000D02*
G75*
G02*
X175250016Y-132749984I54J-853500D01*
G01*
X312425910Y-106549500D02*
G75*
G03*
X311119369Y-105212827I-1611610J-268400D01*
G01*
X171500000Y-124000000D02*
G75*
G03*
X172223579Y-122829170I-2118100J2118000D01*
G01*
X257947213Y-82723606D02*
G75*
G03*
X257000000Y-82499996I-947213J-1894394D01*
G01*
X196949365Y-141960858D02*
G75*
G02*
X196950340Y-141960871I-2765J-240942D01*
G01*
X253250000Y-83000000D02*
G75*
G03*
X254735435Y-82852914I0J7574300D01*
G01*
X312500000Y-114000000D02*
G75*
G03*
X311777361Y-116386748I1868500J-1868500D01*
G01*
X223958773Y-95358115D02*
G75*
G03*
X223881262Y-95480118I1465827J-1016885D01*
G01*
X256009709Y-82598057D02*
G75*
G02*
X257000000Y-82500001I990291J-4951543D01*
G01*
X196479892Y-141954859D02*
G75*
G03*
X196479649Y-141954856I-292J-14941D01*
G01*
X197083969Y-141962559D02*
G75*
G03*
X197083724Y-141962557I-269J-15241D01*
G01*
X250941022Y-82537496D02*
G75*
G03*
X249071044Y-82654819I-364622J-9149604D01*
G01*
X70362639Y-93519238D02*
G75*
G02*
X70499997Y-94500000I-3432739J-980762D01*
G01*
X60721697Y-102831818D02*
G75*
G02*
X61174110Y-105497725I-2757997J-1839382D01*
G01*
X270763875Y-83296299D02*
G75*
G02*
X269250004Y-83249989I-679675J2548799D01*
G01*
X171600000Y-117400000D02*
G75*
G02*
X172243614Y-118519790I-805100J-1207600D01*
G01*
X202698417Y-140018513D02*
G75*
G03*
X204000003Y-136500000I-4104917J3518513D01*
G01*
%TO.N,outer_bottom*%
X62454431Y-133854159D02*
X65441564Y-132756439D01*
X67925010Y-129848553D02*
X68641088Y-126223692D01*
X62454431Y-133854159D02*
X60341633Y-133405068D01*
X67925010Y-129848553D02*
G75*
G02*
X65441560Y-132756429I-3830110J756653D01*
G01*
%TO.N,outer_home*%
X71311155Y-112789346D02*
X72383498Y-108617036D01*
X66196842Y-116247503D02*
X64084044Y-115798412D01*
X66196842Y-116247503D02*
X67792205Y-115822075D01*
X70000000Y-114750000D02*
G75*
G03*
X71311166Y-112789349I-2134700J2846300D01*
G01*
X70000000Y-114750000D02*
G75*
G02*
X67792207Y-115822083I-3869500J5159300D01*
G01*
%TO.N,outer_top*%
X69939252Y-98640846D02*
X67826454Y-98191755D01*
X74585923Y-97157046D02*
X76125909Y-91010379D01*
X73650768Y-98055113D02*
X69939252Y-98640846D01*
X73650768Y-98055113D02*
G75*
G03*
X74249998Y-97749998I-169468J1073813D01*
G01*
X74250000Y-97750000D02*
G75*
G03*
X74585929Y-97157048I-903500J903500D01*
G01*
%TO.N,P5*%
X241601685Y-85851685D02*
X242081796Y-85569151D01*
X172000000Y-125616116D02*
X172000000Y-128250000D01*
X93000000Y-99500000D02*
X93500000Y-99000000D01*
X250333776Y-83235215D02*
X248048380Y-83638521D01*
X294782672Y-115769037D02*
X293775430Y-110063922D01*
X75259576Y-118062752D02*
X74745466Y-121404463D01*
X173160637Y-121706778D02*
X173129253Y-120093619D01*
X253056521Y-84007445D02*
X252784110Y-83972656D01*
X290725952Y-107129760D02*
X289777350Y-102386750D01*
X203000000Y-134500000D02*
X203000000Y-136250000D01*
X75442846Y-124310355D02*
X76385693Y-125620710D01*
X293761911Y-120222253D02*
X294728663Y-124733761D01*
X174500000Y-131500000D02*
X174817367Y-131500000D01*
X178355827Y-139663257D02*
X178549987Y-139784303D01*
X279579425Y-90570045D02*
X277723072Y-84258445D01*
X268086187Y-83934212D02*
X267700889Y-83648806D01*
X89138674Y-97806624D02*
X89254854Y-97225725D01*
X289911544Y-91769218D02*
X291196561Y-97618723D01*
X296198182Y-126491266D02*
X297396365Y-126982532D01*
X239519806Y-88269806D02*
X239880673Y-87618238D01*
X199120000Y-124120000D02*
X197740000Y-125240000D01*
X258030472Y-83696612D02*
X257740654Y-83509345D01*
X172104715Y-116201571D02*
X171500000Y-116000000D01*
X90693375Y-99638675D02*
X91806624Y-99861324D01*
X236676033Y-90827054D02*
X224823564Y-95835215D01*
X78836023Y-113954979D02*
X79816756Y-109445615D01*
X200500000Y-108059016D02*
X200500000Y-121222698D01*
X203516405Y-104785930D02*
X203530208Y-104780208D01*
X260537508Y-85346426D02*
X266759619Y-83568680D01*
X201823223Y-106030330D02*
X201676776Y-106469669D01*
X289911544Y-91769218D02*
X283945941Y-93261956D01*
X198547437Y-141000000D02*
X182797926Y-141000000D01*
X83870514Y-90407396D02*
X84905773Y-92372216D01*
X86774274Y-93754854D02*
X86750000Y-93749999D01*
X83870514Y-90407396D02*
X82356074Y-96959477D01*
X172750000Y-130500000D02*
X172900000Y-130700000D01*
X254891437Y-83796260D02*
X256133984Y-83333951D01*
X201749999Y-139499999D02*
X201879677Y-139344387D01*
X292326977Y-108937937D02*
X292990466Y-109156906D01*
X176436362Y-133182597D02*
X176467778Y-136301303D01*
X78222768Y-104552007D02*
X78759576Y-101062752D01*
X275240054Y-83217905D02*
X270673194Y-84527399D01*
X172359999Y-124499999D02*
X172427614Y-124406091D01*
X244000000Y-84571428D02*
X243351685Y-84887399D01*
X172908739Y-119281514D02*
X172983346Y-117416333D01*
X172739999Y-123499999D02*
X172741496Y-123462582D01*
X204599896Y-104364479D02*
X222791057Y-97757486D01*
X175964743Y-132000000D02*
G75*
G02*
X176436385Y-133182597I-1291443J-1200400D01*
G01*
X203000000Y-136250000D02*
G75*
G02*
X201879680Y-139344389I-4833600J0D01*
G01*
X254891437Y-83796260D02*
G75*
G02*
X253056523Y-84007432I-1345937J3617560D01*
G01*
X75259576Y-118062752D02*
G75*
G02*
X77000010Y-116000029I2559224J-393748D01*
G01*
X172750000Y-116666666D02*
G75*
G02*
X172983344Y-117416333I-937100J-702834D01*
G01*
X173012500Y-119687500D02*
G75*
G02*
X172908741Y-119281514I627800J376700D01*
G01*
X178355827Y-139663257D02*
G75*
G02*
X176467742Y-136301303I2121073J3402357D01*
G01*
X293775430Y-110063922D02*
G75*
G03*
X292990474Y-109156880I-1151430J-203278D01*
G01*
X258750000Y-84500000D02*
G75*
G03*
X259500000Y-85250000I1500000J750000D01*
G01*
X296198182Y-126491266D02*
G75*
G02*
X294728612Y-124733772I931518J2272066D01*
G01*
X267250000Y-83500000D02*
G75*
G03*
X266759619Y-83568681I0J-1785000D01*
G01*
X270673194Y-84527399D02*
G75*
G02*
X269324464Y-84535761I-689294J2403799D01*
G01*
X84905773Y-92372216D02*
G75*
G03*
X86749998Y-93750011I2369527J1248516D01*
G01*
X78222768Y-104552007D02*
G75*
G03*
X79064052Y-107007026I2762532J-424993D01*
G01*
X199120000Y-124120000D02*
G75*
G03*
X200500011Y-121222698I-2351400J2897300D01*
G01*
X239519806Y-88269806D02*
G75*
G02*
X236676035Y-90827059I-5123306J2837506D01*
G01*
X86774274Y-93754854D02*
G75*
G02*
X88749975Y-95000019I-641674J-3208146D01*
G01*
X244000000Y-84571428D02*
G75*
G02*
X248048380Y-83638519I11018600J-38564972D01*
G01*
X202500000Y-105250000D02*
G75*
G03*
X201823202Y-106030323I603500J-1207100D01*
G01*
X276750000Y-83250000D02*
G75*
G02*
X277723067Y-84258447I-478500J-1435400D01*
G01*
X75442846Y-124310355D02*
G75*
G02*
X74745451Y-121404461I3204354J2305655D01*
G01*
X173012500Y-119687500D02*
G75*
G02*
X173129259Y-120093619I-703500J-422100D01*
G01*
X268086187Y-83934212D02*
G75*
G03*
X269324465Y-84535757I2223313J3001412D01*
G01*
X201676776Y-106469669D02*
G75*
G02*
X201000012Y-107250024I-1280376J426769D01*
G01*
X256133984Y-83333951D02*
G75*
G02*
X257740662Y-83509333I628516J-1689249D01*
G01*
X79064052Y-107007026D02*
G75*
G02*
X79816764Y-109445617I-1785452J-1886574D01*
G01*
X293761911Y-120222253D02*
G75*
G02*
X294250018Y-118000013I2684189J575153D01*
G01*
X175964743Y-132000000D02*
G75*
G03*
X174817367Y-131500033I-1147343J-1066500D01*
G01*
X93000000Y-99500000D02*
G75*
G02*
X91806619Y-99861350I-934300J934300D01*
G01*
X242081796Y-85569151D02*
G75*
G02*
X243351683Y-84887396I9325104J-15846049D01*
G01*
X223814394Y-96814394D02*
G75*
G02*
X224823559Y-95835202I1764906J-809306D01*
G01*
X172964821Y-122584821D02*
G75*
G03*
X172741481Y-123462581I1955979J-964979D01*
G01*
X80500000Y-99000000D02*
G75*
G03*
X78759545Y-101062747I818800J-2456500D01*
G01*
X172750000Y-130500000D02*
G75*
G02*
X172000000Y-128250000I3000000J2250000D01*
G01*
X251556521Y-83502302D02*
G75*
G03*
X250333773Y-83235197I-936521J-1354898D01*
G01*
X172104715Y-116201571D02*
G75*
G02*
X172750000Y-116666666I-421815J-1265429D01*
G01*
X290725952Y-107129760D02*
G75*
G03*
X292326995Y-108937881I2353048J470660D01*
G01*
X252784110Y-83972656D02*
G75*
G02*
X251556520Y-83502304I351890J2755556D01*
G01*
X294782672Y-115769037D02*
G75*
G02*
X294250020Y-118000015I-2838972J-501263D01*
G01*
X241601685Y-85851685D02*
G75*
G03*
X239880670Y-87618236I2374315J-4034715D01*
G01*
X290500000Y-100000000D02*
G75*
G03*
X289777361Y-102386748I1868500J-1868500D01*
G01*
X223814394Y-96814394D02*
G75*
G02*
X222791055Y-97757481I-1638794J751494D01*
G01*
X258030472Y-83696612D02*
G75*
G02*
X258750002Y-84499999I-1110272J-1718288D01*
G01*
X204599896Y-104364479D02*
G75*
G03*
X203530208Y-104780207I8785104J-24188521D01*
G01*
X275240054Y-83217905D02*
G75*
G02*
X276749992Y-83250023I703146J-2452395D01*
G01*
X90693375Y-99638675D02*
G75*
G02*
X89500002Y-98999998I458025J2290075D01*
G01*
X260537508Y-85346426D02*
G75*
G02*
X259500000Y-85250000I-394808J1381826D01*
G01*
X174500000Y-131500000D02*
G75*
G02*
X172900000Y-130700000I0J2000000D01*
G01*
X290500000Y-100000000D02*
G75*
G03*
X291196549Y-97618726I-1826900J1826900D01*
G01*
X267250000Y-83500000D02*
G75*
G02*
X267700888Y-83648808I0J-757500D01*
G01*
X182797926Y-141000000D02*
G75*
G02*
X178549981Y-139784313I-26J8029500D01*
G01*
X202500000Y-105250000D02*
G75*
G02*
X203516405Y-104785929I7071800J-14143500D01*
G01*
X172000000Y-125616116D02*
G75*
G02*
X172359986Y-124499990I1910200J16D01*
G01*
X200500000Y-108059016D02*
G75*
G02*
X200999995Y-107249991I904500J16D01*
G01*
X279579425Y-90570045D02*
G75*
G03*
X281250000Y-92811884I3864975J1136745D01*
G01*
X88750000Y-95000000D02*
G75*
G02*
X89254822Y-97225719I-2236600J-1677400D01*
G01*
X172739999Y-123499999D02*
G75*
G02*
X172427634Y-124406106I-1663299J66499D01*
G01*
X172964821Y-122584821D02*
G75*
G03*
X173160621Y-121706778I-1704821J841021D01*
G01*
X201749999Y-139499999D02*
G75*
G02*
X198547437Y-141000028I-3202599J2668799D01*
G01*
X281250000Y-92811883D02*
G75*
G03*
X283945947Y-93261981I1864900J2871183D01*
G01*
X82356074Y-96959477D02*
G75*
G02*
X80499997Y-98999992I-2747974J635177D01*
G01*
X77000000Y-116000000D02*
G75*
G03*
X78836008Y-113954976I-878500J2635400D01*
G01*
X89500000Y-99000000D02*
G75*
G02*
X89138650Y-97806619I934300J934300D01*
G01*
%TO.N,pinky_bottom*%
X85327019Y-134232431D02*
X87225892Y-130174015D01*
X81039236Y-137804482D02*
X78926438Y-137355391D01*
X82769618Y-136902241D02*
X81039236Y-137804482D01*
X82769618Y-136902241D02*
G75*
G03*
X85327030Y-134232436I-2666518J5114041D01*
G01*
%TO.N,pinky_home*%
X84781646Y-120197825D02*
X86693675Y-120674398D01*
X89423942Y-117222199D02*
X90968303Y-112567358D01*
X84781646Y-120197825D02*
X82668848Y-119748734D01*
X89423942Y-117222199D02*
G75*
G02*
X88500000Y-119750000I-42468242J14089899D01*
G01*
X86693675Y-120674398D02*
G75*
G03*
X88500037Y-119750015I373325J1497598D01*
G01*
%TO.N,pinky_top*%
X88524057Y-102591168D02*
X86411259Y-102142077D01*
X92804400Y-103372952D02*
X88524057Y-102591168D01*
X94519754Y-101793169D02*
X94710713Y-94960701D01*
X94519754Y-101793169D02*
G75*
G02*
X93999992Y-102999992I-1776254J49669D01*
G01*
X92804400Y-103372952D02*
G75*
G03*
X93999981Y-102999981I242200J1326352D01*
G01*
%TO.N,P6*%
X200176776Y-125323223D02*
X200500000Y-125000000D01*
X176250000Y-131250000D02*
X176030330Y-131030330D01*
X104052786Y-93953444D02*
X103030577Y-97275622D01*
X103572414Y-100450833D02*
X104108621Y-101176250D01*
X115500000Y-91249999D02*
X115529857Y-91257464D01*
X172500000Y-127250000D02*
X172500000Y-126133874D01*
X199803601Y-126154685D02*
X197740000Y-127780000D01*
X264017611Y-86603217D02*
X261988067Y-87206363D01*
X173302468Y-123604956D02*
X173295679Y-123866339D01*
X202176776Y-106969669D02*
X202250000Y-106750000D01*
X270636738Y-109088248D02*
X269280302Y-103816702D01*
X250456735Y-84094842D02*
X247850627Y-84331761D01*
X97751787Y-114180795D02*
X98608174Y-110969344D01*
X172000000Y-115000000D02*
X172452974Y-115301982D01*
X173250000Y-129500000D02*
X173550000Y-129900000D01*
X271102061Y-119007730D02*
X269875604Y-114408517D01*
X224899984Y-96626137D02*
X224725490Y-97225490D01*
X265502929Y-101384522D02*
X264530170Y-98223055D01*
X117500000Y-91500000D02*
X118500000Y-91500000D01*
X107975591Y-90555592D02*
X109907518Y-84688182D01*
X223740716Y-98272398D02*
X205518170Y-104809865D01*
X174000000Y-120387031D02*
X174000000Y-121394839D01*
X113022119Y-88674039D02*
X112500000Y-88499999D01*
X173473062Y-117037076D02*
X173419140Y-119113099D01*
X203230850Y-105698575D02*
X203500000Y-105587570D01*
X201061892Y-138670450D02*
X201000000Y-138747671D01*
X239973651Y-89694405D02*
X240136507Y-89324847D01*
X240999999Y-87749999D02*
X241107767Y-87588348D01*
X225433102Y-96194540D02*
X239189682Y-90462631D01*
X182494910Y-139832299D02*
X198401105Y-139980450D01*
X258064266Y-84861179D02*
X258586845Y-86055646D01*
X102530948Y-107575011D02*
X104329867Y-102746976D01*
X273021496Y-120765094D02*
X274542992Y-121030188D01*
X98324402Y-117557576D02*
X99382137Y-119115153D01*
X180522145Y-139639371D02*
X180084463Y-139557165D01*
X110504677Y-86498448D02*
X109907518Y-84688182D01*
X254940617Y-84247515D02*
X255844825Y-83896904D01*
X267640151Y-103408351D02*
X269280302Y-103816702D01*
X201000000Y-123792893D02*
X201000000Y-108559016D01*
X177000000Y-136167939D02*
X177000000Y-133060660D01*
X179067235Y-139182764D02*
X178590181Y-138909819D01*
X202000000Y-136000000D02*
X202000000Y-134500000D01*
X264017611Y-86603217D02*
X265501980Y-91767378D01*
X252529490Y-84541571D02*
X252992307Y-84563814D01*
X243132455Y-85683772D02*
X244250000Y-85125000D01*
X179067235Y-139182764D02*
G75*
G03*
X180084461Y-139557173I1619065J2829764D01*
G01*
X173473062Y-117037076D02*
G75*
G03*
X173193501Y-116050003I-1724262J44776D01*
G01*
X252529490Y-84541571D02*
G75*
G02*
X251492310Y-84280413I130110J2706871D01*
G01*
X113022119Y-88674039D02*
G75*
G02*
X114249971Y-90000007I-593819J-1781361D01*
G01*
X255844825Y-83896904D02*
G75*
G02*
X257141310Y-83930111I608475J-1569196D01*
G01*
X98324402Y-117557576D02*
G75*
G02*
X97751821Y-114180804I3408998J2314976D01*
G01*
X114250000Y-90000000D02*
G75*
G03*
X115500000Y-91250000I1666700J416700D01*
G01*
X203500000Y-105587570D02*
G75*
G02*
X205518170Y-104809865I17651100J-42797730D01*
G01*
X172889610Y-125000000D02*
G75*
G03*
X172499973Y-126133874I1455090J-1133900D01*
G01*
X267640151Y-103408351D02*
G75*
G02*
X265502931Y-101384521I722949J2903851D01*
G01*
X270636738Y-109088248D02*
G75*
G02*
X270250009Y-111750005I-3375438J-868552D01*
G01*
X239973651Y-89694405D02*
G75*
G02*
X239189668Y-90462597I-1352351J596005D01*
G01*
X177000000Y-136167939D02*
G75*
G03*
X178590209Y-138909771I3158900J39D01*
G01*
X202000000Y-136000000D02*
G75*
G02*
X201061900Y-138670457I-4270000J0D01*
G01*
X174750000Y-130500000D02*
G75*
G02*
X176030338Y-131030322I0J-1810700D01*
G01*
X223740716Y-98272398D02*
G75*
G03*
X224725534Y-97225503I-534216J1489198D01*
G01*
X173659091Y-122500000D02*
G75*
G03*
X174000024Y-121394839I-1620891J1105200D01*
G01*
X265000000Y-95000000D02*
G75*
G03*
X265501956Y-91767385I-3236900J2157900D01*
G01*
X100500000Y-109250000D02*
G75*
G03*
X98608168Y-110969342I387900J-2327300D01*
G01*
X203230850Y-105698575D02*
G75*
G03*
X202250004Y-106750001I659050J-1598025D01*
G01*
X250456735Y-84094842D02*
G75*
G02*
X251492306Y-84280421I179865J-1978458D01*
G01*
X173250000Y-129500000D02*
G75*
G02*
X172500000Y-127250000I3000000J2250000D01*
G01*
X104108621Y-101176250D02*
G75*
G02*
X104329913Y-102746993I-1338621J-989550D01*
G01*
X242000000Y-86500000D02*
G75*
G03*
X241107770Y-87588350I5049400J-5049400D01*
G01*
X173302468Y-123604956D02*
G75*
G02*
X173659070Y-122499985I2055532J-53344D01*
G01*
X260000000Y-87250000D02*
G75*
G02*
X258586849Y-86055644I508800J2035200D01*
G01*
X254940617Y-84247515D02*
G75*
G02*
X252992307Y-84563808I-1719917J4435615D01*
G01*
X201500000Y-107750000D02*
G75*
G03*
X202176751Y-106969661I-603600J1207100D01*
G01*
X172889610Y-125000000D02*
G75*
G03*
X173295706Y-123866340I-1519010J1183700D01*
G01*
X264530170Y-98223055D02*
G75*
G02*
X264999974Y-94999983I3629330J1116755D01*
G01*
X182494910Y-139832299D02*
G75*
G02*
X180522144Y-139639375I104790J11254399D01*
G01*
X200000000Y-125750000D02*
G75*
G02*
X199803594Y-126154676I-515100J0D01*
G01*
X200000000Y-125750000D02*
G75*
G02*
X200176788Y-125323235I603500J0D01*
G01*
X106000000Y-92250000D02*
G75*
G03*
X104052814Y-93953453I404500J-2427000D01*
G01*
X244250000Y-85125000D02*
G75*
G02*
X247850628Y-84331769I4926800J-13795100D01*
G01*
X110504677Y-86498448D02*
G75*
G03*
X112500013Y-88499959I2991423J986848D01*
G01*
X201500000Y-107750000D02*
G75*
G03*
X201000011Y-108559016I404500J-809000D01*
G01*
X240999999Y-87749999D02*
G75*
G03*
X240136511Y-89324849I8652501J-5768301D01*
G01*
X174750000Y-130500000D02*
G75*
G02*
X173550000Y-129900000I0J1500000D01*
G01*
X103572414Y-100450833D02*
G75*
G02*
X103030580Y-97275623I2873786J2124233D01*
G01*
X115529857Y-91257464D02*
G75*
G03*
X117500000Y-91499997I1970143J7880664D01*
G01*
X271102061Y-119007730D02*
G75*
G03*
X273021502Y-120765062I2334039J622430D01*
G01*
X173704545Y-119750000D02*
G75*
G02*
X173419089Y-119113098I521155J616000D01*
G01*
X198401105Y-139980450D02*
G75*
G03*
X201000037Y-138747701I30695J3291250D01*
G01*
X172452974Y-115301982D02*
G75*
G02*
X173193508Y-116049999I-1452074J-2178118D01*
G01*
X260000000Y-87250000D02*
G75*
G03*
X261988061Y-87206341I914200J3657000D01*
G01*
X269875604Y-114408517D02*
G75*
G02*
X270250006Y-111750004I3326696J887117D01*
G01*
X201000000Y-123792893D02*
G75*
G02*
X200500002Y-125000002I-1707100J-7D01*
G01*
X174000000Y-120387031D02*
G75*
G03*
X173704565Y-119749976I-834500J31D01*
G01*
X258064266Y-84861179D02*
G75*
G03*
X257141317Y-83930096I-1666666J-729121D01*
G01*
X176250000Y-131250000D02*
G75*
G02*
X177000016Y-133060660I-1810700J-1810700D01*
G01*
X225107843Y-96357843D02*
G75*
G02*
X225433102Y-96194539I1318557J-2220657D01*
G01*
X224899984Y-96626137D02*
G75*
G02*
X225107845Y-96357847I443916J-129263D01*
G01*
X106000000Y-92250000D02*
G75*
G03*
X107975629Y-90555604I-413500J2481100D01*
G01*
X243132455Y-85683772D02*
G75*
G03*
X241999998Y-86499998I1948645J-3897328D01*
G01*
X102530948Y-107575011D02*
G75*
G02*
X100500000Y-109249999I-2463048J917711D01*
G01*
%TO.N,ring_bottom*%
X102956086Y-131658143D02*
X100890468Y-131026620D01*
X106878720Y-129129041D02*
X109784239Y-124595917D01*
X104478043Y-131079071D02*
X102956086Y-131658143D01*
X106878720Y-129129041D02*
G75*
G02*
X104478046Y-131079079I-4156220J2663941D01*
G01*
%TO.N,ring_home*%
X113086926Y-113244569D02*
X115046930Y-107382431D01*
X110710081Y-114767819D02*
X108218776Y-114444658D01*
X108218776Y-114444658D02*
X106153158Y-113813135D01*
X112167174Y-114435142D02*
G75*
G02*
X110710081Y-114767819I-1179374J1808242D01*
G01*
X112167174Y-114435142D02*
G75*
G03*
X113086904Y-113244562I-1249574J1915842D01*
G01*
%TO.N,ring_top*%
X113481467Y-97231172D02*
X111415849Y-96599649D01*
X118093474Y-94269135D02*
X117402611Y-95236342D01*
X119654810Y-91584473D02*
X120309620Y-90168946D01*
X113481467Y-97231172D02*
X114990733Y-96865586D01*
X119654810Y-91584473D02*
G75*
G02*
X118093484Y-94269142I-15097410J6983873D01*
G01*
X117402611Y-95236342D02*
G75*
G02*
X114990737Y-96865601I-3393711J2424042D01*
G01*
%TO.N,P7*%
X173000000Y-127098612D02*
X173000000Y-126901387D01*
X132217777Y-125250000D02*
X132191895Y-125101442D01*
X132461931Y-89584772D02*
X132250000Y-89499999D01*
X202823223Y-107676776D02*
X202500000Y-108000000D01*
X228237413Y-95827682D02*
X226242124Y-96710214D01*
X246772726Y-137363636D02*
X246719264Y-137096322D01*
X244500000Y-142823369D02*
X244500000Y-141777392D01*
X131911194Y-152444887D02*
X132822388Y-153389774D01*
X251356690Y-125617325D02*
X253823840Y-122970449D01*
X244249999Y-131749999D02*
X244075223Y-132041293D01*
X124276477Y-102675206D02*
X124758551Y-100226459D01*
X239234487Y-148370353D02*
X241102742Y-155304809D01*
X134146446Y-91292893D02*
X133999999Y-91000000D01*
X246044554Y-92965376D02*
X244596991Y-88087817D01*
X177000000Y-117134647D02*
X177000000Y-118783139D01*
X201000000Y-135750000D02*
X201000000Y-134500000D01*
X203249999Y-106666488D02*
X203149948Y-106799961D01*
X128762621Y-137232600D02*
X132024725Y-127700477D01*
X246499999Y-139545454D02*
X246335410Y-139889596D01*
X129539167Y-85461720D02*
X127879541Y-90783057D01*
X138000000Y-95500000D02*
X136540062Y-95208012D01*
X249888069Y-105354492D02*
X250998655Y-108899639D01*
X128808823Y-140250000D02*
X128727947Y-140446413D01*
X244939768Y-98539189D02*
X246059965Y-102459879D01*
X201000000Y-126207106D02*
X201000000Y-128184358D01*
X248657261Y-129707593D02*
X246424681Y-130191318D01*
X118614709Y-119316231D02*
X118006893Y-118444345D01*
X215217771Y-101830891D02*
X224259436Y-98752165D01*
X174613388Y-122375000D02*
X174333613Y-122646371D01*
X200145523Y-128723192D02*
X200026537Y-128842179D01*
X124276477Y-102675206D02*
X122451321Y-108547826D01*
X172500000Y-114000000D02*
X175897920Y-115132639D01*
X128915347Y-122728836D02*
X127748949Y-122437237D01*
X181457732Y-139003887D02*
X194249876Y-139037999D01*
X177500000Y-136042262D02*
X177500000Y-131207106D01*
X121248323Y-123124161D02*
X121500000Y-123249999D01*
X118552786Y-111953444D02*
X117517788Y-115317186D01*
X131345384Y-150233589D02*
X132205825Y-147078638D01*
X241857534Y-144894842D02*
X242850864Y-144602687D01*
X241616406Y-90535018D02*
X232565134Y-94035035D01*
X202000000Y-109207106D02*
X202000000Y-123792893D01*
X128678571Y-141571428D02*
X128697352Y-141631528D01*
X174124882Y-123029696D02*
X174175829Y-122889848D01*
X173499999Y-125249999D02*
X173722350Y-124916473D01*
X175792893Y-129500000D02*
X174901387Y-129500000D01*
X129539167Y-85461720D02*
X130486229Y-87755596D01*
X175240870Y-121518258D02*
X175666666Y-120666666D01*
X250653846Y-128208333D02*
X251058728Y-127460093D01*
X124395390Y-123069739D02*
X124500000Y-123000000D01*
X243692981Y-88688377D02*
X244039471Y-88032566D01*
X251561830Y-118966405D02*
X250460721Y-115112524D01*
X176416666Y-119916666D02*
X176136593Y-120116718D01*
X134750000Y-94250000D02*
X134559016Y-94059016D01*
X199266497Y-129428418D02*
X197740000Y-130320000D01*
X203887739Y-106180048D02*
X210820578Y-103445644D01*
X119506893Y-121194345D02*
X119260339Y-120541518D01*
X197750000Y-139021333D02*
X198250092Y-139015236D01*
X123895284Y-95814145D02*
X124596886Y-93709338D01*
X248861489Y-104442680D02*
X248074326Y-104295120D01*
X130500000Y-143500000D02*
X129979157Y-143239578D01*
X239500000Y-146750000D02*
X239663476Y-146504784D01*
X240808328Y-145769049D02*
X240583333Y-145833333D01*
X244249999Y-131749999D02*
G75*
G02*
X246424684Y-130191331I2887801J-1732701D01*
G01*
X241616406Y-90535018D02*
G75*
G03*
X243692977Y-88688375I-1430606J3699618D01*
G01*
X177500000Y-136042262D02*
G75*
G03*
X178749994Y-138250010I2574600J-38D01*
G01*
X174613388Y-122375000D02*
G75*
G03*
X175240862Y-121518254I-2204488J2272700D01*
G01*
X124758551Y-100226459D02*
G75*
G03*
X124250035Y-97999974I-2754251J542259D01*
G01*
X244500000Y-141777392D02*
G75*
G02*
X245250002Y-140795463I1017800J-8D01*
G01*
X225263333Y-97763333D02*
G75*
G02*
X226242128Y-96710224I1715867J-613367D01*
G01*
X118006893Y-118444345D02*
G75*
G02*
X117517805Y-115317191I2962407J2065145D01*
G01*
X119506893Y-121194345D02*
G75*
G03*
X121248313Y-123124181I3336407J1260045D01*
G01*
X253455671Y-121151863D02*
G75*
G02*
X253823841Y-122970450I-466171J-1040937D01*
G01*
X246772726Y-137363636D02*
G75*
G02*
X246500027Y-139545468I-3409126J-681864D01*
G01*
X202000000Y-123792893D02*
G75*
G02*
X201500002Y-125000002I-1707100J-7D01*
G01*
X246044554Y-92965376D02*
G75*
G02*
X245500038Y-95750030I-2936154J-871424D01*
G01*
X244000000Y-143955882D02*
G75*
G02*
X242850863Y-144602683I-1977200J2168582D01*
G01*
X181457732Y-139003887D02*
G75*
G02*
X178749990Y-138250017I14068J5290287D01*
G01*
X203249999Y-106666488D02*
G75*
G02*
X203887744Y-106180061I1177801J-882912D01*
G01*
X200250000Y-138000000D02*
G75*
G02*
X198250093Y-139015291I-2030900J1523100D01*
G01*
X250750000Y-112000000D02*
G75*
G03*
X250998645Y-108899642I-3716400J1858200D01*
G01*
X248861489Y-104442680D02*
G75*
G02*
X249888006Y-105354512I-245689J-1310320D01*
G01*
X123895284Y-95814145D02*
G75*
G03*
X124249976Y-98000018I2263316J-754455D01*
G01*
X129979157Y-143239578D02*
G75*
G02*
X129178555Y-142571440I1014843J2029778D01*
G01*
X177000000Y-117134647D02*
G75*
G03*
X176750020Y-115916657I-3092000J47D01*
G01*
X175792893Y-129500000D02*
G75*
G02*
X177000002Y-129999998I7J-1707100D01*
G01*
X134750000Y-94250000D02*
G75*
G03*
X136540061Y-95208017I2477100J2477100D01*
G01*
X128808823Y-140250000D02*
G75*
G03*
X128808823Y-138750000I-1821423J750000D01*
G01*
X215217771Y-101830891D02*
G75*
G03*
X210820578Y-103445643I31796229J-93380009D01*
G01*
X244075223Y-132041293D02*
G75*
G03*
X243999968Y-134000016I1746477J-1047907D01*
G01*
X177500000Y-131207106D02*
G75*
G03*
X177000002Y-129999998I-1707100J6D01*
G01*
X199266497Y-129428418D02*
G75*
G03*
X200026539Y-128842181I-1890597J3236918D01*
G01*
X128678571Y-141571428D02*
G75*
G02*
X128727919Y-140446401I1581429J494228D01*
G01*
X126250000Y-92250000D02*
G75*
G03*
X124596875Y-93709334I430800J-2154000D01*
G01*
X246719264Y-137096322D02*
G75*
G03*
X245500007Y-135499985I-2241564J-448278D01*
G01*
X240808328Y-145769049D02*
G75*
G03*
X241333322Y-145333327I-232728J814549D01*
G01*
X127748949Y-122437237D02*
G75*
G03*
X124500023Y-123000035I-988349J-3953563D01*
G01*
X176416666Y-119916666D02*
G75*
G03*
X177000029Y-118783139I-809666J1133566D01*
G01*
X173500000Y-128750000D02*
G75*
G02*
X172999996Y-127098612I2477100J1651400D01*
G01*
X197750000Y-139021333D02*
G75*
G02*
X194249876Y-139037998I-2871800J235582233D01*
G01*
X241857534Y-144894842D02*
G75*
G03*
X241333335Y-145333334I241566J-821358D01*
G01*
X251153846Y-126500000D02*
G75*
G02*
X251356682Y-125617317I864454J266000D01*
G01*
X134559016Y-94059016D02*
G75*
G02*
X134249986Y-92749995I904484J904516D01*
G01*
X132461931Y-89584772D02*
G75*
G02*
X134000000Y-91000000I-1092131J-2730328D01*
G01*
X118552786Y-111953444D02*
G75*
G02*
X120499995Y-110249971I2351714J-723556D01*
G01*
X248074326Y-104295120D02*
G75*
G02*
X246059936Y-102459887I477474J2547220D01*
G01*
X128762621Y-137232600D02*
G75*
G03*
X128808795Y-138750012I2037779J-697400D01*
G01*
X203000000Y-107250000D02*
G75*
G02*
X203149952Y-106799964I750300J0D01*
G01*
X124395390Y-123069739D02*
G75*
G02*
X121500008Y-123249984I-1602990J2404539D01*
G01*
X176136593Y-120116718D02*
G75*
G03*
X175666658Y-120666662I872107J-1220982D01*
G01*
X224259436Y-98752165D02*
G75*
G03*
X225263308Y-97763324I-522536J1534465D01*
G01*
X132217777Y-125250000D02*
G75*
G02*
X132024748Y-127700485I-4872877J-849000D01*
G01*
X176136593Y-120116718D02*
G75*
G03*
X175666658Y-120666662I872107J-1220982D01*
G01*
X245500000Y-135500000D02*
G75*
G02*
X244000000Y-134000000I1500000J3000000D01*
G01*
X173499999Y-125249999D02*
G75*
G03*
X172999995Y-126901387I2477101J-1651401D01*
G01*
X130500000Y-143500000D02*
G75*
G02*
X132000000Y-145000000I-1500000J-3000000D01*
G01*
X244596991Y-88087817D02*
G75*
G03*
X244039532Y-88032598I-289991J-86083D01*
G01*
X232565134Y-94035035D02*
G75*
G03*
X228237413Y-95827682I35599366J-92062465D01*
G01*
X134146446Y-91292893D02*
G75*
G02*
X134249964Y-92749988I-1707146J-853507D01*
G01*
X120500000Y-110250000D02*
G75*
G03*
X122451287Y-108547815I-405800J2434700D01*
G01*
X250653846Y-128208333D02*
G75*
G02*
X248657257Y-129707576I-2629746J1423033D01*
G01*
X132205825Y-147078638D02*
G75*
G03*
X131999989Y-145000006I-2823225J769938D01*
G01*
X175897920Y-115132639D02*
G75*
G02*
X176750008Y-115916663I-446920J-1340761D01*
G01*
X174175829Y-122889848D02*
G75*
G02*
X174333625Y-122646383I609171J-221952D01*
G01*
X173976776Y-124000000D02*
G75*
G02*
X174124894Y-123029700I2493624J115800D01*
G01*
X200684358Y-128500000D02*
G75*
G03*
X200145550Y-128723219I42J-762000D01*
G01*
X200684358Y-128500000D02*
G75*
G03*
X201000000Y-128184358I42J315600D01*
G01*
X203000000Y-107250000D02*
G75*
G02*
X202823233Y-107676786I-603600J0D01*
G01*
X251058728Y-127460093D02*
G75*
G03*
X251153839Y-126500002I-1096628J593393D01*
G01*
X245500000Y-95750000D02*
G75*
G03*
X244939817Y-98539175I2421600J-1937200D01*
G01*
X244500000Y-142823369D02*
G75*
G02*
X244000019Y-143955902I-1532600J-31D01*
G01*
X126250000Y-92250000D02*
G75*
G03*
X127879574Y-90783067I-421300J2106600D01*
G01*
X239663476Y-146504784D02*
G75*
G02*
X240583341Y-145833360I1373224J-915516D01*
G01*
X128915347Y-122728836D02*
G75*
G02*
X131000000Y-123500000I-2470247J-9880964D01*
G01*
X202000000Y-109207106D02*
G75*
G02*
X202499998Y-107999998I1707100J6D01*
G01*
X246335410Y-139889596D02*
G75*
G02*
X245249990Y-140795419I-1532310J732896D01*
G01*
X118614709Y-119316231D02*
G75*
G02*
X119260342Y-120541517I-4598809J-3205969D01*
G01*
X239500000Y-146750000D02*
G75*
G03*
X239234530Y-148370341I1654600J-1103000D01*
G01*
X201000000Y-135750000D02*
G75*
G02*
X200250000Y-138000000I-3750000J0D01*
G01*
X201000000Y-126207106D02*
G75*
G02*
X201499998Y-124999998I1707100J6D01*
G01*
X173722350Y-124916473D02*
G75*
G03*
X173976808Y-123999999I-1268550J845773D01*
G01*
X173500000Y-128750000D02*
G75*
G03*
X174901387Y-129499992I1401400J934300D01*
G01*
X131345384Y-150233589D02*
G75*
G03*
X131911183Y-152444897I2228616J-607811D01*
G01*
X250750000Y-112000000D02*
G75*
G03*
X250460722Y-115112524I3856200J-1928100D01*
G01*
X130486229Y-87755596D02*
G75*
G03*
X132249993Y-89500016I2948471J1217296D01*
G01*
X132191895Y-125101442D02*
G75*
G03*
X131000017Y-123499965I-2182795J-380258D01*
G01*
X129178571Y-142571428D02*
G75*
G02*
X128697353Y-141631528I2492029J1869028D01*
G01*
X253455671Y-121151863D02*
G75*
G02*
X251561852Y-118966399I1400129J3126563D01*
G01*
%TO.N,middle_bottom*%
X124293867Y-132465841D02*
X122587734Y-132431682D01*
X126737256Y-130961003D02*
X129415888Y-125369455D01*
X122587734Y-132431682D02*
X120522116Y-131800159D01*
X126737256Y-130961003D02*
G75*
G02*
X124293867Y-132465853I-2390356J1145103D01*
G01*
%TO.N,middle_home*%
X132819029Y-112560184D02*
X134678579Y-108155970D01*
X127850425Y-115218197D02*
X129925212Y-114859098D01*
X127850425Y-115218197D02*
X125784807Y-114586674D01*
X132819029Y-112560184D02*
G75*
G02*
X129925215Y-114859114I-3551229J1499384D01*
G01*
%TO.N,middle_top*%
X139281665Y-95187349D02*
X139941269Y-90942484D01*
X133113116Y-98004711D02*
X131047498Y-97373188D01*
X133113116Y-98004711D02*
X137189318Y-97309027D01*
X138577694Y-96585334D02*
G75*
G03*
X139281661Y-95187348I-1812694J1789034D01*
G01*
X138577694Y-96585334D02*
G75*
G02*
X137189313Y-97308996I-1818094J1794434D01*
G01*
%TO.N,P8*%
X239666637Y-138080891D02*
X238640836Y-133714102D01*
X194635676Y-138582687D02*
X180901373Y-138505092D01*
X173000000Y-113000000D02*
X174585335Y-113679429D01*
X235195583Y-122477151D02*
X233620195Y-117183810D01*
X176833333Y-120333332D02*
X176833485Y-120333257D01*
X230237526Y-113712578D02*
X228960977Y-109882931D01*
X220494698Y-161594322D02*
X219989396Y-163188644D01*
X200000000Y-131000000D02*
X200000000Y-130853553D01*
X205526368Y-106240913D02*
X204345920Y-106773128D01*
X173500000Y-127292893D02*
X173500000Y-127250000D01*
X177494822Y-116601999D02*
X177498670Y-119127492D01*
X176223606Y-121052786D02*
X176333332Y-120833333D01*
X214241412Y-102822069D02*
X227970402Y-98669646D01*
X222600940Y-159516076D02*
X236985695Y-155167933D01*
X229611021Y-104595117D02*
X227970402Y-98669646D01*
X208599228Y-104911059D02*
X209837102Y-104397436D01*
X238900471Y-143401650D02*
X239202843Y-144459952D01*
X200000000Y-135500000D02*
X200000000Y-134500000D01*
X174361324Y-125208012D02*
X173916024Y-125875961D01*
X200794174Y-129803883D02*
X201249999Y-129499999D01*
X139592299Y-155400877D02*
X154126475Y-160734970D01*
X143882856Y-103291975D02*
X145510969Y-98154796D01*
X238586028Y-148343162D02*
X239368954Y-151198542D01*
X175207106Y-129000000D02*
X176792893Y-129000000D01*
X202530523Y-109695914D02*
X202500705Y-124646447D01*
X149250000Y-100250000D02*
X148393447Y-99964482D01*
X199552786Y-137394427D02*
X199500000Y-137500000D01*
X135169156Y-131965405D02*
X133874445Y-135865730D01*
X136877460Y-152421125D02*
X134262712Y-151708012D01*
X174579056Y-124262829D02*
X174664527Y-124006414D01*
X135082234Y-122962180D02*
X133953773Y-126911792D01*
X176302725Y-114447274D02*
X176609765Y-114590321D01*
X154000000Y-103900000D02*
X151535441Y-103160632D01*
X140246762Y-115396506D02*
X138952562Y-119548212D01*
X178500000Y-130707106D02*
X178500000Y-136598612D01*
X133211590Y-149238272D02*
X134620348Y-144166745D01*
X134947009Y-130511186D02*
X134464673Y-129840791D01*
X203015955Y-108500000D02*
X203326112Y-108179619D01*
X203664710Y-107311929D02*
X203749999Y-107214544D01*
X197545454Y-138545454D02*
X197882511Y-138534921D01*
X150323223Y-101469669D02*
X150250000Y-101250000D01*
X140631638Y-106129190D02*
X139434915Y-110068402D01*
X199571588Y-131757805D02*
X197740000Y-132860000D01*
X235697764Y-131408145D02*
X234420920Y-126203124D01*
X202000000Y-125853553D02*
X202000000Y-128098612D01*
X174941119Y-123558878D02*
X175646446Y-122853553D01*
X237247891Y-132868410D02*
X237871837Y-132982513D01*
X235195583Y-122477151D02*
G75*
G02*
X234833319Y-124333322I-1955183J-581849D01*
G01*
X134194098Y-140000000D02*
G75*
G02*
X134620359Y-144166748I-5112598J-2628200D01*
G01*
X202000000Y-125853553D02*
G75*
G02*
X202249984Y-125249984I853500J53D01*
G01*
X238900471Y-143401650D02*
G75*
G02*
X239249985Y-140749991I3230529J923050D01*
G01*
X239001635Y-153638732D02*
G75*
G02*
X236985696Y-155167938I-3067935J1951032D01*
G01*
X234420920Y-126203124D02*
G75*
G02*
X234833332Y-124333332I2104380J516224D01*
G01*
X238586028Y-148343162D02*
G75*
G02*
X238900021Y-146400014I2287772J627262D01*
G01*
X148393447Y-99964482D02*
G75*
G02*
X146477384Y-98127297I979953J2939782D01*
G01*
X180901373Y-138505092D02*
G75*
G02*
X179250006Y-137999991I17027J3007692D01*
G01*
X176609765Y-114590321D02*
G75*
G02*
X177324685Y-115422273I-561865J-1205979D01*
G01*
X176302725Y-114447274D02*
G75*
G03*
X174585335Y-113679430I-25550725J-54843226D01*
G01*
X174579056Y-124262829D02*
G75*
G03*
X174500001Y-124750000I1461544J-487171D01*
G01*
X239666637Y-138080891D02*
G75*
G02*
X239250000Y-140750000I-3496337J-821309D01*
G01*
X138250000Y-153863636D02*
G75*
G03*
X139592297Y-155400882I2073900J456236D01*
G01*
X136877460Y-152421125D02*
G75*
G02*
X138249949Y-153863647I-506160J-1855775D01*
G01*
X197882511Y-138534921D02*
G75*
G03*
X199500009Y-137500004I-58511J1872921D01*
G01*
X201249999Y-129499999D02*
G75*
G03*
X201999990Y-128098612I-934299J1401399D01*
G01*
X229250000Y-107250000D02*
G75*
G03*
X228960952Y-109882939I2717800J-1630700D01*
G01*
X178500000Y-136598612D02*
G75*
G03*
X179249995Y-138000007I1684300J12D01*
G01*
X237247891Y-132868410D02*
G75*
G02*
X235697748Y-131408149I352409J1927010D01*
G01*
X203015955Y-108500000D02*
G75*
G03*
X202530548Y-109695914I1238845J-1199300D01*
G01*
X178500000Y-130707106D02*
G75*
G03*
X178000002Y-129499998I-1707100J6D01*
G01*
X137000000Y-121250000D02*
G75*
G03*
X138952565Y-119548213I-406200J2437100D01*
G01*
X145510969Y-98154796D02*
G75*
G02*
X146477437Y-98127277I488031J-154704D01*
G01*
X176333332Y-120833333D02*
G75*
G02*
X176833333Y-120333332I999968J-499967D01*
G01*
X135169156Y-131965405D02*
G75*
G03*
X134947026Y-130511174I-1535056J509605D01*
G01*
X203749999Y-107214544D02*
G75*
G02*
X204345923Y-106773134I1313601J-1150456D01*
G01*
X239202843Y-144459952D02*
G75*
G02*
X238899975Y-146399984I-2249043J-642548D01*
G01*
X149250000Y-100250000D02*
G75*
G02*
X150250000Y-101250000I-500000J-1500000D01*
G01*
X150750000Y-102500000D02*
G75*
G03*
X151535442Y-103160628I1157200J578600D01*
G01*
X177498670Y-119127492D02*
G75*
G02*
X177332959Y-119833337I-1575870J-2408D01*
G01*
X239368954Y-151198542D02*
G75*
G02*
X239001658Y-153638746I-2937754J-805558D01*
G01*
X205526368Y-106240913D02*
G75*
G02*
X208599228Y-104911058I45474332J-100861187D01*
G01*
X133874445Y-135865730D02*
G75*
G03*
X134194075Y-140000012I5081055J-1686670D01*
G01*
X231949879Y-115441566D02*
G75*
G02*
X233620193Y-117183811I-858479J-2494834D01*
G01*
X177332952Y-119833333D02*
G75*
G02*
X176833473Y-120333233I-998452J498133D01*
G01*
X177494822Y-116601999D02*
G75*
G03*
X177324684Y-115422273I-4219522J-6401D01*
G01*
X200000000Y-130853553D02*
G75*
G02*
X200249984Y-130249984I853500J53D01*
G01*
X174664527Y-124006414D02*
G75*
G02*
X174941129Y-123558888I1086173J-362086D01*
G01*
X176223606Y-121052786D02*
G75*
G03*
X175999996Y-122000000I1894394J-947214D01*
G01*
X133953773Y-126911792D02*
G75*
G03*
X134464678Y-129840787I3279527J-937008D01*
G01*
X229611021Y-104595117D02*
G75*
G02*
X229250003Y-107250002I-3274721J-906683D01*
G01*
X203664710Y-107311929D02*
G75*
G03*
X203499997Y-107750000I500190J-438071D01*
G01*
X214241412Y-102822069D02*
G75*
G03*
X209837102Y-104397435I13602388J-44973031D01*
G01*
X150323223Y-101469669D02*
G75*
G03*
X150749999Y-102500001I7462177J2487369D01*
G01*
X194635676Y-138582687D02*
G75*
G03*
X197545454Y-138545453I445624J78890387D01*
G01*
X142250000Y-104708333D02*
G75*
G03*
X140631704Y-106129210I335800J-2014467D01*
G01*
X199571588Y-131757805D02*
G75*
G03*
X200000017Y-131000000I-455988J757805D01*
G01*
X202250000Y-125250000D02*
G75*
G03*
X202500722Y-124646447I-605300J605300D01*
G01*
X135082234Y-122962180D02*
G75*
G02*
X137000000Y-121250002I2313266J-660920D01*
G01*
X203500000Y-107750000D02*
G75*
G02*
X203326119Y-108179626I-617700J0D01*
G01*
X238640836Y-133714102D02*
G75*
G03*
X237871840Y-132982498I-943336J-221598D01*
G01*
X200794174Y-129803883D02*
G75*
G03*
X200249998Y-130249998I1980526J-2970817D01*
G01*
X173916024Y-125875961D02*
G75*
G03*
X173500001Y-127250000I2061076J-1374039D01*
G01*
X199552786Y-137394427D02*
G75*
G03*
X199999996Y-135500000I-3788886J1894427D01*
G01*
X133250000Y-150750000D02*
G75*
G03*
X134262705Y-151708039I1401400J467100D01*
G01*
X174500000Y-124750000D02*
G75*
G02*
X174361326Y-125208013I-825700J0D01*
G01*
X220494698Y-161594322D02*
G75*
G02*
X222600934Y-159516056I3024202J-958478D01*
G01*
X178000000Y-129500000D02*
G75*
G03*
X176792893Y-129000003I-1207100J-1207100D01*
G01*
X175646446Y-122853553D02*
G75*
G03*
X176000001Y-122000000I-853546J853553D01*
G01*
X143882856Y-103291975D02*
G75*
G02*
X142249998Y-104708324I-1973156J625375D01*
G01*
X173500000Y-127292893D02*
G75*
G03*
X173999998Y-128500002I1707100J-7D01*
G01*
X133211590Y-149238272D02*
G75*
G03*
X133250021Y-150749993I2494710J-692928D01*
G01*
X140246762Y-115396506D02*
G75*
G03*
X139846027Y-112734041I-2945162J918106D01*
G01*
X175207106Y-129000000D02*
G75*
G02*
X173999998Y-128500002I-6J1707100D01*
G01*
X230237526Y-113712578D02*
G75*
G03*
X231949882Y-115441559I2606274J868778D01*
G01*
X139846018Y-112734048D02*
G75*
G02*
X139434941Y-110068410I2568082J1760548D01*
G01*
%TO.N,index_bottom*%
X141866133Y-143309432D02*
X139003295Y-143724573D01*
X139003295Y-143724573D02*
X136937677Y-143093050D01*
X144598598Y-140928571D02*
X145831448Y-136662346D01*
X141866133Y-143309432D02*
G75*
G03*
X144598605Y-140928573I-479833J3309132D01*
G01*
%TO.N,index_home*%
X145882992Y-126255543D02*
X144265985Y-126511087D01*
X148287425Y-124564737D02*
X151094139Y-119448861D01*
X144265985Y-126511087D02*
X142200367Y-125879564D01*
X148287425Y-124564737D02*
G75*
G02*
X145882991Y-126255536I-2925225J1604837D01*
G01*
%TO.N,index_top*%
X155062230Y-106951733D02*
X156356829Y-102235375D01*
X152379766Y-109126925D02*
X149528676Y-109297602D01*
X149528676Y-109297602D02*
X147463058Y-108666079D01*
X152379766Y-109126925D02*
G75*
G03*
X155062250Y-106951739I-177166J2960125D01*
G01*
%TO.N,P9*%
X237933544Y-153629836D02*
X219724103Y-159756376D01*
X200016089Y-176236710D02*
X198532178Y-175973420D01*
X202847980Y-175826009D02*
X202999999Y-175749999D01*
X209192677Y-106068659D02*
X209789016Y-106102988D01*
X213209085Y-122463439D02*
X211593832Y-116708120D01*
X197740000Y-135400000D02*
X199132546Y-134374812D01*
X238249999Y-144750000D02*
X238170293Y-144510881D01*
X238146446Y-146207106D02*
X238083333Y-146333333D01*
X203000000Y-128250000D02*
X203000000Y-125853553D01*
X209942491Y-167077108D02*
X217058063Y-163696450D01*
X237892636Y-148070544D02*
X238866678Y-151966713D01*
X216453041Y-134585647D02*
X217592735Y-138574574D01*
X204000000Y-108500000D02*
X204323223Y-108176776D01*
X231439339Y-134353552D02*
X230222826Y-134759057D01*
X234812090Y-136073591D02*
X236849677Y-143082889D01*
X215950786Y-124383972D02*
X217172640Y-128553807D01*
X204500000Y-173322949D02*
X204500000Y-172650581D01*
X202000000Y-130250000D02*
X201400000Y-130700000D01*
X203500000Y-109707106D02*
X203500000Y-124646446D01*
X217782975Y-161766870D02*
X217931818Y-161681818D01*
X218704545Y-160704545D02*
X218621674Y-160902161D01*
X200583974Y-132277350D02*
X199941723Y-132705517D01*
X204729786Y-107401520D02*
X206901941Y-106470596D01*
X221205368Y-139032144D02*
X221190685Y-139108497D01*
X222991221Y-137041162D02*
X225760547Y-136189062D01*
X212282564Y-113640117D02*
X210531789Y-106716416D01*
X217279768Y-162998100D02*
X217308149Y-163072374D01*
X201000000Y-131500000D02*
G75*
G02*
X200583985Y-132277366I-934300J0D01*
G01*
X217931818Y-161681818D02*
G75*
G03*
X218621673Y-160902161I-803318J1405818D01*
G01*
X215950786Y-124383972D02*
G75*
G03*
X214574018Y-123425346I-1284086J-376228D01*
G01*
X237500000Y-143800000D02*
G75*
G02*
X236849695Y-143082884I410200J1025400D01*
G01*
X218704545Y-160704545D02*
G75*
G02*
X219724104Y-159756380I1558455J-653555D01*
G01*
X201400000Y-130700000D02*
G75*
G03*
X201000000Y-131500000I600000J-800000D01*
G01*
X230222826Y-134759057D02*
G75*
G02*
X225760547Y-136189063I-63729626J191188657D01*
G01*
X204323223Y-108176776D02*
G75*
G03*
X204499986Y-107750000I-426823J426776D01*
G01*
X219455368Y-140282144D02*
G75*
G02*
X217592735Y-138574574I459632J2371044D01*
G01*
X213209085Y-122463439D02*
G75*
G03*
X214574024Y-123425428I1273315J357339D01*
G01*
X202847980Y-175826009D02*
G75*
G02*
X200016091Y-176236701I-2036380J4072809D01*
G01*
X238146446Y-146207106D02*
G75*
G03*
X238249963Y-144750012I-1707146J853506D01*
G01*
X212282564Y-113640117D02*
G75*
G02*
X211927111Y-115177107I-1672164J-422883D01*
G01*
X199132546Y-134374812D02*
G75*
G03*
X199530005Y-133530037I-581146J789312D01*
G01*
X199941723Y-132705517D02*
G75*
G03*
X199530068Y-133530033I514677J-771983D01*
G01*
X203000000Y-125853553D02*
G75*
G02*
X203249984Y-125249984I853500J53D01*
G01*
X210531789Y-106716416D02*
G75*
G03*
X209789015Y-106102999I-789589J-199684D01*
G01*
X211927083Y-115177083D02*
G75*
G03*
X211593785Y-116708133I1275717J-1079517D01*
G01*
X206250000Y-169250000D02*
G75*
G03*
X204499990Y-172650581I2429000J-3400600D01*
G01*
X204000000Y-108500000D02*
G75*
G03*
X203500003Y-109707106I1207100J-1207100D01*
G01*
X237500000Y-143800000D02*
G75*
G02*
X238170274Y-144510887I-431200J-1078000D01*
G01*
X203250000Y-125250000D02*
G75*
G03*
X203500019Y-124646446I-603600J603600D01*
G01*
X204500000Y-173322949D02*
G75*
G02*
X202999974Y-175749948I-2713500J49D01*
G01*
X219455368Y-140282144D02*
G75*
G03*
X221190676Y-139108495I281732J1453144D01*
G01*
X209192677Y-106068659D02*
G75*
G03*
X206901938Y-106470590I-291677J-5066441D01*
G01*
X238727273Y-152977273D02*
G75*
G02*
X237933541Y-153629826I-1254473J716873D01*
G01*
X216818182Y-131568182D02*
G75*
G03*
X217172674Y-128553797I-3366882J1923982D01*
G01*
X217308149Y-163072374D02*
G75*
G02*
X217058050Y-163696424I-462649J-176726D01*
G01*
X221205368Y-139032144D02*
G75*
G02*
X222991221Y-137041162I2549332J-490256D01*
G01*
X217782975Y-161766870D02*
G75*
G03*
X217299662Y-162299653I576225J-1008330D01*
G01*
X209942491Y-167077108D02*
G75*
G03*
X206249996Y-169249995I10417709J-21927192D01*
G01*
X233500000Y-134500000D02*
G75*
G02*
X234812115Y-136073584I-1143700J-2287500D01*
G01*
X217299646Y-162299646D02*
G75*
G03*
X217279780Y-162998096I831354J-373154D01*
G01*
X237892636Y-148070544D02*
G75*
G02*
X238083342Y-146333338I2443364J610844D01*
G01*
X204729786Y-107401520D02*
G75*
G03*
X204499979Y-107750000I149314J-348480D01*
G01*
X238727273Y-152977273D02*
G75*
G03*
X238866687Y-151966711I-1187873J678773D01*
G01*
X231439339Y-134353552D02*
G75*
G02*
X233500003Y-134499995I853561J-2560648D01*
G01*
X216818182Y-131568182D02*
G75*
G03*
X216453020Y-134585653I3398618J-1942118D01*
G01*
X202000000Y-130250000D02*
G75*
G03*
X203000000Y-128250000I-1500000J2000000D01*
G01*
%TO.N,inner_bottom*%
X161845979Y-147945004D02*
X163416495Y-144130018D01*
X156588342Y-151192245D02*
X158854646Y-150579779D01*
X156588342Y-151192245D02*
X154522724Y-150560722D01*
X161845979Y-147945004D02*
G75*
G02*
X158854650Y-150579792I-4166979J1715404D01*
G01*
%TO.N,inner_home*%
X162970059Y-133986307D02*
X161851032Y-133978759D01*
X166388233Y-132546008D02*
X168679186Y-126916533D01*
X161851032Y-133978759D02*
X159785414Y-133347236D01*
X162970059Y-133986307D02*
G75*
G03*
X165000002Y-133746634I55641J8245007D01*
G01*
X165000000Y-133746627D02*
G75*
G03*
X166388235Y-132546009I-484000J1962527D01*
G01*
%TO.N,inner_top*%
X167113723Y-116765274D02*
X165048105Y-116133751D01*
X171422770Y-113945830D02*
X173941876Y-109703047D01*
X167113723Y-116765274D02*
X168806861Y-116132637D01*
X171422770Y-113945830D02*
G75*
G02*
X168806864Y-116132646I-4411770J2619430D01*
G01*
%TO.N,near_thumb*%
X136396336Y-165932764D02*
X134330718Y-165301241D01*
X138448168Y-166216382D02*
X136396336Y-165932764D01*
X141196595Y-164549305D02*
X143224490Y-158870538D01*
X138448168Y-166216382D02*
G75*
G03*
X141196563Y-164549294I348832J2523982D01*
G01*
%TO.N,home_thumb*%
X163255657Y-169050740D02*
X164011314Y-167101481D01*
X156593630Y-173541722D02*
X154590913Y-172732572D01*
X156593630Y-173541722D02*
X160579659Y-171826391D01*
X160579659Y-171826391D02*
G75*
G03*
X163255633Y-169050731I-1969459J4576491D01*
G01*
%TO.N,far_thumb*%
X179072073Y-185523750D02*
X184325932Y-180739493D01*
X176747071Y-185770224D02*
X175494142Y-185040449D01*
X175494142Y-185040449D02*
X173769090Y-183740529D01*
X176747071Y-185770224D02*
G75*
G03*
X179072056Y-185523731I994529J1707524D01*
G01*
%TO.N,mirror_outer_bottom*%
X326921649Y-131795228D02*
X325187978Y-132269869D01*
X325187978Y-132269869D02*
X323075180Y-132718960D01*
X328793274Y-128401244D02*
X327736181Y-122782753D01*
X326921649Y-131795228D02*
G75*
G03*
X328500030Y-130500015I-661149J2415028D01*
G01*
X328500000Y-130500000D02*
G75*
G03*
X328793246Y-128401249I-2969700J1484800D01*
G01*
%TO.N,mirror_outer_home*%
X324836902Y-110893926D02*
X323993770Y-105176097D01*
X321445568Y-114663213D02*
X322917844Y-114280962D01*
X321445568Y-114663213D02*
X319332770Y-115112304D01*
X324500000Y-113000000D02*
G75*
G03*
X324836929Y-110893922I-3176100J1588100D01*
G01*
X324500000Y-113000000D02*
G75*
G02*
X322917846Y-114280970I-2200400J1100200D01*
G01*
%TO.N,mirror_outer_top*%
X318969171Y-96749783D02*
X317703157Y-97056556D01*
X317703157Y-97056556D02*
X315590359Y-97505647D01*
X321324229Y-93954005D02*
X320251360Y-87569440D01*
X321324229Y-93954005D02*
G75*
G02*
X320750000Y-95750000I-2029229J-340995D01*
G01*
X318969171Y-96749783D02*
G75*
G03*
X320749998Y-95749998I-889271J3669883D01*
G01*
%TO.N,mirror_pinky_bottom*%
X308085326Y-135851707D02*
X306603174Y-136220192D01*
X310587564Y-131601823D02*
X309151376Y-126733076D01*
X306603174Y-136220192D02*
X304490376Y-136669283D01*
X308085326Y-135851707D02*
G75*
G03*
X310249994Y-134249996I-847526J3409007D01*
G01*
X310587564Y-131601823D02*
G75*
G02*
X310250000Y-134250000I-3185264J-939577D01*
G01*
%TO.N,mirror_pinky_home*%
X302860763Y-118613535D02*
X300747965Y-119062626D01*
X302860763Y-118613535D02*
X304466887Y-118240164D01*
X306776284Y-115463201D02*
X305408966Y-109126419D01*
X306776284Y-115463201D02*
G75*
G02*
X306249988Y-117249988I-1902584J-410499D01*
G01*
X306250000Y-117250000D02*
G75*
G02*
X304466889Y-118240171I-2623100J2623100D01*
G01*
%TO.N,mirror_pinky_top*%
X300559176Y-100503439D02*
X299118353Y-101006878D01*
X302626185Y-95463685D02*
X301666555Y-91519762D01*
X302499999Y-98499999D02*
X302482640Y-98552077D01*
X299118353Y-101006878D02*
X297005555Y-101455969D01*
X302626185Y-95463685D02*
G75*
G02*
X302499996Y-98499998I-5338385J-1298915D01*
G01*
X300559176Y-100503439D02*
G75*
G03*
X302482615Y-98552069I-1025276J2934239D01*
G01*
%TO.N,mirror_ring_bottom*%
X284519882Y-129430271D02*
X282454264Y-130061794D01*
X284519882Y-129430271D02*
X285759941Y-127715135D01*
X286741422Y-123899387D02*
X286231530Y-119757165D01*
X285759941Y-127715135D02*
G75*
G03*
X286741387Y-123899391I-4367041J3157335D01*
G01*
%TO.N,mirror_ring_home*%
X281786771Y-107268320D02*
X280968840Y-102543679D01*
X279257191Y-112216786D02*
X280857389Y-111506893D01*
X279257191Y-112216786D02*
X277191573Y-112848309D01*
X280857389Y-111506893D02*
G75*
G03*
X282000009Y-109750000I-779389J1756893D01*
G01*
X282000000Y-109750000D02*
G75*
G03*
X281786774Y-107268320I-14548400J0D01*
G01*
%TO.N,mirror_ring_top*%
X276334866Y-91404563D02*
X275706149Y-85330194D01*
X273994500Y-95003300D02*
X275247250Y-94001650D01*
X273994500Y-95003300D02*
X271928882Y-95634823D01*
X276334866Y-91404563D02*
G75*
G02*
X275247223Y-94001616I-2922266J-302437D01*
G01*
%TO.N,mirror_middle_bottom*%
X267493283Y-124339655D02*
X266599881Y-120530703D01*
X266572620Y-128198951D02*
X264888233Y-130203810D01*
X264888233Y-130203810D02*
X262822615Y-130835333D01*
X266572620Y-128198951D02*
G75*
G03*
X267493241Y-124339665I-3390120J2848151D01*
G01*
%TO.N,mirror_middle_home*%
X262431014Y-107384353D02*
X261337191Y-103317218D01*
X259625542Y-112990325D02*
X257559924Y-113621848D01*
X261477218Y-111075068D02*
X259625542Y-112990325D01*
X261477218Y-111075068D02*
G75*
G03*
X262430996Y-107384358I-2779018J2686768D01*
G01*
%TO.N,mirror_middle_top*%
X254362851Y-95776839D02*
X252297233Y-96408362D01*
X256783706Y-91771458D02*
X256074500Y-86103732D01*
X255681425Y-94638419D02*
X254362851Y-95776839D01*
X256783706Y-91771458D02*
G75*
G02*
X255681439Y-94638435I-3228706J-404042D01*
G01*
%TO.N,mirror_index_bottom*%
X251429557Y-139211326D02*
X251500000Y-139000000D01*
X251518292Y-135994025D02*
X250184321Y-131823594D01*
X248472673Y-141496701D02*
X249736336Y-140998350D01*
X248472673Y-141496701D02*
X246407055Y-142128224D01*
X251518292Y-135994025D02*
G75*
G02*
X251499996Y-138999999I-4611292J-1474975D01*
G01*
X251429557Y-139211326D02*
G75*
G02*
X249736341Y-140998363I-2760957J920326D01*
G01*
%TO.N,mirror_index_home*%
X243209982Y-124283215D02*
X241144364Y-124914738D01*
X246298719Y-120621372D02*
X244921630Y-114610109D01*
X244713651Y-123440631D02*
X243209982Y-124283215D01*
X246298719Y-120621372D02*
G75*
G02*
X245999991Y-122249994I-2040519J-467428D01*
G01*
X244713651Y-123440631D02*
G75*
G03*
X245999998Y-122249999I-1832151J3269631D01*
G01*
%TO.N,mirror_index_top*%
X240629869Y-102539479D02*
X239658940Y-97396623D01*
X237947291Y-107069730D02*
X235881673Y-107701253D01*
X239473645Y-105784865D02*
X237947291Y-107069730D01*
X239473645Y-105784865D02*
G75*
G03*
X240629840Y-102539484I-2198745J2611965D01*
G01*
%TO.N,mirror_inner_bottom*%
X234323406Y-144469609D02*
X232599274Y-139291266D01*
X230887626Y-148964373D02*
X228822008Y-149595896D01*
X230887626Y-148964373D02*
X232067163Y-147161553D01*
X233250000Y-146250000D02*
X233469669Y-146176776D01*
X233469669Y-146176776D02*
G75*
G03*
X234250024Y-145500012I-426769J1280376D01*
G01*
X234323406Y-144469609D02*
G75*
G02*
X234250033Y-145500016I-1281106J-426591D01*
G01*
X233250000Y-146250000D02*
G75*
G03*
X232067175Y-147161561I718500J-2155500D01*
G01*
%TO.N,mirror_inner_home*%
X228662436Y-127196715D02*
X227336583Y-122077781D01*
X225624935Y-131750887D02*
X223559317Y-132382410D01*
X225624935Y-131750887D02*
X226812467Y-131375443D01*
X228462555Y-129843611D02*
X228499999Y-129749999D01*
X228662436Y-127196715D02*
G75*
G02*
X228500020Y-129750007I-3973036J-1029085D01*
G01*
X228462555Y-129843611D02*
G75*
G02*
X226812470Y-131375452I-2443355J977311D01*
G01*
%TO.N,mirror_inner_top*%
X220362244Y-114537402D02*
X222289679Y-113900155D01*
X220362244Y-114537402D02*
X218296626Y-115168925D01*
X223618201Y-109783763D02*
X222073893Y-104864295D01*
X223618201Y-109783763D02*
G75*
G02*
X223749990Y-112249998I-4747601J-1490337D01*
G01*
X222289679Y-113900155D02*
G75*
G03*
X223750026Y-112250005I-687579J2079755D01*
G01*
%TO.N,mirror_near_thumb*%
X251079631Y-163704892D02*
X252807927Y-162338122D01*
X251079631Y-163704892D02*
X249014013Y-164336415D01*
X253986230Y-158904833D02*
X252791280Y-154031786D01*
X253986230Y-158904833D02*
G75*
G02*
X252807933Y-162338130I-3261030J-799667D01*
G01*
%TO.N,mirror_home_thumb*%
X232230357Y-165679866D02*
X231522504Y-160901742D01*
X230660435Y-170687220D02*
X228657718Y-171496370D01*
X231580217Y-169093610D02*
X230660435Y-170687220D01*
X231580217Y-169093610D02*
G75*
G03*
X232230329Y-165679870I-4573817J2639810D01*
G01*
%TO.N,mirror_far_thumb*%
X210780385Y-180454619D02*
X211390192Y-178977309D01*
X211363185Y-176034129D02*
X209080412Y-170779455D01*
X210780385Y-180454619D02*
X209055333Y-181754539D01*
X211363185Y-176034129D02*
G75*
G02*
X211390192Y-178977309I-3460785J-1503471D01*
G01*
%TO.N,P19*%
X73585752Y-136220192D02*
X75698550Y-136669283D01*
X95669044Y-129430271D02*
X97734662Y-130061794D01*
X131716253Y-141496701D02*
X133781871Y-142128224D01*
X55000947Y-132269869D02*
X57113745Y-132718960D01*
X149301300Y-148964373D02*
X151366918Y-149595896D01*
X115300692Y-130203810D02*
X117366310Y-130835333D01*
%TO.N,P20*%
X120563383Y-112990325D02*
X122629001Y-113621848D01*
X100931734Y-112216786D02*
X102997352Y-112848309D01*
X136978943Y-124283215D02*
X139044561Y-124914738D01*
X58743358Y-114663213D02*
X60856156Y-115112304D01*
X77328162Y-118613535D02*
X79440960Y-119062626D01*
X154563990Y-131750887D02*
X156629608Y-132382410D01*
%TO.N,P21*%
X127891692Y-96408362D02*
X125826074Y-95776839D01*
X159826681Y-114537402D02*
X161892299Y-115168925D01*
X81070573Y-101006878D02*
X83183371Y-101455969D01*
X62485768Y-97056556D02*
X64598566Y-97505647D01*
X142241634Y-107069730D02*
X144307252Y-107701253D01*
X108260043Y-95634823D02*
X106194425Y-95003300D01*
%TO.N,P18*%
X129109294Y-163704892D02*
X131174912Y-164336415D01*
X149528490Y-170687220D02*
X151531207Y-171496370D01*
X169408540Y-180454619D02*
X171133592Y-181754539D01*
%TO.N,P2*%
X223600584Y-151192245D02*
X225666202Y-150560722D01*
X317734494Y-133854159D02*
X319847292Y-133405068D01*
X257601191Y-132431682D02*
X259666809Y-131800159D01*
X299149690Y-137804482D02*
X301262488Y-137355391D01*
X241185631Y-143724573D02*
X243251249Y-143093050D01*
X277232840Y-131658143D02*
X279298458Y-131026620D01*
%TO.N,P0*%
X313992084Y-116247503D02*
X316104882Y-115798412D01*
X295407279Y-120197825D02*
X297520077Y-119748734D01*
X271970149Y-114444658D02*
X274035767Y-113813135D01*
X235922940Y-126511087D02*
X237988558Y-125879564D01*
X252338500Y-115218197D02*
X254404118Y-114586674D01*
X218337893Y-133978759D02*
X220403511Y-133347236D01*
%TO.N,P1*%
X310249673Y-98640846D02*
X312362471Y-98191755D01*
X291664869Y-102591168D02*
X293777667Y-102142077D01*
X230660249Y-109297602D02*
X232725867Y-108666079D01*
X247075809Y-98004711D02*
X249141427Y-97373188D01*
X213075202Y-116765274D02*
X215140820Y-116133751D01*
X266707458Y-97231172D02*
X268773076Y-96599649D01*
%TO.N,P3*%
X204694783Y-185040449D02*
X206419835Y-183740529D01*
X223595295Y-173541722D02*
X225598012Y-172732572D01*
X243792589Y-165932764D02*
X245858207Y-165301241D01*
%TO.N,RAW*%
X178388196Y-106664589D02*
X178223606Y-106170820D01*
X179353530Y-107495959D02*
X182500000Y-107460000D01*
X155500000Y-97000000D02*
X164542948Y-100617179D01*
X168450000Y-100899999D02*
X176348305Y-104225602D01*
X177500000Y-105000000D02*
G75*
G03*
X176348305Y-104225601I-2552500J-2552500D01*
G01*
X177500000Y-105000000D02*
G75*
G02*
X178223602Y-106170821I-2118000J-2118000D01*
G01*
X166500000Y-100750000D02*
G75*
G02*
X164542958Y-100617153I-773100J3092600D01*
G01*
X168450000Y-100899999D02*
G75*
G03*
X166500000Y-100749999I-1200000J-2850001D01*
G01*
X178750000Y-107250000D02*
G75*
G03*
X179353530Y-107495946I593900J593900D01*
G01*
X178750000Y-107250000D02*
G75*
G02*
X178388199Y-106664588I1059000J1059000D01*
G01*
%TO.N,GND*%
X177484912Y-121564945D02*
X177484912Y-122195733D01*
X176750000Y-125250000D02*
X176000000Y-127000000D01*
X177522956Y-121500000D02*
X177503934Y-121519022D01*
X176750000Y-125250000D02*
G75*
G03*
X177484923Y-122195734I-8677300J3703500D01*
G01*
X177484912Y-121564945D02*
G75*
G02*
X177503923Y-121519011I64888J45D01*
G01*
%TO.N,Bat+*%
X178038043Y-110625203D02*
X177987923Y-109250000D01*
X168466275Y-101858902D02*
X173972547Y-103904088D01*
X178250000Y-126000000D02*
X178000000Y-127000000D01*
X178046853Y-110875064D02*
X178048982Y-110937532D01*
X177211198Y-106401373D02*
X177058340Y-106207641D01*
X155500000Y-98000000D02*
X157859453Y-99048645D01*
X177823325Y-107761764D02*
X177821166Y-107750000D01*
X174144783Y-103986869D02*
X174227066Y-104036239D01*
X162201407Y-100800511D02*
X164531283Y-101647739D01*
X162201407Y-100800511D02*
G75*
G02*
X157859454Y-99048643I23042593J63367011D01*
G01*
X168466275Y-101858902D02*
G75*
G03*
X166499999Y-101749998I-1158975J-3120298D01*
G01*
X178046853Y-110875064D02*
G75*
G03*
X178038043Y-110625203I-106909753J-3644536D01*
G01*
X174144783Y-103986869D02*
G75*
G03*
X173972545Y-103904094I-532783J-888031D01*
G01*
X177211198Y-106401373D02*
G75*
G02*
X177821151Y-107750003I-2412198J-1903227D01*
G01*
X164531283Y-101647739D02*
G75*
G03*
X166500003Y-101750010I1151517J3166639D01*
G01*
X175750000Y-105000000D02*
G75*
G02*
X177058333Y-106207647I-3150500J-4725700D01*
G01*
X177823325Y-107761764D02*
G75*
G02*
X177987929Y-109250000I-10328925J-1895636D01*
G01*
X178250000Y-126000000D02*
G75*
G03*
X178500000Y-123969223I-8123300J2030800D01*
G01*
X175750000Y-105000000D02*
G75*
G03*
X174227065Y-104036240I-21012800J-31519300D01*
G01*
%TD*%
M02*
