%TF.GenerationSoftware,KiCad,Pcbnew,8.0.6*%
%TF.CreationDate,2025-07-24T19:22:05+02:00*%
%TF.ProjectId,main,6d61696e-2e6b-4696-9361-645f70636258,v1.0.0*%
%TF.SameCoordinates,Original*%
%TF.FileFunction,Soldermask,Bot*%
%TF.FilePolarity,Negative*%
%FSLAX46Y46*%
G04 Gerber Fmt 4.6, Leading zero omitted, Abs format (unit mm)*
G04 Created by KiCad (PCBNEW 8.0.6) date 2025-07-24 19:22:05*
%MOMM*%
%LPD*%
G01*
G04 APERTURE LIST*
G04 Aperture macros list*
%AMRoundRect*
0 Rectangle with rounded corners*
0 $1 Rounding radius*
0 $2 $3 $4 $5 $6 $7 $8 $9 X,Y pos of 4 corners*
0 Add a 4 corners polygon primitive as box body*
4,1,4,$2,$3,$4,$5,$6,$7,$8,$9,$2,$3,0*
0 Add four circle primitives for the rounded corners*
1,1,$1+$1,$2,$3*
1,1,$1+$1,$4,$5*
1,1,$1+$1,$6,$7*
1,1,$1+$1,$8,$9*
0 Add four rect primitives between the rounded corners*
20,1,$1+$1,$2,$3,$4,$5,0*
20,1,$1+$1,$4,$5,$6,$7,0*
20,1,$1+$1,$6,$7,$8,$9,0*
20,1,$1+$1,$8,$9,$2,$3,0*%
G04 Aperture macros list end*
%ADD10C,3.100000*%
%ADD11C,1.500000*%
%ADD12RoundRect,0.050000X-0.448764X-1.182893X1.033508X-0.729717X0.448764X1.182893X-1.033508X0.729717X0*%
%ADD13RoundRect,0.050000X-1.033508X-0.729717X0.448764X-1.182893X1.033508X0.729717X-0.448764X1.182893X0*%
%ADD14RoundRect,0.050000X-0.254914X-0.705350X0.605760X-0.442216X0.254914X0.705350X-0.605760X0.442216X0*%
%ADD15RoundRect,0.050000X-0.315419X-0.680449X0.564913X-0.493328X0.315419X0.680449X-0.564913X0.493328X0*%
%ADD16RoundRect,0.050000X-0.965976X-0.817016X0.550153X-1.139279X0.965976X0.817016X-0.550153X1.139279X0*%
%ADD17RoundRect,0.050000X-0.605760X-0.442216X0.254914X-0.705350X0.605760X0.442216X-0.254914X0.705350X0*%
%ADD18RoundRect,0.050000X-0.343961X-1.217504X1.093174X-0.636864X0.343961X1.217504X-1.093174X0.636864X0*%
%ADD19RoundRect,0.050000X-0.564913X-0.493328X0.315419X-0.680449X0.564913X0.493328X-0.315419X0.680449X0*%
%ADD20RoundRect,0.050000X-0.720475X-0.208365X-0.001703X-0.749998X0.720475X0.208365X0.001703X0.749998X0*%
%ADD21RoundRect,0.050000X-1.220758X-0.332229X0.017127X-1.265042X1.220758X0.332229X-0.017127X1.265042X0*%
%ADD22RoundRect,0.260000X-0.390000X-0.665000X0.390000X-0.665000X0.390000X0.665000X-0.390000X0.665000X0*%
%ADD23O,1.300000X1.850000*%
%ADD24RoundRect,0.050000X-0.192469X-0.724883X0.641997X-0.387737X0.192469X0.724883X-0.641997X0.387737X0*%
%ADD25RoundRect,0.050000X0.001703X-0.749998X0.720475X-0.208365X-0.001703X0.749998X-0.720475X0.208365X0*%
%ADD26RoundRect,0.050000X-0.550153X-1.139279X0.965976X-0.817016X0.550153X1.139279X-0.965976X0.817016X0*%
%ADD27RoundRect,0.050000X-1.093174X-0.636864X0.343961X-1.217504X1.093174X0.636864X-0.343961X1.217504X0*%
%ADD28C,1.800000*%
%ADD29C,1.000000*%
%ADD30RoundRect,0.050000X-0.017127X-1.265042X1.220758X-0.332229X0.017127X1.265042X-1.220758X0.332229X0*%
%ADD31RoundRect,0.050000X-0.641997X-0.387737X0.192469X-0.724883X0.641997X0.387737X-0.192469X0.724883X0*%
G04 APERTURE END LIST*
D10*
%TO.C,REF\u002A\u002A*%
X248041338Y-142637303D03*
%TD*%
%TO.C,REF\u002A\u002A*%
X108772841Y-142216276D03*
%TD*%
D11*
%TO.C,CPG1316*%
X255368687Y-111646611D03*
D12*
X255368687Y-111646611D03*
D11*
X258237599Y-110769492D03*
D12*
X258237599Y-110769492D03*
%TD*%
D11*
%TO.C,CPG1316*%
X117341949Y-110958297D03*
D13*
X117341949Y-110958297D03*
D11*
X120210864Y-111835407D03*
D13*
X120210864Y-111835407D03*
%TD*%
D11*
%TO.C,CPG1316*%
X122312270Y-94701119D03*
D13*
X122312270Y-94701119D03*
D11*
X125181185Y-95578229D03*
D13*
X125181185Y-95578229D03*
%TD*%
D11*
%TO.C,CPG1316*%
X126874570Y-137923620D03*
D13*
X126874570Y-137923620D03*
D11*
X129743485Y-138800730D03*
D13*
X129743485Y-138800730D03*
%TD*%
D14*
%TO.C,D34*%
X226409365Y-133728373D03*
X229565183Y-132763549D03*
%TD*%
D15*
%TO.C,D26*%
X275754944Y-112779312D03*
X278982840Y-112093212D03*
%TD*%
D11*
%TO.C,CPG1316*%
X232679329Y-95578236D03*
D12*
X232679329Y-95578236D03*
D11*
X235548241Y-94701117D03*
D12*
X235548241Y-94701117D03*
%TD*%
D11*
%TO.C,CPG1316*%
X74377568Y-133985995D03*
D16*
X74377568Y-133985995D03*
D11*
X77312010Y-134609731D03*
D16*
X77312010Y-134609731D03*
%TD*%
D11*
%TO.C,CPG1316*%
X104593235Y-94512336D03*
D13*
X104593235Y-94512336D03*
D11*
X107462150Y-95389446D03*
D13*
X107462150Y-95389446D03*
%TD*%
D17*
%TO.C,D10*%
X113792383Y-122055404D03*
X116948177Y-123020220D03*
%TD*%
D14*
%TO.C,D29*%
X253661051Y-106574234D03*
X256816869Y-105609410D03*
%TD*%
D15*
%TO.C,D25*%
X279289450Y-129407823D03*
X282517346Y-128721723D03*
%TD*%
D17*
%TO.C,D16*%
X143967777Y-139646474D03*
X147123571Y-140611290D03*
%TD*%
D11*
%TO.C,CPG1316*%
X228117026Y-138800749D03*
D12*
X228117026Y-138800749D03*
D11*
X230985938Y-137923630D03*
D12*
X230985938Y-137923630D03*
%TD*%
D11*
%TO.C,CPG1316*%
X218527223Y-163879312D03*
D18*
X218527223Y-163879312D03*
D11*
X221308784Y-162755490D03*
D18*
X221308784Y-162755490D03*
%TD*%
D17*
%TO.C,D9*%
X106013976Y-89352236D03*
X109169770Y-90317052D03*
%TD*%
D19*
%TO.C,D3*%
X65783646Y-91930202D03*
X69011566Y-92616310D03*
%TD*%
D11*
%TO.C,CPG1316*%
X152487657Y-112292199D03*
D13*
X152487657Y-112292199D03*
D11*
X155356572Y-113169309D03*
D13*
X155356572Y-113169309D03*
%TD*%
D19*
%TO.C,D2*%
X62249147Y-108558716D03*
X65477067Y-109244824D03*
%TD*%
D20*
%TO.C,D21*%
X155828154Y-167394791D03*
X158463642Y-169380763D03*
%TD*%
D11*
%TO.C,CPG1316*%
X77912085Y-117357489D03*
D16*
X77912085Y-117357489D03*
D11*
X80846527Y-117981225D03*
D16*
X80846527Y-117981225D03*
%TD*%
D14*
%TO.C,D35*%
X221439059Y-117471185D03*
X224594877Y-116506361D03*
%TD*%
D11*
%TO.C,CPG1316*%
X223146706Y-122543568D03*
D12*
X223146706Y-122543568D03*
D11*
X226015618Y-121666449D03*
D12*
X226015618Y-121666449D03*
%TD*%
D17*
%TO.C,D12*%
X123733004Y-89541039D03*
X126888798Y-90505855D03*
%TD*%
D11*
%TO.C,CPG1316*%
X152728241Y-171757747D03*
D21*
X152728241Y-171757747D03*
D11*
X155124143Y-173563187D03*
D21*
X155124143Y-173563187D03*
%TD*%
D15*
%TO.C,D23*%
X292383464Y-109244815D03*
X295611360Y-108558715D03*
%TD*%
D14*
%TO.C,D33*%
X230971691Y-90505862D03*
X234127509Y-89541038D03*
%TD*%
D22*
%TO.C,JST1*%
X164974996Y-118674998D03*
D23*
X166974990Y-118675010D03*
%TD*%
D19*
%TO.C,D4*%
X75343161Y-128721731D03*
X78571081Y-129407839D03*
%TD*%
D14*
%TO.C,D36*%
X216468733Y-101214007D03*
X219624551Y-100249183D03*
%TD*%
D24*
%TO.C,D41*%
X216384023Y-158975079D03*
X219443709Y-157738875D03*
%TD*%
D11*
%TO.C,CPG1316*%
X61283549Y-113822986D03*
D16*
X61283549Y-113822986D03*
D11*
X64217991Y-114446722D03*
D16*
X64217991Y-114446722D03*
%TD*%
D11*
%TO.C,CPG1316*%
X99622913Y-110769502D03*
D13*
X99622913Y-110769502D03*
D11*
X102491828Y-111646612D03*
D13*
X102491828Y-111646612D03*
%TD*%
D11*
%TO.C,CPG1316*%
X202503956Y-113169315D03*
D12*
X202503956Y-113169315D03*
D11*
X205372868Y-112292196D03*
D12*
X205372868Y-112292196D03*
%TD*%
D11*
%TO.C,CPG1316*%
X242619971Y-128092591D03*
D12*
X242619971Y-128092591D03*
D11*
X245488883Y-127215472D03*
D12*
X245488883Y-127215472D03*
%TD*%
D11*
%TO.C,CPG1316*%
X212444581Y-145683686D03*
D12*
X212444581Y-145683686D03*
D11*
X215313493Y-144806567D03*
D12*
X215313493Y-144806567D03*
%TD*%
D11*
%TO.C,CPG1316*%
X237649652Y-111835414D03*
D12*
X237649652Y-111835414D03*
D11*
X240518564Y-110958295D03*
D12*
X240518564Y-110958295D03*
%TD*%
D17*
%TO.C,D14*%
X133265662Y-116506372D03*
X136421456Y-117471188D03*
%TD*%
D25*
%TO.C,D42*%
X199396861Y-169380777D03*
X202032365Y-167394769D03*
%TD*%
D14*
%TO.C,D30*%
X248690734Y-90317064D03*
X251846552Y-89352240D03*
%TD*%
D15*
%TO.C,D22*%
X295917967Y-125873332D03*
X299145863Y-125187232D03*
%TD*%
D17*
%TO.C,D7*%
X96073340Y-121866596D03*
X99229134Y-122831412D03*
%TD*%
D11*
%TO.C,CPG1316*%
X290108012Y-97818223D03*
D26*
X290108012Y-97818223D03*
D11*
X293042455Y-97194490D03*
D26*
X293042455Y-97194490D03*
%TD*%
D11*
%TO.C,CPG1316*%
X280548485Y-134609723D03*
D26*
X280548485Y-134609723D03*
D11*
X283482928Y-133985990D03*
D26*
X283482928Y-133985990D03*
%TD*%
D14*
%TO.C,D28*%
X258631371Y-122831420D03*
X261787189Y-121866596D03*
%TD*%
%TO.C,D31*%
X240912332Y-123020215D03*
X244068150Y-122055391D03*
%TD*%
D11*
%TO.C,CPG1316*%
X120070840Y-156757346D03*
D13*
X120070840Y-156757346D03*
D11*
X122939755Y-157634456D03*
D13*
X122939755Y-157634456D03*
%TD*%
D19*
%TO.C,D6*%
X82412157Y-95464705D03*
X85640077Y-96150813D03*
%TD*%
D11*
%TO.C,CPG1316*%
X218176386Y-106286385D03*
D12*
X218176386Y-106286385D03*
D11*
X221045298Y-105409266D03*
D12*
X221045298Y-105409266D03*
%TD*%
D14*
%TO.C,D37*%
X210736938Y-140611292D03*
X213892756Y-139646468D03*
%TD*%
D11*
%TO.C,CPG1316*%
X293642495Y-114446719D03*
D26*
X293642495Y-114446719D03*
D11*
X296576938Y-113822986D03*
D26*
X296576938Y-113822986D03*
%TD*%
D11*
%TO.C,CPG1316*%
X142547013Y-144806565D03*
D13*
X142547013Y-144806565D03*
D11*
X145415928Y-145683675D03*
D13*
X145415928Y-145683675D03*
%TD*%
D11*
%TO.C,CPG1316*%
X131844905Y-121666463D03*
D13*
X131844905Y-121666463D03*
D11*
X134713820Y-122543573D03*
D13*
X134713820Y-122543573D03*
%TD*%
D14*
%TO.C,D40*%
X233213109Y-152562089D03*
X236368927Y-151597265D03*
%TD*%
D11*
%TO.C,CPG1316*%
X94652591Y-127026705D03*
D13*
X94652591Y-127026705D03*
D11*
X97521506Y-127903815D03*
D13*
X97521506Y-127903815D03*
%TD*%
D19*
%TO.C,D5*%
X78877654Y-112093222D03*
X82105574Y-112779330D03*
%TD*%
D11*
%TO.C,CPG1316*%
X234920756Y-157634456D03*
D12*
X234920756Y-157634456D03*
D11*
X237789668Y-156757337D03*
D12*
X237789668Y-156757337D03*
%TD*%
D11*
%TO.C,CPG1316*%
X277014001Y-117981226D03*
D26*
X277014001Y-117981226D03*
D11*
X279948444Y-117357493D03*
D26*
X279948444Y-117357493D03*
%TD*%
D17*
%TO.C,D19*%
X121491591Y-151597274D03*
X124647385Y-152562090D03*
%TD*%
D11*
%TO.C,CPG1316*%
X64818055Y-97194485D03*
D16*
X64818055Y-97194485D03*
D11*
X67752497Y-97818221D03*
D16*
X67752497Y-97818221D03*
%TD*%
D11*
%TO.C,CPG1316*%
X81446572Y-100728970D03*
D16*
X81446572Y-100728970D03*
D11*
X84381014Y-101352706D03*
D16*
X84381014Y-101352706D03*
%TD*%
D14*
%TO.C,D38*%
X205766621Y-124354121D03*
X208922439Y-123389297D03*
%TD*%
D11*
%TO.C,CPG1316*%
X136551734Y-162755498D03*
D27*
X136551734Y-162755498D03*
D11*
X139333286Y-163879312D03*
D27*
X139333286Y-163879312D03*
%TD*%
D28*
%TO.C,RST1*%
X167074988Y-115349994D03*
X167075006Y-108850002D03*
%TD*%
D11*
%TO.C,CPG1316*%
X207474261Y-129426486D03*
D12*
X207474261Y-129426486D03*
D11*
X210343173Y-128549367D03*
D12*
X210343173Y-128549367D03*
%TD*%
D10*
%TO.C,REF\u002A\u002A*%
X93622789Y-87365094D03*
%TD*%
D11*
%TO.C,CPG1316*%
X260338996Y-127903816D03*
D12*
X260338996Y-127903816D03*
D11*
X263207908Y-127026697D03*
D12*
X263207908Y-127026697D03*
%TD*%
D11*
%TO.C,CPG1316*%
X147517340Y-128549384D03*
D13*
X147517340Y-128549384D03*
D11*
X150386255Y-129426494D03*
D13*
X150386255Y-129426494D03*
%TD*%
D17*
%TO.C,D13*%
X128295334Y-132763541D03*
X131451128Y-133728357D03*
%TD*%
D14*
%TO.C,D39*%
X200796287Y-108096938D03*
X203952105Y-107132114D03*
%TD*%
D10*
%TO.C,REF\u002A\u002A*%
X264127746Y-87342994D03*
%TD*%
D11*
%TO.C,CPG1316*%
X297177001Y-131075221D03*
D26*
X297177001Y-131075221D03*
D11*
X300111444Y-130451488D03*
D26*
X300111444Y-130451488D03*
%TD*%
D29*
%TO.C,PWR1*%
X138526928Y-89774996D03*
X141124995Y-91274988D03*
%TD*%
D10*
%TO.C,REF\u002A\u002A*%
X178900000Y-173650000D03*
%TD*%
D15*
%TO.C,D27*%
X272220459Y-96150796D03*
X275448355Y-95464696D03*
%TD*%
D11*
%TO.C,CPG1316*%
X136815225Y-105409286D03*
D13*
X136815225Y-105409286D03*
D11*
X139684140Y-106286396D03*
D13*
X139684140Y-106286396D03*
%TD*%
D17*
%TO.C,D15*%
X138235976Y-100249181D03*
X141391770Y-101213997D03*
%TD*%
%TO.C,D17*%
X148938090Y-123389295D03*
X152093884Y-124354111D03*
%TD*%
%TO.C,D8*%
X101043666Y-105609428D03*
X104199460Y-106574244D03*
%TD*%
%TO.C,D11*%
X118762692Y-105798219D03*
X121918486Y-106763035D03*
%TD*%
D14*
%TO.C,D32*%
X235942016Y-106763039D03*
X239097834Y-105798215D03*
%TD*%
D19*
%TO.C,D1*%
X58714651Y-125187221D03*
X61942571Y-125873329D03*
%TD*%
D11*
%TO.C,CPG1316*%
X250398366Y-95389438D03*
D12*
X250398366Y-95389438D03*
D11*
X253267278Y-94512319D03*
D12*
X253267278Y-94512319D03*
%TD*%
D11*
%TO.C,CPG1316*%
X112371622Y-127215494D03*
D13*
X112371622Y-127215494D03*
D11*
X115240537Y-128092604D03*
D13*
X115240537Y-128092604D03*
%TD*%
D17*
%TO.C,D18*%
X153908408Y-107132119D03*
X157064202Y-108096935D03*
%TD*%
D11*
%TO.C,CPG1316*%
X202736364Y-173563197D03*
D30*
X202736364Y-173563197D03*
D11*
X205132274Y-171757756D03*
D30*
X205132274Y-171757756D03*
%TD*%
D11*
%TO.C,CPG1316*%
X273479509Y-101352716D03*
D26*
X273479509Y-101352716D03*
D11*
X276413952Y-100728983D03*
D26*
X276413952Y-100728983D03*
%TD*%
D31*
%TO.C,D20*%
X138416794Y-157738878D03*
X141476502Y-158975080D03*
%TD*%
D15*
%TO.C,D24*%
X288848963Y-92616314D03*
X292076859Y-91930214D03*
%TD*%
D11*
%TO.C,CPG1316*%
X57749062Y-130451492D03*
D16*
X57749062Y-130451492D03*
D11*
X60683504Y-131075228D03*
D16*
X60683504Y-131075228D03*
%TD*%
D28*
%TO.C,MCU1*%
X186524988Y-107834997D03*
X186524984Y-110374992D03*
X186524993Y-112915001D03*
X186524997Y-115454996D03*
X186524999Y-117995010D03*
X186524998Y-120534996D03*
X186524988Y-123075005D03*
X186524992Y-125615002D03*
X186524988Y-128154998D03*
X186524991Y-130695006D03*
X186524993Y-133234990D03*
X186524992Y-135775005D03*
X171284991Y-135774998D03*
X171284996Y-133234997D03*
X171285000Y-130695002D03*
X171284991Y-128154993D03*
X171284987Y-125614998D03*
X171284985Y-123074984D03*
X171284986Y-120534998D03*
X171284996Y-117994989D03*
X171284992Y-115454992D03*
X171284996Y-112914996D03*
X171284993Y-110374988D03*
X171284991Y-107835004D03*
%TD*%
M02*
