%TF.GenerationSoftware,KiCad,Pcbnew,8.0.6*%
%TF.CreationDate,2025-07-18T12:26:57+02:00*%
%TF.ProjectId,main,6d61696e-2e6b-4696-9361-645f70636258,v1.0.0*%
%TF.SameCoordinates,Original*%
%TF.FileFunction,Drillmap*%
%TF.FilePolarity,Positive*%
%FSLAX45Y45*%
G04 Gerber Fmt 4.5, Leading zero omitted, Abs format (unit mm)*
G04 Created by KiCad (PCBNEW 8.0.6) date 2025-07-18 12:26:57*
%MOMM*%
%LPD*%
G01*
G04 APERTURE LIST*
%ADD10C,0.150000*%
%ADD11C,0.050000*%
%ADD12C,0.100000*%
%ADD13C,0.200000*%
G04 APERTURE END LIST*
D10*
X11744798Y-8059379D02*
G75*
G02*
X11801143Y-8068108I-2129J-199952D01*
G01*
X8202437Y-14228178D02*
X4998918Y-13578577D01*
X5861409Y-8549904D02*
G75*
G02*
X6098623Y-8395854I195641J-41596D01*
G01*
D11*
X17267500Y-10400000D02*
X17255001Y-10400000D01*
D10*
X20060484Y-18374656D02*
G75*
G02*
X19940121Y-18414930I-120384J159786D01*
G01*
X10029664Y-8041104D02*
X11744798Y-8059379D01*
X8265141Y-14230846D02*
G75*
G02*
X8202437Y-14228179I-22961J198616D01*
G01*
X22079789Y-8656119D02*
G75*
G02*
X22122039Y-8637642I100781J-172911D01*
G01*
X30943408Y-13342827D02*
G75*
G02*
X30789359Y-13580035I-195639J-41573D01*
G01*
X12603809Y-16590157D02*
G75*
G02*
X12616948Y-16594811I-60109J-190563D01*
G01*
X14156421Y-17201324D02*
G75*
G02*
X14203473Y-17227676I-73271J-186006D01*
G01*
X6098622Y-8395857D02*
X7518313Y-8697621D01*
X27582779Y-14228627D02*
G75*
G02*
X27521809Y-14230949I-38009J196387D01*
G01*
X29323921Y-13891527D02*
G75*
G02*
X29320351Y-13892252I-42271J198938D01*
G01*
D11*
X18510000Y-13710000D02*
X18512500Y-10405000D01*
D10*
X13664012Y-8637642D02*
G75*
G02*
X13706262Y-8656119I-58382J-191039D01*
G01*
X7612710Y-8694892D02*
X9974719Y-8048192D01*
X15845931Y-18414930D02*
G75*
G02*
X15725565Y-18374658I-1J200010D01*
G01*
X30789360Y-13580038D02*
X29323921Y-13891527D01*
X14156421Y-17201324D02*
X12616948Y-16594811D01*
X7612710Y-8694892D02*
G75*
G02*
X7518313Y-8697624I-52820J192862D01*
G01*
X9808518Y-14052508D02*
X8265141Y-14230846D01*
X12603809Y-16590157D02*
X11073683Y-16107441D01*
X19128990Y-10376321D02*
G75*
G02*
X19028264Y-10403536I-100699J172691D01*
G01*
X25811332Y-8048192D02*
X28173341Y-8694892D01*
X24041251Y-8059380D02*
X25756388Y-8041105D01*
X25776562Y-14160020D02*
X24830211Y-16007874D01*
X4998918Y-13578577D02*
G75*
G02*
X4843036Y-13340984I39743J196007D01*
G01*
X28267737Y-8697620D02*
G75*
G02*
X28173341Y-8694892I-41587J195510D01*
G01*
X11073683Y-16107441D02*
G75*
G02*
X10955841Y-16007875I60168J190731D01*
G01*
X24830211Y-16007874D02*
G75*
G02*
X24712368Y-16107441I-178010J91164D01*
G01*
X21582578Y-17227677D02*
X20060484Y-18374656D01*
D11*
X16757788Y-10403536D02*
X17255001Y-10400000D01*
D10*
X4843035Y-13340984D02*
X5861409Y-8549904D01*
X24712369Y-16107442D02*
X23182242Y-16590157D01*
X16757788Y-10403536D02*
G75*
G02*
X16657062Y-10376321I2J200016D01*
G01*
X29924641Y-8549904D02*
X30943408Y-13342827D01*
X11801143Y-8068107D02*
X13664012Y-8637642D01*
D11*
X17270000Y-13715000D02*
X17267500Y-10400000D01*
X17270000Y-13715000D02*
X18510000Y-13710000D01*
D10*
X10955840Y-16007875D02*
X10009489Y-14160020D01*
X23169103Y-16594812D02*
G75*
G02*
X23182242Y-16590158I73017J-185259D01*
G01*
X28267737Y-8697620D02*
X29687429Y-8395856D01*
D11*
X18512500Y-10405000D02*
X19028264Y-10403537D01*
D10*
X23169103Y-16594812D02*
X21629631Y-17201323D01*
X21582578Y-17227677D02*
G75*
G02*
X21629630Y-17201322I120353J-159694D01*
G01*
X22122040Y-8637643D02*
X23984908Y-8068107D01*
X13706262Y-8656120D02*
X16657062Y-10376321D01*
X29320351Y-13892252D02*
X27582779Y-14228627D01*
X27521809Y-14230950D02*
X25977533Y-14052508D01*
X15725567Y-18374656D02*
X14203473Y-17227677D01*
X9808518Y-14052508D02*
G75*
G02*
X10009490Y-14160020I22962J-198672D01*
G01*
X19128990Y-10376321D02*
X22079789Y-8656119D01*
X29687429Y-8395856D02*
G75*
G02*
X29924643Y-8549903I41581J-195634D01*
G01*
X25776562Y-14160020D02*
G75*
G02*
X25977534Y-14052505I178008J-91150D01*
G01*
X25756388Y-8041105D02*
G75*
G02*
X25811332Y-8048193I2122J-200055D01*
G01*
X9974719Y-8048192D02*
G75*
G02*
X10029664Y-8041105I52811J-192898D01*
G01*
X23984908Y-8068107D02*
G75*
G02*
X24041251Y-8059379I58472J-191233D01*
G01*
X19940121Y-18414929D02*
X15845931Y-18414930D01*
D12*
X11370061Y-10979673D02*
G75*
G02*
X11270060Y-10979673I-50000J0D01*
G01*
X11270060Y-10979673D02*
G75*
G02*
X11370061Y-10979673I50000J0D01*
G01*
X12650179Y-10792857D02*
G75*
G02*
X12530178Y-10792857I-60000J0D01*
G01*
X12530178Y-10792857D02*
G75*
G02*
X12650179Y-10792857I60000J0D01*
G01*
X11867093Y-9353955D02*
G75*
G02*
X11767092Y-9353955I-50000J0D01*
G01*
X11767092Y-9353955D02*
G75*
G02*
X11867093Y-9353955I50000J0D01*
G01*
X13147211Y-9167138D02*
G75*
G02*
X13027211Y-9167138I-60000J0D01*
G01*
X13027211Y-9167138D02*
G75*
G02*
X13147211Y-9167138I60000J0D01*
G01*
X12323322Y-13676205D02*
G75*
G02*
X12223322Y-13676205I-50000J0D01*
G01*
X12223322Y-13676205D02*
G75*
G02*
X12323322Y-13676205I50000J0D01*
G01*
X13603440Y-13489388D02*
G75*
G02*
X13483440Y-13489388I-60000J0D01*
G01*
X13483440Y-13489388D02*
G75*
G02*
X13603440Y-13489388I60000J0D01*
G01*
X22909645Y-9693107D02*
G75*
G02*
X22809646Y-9693107I-50000J0D01*
G01*
X22809646Y-9693107D02*
G75*
G02*
X22909645Y-9693107I50000J0D01*
G01*
X23868155Y-8827988D02*
G75*
G02*
X23748154Y-8827988I-60000J0D01*
G01*
X23748154Y-8827988D02*
G75*
G02*
X23868155Y-8827988I60000J0D01*
G01*
X7065074Y-13318979D02*
G75*
G02*
X6965075Y-13318979I-50000J0D01*
G01*
X6965075Y-13318979D02*
G75*
G02*
X7065074Y-13318979I50000J0D01*
G01*
X8324077Y-13022175D02*
G75*
G02*
X8204076Y-13022175I-60000J0D01*
G01*
X8204076Y-13022175D02*
G75*
G02*
X8324077Y-13022175I60000J0D01*
G01*
X10095189Y-9335077D02*
G75*
G02*
X9995188Y-9335077I-50000J0D01*
G01*
X9995188Y-9335077D02*
G75*
G02*
X10095189Y-9335077I50000J0D01*
G01*
X11375307Y-9148260D02*
G75*
G02*
X11255306Y-9148260I-60000J0D01*
G01*
X11255306Y-9148260D02*
G75*
G02*
X11375307Y-9148260I60000J0D01*
G01*
X22453415Y-14015358D02*
G75*
G02*
X22353415Y-14015358I-50000J0D01*
G01*
X22353415Y-14015358D02*
G75*
G02*
X22453415Y-14015358I50000J0D01*
G01*
X23411924Y-13150239D02*
G75*
G02*
X23291924Y-13150239I-60000J0D01*
G01*
X23291924Y-13150239D02*
G75*
G02*
X23411924Y-13150239I60000J0D01*
G01*
X21507780Y-16558284D02*
G75*
G02*
X21407781Y-16558284I-50000J0D01*
G01*
X21407781Y-16558284D02*
G75*
G02*
X21507780Y-16558284I50000J0D01*
G01*
X22387280Y-15613789D02*
G75*
G02*
X22267279Y-15613789I-60000J0D01*
G01*
X22267279Y-15613789D02*
G75*
G02*
X22387280Y-15613789I60001J0D01*
G01*
X14884630Y-11113063D02*
G75*
G02*
X14784630Y-11113063I-50000J0D01*
G01*
X14784630Y-11113063D02*
G75*
G02*
X14884630Y-11113063I50000J0D01*
G01*
X16164749Y-10926247D02*
G75*
G02*
X16044748Y-10926247I-60000J0D01*
G01*
X16044748Y-10926247D02*
G75*
G02*
X16164749Y-10926247I60000J0D01*
G01*
X7418525Y-11656129D02*
G75*
G02*
X7318526Y-11656129I-50000J0D01*
G01*
X7318526Y-11656129D02*
G75*
G02*
X7418525Y-11656129I50000J0D01*
G01*
X8677528Y-11359325D02*
G75*
G02*
X8557527Y-11359325I-60000J0D01*
G01*
X8557527Y-11359325D02*
G75*
G02*
X8677528Y-11359325I60000J0D01*
G01*
X21956383Y-12389639D02*
G75*
G02*
X21856383Y-12389639I-50000J0D01*
G01*
X21856383Y-12389639D02*
G75*
G02*
X21956383Y-12389639I50000J0D01*
G01*
X22914892Y-11524521D02*
G75*
G02*
X22794892Y-11524521I-60000J0D01*
G01*
X22794892Y-11524521D02*
G75*
G02*
X22914892Y-11524521I60000J0D01*
G01*
X14973392Y-16924981D02*
G75*
G02*
X14873393Y-16924981I-50000J0D01*
G01*
X14873393Y-16924981D02*
G75*
G02*
X14973392Y-16924981I50000J0D01*
G01*
X16240808Y-17183836D02*
G75*
G02*
X16120807Y-17183836I-60001J0D01*
G01*
X16120807Y-17183836D02*
G75*
G02*
X16240808Y-17183836I60001J0D01*
G01*
X5755672Y-11302679D02*
G75*
G02*
X5655673Y-11302679I-50000J0D01*
G01*
X5655673Y-11302679D02*
G75*
G02*
X5755672Y-11302679I50000J0D01*
G01*
X7014675Y-11005874D02*
G75*
G02*
X6894674Y-11005874I-60000J0D01*
G01*
X6894674Y-11005874D02*
G75*
G02*
X7014675Y-11005874I60000J0D01*
G01*
X9598157Y-10960794D02*
G75*
G02*
X9498156Y-10960794I-50000J0D01*
G01*
X9498156Y-10960794D02*
G75*
G02*
X9598157Y-10960794I50000J0D01*
G01*
X10878275Y-10773977D02*
G75*
G02*
X10758274Y-10773977I-60000J0D01*
G01*
X10758274Y-10773977D02*
G75*
G02*
X10878275Y-10773977I60000J0D01*
G01*
X19892108Y-11452215D02*
G75*
G02*
X19792108Y-11452215I-50000J0D01*
G01*
X19792108Y-11452215D02*
G75*
G02*
X19892108Y-11452215I50000J0D01*
G01*
X20850617Y-10587096D02*
G75*
G02*
X20730617Y-10587096I-60000J0D01*
G01*
X20730617Y-10587096D02*
G75*
G02*
X20850617Y-10587096I60000J0D01*
G01*
X23903709Y-12944542D02*
G75*
G02*
X23803710Y-12944542I-50000J0D01*
G01*
X23803710Y-12944542D02*
G75*
G02*
X23903709Y-12944542I50000J0D01*
G01*
X24862219Y-12079423D02*
G75*
G02*
X24742218Y-12079423I-60000J0D01*
G01*
X24742218Y-12079423D02*
G75*
G02*
X24862219Y-12079423I60000J0D01*
G01*
X20886171Y-14703651D02*
G75*
G02*
X20786171Y-14703651I-50000J0D01*
G01*
X20786171Y-14703651D02*
G75*
G02*
X20886171Y-14703651I50000J0D01*
G01*
X21844680Y-13838532D02*
G75*
G02*
X21724680Y-13838532I-60000J0D01*
G01*
X21724680Y-13838532D02*
G75*
G02*
X21844680Y-13838532I60000J0D01*
G01*
X23406677Y-11318824D02*
G75*
G02*
X23306678Y-11318824I-50000J0D01*
G01*
X23306678Y-11318824D02*
G75*
G02*
X23406677Y-11318824I50000J0D01*
G01*
X24365187Y-10453706D02*
G75*
G02*
X24245186Y-10453706I-60000J0D01*
G01*
X24245186Y-10453706D02*
G75*
G02*
X24365187Y-10453706I60000J0D01*
G01*
X28642277Y-9881006D02*
G75*
G02*
X28542278Y-9881006I-50000J0D01*
G01*
X28542278Y-9881006D02*
G75*
G02*
X28642277Y-9881006I50000J0D01*
G01*
X29672577Y-9101847D02*
G75*
G02*
X29552576Y-9101847I-60000J0D01*
G01*
X29552576Y-9101847D02*
G75*
G02*
X29672577Y-9101847I60000J0D01*
G01*
X27686324Y-13560156D02*
G75*
G02*
X27586325Y-13560156I-50000J0D01*
G01*
X27586325Y-13560156D02*
G75*
G02*
X27686324Y-13560156I50000J0D01*
G01*
X28716624Y-12780997D02*
G75*
G02*
X28596624Y-12780997I-60000J0D01*
G01*
X28596624Y-12780997D02*
G75*
G02*
X28716624Y-12780997I60000J0D01*
G01*
X11642949Y-15559578D02*
G75*
G02*
X11542949Y-15559578I-50000J0D01*
G01*
X11542949Y-15559578D02*
G75*
G02*
X11642949Y-15559578I50000J0D01*
G01*
X12923067Y-15372761D02*
G75*
G02*
X12803067Y-15372761I-60000J0D01*
G01*
X12803067Y-15372761D02*
G75*
G02*
X12923067Y-15372761I60000J0D01*
G01*
X21459351Y-10763921D02*
G75*
G02*
X21359351Y-10763921I-50000J0D01*
G01*
X21359351Y-10763921D02*
G75*
G02*
X21459351Y-10763921I50000J0D01*
G01*
X22417860Y-9898802D02*
G75*
G02*
X22297860Y-9898802I-60000J0D01*
G01*
X22297860Y-9898802D02*
G75*
G02*
X22417860Y-9898802I60000J0D01*
G01*
X28995725Y-11543856D02*
G75*
G02*
X28895726Y-11543856I-50000J0D01*
G01*
X28895726Y-11543856D02*
G75*
G02*
X28995725Y-11543856I50000J0D01*
G01*
X30026025Y-10764697D02*
G75*
G02*
X29906025Y-10764697I-60000J0D01*
G01*
X29906025Y-10764697D02*
G75*
G02*
X30026025Y-10764697I60000J0D01*
G01*
X13890567Y-14364499D02*
G75*
G02*
X13790566Y-14364499I-50000J0D01*
G01*
X13790566Y-14364499D02*
G75*
G02*
X13890567Y-14364499I50000J0D01*
G01*
X15170685Y-14177683D02*
G75*
G02*
X15050685Y-14177683I-60000J0D01*
G01*
X15050685Y-14177683D02*
G75*
G02*
X15170685Y-14177683I60000J0D01*
G01*
X12820356Y-12050488D02*
G75*
G02*
X12720355Y-12050488I-50000J0D01*
G01*
X12720355Y-12050488D02*
G75*
G02*
X12820356Y-12050488I50000J0D01*
G01*
X14100474Y-11863672D02*
G75*
G02*
X13980474Y-11863672I-60000J0D01*
G01*
X13980474Y-11863672D02*
G75*
G02*
X14100474Y-11863672I60000J0D01*
G01*
X9101124Y-12586513D02*
G75*
G02*
X9001124Y-12586513I-50000J0D01*
G01*
X9001124Y-12586513D02*
G75*
G02*
X9101124Y-12586513I50000J0D01*
G01*
X10381242Y-12399696D02*
G75*
G02*
X10261242Y-12399696I-60000J0D01*
G01*
X10261242Y-12399696D02*
G75*
G02*
X10381242Y-12399696I60000J0D01*
G01*
X23133788Y-15898729D02*
G75*
G02*
X23033788Y-15898729I-50000J0D01*
G01*
X23033788Y-15898729D02*
G75*
G02*
X23133788Y-15898729I50000J0D01*
G01*
X24092297Y-15033610D02*
G75*
G02*
X23972297Y-15033610I-60000J0D01*
G01*
X23972297Y-15033610D02*
G75*
G02*
X24092297Y-15033610I60000J0D01*
G01*
X27332876Y-11897307D02*
G75*
G02*
X27232877Y-11897307I-50000J0D01*
G01*
X27232877Y-11897307D02*
G75*
G02*
X27332876Y-11897307I50000J0D01*
G01*
X28363176Y-11118147D02*
G75*
G02*
X28243176Y-11118147I-60000J0D01*
G01*
X28243176Y-11118147D02*
G75*
G02*
X28363176Y-11118147I60000J0D01*
G01*
X6109122Y-9639828D02*
G75*
G02*
X6009123Y-9639828I-50000J0D01*
G01*
X6009123Y-9639828D02*
G75*
G02*
X6109122Y-9639828I50000J0D01*
G01*
X7368125Y-9343023D02*
G75*
G02*
X7248124Y-9343023I-60000J0D01*
G01*
X7248124Y-9343023D02*
G75*
G02*
X7368125Y-9343023I60000J0D01*
G01*
X7771974Y-9993277D02*
G75*
G02*
X7671975Y-9993277I-50000J0D01*
G01*
X7671975Y-9993277D02*
G75*
G02*
X7771974Y-9993277I50000J0D01*
G01*
X9030977Y-9696473D02*
G75*
G02*
X8910976Y-9696473I-60000J0D01*
G01*
X8910976Y-9696473D02*
G75*
G02*
X9030977Y-9696473I60000J0D01*
G01*
X13302738Y-16123740D02*
G75*
G02*
X13202738Y-16123740I-50000J0D01*
G01*
X13202738Y-16123740D02*
G75*
G02*
X13302738Y-16123740I50000J0D01*
G01*
X14594304Y-16048333D02*
G75*
G02*
X14474305Y-16048333I-60000J0D01*
G01*
X14474305Y-16048333D02*
G75*
G02*
X14594304Y-16048333I60000J0D01*
G01*
X20389138Y-13077932D02*
G75*
G02*
X20289139Y-13077932I-50000J0D01*
G01*
X20289139Y-13077932D02*
G75*
G02*
X20389138Y-13077932I50000J0D01*
G01*
X21347648Y-12212813D02*
G75*
G02*
X21227647Y-12212813I-60000J0D01*
G01*
X21227647Y-12212813D02*
G75*
G02*
X21347648Y-12212813I60000J0D01*
G01*
X25675612Y-12925664D02*
G75*
G02*
X25575613Y-12925664I-50000J0D01*
G01*
X25575613Y-12925664D02*
G75*
G02*
X25675612Y-12925664I50000J0D01*
G01*
X26634122Y-12060545D02*
G75*
G02*
X26514122Y-12060545I-60000J0D01*
G01*
X26514122Y-12060545D02*
G75*
G02*
X26634122Y-12060545I60000J0D01*
G01*
X14387599Y-12738781D02*
G75*
G02*
X14287599Y-12738781I-50000J0D01*
G01*
X14287599Y-12738781D02*
G75*
G02*
X14387599Y-12738781I50000J0D01*
G01*
X15667717Y-12551965D02*
G75*
G02*
X15547717Y-12551965I-60000J0D01*
G01*
X15547717Y-12551965D02*
G75*
G02*
X15667717Y-12551965I60000J0D01*
G01*
X29349175Y-13206706D02*
G75*
G02*
X29249176Y-13206706I-50000J0D01*
G01*
X29249176Y-13206706D02*
G75*
G02*
X29349175Y-13206706I50000J0D01*
G01*
X30379475Y-12427547D02*
G75*
G02*
X30259475Y-12427547I-60000J0D01*
G01*
X30259475Y-12427547D02*
G75*
G02*
X30379475Y-12427547I60000J0D01*
G01*
X13317387Y-10424772D02*
G75*
G02*
X13217387Y-10424772I-50000J0D01*
G01*
X13217387Y-10424772D02*
G75*
G02*
X13317387Y-10424772I50000J0D01*
G01*
X14597506Y-10237955D02*
G75*
G02*
X14477505Y-10237955I-60000J0D01*
G01*
X14477505Y-10237955D02*
G75*
G02*
X14597506Y-10237955I60000J0D01*
G01*
X24681549Y-9674227D02*
G75*
G02*
X24581549Y-9674227I-50000J0D01*
G01*
X24581549Y-9674227D02*
G75*
G02*
X24681549Y-9674227I50000J0D01*
G01*
X25640058Y-8809108D02*
G75*
G02*
X25520058Y-8809108I-60000J0D01*
G01*
X25520058Y-8809108D02*
G75*
G02*
X25640058Y-8809108I60000J0D01*
G01*
X10873028Y-12605392D02*
G75*
G02*
X10773027Y-12605392I-50000J0D01*
G01*
X10773027Y-12605392D02*
G75*
G02*
X10873028Y-12605392I50000J0D01*
G01*
X12153146Y-12418576D02*
G75*
G02*
X12033146Y-12418576I-60000J0D01*
G01*
X12033146Y-12418576D02*
G75*
G02*
X12153146Y-12418576I60000J0D01*
G01*
X19986242Y-17623086D02*
G75*
G02*
X19886241Y-17623086I-50000J0D01*
G01*
X19886241Y-17623086D02*
G75*
G02*
X19986242Y-17623086I50000J0D01*
G01*
X20591660Y-16485732D02*
G75*
G02*
X20471659Y-16485732I-60000J0D01*
G01*
X20471659Y-16485732D02*
G75*
G02*
X20591660Y-16485732I60000J0D01*
G01*
X26979426Y-10234456D02*
G75*
G02*
X26879427Y-10234456I-50000J0D01*
G01*
X26879427Y-10234456D02*
G75*
G02*
X26979426Y-10234456I50000J0D01*
G01*
X28009726Y-9455296D02*
G75*
G02*
X27889726Y-9455296I-60000J0D01*
G01*
X27889726Y-9455296D02*
G75*
G02*
X28009726Y-9455296I60000J0D01*
G01*
X5402223Y-12965529D02*
G75*
G02*
X5302224Y-12965529I-50000J0D01*
G01*
X5302224Y-12965529D02*
G75*
G02*
X5402223Y-12965529I50000J0D01*
G01*
X6661226Y-12668725D02*
G75*
G02*
X6541225Y-12668725I-60000J0D01*
G01*
X6541225Y-12668725D02*
G75*
G02*
X6661226Y-12668725I60000J0D01*
G01*
X25178581Y-11299944D02*
G75*
G02*
X25078582Y-11299944I-50000J0D01*
G01*
X25078582Y-11299944D02*
G75*
G02*
X25178581Y-11299944I50000J0D01*
G01*
X26137091Y-10434826D02*
G75*
G02*
X26017091Y-10434826I-60000J0D01*
G01*
X26017091Y-10434826D02*
G75*
G02*
X26137091Y-10434826I60000J0D01*
G01*
D13*
D12*
X13807693Y-8932500D02*
X13897693Y-9022500D01*
X13897693Y-8932500D02*
X13807693Y-9022500D01*
X14067500Y-9082499D02*
X14157500Y-9172499D01*
X14157500Y-9082499D02*
X14067500Y-9172499D01*
D13*
X5091942Y-18733914D02*
X5091942Y-18533914D01*
X5091942Y-18533914D02*
X5139561Y-18533914D01*
X5139561Y-18533914D02*
X5168132Y-18543437D01*
X5168132Y-18543437D02*
X5187180Y-18562485D01*
X5187180Y-18562485D02*
X5196704Y-18581533D01*
X5196704Y-18581533D02*
X5206228Y-18619628D01*
X5206228Y-18619628D02*
X5206228Y-18648199D01*
X5206228Y-18648199D02*
X5196704Y-18686295D01*
X5196704Y-18686295D02*
X5187180Y-18705342D01*
X5187180Y-18705342D02*
X5168132Y-18724390D01*
X5168132Y-18724390D02*
X5139561Y-18733914D01*
X5139561Y-18733914D02*
X5091942Y-18733914D01*
X5291942Y-18733914D02*
X5291942Y-18600580D01*
X5291942Y-18638676D02*
X5301466Y-18619628D01*
X5301466Y-18619628D02*
X5310990Y-18610104D01*
X5310990Y-18610104D02*
X5330037Y-18600580D01*
X5330037Y-18600580D02*
X5349085Y-18600580D01*
X5415751Y-18733914D02*
X5415751Y-18600580D01*
X5415751Y-18533914D02*
X5406228Y-18543437D01*
X5406228Y-18543437D02*
X5415751Y-18552961D01*
X5415751Y-18552961D02*
X5425275Y-18543437D01*
X5425275Y-18543437D02*
X5415751Y-18533914D01*
X5415751Y-18533914D02*
X5415751Y-18552961D01*
X5539561Y-18733914D02*
X5520513Y-18724390D01*
X5520513Y-18724390D02*
X5510990Y-18705342D01*
X5510990Y-18705342D02*
X5510990Y-18533914D01*
X5644323Y-18733914D02*
X5625275Y-18724390D01*
X5625275Y-18724390D02*
X5615751Y-18705342D01*
X5615751Y-18705342D02*
X5615751Y-18533914D01*
X5872894Y-18733914D02*
X5872894Y-18533914D01*
X5872894Y-18533914D02*
X5939561Y-18676771D01*
X5939561Y-18676771D02*
X6006228Y-18533914D01*
X6006228Y-18533914D02*
X6006228Y-18733914D01*
X6187180Y-18733914D02*
X6187180Y-18629152D01*
X6187180Y-18629152D02*
X6177656Y-18610104D01*
X6177656Y-18610104D02*
X6158609Y-18600580D01*
X6158609Y-18600580D02*
X6120513Y-18600580D01*
X6120513Y-18600580D02*
X6101466Y-18610104D01*
X6187180Y-18724390D02*
X6168132Y-18733914D01*
X6168132Y-18733914D02*
X6120513Y-18733914D01*
X6120513Y-18733914D02*
X6101466Y-18724390D01*
X6101466Y-18724390D02*
X6091942Y-18705342D01*
X6091942Y-18705342D02*
X6091942Y-18686295D01*
X6091942Y-18686295D02*
X6101466Y-18667247D01*
X6101466Y-18667247D02*
X6120513Y-18657723D01*
X6120513Y-18657723D02*
X6168132Y-18657723D01*
X6168132Y-18657723D02*
X6187180Y-18648199D01*
X6282418Y-18600580D02*
X6282418Y-18800580D01*
X6282418Y-18610104D02*
X6301466Y-18600580D01*
X6301466Y-18600580D02*
X6339561Y-18600580D01*
X6339561Y-18600580D02*
X6358609Y-18610104D01*
X6358609Y-18610104D02*
X6368132Y-18619628D01*
X6368132Y-18619628D02*
X6377656Y-18638676D01*
X6377656Y-18638676D02*
X6377656Y-18695818D01*
X6377656Y-18695818D02*
X6368132Y-18714866D01*
X6368132Y-18714866D02*
X6358609Y-18724390D01*
X6358609Y-18724390D02*
X6339561Y-18733914D01*
X6339561Y-18733914D02*
X6301466Y-18733914D01*
X6301466Y-18733914D02*
X6282418Y-18724390D01*
X6463370Y-18714866D02*
X6472894Y-18724390D01*
X6472894Y-18724390D02*
X6463370Y-18733914D01*
X6463370Y-18733914D02*
X6453847Y-18724390D01*
X6453847Y-18724390D02*
X6463370Y-18714866D01*
X6463370Y-18714866D02*
X6463370Y-18733914D01*
X6463370Y-18610104D02*
X6472894Y-18619628D01*
X6472894Y-18619628D02*
X6463370Y-18629152D01*
X6463370Y-18629152D02*
X6453847Y-18619628D01*
X6453847Y-18619628D02*
X6463370Y-18610104D01*
X6463370Y-18610104D02*
X6463370Y-18629152D01*
D12*
X4741165Y-19017430D02*
X4831165Y-19107430D01*
X4831165Y-19017430D02*
X4741165Y-19107430D01*
D13*
X5130037Y-18953914D02*
X5149085Y-18953914D01*
X5149085Y-18953914D02*
X5168132Y-18963437D01*
X5168132Y-18963437D02*
X5177656Y-18972961D01*
X5177656Y-18972961D02*
X5187180Y-18992009D01*
X5187180Y-18992009D02*
X5196704Y-19030104D01*
X5196704Y-19030104D02*
X5196704Y-19077723D01*
X5196704Y-19077723D02*
X5187180Y-19115818D01*
X5187180Y-19115818D02*
X5177656Y-19134866D01*
X5177656Y-19134866D02*
X5168132Y-19144390D01*
X5168132Y-19144390D02*
X5149085Y-19153914D01*
X5149085Y-19153914D02*
X5130037Y-19153914D01*
X5130037Y-19153914D02*
X5110990Y-19144390D01*
X5110990Y-19144390D02*
X5101466Y-19134866D01*
X5101466Y-19134866D02*
X5091942Y-19115818D01*
X5091942Y-19115818D02*
X5082418Y-19077723D01*
X5082418Y-19077723D02*
X5082418Y-19030104D01*
X5082418Y-19030104D02*
X5091942Y-18992009D01*
X5091942Y-18992009D02*
X5101466Y-18972961D01*
X5101466Y-18972961D02*
X5110990Y-18963437D01*
X5110990Y-18963437D02*
X5130037Y-18953914D01*
X5282418Y-19134866D02*
X5291942Y-19144390D01*
X5291942Y-19144390D02*
X5282418Y-19153914D01*
X5282418Y-19153914D02*
X5272894Y-19144390D01*
X5272894Y-19144390D02*
X5282418Y-19134866D01*
X5282418Y-19134866D02*
X5282418Y-19153914D01*
X5387180Y-19153914D02*
X5425275Y-19153914D01*
X5425275Y-19153914D02*
X5444323Y-19144390D01*
X5444323Y-19144390D02*
X5453847Y-19134866D01*
X5453847Y-19134866D02*
X5472894Y-19106295D01*
X5472894Y-19106295D02*
X5482418Y-19068199D01*
X5482418Y-19068199D02*
X5482418Y-18992009D01*
X5482418Y-18992009D02*
X5472894Y-18972961D01*
X5472894Y-18972961D02*
X5463371Y-18963437D01*
X5463371Y-18963437D02*
X5444323Y-18953914D01*
X5444323Y-18953914D02*
X5406228Y-18953914D01*
X5406228Y-18953914D02*
X5387180Y-18963437D01*
X5387180Y-18963437D02*
X5377656Y-18972961D01*
X5377656Y-18972961D02*
X5368132Y-18992009D01*
X5368132Y-18992009D02*
X5368132Y-19039628D01*
X5368132Y-19039628D02*
X5377656Y-19058676D01*
X5377656Y-19058676D02*
X5387180Y-19068199D01*
X5387180Y-19068199D02*
X5406228Y-19077723D01*
X5406228Y-19077723D02*
X5444323Y-19077723D01*
X5444323Y-19077723D02*
X5463371Y-19068199D01*
X5463371Y-19068199D02*
X5472894Y-19058676D01*
X5472894Y-19058676D02*
X5482418Y-19039628D01*
X5606228Y-18953914D02*
X5625275Y-18953914D01*
X5625275Y-18953914D02*
X5644323Y-18963437D01*
X5644323Y-18963437D02*
X5653847Y-18972961D01*
X5653847Y-18972961D02*
X5663370Y-18992009D01*
X5663370Y-18992009D02*
X5672894Y-19030104D01*
X5672894Y-19030104D02*
X5672894Y-19077723D01*
X5672894Y-19077723D02*
X5663370Y-19115818D01*
X5663370Y-19115818D02*
X5653847Y-19134866D01*
X5653847Y-19134866D02*
X5644323Y-19144390D01*
X5644323Y-19144390D02*
X5625275Y-19153914D01*
X5625275Y-19153914D02*
X5606228Y-19153914D01*
X5606228Y-19153914D02*
X5587180Y-19144390D01*
X5587180Y-19144390D02*
X5577656Y-19134866D01*
X5577656Y-19134866D02*
X5568132Y-19115818D01*
X5568132Y-19115818D02*
X5558609Y-19077723D01*
X5558609Y-19077723D02*
X5558609Y-19030104D01*
X5558609Y-19030104D02*
X5568132Y-18992009D01*
X5568132Y-18992009D02*
X5577656Y-18972961D01*
X5577656Y-18972961D02*
X5587180Y-18963437D01*
X5587180Y-18963437D02*
X5606228Y-18953914D01*
X5796704Y-18953914D02*
X5815751Y-18953914D01*
X5815751Y-18953914D02*
X5834799Y-18963437D01*
X5834799Y-18963437D02*
X5844323Y-18972961D01*
X5844323Y-18972961D02*
X5853847Y-18992009D01*
X5853847Y-18992009D02*
X5863370Y-19030104D01*
X5863370Y-19030104D02*
X5863370Y-19077723D01*
X5863370Y-19077723D02*
X5853847Y-19115818D01*
X5853847Y-19115818D02*
X5844323Y-19134866D01*
X5844323Y-19134866D02*
X5834799Y-19144390D01*
X5834799Y-19144390D02*
X5815751Y-19153914D01*
X5815751Y-19153914D02*
X5796704Y-19153914D01*
X5796704Y-19153914D02*
X5777656Y-19144390D01*
X5777656Y-19144390D02*
X5768132Y-19134866D01*
X5768132Y-19134866D02*
X5758609Y-19115818D01*
X5758609Y-19115818D02*
X5749085Y-19077723D01*
X5749085Y-19077723D02*
X5749085Y-19030104D01*
X5749085Y-19030104D02*
X5758609Y-18992009D01*
X5758609Y-18992009D02*
X5768132Y-18972961D01*
X5768132Y-18972961D02*
X5777656Y-18963437D01*
X5777656Y-18963437D02*
X5796704Y-18953914D01*
X5949085Y-19153914D02*
X5949085Y-19020580D01*
X5949085Y-19039628D02*
X5958609Y-19030104D01*
X5958609Y-19030104D02*
X5977656Y-19020580D01*
X5977656Y-19020580D02*
X6006228Y-19020580D01*
X6006228Y-19020580D02*
X6025275Y-19030104D01*
X6025275Y-19030104D02*
X6034799Y-19049152D01*
X6034799Y-19049152D02*
X6034799Y-19153914D01*
X6034799Y-19049152D02*
X6044323Y-19030104D01*
X6044323Y-19030104D02*
X6063370Y-19020580D01*
X6063370Y-19020580D02*
X6091942Y-19020580D01*
X6091942Y-19020580D02*
X6110990Y-19030104D01*
X6110990Y-19030104D02*
X6120513Y-19049152D01*
X6120513Y-19049152D02*
X6120513Y-19153914D01*
X6215751Y-19153914D02*
X6215751Y-19020580D01*
X6215751Y-19039628D02*
X6225275Y-19030104D01*
X6225275Y-19030104D02*
X6244323Y-19020580D01*
X6244323Y-19020580D02*
X6272894Y-19020580D01*
X6272894Y-19020580D02*
X6291942Y-19030104D01*
X6291942Y-19030104D02*
X6301466Y-19049152D01*
X6301466Y-19049152D02*
X6301466Y-19153914D01*
X6301466Y-19049152D02*
X6310990Y-19030104D01*
X6310990Y-19030104D02*
X6330037Y-19020580D01*
X6330037Y-19020580D02*
X6358609Y-19020580D01*
X6358609Y-19020580D02*
X6377656Y-19030104D01*
X6377656Y-19030104D02*
X6387180Y-19049152D01*
X6387180Y-19049152D02*
X6387180Y-19153914D01*
X6777656Y-18944390D02*
X6606228Y-19201533D01*
X7034799Y-18953914D02*
X7053847Y-18953914D01*
X7053847Y-18953914D02*
X7072894Y-18963437D01*
X7072894Y-18963437D02*
X7082418Y-18972961D01*
X7082418Y-18972961D02*
X7091942Y-18992009D01*
X7091942Y-18992009D02*
X7101466Y-19030104D01*
X7101466Y-19030104D02*
X7101466Y-19077723D01*
X7101466Y-19077723D02*
X7091942Y-19115818D01*
X7091942Y-19115818D02*
X7082418Y-19134866D01*
X7082418Y-19134866D02*
X7072894Y-19144390D01*
X7072894Y-19144390D02*
X7053847Y-19153914D01*
X7053847Y-19153914D02*
X7034799Y-19153914D01*
X7034799Y-19153914D02*
X7015752Y-19144390D01*
X7015752Y-19144390D02*
X7006228Y-19134866D01*
X7006228Y-19134866D02*
X6996704Y-19115818D01*
X6996704Y-19115818D02*
X6987180Y-19077723D01*
X6987180Y-19077723D02*
X6987180Y-19030104D01*
X6987180Y-19030104D02*
X6996704Y-18992009D01*
X6996704Y-18992009D02*
X7006228Y-18972961D01*
X7006228Y-18972961D02*
X7015752Y-18963437D01*
X7015752Y-18963437D02*
X7034799Y-18953914D01*
X7187180Y-19134866D02*
X7196704Y-19144390D01*
X7196704Y-19144390D02*
X7187180Y-19153914D01*
X7187180Y-19153914D02*
X7177656Y-19144390D01*
X7177656Y-19144390D02*
X7187180Y-19134866D01*
X7187180Y-19134866D02*
X7187180Y-19153914D01*
X7320513Y-18953914D02*
X7339561Y-18953914D01*
X7339561Y-18953914D02*
X7358609Y-18963437D01*
X7358609Y-18963437D02*
X7368133Y-18972961D01*
X7368133Y-18972961D02*
X7377656Y-18992009D01*
X7377656Y-18992009D02*
X7387180Y-19030104D01*
X7387180Y-19030104D02*
X7387180Y-19077723D01*
X7387180Y-19077723D02*
X7377656Y-19115818D01*
X7377656Y-19115818D02*
X7368133Y-19134866D01*
X7368133Y-19134866D02*
X7358609Y-19144390D01*
X7358609Y-19144390D02*
X7339561Y-19153914D01*
X7339561Y-19153914D02*
X7320513Y-19153914D01*
X7320513Y-19153914D02*
X7301466Y-19144390D01*
X7301466Y-19144390D02*
X7291942Y-19134866D01*
X7291942Y-19134866D02*
X7282418Y-19115818D01*
X7282418Y-19115818D02*
X7272894Y-19077723D01*
X7272894Y-19077723D02*
X7272894Y-19030104D01*
X7272894Y-19030104D02*
X7282418Y-18992009D01*
X7282418Y-18992009D02*
X7291942Y-18972961D01*
X7291942Y-18972961D02*
X7301466Y-18963437D01*
X7301466Y-18963437D02*
X7320513Y-18953914D01*
X7453847Y-18953914D02*
X7577656Y-18953914D01*
X7577656Y-18953914D02*
X7510990Y-19030104D01*
X7510990Y-19030104D02*
X7539561Y-19030104D01*
X7539561Y-19030104D02*
X7558609Y-19039628D01*
X7558609Y-19039628D02*
X7568133Y-19049152D01*
X7568133Y-19049152D02*
X7577656Y-19068199D01*
X7577656Y-19068199D02*
X7577656Y-19115818D01*
X7577656Y-19115818D02*
X7568133Y-19134866D01*
X7568133Y-19134866D02*
X7558609Y-19144390D01*
X7558609Y-19144390D02*
X7539561Y-19153914D01*
X7539561Y-19153914D02*
X7482418Y-19153914D01*
X7482418Y-19153914D02*
X7463371Y-19144390D01*
X7463371Y-19144390D02*
X7453847Y-19134866D01*
X7758609Y-18953914D02*
X7663371Y-18953914D01*
X7663371Y-18953914D02*
X7653847Y-19049152D01*
X7653847Y-19049152D02*
X7663371Y-19039628D01*
X7663371Y-19039628D02*
X7682418Y-19030104D01*
X7682418Y-19030104D02*
X7730037Y-19030104D01*
X7730037Y-19030104D02*
X7749085Y-19039628D01*
X7749085Y-19039628D02*
X7758609Y-19049152D01*
X7758609Y-19049152D02*
X7768133Y-19068199D01*
X7768133Y-19068199D02*
X7768133Y-19115818D01*
X7768133Y-19115818D02*
X7758609Y-19134866D01*
X7758609Y-19134866D02*
X7749085Y-19144390D01*
X7749085Y-19144390D02*
X7730037Y-19153914D01*
X7730037Y-19153914D02*
X7682418Y-19153914D01*
X7682418Y-19153914D02*
X7663371Y-19144390D01*
X7663371Y-19144390D02*
X7653847Y-19134866D01*
X7939561Y-19020580D02*
X7939561Y-19153914D01*
X7891942Y-18944390D02*
X7844323Y-19087247D01*
X7844323Y-19087247D02*
X7968133Y-19087247D01*
X8034799Y-18953914D02*
X8034799Y-18992009D01*
X8110990Y-18953914D02*
X8110990Y-18992009D01*
X8406228Y-19230104D02*
X8396704Y-19220580D01*
X8396704Y-19220580D02*
X8377656Y-19192009D01*
X8377656Y-19192009D02*
X8368133Y-19172961D01*
X8368133Y-19172961D02*
X8358609Y-19144390D01*
X8358609Y-19144390D02*
X8349085Y-19096771D01*
X8349085Y-19096771D02*
X8349085Y-19058676D01*
X8349085Y-19058676D02*
X8358609Y-19011056D01*
X8358609Y-19011056D02*
X8368133Y-18982485D01*
X8368133Y-18982485D02*
X8377656Y-18963437D01*
X8377656Y-18963437D02*
X8396704Y-18934866D01*
X8396704Y-18934866D02*
X8406228Y-18925342D01*
X8472895Y-18972961D02*
X8482418Y-18963437D01*
X8482418Y-18963437D02*
X8501466Y-18953914D01*
X8501466Y-18953914D02*
X8549085Y-18953914D01*
X8549085Y-18953914D02*
X8568133Y-18963437D01*
X8568133Y-18963437D02*
X8577657Y-18972961D01*
X8577657Y-18972961D02*
X8587180Y-18992009D01*
X8587180Y-18992009D02*
X8587180Y-19011056D01*
X8587180Y-19011056D02*
X8577657Y-19039628D01*
X8577657Y-19039628D02*
X8463371Y-19153914D01*
X8463371Y-19153914D02*
X8587180Y-19153914D01*
X8825276Y-19153914D02*
X8825276Y-18953914D01*
X8910990Y-19153914D02*
X8910990Y-19049152D01*
X8910990Y-19049152D02*
X8901466Y-19030104D01*
X8901466Y-19030104D02*
X8882419Y-19020580D01*
X8882419Y-19020580D02*
X8853847Y-19020580D01*
X8853847Y-19020580D02*
X8834799Y-19030104D01*
X8834799Y-19030104D02*
X8825276Y-19039628D01*
X9034799Y-19153914D02*
X9015752Y-19144390D01*
X9015752Y-19144390D02*
X9006228Y-19134866D01*
X9006228Y-19134866D02*
X8996704Y-19115818D01*
X8996704Y-19115818D02*
X8996704Y-19058676D01*
X8996704Y-19058676D02*
X9006228Y-19039628D01*
X9006228Y-19039628D02*
X9015752Y-19030104D01*
X9015752Y-19030104D02*
X9034799Y-19020580D01*
X9034799Y-19020580D02*
X9063371Y-19020580D01*
X9063371Y-19020580D02*
X9082419Y-19030104D01*
X9082419Y-19030104D02*
X9091942Y-19039628D01*
X9091942Y-19039628D02*
X9101466Y-19058676D01*
X9101466Y-19058676D02*
X9101466Y-19115818D01*
X9101466Y-19115818D02*
X9091942Y-19134866D01*
X9091942Y-19134866D02*
X9082419Y-19144390D01*
X9082419Y-19144390D02*
X9063371Y-19153914D01*
X9063371Y-19153914D02*
X9034799Y-19153914D01*
X9215752Y-19153914D02*
X9196704Y-19144390D01*
X9196704Y-19144390D02*
X9187180Y-19125342D01*
X9187180Y-19125342D02*
X9187180Y-18953914D01*
X9368133Y-19144390D02*
X9349085Y-19153914D01*
X9349085Y-19153914D02*
X9310990Y-19153914D01*
X9310990Y-19153914D02*
X9291942Y-19144390D01*
X9291942Y-19144390D02*
X9282419Y-19125342D01*
X9282419Y-19125342D02*
X9282419Y-19049152D01*
X9282419Y-19049152D02*
X9291942Y-19030104D01*
X9291942Y-19030104D02*
X9310990Y-19020580D01*
X9310990Y-19020580D02*
X9349085Y-19020580D01*
X9349085Y-19020580D02*
X9368133Y-19030104D01*
X9368133Y-19030104D02*
X9377657Y-19049152D01*
X9377657Y-19049152D02*
X9377657Y-19068199D01*
X9377657Y-19068199D02*
X9282419Y-19087247D01*
X9453847Y-19144390D02*
X9472895Y-19153914D01*
X9472895Y-19153914D02*
X9510990Y-19153914D01*
X9510990Y-19153914D02*
X9530038Y-19144390D01*
X9530038Y-19144390D02*
X9539561Y-19125342D01*
X9539561Y-19125342D02*
X9539561Y-19115818D01*
X9539561Y-19115818D02*
X9530038Y-19096771D01*
X9530038Y-19096771D02*
X9510990Y-19087247D01*
X9510990Y-19087247D02*
X9482419Y-19087247D01*
X9482419Y-19087247D02*
X9463371Y-19077723D01*
X9463371Y-19077723D02*
X9453847Y-19058676D01*
X9453847Y-19058676D02*
X9453847Y-19049152D01*
X9453847Y-19049152D02*
X9463371Y-19030104D01*
X9463371Y-19030104D02*
X9482419Y-19020580D01*
X9482419Y-19020580D02*
X9510990Y-19020580D01*
X9510990Y-19020580D02*
X9530038Y-19030104D01*
X9606228Y-19230104D02*
X9615752Y-19220580D01*
X9615752Y-19220580D02*
X9634800Y-19192009D01*
X9634800Y-19192009D02*
X9644323Y-19172961D01*
X9644323Y-19172961D02*
X9653847Y-19144390D01*
X9653847Y-19144390D02*
X9663371Y-19096771D01*
X9663371Y-19096771D02*
X9663371Y-19058676D01*
X9663371Y-19058676D02*
X9653847Y-19011056D01*
X9653847Y-19011056D02*
X9644323Y-18982485D01*
X9644323Y-18982485D02*
X9634800Y-18963437D01*
X9634800Y-18963437D02*
X9615752Y-18934866D01*
X9615752Y-18934866D02*
X9606228Y-18925342D01*
X9968133Y-19230104D02*
X9958609Y-19220580D01*
X9958609Y-19220580D02*
X9939561Y-19192009D01*
X9939561Y-19192009D02*
X9930038Y-19172961D01*
X9930038Y-19172961D02*
X9920514Y-19144390D01*
X9920514Y-19144390D02*
X9910990Y-19096771D01*
X9910990Y-19096771D02*
X9910990Y-19058676D01*
X9910990Y-19058676D02*
X9920514Y-19011056D01*
X9920514Y-19011056D02*
X9930038Y-18982485D01*
X9930038Y-18982485D02*
X9939561Y-18963437D01*
X9939561Y-18963437D02*
X9958609Y-18934866D01*
X9958609Y-18934866D02*
X9968133Y-18925342D01*
X10044323Y-19020580D02*
X10044323Y-19153914D01*
X10044323Y-19039628D02*
X10053847Y-19030104D01*
X10053847Y-19030104D02*
X10072895Y-19020580D01*
X10072895Y-19020580D02*
X10101466Y-19020580D01*
X10101466Y-19020580D02*
X10120514Y-19030104D01*
X10120514Y-19030104D02*
X10130038Y-19049152D01*
X10130038Y-19049152D02*
X10130038Y-19153914D01*
X10253847Y-19153914D02*
X10234800Y-19144390D01*
X10234800Y-19144390D02*
X10225276Y-19134866D01*
X10225276Y-19134866D02*
X10215752Y-19115818D01*
X10215752Y-19115818D02*
X10215752Y-19058676D01*
X10215752Y-19058676D02*
X10225276Y-19039628D01*
X10225276Y-19039628D02*
X10234800Y-19030104D01*
X10234800Y-19030104D02*
X10253847Y-19020580D01*
X10253847Y-19020580D02*
X10282419Y-19020580D01*
X10282419Y-19020580D02*
X10301466Y-19030104D01*
X10301466Y-19030104D02*
X10310990Y-19039628D01*
X10310990Y-19039628D02*
X10320514Y-19058676D01*
X10320514Y-19058676D02*
X10320514Y-19115818D01*
X10320514Y-19115818D02*
X10310990Y-19134866D01*
X10310990Y-19134866D02*
X10301466Y-19144390D01*
X10301466Y-19144390D02*
X10282419Y-19153914D01*
X10282419Y-19153914D02*
X10253847Y-19153914D01*
X10377657Y-19020580D02*
X10453847Y-19020580D01*
X10406228Y-18953914D02*
X10406228Y-19125342D01*
X10406228Y-19125342D02*
X10415752Y-19144390D01*
X10415752Y-19144390D02*
X10434800Y-19153914D01*
X10434800Y-19153914D02*
X10453847Y-19153914D01*
X10672895Y-19020580D02*
X10672895Y-19220580D01*
X10672895Y-19030104D02*
X10691942Y-19020580D01*
X10691942Y-19020580D02*
X10730038Y-19020580D01*
X10730038Y-19020580D02*
X10749085Y-19030104D01*
X10749085Y-19030104D02*
X10758609Y-19039628D01*
X10758609Y-19039628D02*
X10768133Y-19058676D01*
X10768133Y-19058676D02*
X10768133Y-19115818D01*
X10768133Y-19115818D02*
X10758609Y-19134866D01*
X10758609Y-19134866D02*
X10749085Y-19144390D01*
X10749085Y-19144390D02*
X10730038Y-19153914D01*
X10730038Y-19153914D02*
X10691942Y-19153914D01*
X10691942Y-19153914D02*
X10672895Y-19144390D01*
X10882419Y-19153914D02*
X10863371Y-19144390D01*
X10863371Y-19144390D02*
X10853847Y-19125342D01*
X10853847Y-19125342D02*
X10853847Y-18953914D01*
X11044323Y-19153914D02*
X11044323Y-19049152D01*
X11044323Y-19049152D02*
X11034800Y-19030104D01*
X11034800Y-19030104D02*
X11015752Y-19020580D01*
X11015752Y-19020580D02*
X10977657Y-19020580D01*
X10977657Y-19020580D02*
X10958609Y-19030104D01*
X11044323Y-19144390D02*
X11025276Y-19153914D01*
X11025276Y-19153914D02*
X10977657Y-19153914D01*
X10977657Y-19153914D02*
X10958609Y-19144390D01*
X10958609Y-19144390D02*
X10949085Y-19125342D01*
X10949085Y-19125342D02*
X10949085Y-19106295D01*
X10949085Y-19106295D02*
X10958609Y-19087247D01*
X10958609Y-19087247D02*
X10977657Y-19077723D01*
X10977657Y-19077723D02*
X11025276Y-19077723D01*
X11025276Y-19077723D02*
X11044323Y-19068199D01*
X11110990Y-19020580D02*
X11187180Y-19020580D01*
X11139562Y-18953914D02*
X11139562Y-19125342D01*
X11139562Y-19125342D02*
X11149085Y-19144390D01*
X11149085Y-19144390D02*
X11168133Y-19153914D01*
X11168133Y-19153914D02*
X11187180Y-19153914D01*
X11330038Y-19144390D02*
X11310990Y-19153914D01*
X11310990Y-19153914D02*
X11272895Y-19153914D01*
X11272895Y-19153914D02*
X11253847Y-19144390D01*
X11253847Y-19144390D02*
X11244323Y-19125342D01*
X11244323Y-19125342D02*
X11244323Y-19049152D01*
X11244323Y-19049152D02*
X11253847Y-19030104D01*
X11253847Y-19030104D02*
X11272895Y-19020580D01*
X11272895Y-19020580D02*
X11310990Y-19020580D01*
X11310990Y-19020580D02*
X11330038Y-19030104D01*
X11330038Y-19030104D02*
X11339561Y-19049152D01*
X11339561Y-19049152D02*
X11339561Y-19068199D01*
X11339561Y-19068199D02*
X11244323Y-19087247D01*
X11510990Y-19153914D02*
X11510990Y-18953914D01*
X11510990Y-19144390D02*
X11491942Y-19153914D01*
X11491942Y-19153914D02*
X11453847Y-19153914D01*
X11453847Y-19153914D02*
X11434800Y-19144390D01*
X11434800Y-19144390D02*
X11425276Y-19134866D01*
X11425276Y-19134866D02*
X11415752Y-19115818D01*
X11415752Y-19115818D02*
X11415752Y-19058676D01*
X11415752Y-19058676D02*
X11425276Y-19039628D01*
X11425276Y-19039628D02*
X11434800Y-19030104D01*
X11434800Y-19030104D02*
X11453847Y-19020580D01*
X11453847Y-19020580D02*
X11491942Y-19020580D01*
X11491942Y-19020580D02*
X11510990Y-19030104D01*
X11587181Y-19230104D02*
X11596704Y-19220580D01*
X11596704Y-19220580D02*
X11615752Y-19192009D01*
X11615752Y-19192009D02*
X11625276Y-19172961D01*
X11625276Y-19172961D02*
X11634800Y-19144390D01*
X11634800Y-19144390D02*
X11644323Y-19096771D01*
X11644323Y-19096771D02*
X11644323Y-19058676D01*
X11644323Y-19058676D02*
X11634800Y-19011056D01*
X11634800Y-19011056D02*
X11625276Y-18982485D01*
X11625276Y-18982485D02*
X11615752Y-18963437D01*
X11615752Y-18963437D02*
X11596704Y-18934866D01*
X11596704Y-18934866D02*
X11587181Y-18925342D01*
M02*
