%TF.GenerationSoftware,KiCad,Pcbnew,8.0.6*%
%TF.CreationDate,2025-07-27T00:04:42+02:00*%
%TF.ProjectId,main,6d61696e-2e6b-4696-9361-645f70636258,v1.0.0*%
%TF.SameCoordinates,Original*%
%TF.FileFunction,Copper,L2,Bot*%
%TF.FilePolarity,Positive*%
%FSLAX46Y46*%
G04 Gerber Fmt 4.6, Leading zero omitted, Abs format (unit mm)*
G04 Created by KiCad (PCBNEW 8.0.6) date 2025-07-27 00:04:42*
%MOMM*%
%LPD*%
G01*
G04 APERTURE LIST*
G04 Aperture macros list*
%AMRoundRect*
0 Rectangle with rounded corners*
0 $1 Rounding radius*
0 $2 $3 $4 $5 $6 $7 $8 $9 X,Y pos of 4 corners*
0 Add a 4 corners polygon primitive as box body*
4,1,4,$2,$3,$4,$5,$6,$7,$8,$9,$2,$3,0*
0 Add four circle primitives for the rounded corners*
1,1,$1+$1,$2,$3*
1,1,$1+$1,$4,$5*
1,1,$1+$1,$6,$7*
1,1,$1+$1,$8,$9*
0 Add four rect primitives between the rounded corners*
20,1,$1+$1,$2,$3,$4,$5,0*
20,1,$1+$1,$4,$5,$6,$7,0*
20,1,$1+$1,$6,$7,$8,$9,0*
20,1,$1+$1,$8,$9,$2,$3,0*%
%AMRotRect*
0 Rectangle, with rotation*
0 The origin of the aperture is its center*
0 $1 length*
0 $2 width*
0 $3 Rotation angle, in degrees counterclockwise*
0 Add horizontal line*
21,1,$1,$2,0,0,$3*%
G04 Aperture macros list end*
%TA.AperFunction,ComponentPad*%
%ADD10C,1.400000*%
%TD*%
%TA.AperFunction,SMDPad,CuDef*%
%ADD11RotRect,1.550000X2.000000X17.000000*%
%TD*%
%TA.AperFunction,SMDPad,CuDef*%
%ADD12RotRect,1.550000X2.000000X343.000000*%
%TD*%
%TA.AperFunction,ComponentPad*%
%ADD13C,3.000000*%
%TD*%
%TA.AperFunction,SMDPad,CuDef*%
%ADD14RotRect,0.900000X1.200000X17.000000*%
%TD*%
%TA.AperFunction,SMDPad,CuDef*%
%ADD15RotRect,0.900000X1.200000X12.000000*%
%TD*%
%TA.AperFunction,SMDPad,CuDef*%
%ADD16RotRect,1.550000X2.000000X348.000000*%
%TD*%
%TA.AperFunction,SMDPad,CuDef*%
%ADD17RotRect,0.900000X1.200000X343.000000*%
%TD*%
%TA.AperFunction,SMDPad,CuDef*%
%ADD18RotRect,1.550000X2.000000X22.000000*%
%TD*%
%TA.AperFunction,SMDPad,CuDef*%
%ADD19RotRect,0.900000X1.200000X348.000000*%
%TD*%
%TA.AperFunction,SMDPad,CuDef*%
%ADD20RotRect,0.900000X1.200000X323.000000*%
%TD*%
%TA.AperFunction,SMDPad,CuDef*%
%ADD21RotRect,1.550000X2.000000X323.000000*%
%TD*%
%TA.AperFunction,ComponentPad*%
%ADD22RoundRect,0.240000X-0.360000X-0.635000X0.360000X-0.635000X0.360000X0.635000X-0.360000X0.635000X0*%
%TD*%
%TA.AperFunction,ComponentPad*%
%ADD23O,1.200000X1.750000*%
%TD*%
%TA.AperFunction,SMDPad,CuDef*%
%ADD24RotRect,0.900000X1.200000X22.000000*%
%TD*%
%TA.AperFunction,SMDPad,CuDef*%
%ADD25RotRect,0.900000X1.200000X37.000000*%
%TD*%
%TA.AperFunction,SMDPad,CuDef*%
%ADD26RotRect,1.550000X2.000000X12.000000*%
%TD*%
%TA.AperFunction,SMDPad,CuDef*%
%ADD27RotRect,1.550000X2.000000X338.000000*%
%TD*%
%TA.AperFunction,ComponentPad*%
%ADD28C,1.700000*%
%TD*%
%TA.AperFunction,SMDPad,CuDef*%
%ADD29RotRect,1.550000X2.000000X37.000000*%
%TD*%
%TA.AperFunction,SMDPad,CuDef*%
%ADD30RotRect,0.900000X1.200000X338.000000*%
%TD*%
%TA.AperFunction,ViaPad*%
%ADD31C,0.600000*%
%TD*%
%TA.AperFunction,Conductor*%
%ADD32C,0.200000*%
%TD*%
%TA.AperFunction,Conductor*%
%ADD33C,0.250000*%
%TD*%
G04 APERTURE END LIST*
D10*
%TO.P,CPG1316,1*%
%TO.N,P6*%
X255368687Y-111646611D03*
D11*
X255368687Y-111646611D03*
D10*
%TO.P,CPG1316,2*%
%TO.N,mirror_ring_home*%
X258237600Y-110769492D03*
D11*
X258237600Y-110769492D03*
%TD*%
D10*
%TO.P,CPG1316,1*%
%TO.N,P7*%
X117341949Y-110958296D03*
D12*
X117341949Y-110958296D03*
D10*
%TO.P,CPG1316,2*%
%TO.N,middle_home*%
X120210864Y-111835407D03*
D12*
X120210864Y-111835407D03*
%TD*%
D10*
%TO.P,CPG1316,1*%
%TO.N,P7*%
X122312270Y-94701118D03*
D12*
X122312270Y-94701118D03*
D10*
%TO.P,CPG1316,2*%
%TO.N,middle_top*%
X125181185Y-95578229D03*
D12*
X125181185Y-95578229D03*
%TD*%
D13*
%TO.P,REF\u002A\u002A,1*%
%TO.N,N/C*%
X92159025Y-137215350D03*
%TD*%
D10*
%TO.P,CPG1316,1*%
%TO.N,P8*%
X126874570Y-137923619D03*
D12*
X126874570Y-137923619D03*
D10*
%TO.P,CPG1316,2*%
%TO.N,index_bottom*%
X129743485Y-138800730D03*
D12*
X129743485Y-138800730D03*
%TD*%
D14*
%TO.P,D34,1*%
%TO.N,P2*%
X226409365Y-133728373D03*
%TO.P,D34,2*%
%TO.N,mirror_index_bottom*%
X229565183Y-132763549D03*
%TD*%
D15*
%TO.P,D26,1*%
%TO.N,P0*%
X275754944Y-112779312D03*
%TO.P,D26,2*%
%TO.N,mirror_pinky_home*%
X278982840Y-112093212D03*
%TD*%
D10*
%TO.P,CPG1316,1*%
%TO.N,P7*%
X232679329Y-95578236D03*
D11*
X232679329Y-95578236D03*
D10*
%TO.P,CPG1316,2*%
%TO.N,mirror_middle_top*%
X235548242Y-94701117D03*
D11*
X235548242Y-94701117D03*
%TD*%
D10*
%TO.P,CPG1316,1*%
%TO.N,P5*%
X74377569Y-133985994D03*
D16*
X74377569Y-133985994D03*
D10*
%TO.P,CPG1316,2*%
%TO.N,pinky_bottom*%
X77312010Y-134609731D03*
D16*
X77312010Y-134609731D03*
%TD*%
D10*
%TO.P,CPG1316,1*%
%TO.N,P6*%
X104593235Y-94512336D03*
D12*
X104593235Y-94512336D03*
D10*
%TO.P,CPG1316,2*%
%TO.N,ring_top*%
X107462150Y-95389447D03*
D12*
X107462150Y-95389447D03*
%TD*%
D17*
%TO.P,D10,1*%
%TO.N,P19*%
X113792383Y-122055404D03*
%TO.P,D10,2*%
%TO.N,middle_bottom*%
X116948177Y-123020220D03*
%TD*%
D14*
%TO.P,D29,1*%
%TO.N,P0*%
X253661051Y-106574235D03*
%TO.P,D29,2*%
%TO.N,mirror_ring_home*%
X256816869Y-105609411D03*
%TD*%
D15*
%TO.P,D25,1*%
%TO.N,P2*%
X279289451Y-129407823D03*
%TO.P,D25,2*%
%TO.N,mirror_pinky_bottom*%
X282517347Y-128721723D03*
%TD*%
D17*
%TO.P,D16,1*%
%TO.N,P19*%
X143967777Y-139646473D03*
%TO.P,D16,2*%
%TO.N,inner_bottom*%
X147123571Y-140611289D03*
%TD*%
D10*
%TO.P,CPG1316,1*%
%TO.N,P8*%
X228117026Y-138800749D03*
D11*
X228117026Y-138800749D03*
D10*
%TO.P,CPG1316,2*%
%TO.N,mirror_index_bottom*%
X230985939Y-137923630D03*
D11*
X230985939Y-137923630D03*
%TD*%
D10*
%TO.P,CPG1316,1*%
%TO.N,P8*%
X218527223Y-163879312D03*
D18*
X218527223Y-163879312D03*
D10*
%TO.P,CPG1316,2*%
%TO.N,mirror_home_thumb*%
X221308783Y-162755490D03*
D18*
X221308783Y-162755490D03*
%TD*%
D17*
%TO.P,D9,1*%
%TO.N,P21*%
X106013976Y-89352236D03*
%TO.P,D9,2*%
%TO.N,ring_top*%
X109169770Y-90317052D03*
%TD*%
D13*
%TO.P,REF\u002A\u002A,1*%
%TO.N,N/C*%
X108772841Y-142216276D03*
%TD*%
D19*
%TO.P,D3,1*%
%TO.N,P21*%
X65783647Y-91930202D03*
%TO.P,D3,2*%
%TO.N,outer_top*%
X69011567Y-92616312D03*
%TD*%
D13*
%TO.P,REF\u002A\u002A,1*%
%TO.N,N/C*%
X248041338Y-142637303D03*
%TD*%
D10*
%TO.P,CPG1316,1*%
%TO.N,P9*%
X152487657Y-112292198D03*
D12*
X152487657Y-112292198D03*
D10*
%TO.P,CPG1316,2*%
%TO.N,inner_top*%
X155356572Y-113169309D03*
D12*
X155356572Y-113169309D03*
%TD*%
D19*
%TO.P,D2,1*%
%TO.N,P20*%
X62249147Y-108558715D03*
%TO.P,D2,2*%
%TO.N,outer_home*%
X65477067Y-109244825D03*
%TD*%
D20*
%TO.P,D21,1*%
%TO.N,P18*%
X155828154Y-167394791D03*
%TO.P,D21,2*%
%TO.N,far_thumb*%
X158463642Y-169380763D03*
%TD*%
D10*
%TO.P,CPG1316,1*%
%TO.N,P5*%
X77912086Y-117357488D03*
D16*
X77912086Y-117357488D03*
D10*
%TO.P,CPG1316,2*%
%TO.N,pinky_home*%
X80846527Y-117981225D03*
D16*
X80846527Y-117981225D03*
%TD*%
D14*
%TO.P,D35,1*%
%TO.N,P0*%
X221439059Y-117471185D03*
%TO.P,D35,2*%
%TO.N,mirror_index_home*%
X224594877Y-116506361D03*
%TD*%
D10*
%TO.P,CPG1316,1*%
%TO.N,P8*%
X223146706Y-122543567D03*
D11*
X223146706Y-122543567D03*
D10*
%TO.P,CPG1316,2*%
%TO.N,mirror_index_home*%
X226015619Y-121666448D03*
D11*
X226015619Y-121666448D03*
%TD*%
D17*
%TO.P,D12,1*%
%TO.N,P21*%
X123733004Y-89541039D03*
%TO.P,D12,2*%
%TO.N,middle_top*%
X126888798Y-90505855D03*
%TD*%
D13*
%TO.P,REF\u002A\u002A,1*%
%TO.N,N/C*%
X265630036Y-137233756D03*
%TD*%
D10*
%TO.P,CPG1316,1*%
%TO.N,P9*%
X152728241Y-171757747D03*
D21*
X152728241Y-171757747D03*
D10*
%TO.P,CPG1316,2*%
%TO.N,far_thumb*%
X155124143Y-173563187D03*
D21*
X155124143Y-173563187D03*
%TD*%
D15*
%TO.P,D23,1*%
%TO.N,P0*%
X292383464Y-109244815D03*
%TO.P,D23,2*%
%TO.N,mirror_outer_home*%
X295611360Y-108558715D03*
%TD*%
D14*
%TO.P,D33,1*%
%TO.N,P1*%
X230971691Y-90505862D03*
%TO.P,D33,2*%
%TO.N,mirror_middle_top*%
X234127509Y-89541038D03*
%TD*%
D22*
%TO.P,JST1,1*%
%TO.N,GND*%
X164974996Y-118674998D03*
D23*
%TO.P,JST1,2*%
%TO.N,BAT_P*%
X166974990Y-118675010D03*
%TD*%
D19*
%TO.P,D4,1*%
%TO.N,P19*%
X75343161Y-128721730D03*
%TO.P,D4,2*%
%TO.N,pinky_bottom*%
X78571081Y-129407840D03*
%TD*%
D14*
%TO.P,D36,1*%
%TO.N,P1*%
X216468733Y-101214007D03*
%TO.P,D36,2*%
%TO.N,mirror_index_top*%
X219624551Y-100249183D03*
%TD*%
D24*
%TO.P,D41,1*%
%TO.N,P3*%
X216384023Y-158975079D03*
%TO.P,D41,2*%
%TO.N,mirror_home_thumb*%
X219443709Y-157738875D03*
%TD*%
D10*
%TO.P,CPG1316,1*%
%TO.N,P4*%
X61283550Y-113822985D03*
D16*
X61283550Y-113822985D03*
D10*
%TO.P,CPG1316,2*%
%TO.N,outer_home*%
X64217991Y-114446722D03*
D16*
X64217991Y-114446722D03*
%TD*%
D10*
%TO.P,CPG1316,1*%
%TO.N,P6*%
X99622913Y-110769501D03*
D12*
X99622913Y-110769501D03*
D10*
%TO.P,CPG1316,2*%
%TO.N,ring_home*%
X102491828Y-111646612D03*
D12*
X102491828Y-111646612D03*
%TD*%
D10*
%TO.P,CPG1316,1*%
%TO.N,P9*%
X202503956Y-113169316D03*
D11*
X202503956Y-113169316D03*
D10*
%TO.P,CPG1316,2*%
%TO.N,mirror_inner_top*%
X205372869Y-112292197D03*
D11*
X205372869Y-112292197D03*
%TD*%
D10*
%TO.P,CPG1316,1*%
%TO.N,P7*%
X242619971Y-128092591D03*
D11*
X242619971Y-128092591D03*
D10*
%TO.P,CPG1316,2*%
%TO.N,mirror_middle_bottom*%
X245488884Y-127215472D03*
D11*
X245488884Y-127215472D03*
%TD*%
D10*
%TO.P,CPG1316,1*%
%TO.N,P9*%
X212444581Y-145683687D03*
D11*
X212444581Y-145683687D03*
D10*
%TO.P,CPG1316,2*%
%TO.N,mirror_inner_bottom*%
X215313494Y-144806568D03*
D11*
X215313494Y-144806568D03*
%TD*%
D10*
%TO.P,CPG1316,1*%
%TO.N,P7*%
X237649652Y-111835415D03*
D11*
X237649652Y-111835415D03*
D10*
%TO.P,CPG1316,2*%
%TO.N,mirror_middle_home*%
X240518565Y-110958296D03*
D11*
X240518565Y-110958296D03*
%TD*%
D17*
%TO.P,D14,1*%
%TO.N,P20*%
X133265662Y-116506372D03*
%TO.P,D14,2*%
%TO.N,index_home*%
X136421456Y-117471188D03*
%TD*%
D13*
%TO.P,REF\u002A\u002A,1*%
%TO.N,N/C*%
X219600000Y-91075000D03*
%TD*%
D25*
%TO.P,D42,1*%
%TO.N,P3*%
X199396861Y-169380777D03*
%TO.P,D42,2*%
%TO.N,mirror_far_thumb*%
X202032365Y-167394769D03*
%TD*%
D14*
%TO.P,D30,1*%
%TO.N,P1*%
X248690734Y-90317064D03*
%TO.P,D30,2*%
%TO.N,mirror_ring_top*%
X251846552Y-89352240D03*
%TD*%
D15*
%TO.P,D22,1*%
%TO.N,P2*%
X295917967Y-125873332D03*
%TO.P,D22,2*%
%TO.N,mirror_outer_bottom*%
X299145863Y-125187232D03*
%TD*%
D17*
%TO.P,D7,1*%
%TO.N,P19*%
X96073340Y-121866596D03*
%TO.P,D7,2*%
%TO.N,ring_bottom*%
X99229134Y-122831412D03*
%TD*%
D10*
%TO.P,CPG1316,1*%
%TO.N,P4*%
X290108010Y-97818223D03*
D26*
X290108010Y-97818223D03*
D10*
%TO.P,CPG1316,2*%
%TO.N,mirror_outer_top*%
X293042454Y-97194490D03*
D26*
X293042454Y-97194490D03*
%TD*%
D10*
%TO.P,CPG1316,1*%
%TO.N,P5*%
X280548483Y-134609723D03*
D26*
X280548483Y-134609723D03*
D10*
%TO.P,CPG1316,2*%
%TO.N,mirror_pinky_bottom*%
X283482927Y-133985990D03*
D26*
X283482927Y-133985990D03*
%TD*%
D14*
%TO.P,D28,1*%
%TO.N,P2*%
X258631371Y-122831420D03*
%TO.P,D28,2*%
%TO.N,mirror_ring_bottom*%
X261787189Y-121866596D03*
%TD*%
%TO.P,D31,1*%
%TO.N,P2*%
X240912332Y-123020215D03*
%TO.P,D31,2*%
%TO.N,mirror_middle_bottom*%
X244068150Y-122055391D03*
%TD*%
D10*
%TO.P,CPG1316,1*%
%TO.N,P7*%
X120070840Y-156757345D03*
D12*
X120070840Y-156757345D03*
D10*
%TO.P,CPG1316,2*%
%TO.N,near_thumb*%
X122939755Y-157634456D03*
D12*
X122939755Y-157634456D03*
%TD*%
D19*
%TO.P,D6,1*%
%TO.N,P21*%
X82412157Y-95464704D03*
%TO.P,D6,2*%
%TO.N,pinky_top*%
X85640077Y-96150814D03*
%TD*%
D10*
%TO.P,CPG1316,1*%
%TO.N,P8*%
X218176386Y-106286386D03*
D11*
X218176386Y-106286386D03*
D10*
%TO.P,CPG1316,2*%
%TO.N,mirror_index_top*%
X221045299Y-105409267D03*
D11*
X221045299Y-105409267D03*
%TD*%
D14*
%TO.P,D37,1*%
%TO.N,P2*%
X210736937Y-140611292D03*
%TO.P,D37,2*%
%TO.N,mirror_inner_bottom*%
X213892755Y-139646468D03*
%TD*%
D10*
%TO.P,CPG1316,1*%
%TO.N,P4*%
X293642494Y-114446719D03*
D26*
X293642494Y-114446719D03*
D10*
%TO.P,CPG1316,2*%
%TO.N,mirror_outer_home*%
X296576938Y-113822986D03*
D26*
X296576938Y-113822986D03*
%TD*%
D10*
%TO.P,CPG1316,1*%
%TO.N,P9*%
X142547013Y-144806564D03*
D12*
X142547013Y-144806564D03*
D10*
%TO.P,CPG1316,2*%
%TO.N,inner_bottom*%
X145415928Y-145683675D03*
D12*
X145415928Y-145683675D03*
%TD*%
D10*
%TO.P,CPG1316,1*%
%TO.N,P8*%
X131844905Y-121666463D03*
D12*
X131844905Y-121666463D03*
D10*
%TO.P,CPG1316,2*%
%TO.N,index_home*%
X134713820Y-122543574D03*
D12*
X134713820Y-122543574D03*
%TD*%
D14*
%TO.P,D40,1*%
%TO.N,P3*%
X233213109Y-152562089D03*
%TO.P,D40,2*%
%TO.N,mirror_near_thumb*%
X236368927Y-151597265D03*
%TD*%
D10*
%TO.P,CPG1316,1*%
%TO.N,P6*%
X94652591Y-127026704D03*
D12*
X94652591Y-127026704D03*
D10*
%TO.P,CPG1316,2*%
%TO.N,ring_bottom*%
X97521506Y-127903815D03*
D12*
X97521506Y-127903815D03*
%TD*%
D19*
%TO.P,D5,1*%
%TO.N,P20*%
X78877654Y-112093221D03*
%TO.P,D5,2*%
%TO.N,pinky_home*%
X82105574Y-112779331D03*
%TD*%
D10*
%TO.P,CPG1316,1*%
%TO.N,P7*%
X234920756Y-157634456D03*
D11*
X234920756Y-157634456D03*
D10*
%TO.P,CPG1316,2*%
%TO.N,mirror_near_thumb*%
X237789669Y-156757337D03*
D11*
X237789669Y-156757337D03*
%TD*%
D10*
%TO.P,CPG1316,1*%
%TO.N,P5*%
X277014000Y-117981226D03*
D26*
X277014000Y-117981226D03*
D10*
%TO.P,CPG1316,2*%
%TO.N,mirror_pinky_home*%
X279948444Y-117357493D03*
D26*
X279948444Y-117357493D03*
%TD*%
D17*
%TO.P,D19,1*%
%TO.N,P18*%
X121491591Y-151597274D03*
%TO.P,D19,2*%
%TO.N,near_thumb*%
X124647385Y-152562090D03*
%TD*%
D10*
%TO.P,CPG1316,1*%
%TO.N,P4*%
X64818056Y-97194484D03*
D16*
X64818056Y-97194484D03*
D10*
%TO.P,CPG1316,2*%
%TO.N,outer_top*%
X67752497Y-97818221D03*
D16*
X67752497Y-97818221D03*
%TD*%
D10*
%TO.P,CPG1316,1*%
%TO.N,P5*%
X81446573Y-100728969D03*
D16*
X81446573Y-100728969D03*
D10*
%TO.P,CPG1316,2*%
%TO.N,pinky_top*%
X84381014Y-101352706D03*
D16*
X84381014Y-101352706D03*
%TD*%
D14*
%TO.P,D38,1*%
%TO.N,P0*%
X205766620Y-124354121D03*
%TO.P,D38,2*%
%TO.N,mirror_inner_home*%
X208922438Y-123389297D03*
%TD*%
D10*
%TO.P,CPG1316,1*%
%TO.N,P8*%
X136551735Y-162755499D03*
D27*
X136551735Y-162755499D03*
D10*
%TO.P,CPG1316,2*%
%TO.N,home_thumb*%
X139333286Y-163879312D03*
D27*
X139333286Y-163879312D03*
%TD*%
D28*
%TO.P,RST1,1*%
%TO.N,RST*%
X167074988Y-115349995D03*
%TO.P,RST1,2*%
%TO.N,GND*%
X167075006Y-108850001D03*
%TD*%
D10*
%TO.P,CPG1316,1*%
%TO.N,P9*%
X207474260Y-129426486D03*
D11*
X207474260Y-129426486D03*
D10*
%TO.P,CPG1316,2*%
%TO.N,mirror_inner_home*%
X210343173Y-128549367D03*
D11*
X210343173Y-128549367D03*
%TD*%
D13*
%TO.P,REF\u002A\u002A,1*%
%TO.N,N/C*%
X93622789Y-87365094D03*
%TD*%
D10*
%TO.P,CPG1316,1*%
%TO.N,P6*%
X260338996Y-127903816D03*
D11*
X260338996Y-127903816D03*
D10*
%TO.P,CPG1316,2*%
%TO.N,mirror_ring_bottom*%
X263207909Y-127026697D03*
D11*
X263207909Y-127026697D03*
%TD*%
D10*
%TO.P,CPG1316,1*%
%TO.N,P9*%
X147517340Y-128549383D03*
D12*
X147517340Y-128549383D03*
D10*
%TO.P,CPG1316,2*%
%TO.N,inner_home*%
X150386255Y-129426494D03*
D12*
X150386255Y-129426494D03*
%TD*%
D17*
%TO.P,D13,1*%
%TO.N,P19*%
X128295334Y-132763541D03*
%TO.P,D13,2*%
%TO.N,index_bottom*%
X131451128Y-133728357D03*
%TD*%
D14*
%TO.P,D39,1*%
%TO.N,P1*%
X200796288Y-108096938D03*
%TO.P,D39,2*%
%TO.N,mirror_inner_top*%
X203952106Y-107132114D03*
%TD*%
D13*
%TO.P,REF\u002A\u002A,1*%
%TO.N,N/C*%
X264127746Y-87342994D03*
%TD*%
%TO.P,REF\u002A\u002A,1*%
%TO.N,N/C*%
X155875000Y-152700000D03*
%TD*%
D10*
%TO.P,CPG1316,1*%
%TO.N,P4*%
X297177000Y-131075221D03*
D26*
X297177000Y-131075221D03*
D10*
%TO.P,CPG1316,2*%
%TO.N,mirror_outer_bottom*%
X300111444Y-130451488D03*
D26*
X300111444Y-130451488D03*
%TD*%
D13*
%TO.P,REF\u002A\u002A,1*%
%TO.N,N/C*%
X178900000Y-173650000D03*
%TD*%
D15*
%TO.P,D27,1*%
%TO.N,P1*%
X272220459Y-96150796D03*
%TO.P,D27,2*%
%TO.N,mirror_pinky_top*%
X275448355Y-95464696D03*
%TD*%
D10*
%TO.P,CPG1316,1*%
%TO.N,P8*%
X136815225Y-105409286D03*
D12*
X136815225Y-105409286D03*
D10*
%TO.P,CPG1316,2*%
%TO.N,index_top*%
X139684140Y-106286397D03*
D12*
X139684140Y-106286397D03*
%TD*%
D17*
%TO.P,D15,1*%
%TO.N,P21*%
X138235976Y-100249181D03*
%TO.P,D15,2*%
%TO.N,index_top*%
X141391770Y-101213997D03*
%TD*%
%TO.P,D17,1*%
%TO.N,P20*%
X148938090Y-123389295D03*
%TO.P,D17,2*%
%TO.N,inner_home*%
X152093884Y-124354111D03*
%TD*%
D13*
%TO.P,REF\u002A\u002A,1*%
%TO.N,N/C*%
X201875000Y-152675000D03*
%TD*%
D17*
%TO.P,D8,1*%
%TO.N,P20*%
X101043666Y-105609428D03*
%TO.P,D8,2*%
%TO.N,ring_home*%
X104199460Y-106574244D03*
%TD*%
%TO.P,D11,1*%
%TO.N,P20*%
X118762693Y-105798218D03*
%TO.P,D11,2*%
%TO.N,middle_home*%
X121918487Y-106763034D03*
%TD*%
D14*
%TO.P,D32,1*%
%TO.N,P0*%
X235942016Y-106763039D03*
%TO.P,D32,2*%
%TO.N,mirror_middle_home*%
X239097834Y-105798215D03*
%TD*%
D19*
%TO.P,D1,1*%
%TO.N,P19*%
X58714651Y-125187220D03*
%TO.P,D1,2*%
%TO.N,outer_bottom*%
X61942571Y-125873330D03*
%TD*%
D10*
%TO.P,CPG1316,1*%
%TO.N,P6*%
X250398366Y-95389438D03*
D11*
X250398366Y-95389438D03*
D10*
%TO.P,CPG1316,2*%
%TO.N,mirror_ring_top*%
X253267279Y-94512319D03*
D11*
X253267279Y-94512319D03*
%TD*%
D10*
%TO.P,CPG1316,1*%
%TO.N,P7*%
X112371622Y-127215493D03*
D12*
X112371622Y-127215493D03*
D10*
%TO.P,CPG1316,2*%
%TO.N,middle_bottom*%
X115240537Y-128092604D03*
D12*
X115240537Y-128092604D03*
%TD*%
D17*
%TO.P,D18,1*%
%TO.N,P21*%
X153908407Y-107132119D03*
%TO.P,D18,2*%
%TO.N,inner_top*%
X157064201Y-108096935D03*
%TD*%
D10*
%TO.P,CPG1316,1*%
%TO.N,P9*%
X202736363Y-173563195D03*
D29*
X202736363Y-173563195D03*
D10*
%TO.P,CPG1316,2*%
%TO.N,mirror_far_thumb*%
X205132274Y-171757756D03*
D29*
X205132274Y-171757756D03*
%TD*%
D10*
%TO.P,CPG1316,1*%
%TO.N,P5*%
X273479508Y-101352716D03*
D26*
X273479508Y-101352716D03*
D10*
%TO.P,CPG1316,2*%
%TO.N,mirror_pinky_top*%
X276413952Y-100728983D03*
D26*
X276413952Y-100728983D03*
%TD*%
D30*
%TO.P,D20,1*%
%TO.N,P18*%
X138416794Y-157738878D03*
%TO.P,D20,2*%
%TO.N,home_thumb*%
X141476502Y-158975080D03*
%TD*%
D15*
%TO.P,D24,1*%
%TO.N,P1*%
X288848963Y-92616314D03*
%TO.P,D24,2*%
%TO.N,mirror_outer_top*%
X292076859Y-91930214D03*
%TD*%
D10*
%TO.P,CPG1316,1*%
%TO.N,P4*%
X57749063Y-130451491D03*
D16*
X57749063Y-130451491D03*
D10*
%TO.P,CPG1316,2*%
%TO.N,outer_bottom*%
X60683504Y-131075228D03*
D16*
X60683504Y-131075228D03*
%TD*%
D28*
%TO.P,MCU1,1*%
%TO.N,P1*%
X186524988Y-107834998D03*
%TO.P,MCU1,2*%
%TO.N,P0*%
X186524984Y-110374992D03*
%TO.P,MCU1,3*%
%TO.N,GND*%
X186524992Y-112915001D03*
%TO.P,MCU1,4*%
X186524997Y-115454996D03*
%TO.P,MCU1,5*%
%TO.N,P2*%
X186524999Y-117995010D03*
%TO.P,MCU1,6*%
%TO.N,P3*%
X186524997Y-120534996D03*
%TO.P,MCU1,7*%
%TO.N,P4*%
X186524988Y-123075006D03*
%TO.P,MCU1,8*%
%TO.N,P5*%
X186524992Y-125615002D03*
%TO.P,MCU1,9*%
%TO.N,P6*%
X186524988Y-128154997D03*
%TO.P,MCU1,10*%
%TO.N,P7*%
X186524991Y-130695006D03*
%TO.P,MCU1,11*%
%TO.N,P8*%
X186524993Y-133234989D03*
%TO.P,MCU1,12*%
%TO.N,P9*%
X186524993Y-135775005D03*
%TO.P,MCU1,13*%
%TO.N,P10*%
X171284991Y-135774998D03*
%TO.P,MCU1,14*%
%TO.N,P16*%
X171284996Y-133234996D03*
%TO.P,MCU1,15*%
%TO.N,P14*%
X171285000Y-130695002D03*
%TO.P,MCU1,16*%
%TO.N,P15*%
X171284992Y-128154993D03*
%TO.P,MCU1,17*%
%TO.N,P18*%
X171284987Y-125614998D03*
%TO.P,MCU1,18*%
%TO.N,P19*%
X171284985Y-123074984D03*
%TO.P,MCU1,19*%
%TO.N,P20*%
X171284987Y-120534998D03*
%TO.P,MCU1,20*%
%TO.N,P21*%
X171284996Y-117994988D03*
%TO.P,MCU1,21*%
%TO.N,VCC*%
X171284992Y-115454992D03*
%TO.P,MCU1,22*%
%TO.N,RST*%
X171284996Y-112914997D03*
%TO.P,MCU1,23*%
%TO.N,GND*%
X171284993Y-110374988D03*
%TO.P,MCU1,24*%
%TO.N,RAW*%
X171284991Y-107835005D03*
%TD*%
D31*
%TO.N,P4*%
X165349998Y-128500008D03*
X149586282Y-118513270D03*
%TO.N,outer_bottom*%
X63116333Y-126122834D03*
%TO.N,outer_home*%
X66650826Y-109494317D03*
%TO.N,outer_top*%
X70185323Y-92865814D03*
%TO.N,P5*%
X166150006Y-128500003D03*
X149820191Y-117748213D03*
%TO.N,pinky_bottom*%
X79744844Y-129657329D03*
%TO.N,pinky_home*%
X83279338Y-113028815D03*
%TO.N,pinky_top*%
X86813843Y-96400306D03*
%TO.N,P6*%
X150054086Y-116983172D03*
X167000003Y-128500003D03*
%TO.N,ring_bottom*%
X100376718Y-123182266D03*
%TO.N,ring_home*%
X105347016Y-106925101D03*
%TO.N,ring_top*%
X110317347Y-90667917D03*
%TO.N,P7*%
X167799997Y-128499998D03*
X150287990Y-116218127D03*
%TO.N,middle_bottom*%
X118095741Y-123371063D03*
%TO.N,middle_home*%
X123066059Y-107113887D03*
%TO.N,middle_top*%
X128036381Y-90856705D03*
%TO.N,P8*%
X168600011Y-128500003D03*
X150584310Y-115419894D03*
%TO.N,index_bottom*%
X132598684Y-134079223D03*
%TO.N,index_home*%
X137569002Y-117822031D03*
%TO.N,index_top*%
X142539325Y-101564850D03*
%TO.N,P9*%
X169449999Y-128499997D03*
%TO.N,inner_bottom*%
X148271135Y-140962131D03*
%TO.N,inner_home*%
X153241453Y-124704966D03*
%TO.N,inner_top*%
X158211771Y-108447786D03*
%TO.N,near_thumb*%
X125794953Y-152912950D03*
%TO.N,home_thumb*%
X142589114Y-159424593D03*
%TO.N,far_thumb*%
X159422015Y-170102955D03*
%TO.N,mirror_outer_bottom*%
X300319627Y-124937731D03*
%TO.N,mirror_outer_home*%
X296785117Y-108309216D03*
%TO.N,mirror_outer_top*%
X293250634Y-91680715D03*
%TO.N,mirror_pinky_bottom*%
X283691102Y-128472234D03*
%TO.N,mirror_pinky_home*%
X280156611Y-111843709D03*
%TO.N,mirror_pinky_top*%
X276622106Y-95215211D03*
%TO.N,mirror_ring_bottom*%
X262934752Y-121515747D03*
%TO.N,mirror_ring_home*%
X257964430Y-105258568D03*
%TO.N,mirror_ring_top*%
X252994113Y-89001385D03*
%TO.N,mirror_middle_bottom*%
X245215699Y-121704545D03*
%TO.N,mirror_middle_home*%
X240245385Y-105447363D03*
%TO.N,mirror_middle_top*%
X235275061Y-89190184D03*
%TO.N,mirror_index_bottom*%
X230712755Y-132412694D03*
%TO.N,mirror_index_home*%
X225742420Y-116155515D03*
%TO.N,mirror_index_top*%
X220772108Y-99898331D03*
%TO.N,mirror_inner_bottom*%
X215040327Y-139295620D03*
%TO.N,mirror_inner_home*%
X210069996Y-123038446D03*
%TO.N,mirror_inner_top*%
X205099682Y-106781262D03*
%TO.N,mirror_near_thumb*%
X237516495Y-151246435D03*
%TO.N,mirror_home_thumb*%
X220556334Y-157289347D03*
%TO.N,mirror_far_thumb*%
X202990728Y-166672613D03*
%TO.N,P19*%
X112644802Y-121704539D03*
X74169406Y-128472223D03*
X127147757Y-132412697D03*
X94925759Y-121515744D03*
X57540887Y-124937735D03*
X142820190Y-139295614D03*
%TO.N,P20*%
X99896081Y-105258579D03*
X77703896Y-111843715D03*
X147790521Y-123038449D03*
X61075403Y-108309221D03*
X117615118Y-105447370D03*
X132118089Y-116155520D03*
%TO.N,P21*%
X137088390Y-99898327D03*
X64609888Y-91680711D03*
X104866405Y-89001387D03*
X152760820Y-106781264D03*
X122585441Y-89190196D03*
X81238400Y-95215200D03*
%TO.N,P18*%
X137304157Y-157289353D03*
X120344023Y-151246411D03*
X154869774Y-166672604D03*
%TO.N,P2*%
X278115670Y-129657333D03*
X257483801Y-123182273D03*
X239764758Y-123371070D03*
X294744183Y-126122827D03*
X209589394Y-140962138D03*
X225261814Y-134079212D03*
%TO.N,P0*%
X220291493Y-117822025D03*
X204619059Y-124704964D03*
X252513481Y-106925089D03*
X274581171Y-113028827D03*
X234794443Y-107113888D03*
X291209685Y-109494311D03*
%TO.N,P1*%
X229824131Y-90856714D03*
X287675177Y-92865809D03*
X271046673Y-96400301D03*
X199648745Y-108447781D03*
X215321184Y-101564861D03*
X247543169Y-90667911D03*
%TO.N,P3*%
X215271400Y-159424606D03*
X198438498Y-170102952D03*
X232065557Y-152912951D03*
%TD*%
D32*
%TO.N,P4*%
X59177351Y-110579729D02*
X61782697Y-98322540D01*
X166400004Y-123493399D02*
X166625005Y-123575002D01*
X63839910Y-96986572D02*
X61782697Y-98322540D01*
X165350000Y-128299991D02*
X165349998Y-128500008D01*
X151254645Y-118186777D02*
X160769874Y-121095870D01*
X256098587Y-92804117D02*
X257582375Y-97657366D01*
X296198858Y-131283134D02*
X296166186Y-131290086D01*
X214060629Y-99042404D02*
X226540419Y-95226966D01*
X192849998Y-106700000D02*
X213315970Y-100442939D01*
X61283543Y-113822989D02*
X59177351Y-110579729D01*
X241777013Y-95640264D02*
X244287314Y-94872791D01*
X150255704Y-118717920D02*
X151254645Y-118186777D01*
X58043169Y-116156146D02*
X55683360Y-127258117D01*
X259668704Y-98018844D02*
X262912513Y-100125399D01*
X187175005Y-123074999D02*
X188349998Y-121900000D01*
X188349998Y-121900000D02*
X188349993Y-108500003D01*
X297177001Y-131075223D02*
X296198859Y-131283136D01*
X61227120Y-114088459D02*
X58043169Y-116156146D01*
X291754788Y-116055254D02*
X292093073Y-115534339D01*
X293642496Y-114446720D02*
X292664365Y-114654638D01*
X237531513Y-93382891D02*
X241777013Y-95640264D01*
X188349993Y-108500003D02*
X190150007Y-106699995D01*
X288391188Y-96703300D02*
X290108015Y-97818220D01*
X290108015Y-97818220D02*
X288400635Y-100447362D01*
X63839922Y-96986574D02*
X63839910Y-96986572D01*
X257582375Y-97657366D02*
X258768620Y-98288104D01*
X262912513Y-100125399D02*
X267460904Y-99158612D01*
X291221285Y-113717499D02*
X292664365Y-114654638D01*
X160769874Y-121095870D02*
X161033435Y-121591564D01*
X294805178Y-130406245D02*
X291754788Y-116055254D01*
X227005162Y-94352886D02*
X236329135Y-91502270D01*
X258768620Y-98288104D02*
X259605072Y-98032379D01*
X259605072Y-98032379D02*
X259668704Y-98018844D01*
X149586282Y-118513270D02*
X150255704Y-118717920D01*
X226540419Y-95226966D02*
X227005162Y-94352886D01*
X64818046Y-97194480D02*
X63839922Y-96986574D01*
X167250004Y-126399992D02*
X165350000Y-128299991D01*
X244287314Y-94872791D02*
X254256792Y-91824815D01*
X254256792Y-91824815D02*
X256098587Y-92804117D01*
X166625005Y-123575002D02*
X167250004Y-124199993D01*
X166400004Y-123493399D02*
X161166700Y-121858299D01*
X190150007Y-106699995D02*
X192849998Y-106700000D01*
X269773717Y-100660567D02*
X281511487Y-98165620D01*
X167250004Y-124199993D02*
X167250004Y-126399992D01*
X236329135Y-91502270D02*
X237078336Y-91900623D01*
X292093073Y-115534339D02*
X292664365Y-114654638D01*
X291221285Y-113717499D02*
X288400635Y-100447362D01*
X281511487Y-98165620D02*
X288391188Y-96703300D01*
X296166186Y-131290086D02*
X294805178Y-130406245D01*
X57751058Y-130442089D02*
X55683360Y-127258117D01*
X213315970Y-100442939D02*
X214060629Y-99042404D01*
X267460904Y-99158612D02*
X269773717Y-100660567D01*
X296198859Y-131283136D02*
X296198858Y-131283134D01*
X161033435Y-121591564D02*
X161166700Y-121858299D01*
X237078336Y-91900623D02*
X237531513Y-93382891D01*
D33*
%TO.N,outer_bottom*%
X63116333Y-126122834D02*
X61942559Y-125873331D01*
%TO.N,outer_home*%
X66650826Y-109494317D02*
X65477043Y-109244832D01*
%TO.N,outer_top*%
X70185323Y-92865814D02*
X69011542Y-92616305D01*
D32*
%TO.N,P5*%
X80336863Y-100493102D02*
X81446568Y-100728976D01*
X262869740Y-100645654D02*
X267369215Y-99689268D01*
X150989074Y-117687311D02*
X161086861Y-120774501D01*
X74377567Y-133986000D02*
X72598712Y-131246798D01*
X188825006Y-108675006D02*
X190349999Y-107150003D01*
X259634757Y-98544829D02*
X262869740Y-100645654D01*
X272210803Y-105152020D02*
X274813151Y-117395101D01*
X80000270Y-100421565D02*
X79281651Y-100888234D01*
X77912082Y-117357491D02*
X75172871Y-119136352D01*
X231877743Y-93359887D02*
X236276741Y-92014977D01*
X163175091Y-122004615D02*
X166500002Y-123099999D01*
X76306518Y-114885140D02*
X77912082Y-117357491D01*
X236776217Y-92280550D02*
X237200162Y-93667194D01*
X161462527Y-121481042D02*
X161086861Y-120774501D01*
X167750010Y-126600000D02*
X167750000Y-124000003D01*
X255757946Y-93143542D02*
X257234418Y-97972872D01*
X269696866Y-101200845D02*
X272370539Y-100632538D01*
X278211999Y-133858299D02*
X275166093Y-119528429D01*
X186525008Y-125615004D02*
X188824996Y-123315002D01*
X276035851Y-118189139D02*
X276035840Y-118189132D01*
X193068629Y-107150010D02*
X213681123Y-100848129D01*
X150989074Y-117687311D02*
X150489605Y-117952875D01*
X227287486Y-94763264D02*
X231877743Y-93359887D01*
X79281651Y-100888234D02*
X76306518Y-114885140D01*
X166849988Y-123100003D02*
X166500002Y-123099999D01*
X274813151Y-117395101D02*
X276035840Y-118189132D01*
X80336863Y-100493102D02*
X80000270Y-100421565D01*
X150489605Y-117952875D02*
X149820191Y-117748213D01*
X259368224Y-98601481D02*
X259634757Y-98544829D01*
X278239639Y-133876245D02*
X278211999Y-133858299D01*
X273775072Y-102743252D02*
X272210803Y-105152020D01*
X241789040Y-96107151D02*
X254197097Y-92313623D01*
X72598712Y-131246798D02*
X75172871Y-119136352D01*
X279659916Y-134798591D02*
X279551299Y-134728056D01*
X163175091Y-122004615D02*
X161462527Y-121481042D01*
X213681123Y-100848129D02*
X214438582Y-99423556D01*
X166150000Y-128199999D02*
X167750010Y-126600000D01*
X272370539Y-100632538D02*
X273479504Y-101352718D01*
X258764047Y-98786191D02*
X259368224Y-98601481D01*
X273479504Y-101352718D02*
X273775072Y-102743252D01*
X214438582Y-99423556D02*
X226822729Y-95637346D01*
X226822729Y-95637346D02*
X227287486Y-94763264D01*
X280548488Y-134609722D02*
X279659916Y-134798591D01*
X188825005Y-108700008D02*
X188825006Y-108675006D01*
X254197097Y-92313623D02*
X255757946Y-93143542D01*
X236276741Y-92014977D02*
X236776217Y-92280550D01*
X275166093Y-119528429D02*
X276035840Y-118189132D01*
X257234418Y-97972872D02*
X258764047Y-98786191D01*
X277014002Y-117981230D02*
X276035851Y-118189139D01*
X279551299Y-134728056D02*
X278239639Y-133876245D01*
X167750000Y-124000003D02*
X166849988Y-123100003D01*
X188824996Y-123315002D02*
X188825005Y-108700008D01*
X267369215Y-99689268D02*
X269696866Y-101200845D01*
X190349999Y-107150003D02*
X193068629Y-107150010D01*
X237200162Y-93667194D02*
X241789040Y-96107151D01*
X166150006Y-128500003D02*
X166150000Y-128199999D01*
D33*
%TO.N,pinky_bottom*%
X79744844Y-129657329D02*
X78571078Y-129407835D01*
%TO.N,pinky_home*%
X83279338Y-113028815D02*
X82105556Y-112779328D01*
D32*
%TO.N,pinky_top*%
X84558936Y-101237160D02*
X85640075Y-96150817D01*
D33*
X86813843Y-96400306D02*
X85640059Y-96150814D01*
D32*
%TO.N,P6*%
X168199999Y-126999996D02*
X168199992Y-123799999D01*
X249443252Y-95681446D02*
X248982333Y-96548311D01*
X150054086Y-116983172D02*
X161434103Y-120462399D01*
X163448904Y-121653509D02*
X161799268Y-121149170D01*
X236868798Y-93951503D02*
X241769857Y-96557439D01*
X255368691Y-111646619D02*
X254174503Y-112011715D01*
X254174503Y-112011715D02*
X253439711Y-113393660D01*
X241769857Y-96557439D02*
X248643004Y-94456093D01*
X250398366Y-95389439D02*
X249443252Y-95681446D01*
X189350008Y-108750003D02*
X190549993Y-107549991D01*
X257728978Y-127316875D02*
X257690153Y-127296231D01*
X249442054Y-95681815D02*
X249442423Y-95683010D01*
X167049993Y-122649995D02*
X166475000Y-122650001D01*
X167000003Y-128500003D02*
X167000001Y-128200003D01*
X236868798Y-93951503D02*
X236488714Y-92708304D01*
X259382712Y-128196179D02*
X259382704Y-128196174D01*
X193234316Y-107550001D02*
X214016598Y-101196211D01*
X101382154Y-95418824D02*
X97612955Y-107747310D01*
X103636932Y-94219964D02*
X103636925Y-94219951D01*
X190549993Y-107549991D02*
X193234316Y-107550001D01*
X103636925Y-94219951D02*
X101382154Y-95418824D01*
X255368691Y-111646619D02*
X254233349Y-111993718D01*
X92646782Y-124760499D02*
X96400412Y-112482934D01*
X248982333Y-96548311D02*
X248484389Y-97484810D01*
X188049996Y-126629996D02*
X188049990Y-124974994D01*
X249442423Y-95683010D02*
X248982333Y-96548311D01*
X227586413Y-95142442D02*
X231674613Y-93892560D01*
X189349999Y-108849994D02*
X189350008Y-108750003D01*
X163448904Y-121653509D02*
X166475000Y-122650001D01*
X99622912Y-110769504D02*
X96400412Y-112482934D01*
X93696300Y-126734328D02*
X93696288Y-126734313D01*
X188049990Y-124974994D02*
X189350005Y-123674999D01*
X186524995Y-128155012D02*
X188049996Y-126629996D01*
X214728204Y-99857867D02*
X227088459Y-96078964D01*
X99141646Y-110622369D02*
X97612955Y-107747310D01*
X189350005Y-123674999D02*
X189349999Y-108849994D01*
X227088459Y-96078964D02*
X227586413Y-95142442D01*
X167000001Y-128200003D02*
X168199999Y-126999996D01*
X161799268Y-121149170D02*
X161434103Y-120462399D01*
X214016598Y-101196211D02*
X214728204Y-99857867D01*
X257690153Y-127296231D02*
X253439711Y-113393660D01*
X248643004Y-94456093D02*
X250398366Y-95389439D01*
X94652587Y-127026690D02*
X93696300Y-126734328D01*
X168199992Y-123799999D02*
X167049993Y-122649995D01*
X231674613Y-93892560D02*
X236145338Y-92525723D01*
X236488714Y-92708304D02*
X236145338Y-92525723D01*
X260339002Y-127903810D02*
X259382712Y-128196179D01*
X92646782Y-124760499D02*
X93696288Y-126734313D01*
X248484389Y-97484810D02*
X252665305Y-111159976D01*
X257728978Y-127316875D02*
X259382704Y-128196174D01*
X104593237Y-94512333D02*
X103636932Y-94219964D01*
X254233349Y-111993718D02*
X252665305Y-111159976D01*
D33*
%TO.N,ring_bottom*%
X100376718Y-123182266D02*
X99229147Y-122831428D01*
%TO.N,ring_home*%
X105347016Y-106925101D02*
X104199464Y-106574250D01*
%TO.N,ring_top*%
X110317347Y-90667917D02*
X109169760Y-90317072D01*
D32*
%TO.N,P7*%
X113996515Y-111449164D02*
X115803997Y-110488090D01*
X230553690Y-94758106D02*
X230553688Y-94758103D01*
X231366550Y-94509584D02*
X230553690Y-94758106D01*
X190799998Y-107949997D02*
X193400011Y-107949997D01*
X240661449Y-127861854D02*
X239974679Y-127496690D01*
X215089571Y-100270221D02*
X227473716Y-96484010D01*
X235235456Y-154238292D02*
X235779814Y-156018803D01*
X119037118Y-156319375D02*
X118347212Y-155021845D01*
X112371628Y-127215488D02*
X112056378Y-128246607D01*
X118347212Y-155021845D02*
X124201009Y-135874935D01*
X117341953Y-110958301D02*
X116385643Y-110665928D01*
X122258992Y-132222572D02*
X124201009Y-135874935D01*
X234479118Y-151764449D02*
X235235456Y-154238292D01*
X239571038Y-147083042D02*
X238309552Y-149455527D01*
X119743162Y-95266297D02*
X115889436Y-107871257D01*
X163757105Y-121329469D02*
X162083575Y-120817816D01*
X235201569Y-150405732D02*
X234479118Y-151764449D01*
X193400011Y-107949997D02*
X200586603Y-105752836D01*
X119743162Y-95266297D02*
X121355971Y-94408744D01*
X122312272Y-94701116D02*
X121355971Y-94408744D01*
X117341953Y-110958301D02*
X115820468Y-108096816D01*
X112371628Y-127215488D02*
X110342827Y-123399874D01*
X242619971Y-128092590D02*
X241651991Y-128388534D01*
X188600003Y-127024987D02*
X188599997Y-125275006D01*
X122258992Y-132222572D02*
X112600322Y-129269622D01*
X236693347Y-112127788D02*
X237649650Y-111835418D01*
X189849998Y-109200001D02*
X189849997Y-108899998D01*
X167299998Y-122250002D02*
X166574995Y-122249997D01*
X167799995Y-128299999D02*
X168600000Y-127499997D01*
X234992800Y-111223596D02*
X236693347Y-112127788D01*
X116385643Y-110665928D02*
X116385640Y-110665928D01*
X151222963Y-116922262D02*
X161718404Y-120131042D01*
X162083575Y-120817816D02*
X161718404Y-120131042D01*
X188599997Y-125275006D02*
X189849990Y-124024996D01*
X237649650Y-111835418D02*
X236085770Y-114776649D01*
X186979999Y-130694997D02*
X188025007Y-129650002D01*
X112056378Y-128246607D02*
X112600322Y-129269622D01*
X120070842Y-156757344D02*
X119114524Y-156464971D01*
X231723033Y-95870609D02*
X230818833Y-97571160D01*
X238309552Y-149455527D02*
X235201569Y-150405732D01*
X236376882Y-136635418D02*
X239571038Y-147083042D01*
X227473716Y-96484010D02*
X227971654Y-95547505D01*
X242619971Y-128092590D02*
X240589019Y-128713517D01*
X200586603Y-105752836D02*
X200588456Y-105749356D01*
X119114533Y-156464979D02*
X119037118Y-156319375D01*
X168600002Y-123549994D02*
X167299998Y-122250002D01*
X151222963Y-116922262D02*
X150957396Y-116422795D01*
X189849997Y-108899998D02*
X190799998Y-107949997D01*
X229967654Y-94937269D02*
X230553688Y-94758103D01*
X236376882Y-136635418D02*
X240589019Y-128713517D01*
X236085770Y-114776649D02*
X239974679Y-127496690D01*
X119114524Y-156464971D02*
X119037118Y-156319375D01*
X189850009Y-109000002D02*
X189849997Y-108899998D01*
X230818833Y-97571160D02*
X234992800Y-111223596D01*
X189849998Y-109200001D02*
X189850009Y-109000002D01*
X231366550Y-94509584D02*
X232544017Y-95135656D01*
X188025007Y-129650002D02*
X188025001Y-127600000D01*
X115820468Y-108096816D02*
X115889436Y-107871257D01*
X150957396Y-116422795D02*
X150287990Y-116218127D01*
X235779814Y-156018803D02*
X234920756Y-157634461D01*
X189849990Y-124024996D02*
X189849998Y-109200001D01*
X110342827Y-123399874D02*
X113996515Y-111449164D01*
X241663659Y-128384967D02*
X241651982Y-128388534D01*
X232679334Y-95578237D02*
X231723033Y-95870609D01*
X227971654Y-95547505D02*
X229967654Y-94937269D01*
X163757105Y-121329469D02*
X166574995Y-122249997D01*
X214425635Y-101518898D02*
X215089571Y-100270221D01*
X188025001Y-127600000D02*
X188600003Y-127024987D01*
X241651982Y-128388534D02*
X240661449Y-127861854D01*
X241651991Y-128388534D02*
X240661449Y-127861854D01*
X167799997Y-128499998D02*
X167799995Y-128299999D01*
X168600000Y-127499997D02*
X168600002Y-123549994D01*
X200588456Y-105749356D02*
X214425635Y-101518898D01*
X115803997Y-110488090D02*
X116385640Y-110665928D01*
D33*
%TO.N,middle_bottom*%
X118095741Y-123371063D02*
X116948188Y-123020227D01*
%TO.N,middle_home*%
X123066059Y-107113887D02*
X121918492Y-106763051D01*
%TO.N,middle_top*%
X128036381Y-90856705D02*
X126888816Y-90505865D01*
D32*
%TO.N,P8*%
X125094749Y-134576260D02*
X128295279Y-124107833D01*
X150584310Y-115419894D02*
X151110288Y-115580695D01*
X222913732Y-122614792D02*
X220190650Y-121166904D01*
X221731592Y-125244548D02*
X221723911Y-125219446D01*
X167499989Y-121850004D02*
X169050000Y-123400009D01*
X168600009Y-128299999D02*
X168600011Y-128500003D01*
X226380850Y-158139997D02*
X226339765Y-158156596D01*
X193549989Y-108450006D02*
X200569007Y-106304072D01*
X216566755Y-109313656D02*
X218176383Y-106286379D01*
X131844903Y-121666443D02*
X130148064Y-118475159D01*
X227160712Y-139093125D02*
X226349845Y-138661980D01*
X161401318Y-119615820D02*
X161930988Y-119777754D01*
X190299990Y-109150000D02*
X190299992Y-109150005D01*
X130148064Y-118475159D02*
X133916314Y-106149792D01*
X126874567Y-137923618D02*
X123495995Y-139720039D01*
X215625354Y-104929981D02*
X218176383Y-106286379D01*
X186525015Y-133235007D02*
X187465002Y-133235000D01*
X221723911Y-125219446D02*
X223146703Y-122543564D01*
X128497537Y-123446275D02*
X128295279Y-124107833D01*
X238083957Y-149027795D02*
X231739539Y-150967496D01*
X226349845Y-138661980D02*
X227160709Y-139093130D01*
X126874567Y-137923618D02*
X125094749Y-134576260D01*
X190299992Y-109150005D02*
X191000004Y-108450000D01*
X236096635Y-139753589D02*
X237044773Y-140257726D01*
X230363269Y-141506459D02*
X236096635Y-139753589D01*
X226349845Y-138661980D02*
X225733503Y-138334264D01*
X189250001Y-127174993D02*
X189249996Y-125474993D01*
X214387876Y-102079445D02*
X214824906Y-102311818D01*
X228668793Y-140605492D02*
X230363269Y-141506459D01*
X135076464Y-105532937D02*
X135858910Y-105116906D01*
X218783874Y-162039318D02*
X218271503Y-163246384D01*
X166650002Y-121849999D02*
X167499989Y-121850004D01*
X228348547Y-157344997D02*
X226380850Y-158139997D01*
X125684220Y-151203376D02*
X121715547Y-149990029D01*
X228117023Y-138800743D02*
X228668793Y-140605492D01*
X151110288Y-115580695D02*
X151492042Y-116298684D01*
X200569007Y-106304072D02*
X200569260Y-106304209D01*
X134416264Y-160759072D02*
X135970924Y-161387190D01*
X187465002Y-133235000D02*
X188524995Y-132174998D01*
X191000004Y-108450000D02*
X193549989Y-108450006D01*
X188525000Y-127899998D02*
X189250001Y-127174993D01*
X225733503Y-138334264D02*
X221731592Y-125244548D01*
X216566755Y-109313656D02*
X220190650Y-121166904D01*
X134416264Y-160759072D02*
X132144655Y-159841288D01*
X131844903Y-121666443D02*
X128497537Y-123446275D01*
X133916314Y-106149792D02*
X135076464Y-105532937D01*
X136815223Y-105409280D02*
X135858899Y-105116907D01*
X126713307Y-153138838D02*
X125684220Y-151203376D01*
X161930988Y-119777754D02*
X162002707Y-119799681D01*
X169050000Y-123400009D02*
X169050001Y-127849999D01*
X189249996Y-125474993D02*
X190300003Y-124424999D01*
X214824906Y-102311818D02*
X215625354Y-104929981D01*
X190300003Y-124424999D02*
X190299990Y-109150000D01*
X161401311Y-119615816D02*
X161401318Y-119615820D01*
X188524995Y-132174998D02*
X188525000Y-127899998D01*
X121715547Y-149990029D02*
X120852440Y-148366763D01*
X162367877Y-120486458D02*
X164041399Y-120998104D01*
X151492042Y-116298684D02*
X151674619Y-116642075D01*
X151674619Y-116642075D02*
X161401311Y-119615816D01*
X226339765Y-158156596D02*
X225914550Y-159158341D01*
X135970924Y-161387190D02*
X136551727Y-162755500D01*
X237044773Y-140257726D02*
X239126560Y-147066945D01*
X228679126Y-138628886D02*
X227160712Y-139093125D01*
X127475971Y-158413928D02*
X125967763Y-155577409D01*
X231739539Y-150967496D02*
X228348547Y-157344997D01*
X162002707Y-119799681D02*
X162367877Y-120486458D01*
X125967763Y-155577409D02*
X126713307Y-153138838D01*
X239126560Y-147066945D02*
X238083957Y-149027795D01*
X132144655Y-159841288D02*
X127475971Y-158413928D01*
X227160709Y-139093130D02*
X228117023Y-138800743D01*
X120852440Y-148366763D02*
X123495995Y-139720039D01*
X169050001Y-127849999D02*
X168600009Y-128299999D01*
X225914550Y-159158341D02*
X218783874Y-162039318D01*
X200569260Y-106304209D02*
X214387876Y-102079445D01*
X135858899Y-105116907D02*
X135076464Y-105532937D01*
X164041399Y-120998104D02*
X166650002Y-121849999D01*
D33*
%TO.N,index_bottom*%
X132598684Y-134079223D02*
X131451129Y-133728376D01*
%TO.N,index_home*%
X137569002Y-117822031D02*
X136421441Y-117471190D01*
%TO.N,index_top*%
X142539325Y-101564850D02*
X141391763Y-101214013D01*
D32*
%TO.N,P9*%
X201827758Y-110957574D02*
X198496304Y-109186212D01*
X126465860Y-155572830D02*
X126458564Y-155596736D01*
X142461704Y-145085594D02*
X140581527Y-146085306D01*
X236710696Y-140533116D02*
X236086351Y-140201151D01*
X211488276Y-145976048D02*
X209912593Y-145138251D01*
X167749995Y-121450008D02*
X169449998Y-123150004D01*
X152487651Y-112292201D02*
X151531341Y-111999826D01*
X200722395Y-115013765D02*
X201053933Y-114390206D01*
X209912593Y-145138251D02*
X205972527Y-132250838D01*
X203041142Y-171394580D02*
X202736361Y-173563197D01*
X145853701Y-125420530D02*
X149651187Y-112999517D01*
X227965842Y-157048121D02*
X231359599Y-150665361D01*
X189775016Y-125825003D02*
X189774993Y-127349991D01*
X134604634Y-144257977D02*
X133774717Y-142697127D01*
X191174997Y-108900004D02*
X190849989Y-109225010D01*
X189774993Y-127349991D02*
X189049998Y-128075003D01*
X136890881Y-161307870D02*
X141776695Y-163281864D01*
X132247835Y-159431941D02*
X136890881Y-161307870D01*
X208605211Y-167201756D02*
X203041142Y-171394580D01*
X190849989Y-109450001D02*
X190850004Y-110049995D01*
X127211411Y-153134250D02*
X126465860Y-155572830D01*
X211488285Y-145976053D02*
X211488276Y-145976048D01*
X164397430Y-120688674D02*
X166824997Y-121450005D01*
X236086351Y-140201151D02*
X213572593Y-147084296D01*
X144906831Y-167828689D02*
X150530716Y-172066588D01*
X212444580Y-145683684D02*
X211488285Y-145976053D01*
X189050001Y-133250011D02*
X186525007Y-135774998D01*
X147517338Y-128549376D02*
X145853701Y-125420530D01*
X160278775Y-118854341D02*
X162287006Y-119468325D01*
X190850004Y-124750002D02*
X189775016Y-125825003D01*
X197701453Y-107722483D02*
X196458272Y-108102565D01*
X162287006Y-119468325D02*
X162652172Y-120155099D01*
X212736948Y-146639977D02*
X212444580Y-145683684D01*
X151139112Y-112208380D02*
X151531341Y-111999826D01*
X142547014Y-144806560D02*
X140800387Y-141521633D01*
X126458564Y-155596736D02*
X127769818Y-158062879D01*
X121315359Y-148220712D02*
X122095481Y-149687911D01*
X152131743Y-116363551D02*
X160278775Y-118854341D01*
X126016328Y-150886647D02*
X127211411Y-153134250D01*
X190849989Y-109225010D02*
X190849989Y-109450001D01*
X141776695Y-163281864D02*
X143458284Y-167243440D01*
X238695601Y-147025440D02*
X236710696Y-140533116D01*
X217610653Y-162081913D02*
X225611086Y-158849535D01*
X196458272Y-108102565D02*
X193850004Y-108899998D01*
X162652172Y-120155099D02*
X164397430Y-120688674D01*
X205972527Y-132250838D02*
X207474262Y-129426493D01*
X208605211Y-167201756D02*
X212843465Y-164007995D01*
X207474262Y-129426493D02*
X204673500Y-127937301D01*
X152096655Y-116297548D02*
X152131743Y-116363551D01*
X152487651Y-112292201D02*
X151567405Y-115302184D01*
X166824997Y-121450005D02*
X167749995Y-121450008D01*
X204673500Y-127937301D02*
X200722395Y-115013765D01*
X212843465Y-164007995D02*
X217610653Y-162081913D01*
X143458284Y-167243440D02*
X144906831Y-167828689D01*
X152728235Y-171757751D02*
X150530716Y-172066588D01*
X169449998Y-123150004D02*
X169449999Y-128499997D01*
X140800387Y-141521633D02*
X144232408Y-130296010D01*
X202503953Y-113169322D02*
X201827758Y-110957574D01*
X149651187Y-112999517D02*
X151139112Y-112208380D01*
X190850004Y-110049995D02*
X190850004Y-124750002D01*
X198496304Y-109186212D02*
X198116223Y-107943017D01*
X151567405Y-115302184D02*
X152096655Y-116297548D01*
X231359599Y-150665361D02*
X237808558Y-148693712D01*
X147517338Y-128549376D02*
X145642300Y-129546356D01*
X191174997Y-108900004D02*
X193850004Y-108899998D01*
X226046598Y-157823540D02*
X226264480Y-157735516D01*
X122095481Y-149687911D02*
X126016328Y-150886647D01*
X144232408Y-130296010D02*
X145642300Y-129546356D01*
X237808558Y-148693712D02*
X238695601Y-147025440D01*
X198116223Y-107943017D02*
X197701453Y-107722483D01*
X124234508Y-139780388D02*
X123830076Y-139995430D01*
X226264480Y-157735516D02*
X227965842Y-157048121D01*
X189049998Y-128075003D02*
X189050001Y-133250011D01*
X121315359Y-148220712D02*
X123830076Y-139995430D01*
X127769818Y-158062879D02*
X132247835Y-159431941D01*
X213572593Y-147084296D02*
X212736948Y-146639977D01*
X201053933Y-114390206D02*
X201547631Y-113461697D01*
X201547631Y-113461697D02*
X202503953Y-113169322D01*
X139242710Y-145675985D02*
X140581527Y-146085306D01*
X133774717Y-142697127D02*
X124234508Y-139780388D01*
X139242710Y-145675985D02*
X134604634Y-144257977D01*
X225611086Y-158849535D02*
X226046598Y-157823540D01*
D33*
%TO.N,inner_bottom*%
X148271135Y-140962131D02*
X147123570Y-140611299D01*
%TO.N,inner_home*%
X153241453Y-124704966D02*
X152093878Y-124354126D01*
%TO.N,inner_top*%
X158211771Y-108447786D02*
X157064198Y-108096935D01*
%TO.N,near_thumb*%
X125794953Y-152912950D02*
X124647393Y-152562093D01*
%TO.N,home_thumb*%
X142589114Y-159424593D02*
X141476502Y-158975074D01*
%TO.N,far_thumb*%
X159422015Y-170102955D02*
X158463653Y-169380772D01*
%TO.N,mirror_outer_bottom*%
X300319627Y-124937731D02*
X299145847Y-125187214D01*
%TO.N,mirror_outer_home*%
X296785117Y-108309216D02*
X295611345Y-108558716D01*
%TO.N,mirror_outer_top*%
X293250634Y-91680715D02*
X292076835Y-91930204D01*
%TO.N,mirror_pinky_bottom*%
X283691102Y-128472234D02*
X282517337Y-128721716D01*
%TO.N,mirror_pinky_home*%
X280156611Y-111843709D02*
X278982834Y-112093219D01*
%TO.N,mirror_pinky_top*%
X276622106Y-95215211D02*
X275448338Y-95464700D01*
%TO.N,mirror_ring_bottom*%
X262934752Y-121515747D02*
X261787188Y-121866596D01*
%TO.N,mirror_ring_home*%
X257964430Y-105258568D02*
X256816862Y-105609415D01*
%TO.N,mirror_ring_top*%
X252994113Y-89001385D02*
X251846548Y-89352239D01*
%TO.N,mirror_middle_bottom*%
X245215699Y-121704545D02*
X244068130Y-122055392D01*
%TO.N,mirror_middle_home*%
X240245385Y-105447363D02*
X239097823Y-105798211D01*
%TO.N,mirror_middle_top*%
X235275061Y-89190184D02*
X234127501Y-89541034D01*
%TO.N,mirror_index_bottom*%
X230712755Y-132412694D02*
X229565190Y-132763542D01*
%TO.N,mirror_index_home*%
X225742420Y-116155515D02*
X224594863Y-116506366D01*
%TO.N,mirror_index_top*%
X220772108Y-99898331D02*
X219624558Y-100249177D01*
%TO.N,mirror_inner_bottom*%
X215040327Y-139295620D02*
X213892757Y-139646465D01*
%TO.N,mirror_inner_home*%
X210069996Y-123038446D02*
X208922432Y-123389283D01*
%TO.N,mirror_inner_top*%
X205099682Y-106781262D02*
X203952122Y-107132107D01*
%TO.N,mirror_near_thumb*%
X237516495Y-151246435D02*
X236368930Y-151597278D01*
%TO.N,mirror_home_thumb*%
X220556334Y-157289347D02*
X219443715Y-157738867D01*
%TO.N,mirror_far_thumb*%
X202990728Y-166672613D02*
X202032363Y-167394787D01*
%TO.N,P19*%
X112644802Y-121704539D02*
X113792370Y-122055388D01*
X74169406Y-128472223D02*
X75343179Y-128721725D01*
X142820190Y-139295614D02*
X143967755Y-139646473D01*
X127147757Y-132412697D02*
X128295326Y-132763549D01*
X57540887Y-124937735D02*
X58714672Y-125187225D01*
X94925759Y-121515744D02*
X96073329Y-121866604D01*
%TO.N,P20*%
X147790521Y-123038449D02*
X148938086Y-123389289D01*
X132118089Y-116155520D02*
X133265644Y-116506356D01*
X117615118Y-105447370D02*
X118762712Y-105798214D01*
X61075403Y-108309221D02*
X62249158Y-108558707D01*
X77703896Y-111843715D02*
X78877686Y-112093206D01*
X99896081Y-105258579D02*
X101043661Y-105609427D01*
%TO.N,P21*%
X122585441Y-89190196D02*
X123733013Y-89541039D01*
X104866405Y-89001387D02*
X106013982Y-89352241D01*
X81238400Y-95215200D02*
X82412158Y-95464694D01*
X152760820Y-106781264D02*
X153908390Y-107132111D01*
X137088390Y-99898327D02*
X138235955Y-100249171D01*
X64609888Y-91680711D02*
X65783655Y-91930202D01*
%TO.N,P18*%
X120344023Y-151246411D02*
X121491584Y-151597269D01*
X154869774Y-166672604D02*
X155828141Y-167394784D01*
X137304157Y-157289353D02*
X138416789Y-157738867D01*
%TO.N,P2*%
X225261814Y-134079212D02*
X226409376Y-133728368D01*
X257483801Y-123182273D02*
X258631382Y-122831433D01*
X239764758Y-123371070D02*
X240912341Y-123020224D01*
X294744183Y-126122827D02*
X295917951Y-125873323D01*
X278115670Y-129657333D02*
X279289451Y-129407837D01*
X209589394Y-140962138D02*
X210736946Y-140611300D01*
%TO.N,P0*%
X252513481Y-106925089D02*
X253661060Y-106574238D01*
X204619059Y-124704964D02*
X205766628Y-124354115D01*
X234794443Y-107113888D02*
X235942022Y-106763038D01*
X220291493Y-117822025D02*
X221439053Y-117471189D01*
X291209685Y-109494311D02*
X292383461Y-109244840D01*
X274581171Y-113028827D02*
X275754950Y-112779317D01*
%TO.N,P1*%
X199648745Y-108447781D02*
X200796327Y-108096948D01*
X229824131Y-90856714D02*
X230971702Y-90505859D01*
X287675177Y-92865809D02*
X288848968Y-92616308D01*
X247543169Y-90667911D02*
X248690734Y-90317059D01*
X271046673Y-96400301D02*
X272220453Y-96150804D01*
X215321184Y-101564861D02*
X216468742Y-101214008D01*
%TO.N,P3*%
X232065557Y-152912951D02*
X233213125Y-152562098D01*
X215271400Y-159424606D02*
X216384009Y-158975076D01*
X198438498Y-170102952D02*
X199396859Y-169380773D01*
D32*
%TO.N,GND*%
X169525003Y-116075007D02*
X169524997Y-111624997D01*
X169524997Y-111624997D02*
X170774996Y-110375005D01*
X164974996Y-118674993D02*
X166450000Y-117199992D01*
X168399996Y-117199993D02*
X169525003Y-116075007D01*
X166450000Y-117199992D02*
X168399996Y-117199993D01*
%TD*%
M02*
