%TF.GenerationSoftware,KiCad,Pcbnew,8.0.6*%
%TF.CreationDate,2025-06-24T00:53:43+02:00*%
%TF.ProjectId,main,6d61696e-2e6b-4696-9361-645f70636258,v1.0.0*%
%TF.SameCoordinates,Original*%
%TF.FileFunction,Soldermask,Bot*%
%TF.FilePolarity,Negative*%
%FSLAX46Y46*%
G04 Gerber Fmt 4.6, Leading zero omitted, Abs format (unit mm)*
G04 Created by KiCad (PCBNEW 8.0.6) date 2025-06-24 00:53:43*
%MOMM*%
%LPD*%
G01*
G04 APERTURE LIST*
G04 Aperture macros list*
%AMRoundRect*
0 Rectangle with rounded corners*
0 $1 Rounding radius*
0 $2 $3 $4 $5 $6 $7 $8 $9 X,Y pos of 4 corners*
0 Add a 4 corners polygon primitive as box body*
4,1,4,$2,$3,$4,$5,$6,$7,$8,$9,$2,$3,0*
0 Add four circle primitives for the rounded corners*
1,1,$1+$1,$2,$3*
1,1,$1+$1,$4,$5*
1,1,$1+$1,$6,$7*
1,1,$1+$1,$8,$9*
0 Add four rect primitives between the rounded corners*
20,1,$1+$1,$2,$3,$4,$5,0*
20,1,$1+$1,$4,$5,$6,$7,0*
20,1,$1+$1,$6,$7,$8,$9,0*
20,1,$1+$1,$8,$9,$2,$3,0*%
G04 Aperture macros list end*
%ADD10C,1.500000*%
%ADD11RoundRect,0.050000X-0.448764X-1.182893X1.033508X-0.729717X0.448764X1.182893X-1.033508X0.729717X0*%
%ADD12RoundRect,0.050000X-1.033508X-0.729717X0.448764X-1.182893X1.033508X0.729717X-0.448764X1.182893X0*%
%ADD13RoundRect,0.050000X-0.254914X-0.705350X0.605760X-0.442216X0.254914X0.705350X-0.605760X0.442216X0*%
%ADD14RoundRect,0.050000X-0.315419X-0.680449X0.564913X-0.493328X0.315419X0.680449X-0.564913X0.493328X0*%
%ADD15RoundRect,0.050000X-0.965976X-0.817016X0.550153X-1.139279X0.965976X0.817016X-0.550153X1.139279X0*%
%ADD16RoundRect,0.050000X-0.605760X-0.442216X0.254914X-0.705350X0.605760X0.442216X-0.254914X0.705350X0*%
%ADD17RoundRect,0.050000X-0.343961X-1.217504X1.093174X-0.636864X0.343961X1.217504X-1.093174X0.636864X0*%
%ADD18RoundRect,0.050000X-0.564913X-0.493328X0.315419X-0.680449X0.564913X0.493328X-0.315419X0.680449X0*%
%ADD19RoundRect,0.050000X-0.720475X-0.208365X-0.001703X-0.749998X0.720475X0.208365X0.001703X0.749998X0*%
%ADD20RoundRect,0.050000X-1.220758X-0.332229X0.017127X-1.265042X1.220758X0.332229X-0.017127X1.265042X0*%
%ADD21RoundRect,0.260000X-0.390000X-0.665000X0.390000X-0.665000X0.390000X0.665000X-0.390000X0.665000X0*%
%ADD22O,1.300000X1.850000*%
%ADD23RoundRect,0.050000X-0.192469X-0.724883X0.641997X-0.387737X0.192469X0.724883X-0.641997X0.387737X0*%
%ADD24RoundRect,0.050000X0.001703X-0.749998X0.720475X-0.208365X-0.001703X0.749998X-0.720475X0.208365X0*%
%ADD25RoundRect,0.050000X-0.550153X-1.139279X0.965976X-0.817016X0.550153X1.139279X-0.965976X0.817016X0*%
%ADD26RoundRect,0.050000X-1.093174X-0.636864X0.343961X-1.217504X1.093174X0.636864X-0.343961X1.217504X0*%
%ADD27C,1.800000*%
%ADD28C,1.000000*%
%ADD29RoundRect,0.050000X-0.017127X-1.265042X1.220758X-0.332229X0.017127X1.265042X-1.220758X0.332229X0*%
%ADD30RoundRect,0.050000X-0.641997X-0.387737X0.192469X-0.724883X0.641997X0.387737X-0.192469X0.724883X0*%
G04 APERTURE END LIST*
D10*
%TO.C,CPG1316*%
X254412383Y-111939001D03*
D11*
X254412383Y-111939001D03*
D10*
X259193916Y-110477127D03*
D11*
X259193916Y-110477127D03*
%TD*%
D10*
%TO.C,CPG1316*%
X116385650Y-110665929D03*
D12*
X116385650Y-110665929D03*
D10*
X121167169Y-112127797D03*
D12*
X121167169Y-112127797D03*
%TD*%
D10*
%TO.C,CPG1316*%
X121355974Y-94408746D03*
D12*
X121355974Y-94408746D03*
D10*
X126137493Y-95870614D03*
D12*
X126137493Y-95870614D03*
%TD*%
D10*
%TO.C,CPG1316*%
X125918275Y-137631247D03*
D12*
X125918275Y-137631247D03*
D10*
X130699794Y-139093115D03*
D12*
X130699794Y-139093115D03*
%TD*%
D13*
%TO.C,D34*%
X226409371Y-133728372D03*
X229565187Y-132763540D03*
%TD*%
D14*
%TO.C,D26*%
X275754951Y-112779316D03*
X278982843Y-112093208D03*
%TD*%
D10*
%TO.C,CPG1316*%
X231723020Y-95870617D03*
D11*
X231723020Y-95870617D03*
D10*
X236504553Y-94408743D03*
D11*
X236504553Y-94408743D03*
%TD*%
D10*
%TO.C,CPG1316*%
X73399425Y-133778073D03*
D15*
X73399425Y-133778073D03*
D10*
X78290158Y-134817642D03*
D15*
X78290158Y-134817642D03*
%TD*%
D10*
%TO.C,CPG1316*%
X103636930Y-94219957D03*
D12*
X103636930Y-94219957D03*
D10*
X108418449Y-95681825D03*
D12*
X108418449Y-95681825D03*
%TD*%
D16*
%TO.C,D10*%
X113792381Y-122055391D03*
X116948183Y-123020221D03*
%TD*%
D13*
%TO.C,D29*%
X253661050Y-106574242D03*
X256816866Y-105609410D03*
%TD*%
D14*
%TO.C,D25*%
X279289451Y-129407826D03*
X282517343Y-128721718D03*
%TD*%
D16*
%TO.C,D16*%
X143967773Y-139646470D03*
X147123575Y-140611300D03*
%TD*%
D10*
%TO.C,CPG1316*%
X227160712Y-139093123D03*
D11*
X227160712Y-139093123D03*
D10*
X231942245Y-137631249D03*
D11*
X231942245Y-137631249D03*
%TD*%
D10*
%TO.C,CPG1316*%
X217600048Y-164253913D03*
D17*
X217600048Y-164253913D03*
D10*
X222235962Y-162380892D03*
D17*
X222235962Y-162380892D03*
%TD*%
D16*
%TO.C,D9*%
X106013975Y-89352234D03*
X109169777Y-90317064D03*
%TD*%
D18*
%TO.C,D3*%
X65783656Y-91930202D03*
X69011562Y-92616312D03*
%TD*%
D10*
%TO.C,CPG1316*%
X151531355Y-111999825D03*
D12*
X151531355Y-111999825D03*
D10*
X156312874Y-113461693D03*
D12*
X156312874Y-113461693D03*
%TD*%
D18*
%TO.C,D2*%
X62249155Y-108558711D03*
X65477061Y-109244821D03*
%TD*%
D19*
%TO.C,D21*%
X155828149Y-167394794D03*
X158463647Y-169380764D03*
%TD*%
D10*
%TO.C,CPG1316*%
X76933932Y-117149569D03*
D15*
X76933932Y-117149569D03*
D10*
X81824665Y-118189138D03*
D15*
X81824665Y-118189138D03*
%TD*%
D13*
%TO.C,D35*%
X221439057Y-117471192D03*
X224594873Y-116506360D03*
%TD*%
D10*
%TO.C,CPG1316*%
X222190390Y-122835948D03*
D11*
X222190390Y-122835948D03*
D10*
X226971923Y-121374074D03*
D11*
X226971923Y-121374074D03*
%TD*%
D16*
%TO.C,D12*%
X123733012Y-89541030D03*
X126888814Y-90505860D03*
%TD*%
D10*
%TO.C,CPG1316*%
X151929596Y-171155938D03*
D20*
X151929596Y-171155938D03*
D10*
X155922778Y-174165012D03*
D20*
X155922778Y-174165012D03*
%TD*%
D14*
%TO.C,D23*%
X292383459Y-109244824D03*
X295611351Y-108558716D03*
%TD*%
D13*
%TO.C,D33*%
X230971689Y-90505872D03*
X234127505Y-89541040D03*
%TD*%
D21*
%TO.C,JST1*%
X164974997Y-118675001D03*
D22*
X166974995Y-118675007D03*
%TD*%
D18*
%TO.C,D4*%
X75343168Y-128721726D03*
X78571074Y-129407836D03*
%TD*%
D13*
%TO.C,D36*%
X216468737Y-101214016D03*
X219624553Y-100249184D03*
%TD*%
D23*
%TO.C,D41*%
X216384019Y-158975073D03*
X219443719Y-157738871D03*
%TD*%
D10*
%TO.C,CPG1316*%
X60305402Y-113615069D03*
D15*
X60305402Y-113615069D03*
D10*
X65196135Y-114654638D03*
D15*
X65196135Y-114654638D03*
%TD*%
D10*
%TO.C,CPG1316*%
X98666615Y-110477134D03*
D12*
X98666615Y-110477134D03*
D10*
X103448134Y-111939002D03*
D12*
X103448134Y-111939002D03*
%TD*%
D10*
%TO.C,CPG1316*%
X201547641Y-113461700D03*
D11*
X201547641Y-113461700D03*
D10*
X206329174Y-111999826D03*
D11*
X206329174Y-111999826D03*
%TD*%
D10*
%TO.C,CPG1316*%
X241663655Y-128384975D03*
D11*
X241663655Y-128384975D03*
D10*
X246445188Y-126923101D03*
D11*
X246445188Y-126923101D03*
%TD*%
D10*
%TO.C,CPG1316*%
X211488272Y-145976060D03*
D11*
X211488272Y-145976060D03*
D10*
X216269805Y-144514186D03*
D11*
X216269805Y-144514186D03*
%TD*%
D10*
%TO.C,CPG1316*%
X236693339Y-112127797D03*
D11*
X236693339Y-112127797D03*
D10*
X241474872Y-110665923D03*
D11*
X241474872Y-110665923D03*
%TD*%
D16*
%TO.C,D14*%
X133265648Y-116506364D03*
X136421450Y-117471194D03*
%TD*%
D24*
%TO.C,D42*%
X199396861Y-169380774D03*
X202032367Y-167394772D03*
%TD*%
D13*
%TO.C,D30*%
X248690734Y-90317072D03*
X251846550Y-89352240D03*
%TD*%
D14*
%TO.C,D22*%
X295917965Y-125873331D03*
X299145857Y-125187223D03*
%TD*%
D16*
%TO.C,D7*%
X96073336Y-121866593D03*
X99229138Y-122831423D03*
%TD*%
D10*
%TO.C,CPG1316*%
X289129869Y-98026129D03*
D25*
X289129869Y-98026129D03*
D10*
X294020606Y-96986571D03*
D25*
X294020606Y-96986571D03*
%TD*%
D10*
%TO.C,CPG1316*%
X279570352Y-134817629D03*
D25*
X279570352Y-134817629D03*
D10*
X284461089Y-133778071D03*
D25*
X284461089Y-133778071D03*
%TD*%
D13*
%TO.C,D28*%
X258631365Y-122831428D03*
X261787181Y-121866596D03*
%TD*%
%TO.C,D31*%
X240912331Y-123020225D03*
X244068147Y-122055393D03*
%TD*%
D10*
%TO.C,CPG1316*%
X119114535Y-156464969D03*
D12*
X119114535Y-156464969D03*
D10*
X123896054Y-157926837D03*
D12*
X123896054Y-157926837D03*
%TD*%
D18*
%TO.C,D6*%
X82412166Y-95464705D03*
X85640072Y-96150815D03*
%TD*%
D10*
%TO.C,CPG1316*%
X217220068Y-106578764D03*
D11*
X217220068Y-106578764D03*
D10*
X222001601Y-105116890D03*
D11*
X222001601Y-105116890D03*
%TD*%
D13*
%TO.C,D37*%
X210736939Y-140611299D03*
X213892755Y-139646467D03*
%TD*%
D10*
%TO.C,CPG1316*%
X292664362Y-114654631D03*
D25*
X292664362Y-114654631D03*
D10*
X297555099Y-113615073D03*
D25*
X297555099Y-113615073D03*
%TD*%
D10*
%TO.C,CPG1316*%
X141590717Y-144514184D03*
D12*
X141590717Y-144514184D03*
D10*
X146372236Y-145976052D03*
D12*
X146372236Y-145976052D03*
%TD*%
D10*
%TO.C,CPG1316*%
X130888600Y-121374072D03*
D12*
X130888600Y-121374072D03*
D10*
X135670119Y-122835940D03*
D12*
X135670119Y-122835940D03*
%TD*%
D13*
%TO.C,D40*%
X233213112Y-152562092D03*
X236368928Y-151597260D03*
%TD*%
D10*
%TO.C,CPG1316*%
X93696287Y-126734315D03*
D12*
X93696287Y-126734315D03*
D10*
X98477806Y-128196183D03*
D12*
X98477806Y-128196183D03*
%TD*%
D18*
%TO.C,D5*%
X78877661Y-112093217D03*
X82105567Y-112779327D03*
%TD*%
D10*
%TO.C,CPG1316*%
X233964447Y-157926841D03*
D11*
X233964447Y-157926841D03*
D10*
X238745980Y-156464967D03*
D11*
X238745980Y-156464967D03*
%TD*%
D10*
%TO.C,CPG1316*%
X276035865Y-118189135D03*
D25*
X276035865Y-118189135D03*
D10*
X280926602Y-117149577D03*
D25*
X280926602Y-117149577D03*
%TD*%
D16*
%TO.C,D19*%
X121491586Y-151597267D03*
X124647388Y-152562097D03*
%TD*%
D10*
%TO.C,CPG1316*%
X63839908Y-96986559D03*
D15*
X63839908Y-96986559D03*
D10*
X68730641Y-98026128D03*
D15*
X68730641Y-98026128D03*
%TD*%
D10*
%TO.C,CPG1316*%
X80468421Y-100521057D03*
D15*
X80468421Y-100521057D03*
D10*
X85359154Y-101560626D03*
D15*
X85359154Y-101560626D03*
%TD*%
D13*
%TO.C,D38*%
X205766616Y-124354120D03*
X208922432Y-123389288D03*
%TD*%
D10*
%TO.C,CPG1316*%
X135624543Y-162380886D03*
D26*
X135624543Y-162380886D03*
D10*
X140260465Y-164253929D03*
D26*
X140260465Y-164253929D03*
%TD*%
D27*
%TO.C,RST1*%
X167074994Y-115349994D03*
X167075006Y-108850000D03*
%TD*%
D10*
%TO.C,CPG1316*%
X206517948Y-129718872D03*
D11*
X206517948Y-129718872D03*
D10*
X211299481Y-128256998D03*
D11*
X211299481Y-128256998D03*
%TD*%
D10*
%TO.C,CPG1316*%
X259382694Y-128196188D03*
D11*
X259382694Y-128196188D03*
D10*
X264164227Y-126734314D03*
D11*
X264164227Y-126734314D03*
%TD*%
D10*
%TO.C,CPG1316*%
X146561044Y-128257004D03*
D12*
X146561044Y-128257004D03*
D10*
X151342563Y-129718872D03*
D12*
X151342563Y-129718872D03*
%TD*%
D16*
%TO.C,D13*%
X128295327Y-132763537D03*
X131451129Y-133728367D03*
%TD*%
D13*
%TO.C,D39*%
X200796295Y-108096933D03*
X203952111Y-107132101D03*
%TD*%
D10*
%TO.C,CPG1316*%
X296198863Y-131283134D03*
D25*
X296198863Y-131283134D03*
D10*
X301089600Y-130243576D03*
D25*
X301089600Y-130243576D03*
%TD*%
D28*
%TO.C,PWR1*%
X141125000Y-91275000D03*
X138526932Y-89775001D03*
%TD*%
D14*
%TO.C,D27*%
X272220455Y-96150807D03*
X275448347Y-95464699D03*
%TD*%
D10*
%TO.C,CPG1316*%
X135858923Y-105116907D03*
D12*
X135858923Y-105116907D03*
D10*
X140640442Y-106578775D03*
D12*
X140640442Y-106578775D03*
%TD*%
D16*
%TO.C,D15*%
X138235967Y-100249176D03*
X141391769Y-101214006D03*
%TD*%
%TO.C,D17*%
X148938082Y-123389294D03*
X152093884Y-124354124D03*
%TD*%
%TO.C,D8*%
X101043659Y-105609419D03*
X104199461Y-106574249D03*
%TD*%
%TO.C,D11*%
X118762692Y-105798212D03*
X121918494Y-106763042D03*
%TD*%
D13*
%TO.C,D32*%
X235942013Y-106763047D03*
X239097829Y-105798215D03*
%TD*%
D18*
%TO.C,D1*%
X58714658Y-125187218D03*
X61942564Y-125873328D03*
%TD*%
D10*
%TO.C,CPG1316*%
X249442056Y-95681818D03*
D11*
X249442056Y-95681818D03*
D10*
X254223589Y-94219944D03*
D11*
X254223589Y-94219944D03*
%TD*%
D10*
%TO.C,CPG1316*%
X111415326Y-126923111D03*
D12*
X111415326Y-126923111D03*
D10*
X116196845Y-128384979D03*
D12*
X116196845Y-128384979D03*
%TD*%
D16*
%TO.C,D18*%
X153908401Y-107132109D03*
X157064203Y-108096939D03*
%TD*%
D10*
%TO.C,CPG1316*%
X201937721Y-174165019D03*
D29*
X201937721Y-174165019D03*
D10*
X205930903Y-171155947D03*
D29*
X205930903Y-171155947D03*
%TD*%
D10*
%TO.C,CPG1316*%
X272501365Y-101560624D03*
D25*
X272501365Y-101560624D03*
D10*
X277392102Y-100521066D03*
D25*
X277392102Y-100521066D03*
%TD*%
D30*
%TO.C,D20*%
X138416786Y-157738878D03*
X141476500Y-158975070D03*
%TD*%
D14*
%TO.C,D24*%
X288848962Y-92616311D03*
X292076854Y-91930203D03*
%TD*%
D10*
%TO.C,CPG1316*%
X56770909Y-130243575D03*
D15*
X56770909Y-130243575D03*
D10*
X61661642Y-131283144D03*
D15*
X61661642Y-131283144D03*
%TD*%
D27*
%TO.C,MCU1*%
X186524991Y-107834996D03*
X186524993Y-110374997D03*
X186525000Y-112915000D03*
X186524997Y-115454997D03*
X186525000Y-117995004D03*
X186524999Y-120534997D03*
X186524987Y-123075003D03*
X186524997Y-125614999D03*
X186524992Y-128155004D03*
X186524993Y-130695005D03*
X186524991Y-133234995D03*
X186524996Y-135775000D03*
X171284995Y-135774999D03*
X171284997Y-133235000D03*
X171284995Y-130694999D03*
X171284988Y-128154996D03*
X171284991Y-125614999D03*
X171284988Y-123074992D03*
X171284989Y-120534999D03*
X171285001Y-117994993D03*
X171284991Y-115454997D03*
X171284996Y-112914992D03*
X171284995Y-110374991D03*
X171284997Y-107835001D03*
%TD*%
M02*
