%TF.GenerationSoftware,KiCad,Pcbnew,8.0.6*%
%TF.CreationDate,2025-05-16T17:03:22+02:00*%
%TF.ProjectId,main,6d61696e-2e6b-4696-9361-645f70636258,v1.0.0*%
%TF.SameCoordinates,Original*%
%TF.FileFunction,Legend,Top*%
%TF.FilePolarity,Positive*%
%FSLAX46Y46*%
G04 Gerber Fmt 4.6, Leading zero omitted, Abs format (unit mm)*
G04 Created by KiCad (PCBNEW 8.0.6) date 2025-05-16 17:03:22*
%MOMM*%
%LPD*%
G01*
G04 APERTURE LIST*
%ADD10C,0.100000*%
%ADD11C,0.120000*%
%ADD12C,0.127000*%
%ADD13C,0.200000*%
%ADD14C,0.000000*%
G04 APERTURE END LIST*
D10*
%TO.C,D16*%
X152227592Y-149859030D02*
X152610114Y-149975979D01*
X152610114Y-149975979D02*
X152449310Y-150501947D01*
X152610114Y-149975979D02*
X152770919Y-149450011D01*
X152610114Y-149975979D02*
X153300846Y-149768880D01*
X153066949Y-150533924D02*
X152610114Y-149975979D01*
X153183897Y-150151402D02*
X153662050Y-150297588D01*
X153300846Y-149768880D02*
X153066949Y-150533924D01*
%TO.C,D22*%
X321143448Y-133217948D02*
X321534707Y-133134783D01*
X321534707Y-133134783D02*
X321420356Y-132596802D01*
X321534707Y-133134783D02*
X321649059Y-133672764D01*
X321534707Y-133134783D02*
X322038431Y-132618777D01*
X322038431Y-132618777D02*
X322204761Y-133401295D01*
X322121596Y-133010036D02*
X322610670Y-132906080D01*
X322204761Y-133401295D02*
X321534707Y-133134783D01*
%TO.C,D24*%
X313242804Y-96048340D02*
X313634063Y-95965175D01*
X313634063Y-95965175D02*
X313519712Y-95427194D01*
X313634063Y-95965175D02*
X313748415Y-96503156D01*
X313634063Y-95965175D02*
X314137787Y-95449169D01*
X314137787Y-95449169D02*
X314304117Y-96231687D01*
X314220952Y-95840428D02*
X314710026Y-95736472D01*
X314304117Y-96231687D02*
X313634063Y-95965175D01*
%TO.C,D38*%
X221387637Y-132127797D02*
X221770159Y-132010848D01*
X221770159Y-132010848D02*
X221609355Y-131484880D01*
X221770159Y-132010848D02*
X221930964Y-132536816D01*
X221770159Y-132010848D02*
X222226994Y-131452903D01*
X222226994Y-131452903D02*
X222460891Y-132217947D01*
X222343942Y-131835425D02*
X222822095Y-131689239D01*
X222460891Y-132217947D02*
X221770159Y-132010848D01*
%TO.C,D17*%
X157782654Y-131689239D02*
X158165176Y-131806188D01*
X158165176Y-131806188D02*
X158004372Y-132332156D01*
X158165176Y-131806188D02*
X158325981Y-131280220D01*
X158165176Y-131806188D02*
X158855908Y-131599089D01*
X158622011Y-132364133D02*
X158165176Y-131806188D01*
X158738959Y-131981611D02*
X159217112Y-132127797D01*
X158855908Y-131599089D02*
X158622011Y-132364133D01*
%TO.C,D37*%
X226942699Y-150297588D02*
X227325221Y-150180639D01*
X227325221Y-150180639D02*
X227164417Y-149654671D01*
X227325221Y-150180639D02*
X227486026Y-150706607D01*
X227325221Y-150180639D02*
X227782056Y-149622694D01*
X227782056Y-149622694D02*
X228015953Y-150387738D01*
X227899004Y-150005216D02*
X228377157Y-149859030D01*
X228015953Y-150387738D02*
X227325221Y-150180639D01*
%TO.C,D1*%
X57994078Y-132906080D02*
X58385337Y-132989245D01*
X58385337Y-132989245D02*
X58270986Y-133527226D01*
X58385337Y-132989245D02*
X58499689Y-132451264D01*
X58385337Y-132989245D02*
X59055391Y-132722733D01*
X58889061Y-133505251D02*
X58385337Y-132989245D01*
X58972226Y-133113992D02*
X59461300Y-133217948D01*
X59055391Y-132722733D02*
X58889061Y-133505251D01*
%TO.C,D7*%
X98595336Y-130324928D02*
X98977858Y-130441877D01*
X98977858Y-130441877D02*
X98817054Y-130967845D01*
X98977858Y-130441877D02*
X99138663Y-129915909D01*
X98977858Y-130441877D02*
X99668590Y-130234778D01*
X99434693Y-130999822D02*
X98977858Y-130441877D01*
X99551641Y-130617300D02*
X100029794Y-130763486D01*
X99668590Y-130234778D02*
X99434693Y-130999822D01*
%TO.C,D14*%
X140197607Y-124221568D02*
X140580129Y-124338517D01*
X140580129Y-124338517D02*
X140419325Y-124864485D01*
X140580129Y-124338517D02*
X140740934Y-123812549D01*
X140580129Y-124338517D02*
X141270861Y-124131418D01*
X141036964Y-124896462D02*
X140580129Y-124338517D01*
X141153912Y-124513940D02*
X141632065Y-124660126D01*
X141270861Y-124131418D02*
X141036964Y-124896462D01*
%TO.C,D25*%
X302558644Y-137168271D02*
X302949903Y-137085106D01*
X302949903Y-137085106D02*
X302835552Y-136547125D01*
X302949903Y-137085106D02*
X303064255Y-137623087D01*
X302949903Y-137085106D02*
X303453627Y-136569100D01*
X303453627Y-136569100D02*
X303619957Y-137351618D01*
X303536792Y-136960359D02*
X304025866Y-136856403D01*
X303619957Y-137351618D02*
X302949903Y-137085106D01*
%TO.C,D35*%
X238972684Y-124660126D02*
X239355206Y-124543177D01*
X239355206Y-124543177D02*
X239194402Y-124017209D01*
X239355206Y-124543177D02*
X239516011Y-125069145D01*
X239355206Y-124543177D02*
X239812041Y-123985232D01*
X239812041Y-123985232D02*
X240045938Y-124750276D01*
X239928989Y-124367754D02*
X240407142Y-124221568D01*
X240045938Y-124750276D02*
X239355206Y-124543177D01*
%TO.C,D12*%
X129337109Y-94758886D02*
X129719631Y-94875835D01*
X129719631Y-94875835D02*
X129558827Y-95401803D01*
X129719631Y-94875835D02*
X129880436Y-94349867D01*
X129719631Y-94875835D02*
X130410363Y-94668736D01*
X130176466Y-95433780D02*
X129719631Y-94875835D01*
X130293414Y-95051258D02*
X130771567Y-95197444D01*
X130410363Y-94668736D02*
X130176466Y-95433780D01*
%TO.C,D13*%
X134642545Y-142391358D02*
X135025067Y-142508307D01*
X135025067Y-142508307D02*
X134864263Y-143034275D01*
X135025067Y-142508307D02*
X135185872Y-141982339D01*
X135025067Y-142508307D02*
X135715799Y-142301208D01*
X135481902Y-143066252D02*
X135025067Y-142508307D01*
X135598850Y-142683730D02*
X136077003Y-142829916D01*
X135715799Y-142301208D02*
X135481902Y-143066252D01*
%TO.C,D26*%
X298608322Y-118583466D02*
X298999581Y-118500301D01*
X298999581Y-118500301D02*
X298885230Y-117962320D01*
X298999581Y-118500301D02*
X299113933Y-119038282D01*
X298999581Y-118500301D02*
X299503305Y-117984295D01*
X299503305Y-117984295D02*
X299669635Y-118766813D01*
X299586470Y-118375554D02*
X300075544Y-118271598D01*
X299669635Y-118766813D02*
X298999581Y-118500301D01*
%TO.C,D8*%
X104150398Y-112155138D02*
X104532920Y-112272087D01*
X104532920Y-112272087D02*
X104372116Y-112798055D01*
X104532920Y-112272087D02*
X104693725Y-111746119D01*
X104532920Y-112272087D02*
X105223652Y-112064988D01*
X104989755Y-112830032D02*
X104532920Y-112272087D01*
X105106703Y-112447510D02*
X105584856Y-112593696D01*
X105223652Y-112064988D02*
X104989755Y-112830032D01*
%TO.C,D27*%
X294658000Y-99998662D02*
X295049259Y-99915497D01*
X295049259Y-99915497D02*
X294934908Y-99377516D01*
X295049259Y-99915497D02*
X295163611Y-100453478D01*
X295049259Y-99915497D02*
X295552983Y-99399491D01*
X295552983Y-99399491D02*
X295719313Y-100182009D01*
X295636148Y-99790750D02*
X296125222Y-99686794D01*
X295719313Y-100182009D02*
X295049259Y-99915497D01*
%TO.C,D41*%
X226848300Y-172395426D02*
X227219174Y-172245583D01*
X227219174Y-172245583D02*
X227013140Y-171735632D01*
X227219174Y-172245583D02*
X227425207Y-172755534D01*
X227219174Y-172245583D02*
X227625641Y-171649946D01*
X227625641Y-171649946D02*
X227925327Y-172391693D01*
X227775484Y-172020819D02*
X228239076Y-171833516D01*
X227925327Y-172391693D02*
X227219174Y-172245583D01*
%TO.C,D10*%
X118226984Y-131098467D02*
X118609506Y-131215416D01*
X118609506Y-131215416D02*
X118448702Y-131741384D01*
X118609506Y-131215416D02*
X118770311Y-130689448D01*
X118609506Y-131215416D02*
X119300238Y-131008317D01*
X119066341Y-131773361D02*
X118609506Y-131215416D01*
X119183289Y-131390839D02*
X119661442Y-131537025D01*
X119300238Y-131008317D02*
X119066341Y-131773361D01*
%TO.C,D19*%
X132035586Y-164599549D02*
X132418108Y-164716498D01*
X132418108Y-164716498D02*
X132257304Y-165242466D01*
X132418108Y-164716498D02*
X132578913Y-164190530D01*
X132418108Y-164716498D02*
X133108840Y-164509399D01*
X132874943Y-165274443D02*
X132418108Y-164716498D01*
X132991891Y-164891921D02*
X133470044Y-165038107D01*
X133108840Y-164509399D02*
X132874943Y-165274443D01*
%TO.C,D30*%
X269464830Y-94423906D02*
X269847352Y-94306957D01*
X269847352Y-94306957D02*
X269686548Y-93780989D01*
X269847352Y-94306957D02*
X270008157Y-94832925D01*
X269847352Y-94306957D02*
X270304187Y-93749012D01*
X270304187Y-93749012D02*
X270538084Y-94514056D01*
X270421135Y-94131534D02*
X270899288Y-93985348D01*
X270538084Y-94514056D02*
X269847352Y-94306957D01*
%TO.C,D2*%
X61944400Y-114321276D02*
X62335659Y-114404441D01*
X62335659Y-114404441D02*
X62221308Y-114942422D01*
X62335659Y-114404441D02*
X62450011Y-113866460D01*
X62335659Y-114404441D02*
X63005713Y-114137929D01*
X62839383Y-114920447D02*
X62335659Y-114404441D01*
X62922548Y-114529188D02*
X63411622Y-114633144D01*
X63005713Y-114137929D02*
X62839383Y-114920447D01*
%TO.C,D33*%
X249833182Y-95197444D02*
X250215704Y-95080495D01*
X250215704Y-95080495D02*
X250054900Y-94554527D01*
X250215704Y-95080495D02*
X250376509Y-95606463D01*
X250215704Y-95080495D02*
X250672539Y-94522550D01*
X250672539Y-94522550D02*
X250906436Y-95287594D01*
X250789487Y-94905072D02*
X251267640Y-94758886D01*
X250906436Y-95287594D02*
X250215704Y-95080495D01*
%TO.C,D40*%
X247134705Y-165038107D02*
X247517227Y-164921158D01*
X247517227Y-164921158D02*
X247356423Y-164395190D01*
X247517227Y-164921158D02*
X247678032Y-165447126D01*
X247517227Y-164921158D02*
X247974062Y-164363213D01*
X247974062Y-164363213D02*
X248207959Y-165128257D01*
X248091010Y-164745735D02*
X248569163Y-164599549D01*
X248207959Y-165128257D02*
X247517227Y-164921158D01*
%TO.C,D31*%
X260943306Y-131537025D02*
X261325828Y-131420076D01*
X261325828Y-131420076D02*
X261165024Y-130894108D01*
X261325828Y-131420076D02*
X261486633Y-131946044D01*
X261325828Y-131420076D02*
X261782663Y-130862131D01*
X261782663Y-130862131D02*
X262016560Y-131627175D01*
X261899611Y-131244653D02*
X262377764Y-131098467D01*
X262016560Y-131627175D02*
X261325828Y-131420076D01*
%TO.C,D42*%
X207554430Y-183198895D02*
X207873885Y-182958169D01*
X207873885Y-182958169D02*
X207542886Y-182518920D01*
X207873885Y-182958169D02*
X208112340Y-182277626D01*
X207873885Y-182958169D02*
X208204883Y-183397419D01*
X208112340Y-182277626D02*
X208593792Y-182916534D01*
X208353066Y-182597080D02*
X208752384Y-182296173D01*
X208593792Y-182916534D02*
X207873885Y-182958169D01*
D11*
%TO.C,JST1*%
X174440000Y-119040000D02*
X174440000Y-120040000D01*
X174440000Y-126860000D02*
X174440000Y-125860000D01*
X175360000Y-126860000D02*
X174440000Y-126860000D01*
X175440000Y-119040000D02*
X174440000Y-119040000D01*
D10*
X176000000Y-127900000D02*
X177000000Y-127900000D01*
X178500000Y-127400000D02*
X178500000Y-128400000D01*
X179000000Y-127900000D02*
X178000000Y-127900000D01*
D11*
X179640000Y-119040000D02*
X180560000Y-119040000D01*
X179640000Y-126860000D02*
X180560000Y-126860000D01*
X180560000Y-119040000D02*
X180560000Y-120040000D01*
X180560000Y-126860000D02*
X180560000Y-125860000D01*
D10*
%TO.C,D21*%
X171852364Y-182296173D02*
X172171819Y-182536899D01*
X172171819Y-182536899D02*
X171840820Y-182976148D01*
X172171819Y-182536899D02*
X172502817Y-182097649D01*
X172171819Y-182536899D02*
X172891726Y-182578534D01*
X172410274Y-183217442D02*
X172171819Y-182536899D01*
X172651000Y-182897988D02*
X173050318Y-183198895D01*
X172891726Y-182578534D02*
X172410274Y-183217442D01*
%TO.C,D6*%
X84479527Y-99686794D02*
X84870786Y-99769959D01*
X84870786Y-99769959D02*
X84756435Y-100307940D01*
X84870786Y-99769959D02*
X84985138Y-99231978D01*
X84870786Y-99769959D02*
X85540840Y-99503447D01*
X85374510Y-100285965D02*
X84870786Y-99769959D01*
X85457675Y-99894706D02*
X85946749Y-99998662D01*
X85540840Y-99503447D02*
X85374510Y-100285965D01*
%TO.C,D18*%
X163337716Y-113519449D02*
X163720238Y-113636398D01*
X163720238Y-113636398D02*
X163559434Y-114162366D01*
X163720238Y-113636398D02*
X163881043Y-113110430D01*
X163720238Y-113636398D02*
X164410970Y-113429299D01*
X164177073Y-114194343D02*
X163720238Y-113636398D01*
X164294021Y-113811821D02*
X164772174Y-113958007D01*
X164410970Y-113429299D02*
X164177073Y-114194343D01*
%TO.C,D4*%
X76578883Y-136856403D02*
X76970142Y-136939568D01*
X76970142Y-136939568D02*
X76855791Y-137477549D01*
X76970142Y-136939568D02*
X77084494Y-136401587D01*
X76970142Y-136939568D02*
X77640196Y-136673056D01*
X77473866Y-137455574D02*
X76970142Y-136939568D01*
X77557031Y-137064315D02*
X78046105Y-137168271D01*
X77640196Y-136673056D02*
X77473866Y-137455574D01*
%TO.C,D5*%
X80529205Y-118271598D02*
X80920464Y-118354763D01*
X80920464Y-118354763D02*
X80806113Y-118892744D01*
X80920464Y-118354763D02*
X81034816Y-117816782D01*
X80920464Y-118354763D02*
X81590518Y-118088251D01*
X81424188Y-118870769D02*
X80920464Y-118354763D01*
X81507353Y-118479510D02*
X81996427Y-118583466D01*
X81590518Y-118088251D02*
X81424188Y-118870769D01*
%TO.C,D15*%
X145752669Y-106051777D02*
X146135191Y-106168726D01*
X146135191Y-106168726D02*
X145974387Y-106694694D01*
X146135191Y-106168726D02*
X146295996Y-105642758D01*
X146135191Y-106168726D02*
X146825923Y-105961627D01*
X146592026Y-106726671D02*
X146135191Y-106168726D01*
X146708974Y-106344149D02*
X147187127Y-106490335D01*
X146825923Y-105961627D02*
X146592026Y-106726671D01*
%TO.C,D11*%
X123782047Y-112928677D02*
X124164569Y-113045626D01*
X124164569Y-113045626D02*
X124003765Y-113571594D01*
X124164569Y-113045626D02*
X124325374Y-112519658D01*
X124164569Y-113045626D02*
X124855301Y-112838527D01*
X124621404Y-113603571D02*
X124164569Y-113045626D01*
X124738352Y-113221049D02*
X125216505Y-113367235D01*
X124855301Y-112838527D02*
X124621404Y-113603571D01*
%TO.C,D28*%
X280574955Y-130763486D02*
X280957477Y-130646537D01*
X280957477Y-130646537D02*
X280796673Y-130120569D01*
X280957477Y-130646537D02*
X281118282Y-131172505D01*
X280957477Y-130646537D02*
X281414312Y-130088592D01*
X281414312Y-130088592D02*
X281648209Y-130853636D01*
X281531260Y-130471114D02*
X282009413Y-130324928D01*
X281648209Y-130853636D02*
X280957477Y-130646537D01*
%TO.C,D29*%
X275019893Y-112593696D02*
X275402415Y-112476747D01*
X275402415Y-112476747D02*
X275241611Y-111950779D01*
X275402415Y-112476747D02*
X275563220Y-113002715D01*
X275402415Y-112476747D02*
X275859250Y-111918802D01*
X275859250Y-111918802D02*
X276093147Y-112683846D01*
X275976198Y-112301324D02*
X276454351Y-112155138D01*
X276093147Y-112683846D02*
X275402415Y-112476747D01*
D12*
%TO.C,REF\u002A\u002A*%
X174255000Y-115450000D02*
X174255000Y-110950000D01*
X176100000Y-110250000D02*
X178400000Y-110250000D01*
X176100000Y-116245000D02*
X178400000Y-116245000D01*
X180245000Y-110950000D02*
X180245000Y-115550000D01*
D13*
X175100000Y-117695000D02*
G75*
G02*
X174900000Y-117695000I-100000J0D01*
G01*
X174900000Y-117695000D02*
G75*
G02*
X175100000Y-117695000I100000J0D01*
G01*
D12*
X179005000Y-113250000D02*
G75*
G02*
X175495000Y-113250000I-1755000J0D01*
G01*
X175495000Y-113250000D02*
G75*
G02*
X179005000Y-113250000I1755000J0D01*
G01*
D14*
%TO.C,G\u002A\u002A\u002A*%
G36*
X188525687Y-155539033D02*
G01*
X188635895Y-155622248D01*
X188693222Y-155795171D01*
X188720509Y-156086897D01*
X188734540Y-156390580D01*
X188756333Y-156892160D01*
X189264333Y-156898580D01*
X189772333Y-156905000D01*
X189796884Y-157601037D01*
X189806639Y-157960765D01*
X189784128Y-158186021D01*
X189698082Y-158311093D01*
X189517230Y-158370268D01*
X189210302Y-158397835D01*
X189062141Y-158406672D01*
X188690616Y-158429000D01*
X188681141Y-159021667D01*
X188671667Y-159614333D01*
X188054348Y-159639279D01*
X187437029Y-159664226D01*
X187461681Y-158961946D01*
X187486333Y-158259667D01*
X188015500Y-158234460D01*
X188544667Y-158209253D01*
X188544667Y-157620626D01*
X188544667Y-157032000D01*
X187991037Y-157032000D01*
X187437407Y-157032000D01*
X187461870Y-156291167D01*
X187486333Y-155550333D01*
X188055264Y-155525357D01*
X188339756Y-155516433D01*
X188525687Y-155539033D01*
G37*
G36*
X193852714Y-155522183D02*
G01*
X194052990Y-155584589D01*
X194162426Y-155725004D01*
X194203925Y-155973212D01*
X194200393Y-156358999D01*
X194200034Y-156368002D01*
X194175000Y-156989667D01*
X193628499Y-157032000D01*
X193081999Y-157074333D01*
X193076348Y-157642406D01*
X193070698Y-158210478D01*
X193622849Y-158235072D01*
X194175000Y-158259667D01*
X194175000Y-158937000D01*
X194175000Y-159614333D01*
X193561167Y-159639209D01*
X192947333Y-159664085D01*
X192947333Y-159029416D01*
X192947333Y-158394747D01*
X192418167Y-158369540D01*
X191889000Y-158344333D01*
X191864449Y-157648296D01*
X191854616Y-157306132D01*
X191861064Y-157096389D01*
X191893207Y-156982294D01*
X191960455Y-156927076D01*
X192056513Y-156897891D01*
X192314530Y-156871724D01*
X192499031Y-156886708D01*
X192723660Y-156910196D01*
X192858632Y-156856190D01*
X192925729Y-156696681D01*
X192946732Y-156403659D01*
X192947333Y-156310199D01*
X192953397Y-155937979D01*
X192987161Y-155703348D01*
X193071987Y-155574615D01*
X193231235Y-155520093D01*
X193488264Y-155508092D01*
X193538691Y-155508000D01*
X193852714Y-155522183D01*
G37*
G36*
X182547984Y-143633243D02*
G01*
X182827643Y-143644478D01*
X183041189Y-143669865D01*
X183119484Y-143692973D01*
X183158606Y-143803368D01*
X183187226Y-144074220D01*
X183204771Y-144496943D01*
X183210667Y-145056663D01*
X183210667Y-146364000D01*
X183761000Y-146364000D01*
X184311333Y-146364000D01*
X184311333Y-147629960D01*
X184311333Y-148895920D01*
X184840500Y-148921126D01*
X185369667Y-148946333D01*
X185392035Y-151588958D01*
X185414403Y-154231583D01*
X185878868Y-154226035D01*
X186164310Y-154205859D01*
X186326931Y-154157689D01*
X186353072Y-154123410D01*
X186355566Y-153992033D01*
X186352225Y-153748501D01*
X186345362Y-153497167D01*
X186345937Y-153184888D01*
X186376584Y-153014008D01*
X186441457Y-152958551D01*
X186588703Y-152950782D01*
X186834767Y-152941702D01*
X186978333Y-152937385D01*
X187401667Y-152925667D01*
X187444000Y-152290667D01*
X187486333Y-151655667D01*
X187994333Y-151613333D01*
X188502333Y-151571000D01*
X188544667Y-150258667D01*
X188587000Y-148946333D01*
X189179667Y-148946333D01*
X189772333Y-148946333D01*
X189795663Y-150282501D01*
X189818993Y-151618670D01*
X190811663Y-151594835D01*
X191804333Y-151571000D01*
X191846667Y-150258667D01*
X191889000Y-148946333D01*
X192431624Y-148920777D01*
X192782430Y-148919868D01*
X192985124Y-148959250D01*
X193044160Y-149005444D01*
X193068895Y-149125604D01*
X193089966Y-149382170D01*
X193105662Y-149742225D01*
X193114270Y-150172854D01*
X193115370Y-150374984D01*
X193116667Y-151634302D01*
X193583661Y-151595575D01*
X193891115Y-151585607D01*
X194082343Y-151636488D01*
X194181233Y-151776470D01*
X194211673Y-152033803D01*
X194203550Y-152328675D01*
X194194278Y-152651462D01*
X194230151Y-152841864D01*
X194344678Y-152934807D01*
X194571366Y-152965217D01*
X194816925Y-152968000D01*
X195233333Y-152968000D01*
X195233333Y-153603508D01*
X195233333Y-154239016D01*
X195720167Y-154217341D01*
X196207000Y-154195667D01*
X196249333Y-151571000D01*
X196291667Y-148946333D01*
X196820833Y-148921126D01*
X197350000Y-148895920D01*
X197350000Y-147629960D01*
X197353760Y-147109789D01*
X197366050Y-146740563D01*
X197388384Y-146504039D01*
X197422276Y-146381975D01*
X197455833Y-146354596D01*
X197598125Y-146346864D01*
X197840693Y-146337797D01*
X197985000Y-146333430D01*
X198408333Y-146321667D01*
X198431650Y-144988166D01*
X198445340Y-144492278D01*
X198466515Y-144091126D01*
X198493444Y-143806653D01*
X198524396Y-143660805D01*
X198537483Y-143646200D01*
X198664938Y-143641276D01*
X198896992Y-143638223D01*
X199043333Y-143637733D01*
X199304999Y-143639323D01*
X199497099Y-143643368D01*
X199549183Y-143646200D01*
X199581258Y-143730608D01*
X199609999Y-143962397D01*
X199633678Y-144319623D01*
X199650562Y-144780341D01*
X199655017Y-144988166D01*
X199678333Y-146321667D01*
X200103856Y-146326108D01*
X200424087Y-146340795D01*
X200615504Y-146399208D01*
X200707916Y-146535233D01*
X200731130Y-146782757D01*
X200722723Y-147029628D01*
X200694333Y-147591667D01*
X201244667Y-147634000D01*
X201795000Y-147676333D01*
X201837333Y-148946333D01*
X201879667Y-150216333D01*
X202303000Y-150218991D01*
X202570575Y-150233051D01*
X202774137Y-150265801D01*
X202832167Y-150287488D01*
X202896083Y-150418472D01*
X202931137Y-150710075D01*
X202938000Y-150993814D01*
X202938000Y-151634302D01*
X203404994Y-151595575D01*
X203751463Y-151590194D01*
X203940694Y-151644404D01*
X203959194Y-151661926D01*
X203998714Y-151793819D01*
X204021285Y-152043001D01*
X204022496Y-152357891D01*
X204021367Y-152388668D01*
X203996333Y-153010333D01*
X203488333Y-153012035D01*
X202980333Y-153013736D01*
X202938000Y-155679035D01*
X202895667Y-158344333D01*
X202370129Y-158369446D01*
X201844592Y-158394558D01*
X201819796Y-159004446D01*
X201795000Y-159614333D01*
X201230383Y-159639211D01*
X200909623Y-159645031D01*
X200714729Y-159606749D01*
X200617289Y-159492727D01*
X200588889Y-159271326D01*
X200599756Y-158937000D01*
X200607117Y-158674686D01*
X200601310Y-158480822D01*
X200592974Y-158427443D01*
X200499581Y-158381491D01*
X200291048Y-158356750D01*
X200121300Y-158355833D01*
X199678333Y-158370446D01*
X199636000Y-159712056D01*
X199593667Y-161053667D01*
X199085667Y-161053667D01*
X198577667Y-161053667D01*
X198573533Y-162323667D01*
X198569399Y-163593667D01*
X198023199Y-163636000D01*
X197477000Y-163678333D01*
X197477000Y-164228667D01*
X197466980Y-164529836D01*
X197440858Y-164769152D01*
X197408503Y-164884833D01*
X197278447Y-164949467D01*
X197005104Y-164985017D01*
X196794670Y-164990667D01*
X196249333Y-164990667D01*
X196249333Y-164313333D01*
X196249333Y-163636000D01*
X195233333Y-163636000D01*
X194217333Y-163636000D01*
X194217333Y-164211733D01*
X194202481Y-164540592D01*
X194162532Y-164784540D01*
X194115733Y-164889066D01*
X193977771Y-164946849D01*
X193735823Y-164983653D01*
X193565400Y-164990667D01*
X193116667Y-164990667D01*
X193116667Y-165534075D01*
X193119882Y-165776637D01*
X193117087Y-165965630D01*
X193089625Y-166107691D01*
X193018834Y-166209457D01*
X192886055Y-166277563D01*
X192672630Y-166318648D01*
X192359899Y-166339346D01*
X191929202Y-166346295D01*
X191361880Y-166346132D01*
X190835719Y-166345333D01*
X190244688Y-166343224D01*
X189710217Y-166337285D01*
X189255432Y-166328102D01*
X188903458Y-166316257D01*
X188677423Y-166302335D01*
X188601111Y-166288889D01*
X188573528Y-166182117D01*
X188553421Y-165953305D01*
X188544752Y-165649710D01*
X188544667Y-165615595D01*
X188544667Y-164998747D01*
X188015500Y-164973540D01*
X187486333Y-164948333D01*
X187461557Y-164289511D01*
X187436781Y-163630688D01*
X186445557Y-163654511D01*
X185454333Y-163678333D01*
X185412000Y-164313333D01*
X185369667Y-164948333D01*
X184777000Y-164948333D01*
X184184333Y-164948333D01*
X184180432Y-164313333D01*
X184176531Y-163678333D01*
X183608932Y-163653298D01*
X183041333Y-163628263D01*
X183041333Y-162324462D01*
X183041333Y-161020661D01*
X182554500Y-161037164D01*
X182067667Y-161053667D01*
X182025333Y-159701590D01*
X181983000Y-158349513D01*
X181517333Y-158357963D01*
X181051667Y-158366413D01*
X181026870Y-159015325D01*
X181002074Y-159664238D01*
X180434204Y-159639286D01*
X179866333Y-159614333D01*
X179841457Y-159000500D01*
X179816581Y-158386667D01*
X179322658Y-158386667D01*
X179007498Y-158367768D01*
X178795225Y-158316334D01*
X178739194Y-158278778D01*
X178709834Y-158154729D01*
X178687561Y-157862565D01*
X178672404Y-157403357D01*
X178664393Y-156778176D01*
X178663558Y-155988093D01*
X178665327Y-155611756D01*
X178667489Y-154804472D01*
X178663309Y-154142667D01*
X178652923Y-153631446D01*
X178636469Y-153275916D01*
X178614084Y-153081182D01*
X178596333Y-153043241D01*
X178467541Y-153035573D01*
X178234561Y-153026565D01*
X178088333Y-153022096D01*
X177665000Y-153010333D01*
X177640476Y-152315960D01*
X177621641Y-151782667D01*
X178825941Y-151782667D01*
X178839118Y-152354167D01*
X178852295Y-152925667D01*
X179286738Y-152934292D01*
X179483304Y-152934895D01*
X179639655Y-152939616D01*
X179760331Y-152965818D01*
X179849872Y-153030866D01*
X179912817Y-153152125D01*
X179953706Y-153346957D01*
X179977080Y-153632726D01*
X179987476Y-154026798D01*
X179989436Y-154546536D01*
X179987499Y-155209303D01*
X179986468Y-155610721D01*
X179981976Y-158175000D01*
X180449686Y-158200283D01*
X180917395Y-158225567D01*
X180942198Y-157565283D01*
X180967000Y-156905000D01*
X181517333Y-156905000D01*
X182067667Y-156905000D01*
X182092324Y-157557217D01*
X182116981Y-158209434D01*
X182642657Y-158234550D01*
X183168333Y-158259667D01*
X183191684Y-159546850D01*
X183215034Y-160834033D01*
X183742017Y-160859183D01*
X184269000Y-160884333D01*
X184292316Y-162217833D01*
X184315633Y-163551333D01*
X184779150Y-163551333D01*
X185242667Y-163551333D01*
X185242667Y-162969033D01*
X185260989Y-162580028D01*
X185316837Y-162348814D01*
X185360405Y-162289020D01*
X185513684Y-162241373D01*
X185832914Y-162215558D01*
X186318942Y-162211523D01*
X186524571Y-162215153D01*
X187571000Y-162239000D01*
X187595657Y-162891217D01*
X187620314Y-163543434D01*
X188145990Y-163568550D01*
X188671667Y-163593667D01*
X188696542Y-164207500D01*
X188721418Y-164821333D01*
X190830667Y-164821333D01*
X192939915Y-164821333D01*
X192964791Y-164207500D01*
X192989667Y-163593667D01*
X193515343Y-163568550D01*
X194041019Y-163543434D01*
X194065676Y-162891217D01*
X194090333Y-162239000D01*
X195212167Y-162215376D01*
X195691515Y-162209148D01*
X196023022Y-162215117D01*
X196227846Y-162234864D01*
X196327147Y-162269972D01*
X196344989Y-162300042D01*
X196352188Y-162436897D01*
X196360047Y-162686176D01*
X196366156Y-162958667D01*
X196376333Y-163509000D01*
X196860995Y-163534327D01*
X197345658Y-163559654D01*
X197368995Y-162221994D01*
X197392333Y-160884333D01*
X197919316Y-160859183D01*
X198446299Y-160834033D01*
X198469649Y-159546850D01*
X198493000Y-158259667D01*
X199018676Y-158234550D01*
X199544352Y-158209434D01*
X199569009Y-157557217D01*
X199593667Y-156905000D01*
X200058310Y-156890184D01*
X200391751Y-156895259D01*
X200596366Y-156956649D01*
X200699749Y-157104665D01*
X200729497Y-157369614D01*
X200722383Y-157619579D01*
X200694333Y-158175000D01*
X201181167Y-158200392D01*
X201668000Y-158225784D01*
X201668000Y-155600760D01*
X201668000Y-152975737D01*
X202239500Y-152950702D01*
X202811000Y-152925667D01*
X202836080Y-152354167D01*
X202861160Y-151782667D01*
X202366180Y-151782667D01*
X202080355Y-151766195D01*
X201858034Y-151723650D01*
X201769600Y-151681067D01*
X201714187Y-151541493D01*
X201678187Y-151279116D01*
X201668000Y-151003733D01*
X201668000Y-150428000D01*
X201169178Y-150428000D01*
X200888699Y-150422609D01*
X200732274Y-150393841D01*
X200654687Y-150322806D01*
X200611859Y-150195167D01*
X200590019Y-150019828D01*
X200574714Y-149718704D01*
X200567431Y-149335266D01*
X200569109Y-148946333D01*
X200574561Y-148540135D01*
X200577683Y-148190550D01*
X200578240Y-147935474D01*
X200576095Y-147814016D01*
X200527774Y-147747493D01*
X200375323Y-147723692D01*
X200098071Y-147736613D01*
X199798239Y-147744362D01*
X199611647Y-147712799D01*
X199572359Y-147684190D01*
X199546930Y-147557816D01*
X199535150Y-147315683D01*
X199539265Y-147020759D01*
X199562622Y-146448667D01*
X199051248Y-146448667D01*
X198539874Y-146448667D01*
X198563811Y-147655167D01*
X198567662Y-148100558D01*
X198561772Y-148493369D01*
X198547351Y-148798542D01*
X198525608Y-148981022D01*
X198517095Y-149008212D01*
X198444201Y-149093205D01*
X198304671Y-149126780D01*
X198052724Y-149118057D01*
X197992444Y-149112750D01*
X197714062Y-149097841D01*
X197560302Y-149123734D01*
X197489757Y-149197956D01*
X197487070Y-149204622D01*
X197474164Y-149321001D01*
X197462931Y-149584134D01*
X197453755Y-149971446D01*
X197447024Y-150460363D01*
X197443121Y-151028311D01*
X197442433Y-151652714D01*
X197442764Y-151799734D01*
X197444787Y-152538538D01*
X197443734Y-153124959D01*
X197435994Y-153575951D01*
X197417954Y-153908463D01*
X197386002Y-154139446D01*
X197336526Y-154285853D01*
X197265914Y-154364633D01*
X197170554Y-154392737D01*
X197046834Y-154387118D01*
X196896037Y-154365439D01*
X196694405Y-154343894D01*
X196547773Y-154361675D01*
X196447410Y-154440643D01*
X196384583Y-154602654D01*
X196350561Y-154869566D01*
X196336612Y-155263239D01*
X196334000Y-155772367D01*
X196334000Y-157032000D01*
X195741333Y-157032000D01*
X195148667Y-157032000D01*
X195148667Y-155679968D01*
X195148667Y-154327937D01*
X194619500Y-154346468D01*
X194090333Y-154365000D01*
X194048000Y-153696081D01*
X194005667Y-153027161D01*
X193497667Y-153018747D01*
X192989667Y-153010333D01*
X192964708Y-152392388D01*
X192939749Y-151774442D01*
X192456708Y-151799721D01*
X191973667Y-151825000D01*
X191994657Y-152370445D01*
X191990365Y-152739765D01*
X191942758Y-152945459D01*
X191909990Y-152982982D01*
X191784629Y-153010177D01*
X191532857Y-153030699D01*
X191197482Y-153044181D01*
X190821310Y-153050256D01*
X190447145Y-153048556D01*
X190117795Y-153038713D01*
X189876066Y-153020361D01*
X189779258Y-153001275D01*
X189705825Y-152934477D01*
X189663989Y-152781706D01*
X189646839Y-152509021D01*
X189645333Y-152343500D01*
X189645333Y-151737118D01*
X189200833Y-151751644D01*
X188756333Y-151766171D01*
X188730869Y-152343578D01*
X188703287Y-152655525D01*
X188656321Y-152886760D01*
X188603869Y-152988477D01*
X188458498Y-153029677D01*
X188225629Y-153047078D01*
X188163667Y-153046466D01*
X187920055Y-153042200D01*
X187742815Y-153043591D01*
X187719167Y-153044815D01*
X187656427Y-153117450D01*
X187622056Y-153332831D01*
X187613333Y-153634966D01*
X187597984Y-154009406D01*
X187538444Y-154241287D01*
X187414469Y-154355682D01*
X187205818Y-154377662D01*
X187030588Y-154356766D01*
X186816092Y-154330294D01*
X186659585Y-154344030D01*
X186551957Y-154419436D01*
X186484095Y-154577975D01*
X186446889Y-154841110D01*
X186431228Y-155230303D01*
X186428000Y-155767017D01*
X186428000Y-155776235D01*
X186428000Y-157039737D01*
X185856500Y-157014702D01*
X185285000Y-156989667D01*
X185269428Y-155677333D01*
X185253856Y-154365000D01*
X184790727Y-154383475D01*
X184458438Y-154373631D01*
X184262555Y-154315070D01*
X184236081Y-154291677D01*
X184205241Y-154167932D01*
X184178696Y-153878399D01*
X184156595Y-153426572D01*
X184139090Y-152815945D01*
X184126331Y-152050012D01*
X184122115Y-151648535D01*
X184099667Y-149115667D01*
X183676333Y-149109220D01*
X183408706Y-149102654D01*
X183205134Y-149093221D01*
X183147167Y-149088053D01*
X183104318Y-149036934D01*
X183073757Y-148885343D01*
X183054046Y-148615290D01*
X183043753Y-148208785D01*
X183041333Y-147761000D01*
X183041333Y-146448667D01*
X182575667Y-146448667D01*
X182110000Y-146448667D01*
X182110000Y-147079626D01*
X182110000Y-147710586D01*
X181580833Y-147735793D01*
X181051667Y-147761000D01*
X181028350Y-149094500D01*
X181005033Y-150428000D01*
X180499183Y-150428000D01*
X179993333Y-150428000D01*
X179993333Y-151003733D01*
X179978481Y-151332592D01*
X179938532Y-151576540D01*
X179891733Y-151681067D01*
X179755556Y-151737017D01*
X179511942Y-151773918D01*
X179308037Y-151782667D01*
X178825941Y-151782667D01*
X177621641Y-151782667D01*
X177615952Y-151621588D01*
X178148476Y-151596294D01*
X178681000Y-151571000D01*
X178681000Y-150964854D01*
X178690264Y-150656232D01*
X178714636Y-150415051D01*
X178748986Y-150290540D01*
X178751577Y-150287521D01*
X178869430Y-150248474D01*
X179099153Y-150222617D01*
X179301910Y-150216333D01*
X179781667Y-150216333D01*
X179805038Y-148925166D01*
X179828410Y-147634000D01*
X180372977Y-147634000D01*
X180917544Y-147634000D01*
X180942272Y-146979349D01*
X180967000Y-146324699D01*
X181475000Y-146323183D01*
X181983000Y-146321667D01*
X182025333Y-144975766D01*
X182067667Y-143629866D01*
X182547984Y-143633243D01*
G37*
D12*
%TO.C,REF\u002A\u002A*%
X147942321Y-86816319D02*
X147573866Y-87481030D01*
X148815858Y-89221362D02*
X148675919Y-89143794D01*
X148843149Y-86263771D02*
X153793498Y-89007791D01*
X151439717Y-90675791D02*
X149987850Y-89871008D01*
X153802274Y-90064542D02*
X153433819Y-90729253D01*
D13*
X151253057Y-92574928D02*
G75*
G02*
X151053053Y-92574928I-100002J0D01*
G01*
X151053053Y-92574928D02*
G75*
G02*
X151253057Y-92574928I100002J0D01*
G01*
D10*
%TO.C,D20*%
X152365672Y-171833516D02*
X152736546Y-171983359D01*
X152736546Y-171983359D02*
X152530512Y-172493310D01*
X152736546Y-171983359D02*
X152942579Y-171473408D01*
X152736546Y-171983359D02*
X153442699Y-171837249D01*
X153143013Y-172578996D02*
X152736546Y-171983359D01*
X153292856Y-172208123D02*
X153756448Y-172395426D01*
X153442699Y-171837249D02*
X153143013Y-172578996D01*
%TO.C,D36*%
X233417621Y-106490335D02*
X233800143Y-106373386D01*
X233800143Y-106373386D02*
X233639339Y-105847418D01*
X233800143Y-106373386D02*
X233960948Y-106899354D01*
X233800143Y-106373386D02*
X234256978Y-105815441D01*
X234256978Y-105815441D02*
X234490875Y-106580485D01*
X234373926Y-106197963D02*
X234852079Y-106051777D01*
X234490875Y-106580485D02*
X233800143Y-106373386D01*
%TO.C,D9*%
X109705460Y-93985348D02*
X110087982Y-94102297D01*
X110087982Y-94102297D02*
X109927178Y-94628265D01*
X110087982Y-94102297D02*
X110248787Y-93576329D01*
X110087982Y-94102297D02*
X110778714Y-93895198D01*
X110544817Y-94660242D02*
X110087982Y-94102297D01*
X110661765Y-94277720D02*
X111139918Y-94423906D01*
X110778714Y-93895198D02*
X110544817Y-94660242D01*
%TO.C,D3*%
X65894723Y-95736472D02*
X66285982Y-95819637D01*
X66285982Y-95819637D02*
X66171631Y-96357618D01*
X66285982Y-95819637D02*
X66400334Y-95281656D01*
X66285982Y-95819637D02*
X66956036Y-95553125D01*
X66789706Y-96335643D02*
X66285982Y-95819637D01*
X66872871Y-95944384D02*
X67361945Y-96048340D01*
X66956036Y-95553125D02*
X66789706Y-96335643D01*
%TO.C,D32*%
X255388244Y-113367235D02*
X255770766Y-113250286D01*
X255770766Y-113250286D02*
X255609962Y-112724318D01*
X255770766Y-113250286D02*
X255931571Y-113776254D01*
X255770766Y-113250286D02*
X256227601Y-112692341D01*
X256227601Y-112692341D02*
X256461498Y-113457385D01*
X256344549Y-113074863D02*
X256822702Y-112928677D01*
X256461498Y-113457385D02*
X255770766Y-113250286D01*
%TO.C,D39*%
X215832574Y-113958007D02*
X216215096Y-113841058D01*
X216215096Y-113841058D02*
X216054292Y-113315090D01*
X216215096Y-113841058D02*
X216375901Y-114367026D01*
X216215096Y-113841058D02*
X216671931Y-113283113D01*
X216671931Y-113283113D02*
X216905828Y-114048157D01*
X216788879Y-113665635D02*
X217267032Y-113519449D01*
X216905828Y-114048157D02*
X216215096Y-113841058D01*
%TO.C,D34*%
X244527746Y-142829916D02*
X244910268Y-142712967D01*
X244910268Y-142712967D02*
X244749464Y-142186999D01*
X244910268Y-142712967D02*
X245071073Y-143238935D01*
X244910268Y-142712967D02*
X245367103Y-142155022D01*
X245367103Y-142155022D02*
X245601000Y-142920066D01*
X245484051Y-142537544D02*
X245962204Y-142391358D01*
X245601000Y-142920066D02*
X244910268Y-142712967D01*
%TO.C,D23*%
X317193126Y-114633144D02*
X317584385Y-114549979D01*
X317584385Y-114549979D02*
X317470034Y-114011998D01*
X317584385Y-114549979D02*
X317698737Y-115087960D01*
X317584385Y-114549979D02*
X318088109Y-114033973D01*
X318088109Y-114033973D02*
X318254439Y-114816491D01*
X318171274Y-114425232D02*
X318660348Y-114321276D01*
X318254439Y-114816491D02*
X317584385Y-114549979D01*
%TD*%
M02*
