%TF.GenerationSoftware,KiCad,Pcbnew,8.0.6*%
%TF.CreationDate,2025-07-21T16:42:00+02:00*%
%TF.ProjectId,main,6d61696e-2e6b-4696-9361-645f70636258,v1.0.0*%
%TF.SameCoordinates,Original*%
%TF.FileFunction,Profile,NP*%
%FSLAX46Y46*%
G04 Gerber Fmt 4.6, Leading zero omitted, Abs format (unit mm)*
G04 Created by KiCad (PCBNEW 8.0.6) date 2025-07-21 16:42:00*
%MOMM*%
%LPD*%
G01*
G04 APERTURE LIST*
%TA.AperFunction,Profile*%
%ADD10C,0.150000*%
%TD*%
%TA.AperFunction,Profile*%
%ADD11C,0.050000*%
%TD*%
%TA.AperFunction,Profile*%
%ADD12C,0.100000*%
%TD*%
G04 APERTURE END LIST*
D10*
X117447985Y-80593786D02*
G75*
G02*
X118011432Y-80681063I-21284J-1999813D01*
G01*
X82024373Y-142281782D02*
X49989175Y-135785766D01*
X58614096Y-85499037D02*
G75*
G02*
X60986230Y-83958548I1956402J-415962D01*
G01*
D11*
X172674999Y-104000004D02*
X172550005Y-103999999D01*
D10*
X200604837Y-183746561D02*
G75*
G02*
X199401211Y-184149295I-1203835J1597860D01*
G01*
X100296640Y-80411040D02*
X117447985Y-80593786D01*
X82651412Y-142308458D02*
G75*
G02*
X82024372Y-142281785I-229609J1985961D01*
G01*
X220797892Y-86561185D02*
G75*
G02*
X221220397Y-86376426I1007606J-1728715D01*
G01*
X309434081Y-133428266D02*
G75*
G02*
X307893605Y-135800425I-1956481J-415735D01*
G01*
X126038093Y-165901567D02*
G75*
G02*
X126169487Y-165948109I-601594J-1907133D01*
G01*
X141564211Y-172013237D02*
G75*
G02*
X142034731Y-172276769I-732512J-1859663D01*
G01*
X60986225Y-83958572D02*
X75183133Y-86976208D01*
X275827789Y-142286273D02*
G75*
G02*
X275218094Y-142309491I-380091J1964273D01*
G01*
X293239208Y-138915273D02*
G75*
G02*
X293203512Y-138922522I-414806J1950975D01*
G01*
D11*
X185100006Y-137100002D02*
X185124995Y-104050003D01*
D10*
X136640121Y-86376417D02*
G75*
G02*
X137062614Y-86561204I-583721J-1909985D01*
G01*
X76127100Y-86948916D02*
X99747191Y-80481925D01*
X158459305Y-184149295D02*
G75*
G02*
X157255690Y-183746530I-6J1999796D01*
G01*
X307893597Y-135800385D02*
X293239208Y-138915273D01*
X141564211Y-172013237D02*
X126169486Y-165948111D01*
X76127100Y-86948916D02*
G75*
G02*
X75183135Y-86976197I-528100J1928116D01*
G01*
X98085182Y-140525086D02*
X82651412Y-142308458D01*
X126038093Y-165901567D02*
X110736829Y-161074412D01*
X191289901Y-103763209D02*
G75*
G02*
X190282640Y-104035353I-1007002J1727008D01*
G01*
X258113321Y-80481920D02*
X281733412Y-86948913D01*
X240412516Y-80593798D02*
X257563882Y-80411053D01*
X257765617Y-141600202D02*
X248302108Y-160078737D01*
X49989175Y-135785766D02*
G75*
G02*
X48430360Y-133409845I397426J1960068D01*
G01*
X282677367Y-86976207D02*
G75*
G02*
X281733409Y-86948923I-415867J1955008D01*
G01*
X110736829Y-161074412D02*
G75*
G02*
X109558404Y-160078750I601670J1907311D01*
G01*
X248302108Y-160078737D02*
G75*
G02*
X247123689Y-161074420I-1780207J911738D01*
G01*
X215825777Y-172276764D02*
X200604837Y-183746561D01*
D11*
X167577881Y-104035356D02*
X172550005Y-103999999D01*
D10*
X48430354Y-133409844D02*
X58614096Y-85499037D01*
X247123689Y-161074421D02*
X231822416Y-165901575D01*
X167577881Y-104035356D02*
G75*
G02*
X166570624Y-103763210I19J2000155D01*
G01*
X299246410Y-85499036D02*
X309434081Y-133428266D01*
X118011429Y-80681073D02*
X136640121Y-86376417D01*
D11*
X172700000Y-137150002D02*
X172674999Y-104000004D01*
X172700000Y-137150002D02*
X185100006Y-137100002D01*
D10*
X109558403Y-160078750D02*
X100094890Y-141600201D01*
X231691029Y-165948120D02*
G75*
G02*
X231822415Y-165901573I731072J-1854882D01*
G01*
X282677367Y-86976207D02*
X296874292Y-83958563D01*
D11*
X185124995Y-104050003D02*
X190282640Y-104035371D01*
D10*
X231691029Y-165948120D02*
X216296308Y-172013227D01*
X215825777Y-172276764D02*
G75*
G02*
X216296303Y-172013214I1203320J-1596535D01*
G01*
X221220397Y-86376427D02*
X239849074Y-80681076D01*
X137062620Y-86561194D02*
X166570623Y-103763212D01*
X293203512Y-138922522D02*
X275827789Y-142286273D01*
X275218092Y-142309504D02*
X259775335Y-140525080D01*
X157255668Y-183746559D02*
X142034729Y-172276772D01*
X98085182Y-140525086D02*
G75*
G02*
X100094897Y-141600197I229619J-1986716D01*
G01*
X191289901Y-103763209D02*
X220797892Y-86561185D01*
X296874292Y-83958563D02*
G75*
G02*
X299246421Y-85499034I415808J-1956333D01*
G01*
X257765617Y-141600202D02*
G75*
G02*
X259775333Y-140525093I1779983J-911398D01*
G01*
X257563882Y-80411053D02*
G75*
G02*
X258113324Y-80481909I21221J-2001148D01*
G01*
X99747191Y-80481925D02*
G75*
G02*
X100296640Y-80411036I528209J-1929278D01*
G01*
X239849074Y-80681076D02*
G75*
G02*
X240412516Y-80593798I584624J-1911826D01*
G01*
X199401211Y-184149293D02*
X158459305Y-184149295D01*
D12*
%TO.C,CPG1316*%
X251785814Y-112999441D02*
G75*
G02*
X250785820Y-112999441I-499997J0D01*
G01*
X250785820Y-112999441D02*
G75*
G02*
X251785814Y-112999441I499997J0D01*
G01*
X261370907Y-104348255D02*
G75*
G02*
X260170903Y-104348255I-600002J0D01*
G01*
X260170903Y-104348255D02*
G75*
G02*
X261370907Y-104348255I600002J0D01*
G01*
X113700601Y-109796728D02*
G75*
G02*
X112700611Y-109796728I-499995J0D01*
G01*
X112700611Y-109796728D02*
G75*
G02*
X113700601Y-109796728I499995J0D01*
G01*
X126501782Y-107928560D02*
G75*
G02*
X125301778Y-107928560I-600002J0D01*
G01*
X125301778Y-107928560D02*
G75*
G02*
X126501782Y-107928560I600002J0D01*
G01*
X118670921Y-93539549D02*
G75*
G02*
X117670931Y-93539549I-499995J0D01*
G01*
X117670931Y-93539549D02*
G75*
G02*
X118670921Y-93539549I499995J0D01*
G01*
X131472102Y-91671381D02*
G75*
G02*
X130272098Y-91671381I-600002J0D01*
G01*
X130272098Y-91671381D02*
G75*
G02*
X131472102Y-91671381I600002J0D01*
G01*
X123233220Y-136762050D02*
G75*
G02*
X122233230Y-136762050I-499995J0D01*
G01*
X122233230Y-136762050D02*
G75*
G02*
X123233220Y-136762050I499995J0D01*
G01*
X136034401Y-134893882D02*
G75*
G02*
X134834397Y-134893882I-600002J0D01*
G01*
X134834397Y-134893882D02*
G75*
G02*
X136034401Y-134893882I600002J0D01*
G01*
X229096452Y-96931063D02*
G75*
G02*
X228096458Y-96931063I-499997J0D01*
G01*
X228096458Y-96931063D02*
G75*
G02*
X229096452Y-96931063I499997J0D01*
G01*
X238681545Y-88279877D02*
G75*
G02*
X237481541Y-88279877I-600002J0D01*
G01*
X237481541Y-88279877D02*
G75*
G02*
X238681545Y-88279877I600002J0D01*
G01*
X70650736Y-133189793D02*
G75*
G02*
X69650742Y-133189793I-499997J0D01*
G01*
X69650742Y-133189793D02*
G75*
G02*
X70650736Y-133189793I499997J0D01*
G01*
X83240766Y-130221751D02*
G75*
G02*
X82040764Y-130221751I-600001J0D01*
G01*
X82040764Y-130221751D02*
G75*
G02*
X83240766Y-130221751I600001J0D01*
G01*
X100951883Y-93350769D02*
G75*
G02*
X99951893Y-93350769I-499995J0D01*
G01*
X99951893Y-93350769D02*
G75*
G02*
X100951883Y-93350769I499995J0D01*
G01*
X113753064Y-91482601D02*
G75*
G02*
X112553060Y-91482601I-600002J0D01*
G01*
X112553060Y-91482601D02*
G75*
G02*
X113753064Y-91482601I600002J0D01*
G01*
X224534147Y-140153573D02*
G75*
G02*
X223534153Y-140153573I-499997J0D01*
G01*
X223534153Y-140153573D02*
G75*
G02*
X224534147Y-140153573I499997J0D01*
G01*
X234119240Y-131502387D02*
G75*
G02*
X232919236Y-131502387I-600002J0D01*
G01*
X232919236Y-131502387D02*
G75*
G02*
X234119240Y-131502387I600002J0D01*
G01*
X215077802Y-165582832D02*
G75*
G02*
X214077792Y-165582832I-500005J0D01*
G01*
X214077792Y-165582832D02*
G75*
G02*
X215077802Y-165582832I500005J0D01*
G01*
X223872795Y-156137890D02*
G75*
G02*
X222672807Y-156137890I-599994J0D01*
G01*
X222672807Y-156137890D02*
G75*
G02*
X223872795Y-156137890I599994J0D01*
G01*
X148846303Y-111130633D02*
G75*
G02*
X147846313Y-111130633I-499995J0D01*
G01*
X147846313Y-111130633D02*
G75*
G02*
X148846303Y-111130633I499995J0D01*
G01*
X161647484Y-109262465D02*
G75*
G02*
X160447480Y-109262465I-600002J0D01*
G01*
X160447480Y-109262465D02*
G75*
G02*
X161647484Y-109262465I600002J0D01*
G01*
X219563828Y-123896394D02*
G75*
G02*
X218563834Y-123896394I-499997J0D01*
G01*
X218563834Y-123896394D02*
G75*
G02*
X219563828Y-123896394I499997J0D01*
G01*
X229148921Y-115245208D02*
G75*
G02*
X227948917Y-115245208I-600002J0D01*
G01*
X227948917Y-115245208D02*
G75*
G02*
X229148921Y-115245208I600002J0D01*
G01*
X149733922Y-169249806D02*
G75*
G02*
X148733932Y-169249806I-499995J0D01*
G01*
X148733932Y-169249806D02*
G75*
G02*
X149733922Y-169249806I499995J0D01*
G01*
X162408081Y-171838360D02*
G75*
G02*
X161208073Y-171838360I-600004J0D01*
G01*
X161208073Y-171838360D02*
G75*
G02*
X162408081Y-171838360I600004J0D01*
G01*
X57556717Y-113026783D02*
G75*
G02*
X56556723Y-113026783I-499997J0D01*
G01*
X56556723Y-113026783D02*
G75*
G02*
X57556717Y-113026783I499997J0D01*
G01*
X70146747Y-110058741D02*
G75*
G02*
X68946745Y-110058741I-600001J0D01*
G01*
X68946745Y-110058741D02*
G75*
G02*
X70146747Y-110058741I600001J0D01*
G01*
X95981562Y-109607936D02*
G75*
G02*
X94981572Y-109607936I-499995J0D01*
G01*
X94981572Y-109607936D02*
G75*
G02*
X95981562Y-109607936I499995J0D01*
G01*
X108782743Y-107739768D02*
G75*
G02*
X107582739Y-107739768I-600002J0D01*
G01*
X107582739Y-107739768D02*
G75*
G02*
X108782743Y-107739768I600002J0D01*
G01*
X198921077Y-114522146D02*
G75*
G02*
X197921083Y-114522146I-499997J0D01*
G01*
X197921083Y-114522146D02*
G75*
G02*
X198921077Y-114522146I499997J0D01*
G01*
X208506170Y-105870960D02*
G75*
G02*
X207306166Y-105870960I-600002J0D01*
G01*
X207306166Y-105870960D02*
G75*
G02*
X208506170Y-105870960I600002J0D01*
G01*
X208861704Y-147036512D02*
G75*
G02*
X207861710Y-147036512I-499997J0D01*
G01*
X207861710Y-147036512D02*
G75*
G02*
X208861704Y-147036512I499997J0D01*
G01*
X218446797Y-138385326D02*
G75*
G02*
X217246793Y-138385326I-600002J0D01*
G01*
X217246793Y-138385326D02*
G75*
G02*
X218446797Y-138385326I600002J0D01*
G01*
X234066774Y-113188245D02*
G75*
G02*
X233066780Y-113188245I-499997J0D01*
G01*
X233066780Y-113188245D02*
G75*
G02*
X234066774Y-113188245I499997J0D01*
G01*
X243651867Y-104537059D02*
G75*
G02*
X242451863Y-104537059I-600002J0D01*
G01*
X242451863Y-104537059D02*
G75*
G02*
X243651867Y-104537059I600002J0D01*
G01*
X286422767Y-98810060D02*
G75*
G02*
X285422771Y-98810060I-499998J0D01*
G01*
X285422771Y-98810060D02*
G75*
G02*
X286422767Y-98810060I499998J0D01*
G01*
X296725769Y-91018472D02*
G75*
G02*
X295525769Y-91018472I-600000J0D01*
G01*
X295525769Y-91018472D02*
G75*
G02*
X296725769Y-91018472I600000J0D01*
G01*
X276863241Y-135601560D02*
G75*
G02*
X275863245Y-135601560I-499998J0D01*
G01*
X275863245Y-135601560D02*
G75*
G02*
X276863241Y-135601560I499998J0D01*
G01*
X287166243Y-127809972D02*
G75*
G02*
X285966243Y-127809972I-600000J0D01*
G01*
X285966243Y-127809972D02*
G75*
G02*
X287166243Y-127809972I600000J0D01*
G01*
X116429489Y-155595775D02*
G75*
G02*
X115429499Y-155595775I-499995J0D01*
G01*
X115429499Y-155595775D02*
G75*
G02*
X116429489Y-155595775I499995J0D01*
G01*
X129230670Y-153727607D02*
G75*
G02*
X128030666Y-153727607I-600002J0D01*
G01*
X128030666Y-153727607D02*
G75*
G02*
X129230670Y-153727607I600002J0D01*
G01*
X214593505Y-107639211D02*
G75*
G02*
X213593511Y-107639211I-499997J0D01*
G01*
X213593511Y-107639211D02*
G75*
G02*
X214593505Y-107639211I499997J0D01*
G01*
X224178598Y-98988025D02*
G75*
G02*
X222978594Y-98988025I-600002J0D01*
G01*
X222978594Y-98988025D02*
G75*
G02*
X224178598Y-98988025I600002J0D01*
G01*
X289957250Y-115438559D02*
G75*
G02*
X288957254Y-115438559I-499998J0D01*
G01*
X288957254Y-115438559D02*
G75*
G02*
X289957250Y-115438559I499998J0D01*
G01*
X300260252Y-107646971D02*
G75*
G02*
X299060252Y-107646971I-600000J0D01*
G01*
X299060252Y-107646971D02*
G75*
G02*
X300260252Y-107646971I600000J0D01*
G01*
X138905662Y-143644992D02*
G75*
G02*
X137905672Y-143644992I-499995J0D01*
G01*
X137905672Y-143644992D02*
G75*
G02*
X138905662Y-143644992I499995J0D01*
G01*
X151706843Y-141776824D02*
G75*
G02*
X150506839Y-141776824I-600002J0D01*
G01*
X150506839Y-141776824D02*
G75*
G02*
X151706843Y-141776824I600002J0D01*
G01*
X128203553Y-120504890D02*
G75*
G02*
X127203563Y-120504890I-499995J0D01*
G01*
X127203563Y-120504890D02*
G75*
G02*
X128203553Y-120504890I499995J0D01*
G01*
X141004734Y-118636722D02*
G75*
G02*
X139804730Y-118636722I-600002J0D01*
G01*
X139804730Y-118636722D02*
G75*
G02*
X141004734Y-118636722I600002J0D01*
G01*
X91011240Y-125865132D02*
G75*
G02*
X90011250Y-125865132I-499995J0D01*
G01*
X90011250Y-125865132D02*
G75*
G02*
X91011240Y-125865132I499995J0D01*
G01*
X103812421Y-123996964D02*
G75*
G02*
X102612417Y-123996964I-600002J0D01*
G01*
X102612417Y-123996964D02*
G75*
G02*
X103812421Y-123996964I600002J0D01*
G01*
X231337879Y-158987284D02*
G75*
G02*
X230337885Y-158987284I-499997J0D01*
G01*
X230337885Y-158987284D02*
G75*
G02*
X231337879Y-158987284I499997J0D01*
G01*
X240922972Y-150336098D02*
G75*
G02*
X239722968Y-150336098I-600002J0D01*
G01*
X239722968Y-150336098D02*
G75*
G02*
X240922972Y-150336098I600002J0D01*
G01*
X273328757Y-118973063D02*
G75*
G02*
X272328761Y-118973063I-499998J0D01*
G01*
X272328761Y-118973063D02*
G75*
G02*
X273328757Y-118973063I499998J0D01*
G01*
X283631759Y-111181475D02*
G75*
G02*
X282431759Y-111181475I-600000J0D01*
G01*
X282431759Y-111181475D02*
G75*
G02*
X283631759Y-111181475I600000J0D01*
G01*
X61091223Y-96398281D02*
G75*
G02*
X60091229Y-96398281I-499997J0D01*
G01*
X60091229Y-96398281D02*
G75*
G02*
X61091223Y-96398281I499997J0D01*
G01*
X73681253Y-93430239D02*
G75*
G02*
X72481251Y-93430239I-600001J0D01*
G01*
X72481251Y-93430239D02*
G75*
G02*
X73681253Y-93430239I600001J0D01*
G01*
X77719737Y-99932770D02*
G75*
G02*
X76719743Y-99932770I-499997J0D01*
G01*
X76719743Y-99932770D02*
G75*
G02*
X77719737Y-99932770I499997J0D01*
G01*
X90309767Y-96964728D02*
G75*
G02*
X89109765Y-96964728I-600001J0D01*
G01*
X89109765Y-96964728D02*
G75*
G02*
X90309767Y-96964728I600001J0D01*
G01*
X133027379Y-161237405D02*
G75*
G02*
X132027381Y-161237405I-499999J0D01*
G01*
X132027381Y-161237405D02*
G75*
G02*
X133027379Y-161237405I499999J0D01*
G01*
X145943052Y-160483329D02*
G75*
G02*
X144743052Y-160483329I-600000J0D01*
G01*
X144743052Y-160483329D02*
G75*
G02*
X145943052Y-160483329I600000J0D01*
G01*
X203891384Y-130779316D02*
G75*
G02*
X202891390Y-130779316I-499997J0D01*
G01*
X202891390Y-130779316D02*
G75*
G02*
X203891384Y-130779316I499997J0D01*
G01*
X213476477Y-122128130D02*
G75*
G02*
X212276473Y-122128130I-600002J0D01*
G01*
X212276473Y-122128130D02*
G75*
G02*
X213476477Y-122128130I600002J0D01*
G01*
X256756123Y-129256639D02*
G75*
G02*
X255756129Y-129256639I-499997J0D01*
G01*
X255756129Y-129256639D02*
G75*
G02*
X256756123Y-129256639I499997J0D01*
G01*
X266341216Y-120605453D02*
G75*
G02*
X265141212Y-120605453I-600002J0D01*
G01*
X265141212Y-120605453D02*
G75*
G02*
X266341216Y-120605453I600002J0D01*
G01*
X143875989Y-127387813D02*
G75*
G02*
X142875999Y-127387813I-499995J0D01*
G01*
X142875999Y-127387813D02*
G75*
G02*
X143875989Y-127387813I499995J0D01*
G01*
X156677170Y-125519645D02*
G75*
G02*
X155477166Y-125519645I-600002J0D01*
G01*
X155477166Y-125519645D02*
G75*
G02*
X156677170Y-125519645I600002J0D01*
G01*
X293491758Y-132067062D02*
G75*
G02*
X292491762Y-132067062I-499998J0D01*
G01*
X292491762Y-132067062D02*
G75*
G02*
X293491758Y-132067062I499998J0D01*
G01*
X303794760Y-124275474D02*
G75*
G02*
X302594760Y-124275474I-600000J0D01*
G01*
X302594760Y-124275474D02*
G75*
G02*
X303794760Y-124275474I600000J0D01*
G01*
X133173872Y-104247716D02*
G75*
G02*
X132173882Y-104247716I-499995J0D01*
G01*
X132173882Y-104247716D02*
G75*
G02*
X133173872Y-104247716I499995J0D01*
G01*
X145975053Y-102379548D02*
G75*
G02*
X144775049Y-102379548I-600002J0D01*
G01*
X144775049Y-102379548D02*
G75*
G02*
X145975053Y-102379548I600002J0D01*
G01*
X246815491Y-96742266D02*
G75*
G02*
X245815497Y-96742266I-499997J0D01*
G01*
X245815497Y-96742266D02*
G75*
G02*
X246815491Y-96742266I499997J0D01*
G01*
X256400584Y-88091080D02*
G75*
G02*
X255200580Y-88091080I-600002J0D01*
G01*
X255200580Y-88091080D02*
G75*
G02*
X256400584Y-88091080I600002J0D01*
G01*
X108730272Y-126053924D02*
G75*
G02*
X107730282Y-126053924I-499995J0D01*
G01*
X107730282Y-126053924D02*
G75*
G02*
X108730272Y-126053924I499995J0D01*
G01*
X121531453Y-124185756D02*
G75*
G02*
X120331449Y-124185756I-600002J0D01*
G01*
X120331449Y-124185756D02*
G75*
G02*
X121531453Y-124185756I600002J0D01*
G01*
X199862413Y-176230866D02*
G75*
G02*
X198862421Y-176230866I-499996J0D01*
G01*
X198862421Y-176230866D02*
G75*
G02*
X199862413Y-176230866I499996J0D01*
G01*
X205916604Y-164857316D02*
G75*
G02*
X204716594Y-164857316I-600005J0D01*
G01*
X204716594Y-164857316D02*
G75*
G02*
X205916604Y-164857316I600005J0D01*
G01*
X269794262Y-102344552D02*
G75*
G02*
X268794266Y-102344552I-499998J0D01*
G01*
X268794266Y-102344552D02*
G75*
G02*
X269794262Y-102344552I499998J0D01*
G01*
X280097264Y-94552964D02*
G75*
G02*
X278897264Y-94552964I-600000J0D01*
G01*
X278897264Y-94552964D02*
G75*
G02*
X280097264Y-94552964I600000J0D01*
G01*
X54022230Y-129655292D02*
G75*
G02*
X53022236Y-129655292I-499997J0D01*
G01*
X53022236Y-129655292D02*
G75*
G02*
X54022230Y-129655292I499997J0D01*
G01*
X66612260Y-126687250D02*
G75*
G02*
X65412258Y-126687250I-600001J0D01*
G01*
X65412258Y-126687250D02*
G75*
G02*
X66612260Y-126687250I600001J0D01*
G01*
X74185252Y-116561288D02*
G75*
G02*
X73185258Y-116561288I-499997J0D01*
G01*
X73185258Y-116561288D02*
G75*
G02*
X74185252Y-116561288I499997J0D01*
G01*
X86775282Y-113593246D02*
G75*
G02*
X85575280Y-113593246I-600001J0D01*
G01*
X85575280Y-113593246D02*
G75*
G02*
X86775282Y-113593246I600001J0D01*
G01*
X239037095Y-129445422D02*
G75*
G02*
X238037101Y-129445422I-499997J0D01*
G01*
X238037101Y-129445422D02*
G75*
G02*
X239037095Y-129445422I499997J0D01*
G01*
X248622188Y-120794236D02*
G75*
G02*
X247422184Y-120794236I-600002J0D01*
G01*
X247422184Y-120794236D02*
G75*
G02*
X248622188Y-120794236I600002J0D01*
G01*
%TD*%
M02*
