%TF.GenerationSoftware,KiCad,Pcbnew,8.0.6*%
%TF.CreationDate,2025-05-26T13:53:35+02:00*%
%TF.ProjectId,main-rounded,6d61696e-2d72-46f7-956e-6465642e6b69,v1.0.0*%
%TF.SameCoordinates,Original*%
%TF.FileFunction,Soldermask,Bot*%
%TF.FilePolarity,Negative*%
%FSLAX46Y46*%
G04 Gerber Fmt 4.6, Leading zero omitted, Abs format (unit mm)*
G04 Created by KiCad (PCBNEW 8.0.6) date 2025-05-26 13:53:35*
%MOMM*%
%LPD*%
G01*
G04 APERTURE LIST*
G04 Aperture macros list*
%AMRoundRect*
0 Rectangle with rounded corners*
0 $1 Rounding radius*
0 $2 $3 $4 $5 $6 $7 $8 $9 X,Y pos of 4 corners*
0 Add a 4 corners polygon primitive as box body*
4,1,4,$2,$3,$4,$5,$6,$7,$8,$9,$2,$3,0*
0 Add four circle primitives for the rounded corners*
1,1,$1+$1,$2,$3*
1,1,$1+$1,$4,$5*
1,1,$1+$1,$6,$7*
1,1,$1+$1,$8,$9*
0 Add four rect primitives between the rounded corners*
20,1,$1+$1,$2,$3,$4,$5,0*
20,1,$1+$1,$4,$5,$6,$7,0*
20,1,$1+$1,$6,$7,$8,$9,0*
20,1,$1+$1,$8,$9,$2,$3,0*%
G04 Aperture macros list end*
%ADD10RoundRect,0.050000X-1.110073X-0.590236X0.590236X-1.110073X1.110073X0.590236X-0.590236X1.110073X0*%
%ADD11RoundRect,0.050000X-0.605760X-0.442216X0.254914X-0.705350X0.605760X0.442216X-0.254914X0.705350X0*%
%ADD12C,2.005000*%
%ADD13C,1.801800*%
%ADD14C,3.100000*%
%ADD15C,3.529000*%
%ADD16RoundRect,0.050000X-0.863113X-1.623279X1.623279X-0.863113X0.863113X1.623279X-1.623279X0.863113X0*%
%ADD17RoundRect,0.050000X-0.590236X-1.110073X1.110073X-0.590236X0.590236X1.110073X-1.110073X0.590236X0*%
%ADD18RoundRect,0.050000X-0.254914X-0.705350X0.605760X-0.442216X0.254914X0.705350X-0.605760X0.442216X0*%
%ADD19RoundRect,0.050000X-1.820586X-0.255867X0.255867X-1.820586X1.820586X0.255867X-0.255867X1.820586X0*%
%ADD20RoundRect,0.050000X-1.001307X-1.541877X1.541877X-1.001307X1.001307X1.541877X-1.541877X1.001307X0*%
%ADD21RoundRect,0.050000X-1.541877X-1.001307X1.001307X-1.541877X1.541877X1.001307X-1.001307X1.541877X0*%
%ADD22RoundRect,0.050000X-1.054407X-0.684740X0.684740X-1.054407X1.054407X0.684740X-0.684740X1.054407X0*%
%ADD23RoundRect,0.050000X-0.564913X-0.493328X0.315419X-0.680449X0.564913X0.493328X-0.315419X0.680449X0*%
%ADD24C,3.900000*%
%ADD25RoundRect,0.050000X-1.623279X-0.863113X0.863113X-1.623279X1.623279X0.863113X-0.863113X1.623279X0*%
%ADD26RoundRect,0.050000X-0.684740X-1.054407X1.054407X-0.684740X0.684740X1.054407X-1.054407X0.684740X0*%
%ADD27RoundRect,0.050000X-0.315419X-0.680449X0.564913X-0.493328X0.315419X0.680449X-0.564913X0.493328X0*%
%ADD28RoundRect,0.050000X-0.718350X-1.692328X1.692328X-0.718350X0.718350X1.692328X-1.692328X0.718350X0*%
%ADD29RoundRect,0.050000X-0.255867X-1.820586X1.820586X-0.255867X0.255867X1.820586X-1.820586X0.255867X0*%
%ADD30RoundRect,0.050000X-1.692328X-0.718350X0.718350X-1.692328X1.692328X0.718350X-0.718350X1.692328X0*%
%ADD31C,1.000000*%
%ADD32RoundRect,0.050000X-1.245001X-0.174973X0.174973X-1.245001X1.245001X0.174973X-0.174973X1.245001X0*%
%ADD33RoundRect,0.050000X-0.720475X-0.208365X-0.001703X-0.749998X0.720475X0.208365X0.001703X0.749998X0*%
%ADD34RoundRect,0.260000X-0.390000X-0.665000X0.390000X-0.665000X0.390000X0.665000X-0.390000X0.665000X0*%
%ADD35O,1.300000X1.850000*%
%ADD36RoundRect,0.050000X-0.174973X-1.245001X1.245001X-0.174973X0.174973X1.245001X-1.245001X0.174973X0*%
%ADD37RoundRect,0.050000X0.001703X-0.749998X0.720475X-0.208365X-0.001703X0.749998X-0.720475X0.208365X0*%
%ADD38RoundRect,0.102000X0.749000X-0.749000X0.749000X0.749000X-0.749000X0.749000X-0.749000X-0.749000X0*%
%ADD39C,1.702000*%
%ADD40RoundRect,0.050000X-0.491241X-1.157292X1.157292X-0.491241X0.491241X1.157292X-1.157292X0.491241X0*%
%ADD41RoundRect,0.050000X-0.192469X-0.724883X0.641997X-0.387737X0.192469X0.724883X-0.641997X0.387737X0*%
%ADD42RoundRect,0.050000X-1.157292X-0.491241X0.491241X-1.157292X1.157292X0.491241X-0.491241X1.157292X0*%
%ADD43RoundRect,0.050000X-0.641997X-0.387737X0.192469X-0.724883X0.641997X0.387737X-0.192469X0.724883X0*%
%ADD44C,1.800000*%
G04 APERTURE END LIST*
D10*
%TO.C,D14*%
X136978943Y-124283215D03*
D11*
X139044561Y-124914738D03*
X142200367Y-125879564D03*
D12*
X144265985Y-126511087D03*
%TD*%
D10*
%TO.C,D18*%
X159826681Y-114537402D03*
D11*
X161892299Y-115168925D03*
X165048105Y-116133751D03*
D12*
X167113723Y-116765274D03*
%TD*%
D13*
%TO.C,S40*%
X240714576Y-161645349D03*
D14*
X244234640Y-154347292D03*
D15*
X245974252Y-160037305D03*
D14*
X249659382Y-154989304D03*
D13*
X251233928Y-158429261D03*
D16*
X241102742Y-155304809D03*
X252791280Y-154031786D03*
%TD*%
D17*
%TO.C,D32*%
X252338500Y-115218197D03*
D18*
X254404118Y-114586674D03*
X257559924Y-113621848D03*
D12*
X259625542Y-112990325D03*
%TD*%
D17*
%TO.C,D31*%
X257601191Y-132431682D03*
D18*
X259666809Y-131800159D03*
X262822615Y-130835333D03*
D12*
X264888233Y-130203810D03*
%TD*%
D10*
%TO.C,D11*%
X120563383Y-112990325D03*
D11*
X122629001Y-113621848D03*
X125784807Y-114586674D03*
D12*
X127850425Y-115218197D03*
%TD*%
D13*
%TO.C,S21*%
X171067922Y-175444374D03*
D14*
X179041216Y-174002476D03*
D15*
X175460417Y-178754357D03*
D14*
X181710401Y-178768549D03*
D13*
X179852912Y-182064340D03*
D19*
X176425685Y-172031532D03*
X184325932Y-180739493D03*
%TD*%
D13*
%TO.C,S36*%
X227582236Y-105010186D03*
D14*
X231102300Y-97712129D03*
D15*
X232841912Y-103402142D03*
D14*
X236527042Y-98354141D03*
D13*
X238101588Y-101794098D03*
D16*
X227970402Y-98669646D03*
X239658940Y-97396623D03*
%TD*%
D13*
%TO.C,S24*%
X307557045Y-94101477D03*
D14*
X311699782Y-87137985D03*
D15*
X312936857Y-92957963D03*
D14*
X317047926Y-88250351D03*
D13*
X318316669Y-91814449D03*
D20*
X308496349Y-87818896D03*
X320251360Y-87569440D03*
%TD*%
D13*
%TO.C,S1*%
X54387436Y-127027762D03*
D14*
X61004323Y-122351298D03*
D15*
X59767248Y-128171276D03*
D14*
X65437655Y-125542781D03*
D13*
X65147060Y-129314790D03*
D21*
X57800889Y-121670387D03*
X68641088Y-126223692D03*
%TD*%
D17*
%TO.C,D34*%
X241185631Y-143724573D03*
D18*
X243251249Y-143093050D03*
X246407055Y-142128224D03*
D12*
X248472673Y-141496701D03*
%TD*%
D22*
%TO.C,D6*%
X81070573Y-101006878D03*
D23*
X83183371Y-101455969D03*
X86411259Y-102142077D03*
D12*
X88524057Y-102591168D03*
%TD*%
D13*
%TO.C,S2*%
X58129846Y-109421106D03*
D14*
X64746733Y-104744642D03*
D15*
X63509658Y-110564620D03*
D14*
X69180065Y-107936125D03*
D13*
X68889470Y-111708134D03*
D21*
X61543299Y-104063731D03*
X72383498Y-108617036D03*
%TD*%
D24*
%TO.C,H3*%
X67861043Y-136843582D03*
%TD*%
D13*
%TO.C,S16*%
X149147003Y-143688741D03*
D14*
X156146291Y-139606772D03*
D15*
X154406679Y-145296785D03*
D14*
X160284597Y-143172501D03*
D13*
X159666355Y-146904829D03*
D25*
X153014393Y-138649254D03*
X163416495Y-144130018D03*
%TD*%
D13*
%TO.C,S10*%
X115146396Y-124928178D03*
D14*
X122145684Y-120846209D03*
D15*
X120406072Y-126536222D03*
D14*
X126283990Y-124411938D03*
D13*
X125665748Y-128144266D03*
D25*
X119013786Y-119888691D03*
X129415888Y-125369455D03*
%TD*%
D17*
%TO.C,D35*%
X235922940Y-126511087D03*
D18*
X237988558Y-125879564D03*
X241144364Y-124914738D03*
D12*
X243209982Y-124283215D03*
%TD*%
D10*
%TO.C,D7*%
X95669044Y-129430271D03*
D11*
X97734662Y-130061794D03*
X100890468Y-131026620D03*
D12*
X102956086Y-131658143D03*
%TD*%
D24*
%TO.C,H9*%
X169921428Y-121639132D03*
%TD*%
D13*
%TO.C,S26*%
X292714651Y-115658456D03*
D14*
X296857388Y-108694964D03*
D15*
X298094463Y-114514942D03*
D14*
X302205532Y-109807330D03*
D13*
X303474275Y-113371428D03*
D20*
X293653955Y-109375875D03*
X305408966Y-109126419D03*
%TD*%
D13*
%TO.C,S17*%
X154409694Y-126475256D03*
D14*
X161408982Y-122393287D03*
D15*
X159669370Y-128083300D03*
D14*
X165547288Y-125959016D03*
D13*
X164929046Y-129691344D03*
D25*
X158277084Y-121435769D03*
X168679186Y-126916533D03*
%TD*%
D26*
%TO.C,D27*%
X291664869Y-102591168D03*
D27*
X293777667Y-102142077D03*
X297005555Y-101455969D03*
D12*
X299118353Y-101006878D03*
%TD*%
D13*
%TO.C,S32*%
X249260487Y-110930781D03*
D14*
X252780551Y-103632724D03*
D15*
X254520163Y-109322737D03*
D14*
X258205293Y-104274736D03*
D13*
X259779839Y-107714693D03*
D16*
X249648653Y-104590241D03*
X261337191Y-103317218D03*
%TD*%
D22*
%TO.C,D5*%
X77328162Y-118613535D03*
D23*
X79440960Y-119062626D03*
X82668848Y-119748734D03*
D12*
X84781646Y-120197825D03*
%TD*%
D13*
%TO.C,S35*%
X232844926Y-122223672D03*
D14*
X236364990Y-114925615D03*
D15*
X238104602Y-120615628D03*
D14*
X241789732Y-115567627D03*
D13*
X243364278Y-119007584D03*
D16*
X233233092Y-115883132D03*
X244921630Y-114610109D03*
%TD*%
D13*
%TO.C,S41*%
X220155321Y-169538887D03*
D14*
X223025923Y-161961807D03*
D15*
X225254832Y-167478551D03*
D14*
X228485977Y-162128580D03*
D13*
X230354343Y-165418215D03*
D28*
X219989396Y-163188644D03*
X231522504Y-160901742D03*
%TD*%
D13*
%TO.C,S34*%
X238107617Y-139437157D03*
D14*
X241627681Y-132139100D03*
D15*
X243367293Y-137829113D03*
D14*
X247052423Y-132781112D03*
D13*
X248626969Y-136221069D03*
D16*
X238495783Y-133096617D03*
X250184321Y-131823594D03*
%TD*%
D17*
%TO.C,D33*%
X247075809Y-98004711D03*
D18*
X249141427Y-97373188D03*
X252297233Y-96408362D03*
D12*
X254362851Y-95776839D03*
%TD*%
D13*
%TO.C,S7*%
X95514747Y-124154640D03*
D14*
X102514035Y-120072671D03*
D15*
X100774423Y-125762684D03*
D14*
X106652341Y-123638400D03*
D13*
X106034099Y-127370728D03*
D25*
X99382137Y-119115153D03*
X109784239Y-124595917D03*
%TD*%
D24*
%TO.C,H7*%
X260090871Y-95803284D03*
%TD*%
D22*
%TO.C,D3*%
X62485768Y-97056556D03*
D23*
X64598566Y-97505647D03*
X67826454Y-98191755D03*
D12*
X69939252Y-98640846D03*
%TD*%
D24*
%TO.C,H2*%
X304843061Y-101630268D03*
%TD*%
D13*
%TO.C,S33*%
X243997796Y-93717295D03*
D14*
X247517860Y-86419238D03*
D15*
X249257472Y-92109251D03*
D14*
X252942602Y-87061250D03*
D13*
X254517148Y-90501207D03*
D16*
X244385962Y-87376755D03*
X256074500Y-86103732D03*
%TD*%
D13*
%TO.C,S42*%
X200336014Y-182064340D03*
D14*
X201147710Y-174002476D03*
D15*
X204728509Y-178754357D03*
D14*
X206464880Y-172750399D03*
D13*
X209121004Y-175444374D03*
D29*
X198532178Y-175973420D03*
X209080412Y-170779455D03*
%TD*%
D26*
%TO.C,D22*%
X317734494Y-133854159D03*
D27*
X319847292Y-133405068D03*
X323075180Y-132718960D03*
D12*
X325187978Y-132269869D03*
%TD*%
D17*
%TO.C,D40*%
X243792589Y-165932764D03*
D18*
X245858207Y-165301241D03*
X249014013Y-164336415D03*
D12*
X251079631Y-163704892D03*
%TD*%
D13*
%TO.C,S14*%
X136824647Y-119007584D03*
D14*
X143823935Y-114925615D03*
D15*
X142084323Y-120615628D03*
D14*
X147962241Y-118491344D03*
D13*
X147343999Y-122223672D03*
D25*
X140692037Y-113968097D03*
X151094139Y-119448861D03*
%TD*%
D26*
%TO.C,D25*%
X299149690Y-137804482D03*
D27*
X301262488Y-137355391D03*
X304490376Y-136669283D03*
D12*
X306603174Y-136220192D03*
%TD*%
D13*
%TO.C,S20*%
X149834582Y-165418215D03*
D14*
X157163002Y-161961807D03*
D15*
X154934093Y-167478551D03*
D14*
X160974787Y-165874645D03*
D13*
X160033604Y-169538887D03*
D30*
X154126475Y-160734970D03*
X164011314Y-167101481D03*
%TD*%
D13*
%TO.C,S12*%
X125671777Y-90501207D03*
D14*
X132671065Y-86419238D03*
D15*
X130931453Y-92109251D03*
D14*
X136809371Y-89984967D03*
D13*
X136191129Y-93717295D03*
D25*
X129539167Y-85461720D03*
X139941269Y-90942484D03*
%TD*%
D10*
%TO.C,D15*%
X142241634Y-107069730D03*
D11*
X144307252Y-107701253D03*
X147463058Y-108666079D03*
D12*
X149528676Y-109297602D03*
%TD*%
D13*
%TO.C,S27*%
X288972240Y-98051799D03*
D14*
X293114977Y-91088307D03*
D15*
X294352052Y-96908285D03*
D14*
X298463121Y-92200673D03*
D13*
X299731864Y-95764771D03*
D20*
X289911544Y-91769218D03*
X301666555Y-91519762D03*
%TD*%
D13*
%TO.C,S25*%
X296457061Y-133265113D03*
D14*
X300599798Y-126301621D03*
D15*
X301836873Y-132121599D03*
D14*
X305947942Y-127413987D03*
D13*
X307216685Y-130978085D03*
D20*
X297396365Y-126982532D03*
X309151376Y-126733076D03*
%TD*%
D10*
%TO.C,D17*%
X154563990Y-131750887D03*
D11*
X156629608Y-132382410D03*
X159785414Y-133347236D03*
D12*
X161851032Y-133978759D03*
%TD*%
D10*
%TO.C,D13*%
X131716253Y-141496701D03*
D11*
X133781871Y-142128224D03*
X136937677Y-143093050D03*
D12*
X139003295Y-143724573D03*
%TD*%
D31*
%TO.C,REF\u002A\u002A*%
X150811930Y-91727214D03*
X148188070Y-90272786D03*
%TD*%
D24*
%TO.C,H5*%
X120098055Y-95803284D03*
%TD*%
D22*
%TO.C,D2*%
X58743358Y-114663213D03*
D23*
X60856156Y-115112304D03*
X64084044Y-115798412D03*
D12*
X66196842Y-116247503D03*
%TD*%
D17*
%TO.C,D39*%
X213075202Y-116765274D03*
D18*
X215140820Y-116133751D03*
X218296626Y-115168925D03*
D12*
X220362244Y-114537402D03*
%TD*%
D24*
%TO.C,H10*%
X210267497Y-121639132D03*
%TD*%
%TO.C,H6*%
X109572673Y-130230255D03*
%TD*%
D32*
%TO.C,D21*%
X169408540Y-180454619D03*
D33*
X171133592Y-181754539D03*
X173769090Y-183740529D03*
D12*
X175494142Y-185040449D03*
%TD*%
D13*
%TO.C,S15*%
X142087337Y-101794098D03*
D14*
X149086625Y-97712129D03*
D15*
X147347013Y-103402142D03*
D14*
X153224931Y-101277858D03*
D13*
X152606689Y-105010186D03*
D25*
X145954727Y-96754611D03*
X156356829Y-102235375D03*
%TD*%
D26*
%TO.C,D26*%
X295407279Y-120197825D03*
D27*
X297520077Y-119748734D03*
X300747965Y-119062626D03*
D12*
X302860763Y-118613535D03*
%TD*%
D17*
%TO.C,D38*%
X218337893Y-133978759D03*
D18*
X220403511Y-133347236D03*
X223559317Y-132382410D03*
D12*
X225624935Y-131750887D03*
%TD*%
D10*
%TO.C,D19*%
X129109294Y-163704892D03*
D11*
X131174912Y-164336415D03*
X134330718Y-165301241D03*
D12*
X136396336Y-165932764D03*
%TD*%
D13*
%TO.C,S5*%
X76714651Y-113371428D03*
D14*
X83331538Y-108694964D03*
D15*
X82094463Y-114514942D03*
D14*
X87764870Y-111886447D03*
D13*
X87474275Y-115658456D03*
D21*
X80128104Y-108014053D03*
X90968303Y-112567358D03*
%TD*%
D13*
%TO.C,S37*%
X220522570Y-146904829D03*
D14*
X224042634Y-139606772D03*
D15*
X225782246Y-145296785D03*
D14*
X229467376Y-140248784D03*
D13*
X231041922Y-143688741D03*
D16*
X220910736Y-140564289D03*
X232599274Y-139291266D03*
%TD*%
D13*
%TO.C,S23*%
X311299455Y-111708134D03*
D14*
X315442192Y-104744642D03*
D15*
X316679267Y-110564620D03*
D14*
X320790336Y-105857008D03*
D13*
X322059079Y-109421106D03*
D20*
X312238759Y-105425553D03*
X323993770Y-105176097D03*
%TD*%
D24*
%TO.C,H11*%
X165145313Y-173437661D03*
%TD*%
D10*
%TO.C,D10*%
X115300692Y-130203810D03*
D11*
X117366310Y-130835333D03*
X120522116Y-131800159D03*
D12*
X122587734Y-132431682D03*
%TD*%
D13*
%TO.C,S39*%
X209997189Y-112477858D03*
D14*
X213517253Y-105179801D03*
D15*
X215256865Y-110869814D03*
D14*
X218941995Y-105821813D03*
D13*
X220516541Y-109261770D03*
D16*
X210385355Y-106137318D03*
X222073893Y-104864295D03*
%TD*%
D10*
%TO.C,D9*%
X106194425Y-95003300D03*
D11*
X108260043Y-95634823D03*
X111415849Y-96599649D03*
D12*
X113481467Y-97231172D03*
%TD*%
D13*
%TO.C,S6*%
X80457061Y-95764771D03*
D14*
X87073948Y-91088307D03*
D15*
X85836873Y-96908285D03*
D14*
X91507280Y-94279790D03*
D13*
X91216685Y-98051799D03*
D21*
X83870514Y-90407396D03*
X94710713Y-94960701D03*
%TD*%
D13*
%TO.C,S38*%
X215259879Y-129691344D03*
D14*
X218779943Y-122393287D03*
D15*
X220519555Y-128083300D03*
D14*
X224204685Y-123035299D03*
D13*
X225779231Y-126475256D03*
D16*
X215648045Y-123350804D03*
X227336583Y-122077781D03*
%TD*%
D13*
%TO.C,S4*%
X72972240Y-130978085D03*
D14*
X79589127Y-126301621D03*
D15*
X78352052Y-132121599D03*
D14*
X84022459Y-129493104D03*
D13*
X83731864Y-133265113D03*
D21*
X76385693Y-125620710D03*
X87225892Y-130174015D03*
%TD*%
D10*
%TO.C,D12*%
X125826074Y-95776839D03*
D11*
X127891692Y-96408362D03*
X131047498Y-97373188D03*
D12*
X133113116Y-98004711D03*
%TD*%
D22*
%TO.C,D4*%
X73585752Y-136220192D03*
D23*
X75698550Y-136669283D03*
X78926438Y-137355391D03*
D12*
X81039236Y-137804482D03*
%TD*%
D13*
%TO.C,S18*%
X159672384Y-109261770D03*
D14*
X166671672Y-105179801D03*
D15*
X164932060Y-110869814D03*
D14*
X170809978Y-108745530D03*
D13*
X170191736Y-112477858D03*
D25*
X163539774Y-104222283D03*
X173941876Y-109703047D03*
%TD*%
D10*
%TO.C,D8*%
X100931734Y-112216786D03*
D11*
X102997352Y-112848309D03*
X106153158Y-113813135D03*
D12*
X108218776Y-114444658D03*
%TD*%
D13*
%TO.C,S11*%
X120409087Y-107714693D03*
D14*
X127408375Y-103632724D03*
D15*
X125668763Y-109322737D03*
D14*
X131546681Y-107198453D03*
D13*
X130928439Y-110930781D03*
D25*
X124276477Y-102675206D03*
X134678579Y-108155970D03*
%TD*%
D24*
%TO.C,H8*%
X270616252Y-130230255D03*
%TD*%
%TO.C,H1*%
X75345864Y-101630268D03*
%TD*%
D17*
%TO.C,D30*%
X266707458Y-97231172D03*
D18*
X268773076Y-96599649D03*
X271928882Y-95634823D03*
D12*
X273994500Y-95003300D03*
%TD*%
D34*
%TO.C,JST1*%
X176000000Y-127000000D03*
D35*
X178000000Y-127000000D03*
%TD*%
D36*
%TO.C,D42*%
X204694783Y-185040449D03*
D37*
X206419835Y-183740529D03*
X209055333Y-181754539D03*
D12*
X210780385Y-180454619D03*
%TD*%
D22*
%TO.C,D1*%
X55000947Y-132269869D03*
D23*
X57113745Y-132718960D03*
X60341633Y-133405068D03*
D12*
X62454431Y-133854159D03*
%TD*%
D13*
%TO.C,S19*%
X128954998Y-158429261D03*
D14*
X135954286Y-154347292D03*
D15*
X134214674Y-160037305D03*
D14*
X140092592Y-157913021D03*
D13*
X139474350Y-161645349D03*
D25*
X132822388Y-153389774D03*
X143224490Y-158870538D03*
%TD*%
D17*
%TO.C,D28*%
X277232840Y-131658143D03*
D18*
X279298458Y-131026620D03*
X282454264Y-130061794D03*
D12*
X284519882Y-129430271D03*
%TD*%
D17*
%TO.C,D37*%
X223600584Y-151192245D03*
D18*
X225666202Y-150560722D03*
X228822008Y-149595896D03*
D12*
X230887626Y-148964373D03*
%TD*%
D38*
%TO.C,REF\u002A\u002A*%
X175250000Y-119000000D03*
D39*
X175250000Y-112500000D03*
X179750000Y-119000000D03*
X179750000Y-112500000D03*
%TD*%
D24*
%TO.C,H4*%
X312327882Y-136843582D03*
%TD*%
D13*
%TO.C,S3*%
X61872257Y-91814449D03*
D14*
X68489144Y-87137985D03*
D15*
X67252069Y-92957963D03*
D14*
X72922476Y-90329468D03*
D13*
X72631881Y-94101477D03*
D21*
X65285710Y-86457074D03*
X76125909Y-91010379D03*
%TD*%
D17*
%TO.C,D36*%
X230660249Y-109297602D03*
D18*
X232725867Y-108666079D03*
X235881673Y-107701253D03*
D12*
X237947291Y-107069730D03*
%TD*%
D26*
%TO.C,D24*%
X310249673Y-98640846D03*
D27*
X312362471Y-98191755D03*
X315590359Y-97505647D03*
D12*
X317703157Y-97056556D03*
%TD*%
D17*
%TO.C,D29*%
X271970149Y-114444658D03*
D18*
X274035767Y-113813135D03*
X277191573Y-112848309D03*
D12*
X279257191Y-112216786D03*
%TD*%
D24*
%TO.C,H12*%
X215043612Y-173437661D03*
%TD*%
D26*
%TO.C,D23*%
X313992084Y-116247503D03*
D27*
X316104882Y-115798412D03*
X319332770Y-115112304D03*
D12*
X321445568Y-114663213D03*
%TD*%
D13*
%TO.C,S31*%
X254523177Y-128144266D03*
D14*
X258043241Y-120846209D03*
D15*
X259782853Y-126536222D03*
D14*
X263467983Y-121488221D03*
D13*
X265042529Y-124928178D03*
D16*
X254911343Y-121803726D03*
X266599881Y-120530703D03*
%TD*%
D13*
%TO.C,S8*%
X100777438Y-106941154D03*
D14*
X107776726Y-102859185D03*
D15*
X106037114Y-108549198D03*
D14*
X111915032Y-106424914D03*
D13*
X111296790Y-110157242D03*
D25*
X104644828Y-101901667D03*
X115046930Y-107382431D03*
%TD*%
D13*
%TO.C,S9*%
X106040128Y-89727669D03*
D14*
X113039416Y-85645700D03*
D15*
X111299804Y-91335713D03*
D14*
X117177722Y-89211429D03*
D13*
X116559480Y-92943757D03*
D25*
X109907518Y-84688182D03*
X120309620Y-90168946D03*
%TD*%
D40*
%TO.C,D41*%
X223595295Y-173541722D03*
D41*
X225598012Y-172732572D03*
X228657718Y-171496370D03*
D12*
X230660435Y-170687220D03*
%TD*%
D13*
%TO.C,S30*%
X263629445Y-92943757D03*
D14*
X267149509Y-85645700D03*
D15*
X268889121Y-91335713D03*
D14*
X272574251Y-86287712D03*
D13*
X274148797Y-89727669D03*
D16*
X264017611Y-86603217D03*
X275706149Y-85330194D03*
%TD*%
D13*
%TO.C,S13*%
X131561956Y-136221069D03*
D14*
X138561244Y-132139100D03*
D15*
X136821632Y-137829113D03*
D14*
X142699550Y-135704829D03*
D13*
X142081308Y-139437157D03*
D25*
X135429346Y-131181582D03*
X145831448Y-136662346D03*
%TD*%
D13*
%TO.C,S22*%
X315041866Y-129314790D03*
D14*
X319184603Y-122351298D03*
D15*
X320421678Y-128171276D03*
D14*
X324532747Y-123463664D03*
D13*
X325801490Y-127027762D03*
D20*
X315981170Y-123032209D03*
X327736181Y-122782753D03*
%TD*%
D10*
%TO.C,D16*%
X149301300Y-148964373D03*
D11*
X151366918Y-149595896D03*
X154522724Y-150560722D03*
D12*
X156588342Y-151192245D03*
%TD*%
D42*
%TO.C,D20*%
X149528490Y-170687220D03*
D43*
X151531207Y-171496370D03*
X154590913Y-172732572D03*
D12*
X156593630Y-173541722D03*
%TD*%
D13*
%TO.C,S28*%
X274154826Y-127370728D03*
D14*
X277674890Y-120072671D03*
D15*
X279414502Y-125762684D03*
D14*
X283099632Y-120714683D03*
D13*
X284674178Y-124154640D03*
D16*
X274542992Y-121030188D03*
X286231530Y-119757165D03*
%TD*%
D13*
%TO.C,S29*%
X268892136Y-110157242D03*
D14*
X272412200Y-102859185D03*
D15*
X274151812Y-108549198D03*
D14*
X277836942Y-103501197D03*
D13*
X279411488Y-106941154D03*
D16*
X269280302Y-103816702D03*
X280968840Y-102543679D03*
%TD*%
D44*
%TO.C,MCU1*%
X197740000Y-107460000D03*
X197740000Y-110000000D03*
X197740000Y-112540000D03*
X197740000Y-115080000D03*
X197740000Y-117620000D03*
X197740000Y-120160000D03*
X197740000Y-122700000D03*
X197740000Y-125240000D03*
X197740000Y-127780000D03*
X197740000Y-130320000D03*
X197740000Y-132860000D03*
X197740000Y-135400000D03*
X182500000Y-135400000D03*
X182500000Y-132860000D03*
X182500000Y-130320000D03*
X182500000Y-127780000D03*
X182500000Y-125240000D03*
X182500000Y-122700000D03*
X182500000Y-120160000D03*
X182500000Y-117620000D03*
X182500000Y-115080000D03*
X182500000Y-112540000D03*
X182500000Y-110000000D03*
X182500000Y-107460000D03*
%TD*%
M02*
