M48
; DRILL file {KiCad 8.0.6} date 2025-05-14T19:15:13+0200
; FORMAT={-:-/ absolute / inch / decimal}
; #@! TF.CreationDate,2025-05-14T19:15:13+02:00
; #@! TF.GenerationSoftware,Kicad,Pcbnew,8.0.6
; #@! TF.FileFunction,Plated,1,2,PTH
FMAT,2
INCH
; #@! TA.AperFunction,Plated,PTH,ViaDrill
T1C0.0118
; #@! TA.AperFunction,Plated,PTH,ComponentDrill
T2C0.0295
; #@! TA.AperFunction,Plated,PTH,ComponentDrill
T3C0.0390
; #@! TA.AperFunction,Plated,PTH,ComponentDrill
T4C0.0390
; #@! TA.AperFunction,Plated,PTH,ComponentDrill
T5C0.0394
; #@! TA.AperFunction,Plated,PTH,ComponentDrill
T6C0.0866
%
G90
G05
T1
X2.9134Y-3.7992
X3.6811Y-3.8976
X4.6654Y-3.6024
X5.4331Y-3.7598
X6.063Y-4.0906
X6.122Y-3.8189
X6.122Y-3.8583
X6.7323Y-4.6063
X6.752Y-4.5669
X6.7717Y-4.5276
X6.7913Y-4.4882
X6.811Y-4.4488
X6.9891Y-4.7835
X7.0866Y-4.5276
X7.874Y-5.2953
X7.9134Y-5.2953
X7.9528Y-5.2953
X7.9921Y-5.2953
X8.0315Y-5.2953
T2
X6.9291Y-5.0
X7.0079Y-5.0
T3
X6.8996Y-4.4291
X6.8996Y-4.685
X7.0768Y-4.4291
X7.0768Y-4.685
T4
X2.1654Y-5.2075
X2.3127Y-4.5143
X2.4588Y-5.2698
X2.4601Y-3.8211
X2.6062Y-4.5767
X2.7535Y-3.8835
X2.8971Y-5.363
X3.0444Y-4.6698
X3.1905Y-5.4254
X3.1918Y-3.9766
X3.3379Y-4.7322
X3.4852Y-4.039
X3.7665Y-5.0957
X3.9737Y-4.418
X4.0534Y-5.1834
X4.1809Y-3.7403
X4.2606Y-4.5057
X4.4678Y-3.828
X4.5394Y-5.1261
X4.7466Y-4.4484
X4.8263Y-5.2138
X4.9538Y-3.7707
X5.0335Y-4.5361
X5.083Y-6.4451
X5.1857Y-5.5707
X5.2407Y-3.8585
X5.3699Y-6.5328
X5.3929Y-4.893
X5.4726Y-5.6584
X5.6001Y-4.2153
X5.6798Y-4.9808
X5.878Y-5.8647
X5.8869Y-6.72
X5.887Y-4.3031
X6.0852Y-5.187
X6.1649Y-5.9525
X6.1651Y-6.8324
X6.2924Y-4.5093
X6.3721Y-5.2748
X6.5793Y-4.5971
X6.6696Y-7.1045
X6.9092Y-7.2851
X8.0588Y-7.2851
X8.2984Y-7.1045
X8.3888Y-4.5971
X8.596Y-5.2748
X8.6757Y-4.5093
X8.803Y-6.8324
X8.8032Y-5.9525
X8.8829Y-5.187
X9.0811Y-4.3031
X9.0811Y-6.72
X9.0901Y-5.8647
X9.2883Y-4.9808
X9.368Y-4.2153
X9.4955Y-5.6584
X9.5752Y-4.893
X9.5981Y-6.5328
X9.7274Y-3.8585
X9.7824Y-5.5707
X9.885Y-6.4451
X9.9346Y-4.5361
X10.0143Y-3.7707
X10.1418Y-5.2138
X10.2215Y-4.4484
X10.4287Y-5.1261
X10.5003Y-3.828
X10.7075Y-4.5057
X10.7872Y-3.7403
X10.9147Y-5.1834
X10.9944Y-4.418
X11.2016Y-5.0957
X11.4829Y-4.039
X11.6302Y-4.7322
X11.7763Y-3.9766
X11.7775Y-5.4254
X11.9237Y-4.6698
X12.071Y-5.363
X12.2146Y-3.8835
X12.3619Y-4.5767
X12.508Y-3.8211
X12.5092Y-5.2698
X12.6553Y-4.5143
X12.8027Y-5.2075
T5
X7.185Y-4.2307
X7.185Y-4.3307
X7.185Y-4.4307
X7.185Y-4.5307
X7.185Y-4.6307
X7.185Y-4.7307
X7.185Y-4.8307
X7.185Y-4.9307
X7.185Y-5.0307
X7.185Y-5.1307
X7.185Y-5.2307
X7.185Y-5.3307
X7.785Y-4.2307
X7.785Y-4.3307
X7.785Y-4.4307
X7.785Y-4.5307
X7.785Y-4.6307
X7.785Y-4.7307
X7.785Y-4.8307
X7.785Y-4.9307
X7.785Y-5.0307
X7.785Y-5.1307
X7.785Y-5.2307
X7.785Y-5.3307
T6
X2.6717Y-5.3875
X2.9664Y-4.0012
X4.3139Y-5.1272
X4.7283Y-3.7718
X6.5018Y-6.8283
X6.6898Y-4.7889
X8.2782Y-4.7889
X8.4663Y-6.8283
X10.2398Y-3.7718
X10.6542Y-5.1272
X12.0017Y-4.0012
X12.2964Y-5.3875
M30
