%TF.GenerationSoftware,KiCad,Pcbnew,8.0.6*%
%TF.CreationDate,2025-05-16T17:03:22+02:00*%
%TF.ProjectId,main,6d61696e-2e6b-4696-9361-645f70636258,v1.0.0*%
%TF.SameCoordinates,Original*%
%TF.FileFunction,Soldermask,Top*%
%TF.FilePolarity,Negative*%
%FSLAX46Y46*%
G04 Gerber Fmt 4.6, Leading zero omitted, Abs format (unit mm)*
G04 Created by KiCad (PCBNEW 8.0.6) date 2025-05-16 17:03:22*
%MOMM*%
%LPD*%
G01*
G04 APERTURE LIST*
G04 Aperture macros list*
%AMRoundRect*
0 Rectangle with rounded corners*
0 $1 Rounding radius*
0 $2 $3 $4 $5 $6 $7 $8 $9 X,Y pos of 4 corners*
0 Add a 4 corners polygon primitive as box body*
4,1,4,$2,$3,$4,$5,$6,$7,$8,$9,$2,$3,0*
0 Add four circle primitives for the rounded corners*
1,1,$1+$1,$2,$3*
1,1,$1+$1,$4,$5*
1,1,$1+$1,$6,$7*
1,1,$1+$1,$8,$9*
0 Add four rect primitives between the rounded corners*
20,1,$1+$1,$2,$3,$4,$5,0*
20,1,$1+$1,$4,$5,$6,$7,0*
20,1,$1+$1,$6,$7,$8,$9,0*
20,1,$1+$1,$8,$9,$2,$3,0*%
G04 Aperture macros list end*
%ADD10C,3.900000*%
%ADD11RoundRect,0.050000X-1.033508X-0.729717X0.448764X-1.182893X1.033508X0.729717X-0.448764X1.182893X0*%
%ADD12RoundRect,0.050000X-1.248676X-0.663933X0.663933X-1.248676X1.248676X0.663933X-0.663933X1.248676X0*%
%ADD13RoundRect,0.050000X-0.448764X-1.182893X1.033508X-0.729717X0.448764X1.182893X-1.033508X0.729717X0*%
%ADD14RoundRect,0.050000X-0.663933X-1.248676X1.248676X-0.663933X0.663933X1.248676X-1.248676X0.663933X0*%
%ADD15RoundRect,0.050000X-1.110073X-0.590236X0.590236X-1.110073X1.110073X0.590236X-0.590236X1.110073X0*%
%ADD16RoundRect,0.050000X-0.605760X-0.442216X0.254914X-0.705350X0.605760X0.442216X-0.254914X0.705350X0*%
%ADD17C,2.005000*%
%ADD18RoundRect,0.050000X-0.684740X-1.054407X1.054407X-0.684740X0.684740X1.054407X-1.054407X0.684740X0*%
%ADD19RoundRect,0.050000X-0.315419X-0.680449X0.564913X-0.493328X0.315419X0.680449X-0.564913X0.493328X0*%
%ADD20RoundRect,0.050000X-0.550153X-1.139279X0.965976X-0.817016X0.550153X1.139279X-0.965976X0.817016X0*%
%ADD21RoundRect,0.050000X-0.770236X-1.186059X1.186059X-0.770236X0.770236X1.186059X-1.186059X0.770236X0*%
%ADD22RoundRect,0.050000X-0.590236X-1.110073X1.110073X-0.590236X0.590236X1.110073X-1.110073X0.590236X0*%
%ADD23RoundRect,0.050000X-0.254914X-0.705350X0.605760X-0.442216X0.254914X0.705350X-0.605760X0.442216X0*%
%ADD24RoundRect,0.050000X-1.054407X-0.684740X0.684740X-1.054407X1.054407X0.684740X-0.684740X1.054407X0*%
%ADD25RoundRect,0.050000X-0.564913X-0.493328X0.315419X-0.680449X0.564913X0.493328X-0.315419X0.680449X0*%
%ADD26RoundRect,0.050000X-0.965976X-0.817016X0.550153X-1.139279X0.965976X0.817016X-0.550153X1.139279X0*%
%ADD27RoundRect,0.050000X-1.186059X-0.770236X0.770236X-1.186059X1.186059X0.770236X-0.770236X1.186059X0*%
%ADD28RoundRect,0.050000X-0.017127X-1.265042X1.220758X-0.332229X0.017127X1.265042X-1.220758X0.332229X0*%
%ADD29RoundRect,0.050000X-0.196820X-1.400451X1.400451X-0.196820X0.196820X1.400451X-1.400451X0.196820X0*%
%ADD30RoundRect,0.050000X-0.491241X-1.157292X1.157292X-0.491241X0.491241X1.157292X-1.157292X0.491241X0*%
%ADD31RoundRect,0.050000X-0.192469X-0.724883X0.641997X-0.387737X0.192469X0.724883X-0.641997X0.387737X0*%
%ADD32RoundRect,0.050000X-0.174973X-1.245001X1.245001X-0.174973X0.174973X1.245001X-1.245001X0.174973X0*%
%ADD33RoundRect,0.050000X0.001703X-0.749998X0.720475X-0.208365X-0.001703X0.749998X-0.720475X0.208365X0*%
%ADD34RoundRect,0.260000X-0.390000X-0.665000X0.390000X-0.665000X0.390000X0.665000X-0.390000X0.665000X0*%
%ADD35O,1.300000X1.850000*%
%ADD36RoundRect,0.050000X-1.245001X-0.174973X0.174973X-1.245001X1.245001X0.174973X-0.174973X1.245001X0*%
%ADD37RoundRect,0.050000X-0.720475X-0.208365X-0.001703X-0.749998X0.720475X0.208365X0.001703X0.749998X0*%
%ADD38RoundRect,0.050000X-1.093174X-0.636864X0.343961X-1.217504X1.093174X0.636864X-0.343961X1.217504X0*%
%ADD39RoundRect,0.050000X-1.301790X-0.552577X0.552577X-1.301790X1.301790X0.552577X-0.552577X1.301790X0*%
%ADD40RoundRect,0.050000X-0.343961X-1.217504X1.093174X-0.636864X0.343961X1.217504X-1.093174X0.636864X0*%
%ADD41RoundRect,0.050000X-0.552577X-1.301790X1.301790X-0.552577X0.552577X1.301790X-1.301790X0.552577X0*%
%ADD42RoundRect,0.050000X-1.220758X-0.332229X0.017127X-1.265042X1.220758X0.332229X-0.017127X1.265042X0*%
%ADD43RoundRect,0.050000X-1.400451X-0.196820X0.196820X-1.400451X1.400451X0.196820X-0.196820X1.400451X0*%
%ADD44RoundRect,0.102000X0.749000X-0.749000X0.749000X0.749000X-0.749000X0.749000X-0.749000X-0.749000X0*%
%ADD45C,1.702000*%
%ADD46C,1.000000*%
%ADD47RoundRect,0.102000X0.669724X0.486281X0.057490X0.825648X-0.669724X-0.486281X-0.057490X-0.825648X0*%
%ADD48RoundRect,0.102000X0.631234X0.107443X-0.243386X0.592253X-0.631234X-0.107443X0.243386X-0.592253X0*%
%ADD49RoundRect,0.050000X-1.157292X-0.491241X0.491241X-1.157292X1.157292X0.491241X-0.491241X1.157292X0*%
%ADD50RoundRect,0.050000X-0.641997X-0.387737X0.192469X-0.724883X0.641997X0.387737X-0.192469X0.724883X0*%
%ADD51C,1.800000*%
G04 APERTURE END LIST*
D10*
%TO.C,H10*%
X226704171Y-113980440D03*
%TD*%
D11*
%TO.C,CPG1316*%
X103939970Y-123959406D03*
X99158446Y-122497547D03*
D12*
X105092728Y-133357073D03*
X108601188Y-121881416D03*
X92947658Y-129643952D03*
X96456118Y-118168295D03*
%TD*%
D13*
%TO.C,CPG1316*%
X256259591Y-105101295D03*
X251478067Y-106563154D03*
D14*
X262470379Y-112247700D03*
X258961919Y-100772043D03*
X250325309Y-115960821D03*
X246816849Y-104485164D03*
%TD*%
D15*
%TO.C,D16*%
X149301300Y-148964373D03*
D16*
X151366918Y-149595896D03*
X154522724Y-150560722D03*
D17*
X156588342Y-151192245D03*
%TD*%
D11*
%TO.C,CPG1316*%
X163127288Y-125323717D03*
X158345764Y-123861858D03*
D12*
X164280046Y-134721384D03*
X167788506Y-123245727D03*
X152134976Y-131008263D03*
X155643436Y-119532606D03*
%TD*%
D18*
%TO.C,D22*%
X318150317Y-133854159D03*
D19*
X320263115Y-133405068D03*
X323491003Y-132718960D03*
D17*
X325603801Y-132269869D03*
%TD*%
D18*
%TO.C,D24*%
X310249673Y-96684551D03*
D19*
X312362471Y-96235460D03*
X315590359Y-95549352D03*
D17*
X317703157Y-95100261D03*
%TD*%
D20*
%TO.C,CPG1316*%
X300196777Y-110424924D03*
X295306039Y-111464482D03*
D21*
X305761081Y-118085440D03*
X303266141Y-106347669D03*
X293338607Y-120725919D03*
X290843667Y-108988148D03*
%TD*%
D10*
%TO.C,H6*%
X109629682Y-127581170D03*
%TD*%
D22*
%TO.C,D38*%
X218461345Y-133022454D03*
D23*
X220526963Y-132390931D03*
X223682769Y-131426105D03*
D17*
X225748387Y-130794582D03*
%TD*%
D15*
%TO.C,D17*%
X154856362Y-130794582D03*
D16*
X156921980Y-131426105D03*
X160077786Y-132390931D03*
D17*
X162143404Y-133022454D03*
%TD*%
D13*
%TO.C,CPG1316*%
X250704529Y-86931505D03*
X245923005Y-88393364D03*
D14*
X256915317Y-94077910D03*
X253406857Y-82602253D03*
X244770247Y-97791031D03*
X241261787Y-86315374D03*
%TD*%
D22*
%TO.C,D37*%
X224016407Y-151192245D03*
D23*
X226082025Y-150560722D03*
X229237831Y-149595896D03*
D17*
X231303449Y-148964373D03*
%TD*%
D24*
%TO.C,D1*%
X55000947Y-132269869D03*
D25*
X57113745Y-132718960D03*
X60341633Y-133405068D03*
D17*
X62454431Y-133854159D03*
%TD*%
D15*
%TO.C,D7*%
X95669044Y-129430271D03*
D16*
X97734662Y-130061794D03*
X100890468Y-131026620D03*
D17*
X102956086Y-131658143D03*
%TD*%
D15*
%TO.C,D14*%
X137271315Y-123326911D03*
D16*
X139336933Y-123958434D03*
X142492739Y-124923260D03*
D17*
X144558357Y-125554783D03*
%TD*%
D26*
%TO.C,CPG1316*%
X85298709Y-111464482D03*
X80407971Y-110424924D03*
D27*
X87266141Y-120725919D03*
X89761081Y-108988148D03*
X74843667Y-118085440D03*
X77338607Y-106347669D03*
%TD*%
D18*
%TO.C,D25*%
X299565513Y-137804482D03*
D19*
X301678311Y-137355391D03*
X304906199Y-136669283D03*
D17*
X307018997Y-136220192D03*
%TD*%
D28*
%TO.C,CPG1316*%
X205546111Y-175133435D03*
X201552933Y-178142510D03*
D29*
X213826558Y-179724645D03*
X206604777Y-170141019D03*
X203683887Y-187367695D03*
X196462106Y-177784069D03*
%TD*%
D10*
%TO.C,H1*%
X75231512Y-102168249D03*
%TD*%
D20*
%TO.C,CPG1316*%
X304147100Y-129009729D03*
X299256362Y-130049287D03*
D21*
X309711404Y-136670245D03*
X307216464Y-124932474D03*
X297288930Y-139310724D03*
X294793990Y-127572953D03*
%TD*%
D11*
%TO.C,CPG1316*%
X134681744Y-88393364D03*
X129900220Y-86931505D03*
D12*
X135834502Y-97791031D03*
X139342962Y-86315374D03*
X123689432Y-94077910D03*
X127197892Y-82602253D03*
%TD*%
D13*
%TO.C,CPG1316*%
X248006052Y-156772168D03*
X243224528Y-158234027D03*
D14*
X254216840Y-163918573D03*
X250708380Y-152442916D03*
X242071770Y-167631694D03*
X238563310Y-156156037D03*
%TD*%
D22*
%TO.C,D35*%
X236046392Y-125554783D03*
D23*
X238112010Y-124923260D03*
X241267816Y-123958434D03*
D17*
X243333434Y-123326911D03*
%TD*%
D10*
%TO.C,H4*%
X311860081Y-132686454D03*
%TD*%
D13*
%TO.C,CPG1316*%
X270336178Y-86157966D03*
X265554654Y-87619825D03*
D14*
X276546966Y-93304371D03*
X273038506Y-81828714D03*
X264401896Y-97017492D03*
X260893436Y-85541835D03*
%TD*%
D15*
%TO.C,D12*%
X126410817Y-93864229D03*
D16*
X128476435Y-94495752D03*
X131632241Y-95460578D03*
D17*
X133697859Y-96092101D03*
%TD*%
D11*
%TO.C,CPG1316*%
X123571619Y-124732944D03*
X118790095Y-123271085D03*
D12*
X124724377Y-134130611D03*
X128232837Y-122654954D03*
X112579307Y-130417490D03*
X116087767Y-118941833D03*
%TD*%
D10*
%TO.C,H2*%
X305373236Y-102168249D03*
%TD*%
D11*
%TO.C,CPG1316*%
X139987179Y-136025835D03*
X135205655Y-134563976D03*
D12*
X141139937Y-145423502D03*
X144648397Y-133947845D03*
X128994867Y-141710381D03*
X132503327Y-130234724D03*
%TD*%
D15*
%TO.C,D13*%
X131716253Y-141496701D03*
D16*
X133781871Y-142128224D03*
X136937677Y-143093050D03*
D17*
X139003295Y-143724573D03*
%TD*%
D10*
%TO.C,H12*%
X215459436Y-173437661D03*
%TD*%
D13*
%TO.C,CPG1316*%
X275891240Y-104327756D03*
X271109716Y-105789615D03*
D14*
X282102028Y-111474161D03*
X278593568Y-99998504D03*
X269956958Y-115187282D03*
X266448498Y-103711625D03*
%TD*%
D20*
%TO.C,CPG1316*%
X296246455Y-91840120D03*
X291355717Y-92879678D03*
D21*
X301810759Y-99500636D03*
X299315819Y-87762865D03*
X289388285Y-102141115D03*
X286893345Y-90403344D03*
%TD*%
D18*
%TO.C,D26*%
X295615191Y-119219677D03*
D19*
X297727989Y-118770586D03*
X300955877Y-118084478D03*
D17*
X303068675Y-117635387D03*
%TD*%
D15*
%TO.C,D8*%
X101224106Y-111260481D03*
D16*
X103289724Y-111892004D03*
X106445530Y-112856830D03*
D17*
X108511148Y-113488353D03*
%TD*%
D10*
%TO.C,H3*%
X68744668Y-132686454D03*
%TD*%
D18*
%TO.C,D27*%
X291664869Y-100634873D03*
D19*
X293777667Y-100185782D03*
X297005555Y-99499674D03*
D17*
X299118353Y-99050583D03*
%TD*%
D11*
%TO.C,CPG1316*%
X109495032Y-105789615D03*
X104713508Y-104327756D03*
D12*
X110647790Y-115187282D03*
X114156250Y-103711625D03*
X98502720Y-111474161D03*
X102011180Y-99998504D03*
%TD*%
D11*
%TO.C,CPG1316*%
X115050095Y-87619825D03*
X110268571Y-86157966D03*
D12*
X116202853Y-97017492D03*
X119711313Y-85541835D03*
X104057783Y-93304371D03*
X107566243Y-81828714D03*
%TD*%
D30*
%TO.C,D41*%
X224011118Y-173541722D03*
D31*
X226013835Y-172732572D03*
X229073541Y-171496370D03*
D17*
X231076258Y-170687220D03*
%TD*%
D13*
%TO.C,CPG1316*%
X216703922Y-105692067D03*
X211922398Y-107153926D03*
D14*
X222914710Y-112838472D03*
X219406250Y-101362815D03*
X210769640Y-116551593D03*
X207261180Y-105075936D03*
%TD*%
D13*
%TO.C,CPG1316*%
X245399094Y-134563976D03*
X240617570Y-136025835D03*
D14*
X251609882Y-141710381D03*
X248101422Y-130234724D03*
X239464812Y-145423502D03*
X235956352Y-133947845D03*
%TD*%
D15*
%TO.C,D10*%
X115300692Y-130203810D03*
D16*
X117366310Y-130835333D03*
X120522116Y-131800159D03*
D17*
X122587734Y-132431682D03*
%TD*%
D10*
%TO.C,H7*%
X260743880Y-97194737D03*
%TD*%
D15*
%TO.C,D19*%
X129109294Y-163704892D03*
D16*
X131174912Y-164336415D03*
X134330718Y-165301241D03*
D17*
X136396336Y-165932764D03*
%TD*%
D11*
%TO.C,CPG1316*%
X157572226Y-143493507D03*
X152790702Y-142031648D03*
D12*
X158724984Y-152891174D03*
X162233444Y-141415517D03*
X146579914Y-149178053D03*
X150088374Y-137702396D03*
%TD*%
D22*
%TO.C,D30*%
X266538538Y-95318563D03*
D23*
X268604156Y-94687040D03*
X271759962Y-93722214D03*
D17*
X273825580Y-93090691D03*
%TD*%
D24*
%TO.C,D2*%
X58951269Y-113685065D03*
D25*
X61064067Y-114134156D03*
X64291955Y-114820264D03*
D17*
X66404753Y-115269355D03*
%TD*%
D13*
%TO.C,CPG1316*%
X234288969Y-98224395D03*
X229507445Y-99686254D03*
D14*
X240499757Y-105370800D03*
X236991297Y-93895143D03*
X228354687Y-109083921D03*
X224846227Y-97608264D03*
%TD*%
D10*
%TO.C,H8*%
X270975067Y-127581170D03*
%TD*%
D22*
%TO.C,D33*%
X246906890Y-96092101D03*
D23*
X248972508Y-95460578D03*
X252128314Y-94495752D03*
D17*
X254193932Y-93864229D03*
%TD*%
D22*
%TO.C,D40*%
X244208413Y-165932764D03*
D23*
X246274031Y-165301241D03*
X249429837Y-164336415D03*
D17*
X251495455Y-163704892D03*
%TD*%
D22*
%TO.C,D31*%
X258017014Y-132431682D03*
D23*
X260082632Y-131800159D03*
X263238438Y-130835333D03*
D17*
X265304056Y-130203810D03*
%TD*%
D32*
%TO.C,D42*%
X205110606Y-185040449D03*
D33*
X206835658Y-183740529D03*
X209471156Y-181754539D03*
D17*
X211196208Y-180454619D03*
%TD*%
D26*
%TO.C,CPG1316*%
X62763583Y-126098964D03*
X57872845Y-125059406D03*
D27*
X64731015Y-135360401D03*
X67225955Y-123622630D03*
X52308541Y-132719922D03*
X54803481Y-120982151D03*
%TD*%
D34*
%TO.C,JST1*%
X176500000Y-120500000D03*
D35*
X178500000Y-120500000D03*
%TD*%
D36*
%TO.C,D21*%
X169408540Y-180454619D03*
D37*
X171133592Y-181754539D03*
X173769090Y-183740529D03*
D17*
X175494142Y-185040449D03*
%TD*%
D10*
%TO.C,H11*%
X165145313Y-173437661D03*
%TD*%
D26*
%TO.C,CPG1316*%
X66713905Y-107514160D03*
X61823167Y-106474602D03*
D27*
X68681337Y-116775597D03*
X71176277Y-105037826D03*
X56258863Y-114135118D03*
X58753803Y-102397347D03*
%TD*%
D11*
%TO.C,CPG1316*%
X137380221Y-158234027D03*
X132598697Y-156772168D03*
D12*
X138532979Y-167631694D03*
X142041439Y-156156037D03*
X126387909Y-163918573D03*
X129896369Y-152442916D03*
%TD*%
D24*
%TO.C,D6*%
X81486396Y-99050583D03*
D25*
X83599194Y-99499674D03*
X86827082Y-100185782D03*
D17*
X88939880Y-100634873D03*
%TD*%
D13*
%TO.C,CPG1316*%
X239844031Y-116394186D03*
X235062507Y-117856045D03*
D14*
X246054819Y-123540591D03*
X242546359Y-112064934D03*
X233909749Y-127253712D03*
X230401289Y-115778055D03*
%TD*%
D15*
%TO.C,D18*%
X160411424Y-112624792D03*
D16*
X162477042Y-113256315D03*
X165632848Y-114221141D03*
D17*
X167698466Y-114852664D03*
%TD*%
D38*
%TO.C,CPG1316*%
X158244760Y-165958030D03*
X153608841Y-164084997D03*
D39*
X158574071Y-175420406D03*
X163069350Y-164294200D03*
X146798836Y-170662902D03*
X151294115Y-159536696D03*
%TD*%
D11*
%TO.C,CPG1316*%
X151097304Y-99686254D03*
X146315780Y-98224395D03*
D12*
X152250062Y-109083921D03*
X155758522Y-97608264D03*
X140104992Y-105370800D03*
X143613452Y-93895143D03*
%TD*%
D20*
%TO.C,CPG1316*%
X318781582Y-106474602D03*
X313890844Y-107514160D03*
D21*
X324345886Y-114135118D03*
X321850946Y-102397347D03*
X311923412Y-116775597D03*
X309428472Y-105037826D03*
%TD*%
D11*
%TO.C,CPG1316*%
X129126681Y-106563154D03*
X124345157Y-105101295D03*
D12*
X130279439Y-115960821D03*
X133787899Y-104485164D03*
X118134369Y-112247700D03*
X121642829Y-100772043D03*
%TD*%
D24*
%TO.C,D4*%
X73585752Y-136220192D03*
D25*
X75698550Y-136669283D03*
X78926438Y-137355391D03*
D17*
X81039236Y-137804482D03*
%TD*%
D24*
%TO.C,D5*%
X77536074Y-117635387D03*
D25*
X79648872Y-118084478D03*
X82876760Y-118770586D03*
D17*
X84989558Y-119219677D03*
%TD*%
D40*
%TO.C,CPG1316*%
X226995907Y-164084997D03*
X222359988Y-165958030D03*
D41*
X233805912Y-170662902D03*
X229310633Y-159536696D03*
X222030677Y-175420406D03*
X217535398Y-164294200D03*
%TD*%
D11*
%TO.C,CPG1316*%
X168682351Y-107153926D03*
X163900827Y-105692067D03*
D12*
X169835109Y-116551593D03*
X173343569Y-105075936D03*
X157690039Y-112838472D03*
X161198499Y-101362815D03*
%TD*%
D15*
%TO.C,D15*%
X142826377Y-105157120D03*
D16*
X144891995Y-105788643D03*
X148047801Y-106753469D03*
D17*
X150113419Y-107384992D03*
%TD*%
D10*
%TO.C,H9*%
X153900578Y-113980440D03*
%TD*%
D42*
%TO.C,CPG1316*%
X179051816Y-178142510D03*
X175058638Y-175133435D03*
D43*
X184142643Y-177784069D03*
X176920862Y-187367695D03*
X173999972Y-170141019D03*
X166778191Y-179724645D03*
%TD*%
D15*
%TO.C,D11*%
X120855755Y-112034020D03*
D16*
X122921373Y-112665543D03*
X126077179Y-113630369D03*
D17*
X128142797Y-114261892D03*
%TD*%
D22*
%TO.C,D28*%
X277648663Y-131658143D03*
D23*
X279714281Y-131026620D03*
X282870087Y-130061794D03*
D17*
X284935705Y-129430271D03*
%TD*%
D26*
%TO.C,CPG1316*%
X89249031Y-92879678D03*
X84358293Y-91840120D03*
D27*
X91216463Y-102141115D03*
X93711403Y-90403344D03*
X78793989Y-99500636D03*
X81288929Y-87762865D03*
%TD*%
D13*
%TO.C,CPG1316*%
X227814047Y-142031648D03*
X223032523Y-143493507D03*
D14*
X234024835Y-149178053D03*
X230516375Y-137702396D03*
X221879765Y-152891174D03*
X218371305Y-141415517D03*
%TD*%
D26*
%TO.C,CPG1316*%
X70664227Y-88929356D03*
X65773489Y-87889798D03*
D27*
X72631659Y-98190793D03*
X75126599Y-86453022D03*
X60209185Y-95550314D03*
X62704125Y-83812543D03*
%TD*%
D22*
%TO.C,D29*%
X272093601Y-113488353D03*
D23*
X274159219Y-112856830D03*
X277315025Y-111892004D03*
D17*
X279380643Y-111260481D03*
%TD*%
D44*
%TO.C,REF\u002A\u002A*%
X175000000Y-116500000D03*
D45*
X175000000Y-110000000D03*
X179500000Y-116500000D03*
X179500000Y-110000000D03*
%TD*%
D13*
%TO.C,CPG1316*%
X281446303Y-122497547D03*
X276664779Y-123959406D03*
D14*
X287657091Y-129643952D03*
X284148631Y-118168295D03*
X275512021Y-133357073D03*
X272003561Y-121881416D03*
%TD*%
D13*
%TO.C,CPG1316*%
X261814654Y-123271085D03*
X257033130Y-124732944D03*
D14*
X268025442Y-130417490D03*
X264516982Y-118941833D03*
X255880372Y-134130611D03*
X252371912Y-122654954D03*
%TD*%
D20*
%TO.C,CPG1316*%
X322731904Y-125059406D03*
X317841166Y-126098964D03*
D21*
X328296208Y-132719922D03*
X325801268Y-120982151D03*
X315873734Y-135360401D03*
X313378794Y-123622630D03*
%TD*%
D13*
%TO.C,CPG1316*%
X222258984Y-123861858D03*
X217477460Y-125323717D03*
D14*
X228469772Y-131008263D03*
X224961312Y-119532606D03*
X216324702Y-134721384D03*
X212816242Y-123245727D03*
%TD*%
D11*
%TO.C,CPG1316*%
X145542241Y-117856045D03*
X140760717Y-116394186D03*
D12*
X146694999Y-127253712D03*
X150203459Y-115778055D03*
X134549929Y-123540591D03*
X138058389Y-112064934D03*
%TD*%
D46*
%TO.C,REF\u002A\u002A*%
X152000000Y-89500000D03*
X149376140Y-88045572D03*
D47*
X151807547Y-91394193D03*
X149183689Y-89939764D03*
X147871759Y-89212550D03*
D48*
X153347141Y-91504421D03*
X146962418Y-87965313D03*
X154413722Y-89580259D03*
X148028999Y-86041151D03*
%TD*%
D49*
%TO.C,D20*%
X149528490Y-170687220D03*
D50*
X151531207Y-171496370D03*
X154590913Y-172732572D03*
D17*
X156593630Y-173541722D03*
%TD*%
D22*
%TO.C,D36*%
X230491329Y-107384992D03*
D23*
X232556947Y-106753469D03*
X235712753Y-105788643D03*
D17*
X237778371Y-105157120D03*
%TD*%
D15*
%TO.C,D9*%
X106779168Y-93090691D03*
D16*
X108844786Y-93722214D03*
X112000592Y-94687040D03*
D17*
X114066210Y-95318563D03*
%TD*%
D20*
%TO.C,CPG1316*%
X314831260Y-87889798D03*
X309940522Y-88929356D03*
D21*
X320395564Y-95550314D03*
X317900624Y-83812543D03*
X307973090Y-98190793D03*
X305478150Y-86453022D03*
%TD*%
D24*
%TO.C,D3*%
X62901592Y-95100261D03*
D25*
X65014390Y-95549352D03*
X68242278Y-96235460D03*
D17*
X70355076Y-96684551D03*
%TD*%
D26*
%TO.C,CPG1316*%
X81348387Y-130049287D03*
X76457649Y-129009729D03*
D27*
X83315819Y-139310724D03*
X85810759Y-127572953D03*
X70893345Y-136670245D03*
X73388285Y-124932474D03*
%TD*%
D22*
%TO.C,D32*%
X252461952Y-114261892D03*
D23*
X254527570Y-113630369D03*
X257683376Y-112665543D03*
D17*
X259748994Y-112034020D03*
%TD*%
D22*
%TO.C,D39*%
X212906282Y-114852664D03*
D23*
X214971900Y-114221141D03*
X218127706Y-113256315D03*
D17*
X220193324Y-112624792D03*
%TD*%
D22*
%TO.C,D34*%
X241601454Y-143724573D03*
D23*
X243667072Y-143093050D03*
X246822878Y-142128224D03*
D17*
X248888496Y-141496701D03*
%TD*%
D18*
%TO.C,D23*%
X314199995Y-115269355D03*
D19*
X316312793Y-114820264D03*
X319540681Y-114134156D03*
D17*
X321653479Y-113685065D03*
%TD*%
D10*
%TO.C,H5*%
X119860869Y-97194737D03*
%TD*%
D51*
%TO.C,MCU1*%
X198120000Y-105800000D03*
X198120000Y-108340000D03*
X198120000Y-110880000D03*
X198120000Y-113420000D03*
X198120000Y-115960000D03*
X198120000Y-118500000D03*
X198120000Y-121040000D03*
X198120000Y-123580000D03*
X198120000Y-126120000D03*
X198120000Y-128660000D03*
X198120000Y-131200000D03*
X198120000Y-133740000D03*
X182880000Y-133740000D03*
X182880000Y-131200000D03*
X182880000Y-128660000D03*
X182880000Y-126120000D03*
X182880000Y-123580000D03*
X182880000Y-121040000D03*
X182880000Y-118500000D03*
X182880000Y-115960000D03*
X182880000Y-113420000D03*
X182880000Y-110880000D03*
X182880000Y-108340000D03*
X182880000Y-105800000D03*
%TD*%
M02*
