%TF.GenerationSoftware,KiCad,Pcbnew,8.0.6*%
%TF.CreationDate,2025-07-21T18:30:39+02:00*%
%TF.ProjectId,main,6d61696e-2e6b-4696-9361-645f70636258,v1.0.0*%
%TF.SameCoordinates,Original*%
%TF.FileFunction,Legend,Top*%
%TF.FilePolarity,Positive*%
%FSLAX46Y46*%
G04 Gerber Fmt 4.6, Leading zero omitted, Abs format (unit mm)*
G04 Created by KiCad (PCBNEW 8.0.6) date 2025-07-21 18:30:39*
%MOMM*%
%LPD*%
G01*
G04 APERTURE LIST*
%ADD10C,0.150000*%
%ADD11C,0.100000*%
%ADD12C,0.120000*%
G04 APERTURE END LIST*
D10*
X167529816Y-112647618D02*
X167053625Y-112980951D01*
X167529816Y-113219046D02*
X166529816Y-113219046D01*
X166529816Y-113219046D02*
X166529816Y-112838094D01*
X166529816Y-112838094D02*
X166577435Y-112742856D01*
X166577435Y-112742856D02*
X166625054Y-112695237D01*
X166625054Y-112695237D02*
X166720292Y-112647618D01*
X166720292Y-112647618D02*
X166863149Y-112647618D01*
X166863149Y-112647618D02*
X166958387Y-112695237D01*
X166958387Y-112695237D02*
X167006006Y-112742856D01*
X167006006Y-112742856D02*
X167053625Y-112838094D01*
X167053625Y-112838094D02*
X167053625Y-113219046D01*
X167482197Y-112266665D02*
X167529816Y-112123808D01*
X167529816Y-112123808D02*
X167529816Y-111885713D01*
X167529816Y-111885713D02*
X167482197Y-111790475D01*
X167482197Y-111790475D02*
X167434577Y-111742856D01*
X167434577Y-111742856D02*
X167339339Y-111695237D01*
X167339339Y-111695237D02*
X167244101Y-111695237D01*
X167244101Y-111695237D02*
X167148863Y-111742856D01*
X167148863Y-111742856D02*
X167101244Y-111790475D01*
X167101244Y-111790475D02*
X167053625Y-111885713D01*
X167053625Y-111885713D02*
X167006006Y-112076189D01*
X167006006Y-112076189D02*
X166958387Y-112171427D01*
X166958387Y-112171427D02*
X166910768Y-112219046D01*
X166910768Y-112219046D02*
X166815530Y-112266665D01*
X166815530Y-112266665D02*
X166720292Y-112266665D01*
X166720292Y-112266665D02*
X166625054Y-112219046D01*
X166625054Y-112219046D02*
X166577435Y-112171427D01*
X166577435Y-112171427D02*
X166529816Y-112076189D01*
X166529816Y-112076189D02*
X166529816Y-111838094D01*
X166529816Y-111838094D02*
X166577435Y-111695237D01*
X166529816Y-111409522D02*
X166529816Y-110838094D01*
X167529816Y-111123808D02*
X166529816Y-111123808D01*
X143195260Y-93598853D02*
X143290498Y-93433896D01*
X143290498Y-93433896D02*
X143379356Y-93375226D01*
X143379356Y-93375226D02*
X143509454Y-93340367D01*
X143509454Y-93340367D02*
X143698221Y-93394366D01*
X143698221Y-93394366D02*
X143986896Y-93561032D01*
X143986896Y-93561032D02*
X144128043Y-93697510D01*
X144128043Y-93697510D02*
X144162903Y-93827607D01*
X144162903Y-93827607D02*
X144156523Y-93933896D01*
X144156523Y-93933896D02*
X144061285Y-94098853D01*
X144061285Y-94098853D02*
X143972427Y-94157522D01*
X143972427Y-94157522D02*
X143842329Y-94192381D01*
X143842329Y-94192381D02*
X143653562Y-94138383D01*
X143653562Y-94138383D02*
X143364887Y-93971716D01*
X143364887Y-93971716D02*
X143223739Y-93835239D01*
X143223739Y-93835239D02*
X143188880Y-93705141D01*
X143188880Y-93705141D02*
X143195260Y-93598853D01*
X144202891Y-92805965D02*
X144036224Y-93094641D01*
X144489856Y-93356545D02*
X143623831Y-92856545D01*
X143623831Y-92856545D02*
X143861926Y-92444152D01*
X144631462Y-92063658D02*
X144464796Y-92352333D01*
X144918428Y-92614238D02*
X144052403Y-92114238D01*
X144052403Y-92114238D02*
X144290498Y-91701845D01*
X134701664Y-88310166D02*
X134796902Y-88145209D01*
X134796902Y-88145209D02*
X134885761Y-88086540D01*
X134885761Y-88086540D02*
X135015858Y-88051680D01*
X135015858Y-88051680D02*
X135204625Y-88105679D01*
X135204625Y-88105679D02*
X135493300Y-88272346D01*
X135493300Y-88272346D02*
X135634448Y-88408823D01*
X135634448Y-88408823D02*
X135669307Y-88538921D01*
X135669307Y-88538921D02*
X135662928Y-88645209D01*
X135662928Y-88645209D02*
X135567690Y-88810166D01*
X135567690Y-88810166D02*
X135478831Y-88868835D01*
X135478831Y-88868835D02*
X135348734Y-88903695D01*
X135348734Y-88903695D02*
X135159967Y-88849696D01*
X135159967Y-88849696D02*
X134871292Y-88683029D01*
X134871292Y-88683029D02*
X134730144Y-88546552D01*
X134730144Y-88546552D02*
X134695284Y-88416454D01*
X134695284Y-88416454D02*
X134701664Y-88310166D01*
X135996261Y-88067858D02*
X135130236Y-87567858D01*
X135130236Y-87567858D02*
X136281975Y-87572987D01*
X136281975Y-87572987D02*
X135415950Y-87072987D01*
D11*
%TO.C,D34*%
X227270051Y-133465234D02*
X227652562Y-133348287D01*
X227652562Y-133348287D02*
X227491761Y-132822326D01*
X227652562Y-133348287D02*
X227813376Y-133874261D01*
X227652562Y-133348287D02*
X228109398Y-132790336D01*
X228109398Y-132790336D02*
X228343304Y-133555384D01*
X228226354Y-133172868D02*
X228704499Y-133026686D01*
X228343304Y-133555384D02*
X227652562Y-133348287D01*
%TO.C,D26*%
X276635290Y-112592198D02*
X277026543Y-112509021D01*
X277026543Y-112509021D02*
X276912193Y-111971049D01*
X277026543Y-112509021D02*
X277140890Y-113047016D01*
X277026543Y-112509021D02*
X277530254Y-111993027D01*
X277530254Y-111993027D02*
X277696591Y-112775546D01*
X277613424Y-112384292D02*
X278102494Y-112280326D01*
X277696591Y-112775546D02*
X277026543Y-112509021D01*
%TO.C,D10*%
X114653044Y-122318528D02*
X115035580Y-122435489D01*
X115035580Y-122435489D02*
X114874773Y-122961447D01*
X115035580Y-122435489D02*
X115196375Y-121909509D01*
X115035580Y-122435489D02*
X115726307Y-122228375D01*
X115492395Y-122993424D02*
X115035580Y-122435489D01*
X115609354Y-122610906D02*
X116087514Y-122757096D01*
X115726307Y-122228375D02*
X115492395Y-122993424D01*
%TO.C,D29*%
X254521735Y-106311096D02*
X254904246Y-106194149D01*
X254904246Y-106194149D02*
X254743445Y-105668188D01*
X254904246Y-106194149D02*
X255065060Y-106720123D01*
X254904246Y-106194149D02*
X255361082Y-105636198D01*
X255361082Y-105636198D02*
X255594988Y-106401246D01*
X255478038Y-106018730D02*
X255956183Y-105872548D01*
X255594988Y-106401246D02*
X254904246Y-106194149D01*
%TO.C,D25*%
X280169797Y-129220710D02*
X280561050Y-129137533D01*
X280561050Y-129137533D02*
X280446700Y-128599561D01*
X280561050Y-129137533D02*
X280675397Y-129675528D01*
X280561050Y-129137533D02*
X281064761Y-128621539D01*
X281064761Y-128621539D02*
X281231098Y-129404058D01*
X281147931Y-129012804D02*
X281637001Y-128908838D01*
X281231098Y-129404058D02*
X280561050Y-129137533D01*
%TO.C,D16*%
X144828438Y-139909598D02*
X145210974Y-140026559D01*
X145210974Y-140026559D02*
X145050167Y-140552517D01*
X145210974Y-140026559D02*
X145371769Y-139500579D01*
X145210974Y-140026559D02*
X145901701Y-139819445D01*
X145667789Y-140584494D02*
X145210974Y-140026559D01*
X145784748Y-140201976D02*
X146262908Y-140348166D01*
X145901701Y-139819445D02*
X145667789Y-140584494D01*
%TO.C,D9*%
X106874639Y-89615360D02*
X107257175Y-89732321D01*
X107257175Y-89732321D02*
X107096368Y-90258279D01*
X107257175Y-89732321D02*
X107417970Y-89206341D01*
X107257175Y-89732321D02*
X107947902Y-89525207D01*
X107713990Y-90290256D02*
X107257175Y-89732321D01*
X107830949Y-89907738D02*
X108309109Y-90053928D01*
X107947902Y-89525207D02*
X107713990Y-90290256D01*
%TO.C,D3*%
X66664006Y-92117316D02*
X67055251Y-92200486D01*
X67055251Y-92200486D02*
X66940907Y-92738458D01*
X67055251Y-92200486D02*
X67169612Y-91662505D01*
X67055251Y-92200486D02*
X67725310Y-91933990D01*
X67558985Y-92716491D02*
X67055251Y-92200486D01*
X67642142Y-92325233D02*
X68131206Y-92429194D01*
X67725310Y-91933990D02*
X67558985Y-92716491D01*
%TO.C,D2*%
X63129506Y-108745832D02*
X63520751Y-108829002D01*
X63520751Y-108829002D02*
X63406407Y-109366974D01*
X63520751Y-108829002D02*
X63635112Y-108291021D01*
X63520751Y-108829002D02*
X64190810Y-108562506D01*
X64024485Y-109345007D02*
X63520751Y-108829002D01*
X64107642Y-108953749D02*
X64596706Y-109057710D01*
X64190810Y-108562506D02*
X64024485Y-109345007D01*
%TO.C,D21*%
X156546921Y-167936418D02*
X156866384Y-168177142D01*
X156866384Y-168177142D02*
X156535375Y-168616382D01*
X156866384Y-168177142D02*
X157197386Y-167737888D01*
X156866384Y-168177142D02*
X157586293Y-168218775D01*
X157104836Y-168857681D02*
X156866384Y-168177142D01*
X157345556Y-168538218D02*
X157744877Y-168839134D01*
X157586293Y-168218775D02*
X157104836Y-168857681D01*
%TO.C,D35*%
X222299744Y-117208046D02*
X222682255Y-117091099D01*
X222682255Y-117091099D02*
X222521454Y-116565138D01*
X222682255Y-117091099D02*
X222843069Y-117617073D01*
X222682255Y-117091099D02*
X223139091Y-116533148D01*
X223139091Y-116533148D02*
X223372997Y-117298196D01*
X223256047Y-116915680D02*
X223734192Y-116769498D01*
X223372997Y-117298196D02*
X222682255Y-117091099D01*
%TO.C,D12*%
X124593666Y-89804164D02*
X124976202Y-89921125D01*
X124976202Y-89921125D02*
X124815395Y-90447083D01*
X124976202Y-89921125D02*
X125136997Y-89395145D01*
X124976202Y-89921125D02*
X125666929Y-89714011D01*
X125433017Y-90479060D02*
X124976202Y-89921125D01*
X125549976Y-90096542D02*
X126028136Y-90242732D01*
X125666929Y-89714011D02*
X125433017Y-90479060D01*
%TO.C,D23*%
X293263809Y-109057701D02*
X293655062Y-108974524D01*
X293655062Y-108974524D02*
X293540712Y-108436552D01*
X293655062Y-108974524D02*
X293769409Y-109512519D01*
X293655062Y-108974524D02*
X294158773Y-108458530D01*
X294158773Y-108458530D02*
X294325110Y-109241049D01*
X294241943Y-108849795D02*
X294731013Y-108745829D01*
X294325110Y-109241049D02*
X293655062Y-108974524D01*
%TO.C,D33*%
X231832376Y-90242724D02*
X232214887Y-90125777D01*
X232214887Y-90125777D02*
X232054086Y-89599816D01*
X232214887Y-90125777D02*
X232375701Y-90651751D01*
X232214887Y-90125777D02*
X232671723Y-89567826D01*
X232671723Y-89567826D02*
X232905629Y-90332874D01*
X232788679Y-89950358D02*
X233266824Y-89804176D01*
X232905629Y-90332874D02*
X232214887Y-90125777D01*
D12*
%TO.C,JST1*%
X162914988Y-125034997D02*
X162914988Y-124034997D01*
X162914992Y-117214993D02*
X162914986Y-118215002D01*
X163834999Y-125035002D02*
X162914988Y-125034997D01*
X163914994Y-117215003D02*
X162914992Y-117214993D01*
D11*
X164474996Y-126074994D02*
X165475001Y-126074999D01*
X166975001Y-125575006D02*
X166974983Y-126575009D01*
X167474995Y-126075005D02*
X166474992Y-126074998D01*
D12*
X168114992Y-125035012D02*
X169034994Y-125034996D01*
X168114998Y-117215002D02*
X169034988Y-117215009D01*
X169034988Y-117215009D02*
X169034991Y-118215002D01*
X169034994Y-125034996D02*
X169034991Y-124034994D01*
D11*
%TO.C,D4*%
X76223521Y-128908847D02*
X76614766Y-128992017D01*
X76614766Y-128992017D02*
X76500422Y-129529989D01*
X76614766Y-128992017D02*
X76729127Y-128454036D01*
X76614766Y-128992017D02*
X77284825Y-128725521D01*
X77118500Y-129508022D02*
X76614766Y-128992017D01*
X77201657Y-129116764D02*
X77690721Y-129220725D01*
X77284825Y-128725521D02*
X77118500Y-129508022D01*
%TO.C,D36*%
X217329419Y-100950869D02*
X217711930Y-100833922D01*
X217711930Y-100833922D02*
X217551129Y-100307961D01*
X217711930Y-100833922D02*
X217872744Y-101359896D01*
X217711930Y-100833922D02*
X218168766Y-100275971D01*
X218168766Y-100275971D02*
X218402672Y-101041019D01*
X218285722Y-100658503D02*
X218763867Y-100512321D01*
X218402672Y-101041019D02*
X217711930Y-100833922D01*
%TO.C,D41*%
X217218474Y-158637931D02*
X217589344Y-158488098D01*
X217589344Y-158488098D02*
X217383325Y-157978143D01*
X217589344Y-158488098D02*
X217795392Y-158998044D01*
X217589344Y-158488098D02*
X217995822Y-157892457D01*
X217995822Y-157892457D02*
X218295499Y-158634201D01*
X218145670Y-158263314D02*
X218609260Y-158076025D01*
X218295499Y-158634201D02*
X217589344Y-158488098D01*
%TO.C,D14*%
X134126323Y-116769497D02*
X134508859Y-116886458D01*
X134508859Y-116886458D02*
X134348052Y-117412416D01*
X134508859Y-116886458D02*
X134669654Y-116360478D01*
X134508859Y-116886458D02*
X135199586Y-116679344D01*
X134965674Y-117444393D02*
X134508859Y-116886458D01*
X135082633Y-117061875D02*
X135560793Y-117208065D01*
X135199586Y-116679344D02*
X134965674Y-117444393D01*
%TO.C,D42*%
X200115620Y-168839134D02*
X200435087Y-168598414D01*
X200435087Y-168598414D02*
X200104097Y-168159159D01*
X200435087Y-168598414D02*
X200673546Y-167917859D01*
X200435087Y-168598414D02*
X200766092Y-169037660D01*
X200673546Y-167917859D02*
X201155001Y-168556771D01*
X200914275Y-168237331D02*
X201313608Y-167936410D01*
X201155001Y-168556771D02*
X200435087Y-168598414D01*
%TO.C,D30*%
X249551418Y-90053926D02*
X249933929Y-89936979D01*
X249933929Y-89936979D02*
X249773128Y-89411018D01*
X249933929Y-89936979D02*
X250094743Y-90462953D01*
X249933929Y-89936979D02*
X250390765Y-89379028D01*
X250390765Y-89379028D02*
X250624671Y-90144076D01*
X250507721Y-89761560D02*
X250985866Y-89615378D01*
X250624671Y-90144076D02*
X249933929Y-89936979D01*
%TO.C,D22*%
X296798313Y-125686217D02*
X297189566Y-125603040D01*
X297189566Y-125603040D02*
X297075216Y-125065068D01*
X297189566Y-125603040D02*
X297303913Y-126141035D01*
X297189566Y-125603040D02*
X297693277Y-125087046D01*
X297693277Y-125087046D02*
X297859614Y-125869565D01*
X297776447Y-125478311D02*
X298265517Y-125374345D01*
X297859614Y-125869565D02*
X297189566Y-125603040D01*
%TO.C,D7*%
X96934001Y-122129721D02*
X97316537Y-122246682D01*
X97316537Y-122246682D02*
X97155730Y-122772640D01*
X97316537Y-122246682D02*
X97477332Y-121720702D01*
X97316537Y-122246682D02*
X98007264Y-122039568D01*
X97773352Y-122804617D02*
X97316537Y-122246682D01*
X97890311Y-122422099D02*
X98368471Y-122568289D01*
X98007264Y-122039568D02*
X97773352Y-122804617D01*
%TO.C,D28*%
X259492056Y-122568282D02*
X259874567Y-122451335D01*
X259874567Y-122451335D02*
X259713766Y-121925374D01*
X259874567Y-122451335D02*
X260035381Y-122977309D01*
X259874567Y-122451335D02*
X260331403Y-121893384D01*
X260331403Y-121893384D02*
X260565309Y-122658432D01*
X260448359Y-122275916D02*
X260926504Y-122129734D01*
X260565309Y-122658432D02*
X259874567Y-122451335D01*
%TO.C,D31*%
X241773016Y-122757077D02*
X242155527Y-122640130D01*
X242155527Y-122640130D02*
X241994726Y-122114169D01*
X242155527Y-122640130D02*
X242316341Y-123166104D01*
X242155527Y-122640130D02*
X242612363Y-122082179D01*
X242612363Y-122082179D02*
X242846269Y-122847227D01*
X242729319Y-122464711D02*
X243207464Y-122318529D01*
X242846269Y-122847227D02*
X242155527Y-122640130D01*
%TO.C,D6*%
X83292517Y-95651819D02*
X83683762Y-95734989D01*
X83683762Y-95734989D02*
X83569418Y-96272961D01*
X83683762Y-95734989D02*
X83798123Y-95197008D01*
X83683762Y-95734989D02*
X84353821Y-95468493D01*
X84187496Y-96250994D02*
X83683762Y-95734989D01*
X84270653Y-95859736D02*
X84759717Y-95963697D01*
X84353821Y-95468493D02*
X84187496Y-96250994D01*
%TO.C,D37*%
X211597620Y-140348153D02*
X211980131Y-140231206D01*
X211980131Y-140231206D02*
X211819330Y-139705245D01*
X211980131Y-140231206D02*
X212140945Y-140757180D01*
X211980131Y-140231206D02*
X212436967Y-139673255D01*
X212436967Y-139673255D02*
X212670873Y-140438303D01*
X212553923Y-140055787D02*
X213032068Y-139909605D01*
X212670873Y-140438303D02*
X211980131Y-140231206D01*
%TO.C,D40*%
X234073795Y-152298951D02*
X234456306Y-152182004D01*
X234456306Y-152182004D02*
X234295505Y-151656043D01*
X234456306Y-152182004D02*
X234617120Y-152707978D01*
X234456306Y-152182004D02*
X234913142Y-151624053D01*
X234913142Y-151624053D02*
X235147048Y-152389101D01*
X235030098Y-152006585D02*
X235508243Y-151860403D01*
X235147048Y-152389101D02*
X234456306Y-152182004D01*
%TO.C,D5*%
X79758013Y-112280337D02*
X80149258Y-112363507D01*
X80149258Y-112363507D02*
X80034914Y-112901479D01*
X80149258Y-112363507D02*
X80263619Y-111825526D01*
X80149258Y-112363507D02*
X80819317Y-112097011D01*
X80652992Y-112879512D02*
X80149258Y-112363507D01*
X80736149Y-112488254D02*
X81225213Y-112592215D01*
X80819317Y-112097011D02*
X80652992Y-112879512D01*
%TO.C,D19*%
X122352253Y-151860399D02*
X122734789Y-151977360D01*
X122734789Y-151977360D02*
X122573982Y-152503318D01*
X122734789Y-151977360D02*
X122895584Y-151451380D01*
X122734789Y-151977360D02*
X123425516Y-151770246D01*
X123191604Y-152535295D02*
X122734789Y-151977360D01*
X123308563Y-152152777D02*
X123786723Y-152298967D01*
X123425516Y-151770246D02*
X123191604Y-152535295D01*
%TO.C,D38*%
X206627307Y-124090983D02*
X207009818Y-123974036D01*
X207009818Y-123974036D02*
X206849017Y-123448075D01*
X207009818Y-123974036D02*
X207170632Y-124500010D01*
X207009818Y-123974036D02*
X207466654Y-123416085D01*
X207466654Y-123416085D02*
X207700560Y-124181133D01*
X207583610Y-123798617D02*
X208061755Y-123652435D01*
X207700560Y-124181133D02*
X207009818Y-123974036D01*
D10*
%TO.C,RST1*%
X165324997Y-109099998D02*
X165325003Y-115100003D01*
X165324997Y-109099998D02*
X165574996Y-109099997D01*
X165325003Y-115100003D02*
X165575005Y-115099999D01*
X168824991Y-109099995D02*
X168574989Y-109099999D01*
X168824991Y-109099995D02*
X168824997Y-115100000D01*
X168824997Y-115100000D02*
X168574998Y-115100001D01*
D11*
%TO.C,D13*%
X129155996Y-133026667D02*
X129538532Y-133143628D01*
X129538532Y-133143628D02*
X129377725Y-133669586D01*
X129538532Y-133143628D02*
X129699327Y-132617648D01*
X129538532Y-133143628D02*
X130229259Y-132936514D01*
X129995347Y-133701563D02*
X129538532Y-133143628D01*
X130112306Y-133319045D02*
X130590466Y-133465235D01*
X130229259Y-132936514D02*
X129995347Y-133701563D01*
%TO.C,D39*%
X201656971Y-107833798D02*
X202039482Y-107716851D01*
X202039482Y-107716851D02*
X201878681Y-107190890D01*
X202039482Y-107716851D02*
X202200296Y-108242825D01*
X202039482Y-107716851D02*
X202496318Y-107158900D01*
X202496318Y-107158900D02*
X202730224Y-107923948D01*
X202613274Y-107541432D02*
X203091419Y-107395250D01*
X202730224Y-107923948D02*
X202039482Y-107716851D01*
D12*
%TO.C,PWR1*%
X137033169Y-88462267D02*
X136638176Y-89146406D01*
X137888534Y-91080745D02*
X137715334Y-90980736D01*
X140486601Y-92580751D02*
X139014348Y-91730742D01*
X142613745Y-92596406D02*
X143008744Y-91912243D01*
X142994128Y-90737576D02*
X138057792Y-87887570D01*
D11*
%TO.C,D27*%
X273100803Y-95963683D02*
X273492056Y-95880506D01*
X273492056Y-95880506D02*
X273377706Y-95342534D01*
X273492056Y-95880506D02*
X273606403Y-96418501D01*
X273492056Y-95880506D02*
X273995767Y-95364512D01*
X273995767Y-95364512D02*
X274162104Y-96147031D01*
X274078937Y-95755777D02*
X274568007Y-95651811D01*
X274162104Y-96147031D02*
X273492056Y-95880506D01*
%TO.C,D15*%
X139096638Y-100512305D02*
X139479174Y-100629266D01*
X139479174Y-100629266D02*
X139318367Y-101155224D01*
X139479174Y-100629266D02*
X139639969Y-100103286D01*
X139479174Y-100629266D02*
X140169901Y-100422152D01*
X139935989Y-101187201D02*
X139479174Y-100629266D01*
X140052948Y-100804683D02*
X140531108Y-100950873D01*
X140169901Y-100422152D02*
X139935989Y-101187201D01*
%TO.C,D17*%
X149798751Y-123652419D02*
X150181287Y-123769380D01*
X150181287Y-123769380D02*
X150020480Y-124295338D01*
X150181287Y-123769380D02*
X150342082Y-123243400D01*
X150181287Y-123769380D02*
X150872014Y-123562266D01*
X150638102Y-124327315D02*
X150181287Y-123769380D01*
X150755061Y-123944797D02*
X151233221Y-124090987D01*
X150872014Y-123562266D02*
X150638102Y-124327315D01*
%TO.C,D8*%
X101904328Y-105872552D02*
X102286864Y-105989513D01*
X102286864Y-105989513D02*
X102126057Y-106515471D01*
X102286864Y-105989513D02*
X102447659Y-105463533D01*
X102286864Y-105989513D02*
X102977591Y-105782399D01*
X102743679Y-106547448D02*
X102286864Y-105989513D01*
X102860638Y-106164930D02*
X103338798Y-106311120D01*
X102977591Y-105782399D02*
X102743679Y-106547448D01*
%TO.C,D11*%
X119623354Y-106061342D02*
X120005890Y-106178303D01*
X120005890Y-106178303D02*
X119845083Y-106704261D01*
X120005890Y-106178303D02*
X120166685Y-105652323D01*
X120005890Y-106178303D02*
X120696617Y-105971189D01*
X120462705Y-106736238D02*
X120005890Y-106178303D01*
X120579664Y-106353720D02*
X121057824Y-106499910D01*
X120696617Y-105971189D02*
X120462705Y-106736238D01*
%TO.C,D32*%
X236802701Y-106499901D02*
X237185212Y-106382954D01*
X237185212Y-106382954D02*
X237024411Y-105856993D01*
X237185212Y-106382954D02*
X237346026Y-106908928D01*
X237185212Y-106382954D02*
X237642048Y-105825003D01*
X237642048Y-105825003D02*
X237875954Y-106590051D01*
X237759004Y-106207535D02*
X238237149Y-106061353D01*
X237875954Y-106590051D02*
X237185212Y-106382954D01*
%TO.C,D1*%
X59595009Y-125374336D02*
X59986254Y-125457506D01*
X59986254Y-125457506D02*
X59871910Y-125995478D01*
X59986254Y-125457506D02*
X60100615Y-124919525D01*
X59986254Y-125457506D02*
X60656313Y-125191010D01*
X60489988Y-125973511D02*
X59986254Y-125457506D01*
X60573145Y-125582253D02*
X61062209Y-125686214D01*
X60656313Y-125191010D02*
X60489988Y-125973511D01*
%TO.C,D18*%
X154769069Y-107395243D02*
X155151605Y-107512204D01*
X155151605Y-107512204D02*
X154990798Y-108038162D01*
X155151605Y-107512204D02*
X155312400Y-106986224D01*
X155151605Y-107512204D02*
X155842332Y-107305090D01*
X155608420Y-108070139D02*
X155151605Y-107512204D01*
X155725379Y-107687621D02*
X156203539Y-107833811D01*
X155842332Y-107305090D02*
X155608420Y-108070139D01*
%TO.C,D20*%
X139251253Y-158076025D02*
X139622137Y-158225864D01*
X139622137Y-158225864D02*
X139416106Y-158735804D01*
X139622137Y-158225864D02*
X139828173Y-157715918D01*
X139622137Y-158225864D02*
X140328281Y-158079760D01*
X140028594Y-158821508D02*
X139622137Y-158225864D01*
X140178443Y-158450641D02*
X140642045Y-158637933D01*
X140328281Y-158079760D02*
X140028594Y-158821508D01*
%TO.C,D24*%
X289729308Y-92429200D02*
X290120561Y-92346023D01*
X290120561Y-92346023D02*
X290006211Y-91808051D01*
X290120561Y-92346023D02*
X290234908Y-92884018D01*
X290120561Y-92346023D02*
X290624272Y-91830029D01*
X290624272Y-91830029D02*
X290790609Y-92612548D01*
X290707442Y-92221294D02*
X291196512Y-92117328D01*
X290790609Y-92612548D02*
X290120561Y-92346023D01*
%TD*%
M02*
