M48
; DRILL file {KiCad 8.0.6} date 2025-05-16T17:03:23+0200
; FORMAT={-:-/ absolute / inch / decimal}
; #@! TF.CreationDate,2025-05-16T17:03:23+02:00
; #@! TF.GenerationSoftware,Kicad,Pcbnew,8.0.6
; #@! TF.FileFunction,Plated,1,2,PTH
FMAT,2
INCH
; #@! TA.AperFunction,Plated,PTH,ViaDrill
T1C0.0118
; #@! TA.AperFunction,Plated,PTH,ComponentDrill
T2C0.0295
; #@! TA.AperFunction,Plated,PTH,ComponentDrill
T3C0.0390
; #@! TA.AperFunction,Plated,PTH,ComponentDrill
T4C0.0390
; #@! TA.AperFunction,Plated,PTH,ComponentDrill
T5C0.0394
; #@! TA.AperFunction,Plated,PTH,ComponentDrill
T6C0.0866
%
G90
G05
T1
X2.8543Y-3.5236
X3.5827Y-3.6811
X4.6063Y-3.4646
X5.374Y-3.5039
X6.0367Y-3.9961
X6.1417Y-3.6614
X6.1614Y-3.622
X6.7618Y-4.498
X6.7727Y-4.4478
X6.7743Y-4.4068
X6.7749Y-4.5833
X6.7782Y-4.3635
X7.8937Y-5.2953
X7.9331Y-5.2953
X7.9724Y-5.2953
X8.0118Y-5.2953
X8.0512Y-5.2953
T2
X6.9488Y-4.7441
X7.0276Y-4.7441
T3
X6.8898Y-4.3307
X6.8898Y-4.5866
X7.0669Y-4.3307
X7.0669Y-4.5866
T4
X2.1654Y-5.2075
X2.3209Y-4.4758
X2.4588Y-5.2698
X2.4764Y-3.7441
X2.6144Y-4.5382
X2.7699Y-3.8065
X2.8971Y-5.363
X3.0526Y-4.6313
X3.1905Y-5.4254
X3.2081Y-3.8996
X3.346Y-4.6937
X3.5016Y-3.962
X3.7665Y-5.0957
X3.9852Y-4.3803
X4.0534Y-5.1834
X4.2039Y-3.665
X4.2721Y-4.468
X4.4908Y-3.7527
X4.5394Y-5.1261
X4.7581Y-4.4108
X4.8263Y-5.2138
X4.9768Y-3.6954
X5.045Y-4.4985
X5.083Y-6.4451
X5.1857Y-5.5707
X5.2637Y-3.7832
X5.3699Y-6.5328
X5.4044Y-4.8554
X5.4726Y-5.6584
X5.6231Y-4.14
X5.6913Y-4.9431
X5.878Y-5.8647
X5.8869Y-6.72
X5.91Y-4.2278
X6.0967Y-5.1494
X6.1649Y-5.9525
X6.1651Y-6.8324
X6.3154Y-4.434
X6.3836Y-5.2371
X6.6023Y-4.5218
X6.6696Y-7.1045
X6.9092Y-7.2851
X8.0752Y-7.2851
X8.3148Y-7.1045
X8.3821Y-4.5218
X8.6008Y-5.2371
X8.669Y-4.434
X8.8193Y-6.8324
X8.8195Y-5.9525
X8.8877Y-5.1494
X9.0745Y-4.2278
X9.0975Y-6.72
X9.1064Y-5.8647
X9.2932Y-4.9431
X9.3614Y-4.14
X9.5119Y-5.6584
X9.5801Y-4.8554
X9.6145Y-6.5328
X9.7207Y-3.7832
X9.7988Y-5.5707
X9.9014Y-6.4451
X9.9394Y-4.4985
X10.0076Y-3.6954
X10.1582Y-5.2138
X10.2263Y-4.4108
X10.445Y-5.1261
X10.4936Y-3.7527
X10.7123Y-4.468
X10.7805Y-3.665
X10.931Y-5.1834
X10.9992Y-4.3803
X11.2179Y-5.0957
X11.4829Y-3.962
X11.6384Y-4.6937
X11.7763Y-3.8996
X11.7939Y-5.4254
X11.9318Y-4.6313
X12.0874Y-5.363
X12.2146Y-3.8065
X12.3701Y-4.5382
X12.508Y-3.7441
X12.5256Y-5.2698
X12.6635Y-4.4758
X12.819Y-5.2075
T5
X7.2Y-4.1654
X7.2Y-4.2654
X7.2Y-4.3654
X7.2Y-4.4654
X7.2Y-4.5654
X7.2Y-4.6654
X7.2Y-4.7654
X7.2Y-4.8654
X7.2Y-4.9654
X7.2Y-5.0654
X7.2Y-5.1654
X7.2Y-5.2654
X7.8Y-4.1654
X7.8Y-4.2654
X7.8Y-4.3654
X7.8Y-4.4654
X7.8Y-4.5654
X7.8Y-4.6654
X7.8Y-4.7654
X7.8Y-4.8654
X7.8Y-4.9654
X7.8Y-5.0654
X7.8Y-5.1654
X7.8Y-5.2654
T6
X2.7065Y-5.2239
X2.9619Y-4.0224
X4.3161Y-5.0229
X4.7189Y-3.8266
X6.0591Y-4.4874
X6.5018Y-6.8283
X8.4827Y-6.8283
X8.9254Y-4.4874
X10.2655Y-3.8266
X10.6683Y-5.0229
X12.0226Y-4.0224
X12.278Y-5.2239
M30
