%TF.GenerationSoftware,KiCad,Pcbnew,8.0.6*%
%TF.CreationDate,2025-07-21T23:16:00+02:00*%
%TF.ProjectId,main,6d61696e-2e6b-4696-9361-645f70636258,v1.0.0*%
%TF.SameCoordinates,Original*%
%TF.FileFunction,Profile,NP*%
%FSLAX46Y46*%
G04 Gerber Fmt 4.6, Leading zero omitted, Abs format (unit mm)*
G04 Created by KiCad (PCBNEW 8.0.6) date 2025-07-21 23:16:00*
%MOMM*%
%LPD*%
G01*
G04 APERTURE LIST*
%TA.AperFunction,Profile*%
%ADD10C,0.150000*%
%TD*%
%TA.AperFunction,Profile*%
%ADD11C,0.050000*%
%TD*%
%TA.AperFunction,Profile*%
%ADD12C,0.100000*%
%TD*%
G04 APERTURE END LIST*
D10*
X117447982Y-80593787D02*
G75*
G02*
X118011434Y-80681057I-21393J-2000712D01*
G01*
X82024373Y-142281782D02*
X49989174Y-135785765D01*
X58614096Y-85499037D02*
G75*
G02*
X60986224Y-83958588I1956341J-415920D01*
G01*
D11*
X172675001Y-104000003D02*
X172550005Y-104000001D01*
D10*
X200604836Y-183746562D02*
G75*
G02*
X199401212Y-184149286I-1203801J1597807D01*
G01*
X100296642Y-80411039D02*
X117447982Y-80593787D01*
X82651411Y-142308456D02*
G75*
G02*
X82024371Y-142281790I-229637J1985830D01*
G01*
X220797892Y-86561182D02*
G75*
G02*
X221220396Y-86376433I1007453J-1728462D01*
G01*
X309434081Y-133428265D02*
G75*
G02*
X307893593Y-135800377I-1956374J-415764D01*
G01*
X126038092Y-165901566D02*
G75*
G02*
X126169485Y-165948112I-600692J-1904403D01*
G01*
X141564209Y-172013238D02*
G75*
G02*
X142034737Y-172276762I-732430J-1859606D01*
G01*
X60986227Y-83958572D02*
X75183132Y-86976208D01*
X275827787Y-142286273D02*
G75*
G02*
X275218090Y-142309500I-380111J1963948D01*
G01*
X293239207Y-138915275D02*
G75*
G02*
X293203512Y-138922521I-406932J1912954D01*
G01*
D11*
X185100007Y-137099998D02*
X185124995Y-104050007D01*
D10*
X136640118Y-86376417D02*
G75*
G02*
X137062615Y-86561200I-583872J-1910393D01*
G01*
X76127097Y-86948916D02*
X99747190Y-80481927D01*
X158459306Y-184149294D02*
G75*
G02*
X157255666Y-183746563I222J2000684D01*
G01*
X307893595Y-135800385D02*
X293239207Y-138915275D01*
X141564209Y-172013238D02*
X126169485Y-165948111D01*
X76127097Y-86948916D02*
G75*
G02*
X75183135Y-86976193I-528115J1928944D01*
G01*
X98085182Y-140525087D02*
X82651411Y-142308456D01*
X126038092Y-165901566D02*
X110736830Y-161074411D01*
X191289902Y-103763208D02*
G75*
G02*
X190282637Y-104035368I-1007087J1727209D01*
G01*
X258113319Y-80481919D02*
X281733413Y-86948912D01*
X240412517Y-80593797D02*
X257563882Y-80411052D01*
X257765614Y-141600203D02*
X248302110Y-160078736D01*
X49989174Y-135785765D02*
G75*
G02*
X48430335Y-133409843I397443J1960099D01*
G01*
X282677367Y-86976209D02*
G75*
G02*
X281733416Y-86948901I-415829J1954477D01*
G01*
X110736830Y-161074411D02*
G75*
G02*
X109558403Y-160078754I601684J1907336D01*
G01*
X248302110Y-160078736D02*
G75*
G02*
X247123682Y-161074401I-1780194J911763D01*
G01*
X215825776Y-172276765D02*
X200604836Y-183746562D01*
D11*
X167577880Y-104035356D02*
X172550005Y-104000001D01*
D10*
X48430356Y-133409847D02*
X58614096Y-85499037D01*
X247123689Y-161074423D02*
X231822416Y-165901575D01*
X167577880Y-104035356D02*
G75*
G02*
X166570613Y-103763232I-23J2000180D01*
G01*
X299246411Y-85499037D02*
X309434081Y-133428265D01*
X118011430Y-80681071D02*
X136640118Y-86376417D01*
D11*
X172700000Y-137150003D02*
X172675001Y-104000003D01*
X172700000Y-137150003D02*
X185100007Y-137099998D01*
D10*
X109558404Y-160078753D02*
X100094892Y-141600199D01*
X231691032Y-165948117D02*
G75*
G02*
X231822415Y-165901570I729615J-1850715D01*
G01*
X282677367Y-86976209D02*
X296874294Y-83958564D01*
D11*
X185124995Y-104050007D02*
X190282637Y-104035373D01*
D10*
X231691032Y-165948117D02*
X216296308Y-172013226D01*
X215825776Y-172276765D02*
G75*
G02*
X216296306Y-172013221I1202437J-1595013D01*
G01*
X221220395Y-86376428D02*
X239849072Y-80681075D01*
X137062619Y-86561194D02*
X166570625Y-103763211D01*
X293203512Y-138922522D02*
X275827787Y-142286273D01*
X275218089Y-142309505D02*
X259775336Y-140525076D01*
X157255668Y-183746560D02*
X142034731Y-172276770D01*
X98085182Y-140525087D02*
G75*
G02*
X100094856Y-141600217I229604J-1986660D01*
G01*
X191289902Y-103763208D02*
X220797892Y-86561182D01*
X296874294Y-83958564D02*
G75*
G02*
X299246389Y-85499042I415789J-1956316D01*
G01*
X257765614Y-141600203D02*
G75*
G02*
X259775332Y-140525107I1780013J-911477D01*
G01*
X257563882Y-80411052D02*
G75*
G02*
X258113318Y-80481922I21244J-2000545D01*
G01*
X99747190Y-80481927D02*
G75*
G02*
X100296642Y-80411039I528132J-1928692D01*
G01*
X239849072Y-80681075D02*
G75*
G02*
X240412517Y-80593804I584603J-1911846D01*
G01*
X199401212Y-184149294D02*
X158459306Y-184149294D01*
D12*
%TO.C,CPG1316*%
X251785812Y-112999441D02*
G75*
G02*
X250785820Y-112999441I-499996J0D01*
G01*
X250785820Y-112999441D02*
G75*
G02*
X251785812Y-112999441I499996J0D01*
G01*
X261370902Y-104348249D02*
G75*
G02*
X260170894Y-104348249I-600004J0D01*
G01*
X260170894Y-104348249D02*
G75*
G02*
X261370902Y-104348249I600004J0D01*
G01*
X113700600Y-109796724D02*
G75*
G02*
X112700612Y-109796724I-499994J0D01*
G01*
X112700612Y-109796724D02*
G75*
G02*
X113700600Y-109796724I499994J0D01*
G01*
X126501774Y-107928562D02*
G75*
G02*
X125301774Y-107928562I-600000J0D01*
G01*
X125301774Y-107928562D02*
G75*
G02*
X126501774Y-107928562I600000J0D01*
G01*
X118670921Y-93539546D02*
G75*
G02*
X117670933Y-93539546I-499994J0D01*
G01*
X117670933Y-93539546D02*
G75*
G02*
X118670921Y-93539546I499994J0D01*
G01*
X131472095Y-91671384D02*
G75*
G02*
X130272095Y-91671384I-600000J0D01*
G01*
X130272095Y-91671384D02*
G75*
G02*
X131472095Y-91671384I600000J0D01*
G01*
X123233221Y-136762047D02*
G75*
G02*
X122233233Y-136762047I-499994J0D01*
G01*
X122233233Y-136762047D02*
G75*
G02*
X123233221Y-136762047I499994J0D01*
G01*
X136034395Y-134893885D02*
G75*
G02*
X134834395Y-134893885I-600000J0D01*
G01*
X134834395Y-134893885D02*
G75*
G02*
X136034395Y-134893885I600000J0D01*
G01*
X229096453Y-96931066D02*
G75*
G02*
X228096461Y-96931066I-499996J0D01*
G01*
X228096461Y-96931066D02*
G75*
G02*
X229096453Y-96931066I499996J0D01*
G01*
X238681543Y-88279874D02*
G75*
G02*
X237481535Y-88279874I-600004J0D01*
G01*
X237481535Y-88279874D02*
G75*
G02*
X238681543Y-88279874I600004J0D01*
G01*
X70650742Y-133189791D02*
G75*
G02*
X69650734Y-133189791I-500004J0D01*
G01*
X69650734Y-133189791D02*
G75*
G02*
X70650742Y-133189791I500004J0D01*
G01*
X83240763Y-130221751D02*
G75*
G02*
X82040769Y-130221751I-599997J0D01*
G01*
X82040769Y-130221751D02*
G75*
G02*
X83240763Y-130221751I599997J0D01*
G01*
X100951886Y-93350763D02*
G75*
G02*
X99951898Y-93350763I-499994J0D01*
G01*
X99951898Y-93350763D02*
G75*
G02*
X100951886Y-93350763I499994J0D01*
G01*
X113753060Y-91482601D02*
G75*
G02*
X112553060Y-91482601I-600000J0D01*
G01*
X112553060Y-91482601D02*
G75*
G02*
X113753060Y-91482601I600000J0D01*
G01*
X224534151Y-140153579D02*
G75*
G02*
X223534159Y-140153579I-499996J0D01*
G01*
X223534159Y-140153579D02*
G75*
G02*
X224534151Y-140153579I499996J0D01*
G01*
X234119241Y-131502387D02*
G75*
G02*
X232919233Y-131502387I-600004J0D01*
G01*
X232919233Y-131502387D02*
G75*
G02*
X234119241Y-131502387I600004J0D01*
G01*
X215077799Y-165582833D02*
G75*
G02*
X214077787Y-165582833I-500006J0D01*
G01*
X214077787Y-165582833D02*
G75*
G02*
X215077799Y-165582833I500006J0D01*
G01*
X223872792Y-156137893D02*
G75*
G02*
X222672810Y-156137893I-599991J0D01*
G01*
X222672810Y-156137893D02*
G75*
G02*
X223872792Y-156137893I599991J0D01*
G01*
X148846308Y-111130626D02*
G75*
G02*
X147846320Y-111130626I-499994J0D01*
G01*
X147846320Y-111130626D02*
G75*
G02*
X148846308Y-111130626I499994J0D01*
G01*
X161647482Y-109262464D02*
G75*
G02*
X160447482Y-109262464I-600000J0D01*
G01*
X160447482Y-109262464D02*
G75*
G02*
X161647482Y-109262464I600000J0D01*
G01*
X74185259Y-116561286D02*
G75*
G02*
X73185251Y-116561286I-500004J0D01*
G01*
X73185251Y-116561286D02*
G75*
G02*
X74185259Y-116561286I500004J0D01*
G01*
X86775280Y-113593246D02*
G75*
G02*
X85575286Y-113593246I-599997J0D01*
G01*
X85575286Y-113593246D02*
G75*
G02*
X86775280Y-113593246I599997J0D01*
G01*
X219563831Y-123896398D02*
G75*
G02*
X218563839Y-123896398I-499996J0D01*
G01*
X218563839Y-123896398D02*
G75*
G02*
X219563831Y-123896398I499996J0D01*
G01*
X229148921Y-115245206D02*
G75*
G02*
X227948913Y-115245206I-600004J0D01*
G01*
X227948913Y-115245206D02*
G75*
G02*
X229148921Y-115245206I600004J0D01*
G01*
X149733920Y-169249805D02*
G75*
G02*
X148733934Y-169249805I-499993J0D01*
G01*
X148733934Y-169249805D02*
G75*
G02*
X149733920Y-169249805I499993J0D01*
G01*
X162408081Y-171838359D02*
G75*
G02*
X161208065Y-171838359I-600008J0D01*
G01*
X161208065Y-171838359D02*
G75*
G02*
X162408081Y-171838359I600008J0D01*
G01*
X57556723Y-113026783D02*
G75*
G02*
X56556715Y-113026783I-500004J0D01*
G01*
X56556715Y-113026783D02*
G75*
G02*
X57556723Y-113026783I500004J0D01*
G01*
X70146744Y-110058743D02*
G75*
G02*
X68946750Y-110058743I-599997J0D01*
G01*
X68946750Y-110058743D02*
G75*
G02*
X70146744Y-110058743I599997J0D01*
G01*
X95981564Y-109607929D02*
G75*
G02*
X94981576Y-109607929I-499994J0D01*
G01*
X94981576Y-109607929D02*
G75*
G02*
X95981564Y-109607929I499994J0D01*
G01*
X108782738Y-107739767D02*
G75*
G02*
X107582738Y-107739767I-600000J0D01*
G01*
X107582738Y-107739767D02*
G75*
G02*
X108782738Y-107739767I600000J0D01*
G01*
X198921081Y-114522145D02*
G75*
G02*
X197921089Y-114522145I-499996J0D01*
G01*
X197921089Y-114522145D02*
G75*
G02*
X198921081Y-114522145I499996J0D01*
G01*
X208506171Y-105870953D02*
G75*
G02*
X207306163Y-105870953I-600004J0D01*
G01*
X207306163Y-105870953D02*
G75*
G02*
X208506171Y-105870953I600004J0D01*
G01*
X239037096Y-129445421D02*
G75*
G02*
X238037104Y-129445421I-499996J0D01*
G01*
X238037104Y-129445421D02*
G75*
G02*
X239037096Y-129445421I499996J0D01*
G01*
X248622186Y-120794229D02*
G75*
G02*
X247422178Y-120794229I-600004J0D01*
G01*
X247422178Y-120794229D02*
G75*
G02*
X248622186Y-120794229I600004J0D01*
G01*
X208861706Y-147036517D02*
G75*
G02*
X207861714Y-147036517I-499996J0D01*
G01*
X207861714Y-147036517D02*
G75*
G02*
X208861706Y-147036517I499996J0D01*
G01*
X218446796Y-138385325D02*
G75*
G02*
X217246788Y-138385325I-600004J0D01*
G01*
X217246788Y-138385325D02*
G75*
G02*
X218446796Y-138385325I600004J0D01*
G01*
X234066777Y-113188245D02*
G75*
G02*
X233066785Y-113188245I-499996J0D01*
G01*
X233066785Y-113188245D02*
G75*
G02*
X234066777Y-113188245I499996J0D01*
G01*
X243651867Y-104537053D02*
G75*
G02*
X242451859Y-104537053I-600004J0D01*
G01*
X242451859Y-104537053D02*
G75*
G02*
X243651867Y-104537053I600004J0D01*
G01*
X286422764Y-98810059D02*
G75*
G02*
X285422774Y-98810059I-499995J0D01*
G01*
X285422774Y-98810059D02*
G75*
G02*
X286422764Y-98810059I499995J0D01*
G01*
X296725767Y-91018471D02*
G75*
G02*
X295525767Y-91018471I-600000J0D01*
G01*
X295525767Y-91018471D02*
G75*
G02*
X296725767Y-91018471I600000J0D01*
G01*
X276863237Y-135601561D02*
G75*
G02*
X275863247Y-135601561I-499995J0D01*
G01*
X275863247Y-135601561D02*
G75*
G02*
X276863237Y-135601561I499995J0D01*
G01*
X287166240Y-127809973D02*
G75*
G02*
X285966240Y-127809973I-600000J0D01*
G01*
X285966240Y-127809973D02*
G75*
G02*
X287166240Y-127809973I600000J0D01*
G01*
X116429492Y-155595772D02*
G75*
G02*
X115429504Y-155595772I-499994J0D01*
G01*
X115429504Y-155595772D02*
G75*
G02*
X116429492Y-155595772I499994J0D01*
G01*
X129230666Y-153727610D02*
G75*
G02*
X128030666Y-153727610I-600000J0D01*
G01*
X128030666Y-153727610D02*
G75*
G02*
X129230666Y-153727610I600000J0D01*
G01*
X214593511Y-107639215D02*
G75*
G02*
X213593519Y-107639215I-499996J0D01*
G01*
X213593519Y-107639215D02*
G75*
G02*
X214593511Y-107639215I499996J0D01*
G01*
X224178601Y-98988023D02*
G75*
G02*
X222978593Y-98988023I-600004J0D01*
G01*
X222978593Y-98988023D02*
G75*
G02*
X224178601Y-98988023I600004J0D01*
G01*
X289957247Y-115438556D02*
G75*
G02*
X288957257Y-115438556I-499995J0D01*
G01*
X288957257Y-115438556D02*
G75*
G02*
X289957247Y-115438556I499995J0D01*
G01*
X300260250Y-107646968D02*
G75*
G02*
X299060250Y-107646968I-600000J0D01*
G01*
X299060250Y-107646968D02*
G75*
G02*
X300260250Y-107646968I600000J0D01*
G01*
X138905665Y-143644992D02*
G75*
G02*
X137905677Y-143644992I-499994J0D01*
G01*
X137905677Y-143644992D02*
G75*
G02*
X138905665Y-143644992I499994J0D01*
G01*
X151706839Y-141776830D02*
G75*
G02*
X150506839Y-141776830I-600000J0D01*
G01*
X150506839Y-141776830D02*
G75*
G02*
X151706839Y-141776830I600000J0D01*
G01*
X128203555Y-120504890D02*
G75*
G02*
X127203567Y-120504890I-499994J0D01*
G01*
X127203567Y-120504890D02*
G75*
G02*
X128203555Y-120504890I499994J0D01*
G01*
X141004729Y-118636728D02*
G75*
G02*
X139804729Y-118636728I-600000J0D01*
G01*
X139804729Y-118636728D02*
G75*
G02*
X141004729Y-118636728I600000J0D01*
G01*
X91011242Y-125865132D02*
G75*
G02*
X90011254Y-125865132I-499994J0D01*
G01*
X90011254Y-125865132D02*
G75*
G02*
X91011242Y-125865132I499994J0D01*
G01*
X103812416Y-123996970D02*
G75*
G02*
X102612416Y-123996970I-600000J0D01*
G01*
X102612416Y-123996970D02*
G75*
G02*
X103812416Y-123996970I600000J0D01*
G01*
X231337881Y-158987286D02*
G75*
G02*
X230337889Y-158987286I-499996J0D01*
G01*
X230337889Y-158987286D02*
G75*
G02*
X231337881Y-158987286I499996J0D01*
G01*
X240922971Y-150336094D02*
G75*
G02*
X239722963Y-150336094I-600004J0D01*
G01*
X239722963Y-150336094D02*
G75*
G02*
X240922971Y-150336094I600004J0D01*
G01*
X273328753Y-118973063D02*
G75*
G02*
X272328763Y-118973063I-499995J0D01*
G01*
X272328763Y-118973063D02*
G75*
G02*
X273328753Y-118973063I499995J0D01*
G01*
X283631756Y-111181475D02*
G75*
G02*
X282431756Y-111181475I-600000J0D01*
G01*
X282431756Y-111181475D02*
G75*
G02*
X283631756Y-111181475I600000J0D01*
G01*
X61091229Y-96398282D02*
G75*
G02*
X60091221Y-96398282I-500004J0D01*
G01*
X60091221Y-96398282D02*
G75*
G02*
X61091229Y-96398282I500004J0D01*
G01*
X73681250Y-93430242D02*
G75*
G02*
X72481256Y-93430242I-599997J0D01*
G01*
X72481256Y-93430242D02*
G75*
G02*
X73681250Y-93430242I599997J0D01*
G01*
X77719746Y-99932767D02*
G75*
G02*
X76719738Y-99932767I-500004J0D01*
G01*
X76719738Y-99932767D02*
G75*
G02*
X77719746Y-99932767I500004J0D01*
G01*
X90309767Y-96964727D02*
G75*
G02*
X89109773Y-96964727I-599997J0D01*
G01*
X89109773Y-96964727D02*
G75*
G02*
X90309767Y-96964727I599997J0D01*
G01*
X133027382Y-161237405D02*
G75*
G02*
X132027376Y-161237405I-500003J0D01*
G01*
X132027376Y-161237405D02*
G75*
G02*
X133027382Y-161237405I500003J0D01*
G01*
X145943051Y-160483333D02*
G75*
G02*
X144743055Y-160483333I-599998J0D01*
G01*
X144743055Y-160483333D02*
G75*
G02*
X145943051Y-160483333I599998J0D01*
G01*
X203891385Y-130779316D02*
G75*
G02*
X202891393Y-130779316I-499996J0D01*
G01*
X202891393Y-130779316D02*
G75*
G02*
X203891385Y-130779316I499996J0D01*
G01*
X213476475Y-122128124D02*
G75*
G02*
X212276467Y-122128124I-600004J0D01*
G01*
X212276467Y-122128124D02*
G75*
G02*
X213476475Y-122128124I600004J0D01*
G01*
X256756121Y-129256646D02*
G75*
G02*
X255756129Y-129256646I-499996J0D01*
G01*
X255756129Y-129256646D02*
G75*
G02*
X256756121Y-129256646I499996J0D01*
G01*
X266341211Y-120605454D02*
G75*
G02*
X265141203Y-120605454I-600004J0D01*
G01*
X265141203Y-120605454D02*
G75*
G02*
X266341211Y-120605454I600004J0D01*
G01*
X143875991Y-127387810D02*
G75*
G02*
X142876003Y-127387810I-499994J0D01*
G01*
X142876003Y-127387810D02*
G75*
G02*
X143875991Y-127387810I499994J0D01*
G01*
X156677165Y-125519648D02*
G75*
G02*
X155477165Y-125519648I-600000J0D01*
G01*
X155477165Y-125519648D02*
G75*
G02*
X156677165Y-125519648I600000J0D01*
G01*
X293491753Y-132067058D02*
G75*
G02*
X292491763Y-132067058I-499995J0D01*
G01*
X292491763Y-132067058D02*
G75*
G02*
X293491753Y-132067058I499995J0D01*
G01*
X303794756Y-124275470D02*
G75*
G02*
X302594756Y-124275470I-600000J0D01*
G01*
X302594756Y-124275470D02*
G75*
G02*
X303794756Y-124275470I600000J0D01*
G01*
X133173876Y-104247713D02*
G75*
G02*
X132173888Y-104247713I-499994J0D01*
G01*
X132173888Y-104247713D02*
G75*
G02*
X133173876Y-104247713I499994J0D01*
G01*
X145975050Y-102379551D02*
G75*
G02*
X144775050Y-102379551I-600000J0D01*
G01*
X144775050Y-102379551D02*
G75*
G02*
X145975050Y-102379551I600000J0D01*
G01*
X246815491Y-96742268D02*
G75*
G02*
X245815499Y-96742268I-499996J0D01*
G01*
X245815499Y-96742268D02*
G75*
G02*
X246815491Y-96742268I499996J0D01*
G01*
X256400581Y-88091076D02*
G75*
G02*
X255200573Y-88091076I-600004J0D01*
G01*
X255200573Y-88091076D02*
G75*
G02*
X256400581Y-88091076I600004J0D01*
G01*
X108730273Y-126053921D02*
G75*
G02*
X107730285Y-126053921I-499994J0D01*
G01*
X107730285Y-126053921D02*
G75*
G02*
X108730273Y-126053921I499994J0D01*
G01*
X121531447Y-124185759D02*
G75*
G02*
X120331447Y-124185759I-600000J0D01*
G01*
X120331447Y-124185759D02*
G75*
G02*
X121531447Y-124185759I600000J0D01*
G01*
X199862413Y-176230864D02*
G75*
G02*
X198862423Y-176230864I-499995J0D01*
G01*
X198862423Y-176230864D02*
G75*
G02*
X199862413Y-176230864I499995J0D01*
G01*
X205916608Y-164857320D02*
G75*
G02*
X204716592Y-164857320I-600008J0D01*
G01*
X204716592Y-164857320D02*
G75*
G02*
X205916608Y-164857320I600008J0D01*
G01*
X269794262Y-102344552D02*
G75*
G02*
X268794272Y-102344552I-499995J0D01*
G01*
X268794272Y-102344552D02*
G75*
G02*
X269794262Y-102344552I499995J0D01*
G01*
X280097265Y-94552964D02*
G75*
G02*
X278897265Y-94552964I-600000J0D01*
G01*
X278897265Y-94552964D02*
G75*
G02*
X280097265Y-94552964I600000J0D01*
G01*
X54022236Y-129655290D02*
G75*
G02*
X53022228Y-129655290I-500004J0D01*
G01*
X53022228Y-129655290D02*
G75*
G02*
X54022236Y-129655290I500004J0D01*
G01*
X66612257Y-126687250D02*
G75*
G02*
X65412263Y-126687250I-599997J0D01*
G01*
X65412263Y-126687250D02*
G75*
G02*
X66612257Y-126687250I599997J0D01*
G01*
%TD*%
M02*
