%TF.GenerationSoftware,KiCad,Pcbnew,8.0.6*%
%TF.CreationDate,2025-05-16T17:03:22+02:00*%
%TF.ProjectId,main,6d61696e-2e6b-4696-9361-645f70636258,v1.0.0*%
%TF.SameCoordinates,Original*%
%TF.FileFunction,Copper,L2,Bot*%
%TF.FilePolarity,Positive*%
%FSLAX46Y46*%
G04 Gerber Fmt 4.6, Leading zero omitted, Abs format (unit mm)*
G04 Created by KiCad (PCBNEW 8.0.6) date 2025-05-16 17:03:22*
%MOMM*%
%LPD*%
G01*
G04 APERTURE LIST*
G04 Aperture macros list*
%AMRoundRect*
0 Rectangle with rounded corners*
0 $1 Rounding radius*
0 $2 $3 $4 $5 $6 $7 $8 $9 X,Y pos of 4 corners*
0 Add a 4 corners polygon primitive as box body*
4,1,4,$2,$3,$4,$5,$6,$7,$8,$9,$2,$3,0*
0 Add four circle primitives for the rounded corners*
1,1,$1+$1,$2,$3*
1,1,$1+$1,$4,$5*
1,1,$1+$1,$6,$7*
1,1,$1+$1,$8,$9*
0 Add four rect primitives between the rounded corners*
20,1,$1+$1,$2,$3,$4,$5,0*
20,1,$1+$1,$4,$5,$6,$7,0*
20,1,$1+$1,$6,$7,$8,$9,0*
20,1,$1+$1,$8,$9,$2,$3,0*%
%AMRotRect*
0 Rectangle, with rotation*
0 The origin of the aperture is its center*
0 $1 length*
0 $2 width*
0 $3 Rotation angle, in degrees counterclockwise*
0 Add horizontal line*
21,1,$1,$2,0,0,$3*%
G04 Aperture macros list end*
%TA.AperFunction,ComponentPad*%
%ADD10C,3.800000*%
%TD*%
%TA.AperFunction,ComponentPad*%
%ADD11RotRect,1.778000X1.778000X343.000000*%
%TD*%
%TA.AperFunction,SMDPad,CuDef*%
%ADD12RotRect,0.900000X1.200000X343.000000*%
%TD*%
%TA.AperFunction,ComponentPad*%
%ADD13C,1.905000*%
%TD*%
%TA.AperFunction,ComponentPad*%
%ADD14RotRect,1.778000X1.778000X12.000000*%
%TD*%
%TA.AperFunction,SMDPad,CuDef*%
%ADD15RotRect,0.900000X1.200000X12.000000*%
%TD*%
%TA.AperFunction,ComponentPad*%
%ADD16RotRect,1.778000X1.778000X17.000000*%
%TD*%
%TA.AperFunction,SMDPad,CuDef*%
%ADD17RotRect,0.900000X1.200000X17.000000*%
%TD*%
%TA.AperFunction,ComponentPad*%
%ADD18RotRect,1.778000X1.778000X348.000000*%
%TD*%
%TA.AperFunction,SMDPad,CuDef*%
%ADD19RotRect,0.900000X1.200000X348.000000*%
%TD*%
%TA.AperFunction,ComponentPad*%
%ADD20RotRect,1.778000X1.778000X22.000000*%
%TD*%
%TA.AperFunction,SMDPad,CuDef*%
%ADD21RotRect,0.900000X1.200000X22.000000*%
%TD*%
%TA.AperFunction,ComponentPad*%
%ADD22RotRect,1.778000X1.778000X37.000000*%
%TD*%
%TA.AperFunction,SMDPad,CuDef*%
%ADD23RotRect,0.900000X1.200000X37.000000*%
%TD*%
%TA.AperFunction,ComponentPad*%
%ADD24RoundRect,0.240000X-0.360000X-0.635000X0.360000X-0.635000X0.360000X0.635000X-0.360000X0.635000X0*%
%TD*%
%TA.AperFunction,ComponentPad*%
%ADD25O,1.200000X1.750000*%
%TD*%
%TA.AperFunction,ComponentPad*%
%ADD26RotRect,1.778000X1.778000X323.000000*%
%TD*%
%TA.AperFunction,SMDPad,CuDef*%
%ADD27RotRect,0.900000X1.200000X323.000000*%
%TD*%
%TA.AperFunction,ComponentPad*%
%ADD28R,1.498000X1.498000*%
%TD*%
%TA.AperFunction,ComponentPad*%
%ADD29C,1.498000*%
%TD*%
%TA.AperFunction,ComponentPad*%
%ADD30RotRect,1.778000X1.778000X338.000000*%
%TD*%
%TA.AperFunction,SMDPad,CuDef*%
%ADD31RotRect,0.900000X1.200000X338.000000*%
%TD*%
%TA.AperFunction,ComponentPad*%
%ADD32C,1.700000*%
%TD*%
%TA.AperFunction,ViaPad*%
%ADD33C,0.600000*%
%TD*%
%TA.AperFunction,Conductor*%
%ADD34C,0.200000*%
%TD*%
G04 APERTURE END LIST*
D10*
%TO.P,H10,*%
%TO.N,*%
X226704171Y-113980440D03*
%TD*%
D11*
%TO.P,D16,1*%
%TO.N,P19*%
X149301300Y-148964373D03*
D12*
X151366918Y-149595896D03*
%TO.P,D16,2*%
%TO.N,inner_bottom*%
X154522724Y-150560722D03*
D13*
X156588342Y-151192245D03*
%TD*%
D14*
%TO.P,D22,1*%
%TO.N,P2*%
X318150317Y-133854159D03*
D15*
X320263115Y-133405068D03*
%TO.P,D22,2*%
%TO.N,mirror_outer_bottom*%
X323491003Y-132718960D03*
D13*
X325603801Y-132269869D03*
%TD*%
D14*
%TO.P,D24,1*%
%TO.N,P1*%
X310249673Y-96684551D03*
D15*
X312362471Y-96235460D03*
%TO.P,D24,2*%
%TO.N,mirror_outer_top*%
X315590359Y-95549352D03*
D13*
X317703157Y-95100261D03*
%TD*%
D10*
%TO.P,H6,*%
%TO.N,*%
X109629682Y-127581170D03*
%TD*%
D16*
%TO.P,D38,1*%
%TO.N,P0*%
X218461345Y-133022454D03*
D17*
X220526963Y-132390931D03*
%TO.P,D38,2*%
%TO.N,mirror_inner_home*%
X223682769Y-131426105D03*
D13*
X225748387Y-130794582D03*
%TD*%
D11*
%TO.P,D17,1*%
%TO.N,P20*%
X154856362Y-130794582D03*
D12*
X156921980Y-131426105D03*
%TO.P,D17,2*%
%TO.N,inner_home*%
X160077786Y-132390931D03*
D13*
X162143404Y-133022454D03*
%TD*%
D16*
%TO.P,D37,1*%
%TO.N,P2*%
X224016407Y-151192245D03*
D17*
X226082025Y-150560722D03*
%TO.P,D37,2*%
%TO.N,mirror_inner_bottom*%
X229237831Y-149595896D03*
D13*
X231303449Y-148964373D03*
%TD*%
D18*
%TO.P,D1,1*%
%TO.N,P19*%
X55000947Y-132269869D03*
D19*
X57113745Y-132718960D03*
%TO.P,D1,2*%
%TO.N,outer_bottom*%
X60341633Y-133405068D03*
D13*
X62454431Y-133854159D03*
%TD*%
D11*
%TO.P,D7,1*%
%TO.N,P19*%
X95669044Y-129430271D03*
D12*
X97734662Y-130061794D03*
%TO.P,D7,2*%
%TO.N,ring_bottom*%
X100890468Y-131026620D03*
D13*
X102956086Y-131658143D03*
%TD*%
D11*
%TO.P,D14,1*%
%TO.N,P20*%
X137271315Y-123326911D03*
D12*
X139336933Y-123958434D03*
%TO.P,D14,2*%
%TO.N,index_home*%
X142492739Y-124923260D03*
D13*
X144558357Y-125554783D03*
%TD*%
D14*
%TO.P,D25,1*%
%TO.N,P2*%
X299565513Y-137804482D03*
D15*
X301678311Y-137355391D03*
%TO.P,D25,2*%
%TO.N,mirror_pinky_bottom*%
X304906199Y-136669283D03*
D13*
X307018997Y-136220192D03*
%TD*%
D10*
%TO.P,H1,*%
%TO.N,*%
X75231512Y-102168249D03*
%TD*%
D16*
%TO.P,D35,1*%
%TO.N,P0*%
X236046392Y-125554783D03*
D17*
X238112010Y-124923260D03*
%TO.P,D35,2*%
%TO.N,mirror_index_home*%
X241267816Y-123958434D03*
D13*
X243333434Y-123326911D03*
%TD*%
D10*
%TO.P,H4,*%
%TO.N,*%
X311860081Y-132686454D03*
%TD*%
D11*
%TO.P,D12,1*%
%TO.N,P21*%
X126410817Y-93864229D03*
D12*
X128476435Y-94495752D03*
%TO.P,D12,2*%
%TO.N,middle_top*%
X131632241Y-95460578D03*
D13*
X133697859Y-96092101D03*
%TD*%
D10*
%TO.P,H2,*%
%TO.N,*%
X305373236Y-102168249D03*
%TD*%
D11*
%TO.P,D13,1*%
%TO.N,P19*%
X131716253Y-141496701D03*
D12*
X133781871Y-142128224D03*
%TO.P,D13,2*%
%TO.N,index_bottom*%
X136937677Y-143093050D03*
D13*
X139003295Y-143724573D03*
%TD*%
D10*
%TO.P,H12,*%
%TO.N,*%
X215459436Y-173437661D03*
%TD*%
D14*
%TO.P,D26,1*%
%TO.N,P0*%
X295615191Y-119219677D03*
D15*
X297727989Y-118770586D03*
%TO.P,D26,2*%
%TO.N,mirror_pinky_home*%
X300955877Y-118084478D03*
D13*
X303068675Y-117635387D03*
%TD*%
D11*
%TO.P,D8,1*%
%TO.N,P20*%
X101224106Y-111260481D03*
D12*
X103289724Y-111892004D03*
%TO.P,D8,2*%
%TO.N,ring_home*%
X106445530Y-112856830D03*
D13*
X108511148Y-113488353D03*
%TD*%
D10*
%TO.P,H3,*%
%TO.N,*%
X68744668Y-132686454D03*
%TD*%
D14*
%TO.P,D27,1*%
%TO.N,P1*%
X291664869Y-100634873D03*
D15*
X293777667Y-100185782D03*
%TO.P,D27,2*%
%TO.N,mirror_pinky_top*%
X297005555Y-99499674D03*
D13*
X299118353Y-99050583D03*
%TD*%
D20*
%TO.P,D41,1*%
%TO.N,P3*%
X224011118Y-173541722D03*
D21*
X226013835Y-172732572D03*
%TO.P,D41,2*%
%TO.N,mirror_home_thumb*%
X229073541Y-171496370D03*
D13*
X231076258Y-170687220D03*
%TD*%
D11*
%TO.P,D10,1*%
%TO.N,P19*%
X115300692Y-130203810D03*
D12*
X117366310Y-130835333D03*
%TO.P,D10,2*%
%TO.N,middle_bottom*%
X120522116Y-131800159D03*
D13*
X122587734Y-132431682D03*
%TD*%
D10*
%TO.P,H7,*%
%TO.N,*%
X260743880Y-97194737D03*
%TD*%
D11*
%TO.P,D19,1*%
%TO.N,P18*%
X129109294Y-163704892D03*
D12*
X131174912Y-164336415D03*
%TO.P,D19,2*%
%TO.N,near_thumb*%
X134330718Y-165301241D03*
D13*
X136396336Y-165932764D03*
%TD*%
D16*
%TO.P,D30,1*%
%TO.N,P1*%
X266538538Y-95318563D03*
D17*
X268604156Y-94687040D03*
%TO.P,D30,2*%
%TO.N,mirror_ring_top*%
X271759962Y-93722214D03*
D13*
X273825580Y-93090691D03*
%TD*%
D18*
%TO.P,D2,1*%
%TO.N,P20*%
X58951269Y-113685065D03*
D19*
X61064067Y-114134156D03*
%TO.P,D2,2*%
%TO.N,outer_home*%
X64291955Y-114820264D03*
D13*
X66404753Y-115269355D03*
%TD*%
D10*
%TO.P,H8,*%
%TO.N,*%
X270975067Y-127581170D03*
%TD*%
D16*
%TO.P,D33,1*%
%TO.N,P1*%
X246906890Y-96092101D03*
D17*
X248972508Y-95460578D03*
%TO.P,D33,2*%
%TO.N,mirror_middle_top*%
X252128314Y-94495752D03*
D13*
X254193932Y-93864229D03*
%TD*%
D16*
%TO.P,D40,1*%
%TO.N,P3*%
X244208413Y-165932764D03*
D17*
X246274031Y-165301241D03*
%TO.P,D40,2*%
%TO.N,mirror_near_thumb*%
X249429837Y-164336415D03*
D13*
X251495455Y-163704892D03*
%TD*%
D16*
%TO.P,D31,1*%
%TO.N,P2*%
X258017014Y-132431682D03*
D17*
X260082632Y-131800159D03*
%TO.P,D31,2*%
%TO.N,mirror_middle_bottom*%
X263238438Y-130835333D03*
D13*
X265304056Y-130203810D03*
%TD*%
D22*
%TO.P,D42,1*%
%TO.N,P3*%
X205110606Y-185040449D03*
D23*
X206835658Y-183740529D03*
%TO.P,D42,2*%
%TO.N,mirror_far_thumb*%
X209471156Y-181754539D03*
D13*
X211196208Y-180454619D03*
%TD*%
D24*
%TO.P,JST1,1*%
%TO.N,GND*%
X176500000Y-120500000D03*
D25*
%TO.P,JST1,2*%
%TO.N,BAT_P*%
X178500000Y-120500000D03*
%TD*%
D26*
%TO.P,D21,1*%
%TO.N,P18*%
X169408540Y-180454619D03*
D27*
X171133592Y-181754539D03*
%TO.P,D21,2*%
%TO.N,far_thumb*%
X173769090Y-183740529D03*
D13*
X175494142Y-185040449D03*
%TD*%
D10*
%TO.P,H11,*%
%TO.N,*%
X165145313Y-173437661D03*
%TD*%
D18*
%TO.P,D6,1*%
%TO.N,P21*%
X81486396Y-99050583D03*
D19*
X83599194Y-99499674D03*
%TO.P,D6,2*%
%TO.N,pinky_top*%
X86827082Y-100185782D03*
D13*
X88939880Y-100634873D03*
%TD*%
D11*
%TO.P,D18,1*%
%TO.N,P21*%
X160411424Y-112624792D03*
D12*
X162477042Y-113256315D03*
%TO.P,D18,2*%
%TO.N,inner_top*%
X165632848Y-114221141D03*
D13*
X167698466Y-114852664D03*
%TD*%
D18*
%TO.P,D4,1*%
%TO.N,P19*%
X73585752Y-136220192D03*
D19*
X75698550Y-136669283D03*
%TO.P,D4,2*%
%TO.N,pinky_bottom*%
X78926438Y-137355391D03*
D13*
X81039236Y-137804482D03*
%TD*%
D18*
%TO.P,D5,1*%
%TO.N,P20*%
X77536074Y-117635387D03*
D19*
X79648872Y-118084478D03*
%TO.P,D5,2*%
%TO.N,pinky_home*%
X82876760Y-118770586D03*
D13*
X84989558Y-119219677D03*
%TD*%
D11*
%TO.P,D15,1*%
%TO.N,P21*%
X142826377Y-105157120D03*
D12*
X144891995Y-105788643D03*
%TO.P,D15,2*%
%TO.N,index_top*%
X148047801Y-106753469D03*
D13*
X150113419Y-107384992D03*
%TD*%
D10*
%TO.P,H9,*%
%TO.N,*%
X153900578Y-113980440D03*
%TD*%
D11*
%TO.P,D11,1*%
%TO.N,P20*%
X120855755Y-112034020D03*
D12*
X122921373Y-112665543D03*
%TO.P,D11,2*%
%TO.N,middle_home*%
X126077179Y-113630369D03*
D13*
X128142797Y-114261892D03*
%TD*%
D16*
%TO.P,D28,1*%
%TO.N,P2*%
X277648663Y-131658143D03*
D17*
X279714281Y-131026620D03*
%TO.P,D28,2*%
%TO.N,mirror_ring_bottom*%
X282870087Y-130061794D03*
D13*
X284935705Y-129430271D03*
%TD*%
D16*
%TO.P,D29,1*%
%TO.N,P0*%
X272093601Y-113488353D03*
D17*
X274159219Y-112856830D03*
%TO.P,D29,2*%
%TO.N,mirror_ring_home*%
X277315025Y-111892004D03*
D13*
X279380643Y-111260481D03*
%TD*%
D28*
%TO.P,REF\u002A\u002A,1*%
%TO.N,RST*%
X175000000Y-116500000D03*
D29*
%TO.P,REF\u002A\u002A,2*%
%TO.N,GND*%
X175000000Y-110000000D03*
%TO.P,REF\u002A\u002A,3*%
%TO.N,RST*%
X179500000Y-116500000D03*
%TO.P,REF\u002A\u002A,4*%
%TO.N,GND*%
X179500000Y-110000000D03*
%TD*%
D30*
%TO.P,D20,1*%
%TO.N,P18*%
X149528490Y-170687220D03*
D31*
X151531207Y-171496370D03*
%TO.P,D20,2*%
%TO.N,home_thumb*%
X154590913Y-172732572D03*
D13*
X156593630Y-173541722D03*
%TD*%
D16*
%TO.P,D36,1*%
%TO.N,P1*%
X230491329Y-107384992D03*
D17*
X232556947Y-106753469D03*
%TO.P,D36,2*%
%TO.N,mirror_index_top*%
X235712753Y-105788643D03*
D13*
X237778371Y-105157120D03*
%TD*%
D11*
%TO.P,D9,1*%
%TO.N,P21*%
X106779168Y-93090691D03*
D12*
X108844786Y-93722214D03*
%TO.P,D9,2*%
%TO.N,ring_top*%
X112000592Y-94687040D03*
D13*
X114066210Y-95318563D03*
%TD*%
D18*
%TO.P,D3,1*%
%TO.N,P21*%
X62901592Y-95100261D03*
D19*
X65014390Y-95549352D03*
%TO.P,D3,2*%
%TO.N,outer_top*%
X68242278Y-96235460D03*
D13*
X70355076Y-96684551D03*
%TD*%
D16*
%TO.P,D32,1*%
%TO.N,P0*%
X252461952Y-114261892D03*
D17*
X254527570Y-113630369D03*
%TO.P,D32,2*%
%TO.N,mirror_middle_home*%
X257683376Y-112665543D03*
D13*
X259748994Y-112034020D03*
%TD*%
D16*
%TO.P,D39,1*%
%TO.N,P1*%
X212906282Y-114852664D03*
D17*
X214971900Y-114221141D03*
%TO.P,D39,2*%
%TO.N,mirror_inner_top*%
X218127706Y-113256315D03*
D13*
X220193324Y-112624792D03*
%TD*%
D16*
%TO.P,D34,1*%
%TO.N,P2*%
X241601454Y-143724573D03*
D17*
X243667072Y-143093050D03*
%TO.P,D34,2*%
%TO.N,mirror_index_bottom*%
X246822878Y-142128224D03*
D13*
X248888496Y-141496701D03*
%TD*%
D14*
%TO.P,D23,1*%
%TO.N,P0*%
X314199995Y-115269355D03*
D15*
X316312793Y-114820264D03*
%TO.P,D23,2*%
%TO.N,mirror_outer_home*%
X319540681Y-114134156D03*
D13*
X321653479Y-113685065D03*
%TD*%
D10*
%TO.P,H5,*%
%TO.N,*%
X119860869Y-97194737D03*
%TD*%
D32*
%TO.P,MCU1,1*%
%TO.N,P1*%
X198120000Y-105800000D03*
%TO.P,MCU1,2*%
%TO.N,P0*%
X198120000Y-108340000D03*
%TO.P,MCU1,3*%
%TO.N,GND*%
X198120000Y-110880000D03*
%TO.P,MCU1,4*%
X198120000Y-113420000D03*
%TO.P,MCU1,5*%
%TO.N,P2*%
X198120000Y-115960000D03*
%TO.P,MCU1,6*%
%TO.N,P3*%
X198120000Y-118500000D03*
%TO.P,MCU1,7*%
%TO.N,P4*%
X198120000Y-121040000D03*
%TO.P,MCU1,8*%
%TO.N,P5*%
X198120000Y-123580000D03*
%TO.P,MCU1,9*%
%TO.N,P6*%
X198120000Y-126120000D03*
%TO.P,MCU1,10*%
%TO.N,P7*%
X198120000Y-128660000D03*
%TO.P,MCU1,11*%
%TO.N,P8*%
X198120000Y-131200000D03*
%TO.P,MCU1,12*%
%TO.N,P9*%
X198120000Y-133740000D03*
%TO.P,MCU1,13*%
%TO.N,P10*%
X182880000Y-133740000D03*
%TO.P,MCU1,14*%
%TO.N,P16*%
X182880000Y-131200000D03*
%TO.P,MCU1,15*%
%TO.N,P14*%
X182880000Y-128660000D03*
%TO.P,MCU1,16*%
%TO.N,P15*%
X182880000Y-126120000D03*
%TO.P,MCU1,17*%
%TO.N,P18*%
X182880000Y-123580000D03*
%TO.P,MCU1,18*%
%TO.N,P19*%
X182880000Y-121040000D03*
%TO.P,MCU1,19*%
%TO.N,P20*%
X182880000Y-118500000D03*
%TO.P,MCU1,20*%
%TO.N,P21*%
X182880000Y-115960000D03*
%TO.P,MCU1,21*%
%TO.N,VCC*%
X182880000Y-113420000D03*
%TO.P,MCU1,22*%
%TO.N,RST*%
X182880000Y-110880000D03*
%TO.P,MCU1,23*%
%TO.N,GND*%
X182880000Y-108340000D03*
%TO.P,MCU1,24*%
%TO.N,RAW*%
X182880000Y-105800000D03*
%TD*%
D33*
%TO.N,P4*%
X204500000Y-134500000D03*
X172083333Y-116416667D03*
X72500000Y-89500000D03*
%TO.N,P5*%
X171750000Y-114250000D03*
X91000000Y-93500000D03*
X203500000Y-134500000D03*
%TO.N,P6*%
X172026882Y-112973118D03*
X202500000Y-134500000D03*
X117000000Y-88000000D03*
%TO.N,P7*%
X136500000Y-89000000D03*
X201500000Y-134500000D03*
X172067709Y-111932291D03*
%TO.N,P8*%
X153333333Y-101500000D03*
X200500000Y-134500000D03*
X172166667Y-110833333D03*
%TO.N,RAW*%
X156500000Y-92000000D03*
%TO.N,BAT_P*%
X156000000Y-93000000D03*
%TD*%
D34*
%TO.N,RST*%
X179500000Y-116500000D02*
X178853554Y-116500000D01*
X179984834Y-116500000D02*
X179661611Y-116500000D01*
X179500000Y-116500000D02*
X179661611Y-116500000D01*
%TO.N,P1*%
X246319964Y-96153378D02*
G75*
G03*
X247180151Y-95569067I-114164J1093378D01*
G01*
X247471220Y-95919567D02*
G75*
G02*
X246319964Y-96153374I-1785320J5839567D01*
G01*
X247471220Y-95919567D02*
G75*
G02*
X247180109Y-95569045I-72220J236167D01*
G01*
%TO.N,P0*%
X236587967Y-125389206D02*
G75*
G02*
X235480274Y-125539613I-1014767J3319306D01*
G01*
X236587967Y-125389206D02*
G75*
G02*
X236284842Y-125041109I-73867J241706D01*
G01*
X235480274Y-125539627D02*
G75*
G03*
X236284777Y-125041079I23026J861227D01*
G01*
%TO.N,P21*%
X160072559Y-112423167D02*
G75*
G03*
X160788502Y-112740089I1671941J2809867D01*
G01*
X160788506Y-112740077D02*
G75*
G02*
X160722679Y-112382713I59894J195777D01*
G01*
X160072559Y-112423167D02*
G75*
G03*
X160722620Y-112382638I295341J496467D01*
G01*
%TO.N,P20*%
X121131244Y-112479324D02*
G75*
G03*
X120508989Y-111641663I-5233544J-3237776D01*
G01*
X121131244Y-112479324D02*
G75*
G02*
X121356523Y-112187062I167656J103724D01*
G01*
X120508991Y-111641661D02*
G75*
G03*
X121356503Y-112187127I1389809J1228261D01*
G01*
X76952927Y-117374316D02*
G75*
G03*
X78161029Y-117768235I2459673J5494016D01*
G01*
X78161031Y-117768227D02*
G75*
G02*
X78027088Y-117226581I64469J303327D01*
G01*
X76952927Y-117374316D02*
G75*
G03*
X78027042Y-117226525I418573J935016D01*
G01*
%TO.N,P4*%
X203615254Y-130250000D02*
X203876589Y-130851960D01*
X202560169Y-126615195D02*
X202408158Y-125645088D01*
X132592382Y-89474609D02*
X132867655Y-90392183D01*
X72500000Y-89500000D02*
X73079847Y-91239541D01*
X135613361Y-93113556D02*
X147926300Y-96688280D01*
X119250000Y-90500000D02*
X119765974Y-90293610D01*
X76810617Y-94467704D02*
X81725539Y-95285578D01*
X103512342Y-89534569D02*
X104916808Y-88916604D01*
X91362206Y-95192913D02*
X90250000Y-94984374D01*
X152539189Y-105439768D02*
X159539029Y-107439722D01*
X149439768Y-100960810D02*
X149692852Y-100075016D01*
X126017767Y-87066351D02*
X121760151Y-88282813D01*
X204437500Y-133250000D02*
X204500000Y-134500000D01*
X200153327Y-122276686D02*
X198120000Y-121040000D01*
X172083333Y-116015625D02*
X172083333Y-116416667D01*
X170541666Y-114072916D02*
X171799753Y-115331003D01*
X86762544Y-95045367D02*
X86249999Y-95160155D01*
X166918999Y-111880937D02*
X163950267Y-110953208D01*
X93671942Y-94363187D02*
X100426664Y-92324025D01*
X116701146Y-90645767D02*
X109195733Y-88598836D01*
X86762544Y-95045367D02*
G75*
G02*
X90250003Y-94984356I1892056J-8448033D01*
G01*
X74500000Y-93374804D02*
G75*
G03*
X76810616Y-94467707I3078000J3518504D01*
G01*
X86249999Y-95160155D02*
G75*
G02*
X81725538Y-95285584I-2583799J11536855D01*
G01*
X200153327Y-122276686D02*
G75*
G02*
X202408185Y-125645084I-2502027J-4113814D01*
G01*
X101993055Y-90993055D02*
G75*
G02*
X100426649Y-92323976I-2309555J1130955D01*
G01*
X132592382Y-89474609D02*
G75*
G03*
X130000003Y-86999988I-3471382J-1041391D01*
G01*
X172083333Y-116015625D02*
G75*
G03*
X171799772Y-115330984I-968233J25D01*
G01*
X204437500Y-133250000D02*
G75*
G03*
X203876603Y-130851954I-6876600J-343800D01*
G01*
X92525362Y-94931612D02*
G75*
G02*
X93671940Y-94363180I2258738J-3115488D01*
G01*
X161750000Y-109178571D02*
G75*
G03*
X159539031Y-107439716I-3231900J-1834329D01*
G01*
X149500000Y-98000000D02*
G75*
G02*
X149692852Y-100075016I-2570800J-1285400D01*
G01*
X170541666Y-114072916D02*
G75*
G03*
X166918997Y-111880945I-6265666J-6265684D01*
G01*
X103512342Y-89534569D02*
G75*
G03*
X101993043Y-90993049I1235158J-2807231D01*
G01*
X135613361Y-93113556D02*
G75*
G02*
X132867641Y-90392187I1127439J3883356D01*
G01*
X116701146Y-90645767D02*
G75*
G03*
X119250000Y-90500000I1056954J3875567D01*
G01*
X120750000Y-89250000D02*
G75*
G02*
X121760158Y-88282839I1421900J-474000D01*
G01*
X150000000Y-103750000D02*
G75*
G02*
X149439817Y-100960824I2421600J1937200D01*
G01*
X150000000Y-103750000D02*
G75*
G03*
X152539186Y-105439779I3917400J3133900D01*
G01*
X104916808Y-88916604D02*
G75*
G02*
X109195735Y-88598828I2588092J-5881996D01*
G01*
X126017767Y-87066351D02*
G75*
G02*
X130000003Y-86999988I2115033J-7402549D01*
G01*
X202560169Y-126615195D02*
G75*
G03*
X203615264Y-130249996I14751931J2311595D01*
G01*
X120750000Y-89250000D02*
G75*
G02*
X119765984Y-90293636I-1617100J539000D01*
G01*
X92525362Y-94931612D02*
G75*
G02*
X91362201Y-95192940I-885262J1221012D01*
G01*
X163950267Y-110953208D02*
G75*
G02*
X161749999Y-109178571I1148533J3675308D01*
G01*
X74500000Y-93374804D02*
G75*
G02*
X73079819Y-91239550I3221400J3682504D01*
G01*
X149500000Y-98000000D02*
G75*
G03*
X147926298Y-96688288I-2286400J-1143200D01*
G01*
%TO.N,outer_bottom*%
X60341633Y-133405068D02*
X62454431Y-133854158D01*
%TO.N,outer_home*%
X64291955Y-114820264D02*
X66404753Y-115269354D01*
%TO.N,outer_top*%
X68242278Y-96235460D02*
X70355076Y-96684550D01*
%TO.N,P5*%
X133631023Y-89103411D02*
X133867655Y-89892183D01*
X161268579Y-107384289D02*
X160500000Y-107000000D01*
X125324788Y-86225070D02*
X120750000Y-87750000D01*
X92261369Y-92190654D02*
X91833332Y-92333333D01*
X201843629Y-127570607D02*
X201826041Y-127450000D01*
X104678136Y-87646301D02*
X94479805Y-92281906D01*
X93238630Y-92246210D02*
X93500000Y-92333333D01*
X164237053Y-110346375D02*
X167547704Y-111273357D01*
X130881353Y-86422187D02*
X129712082Y-86103295D01*
X152693099Y-104372843D02*
X158432858Y-106166518D01*
X105999999Y-86822916D02*
X105833269Y-86881967D01*
X200296680Y-125031120D02*
X198120000Y-123580000D01*
X162100704Y-107871666D02*
X162500000Y-108816666D01*
X203500000Y-134500000D02*
X203500000Y-132944512D01*
X136613361Y-92613556D02*
X148926300Y-96188280D01*
X150343401Y-100798095D02*
X150692852Y-99575016D01*
X170500000Y-113000000D02*
X171750000Y-114250000D01*
X107009215Y-86794354D02*
X117241053Y-89778640D01*
X91000000Y-93500000D02*
X91166666Y-93000000D01*
X119750000Y-88750000D02*
G75*
G02*
X118750000Y-89750000I-1500000J500000D01*
G01*
X107009215Y-86794354D02*
G75*
G03*
X106000005Y-86822932I-460315J-1578346D01*
G01*
X133631023Y-89103411D02*
G75*
G03*
X130881365Y-86422141I-3791123J-1137289D01*
G01*
X125324788Y-86225070D02*
G75*
G02*
X129712077Y-86103313I2394712J-7184230D01*
G01*
X105250000Y-87250000D02*
G75*
G02*
X104678138Y-87646304I-1378700J1378700D01*
G01*
X120750000Y-87750000D02*
G75*
G03*
X119750000Y-88750000I500000J-1500000D01*
G01*
X150500000Y-97500000D02*
G75*
G03*
X148926298Y-96188288I-2286400J-1143200D01*
G01*
X136613361Y-92613556D02*
G75*
G02*
X133867641Y-89892187I1127439J3883356D01*
G01*
X162100704Y-107871666D02*
G75*
G03*
X161750001Y-107566664I-486904J-205734D01*
G01*
X158432858Y-106166518D02*
G75*
G02*
X160499998Y-107000004I-4139758J-13247182D01*
G01*
X152693099Y-104372843D02*
G75*
G02*
X150750013Y-102999990I1155201J3696543D01*
G01*
X150500000Y-97500000D02*
G75*
G02*
X150692852Y-99575016I-2570800J-1285400D01*
G01*
X200296680Y-125031120D02*
G75*
G02*
X201825998Y-127450006I-1950980J-2926380D01*
G01*
X161268579Y-107384289D02*
G75*
G03*
X161749999Y-107566669I1135821J2271589D01*
G01*
X150343401Y-100798095D02*
G75*
G03*
X150750030Y-102999978I2420399J-691505D01*
G01*
X93238630Y-92246210D02*
G75*
G03*
X92750000Y-92138889I-750830J-2252490D01*
G01*
X170500000Y-113000000D02*
G75*
G03*
X167547705Y-111273354I-4771900J-4771900D01*
G01*
X117241053Y-89778640D02*
G75*
G03*
X118750003Y-89750009I708647J2429640D01*
G01*
X93500000Y-92333333D02*
G75*
G03*
X94479798Y-92281890I424400J1273233D01*
G01*
X164237053Y-110346375D02*
G75*
G02*
X162499954Y-108816685I718847J2567475D01*
G01*
X202776041Y-130250000D02*
G75*
G02*
X203499987Y-132944512I-4652441J-2694500D01*
G01*
X91833332Y-92333333D02*
G75*
G03*
X91166706Y-93000013I333368J-999967D01*
G01*
X92261369Y-92190654D02*
G75*
G02*
X92749999Y-92138899I362131J-1086446D01*
G01*
X201843629Y-127570607D02*
G75*
G03*
X202776051Y-130249994I7429471J1083507D01*
G01*
X105250000Y-87250000D02*
G75*
G02*
X105833271Y-86881974I1104900J-1104900D01*
G01*
%TO.N,pinky_bottom*%
X78926438Y-137355391D02*
X81039236Y-137804481D01*
%TO.N,pinky_home*%
X82876760Y-118770586D02*
X84989558Y-119219676D01*
%TO.N,pinky_top*%
X86827082Y-100185782D02*
X88939880Y-100634872D01*
%TO.N,P6*%
X119689144Y-86839163D02*
X118389992Y-86637886D01*
X202500000Y-134500000D02*
X202500000Y-133250000D01*
X171026882Y-111973118D02*
X172026882Y-112973118D01*
X201940482Y-130882216D02*
X201541562Y-130085267D01*
X158147616Y-104955181D02*
X152924283Y-103418906D01*
X199434020Y-127310000D02*
X198120000Y-126120000D01*
X149117068Y-95539022D02*
X137605562Y-91701854D01*
X131877120Y-85893462D02*
X129187901Y-85125114D01*
X122854185Y-86276777D02*
X124908529Y-85396344D01*
X163525223Y-108298222D02*
X163192475Y-107455953D01*
X134798145Y-88894437D02*
X134698176Y-88594530D01*
X151539022Y-99882931D02*
X151304663Y-100586008D01*
X168649266Y-110653468D02*
X167758721Y-110446834D01*
X161535487Y-106414088D02*
X160750000Y-106004595D01*
X117000000Y-88000000D02*
X117208535Y-87374393D01*
X201940482Y-130882216D02*
G75*
G02*
X202499999Y-133250000I-4730282J-2367784D01*
G01*
X151304663Y-100586008D02*
G75*
G03*
X151499976Y-102323543I1973637J-657892D01*
G01*
X168649266Y-110653468D02*
G75*
G02*
X171026884Y-111973116I-1117066J-4814332D01*
G01*
X137605562Y-91701854D02*
G75*
G02*
X134798146Y-88894437I1403738J4211154D01*
G01*
X152924283Y-103418906D02*
G75*
G02*
X151500002Y-102323527I701817J2386206D01*
G01*
X162500000Y-106812500D02*
G75*
G02*
X161535485Y-106414092I1754200J5613500D01*
G01*
X151250000Y-97250000D02*
G75*
G03*
X149117079Y-95538990I-3379100J-2027400D01*
G01*
X119689144Y-86839163D02*
G75*
G03*
X121299998Y-86782384I656956J4240563D01*
G01*
X199434020Y-127310000D02*
G75*
G02*
X201541565Y-130085265I-6345020J-7006300D01*
G01*
X117666666Y-86788732D02*
G75*
G03*
X117208526Y-87374390I593334J-936168D01*
G01*
X165250000Y-109827386D02*
G75*
G03*
X167758721Y-110446833I23252300J88780486D01*
G01*
X158147616Y-104955181D02*
G75*
G02*
X160750001Y-106004593I-4076916J-13861619D01*
G01*
X131877120Y-85893462D02*
G75*
G02*
X134698185Y-88594527I-1149920J-4024738D01*
G01*
X151250000Y-97250000D02*
G75*
G02*
X151539048Y-99882940I-2717800J-1630700D01*
G01*
X162500000Y-106812500D02*
G75*
G02*
X163192504Y-107455942I-326900J-1046200D01*
G01*
X117666666Y-86788732D02*
G75*
G02*
X118389988Y-86637910I562434J-887468D01*
G01*
X165250000Y-109827386D02*
G75*
G02*
X163525231Y-108298219I645800J2465686D01*
G01*
X121300000Y-86782394D02*
G75*
G03*
X122854183Y-86276771I-2013000J8828994D01*
G01*
X124908529Y-85396344D02*
G75*
G02*
X129187909Y-85125087I2521171J-5882656D01*
G01*
%TO.N,ring_bottom*%
X100890468Y-131026620D02*
X102956086Y-131658143D01*
%TO.N,ring_home*%
X106445530Y-112856830D02*
X108511148Y-113488353D01*
%TO.N,ring_top*%
X112000592Y-94687040D02*
X114066210Y-95318563D01*
%TO.N,P7*%
X137747630Y-90756998D02*
X150937276Y-95290938D01*
X152155043Y-100224782D02*
X152305778Y-99471109D01*
X153255609Y-102732495D02*
X156761413Y-103811204D01*
X200633563Y-131922375D02*
X200750000Y-131999999D01*
X161174640Y-105369856D02*
X162750000Y-106000000D01*
X151848387Y-96701613D02*
X151130002Y-95460627D01*
X201500000Y-134500000D02*
X201500000Y-133401387D01*
X199396670Y-129543848D02*
X198120000Y-128660000D01*
X171317709Y-111182291D02*
X172067709Y-111932291D01*
X136500000Y-89000000D02*
X136750000Y-89750000D01*
X169540493Y-110168040D02*
X166303839Y-109335412D01*
X164500000Y-107750000D02*
G75*
G03*
X162750000Y-106000000I-2916700J-1166700D01*
G01*
X151048387Y-95357863D02*
G75*
G02*
X151129994Y-95460632I-307587J-328037D01*
G01*
X169540493Y-110168040D02*
G75*
G02*
X171317712Y-111182288I-966793J-3758260D01*
G01*
X151848387Y-96701613D02*
G75*
G02*
X152305795Y-99471112I-3438287J-1990387D01*
G01*
X199396670Y-129543848D02*
G75*
G02*
X200011353Y-130738636I-812370J-1173452D01*
G01*
X164500000Y-107750000D02*
G75*
G03*
X166303827Y-109335458I2465400J986100D01*
G01*
X161174640Y-105369856D02*
G75*
G03*
X156761413Y-103811205I-21202240J-53005644D01*
G01*
X136750000Y-89750000D02*
G75*
G03*
X137747628Y-90757002I1517700J505900D01*
G01*
X153255609Y-102732495D02*
G75*
G02*
X152250003Y-101749999I451791J1468295D01*
G01*
X200633563Y-131922375D02*
G75*
G02*
X200011361Y-130738636I775237J1162875D01*
G01*
X151048387Y-95357863D02*
G75*
G03*
X150937282Y-95290921I-211787J-225837D01*
G01*
X200750000Y-131999999D02*
G75*
G02*
X201499993Y-133401387I-934300J-1401401D01*
G01*
X152155043Y-100224782D02*
G75*
G03*
X152250003Y-101749999I2919157J-583818D01*
G01*
%TO.N,middle_bottom*%
X120522116Y-131800159D02*
X122587734Y-132431682D01*
%TO.N,middle_home*%
X126077179Y-113630369D02*
X128142797Y-114261892D01*
%TO.N,middle_top*%
X131632241Y-95460578D02*
X133697859Y-96092101D01*
%TO.N,P8*%
X200250000Y-134250000D02*
X200500000Y-134500000D01*
X200000000Y-133250000D02*
X200000000Y-133646446D01*
X157501581Y-103000569D02*
X153333333Y-101500000D01*
X199383119Y-132073433D02*
X198120000Y-131200000D01*
X163757269Y-105482195D02*
X161868456Y-104695190D01*
X172166667Y-110833333D02*
X171666667Y-110333333D01*
X167303583Y-108836408D02*
X170481991Y-109656642D01*
X165500000Y-107250000D02*
G75*
G03*
X167303587Y-108836392I2467700J987100D01*
G01*
X200250000Y-134250000D02*
G75*
G02*
X200000022Y-133646446I603500J603500D01*
G01*
X163757269Y-105482195D02*
G75*
G02*
X165500004Y-107249998I-1232469J-2957905D01*
G01*
X171666667Y-110333333D02*
G75*
G03*
X170481989Y-109656650I-1832067J-1832067D01*
G01*
X157501581Y-103000569D02*
G75*
G02*
X161868455Y-104695191I-32227981J-89522131D01*
G01*
X199383119Y-132073433D02*
G75*
G02*
X199999984Y-133250000I-813619J-1176567D01*
G01*
%TO.N,index_bottom*%
X136937677Y-143093050D02*
X139003295Y-143724573D01*
%TO.N,index_home*%
X142492739Y-124923260D02*
X144558357Y-125554783D01*
%TO.N,index_top*%
X148047801Y-106753469D02*
X150113419Y-107384992D01*
%TO.N,inner_bottom*%
X154522724Y-150560722D02*
X156588342Y-151192245D01*
%TO.N,inner_home*%
X160077786Y-132390931D02*
X162143404Y-133022454D01*
%TO.N,inner_top*%
X165632848Y-114221141D02*
X167698466Y-114852664D01*
%TO.N,near_thumb*%
X134330718Y-165301241D02*
X136396336Y-165932764D01*
%TO.N,home_thumb*%
X154590913Y-172732572D02*
X156593630Y-173541722D01*
%TO.N,far_thumb*%
X173769090Y-183740529D02*
X175494142Y-185040449D01*
%TO.N,mirror_outer_bottom*%
X323491003Y-132718960D02*
X325603801Y-132269870D01*
%TO.N,mirror_outer_home*%
X319540681Y-114134156D02*
X321653479Y-113685066D01*
%TO.N,mirror_outer_top*%
X315590359Y-95549352D02*
X317703157Y-95100262D01*
%TO.N,mirror_pinky_bottom*%
X304906199Y-136669283D02*
X307018997Y-136220193D01*
%TO.N,mirror_pinky_home*%
X300955877Y-118084478D02*
X303068675Y-117635388D01*
%TO.N,mirror_pinky_top*%
X297005555Y-99499674D02*
X299118353Y-99050584D01*
%TO.N,mirror_ring_bottom*%
X282870087Y-130061794D02*
X284935705Y-129430271D01*
%TO.N,mirror_ring_home*%
X277315025Y-111892004D02*
X279380643Y-111260481D01*
%TO.N,mirror_ring_top*%
X271759962Y-93722214D02*
X273825580Y-93090691D01*
%TO.N,mirror_middle_bottom*%
X263238438Y-130835333D02*
X265304056Y-130203810D01*
%TO.N,mirror_middle_home*%
X257683376Y-112665543D02*
X259748994Y-112034020D01*
%TO.N,mirror_middle_top*%
X252128314Y-94495752D02*
X254193932Y-93864229D01*
%TO.N,mirror_index_bottom*%
X246822878Y-142128224D02*
X248888496Y-141496701D01*
%TO.N,mirror_index_home*%
X243333434Y-123326911D02*
X241267816Y-123958434D01*
%TO.N,mirror_index_top*%
X237778371Y-105157120D02*
X235712753Y-105788643D01*
%TO.N,mirror_inner_bottom*%
X231303449Y-148964373D02*
X229237831Y-149595896D01*
%TO.N,mirror_inner_home*%
X223682769Y-131426105D02*
X225748387Y-130794582D01*
%TO.N,mirror_inner_top*%
X218127706Y-113256315D02*
X220193324Y-112624792D01*
%TO.N,mirror_near_thumb*%
X249429837Y-164336415D02*
X251495455Y-163704892D01*
%TO.N,mirror_home_thumb*%
X229073541Y-171496370D02*
X231076258Y-170687220D01*
%TO.N,mirror_far_thumb*%
X209471156Y-181754539D02*
X211196208Y-180454619D01*
%TO.N,P19*%
X181628803Y-123121823D02*
X182880000Y-121040000D01*
X115300692Y-130203810D02*
X117366310Y-130835333D01*
X115300692Y-130203810D02*
X116650346Y-131851905D01*
X71508103Y-138303701D02*
X70571428Y-138126857D01*
X55000947Y-132269870D02*
X56250473Y-131634935D01*
X96834522Y-128965135D02*
X95669044Y-129430271D01*
X108661246Y-131926829D02*
X99194668Y-128884000D01*
X131716253Y-141496701D02*
X133781871Y-142128224D01*
X131716253Y-141496701D02*
X133358126Y-140748350D01*
X58859743Y-131339935D02*
X63292320Y-132448080D01*
X115300692Y-130203810D02*
X113885014Y-131403105D01*
X143266775Y-144400163D02*
X143725065Y-145087597D01*
X73585752Y-136220193D02*
X73032680Y-137364108D01*
X90086544Y-128297272D02*
X88041356Y-129149434D01*
X85520264Y-132158808D02*
X85259896Y-133330465D01*
X165755596Y-120207400D02*
X164889123Y-120351812D01*
X147090711Y-147954813D02*
X149301300Y-148964373D01*
X93834522Y-128465135D02*
X95669044Y-129430271D01*
X151150650Y-148232186D02*
X149301300Y-148964373D01*
X159370088Y-129324777D02*
X162165232Y-122336917D01*
X66865374Y-134820498D02*
X68270571Y-136694095D01*
X55000947Y-132269870D02*
X57113745Y-132718960D01*
X139849332Y-141731904D02*
X136699257Y-140606877D01*
X149301300Y-148964373D02*
X151366918Y-149595896D01*
X178308711Y-125000000D02*
X174176947Y-125000000D01*
X170970700Y-123081759D02*
X170096491Y-121452552D01*
X84000000Y-135159816D02*
X83626100Y-135406520D01*
X74792876Y-135360096D02*
X73585752Y-136220193D01*
X120033240Y-134135387D02*
X123827650Y-135321140D01*
X157738407Y-133715541D02*
X153646589Y-145619012D01*
X95669044Y-129430271D02*
X97734662Y-130061794D01*
X73585752Y-136220193D02*
X75698550Y-136669283D01*
X80769831Y-135622313D02*
X77442798Y-134839481D01*
X131716253Y-141496701D02*
X130358126Y-141001948D01*
X128199102Y-139303929D02*
X127261073Y-137894635D01*
X84000000Y-135159816D02*
G75*
G03*
X85259876Y-133330461I-1630900J2471716D01*
G01*
X163250000Y-121000000D02*
G75*
G03*
X162165202Y-122336905I1609800J-2414800D01*
G01*
X181628803Y-123121823D02*
G75*
G02*
X178308711Y-125000003I-3320103J1995423D01*
G01*
X71508103Y-138303701D02*
G75*
G03*
X72407381Y-138105662I217597J1152701D01*
G01*
X147090711Y-147954813D02*
G75*
G02*
X143725072Y-145087592I3355889J7348213D01*
G01*
X74792876Y-135360096D02*
G75*
G02*
X77442803Y-134839458I1900024J-2666604D01*
G01*
X96834522Y-128965135D02*
G75*
G02*
X99194678Y-128883968I1292878J-3239365D01*
G01*
X123827650Y-135321140D02*
G75*
G02*
X127261074Y-137894634I-1917150J-6134860D01*
G01*
X70571428Y-138126857D02*
G75*
G02*
X68270556Y-136694106I694672J3679457D01*
G01*
X130358126Y-141001948D02*
G75*
G02*
X128199120Y-139303917I1507674J4138548D01*
G01*
X80769831Y-135622313D02*
G75*
G03*
X82250000Y-135806866I1598869J6795413D01*
G01*
X170970700Y-123081759D02*
G75*
G03*
X174176947Y-124999940I3206200J1720459D01*
G01*
X165755596Y-120207400D02*
G75*
G02*
X168249998Y-120170468I1369104J-8214900D01*
G01*
X170096491Y-121452552D02*
G75*
G03*
X168249998Y-120170466I-2180891J-1170248D01*
G01*
X82250000Y-135806875D02*
G75*
G03*
X83626095Y-135406512I41200J2423475D01*
G01*
X72407392Y-138105677D02*
G75*
G03*
X73032675Y-137364105I-1138392J1594277D01*
G01*
X157738407Y-133715541D02*
G75*
G02*
X159370089Y-129324777I89659893J-30820559D01*
G01*
X143266775Y-144400163D02*
G75*
G03*
X139849332Y-141731904I-5736175J-3824137D01*
G01*
X151150650Y-148232186D02*
G75*
G03*
X153646608Y-145619019I-1590750J4017986D01*
G01*
X164889123Y-120351812D02*
G75*
G03*
X163249992Y-120999988I690377J-4142488D01*
G01*
X66865374Y-134820498D02*
G75*
G03*
X63292318Y-132448088I-5127574J-3845702D01*
G01*
X58859743Y-131339935D02*
G75*
G03*
X56250475Y-131634939I-909843J-3639365D01*
G01*
X133358126Y-140748350D02*
G75*
G02*
X136699261Y-140606866I1844974J-4047850D01*
G01*
X90086544Y-128297272D02*
G75*
G02*
X93834506Y-128465166I1695456J-4069228D01*
G01*
X120033240Y-134135387D02*
G75*
G02*
X116650350Y-131851902I2122460J6791887D01*
G01*
X111406030Y-132334602D02*
G75*
G02*
X108661246Y-131926829I-136630J8522002D01*
G01*
X111406030Y-132334602D02*
G75*
G03*
X113885024Y-131403117I-63030J3932202D01*
G01*
X85520264Y-132158808D02*
G75*
G02*
X88041349Y-129149417I4160236J-924492D01*
G01*
%TO.N,P20*%
X78161031Y-117768227D02*
X79648872Y-118084478D01*
X134173813Y-121319216D02*
X132936374Y-119783085D01*
X156678181Y-130397291D02*
X154856362Y-130794582D01*
X78518037Y-116817694D02*
X78027055Y-117226541D01*
X138385657Y-122930355D02*
X137271315Y-123326911D01*
X140623182Y-122904577D02*
X148145853Y-125387919D01*
X177305873Y-124000000D02*
X174676550Y-124000000D01*
X108809989Y-111826150D02*
X106107145Y-110994506D01*
X161325623Y-121523131D02*
X159089649Y-128231051D01*
X151551912Y-127862295D02*
X151249999Y-127500000D01*
X121131244Y-112479324D02*
X121927877Y-113767010D01*
X166244588Y-119114127D02*
X164574045Y-119265995D01*
X76952927Y-117374316D02*
X76268037Y-117067694D01*
X101224106Y-111260481D02*
X98058102Y-109890545D01*
X135311321Y-122181875D02*
X137271315Y-123326911D01*
X121356507Y-112187115D02*
X122921373Y-112665543D01*
X74000000Y-115500000D02*
X74017606Y-115517606D01*
X154856362Y-130794582D02*
X156921980Y-131426105D01*
X93958492Y-109927957D02*
X92515829Y-110583713D01*
X180648798Y-122130654D02*
X182880000Y-118500000D01*
X113190010Y-111826150D02*
X116544220Y-110794085D01*
X120508991Y-111641661D02*
X120162227Y-111249302D01*
X58951269Y-113685066D02*
X61064067Y-114134156D01*
X90065738Y-113671305D02*
X89676776Y-115616116D01*
X86750000Y-117392856D02*
X87101905Y-117423020D01*
X154856362Y-130794582D02*
X153678181Y-129897291D01*
X137271315Y-123326911D02*
X139336933Y-123958434D01*
X60225634Y-112842533D02*
X58951269Y-113685066D01*
X62992832Y-112324528D02*
X71618063Y-114199579D01*
X84273265Y-117022842D02*
X80749474Y-116267744D01*
X124955012Y-116075003D02*
X129303374Y-117353933D01*
X171473425Y-122080751D02*
X170594559Y-120437654D01*
X101224106Y-111260481D02*
X102862053Y-110880240D01*
X101224106Y-111260481D02*
X103289724Y-111892004D01*
X106107145Y-110994506D02*
G75*
G03*
X102862059Y-110880265I-1834445J-5962094D01*
G01*
X88750000Y-117000000D02*
G75*
G03*
X89676804Y-115616122I-1207100J1810700D01*
G01*
X93958492Y-109927957D02*
G75*
G02*
X98058112Y-109890521I2092008J-4602343D01*
G01*
X118500000Y-110500000D02*
G75*
G02*
X120162236Y-111249294I0J-2218400D01*
G01*
X168750000Y-119163043D02*
G75*
G02*
X170594549Y-120437659I-317100J-2430857D01*
G01*
X92515829Y-110583713D02*
G75*
G03*
X90065708Y-113671299I1788771J-3935387D01*
G01*
X88750000Y-117000000D02*
G75*
G02*
X87101905Y-117423017I-1428200J2142300D01*
G01*
X108809989Y-111826150D02*
G75*
G03*
X113190010Y-111826150I2190011J7117550D01*
G01*
X134700000Y-121800000D02*
G75*
G03*
X135311321Y-122181876I6746000J10119000D01*
G01*
X86750000Y-117392856D02*
G75*
G02*
X84273265Y-117022841I1704000J19880056D01*
G01*
X164574045Y-119265995D02*
G75*
G03*
X162583329Y-119931811I413055J-4543905D01*
G01*
X138385657Y-122930355D02*
G75*
G02*
X140623181Y-122904579I1156343J-3249345D01*
G01*
X129303374Y-117353933D02*
G75*
G02*
X132936392Y-119783071I-2064274J-7018667D01*
G01*
X180648798Y-122130654D02*
G75*
G02*
X177305873Y-123999989I-3342898J2054354D01*
G01*
X62992832Y-112324528D02*
G75*
G03*
X60225618Y-112842508I-769532J-3539572D01*
G01*
X148145853Y-125387919D02*
G75*
G02*
X151249994Y-127500004I-2139853J-6482081D01*
G01*
X156678181Y-130397291D02*
G75*
G03*
X159089643Y-128231049I-698481J3202891D01*
G01*
X161325623Y-121523131D02*
G75*
G02*
X162583314Y-119931787I2828477J-942769D01*
G01*
X78518037Y-116817694D02*
G75*
G02*
X80749466Y-116267782I1680963J-2018706D01*
G01*
X151551912Y-127862295D02*
G75*
G03*
X153678183Y-129897288I10062088J8385095D01*
G01*
X168750000Y-119163043D02*
G75*
G03*
X166244588Y-119114124I-1473800J-11299057D01*
G01*
X124955012Y-116075003D02*
G75*
G02*
X121927841Y-113767032I1503088J5110703D01*
G01*
X74017606Y-115517606D02*
G75*
G03*
X76268039Y-117067690I5331094J5331106D01*
G01*
X134700000Y-121800000D02*
G75*
G02*
X134173821Y-121319209I1302700J1954000D01*
G01*
X74000000Y-115500000D02*
G75*
G03*
X71618062Y-114199582I-3404800J-3404800D01*
G01*
X118500000Y-110500000D02*
G75*
G03*
X116544220Y-110794085I0J-6650400D01*
G01*
X171473425Y-122080751D02*
G75*
G03*
X174676550Y-124000016I3203175J1713351D01*
G01*
%TO.N,P21*%
X137699702Y-101419525D02*
X137895005Y-101732009D01*
X126410817Y-93864229D02*
X128476435Y-94495752D01*
X172023043Y-121063192D02*
X171042961Y-119120187D01*
X106779168Y-93090691D02*
X108844786Y-93722214D01*
X119019745Y-93490126D02*
X121078045Y-92460977D01*
X102333333Y-92333333D02*
X102437401Y-92125196D01*
X107889584Y-92545345D02*
X106779168Y-93090691D01*
X169503911Y-114868429D02*
X169745713Y-115750000D01*
X64200796Y-94300131D02*
X62901592Y-95100262D01*
X81486396Y-99050584D02*
X83599194Y-99499674D01*
X62901592Y-95100262D02*
X65014390Y-95549352D01*
X157677999Y-110998407D02*
X160072559Y-112423167D01*
X142826377Y-105157120D02*
X140913188Y-104328560D01*
X129099220Y-97444227D02*
X134318985Y-98894162D01*
X93258119Y-97553562D02*
X93409091Y-97000000D01*
X161033876Y-112140560D02*
X160722650Y-112382676D01*
X66993752Y-93811198D02*
X76461634Y-95783673D01*
X104092408Y-91604336D02*
X106779168Y-93090691D01*
X142826377Y-105157120D02*
X144891995Y-105788643D01*
X126410817Y-93864229D02*
X124897101Y-93007650D01*
X162431585Y-111511749D02*
X162578163Y-111484413D01*
X180052397Y-121090495D02*
X182880000Y-115960000D01*
X144413188Y-104828560D02*
X142826377Y-105157120D01*
X81486396Y-99050584D02*
X79899992Y-98061259D01*
X126410817Y-93864229D02*
X126955408Y-95432114D01*
X114844646Y-93826452D02*
X110180790Y-92368997D01*
X151647636Y-106382545D02*
X147537312Y-105012437D01*
X101287177Y-93217806D02*
X95305102Y-95045663D01*
X167140486Y-112450152D02*
X164395043Y-111592201D01*
X176819690Y-123000000D02*
X175169255Y-123000000D01*
X160788506Y-112740077D02*
X162477042Y-113256315D01*
X90545073Y-99540017D02*
X85325951Y-98311988D01*
X82743198Y-98525292D02*
X81486396Y-99050584D01*
X78250000Y-96750000D02*
G75*
G03*
X79899992Y-98061259I6556600J6556600D01*
G01*
X82743198Y-98525292D02*
G75*
G02*
X85325957Y-98311964I1620402J-3876808D01*
G01*
X162578163Y-111484413D02*
G75*
G02*
X164395045Y-111592194I691637J-3708587D01*
G01*
X151647636Y-106382545D02*
G75*
G02*
X154749999Y-108500001I-2170536J-6511555D01*
G01*
X92250000Y-99132353D02*
G75*
G02*
X90545061Y-99540067I-1258000J1491953D01*
G01*
X102333333Y-92333333D02*
G75*
G02*
X101287178Y-93217810I-1553833J776933D01*
G01*
X78250000Y-96750000D02*
G75*
G03*
X76461635Y-95783670I-2513300J-2513300D01*
G01*
X123000000Y-92250000D02*
G75*
G03*
X121078048Y-92460983I-675800J-2703300D01*
G01*
X176819690Y-123000000D02*
G75*
G03*
X180052420Y-121090507I10J3691200D01*
G01*
X103155246Y-91511420D02*
G75*
G03*
X102437422Y-92125206I367454J-1156380D01*
G01*
X137895005Y-101732009D02*
G75*
G03*
X140913183Y-104328570I5680195J3550109D01*
G01*
X92250000Y-99132353D02*
G75*
G03*
X93258097Y-97553556I-2029700J2407253D01*
G01*
X110180790Y-92368997D02*
G75*
G03*
X107889571Y-92545319I-924690J-2958903D01*
G01*
X129099220Y-97444227D02*
G75*
G02*
X126955439Y-95432103I847580J3051127D01*
G01*
X157677999Y-110998407D02*
G75*
G02*
X154749991Y-108500007I5828101J9795207D01*
G01*
X162431585Y-111511749D02*
G75*
G03*
X161033867Y-112140548I594915J-3190251D01*
G01*
X172023043Y-121063192D02*
G75*
G03*
X175169255Y-123000044I3146257J1586992D01*
G01*
X169745713Y-115750000D02*
G75*
G03*
X171042966Y-119120184I17488187J4796800D01*
G01*
X114844646Y-93826452D02*
G75*
G03*
X119019735Y-93490106I1670454J5345552D01*
G01*
X168632857Y-113359375D02*
G75*
G02*
X169503900Y-114868432I-2449557J-2419825D01*
G01*
X168632857Y-113359375D02*
G75*
G03*
X167140485Y-112450156I-2569857J-2538725D01*
G01*
X123000000Y-92250000D02*
G75*
G02*
X124897093Y-93007664I-1840800J-7363000D01*
G01*
X64200796Y-94300131D02*
G75*
G02*
X66993759Y-93811163I2010904J-3265069D01*
G01*
X137699702Y-101419525D02*
G75*
G03*
X134318984Y-98894166I-4939802J-3087375D01*
G01*
X144413188Y-104828560D02*
G75*
G02*
X147537309Y-105012447I1220512J-5894640D01*
G01*
X95305102Y-95045663D02*
G75*
G03*
X93409062Y-96999992I823798J-2696137D01*
G01*
X103155246Y-91511420D02*
G75*
G02*
X104092406Y-91604339I360654J-1134980D01*
G01*
%TO.N,P18*%
X131404511Y-160765914D02*
X131500000Y-160750000D01*
X154621084Y-170709224D02*
X160825568Y-173423686D01*
X170221162Y-181066973D02*
X171133592Y-181754539D01*
X132756232Y-163143952D02*
X143917927Y-167236573D01*
X147764245Y-169343610D02*
X149528490Y-170687220D01*
X161304538Y-173961210D02*
X165686374Y-177114494D01*
X149528490Y-170687220D02*
X151531207Y-171496370D01*
X173675853Y-126000000D02*
X178802884Y-126000000D01*
X168765631Y-179665947D02*
X168756081Y-179654232D01*
X129346648Y-162984095D02*
X129554646Y-162352445D01*
X169359184Y-121975267D02*
X170478190Y-124078999D01*
X150500000Y-151749999D02*
X150625525Y-151781381D01*
X142378173Y-154336929D02*
X140577463Y-153774207D01*
X133973487Y-157092794D02*
X133417765Y-159037819D01*
X165279812Y-121370031D02*
X166745553Y-121125741D01*
X162722412Y-122740233D02*
X160822662Y-127806233D01*
X146321167Y-153725182D02*
X148655554Y-152091111D01*
X129835005Y-163926764D02*
X131174912Y-164336415D01*
X181690000Y-124790000D02*
X182880000Y-123580000D01*
X131194613Y-162877947D02*
X131148024Y-162878600D01*
X151264245Y-170343610D02*
X149528490Y-170687220D01*
X153285043Y-150144868D02*
X159259096Y-132222711D01*
X131500000Y-160750000D02*
G75*
G03*
X133417768Y-159037820I-395500J2373100D01*
G01*
X131148024Y-162878600D02*
G75*
G03*
X129749248Y-163297040I37376J-2672100D01*
G01*
X163750000Y-121750000D02*
G75*
G03*
X162722389Y-122740225I524000J-1572100D01*
G01*
X129346648Y-162984095D02*
G75*
G03*
X129835009Y-163926750I705552J-232305D01*
G01*
X169359184Y-121975267D02*
G75*
G03*
X168249998Y-121150012I-1425884J-758433D01*
G01*
X132756232Y-163143952D02*
G75*
G03*
X131194613Y-162877960I-1500532J-4092448D01*
G01*
X178802884Y-126000000D02*
G75*
G03*
X181690009Y-124790009I16J4049400D01*
G01*
X163750000Y-121750000D02*
G75*
G02*
X165279813Y-121370034I3186200J-9558600D01*
G01*
X150500000Y-151749999D02*
G75*
G03*
X148655559Y-152091118I-548200J-2192901D01*
G01*
X167311362Y-178288638D02*
G75*
G03*
X165686374Y-177114494I-305545696J-421156595D01*
G01*
X153285043Y-150144868D02*
G75*
G02*
X152250007Y-151500011I-2492343J830768D01*
G01*
X152250000Y-151500000D02*
G75*
G02*
X150625520Y-151781402I-1130300J1695400D01*
G01*
X173675853Y-126000000D02*
G75*
G02*
X170478220Y-124078983I47J3621900D01*
G01*
X131404511Y-160765914D02*
G75*
G03*
X129554638Y-162352443I387189J-2323186D01*
G01*
X146321167Y-153725182D02*
G75*
G02*
X142378169Y-154336943I-2593867J3705482D01*
G01*
X154621084Y-170709224D02*
G75*
G03*
X151264245Y-170343609I-2261284J-5168676D01*
G01*
X161075000Y-173675000D02*
G75*
G03*
X160825557Y-173423711I-442300J-189600D01*
G01*
X129346648Y-162984095D02*
G75*
G03*
X129749301Y-163297123I257152J-84705D01*
G01*
X129835005Y-163926764D02*
G75*
G02*
X129749217Y-163296991I102295J334664D01*
G01*
X168756081Y-179654232D02*
G75*
G03*
X167311358Y-178288643I-5960481J-4858868D01*
G01*
X161075000Y-173675000D02*
G75*
G03*
X161304546Y-173961198I629700J269900D01*
G01*
X159259096Y-132222711D02*
G75*
G02*
X160822662Y-127806233I120066404J-40022089D01*
G01*
X136535714Y-154062500D02*
G75*
G02*
X140577471Y-153774182I2388086J-5003500D01*
G01*
X168250000Y-121150000D02*
G75*
G03*
X166745553Y-121125742I-818400J-4092000D01*
G01*
X147764245Y-169343610D02*
G75*
G03*
X143917929Y-167236567I-8907445J-11695990D01*
G01*
X133973487Y-157092794D02*
G75*
G02*
X136535712Y-154062497I4641413J-1326106D01*
G01*
X170221162Y-181066973D02*
G75*
G02*
X168765634Y-179665945I5055138J6708373D01*
G01*
%TO.N,P2*%
X318150317Y-133854158D02*
X320263115Y-133405068D01*
X252153312Y-134332050D02*
X250854828Y-137448410D01*
X225049216Y-150876483D02*
X226082025Y-150560722D01*
X278324331Y-130329071D02*
X277648663Y-131658143D01*
X280425027Y-128561530D02*
X285248130Y-127077498D01*
X302341456Y-135293621D02*
X305302178Y-134838126D01*
X294797314Y-135621695D02*
X293910527Y-131778954D01*
X318150317Y-133854158D02*
X317472897Y-131878900D01*
X207499999Y-115513722D02*
X208098649Y-115508246D01*
X242050727Y-142612286D02*
X241601454Y-143724573D01*
X213978896Y-121376828D02*
X217136843Y-130455925D01*
X219427444Y-138209312D02*
X223656490Y-150173981D01*
X211883883Y-119030330D02*
X212249999Y-119250000D01*
X313076974Y-129316227D02*
X312186773Y-129514050D01*
X308579914Y-132556154D02*
X308912102Y-131958214D01*
X224508203Y-150096122D02*
X224458509Y-150206879D01*
X236561470Y-144657793D02*
X236500000Y-144750000D01*
X297396974Y-137589091D02*
X299565513Y-137804481D01*
X258541722Y-132271262D02*
X260082632Y-131800159D01*
X277648663Y-131658143D02*
X279714281Y-131026620D01*
X259315647Y-133295239D02*
X259885487Y-133364512D01*
X216415792Y-134117778D02*
X216498500Y-133632785D01*
X275784065Y-131898802D02*
X277648663Y-131658143D01*
X210718618Y-117374474D02*
X210750000Y-117500000D01*
X290828506Y-128855073D02*
X292065211Y-129385090D01*
X217231224Y-131568181D02*
X217226886Y-131594169D01*
X272737287Y-131708012D02*
X269298853Y-132645767D01*
X241601454Y-143724573D02*
X243667072Y-143093050D01*
X235141044Y-145773304D02*
X226144839Y-148635732D01*
X217268010Y-136010291D02*
X217886363Y-136363636D01*
X204502192Y-115609664D02*
X198120000Y-115960000D01*
X300282756Y-136652240D02*
X299565513Y-137804481D01*
X299565513Y-137804481D02*
X301678311Y-137355391D01*
X239288505Y-143557094D02*
X241601454Y-143724573D01*
X257468410Y-132441012D02*
X254901257Y-132484672D01*
X247852489Y-140072669D02*
X243659090Y-141190909D01*
X286254625Y-126901233D02*
X287629047Y-127267745D01*
X264222796Y-132425734D02*
X262065103Y-133144965D01*
X313076974Y-129316227D02*
G75*
G02*
X315750015Y-129749975I792826J-3567473D01*
G01*
X242050727Y-142612286D02*
G75*
G02*
X243659090Y-141190909I2227273J-899614D01*
G01*
X293910527Y-131778954D02*
G75*
G03*
X293265375Y-130350006I-3897027J-899346D01*
G01*
X236561470Y-144657793D02*
G75*
G02*
X237750005Y-143750015I1917130J-1278107D01*
G01*
X252153312Y-134332050D02*
G75*
G02*
X253250002Y-133000003I2748088J-1145050D01*
G01*
X250854828Y-137448410D02*
G75*
G02*
X247852487Y-140072663I-4164928J1735410D01*
G01*
X213978896Y-121376828D02*
G75*
G03*
X212249995Y-119250006I-3797496J-1320872D01*
G01*
X308579914Y-132556154D02*
G75*
G02*
X305302171Y-134838082I-3967914J2204454D01*
G01*
X317472897Y-131878900D02*
G75*
G03*
X315749994Y-129750010I-3777497J-1295500D01*
G01*
X219427444Y-138209312D02*
G75*
G03*
X217886372Y-136363620I-3252744J-1149688D01*
G01*
X262065103Y-133144965D02*
G75*
G02*
X259885486Y-133364520I-1577603J4732765D01*
G01*
X274250000Y-131750000D02*
G75*
G03*
X272737286Y-131708009I-825700J-2477100D01*
G01*
X225049216Y-150876483D02*
G75*
G02*
X223656521Y-150173970I-329616J1078283D01*
G01*
X258541722Y-132271262D02*
G75*
G02*
X257468410Y-132441019I-1139622J3727462D01*
G01*
X253250000Y-133000000D02*
G75*
G02*
X254901257Y-132484658I1703500J-2555200D01*
G01*
X216863636Y-132613636D02*
G75*
G03*
X216498485Y-133632783I2697464J-1541464D01*
G01*
X287629047Y-127267745D02*
G75*
G02*
X289250002Y-127999997I-1406047J-5272755D01*
G01*
X285750000Y-126916666D02*
G75*
G02*
X285248130Y-127077498I-7171200J21513966D01*
G01*
X290828506Y-128855073D02*
G75*
G02*
X289250003Y-127999996I3867394J9023873D01*
G01*
X217231224Y-131568181D02*
G75*
G03*
X217136844Y-130455924I-2224424J371381D01*
G01*
X216415792Y-134117778D02*
G75*
G03*
X216546295Y-135203695I1894508J-323122D01*
G01*
X300282756Y-136652240D02*
G75*
G02*
X302341458Y-135293632I2507844J-1561060D01*
G01*
X259315647Y-133295239D02*
G75*
G02*
X258393997Y-132830352I183553J1509939D01*
G01*
X224458509Y-150206879D02*
G75*
G03*
X225049233Y-150876538I447391J-200721D01*
G01*
X266750000Y-132500000D02*
G75*
G03*
X269298853Y-132645768I1491900J3729800D01*
G01*
X211883883Y-119030330D02*
G75*
G02*
X210749966Y-117500008I1280317J2133930D01*
G01*
X292065211Y-129385090D02*
G75*
G02*
X293265367Y-130350012I-1127911J-2631710D01*
G01*
X280425027Y-128561530D02*
G75*
G03*
X278324350Y-130329080I1034273J-3361270D01*
G01*
X224458509Y-150206879D02*
G75*
G02*
X223656518Y-150173971I-394409J176979D01*
G01*
X285750000Y-126916666D02*
G75*
G02*
X286254631Y-126901210I278100J-834134D01*
G01*
X209750000Y-116000000D02*
G75*
G03*
X208098649Y-115508216I-1624600J-2436800D01*
G01*
X274250000Y-131750000D02*
G75*
G03*
X275784064Y-131898791I1092000J3276100D01*
G01*
X207499999Y-115513722D02*
G75*
G03*
X204502192Y-115609665I600601J-65648278D01*
G01*
X224508203Y-150096122D02*
G75*
G02*
X226144844Y-148635748I2451197J-1099778D01*
G01*
X258541722Y-132271262D02*
G75*
G03*
X258394006Y-132830343I99478J-325338D01*
G01*
X257468410Y-132441012D02*
G75*
G02*
X258394016Y-132830334I21190J-1244588D01*
G01*
X235141044Y-145773304D02*
G75*
G03*
X236499997Y-144749998I-779144J2448704D01*
G01*
X266750000Y-132500000D02*
G75*
G03*
X264222790Y-132425716I-1365000J-3412400D01*
G01*
X209750000Y-116000000D02*
G75*
G02*
X210718646Y-117374467I-1293300J-1940000D01*
G01*
X239288505Y-143557094D02*
G75*
G03*
X237750004Y-143750011I-286005J-3950306D01*
G01*
X297396974Y-137589091D02*
G75*
G02*
X295750009Y-136999987I357126J3595191D01*
G01*
X294797314Y-135621695D02*
G75*
G03*
X295750002Y-136999996I2211786J510395D01*
G01*
X308912102Y-131958214D02*
G75*
G02*
X312186783Y-129514096I4355498J-2419786D01*
G01*
X217268010Y-136010291D02*
G75*
G02*
X216546307Y-135203690I849090J1485891D01*
G01*
X216863636Y-132613636D02*
G75*
G03*
X217226878Y-131594168I-2670436J1525936D01*
G01*
%TO.N,P0*%
X286211924Y-116919716D02*
X284964507Y-112241904D01*
X254702341Y-111679375D02*
X259530655Y-110391825D01*
X236523196Y-124527391D02*
X236284794Y-125041087D01*
X265969669Y-112469669D02*
X265075290Y-111575290D01*
X246712119Y-117048490D02*
X245793744Y-119436263D01*
X211985276Y-117854245D02*
X211266378Y-115968973D01*
X211666666Y-112500000D02*
X211416666Y-111750000D01*
X220804867Y-130102866D02*
X230482599Y-127157469D01*
X215445283Y-122729010D02*
X214825780Y-120285158D01*
X308724782Y-114655043D02*
X298282712Y-116743457D01*
X203182153Y-109085190D02*
X198120000Y-108340000D01*
X295615191Y-119219676D02*
X293288611Y-119055611D01*
X252461952Y-114261892D02*
X250111141Y-114611583D01*
X290224782Y-118655043D02*
X289596322Y-118780735D01*
X295615191Y-119219676D02*
X297727989Y-118770586D01*
X296307595Y-118109838D02*
X295615191Y-119219676D01*
X272093601Y-113488353D02*
X272546800Y-112244176D01*
X233261604Y-125575282D02*
X232115728Y-125937138D01*
X211611803Y-113664589D02*
X211666666Y-113499999D01*
X218461345Y-133022454D02*
X220526963Y-132390931D01*
X216702789Y-127241411D02*
X218461345Y-133022454D01*
X212114684Y-117939859D02*
X213288461Y-118461538D01*
X252461952Y-114261892D02*
X254527570Y-113630369D01*
X252461952Y-114261892D02*
X252980976Y-113130946D01*
X211030834Y-114852206D02*
X211043773Y-115000000D01*
X311787783Y-115066310D02*
X314199995Y-115269354D01*
X272093601Y-113488353D02*
X274159219Y-112856830D01*
X238098823Y-123225294D02*
X242854901Y-122036274D01*
X234249910Y-125506690D02*
X235480274Y-125539627D01*
X207799427Y-109875245D02*
X209706791Y-110247564D01*
X314199995Y-115269354D02*
X316312793Y-114820264D01*
X236587967Y-125389206D02*
X238112010Y-124923260D01*
X272093601Y-113488353D02*
X268744719Y-113088842D01*
X218980672Y-131761227D02*
X218461345Y-133022454D01*
X279770479Y-109008682D02*
X274270340Y-110626370D01*
X211985276Y-117854245D02*
G75*
G03*
X212038457Y-117907976I87424J33345D01*
G01*
X242854901Y-122036274D02*
G75*
G03*
X245793737Y-119436260I-1031801J4127174D01*
G01*
X274270340Y-110626370D02*
G75*
G03*
X272546842Y-112244191I739760J-2515030D01*
G01*
X283000000Y-109500000D02*
G75*
G02*
X284964525Y-112241899I-2647900J-3971900D01*
G01*
X283000000Y-109500000D02*
G75*
G03*
X279770483Y-109008697I-2140600J-3210900D01*
G01*
X216702789Y-127241411D02*
G75*
G02*
X215445285Y-122729009I95291911J28987111D01*
G01*
X254702341Y-111679375D02*
G75*
G03*
X252980954Y-113130936I681059J-2554125D01*
G01*
X296307595Y-118109838D02*
G75*
G02*
X298282712Y-116743457I2568905J-1602662D01*
G01*
X203182153Y-109085190D02*
G75*
G02*
X207799427Y-109875245I-14635553J-99421010D01*
G01*
X211266378Y-115968973D02*
G75*
G02*
X211043765Y-115000001I3364722J1283073D01*
G01*
X311787783Y-115066310D02*
G75*
G02*
X310249998Y-114750005I555117J6595110D01*
G01*
X308724782Y-114655043D02*
G75*
G02*
X310249999Y-114750003I583818J-2919157D01*
G01*
X265969669Y-112469669D02*
G75*
G03*
X267250000Y-112999988I1280331J1280369D01*
G01*
X231300000Y-126550000D02*
G75*
G02*
X230482595Y-127157455I-1257400J838300D01*
G01*
X293288611Y-119055611D02*
G75*
G02*
X291750001Y-118749998I440189J6242011D01*
G01*
X259530655Y-110391825D02*
G75*
G02*
X262500000Y-110249999I1812745J-6797775D01*
G01*
X233750000Y-125500000D02*
G75*
G03*
X233261605Y-125575286I0J-1621800D01*
G01*
X246712119Y-117048490D02*
G75*
G02*
X248057689Y-115388431I3228981J-1241910D01*
G01*
X211030834Y-114852206D02*
G75*
G02*
X211250005Y-114250005I755266J66106D01*
G01*
X287500000Y-118500000D02*
G75*
G03*
X289596327Y-118780759I1457300J2914500D01*
G01*
X211611803Y-113664589D02*
G75*
G02*
X211250001Y-114250001I-1420803J473589D01*
G01*
X211666666Y-112500000D02*
G75*
G02*
X211666666Y-113499999I-1499966J-500000D01*
G01*
X250111141Y-114611583D02*
G75*
G03*
X248057702Y-115388451I760559J-5112617D01*
G01*
X212114684Y-117939859D02*
G75*
G03*
X212038461Y-117907968I-765184J-1721841D01*
G01*
X231300000Y-126550000D02*
G75*
G02*
X232115732Y-125937151I1278400J-852300D01*
G01*
X236523196Y-124527391D02*
G75*
G02*
X238098818Y-123225276I2150704J-998109D01*
G01*
X209706791Y-110247564D02*
G75*
G02*
X211416671Y-111749998I-432691J-2216636D01*
G01*
X233750000Y-125500000D02*
G75*
G02*
X234249910Y-125506690I100J-18674900D01*
G01*
X290224782Y-118655043D02*
G75*
G02*
X291749999Y-118750003I583818J-2919157D01*
G01*
X213288461Y-118461538D02*
G75*
G02*
X214825811Y-120285150I-1108561J-2494362D01*
G01*
X287500000Y-118500000D02*
G75*
G02*
X286211962Y-116919706I1109900J2219700D01*
G01*
X265075290Y-111575290D02*
G75*
G03*
X262499998Y-110250009I-3355390J-3355410D01*
G01*
X268744719Y-113088842D02*
G75*
G03*
X267250000Y-113000000I-1494719J-12529458D01*
G01*
X218980672Y-131761227D02*
G75*
G02*
X220804862Y-130102851I2662628J-1096373D01*
G01*
%TO.N,P1*%
X267269269Y-93909281D02*
X266538538Y-95318563D01*
X237852719Y-103171024D02*
X233346821Y-104579118D01*
X308029118Y-96558443D02*
X310249673Y-96684550D01*
X294232529Y-98243223D02*
X303990890Y-96210231D01*
X224127801Y-109227530D02*
X214184208Y-111821510D01*
X310249673Y-96684550D02*
X312362471Y-96235460D01*
X279416024Y-93025425D02*
X280205825Y-95921361D01*
X291664869Y-100634872D02*
X289789558Y-100539960D01*
X230491329Y-107384992D02*
X232556947Y-106753469D01*
X266538538Y-95318563D02*
X268604156Y-94687040D01*
X259235294Y-92639705D02*
X258491509Y-92405059D01*
X212906282Y-114852664D02*
X214971900Y-114221141D01*
X225561470Y-108157793D02*
X225499999Y-108249999D01*
X212906282Y-114852664D02*
X212651466Y-113690693D01*
X242420575Y-97658849D02*
X241006090Y-100487819D01*
X228284102Y-107100916D02*
X230491329Y-107384992D01*
X266538538Y-95318563D02*
X265269269Y-95409281D01*
X247471220Y-95919567D02*
X248972508Y-95460578D01*
X291664869Y-100634872D02*
X293777667Y-100185782D01*
X230491329Y-107384992D02*
X231245664Y-106192496D01*
X291664869Y-100634872D02*
X292332434Y-99567436D01*
X284010759Y-100202151D02*
X284489240Y-100297847D01*
X212906282Y-114852664D02*
X211680165Y-111088242D01*
X255750000Y-92250000D02*
X256494620Y-92398924D01*
X261531745Y-93772222D02*
X262957521Y-94770265D01*
X247453445Y-95046050D02*
X247180167Y-95569075D01*
X269540066Y-92114983D02*
X274466069Y-90883482D01*
X246319964Y-96153378D02*
X244047301Y-96390655D01*
X249128039Y-93652910D02*
X253281616Y-92374887D01*
X286733035Y-100191741D02*
X286499999Y-100249999D01*
X208868577Y-108470453D02*
X198120000Y-105800000D01*
X281500000Y-97500000D02*
X281578045Y-97539022D01*
X277500000Y-91000000D02*
G75*
G02*
X279416015Y-93025427I-934300J-2802800D01*
G01*
X306000000Y-96250000D02*
G75*
G03*
X308029118Y-96558441I2648200J10592900D01*
G01*
X256494620Y-92398924D02*
G75*
G03*
X257499998Y-92374994I449480J2247424D01*
G01*
X228284102Y-107100916D02*
G75*
G03*
X226749996Y-107249988I-441202J-3427884D01*
G01*
X265269269Y-95409281D02*
G75*
G02*
X262957534Y-94770246I-255569J3576381D01*
G01*
X306000000Y-96250000D02*
G75*
G03*
X303990886Y-96210213I-1091400J-4365400D01*
G01*
X274466069Y-90883482D02*
G75*
G02*
X277500005Y-90999984I1316931J-5267618D01*
G01*
X257500000Y-92375000D02*
G75*
G02*
X258491502Y-92405082I442500J-1770200D01*
G01*
X243083333Y-96807232D02*
G75*
G03*
X242420561Y-97658842I1794467J-2080268D01*
G01*
X243083333Y-96807232D02*
G75*
G02*
X244047302Y-96390660I1146167J-1328668D01*
G01*
X231245664Y-106192496D02*
G75*
G02*
X233346822Y-104579123I3247236J-2054104D01*
G01*
X289789558Y-100539960D02*
G75*
G02*
X288250001Y-100249996I292942J5787460D01*
G01*
X255750000Y-92250000D02*
G75*
G03*
X253281621Y-92374903I-987500J-4937600D01*
G01*
X281500000Y-97500000D02*
G75*
G02*
X280205820Y-95921362I1118300J2236600D01*
G01*
X213000000Y-112500000D02*
G75*
G03*
X212651412Y-113690705I913800J-913900D01*
G01*
X237852719Y-103171024D02*
G75*
G03*
X241006083Y-100487816I-1577719J5048724D01*
G01*
X259235294Y-92639705D02*
G75*
G02*
X261531748Y-93772218I-2534494J-8033895D01*
G01*
X269540066Y-92114983D02*
G75*
G03*
X267269247Y-93909270I853534J-3414317D01*
G01*
X225561470Y-108157793D02*
G75*
G02*
X226750005Y-107250015I1917130J-1278107D01*
G01*
X213000000Y-112500000D02*
G75*
G02*
X214184210Y-111821517I1841600J-1841600D01*
G01*
X286733035Y-100191741D02*
G75*
G02*
X288250002Y-100249993I658465J-2633759D01*
G01*
X294232529Y-98243223D02*
G75*
G03*
X292332455Y-99567449I601871J-2888877D01*
G01*
X286499999Y-100249999D02*
G75*
G02*
X284489238Y-100297859I-1111799J4447099D01*
G01*
X208868577Y-108470453D02*
G75*
G02*
X211680162Y-111088243I-955177J-3844647D01*
G01*
X284010759Y-100202151D02*
G75*
G02*
X282750037Y-98999991I319441J1597151D01*
G01*
X247453445Y-95046050D02*
G75*
G02*
X249128040Y-93652912I2506155J-1309450D01*
G01*
X224127801Y-109227530D02*
G75*
G03*
X225499994Y-108249996I-597601J2290730D01*
G01*
X282750000Y-99000000D02*
G75*
G03*
X281578027Y-97539058I-2174200J-543600D01*
G01*
%TO.N,P3*%
X244208413Y-165932764D02*
X242749615Y-165968978D01*
X214709149Y-128511108D02*
X212911324Y-122398503D01*
X220065642Y-144541199D02*
X218376414Y-139191978D01*
X220059481Y-174303298D02*
X215286181Y-177047945D01*
X244208413Y-165932764D02*
X246274031Y-165301241D01*
X224155018Y-152867852D02*
X229767036Y-151531657D01*
X224011118Y-173541722D02*
X226013835Y-172732572D01*
X224011118Y-173541722D02*
X224755559Y-172270861D01*
X213604815Y-177354815D02*
X213458726Y-177331121D01*
X244208413Y-165932764D02*
X241158453Y-156118740D01*
X210723275Y-178288855D02*
X207245474Y-181021413D01*
X237827814Y-166434142D02*
X226881160Y-170488458D01*
X211250000Y-120250000D02*
X210677907Y-119906744D01*
X205555303Y-183520224D02*
X205110606Y-185040449D01*
X224011118Y-173541722D02*
X220677069Y-173976888D01*
X205110606Y-185040449D02*
X206835658Y-183740529D01*
X238407788Y-153261572D02*
X234164524Y-151763949D01*
X220406077Y-150452283D02*
X220545323Y-150872863D01*
X215640815Y-135302717D02*
X214796191Y-132487304D01*
X208710192Y-118034701D02*
X198120000Y-118500000D01*
X205555303Y-183520224D02*
G75*
G02*
X207245484Y-181021426I4743797J-1387676D01*
G01*
X220065642Y-144541199D02*
G75*
G02*
X220225767Y-147499996I-5670342J-1790601D01*
G01*
X214709149Y-128511108D02*
G75*
G02*
X214750017Y-130500004I-3636549J-1069592D01*
G01*
X209750000Y-118750000D02*
G75*
G03*
X210677913Y-119906735I2027400J675800D01*
G01*
X211250000Y-120250000D02*
G75*
G02*
X212911325Y-122398503I-1921300J-3202200D01*
G01*
X240250000Y-166000000D02*
G75*
G03*
X242749615Y-165968979I0J100722200D01*
G01*
X240250000Y-166000000D02*
G75*
G03*
X237827815Y-166434145I0J-6974000D01*
G01*
X209750000Y-118750000D02*
G75*
G03*
X208710194Y-118034743I-993800J-331300D01*
G01*
X213458726Y-177331121D02*
G75*
G03*
X212014818Y-177514823I-411126J-2534979D01*
G01*
X217000000Y-137250000D02*
G75*
G02*
X218376395Y-139191984I-2335700J-3114200D01*
G01*
X220357143Y-174107143D02*
G75*
G02*
X220677066Y-173976864I407957J-543857D01*
G01*
X229767036Y-151531657D02*
G75*
G02*
X234164531Y-151763928I1804564J-7579043D01*
G01*
X220406077Y-150452283D02*
G75*
G02*
X220225769Y-147499997I5487323J1816783D01*
G01*
X226881160Y-170488458D02*
G75*
G03*
X224755543Y-172270852I1431940J-3866342D01*
G01*
X214750000Y-130500000D02*
G75*
G03*
X214796201Y-132487301I3638500J-909600D01*
G01*
X217000000Y-137250000D02*
G75*
G02*
X215640806Y-135302720I2279100J3038800D01*
G01*
X210723275Y-178288855D02*
G75*
G02*
X212014816Y-177514818I3699725J-4708745D01*
G01*
X224155018Y-152867852D02*
G75*
G02*
X221959244Y-152571435I-713418J2996252D01*
G01*
X220545323Y-150872863D02*
G75*
G03*
X221959234Y-152571453I2867877J949463D01*
G01*
X213604815Y-177354815D02*
G75*
G03*
X215286165Y-177047917I408685J2520115D01*
G01*
X238407788Y-153261572D02*
G75*
G02*
X241158478Y-156118732I-1471488J-4169328D01*
G01*
X220357143Y-174107143D02*
G75*
G02*
X220059479Y-174303295I-1759043J2345443D01*
G01*
%TO.N,RAW*%
X156500000Y-92000000D02*
X182880000Y-105800000D01*
%TO.N,GND*%
X173500000Y-116837029D02*
X173500000Y-112560660D01*
X175000000Y-110000000D02*
X179500000Y-110000000D01*
X179500000Y-110000000D02*
X182880000Y-108340000D01*
X174061552Y-119179259D02*
X174000000Y-119050000D01*
X174250000Y-110750000D02*
X175000000Y-110000000D01*
X175500000Y-120300000D02*
X176500000Y-120500000D01*
X174061552Y-119179259D02*
G75*
G03*
X175499995Y-120300024I1837648J875059D01*
G01*
X174000000Y-119050000D02*
G75*
G02*
X173499984Y-116837029I4647200J2213000D01*
G01*
X174250000Y-110750000D02*
G75*
G03*
X173499954Y-112560660I1810600J-1810700D01*
G01*
%TO.N,RST*%
X179984834Y-116500000D02*
X180146446Y-116500000D01*
X181940000Y-111440000D02*
X182880000Y-110880000D01*
X181000000Y-113094166D02*
X181000000Y-115646446D01*
X178853554Y-116500000D02*
X175000000Y-116500000D01*
X180750000Y-116250000D02*
G75*
G03*
X181000019Y-115646446I-603600J603600D01*
G01*
X181940000Y-111440000D02*
G75*
G03*
X180999990Y-113094166I985500J-1654200D01*
G01*
X180750000Y-116250000D02*
G75*
G02*
X180146446Y-116500019I-603600J603600D01*
G01*
%TO.N,BAT_P*%
X156000000Y-93000000D02*
X159445611Y-94566187D01*
X172415428Y-110057142D02*
X172107758Y-109824059D01*
X164309922Y-102725515D02*
X162317918Y-97603218D01*
X178500000Y-121000000D02*
X178500000Y-120500000D01*
X170764396Y-109163016D02*
X168336855Y-108500960D01*
X172913780Y-119491520D02*
X172948394Y-111376475D01*
X178146446Y-121853553D02*
X178000000Y-122000000D01*
X175099398Y-122500000D02*
X176792893Y-122500000D01*
X172832758Y-110642241D02*
G75*
G02*
X172948406Y-111376475I-2210258J-724359D01*
G01*
X165750000Y-106250000D02*
G75*
G03*
X168336851Y-108500975I3624400J1553300D01*
G01*
X172913780Y-119491520D02*
G75*
G03*
X173454556Y-121545448I4104520J-17480D01*
G01*
X170764396Y-109163016D02*
G75*
G02*
X172107758Y-109824058I-1037296J-3803484D01*
G01*
X162317918Y-97603218D02*
G75*
G03*
X159445604Y-94566202I-5165918J-2008982D01*
G01*
X178146446Y-121853553D02*
G75*
G03*
X178500001Y-121000000I-853546J853553D01*
G01*
X164309922Y-102725515D02*
G75*
G03*
X165750001Y-106250000I104367878J40587515D01*
G01*
X173454545Y-121545454D02*
G75*
G03*
X175099398Y-122499982I1644855J939954D01*
G01*
X172832758Y-110642241D02*
G75*
G03*
X172415420Y-110057153I-1144758J-375159D01*
G01*
X176792893Y-122500000D02*
G75*
G03*
X178000002Y-122000002I7J1707100D01*
G01*
%TD*%
M02*
