%TF.GenerationSoftware,KiCad,Pcbnew,8.0.6*%
%TF.CreationDate,2025-05-26T13:43:22+02:00*%
%TF.ProjectId,main,6d61696e-2e6b-4696-9361-645f70636258,v1.0.0*%
%TF.SameCoordinates,Original*%
%TF.FileFunction,Paste,Bot*%
%TF.FilePolarity,Positive*%
%FSLAX46Y46*%
G04 Gerber Fmt 4.6, Leading zero omitted, Abs format (unit mm)*
G04 Created by KiCad (PCBNEW 8.0.6) date 2025-05-26 13:43:22*
%MOMM*%
%LPD*%
G01*
G04 APERTURE LIST*
G04 Aperture macros list*
%AMRotRect*
0 Rectangle, with rotation*
0 The origin of the aperture is its center*
0 $1 length*
0 $2 width*
0 $3 Rotation angle, in degrees counterclockwise*
0 Add horizontal line*
21,1,$1,$2,0,0,$3*%
G04 Aperture macros list end*
%ADD10RotRect,0.900000X1.200000X343.000000*%
%ADD11RotRect,0.900000X1.200000X348.000000*%
%ADD12RotRect,0.900000X1.200000X17.000000*%
%ADD13RotRect,0.900000X1.200000X37.000000*%
%ADD14RotRect,0.900000X1.200000X323.000000*%
%ADD15RotRect,0.900000X1.200000X12.000000*%
%ADD16RotRect,0.900000X1.200000X338.000000*%
%ADD17RotRect,0.900000X1.200000X22.000000*%
G04 APERTURE END LIST*
D10*
%TO.C,D16*%
X153618180Y-142232349D03*
X156773986Y-143197175D03*
%TD*%
D11*
%TO.C,D2*%
X62664988Y-106602420D03*
X65892876Y-107288528D03*
%TD*%
D12*
%TO.C,D33*%
X246721245Y-88097032D03*
X249877051Y-87132206D03*
%TD*%
D13*
%TO.C,D42*%
X202201683Y-177591036D03*
X204837181Y-175605046D03*
%TD*%
D11*
%TO.C,D1*%
X58714665Y-125187224D03*
X61942553Y-125873332D03*
%TD*%
D14*
%TO.C,D21*%
X175767568Y-175605046D03*
X178403066Y-177591036D03*
%TD*%
D12*
%TO.C,D38*%
X218275701Y-125027385D03*
X221431507Y-124062559D03*
%TD*%
D10*
%TO.C,D8*%
X105540986Y-104528457D03*
X108696792Y-105493283D03*
%TD*%
D15*
%TO.C,D27*%
X292176747Y-92654045D03*
X295404635Y-91967937D03*
%TD*%
D10*
%TO.C,D13*%
X136033133Y-134764677D03*
X139188939Y-135729503D03*
%TD*%
D12*
%TO.C,D30*%
X266352894Y-87323493D03*
X269508700Y-86358667D03*
%TD*%
%TO.C,D31*%
X257831370Y-124436613D03*
X260987176Y-123471787D03*
%TD*%
D15*
%TO.C,D26*%
X296127069Y-111238850D03*
X299354957Y-110552742D03*
%TD*%
D16*
%TO.C,D20*%
X154415678Y-164357054D03*
X157475384Y-165593256D03*
%TD*%
D12*
%TO.C,D29*%
X271907957Y-105493283D03*
X275063763Y-104528457D03*
%TD*%
D11*
%TO.C,D4*%
X77299470Y-129137546D03*
X80527358Y-129823654D03*
%TD*%
D10*
%TO.C,D7*%
X99985924Y-122698248D03*
X103141730Y-123663074D03*
%TD*%
D12*
%TO.C,D28*%
X277463019Y-123663074D03*
X280618825Y-122698248D03*
%TD*%
D15*
%TO.C,D25*%
X300077391Y-129823654D03*
X303305279Y-129137546D03*
%TD*%
D10*
%TO.C,D17*%
X159173242Y-124062559D03*
X162329048Y-125027385D03*
%TD*%
D12*
%TO.C,D40*%
X244022768Y-157937695D03*
X247178574Y-156972869D03*
%TD*%
D10*
%TO.C,D11*%
X125172635Y-105301996D03*
X128328441Y-106266822D03*
%TD*%
D17*
%TO.C,D41*%
X223129365Y-165593256D03*
X226189071Y-164357054D03*
%TD*%
D15*
%TO.C,D23*%
X314711873Y-107288528D03*
X317939761Y-106602420D03*
%TD*%
D10*
%TO.C,D18*%
X164728304Y-105892769D03*
X167884110Y-106857595D03*
%TD*%
D12*
%TO.C,D39*%
X212720638Y-106857595D03*
X215876444Y-105892769D03*
%TD*%
D15*
%TO.C,D24*%
X310761551Y-88703723D03*
X313989439Y-88017615D03*
%TD*%
D10*
%TO.C,D15*%
X147143257Y-98425097D03*
X150299063Y-99389923D03*
%TD*%
%TO.C,D19*%
X133426174Y-156972869D03*
X136581980Y-157937695D03*
%TD*%
D12*
%TO.C,D37*%
X223830763Y-143197175D03*
X226986569Y-142232349D03*
%TD*%
D11*
%TO.C,D6*%
X85200114Y-91967937D03*
X88428002Y-92654045D03*
%TD*%
D10*
%TO.C,D9*%
X111096048Y-86358667D03*
X114251854Y-87323493D03*
%TD*%
D12*
%TO.C,D34*%
X241415810Y-135729503D03*
X244571616Y-134764677D03*
%TD*%
%TO.C,D35*%
X235860748Y-117559713D03*
X239016554Y-116594887D03*
%TD*%
%TO.C,D36*%
X230305685Y-99389923D03*
X233461491Y-98425097D03*
%TD*%
D15*
%TO.C,D22*%
X318662195Y-125873332D03*
X321890083Y-125187224D03*
%TD*%
D10*
%TO.C,D12*%
X130727697Y-87132206D03*
X133883503Y-88097032D03*
%TD*%
D12*
%TO.C,D32*%
X252276308Y-106266822D03*
X255432114Y-105301996D03*
%TD*%
D10*
%TO.C,D14*%
X141588195Y-116594887D03*
X144744001Y-117559713D03*
%TD*%
%TO.C,D10*%
X119617572Y-123471787D03*
X122773378Y-124436613D03*
%TD*%
D11*
%TO.C,D5*%
X81249792Y-110552742D03*
X84477680Y-111238850D03*
%TD*%
%TO.C,D3*%
X66615310Y-88017615D03*
X69843198Y-88703723D03*
%TD*%
M02*
