%TF.GenerationSoftware,KiCad,Pcbnew,8.0.6*%
%TF.CreationDate,2025-05-18T12:41:01+02:00*%
%TF.ProjectId,main,6d61696e-2e6b-4696-9361-645f70636258,v1.0.0*%
%TF.SameCoordinates,Original*%
%TF.FileFunction,Soldermask,Bot*%
%TF.FilePolarity,Negative*%
%FSLAX46Y46*%
G04 Gerber Fmt 4.6, Leading zero omitted, Abs format (unit mm)*
G04 Created by KiCad (PCBNEW 8.0.6) date 2025-05-18 12:41:01*
%MOMM*%
%LPD*%
G01*
G04 APERTURE LIST*
G04 Aperture macros list*
%AMRoundRect*
0 Rectangle with rounded corners*
0 $1 Rounding radius*
0 $2 $3 $4 $5 $6 $7 $8 $9 X,Y pos of 4 corners*
0 Add a 4 corners polygon primitive as box body*
4,1,4,$2,$3,$4,$5,$6,$7,$8,$9,$2,$3,0*
0 Add four circle primitives for the rounded corners*
1,1,$1+$1,$2,$3*
1,1,$1+$1,$4,$5*
1,1,$1+$1,$6,$7*
1,1,$1+$1,$8,$9*
0 Add four rect primitives between the rounded corners*
20,1,$1+$1,$2,$3,$4,$5,0*
20,1,$1+$1,$4,$5,$6,$7,0*
20,1,$1+$1,$6,$7,$8,$9,0*
20,1,$1+$1,$8,$9,$2,$3,0*%
G04 Aperture macros list end*
%ADD10RoundRect,0.050000X-0.605760X-0.442216X0.254914X-0.705350X0.605760X0.442216X-0.254914X0.705350X0*%
%ADD11C,3.900000*%
%ADD12RoundRect,0.050000X-0.564913X-0.493328X0.315419X-0.680449X0.564913X0.493328X-0.315419X0.680449X0*%
%ADD13RoundRect,0.050000X-0.254914X-0.705350X0.605760X-0.442216X0.254914X0.705350X-0.605760X0.442216X0*%
%ADD14RoundRect,0.050000X0.001703X-0.749998X0.720475X-0.208365X-0.001703X0.749998X-0.720475X0.208365X0*%
%ADD15RoundRect,0.102000X0.749000X-0.749000X0.749000X0.749000X-0.749000X0.749000X-0.749000X-0.749000X0*%
%ADD16C,1.702000*%
%ADD17C,1.000000*%
%ADD18RoundRect,0.050000X-0.720475X-0.208365X-0.001703X-0.749998X0.720475X0.208365X0.001703X0.749998X0*%
%ADD19RoundRect,0.050000X-0.315419X-0.680449X0.564913X-0.493328X0.315419X0.680449X-0.564913X0.493328X0*%
%ADD20RoundRect,0.050000X-0.641997X-0.387737X0.192469X-0.724883X0.641997X0.387737X-0.192469X0.724883X0*%
%ADD21RoundRect,0.260000X-0.390000X-0.665000X0.390000X-0.665000X0.390000X0.665000X-0.390000X0.665000X0*%
%ADD22O,1.300000X1.850000*%
%ADD23RoundRect,0.050000X-0.192469X-0.724883X0.641997X-0.387737X0.192469X0.724883X-0.641997X0.387737X0*%
%ADD24C,1.800000*%
G04 APERTURE END LIST*
D10*
%TO.C,D16*%
X153618180Y-142232349D03*
X156773986Y-143197175D03*
%TD*%
D11*
%TO.C,H5*%
X119860869Y-97194737D03*
%TD*%
D12*
%TO.C,D2*%
X62664988Y-106602420D03*
X65892876Y-107288528D03*
%TD*%
D13*
%TO.C,D33*%
X246721245Y-88097032D03*
X249877051Y-87132206D03*
%TD*%
D11*
%TO.C,H3*%
X68744668Y-132686454D03*
%TD*%
D14*
%TO.C,D42*%
X202201683Y-177591036D03*
X204837181Y-175605046D03*
%TD*%
D15*
%TO.C,REF\u002A\u002A*%
X175250000Y-124250000D03*
D16*
X175250000Y-117750000D03*
X179750000Y-124250000D03*
X179750000Y-117750000D03*
%TD*%
D11*
%TO.C,H6*%
X109629682Y-127581170D03*
%TD*%
D17*
%TO.C,REF\u002A\u002A*%
X150500000Y-89000000D03*
X147876142Y-87545572D03*
%TD*%
D12*
%TO.C,D1*%
X58714665Y-125187224D03*
X61942553Y-125873332D03*
%TD*%
D18*
%TO.C,D21*%
X175767568Y-175605046D03*
X178403066Y-177591036D03*
%TD*%
D13*
%TO.C,D38*%
X218275701Y-125027385D03*
X221431507Y-124062559D03*
%TD*%
D10*
%TO.C,D8*%
X105540986Y-104528457D03*
X108696792Y-105493283D03*
%TD*%
D19*
%TO.C,D27*%
X292176747Y-92654045D03*
X295404635Y-91967937D03*
%TD*%
D10*
%TO.C,D13*%
X136033133Y-134764677D03*
X139188939Y-135729503D03*
%TD*%
D13*
%TO.C,D30*%
X266352894Y-87323493D03*
X269508700Y-86358667D03*
%TD*%
D11*
%TO.C,H1*%
X75231512Y-102168249D03*
%TD*%
D13*
%TO.C,D31*%
X257831370Y-124436613D03*
X260987176Y-123471787D03*
%TD*%
D11*
%TO.C,H11*%
X165145313Y-173437661D03*
%TD*%
D19*
%TO.C,D26*%
X296127069Y-111238850D03*
X299354957Y-110552742D03*
%TD*%
D20*
%TO.C,D20*%
X154415678Y-164357054D03*
X157475384Y-165593256D03*
%TD*%
D21*
%TO.C,JST1*%
X176500000Y-128000000D03*
D22*
X178500000Y-128000000D03*
%TD*%
D11*
%TO.C,H12*%
X215459436Y-173437661D03*
%TD*%
D13*
%TO.C,D29*%
X271907957Y-105493283D03*
X275063763Y-104528457D03*
%TD*%
D12*
%TO.C,D4*%
X77299470Y-129137546D03*
X80527358Y-129823654D03*
%TD*%
D10*
%TO.C,D7*%
X99985924Y-122698248D03*
X103141730Y-123663074D03*
%TD*%
D13*
%TO.C,D28*%
X277463019Y-123663074D03*
X280618825Y-122698248D03*
%TD*%
D11*
%TO.C,H7*%
X260743880Y-97194737D03*
%TD*%
D19*
%TO.C,D25*%
X300077391Y-129823654D03*
X303305279Y-129137546D03*
%TD*%
D10*
%TO.C,D17*%
X159173242Y-124062559D03*
X162329048Y-125027385D03*
%TD*%
D13*
%TO.C,D40*%
X244022768Y-157937695D03*
X247178574Y-156972869D03*
%TD*%
D11*
%TO.C,H10*%
X226704171Y-113980440D03*
%TD*%
D10*
%TO.C,D11*%
X125172635Y-105301996D03*
X128328441Y-106266822D03*
%TD*%
D23*
%TO.C,D41*%
X223129365Y-165593256D03*
X226189071Y-164357054D03*
%TD*%
D19*
%TO.C,D23*%
X314711873Y-107288528D03*
X317939761Y-106602420D03*
%TD*%
D10*
%TO.C,D18*%
X164728304Y-105892769D03*
X167884110Y-106857595D03*
%TD*%
D13*
%TO.C,D39*%
X212720638Y-106857595D03*
X215876444Y-105892769D03*
%TD*%
D19*
%TO.C,D24*%
X310761551Y-88703723D03*
X313989439Y-88017615D03*
%TD*%
D10*
%TO.C,D15*%
X147143257Y-98425097D03*
X150299063Y-99389923D03*
%TD*%
%TO.C,D19*%
X133426174Y-156972869D03*
X136581980Y-157937695D03*
%TD*%
D13*
%TO.C,D37*%
X223830763Y-143197175D03*
X226986569Y-142232349D03*
%TD*%
D11*
%TO.C,H8*%
X270975067Y-127581170D03*
%TD*%
D12*
%TO.C,D6*%
X85200114Y-91967937D03*
X88428002Y-92654045D03*
%TD*%
D10*
%TO.C,D9*%
X111096048Y-86358667D03*
X114251854Y-87323493D03*
%TD*%
D11*
%TO.C,H9*%
X153900578Y-113980440D03*
%TD*%
D13*
%TO.C,D34*%
X241415810Y-135729503D03*
X244571616Y-134764677D03*
%TD*%
%TO.C,D35*%
X235860748Y-117559713D03*
X239016554Y-116594887D03*
%TD*%
D11*
%TO.C,H2*%
X305373236Y-102168249D03*
%TD*%
D13*
%TO.C,D36*%
X230305685Y-99389923D03*
X233461491Y-98425097D03*
%TD*%
D19*
%TO.C,D22*%
X318662195Y-125873332D03*
X321890083Y-125187224D03*
%TD*%
D10*
%TO.C,D12*%
X130727697Y-87132206D03*
X133883503Y-88097032D03*
%TD*%
D13*
%TO.C,D32*%
X252276308Y-106266822D03*
X255432114Y-105301996D03*
%TD*%
D10*
%TO.C,D14*%
X141588195Y-116594887D03*
X144744001Y-117559713D03*
%TD*%
%TO.C,D10*%
X119617572Y-123471787D03*
X122773378Y-124436613D03*
%TD*%
D12*
%TO.C,D5*%
X81249792Y-110552742D03*
X84477680Y-111238850D03*
%TD*%
%TO.C,D3*%
X66615310Y-88017615D03*
X69843198Y-88703723D03*
%TD*%
D11*
%TO.C,H4*%
X311860081Y-132686454D03*
%TD*%
D24*
%TO.C,MCU1*%
X198120000Y-105920000D03*
X198120000Y-108460000D03*
X198120000Y-111000000D03*
X198120000Y-113540000D03*
X198120000Y-116080000D03*
X198120000Y-118620000D03*
X198120000Y-121160000D03*
X198120000Y-123700000D03*
X198120000Y-126240000D03*
X198120000Y-128780000D03*
X198120000Y-131320000D03*
X198120000Y-133860000D03*
X182880000Y-133860000D03*
X182880000Y-131320000D03*
X182880000Y-128780000D03*
X182880000Y-126240000D03*
X182880000Y-123700000D03*
X182880000Y-121160000D03*
X182880000Y-118620000D03*
X182880000Y-116080000D03*
X182880000Y-113540000D03*
X182880000Y-111000000D03*
X182880000Y-108460000D03*
X182880000Y-105920000D03*
%TD*%
M02*
