%TF.GenerationSoftware,KiCad,Pcbnew,8.0.6*%
%TF.CreationDate,2025-07-21T18:30:39+02:00*%
%TF.ProjectId,main,6d61696e-2e6b-4696-9361-645f70636258,v1.0.0*%
%TF.SameCoordinates,Original*%
%TF.FileFunction,Soldermask,Top*%
%TF.FilePolarity,Negative*%
%FSLAX46Y46*%
G04 Gerber Fmt 4.6, Leading zero omitted, Abs format (unit mm)*
G04 Created by KiCad (PCBNEW 8.0.6) date 2025-07-21 18:30:39*
%MOMM*%
%LPD*%
G01*
G04 APERTURE LIST*
G04 Aperture macros list*
%AMRoundRect*
0 Rectangle with rounded corners*
0 $1 Rounding radius*
0 $2 $3 $4 $5 $6 $7 $8 $9 X,Y pos of 4 corners*
0 Add a 4 corners polygon primitive as box body*
4,1,4,$2,$3,$4,$5,$6,$7,$8,$9,$2,$3,0*
0 Add four circle primitives for the rounded corners*
1,1,$1+$1,$2,$3*
1,1,$1+$1,$4,$5*
1,1,$1+$1,$6,$7*
1,1,$1+$1,$8,$9*
0 Add four rect primitives between the rounded corners*
20,1,$1+$1,$2,$3,$4,$5,0*
20,1,$1+$1,$4,$5,$6,$7,0*
20,1,$1+$1,$6,$7,$8,$9,0*
20,1,$1+$1,$8,$9,$2,$3,0*%
G04 Aperture macros list end*
%ADD10C,1.500000*%
%ADD11RoundRect,0.050000X-0.448764X-1.182893X1.033508X-0.729717X0.448764X1.182893X-1.033508X0.729717X0*%
%ADD12RoundRect,0.050000X-0.663933X-1.248676X1.248676X-0.663933X0.663933X1.248676X-1.248676X0.663933X0*%
%ADD13RoundRect,0.050000X-1.033508X-0.729717X0.448764X-1.182893X1.033508X0.729717X-0.448764X1.182893X0*%
%ADD14RoundRect,0.050000X-1.248676X-0.663933X0.663933X-1.248676X1.248676X0.663933X-0.663933X1.248676X0*%
%ADD15RoundRect,0.050000X-0.254914X-0.705350X0.605760X-0.442216X0.254914X0.705350X-0.605760X0.442216X0*%
%ADD16RoundRect,0.050000X-0.315419X-0.680449X0.564913X-0.493328X0.315419X0.680449X-0.564913X0.493328X0*%
%ADD17RoundRect,0.050000X-0.965976X-0.817016X0.550153X-1.139279X0.965976X0.817016X-0.550153X1.139279X0*%
%ADD18RoundRect,0.050000X-1.186059X-0.770236X0.770236X-1.186059X1.186059X0.770236X-0.770236X1.186059X0*%
%ADD19RoundRect,0.050000X-0.605760X-0.442216X0.254914X-0.705350X0.605760X0.442216X-0.254914X0.705350X0*%
%ADD20RoundRect,0.050000X-0.343961X-1.217504X1.093174X-0.636864X0.343961X1.217504X-1.093174X0.636864X0*%
%ADD21RoundRect,0.050000X-0.552577X-1.301790X1.301790X-0.552577X0.552577X1.301790X-1.301790X0.552577X0*%
%ADD22RoundRect,0.050000X-0.564913X-0.493328X0.315419X-0.680449X0.564913X0.493328X-0.315419X0.680449X0*%
%ADD23RoundRect,0.050000X-0.720475X-0.208365X-0.001703X-0.749998X0.720475X0.208365X0.001703X0.749998X0*%
%ADD24RoundRect,0.050000X-1.220758X-0.332229X0.017127X-1.265042X1.220758X0.332229X-0.017127X1.265042X0*%
%ADD25RoundRect,0.050000X-1.400451X-0.196820X0.196820X-1.400451X1.400451X0.196820X-0.196820X1.400451X0*%
%ADD26RoundRect,0.260000X-0.390000X-0.665000X0.390000X-0.665000X0.390000X0.665000X-0.390000X0.665000X0*%
%ADD27O,1.300000X1.850000*%
%ADD28RoundRect,0.050000X-0.192469X-0.724883X0.641997X-0.387737X0.192469X0.724883X-0.641997X0.387737X0*%
%ADD29RoundRect,0.050000X0.001703X-0.749998X0.720475X-0.208365X-0.001703X0.749998X-0.720475X0.208365X0*%
%ADD30RoundRect,0.050000X-0.550153X-1.139279X0.965976X-0.817016X0.550153X1.139279X-0.965976X0.817016X0*%
%ADD31RoundRect,0.050000X-0.770236X-1.186059X1.186059X-0.770236X0.770236X1.186059X-1.186059X0.770236X0*%
%ADD32RoundRect,0.050000X-1.093174X-0.636864X0.343961X-1.217504X1.093174X0.636864X-0.343961X1.217504X0*%
%ADD33RoundRect,0.050000X-1.301790X-0.552577X0.552577X-1.301790X1.301790X0.552577X-0.552577X1.301790X0*%
%ADD34C,1.800000*%
%ADD35RoundRect,0.050000X0.633013X0.096410X-0.233013X0.596410X-0.633013X-0.096410X0.233013X-0.596410X0*%
%ADD36C,1.000000*%
%ADD37RoundRect,0.050000X0.678109X0.474519X0.071891X0.824519X-0.678109X-0.474519X-0.071891X-0.824519X0*%
%ADD38RoundRect,0.050000X-0.017127X-1.265042X1.220758X-0.332229X0.017127X1.265042X-1.220758X0.332229X0*%
%ADD39RoundRect,0.050000X-0.196820X-1.400451X1.400451X-0.196820X0.196820X1.400451X-1.400451X0.196820X0*%
%ADD40RoundRect,0.050000X-0.641997X-0.387737X0.192469X-0.724883X0.641997X0.387737X-0.192469X0.724883X0*%
G04 APERTURE END LIST*
D10*
%TO.C,CPG1316*%
X255368687Y-111646612D03*
D11*
X255368687Y-111646612D03*
D10*
X258237600Y-110769493D03*
D11*
X258237600Y-110769493D03*
D12*
X248201587Y-104792578D03*
X251710049Y-116268234D03*
X260346665Y-101079458D03*
X263855127Y-112555114D03*
%TD*%
D10*
%TO.C,CPG1316*%
X117341951Y-110958297D03*
D13*
X117341951Y-110958297D03*
D10*
X120210866Y-111835408D03*
D13*
X120210866Y-111835408D03*
D14*
X111724423Y-112743911D03*
X115232889Y-101268256D03*
X123869493Y-116457030D03*
X127377959Y-104981375D03*
%TD*%
D10*
%TO.C,CPG1316*%
X122312271Y-94701119D03*
D13*
X122312271Y-94701119D03*
D10*
X125181186Y-95578230D03*
D13*
X125181186Y-95578230D03*
D14*
X116694743Y-96486733D03*
X120203209Y-85011078D03*
X128839813Y-100199852D03*
X132348279Y-88724197D03*
%TD*%
D10*
%TO.C,CPG1316*%
X126874571Y-137923620D03*
D13*
X126874571Y-137923620D03*
D10*
X129743486Y-138800731D03*
D13*
X129743486Y-138800731D03*
D14*
X121257043Y-139709234D03*
X124765509Y-128233579D03*
X133402113Y-143422353D03*
X136910579Y-131946698D03*
%TD*%
D15*
%TO.C,D34*%
X226409366Y-133728373D03*
X229565184Y-132763547D03*
%TD*%
D16*
%TO.C,D26*%
X275754944Y-112779312D03*
X278982840Y-112093212D03*
%TD*%
D10*
%TO.C,CPG1316*%
X232679328Y-95578236D03*
D11*
X232679328Y-95578236D03*
D10*
X235548241Y-94701117D03*
D11*
X235548241Y-94701117D03*
D12*
X225512228Y-88724202D03*
X229020690Y-100199858D03*
X237657306Y-85011082D03*
X241165768Y-96486738D03*
%TD*%
D10*
%TO.C,CPG1316*%
X74377567Y-133985994D03*
D17*
X74377567Y-133985994D03*
D10*
X77312009Y-134609731D03*
D17*
X77312009Y-134609731D03*
D18*
X68937044Y-136254417D03*
X71431985Y-124516654D03*
X81359519Y-138894890D03*
X83854460Y-127157127D03*
%TD*%
D10*
%TO.C,CPG1316*%
X104593236Y-94512337D03*
D13*
X104593236Y-94512337D03*
D10*
X107462151Y-95389448D03*
D13*
X107462151Y-95389448D03*
D14*
X98975708Y-96297951D03*
X102484174Y-84822296D03*
X111120778Y-100011070D03*
X114629244Y-88535415D03*
%TD*%
D19*
%TO.C,D10*%
X113792382Y-122055403D03*
X116948176Y-123020221D03*
%TD*%
D15*
%TO.C,D29*%
X253661050Y-106574235D03*
X256816868Y-105609409D03*
%TD*%
D16*
%TO.C,D25*%
X279289451Y-129407824D03*
X282517347Y-128721724D03*
%TD*%
D19*
%TO.C,D16*%
X143967776Y-139646473D03*
X147123570Y-140611291D03*
%TD*%
D10*
%TO.C,CPG1316*%
X228117025Y-138800750D03*
D11*
X228117025Y-138800750D03*
D10*
X230985938Y-137923631D03*
D11*
X230985938Y-137923631D03*
D12*
X220949925Y-131946716D03*
X224458387Y-143422372D03*
X233095003Y-128233596D03*
X236603465Y-139709252D03*
%TD*%
D10*
%TO.C,CPG1316*%
X218527225Y-163879310D03*
D20*
X218527225Y-163879310D03*
D10*
X221308783Y-162755488D03*
D20*
X221308783Y-162755488D03*
D21*
X210790039Y-157676010D03*
X215285317Y-168802212D03*
X222565279Y-152918510D03*
X227060557Y-164044712D03*
%TD*%
D19*
%TO.C,D9*%
X106013977Y-89352235D03*
X109169771Y-90317053D03*
%TD*%
D22*
%TO.C,D3*%
X65783648Y-91930200D03*
X69011564Y-92616310D03*
%TD*%
D10*
%TO.C,CPG1316*%
X152487658Y-112292201D03*
D13*
X152487658Y-112292201D03*
D10*
X155356573Y-113169312D03*
D13*
X155356573Y-113169312D03*
D14*
X146870130Y-114077815D03*
X150378596Y-102602160D03*
X159015200Y-117790934D03*
X162523666Y-106315279D03*
%TD*%
D22*
%TO.C,D2*%
X62249148Y-108558716D03*
X65477064Y-109244826D03*
%TD*%
D23*
%TO.C,D21*%
X155828155Y-167394790D03*
X158463643Y-169380762D03*
%TD*%
D10*
%TO.C,CPG1316*%
X77912085Y-117357489D03*
D17*
X77912085Y-117357489D03*
D10*
X80846527Y-117981226D03*
D17*
X80846527Y-117981226D03*
D18*
X72471562Y-119625912D03*
X74966503Y-107888149D03*
X84894037Y-122266385D03*
X87388978Y-110528622D03*
%TD*%
D15*
%TO.C,D35*%
X221439059Y-117471185D03*
X224594877Y-116506359D03*
%TD*%
D10*
%TO.C,CPG1316*%
X223146706Y-122543568D03*
D11*
X223146706Y-122543568D03*
D10*
X226015619Y-121666449D03*
D11*
X226015619Y-121666449D03*
D12*
X215979606Y-115689534D03*
X219488068Y-127165190D03*
X228124684Y-111976414D03*
X231633146Y-123452070D03*
%TD*%
D19*
%TO.C,D12*%
X123733004Y-89541039D03*
X126888798Y-90505857D03*
%TD*%
D10*
%TO.C,CPG1316*%
X152728241Y-171757747D03*
D24*
X152728241Y-171757747D03*
D10*
X155124144Y-173563186D03*
D24*
X155124144Y-173563186D03*
D25*
X146838772Y-171514369D03*
X154060559Y-161930745D03*
X156981443Y-179157419D03*
X164203230Y-169573795D03*
%TD*%
D16*
%TO.C,D23*%
X292383463Y-109244815D03*
X295611359Y-108558715D03*
%TD*%
D15*
%TO.C,D33*%
X230971691Y-90505863D03*
X234127509Y-89541037D03*
%TD*%
D26*
%TO.C,JST1*%
X164974995Y-118674998D03*
D27*
X166974987Y-118675008D03*
%TD*%
D22*
%TO.C,D4*%
X75343163Y-128721731D03*
X78571079Y-129407841D03*
%TD*%
D15*
%TO.C,D36*%
X216468734Y-101214008D03*
X219624552Y-100249182D03*
%TD*%
D28*
%TO.C,D41*%
X216384023Y-158975082D03*
X219443711Y-157738874D03*
%TD*%
D10*
%TO.C,CPG1316*%
X61283548Y-113822984D03*
D17*
X61283548Y-113822984D03*
D10*
X64217990Y-114446721D03*
D17*
X64217990Y-114446721D03*
D18*
X55843025Y-116091407D03*
X58337966Y-104353644D03*
X68265500Y-118731880D03*
X70760441Y-106994117D03*
%TD*%
D10*
%TO.C,CPG1316*%
X99622915Y-110769503D03*
D13*
X99622915Y-110769503D03*
D10*
X102491830Y-111646614D03*
D13*
X102491830Y-111646614D03*
D14*
X94005387Y-112555117D03*
X97513853Y-101079462D03*
X106150457Y-116268236D03*
X109658923Y-104792581D03*
%TD*%
D10*
%TO.C,CPG1316*%
X202503957Y-113169315D03*
D11*
X202503957Y-113169315D03*
D10*
X205372870Y-112292196D03*
D11*
X205372870Y-112292196D03*
D12*
X195336857Y-106315281D03*
X198845319Y-117790937D03*
X207481935Y-102602161D03*
X210990397Y-114077817D03*
%TD*%
D10*
%TO.C,CPG1316*%
X242619972Y-128092592D03*
D11*
X242619972Y-128092592D03*
D10*
X245488885Y-127215473D03*
D11*
X245488885Y-127215473D03*
D12*
X235452872Y-121238558D03*
X238961334Y-132714214D03*
X247597950Y-117525438D03*
X251106412Y-129001094D03*
%TD*%
D10*
%TO.C,CPG1316*%
X212444582Y-145683686D03*
D11*
X212444582Y-145683686D03*
D10*
X215313495Y-144806567D03*
D11*
X215313495Y-144806567D03*
D12*
X205277482Y-138829652D03*
X208785944Y-150305308D03*
X217422560Y-135116532D03*
X220931022Y-146592188D03*
%TD*%
D10*
%TO.C,CPG1316*%
X237649651Y-111835415D03*
D11*
X237649651Y-111835415D03*
D10*
X240518564Y-110958296D03*
D11*
X240518564Y-110958296D03*
D12*
X230482551Y-104981381D03*
X233991013Y-116457037D03*
X242627629Y-101268261D03*
X246136091Y-112743917D03*
%TD*%
D19*
%TO.C,D14*%
X133265661Y-116506372D03*
X136421455Y-117471190D03*
%TD*%
D29*
%TO.C,D42*%
X199396862Y-169380776D03*
X202032366Y-167394768D03*
%TD*%
D15*
%TO.C,D30*%
X248690733Y-90317065D03*
X251846551Y-89352239D03*
%TD*%
D16*
%TO.C,D22*%
X295917967Y-125873331D03*
X299145863Y-125187231D03*
%TD*%
D19*
%TO.C,D7*%
X96073339Y-121866596D03*
X99229133Y-122831414D03*
%TD*%
D10*
%TO.C,CPG1316*%
X290108013Y-97818222D03*
D30*
X290108013Y-97818222D03*
D10*
X293042455Y-97194490D03*
D30*
X293042455Y-97194490D03*
D31*
X286060498Y-102103387D03*
X283565562Y-90365623D03*
X298482974Y-99462907D03*
X295988038Y-87725143D03*
%TD*%
D10*
%TO.C,CPG1316*%
X280548486Y-134609724D03*
D30*
X280548486Y-134609724D03*
D10*
X283482928Y-133985992D03*
D30*
X283482928Y-133985992D03*
D31*
X276500971Y-138894889D03*
X274006035Y-127157125D03*
X288923447Y-136254409D03*
X286428511Y-124516645D03*
%TD*%
D15*
%TO.C,D28*%
X258631371Y-122831421D03*
X261787189Y-121866595D03*
%TD*%
%TO.C,D31*%
X240912331Y-123020216D03*
X244068149Y-122055390D03*
%TD*%
D10*
%TO.C,CPG1316*%
X120070842Y-156757344D03*
D13*
X120070842Y-156757344D03*
D10*
X122939757Y-157634455D03*
D13*
X122939757Y-157634455D03*
D14*
X114453314Y-158542958D03*
X117961780Y-147067303D03*
X126598384Y-162256077D03*
X130106850Y-150780422D03*
%TD*%
D22*
%TO.C,D6*%
X82412159Y-95464703D03*
X85640075Y-96150813D03*
%TD*%
D10*
%TO.C,CPG1316*%
X218176385Y-106286383D03*
D11*
X218176385Y-106286383D03*
D10*
X221045298Y-105409264D03*
D11*
X221045298Y-105409264D03*
D12*
X211009285Y-99432349D03*
X214517747Y-110908005D03*
X223154363Y-95719229D03*
X226662825Y-107194885D03*
%TD*%
D15*
%TO.C,D37*%
X210736935Y-140611292D03*
X213892753Y-139646466D03*
%TD*%
D10*
%TO.C,CPG1316*%
X293642496Y-114446720D03*
D30*
X293642496Y-114446720D03*
D10*
X296576938Y-113822988D03*
D30*
X296576938Y-113822988D03*
D31*
X289594981Y-118731885D03*
X287100045Y-106994121D03*
X302017457Y-116091405D03*
X299522521Y-104353641D03*
%TD*%
D10*
%TO.C,CPG1316*%
X142547015Y-144806565D03*
D13*
X142547015Y-144806565D03*
D10*
X145415930Y-145683676D03*
D13*
X145415930Y-145683676D03*
D14*
X136929487Y-146592179D03*
X140437953Y-135116524D03*
X149074557Y-150305298D03*
X152583023Y-138829643D03*
%TD*%
D10*
%TO.C,CPG1316*%
X131844906Y-121666462D03*
D13*
X131844906Y-121666462D03*
D10*
X134713821Y-122543573D03*
D13*
X134713821Y-122543573D03*
D14*
X126227378Y-123452076D03*
X129735844Y-111976421D03*
X138372448Y-127165195D03*
X141880914Y-115689540D03*
%TD*%
D15*
%TO.C,D40*%
X233213110Y-152562090D03*
X236368928Y-151597264D03*
%TD*%
D10*
%TO.C,CPG1316*%
X94652593Y-127026705D03*
D13*
X94652593Y-127026705D03*
D10*
X97521508Y-127903816D03*
D13*
X97521508Y-127903816D03*
D14*
X89035065Y-128812319D03*
X92543531Y-117336664D03*
X101180135Y-132525438D03*
X104688601Y-121049783D03*
%TD*%
D22*
%TO.C,D5*%
X78877655Y-112093221D03*
X82105571Y-112779331D03*
%TD*%
D10*
%TO.C,CPG1316*%
X234920755Y-157634456D03*
D11*
X234920755Y-157634456D03*
D10*
X237789668Y-156757337D03*
D11*
X237789668Y-156757337D03*
D12*
X227753655Y-150780422D03*
X231262117Y-162256078D03*
X239898733Y-147067302D03*
X243407195Y-158542958D03*
%TD*%
D10*
%TO.C,CPG1316*%
X277014003Y-117981227D03*
D30*
X277014003Y-117981227D03*
D10*
X279948445Y-117357495D03*
D30*
X279948445Y-117357495D03*
D31*
X272966488Y-122266392D03*
X270471552Y-110528628D03*
X285388964Y-119625912D03*
X282894028Y-107888148D03*
%TD*%
D19*
%TO.C,D19*%
X121491591Y-151597274D03*
X124647385Y-152562092D03*
%TD*%
D10*
%TO.C,CPG1316*%
X64818053Y-97194483D03*
D17*
X64818053Y-97194483D03*
D10*
X67752495Y-97818220D03*
D17*
X67752495Y-97818220D03*
D18*
X59377530Y-99462906D03*
X61872471Y-87725143D03*
X71800005Y-102103379D03*
X74294946Y-90365616D03*
%TD*%
D10*
%TO.C,CPG1316*%
X81446570Y-100728969D03*
D17*
X81446570Y-100728969D03*
D10*
X84381012Y-101352706D03*
D17*
X84381012Y-101352706D03*
D18*
X76006047Y-102997392D03*
X78500988Y-91259629D03*
X88428522Y-105637865D03*
X90923463Y-93900102D03*
%TD*%
D15*
%TO.C,D38*%
X205766622Y-124354122D03*
X208922440Y-123389296D03*
%TD*%
D10*
%TO.C,CPG1316*%
X136551736Y-162755497D03*
D32*
X136551736Y-162755497D03*
D10*
X139333287Y-163879313D03*
D32*
X139333287Y-163879313D03*
D33*
X130799957Y-164044718D03*
X135295241Y-152918513D03*
X142575193Y-168802225D03*
X147070477Y-157676020D03*
%TD*%
D34*
%TO.C,RST1*%
X167074989Y-115349995D03*
X167075005Y-108850003D03*
%TD*%
D10*
%TO.C,CPG1316*%
X207474261Y-129426487D03*
D11*
X207474261Y-129426487D03*
D10*
X210343174Y-128549368D03*
D11*
X210343174Y-128549368D03*
D12*
X200307161Y-122572453D03*
X203815623Y-134048109D03*
X212452239Y-118859333D03*
X215960701Y-130334989D03*
%TD*%
D10*
%TO.C,CPG1316*%
X260338998Y-127903815D03*
D11*
X260338998Y-127903815D03*
D10*
X263207911Y-127026696D03*
D11*
X263207911Y-127026696D03*
D12*
X253171898Y-121049781D03*
X256680360Y-132525437D03*
X265316976Y-117336661D03*
X268825438Y-128812317D03*
%TD*%
D10*
%TO.C,CPG1316*%
X147517341Y-128549383D03*
D13*
X147517341Y-128549383D03*
D10*
X150386256Y-129426494D03*
D13*
X150386256Y-129426494D03*
D14*
X141899813Y-130334997D03*
X145408279Y-118859342D03*
X154044883Y-134048116D03*
X157553349Y-122572461D03*
%TD*%
D19*
%TO.C,D13*%
X128295334Y-132763542D03*
X131451128Y-133728360D03*
%TD*%
D15*
%TO.C,D39*%
X200796286Y-108096937D03*
X203952104Y-107132111D03*
%TD*%
D10*
%TO.C,CPG1316*%
X297177003Y-131075223D03*
D30*
X297177003Y-131075223D03*
D10*
X300111445Y-130451491D03*
D30*
X300111445Y-130451491D03*
D31*
X293129488Y-135360388D03*
X290634552Y-123622624D03*
X305551964Y-132719908D03*
X303057028Y-120982144D03*
%TD*%
D35*
%TO.C,PWR1*%
X142431952Y-93311297D03*
X136109983Y-89661286D03*
D36*
X138526925Y-89774998D03*
X141124994Y-91274989D03*
D35*
X137214959Y-87747365D03*
X143536955Y-91397370D03*
D37*
X140894517Y-93174204D03*
X138296441Y-91674211D03*
X136997410Y-90924204D03*
%TD*%
D16*
%TO.C,D27*%
X272220457Y-96150797D03*
X275448353Y-95464697D03*
%TD*%
D10*
%TO.C,CPG1316*%
X136815226Y-105409286D03*
D13*
X136815226Y-105409286D03*
D10*
X139684141Y-106286397D03*
D13*
X139684141Y-106286397D03*
D14*
X131197698Y-107194900D03*
X134706164Y-95719245D03*
X143342768Y-110908019D03*
X146851234Y-99432364D03*
%TD*%
D19*
%TO.C,D15*%
X138235976Y-100249180D03*
X141391770Y-101213998D03*
%TD*%
%TO.C,D17*%
X148938089Y-123389294D03*
X152093883Y-124354112D03*
%TD*%
%TO.C,D8*%
X101043666Y-105609427D03*
X104199460Y-106574245D03*
%TD*%
%TO.C,D11*%
X118762692Y-105798217D03*
X121918486Y-106763035D03*
%TD*%
D15*
%TO.C,D32*%
X235942016Y-106763040D03*
X239097834Y-105798214D03*
%TD*%
D22*
%TO.C,D1*%
X58714651Y-125187220D03*
X61942567Y-125873330D03*
%TD*%
D10*
%TO.C,CPG1316*%
X250398366Y-95389438D03*
D11*
X250398366Y-95389438D03*
D10*
X253267279Y-94512319D03*
D11*
X253267279Y-94512319D03*
D12*
X243231266Y-88535404D03*
X246739728Y-100011060D03*
X255376344Y-84822284D03*
X258884806Y-96297940D03*
%TD*%
D10*
%TO.C,CPG1316*%
X112371623Y-127215495D03*
D13*
X112371623Y-127215495D03*
D10*
X115240538Y-128092606D03*
D13*
X115240538Y-128092606D03*
D14*
X106754095Y-129001109D03*
X110262561Y-117525454D03*
X118899165Y-132714228D03*
X122407631Y-121238573D03*
%TD*%
D19*
%TO.C,D18*%
X153908407Y-107132118D03*
X157064201Y-108096936D03*
%TD*%
D10*
%TO.C,CPG1316*%
X202736362Y-173563196D03*
D38*
X202736362Y-173563196D03*
D10*
X205132273Y-171757753D03*
D38*
X205132273Y-171757753D03*
D39*
X193657281Y-169573806D03*
X200879064Y-179157425D03*
X203799952Y-161930757D03*
X211021735Y-171514376D03*
%TD*%
D10*
%TO.C,CPG1316*%
X273479510Y-101352715D03*
D30*
X273479510Y-101352715D03*
D10*
X276413952Y-100728983D03*
D30*
X276413952Y-100728983D03*
D31*
X269431995Y-105637880D03*
X266937059Y-93900116D03*
X281854471Y-102997400D03*
X279359535Y-91259636D03*
%TD*%
D40*
%TO.C,D20*%
X138416795Y-157738879D03*
X141476503Y-158975079D03*
%TD*%
D16*
%TO.C,D24*%
X288848962Y-92616314D03*
X292076858Y-91930214D03*
%TD*%
D10*
%TO.C,CPG1316*%
X57749061Y-130451493D03*
D17*
X57749061Y-130451493D03*
D10*
X60683503Y-131075230D03*
D17*
X60683503Y-131075230D03*
D18*
X52308538Y-132719916D03*
X54803479Y-120982153D03*
X64731013Y-135360389D03*
X67225954Y-123622626D03*
%TD*%
D34*
%TO.C,MCU1*%
X186524989Y-107834997D03*
X186524986Y-110374992D03*
X186524993Y-112915000D03*
X186524999Y-115454997D03*
X186525000Y-117995009D03*
X186524999Y-120534996D03*
X186524989Y-123075004D03*
X186524993Y-125615001D03*
X186524990Y-128154997D03*
X186524992Y-130695006D03*
X186524994Y-133234990D03*
X186524992Y-135775004D03*
X171284993Y-135774999D03*
X171284997Y-133234997D03*
X171285000Y-130695002D03*
X171284993Y-128154994D03*
X171284987Y-125614997D03*
X171284986Y-123074985D03*
X171284987Y-120534998D03*
X171284997Y-117994990D03*
X171284993Y-115454993D03*
X171284996Y-112914997D03*
X171284994Y-110374988D03*
X171284992Y-107835004D03*
%TD*%
M02*
