%TF.GenerationSoftware,KiCad,Pcbnew,8.0.6*%
%TF.CreationDate,2025-05-17T18:11:55+02:00*%
%TF.ProjectId,main,6d61696e-2e6b-4696-9361-645f70636258,v1.0.0*%
%TF.SameCoordinates,Original*%
%TF.FileFunction,Copper,L2,Bot*%
%TF.FilePolarity,Positive*%
%FSLAX46Y46*%
G04 Gerber Fmt 4.6, Leading zero omitted, Abs format (unit mm)*
G04 Created by KiCad (PCBNEW 8.0.6) date 2025-05-17 18:11:55*
%MOMM*%
%LPD*%
G01*
G04 APERTURE LIST*
G04 Aperture macros list*
%AMRoundRect*
0 Rectangle with rounded corners*
0 $1 Rounding radius*
0 $2 $3 $4 $5 $6 $7 $8 $9 X,Y pos of 4 corners*
0 Add a 4 corners polygon primitive as box body*
4,1,4,$2,$3,$4,$5,$6,$7,$8,$9,$2,$3,0*
0 Add four circle primitives for the rounded corners*
1,1,$1+$1,$2,$3*
1,1,$1+$1,$4,$5*
1,1,$1+$1,$6,$7*
1,1,$1+$1,$8,$9*
0 Add four rect primitives between the rounded corners*
20,1,$1+$1,$2,$3,$4,$5,0*
20,1,$1+$1,$4,$5,$6,$7,0*
20,1,$1+$1,$6,$7,$8,$9,0*
20,1,$1+$1,$8,$9,$2,$3,0*%
%AMRotRect*
0 Rectangle, with rotation*
0 The origin of the aperture is its center*
0 $1 length*
0 $2 width*
0 $3 Rotation angle, in degrees counterclockwise*
0 Add horizontal line*
21,1,$1,$2,0,0,$3*%
G04 Aperture macros list end*
%TA.AperFunction,ComponentPad*%
%ADD10C,1.498000*%
%TD*%
%TA.AperFunction,ComponentPad*%
%ADD11R,1.498000X1.498000*%
%TD*%
%TA.AperFunction,SMDPad,CuDef*%
%ADD12RotRect,0.900000X1.200000X348.000000*%
%TD*%
%TA.AperFunction,SMDPad,CuDef*%
%ADD13RotRect,0.900000X1.200000X343.000000*%
%TD*%
%TA.AperFunction,SMDPad,CuDef*%
%ADD14RotRect,0.900000X1.200000X338.000000*%
%TD*%
%TA.AperFunction,SMDPad,CuDef*%
%ADD15RotRect,0.900000X1.200000X323.000000*%
%TD*%
%TA.AperFunction,SMDPad,CuDef*%
%ADD16RotRect,0.900000X1.200000X12.000000*%
%TD*%
%TA.AperFunction,SMDPad,CuDef*%
%ADD17RotRect,0.900000X1.200000X17.000000*%
%TD*%
%TA.AperFunction,SMDPad,CuDef*%
%ADD18RotRect,0.900000X1.200000X22.000000*%
%TD*%
%TA.AperFunction,SMDPad,CuDef*%
%ADD19RotRect,0.900000X1.200000X37.000000*%
%TD*%
%TA.AperFunction,ComponentPad*%
%ADD20C,1.700000*%
%TD*%
%TA.AperFunction,ComponentPad*%
%ADD21RoundRect,0.240000X-0.360000X-0.635000X0.360000X-0.635000X0.360000X0.635000X-0.360000X0.635000X0*%
%TD*%
%TA.AperFunction,ComponentPad*%
%ADD22O,1.200000X1.750000*%
%TD*%
%TA.AperFunction,ComponentPad*%
%ADD23C,3.800000*%
%TD*%
%TA.AperFunction,ViaPad*%
%ADD24C,0.600000*%
%TD*%
%TA.AperFunction,Conductor*%
%ADD25C,0.200000*%
%TD*%
%TA.AperFunction,Conductor*%
%ADD26C,0.250000*%
%TD*%
G04 APERTURE END LIST*
D10*
%TO.P,REF\u002A\u002A,3*%
%TO.N,RST*%
X180000000Y-120250000D03*
D11*
%TO.P,REF\u002A\u002A,1*%
X175500000Y-120250000D03*
D10*
%TO.P,REF\u002A\u002A,4*%
%TO.N,GND*%
X180000000Y-113750000D03*
%TO.P,REF\u002A\u002A,2*%
X175500000Y-113750000D03*
%TD*%
D12*
%TO.P,D1,1*%
%TO.N,P19*%
X58714665Y-125187224D03*
%TO.P,D1,2*%
%TO.N,outer_bottom*%
X61942553Y-125873332D03*
%TD*%
%TO.P,D2,1*%
%TO.N,P20*%
X62664988Y-106602420D03*
%TO.P,D2,2*%
%TO.N,outer_home*%
X65892876Y-107288528D03*
%TD*%
%TO.P,D3,1*%
%TO.N,P21*%
X66615310Y-88017615D03*
%TO.P,D3,2*%
%TO.N,outer_top*%
X69843198Y-88703723D03*
%TD*%
%TO.P,D4,1*%
%TO.N,P19*%
X77299470Y-129137546D03*
%TO.P,D4,2*%
%TO.N,pinky_bottom*%
X80527358Y-129823654D03*
%TD*%
%TO.P,D5,1*%
%TO.N,P20*%
X81249792Y-110552742D03*
%TO.P,D5,2*%
%TO.N,pinky_home*%
X84477680Y-111238850D03*
%TD*%
%TO.P,D6,1*%
%TO.N,P21*%
X85200114Y-91967937D03*
%TO.P,D6,2*%
%TO.N,pinky_top*%
X88428002Y-92654045D03*
%TD*%
D13*
%TO.P,D7,1*%
%TO.N,P19*%
X99985924Y-122698248D03*
%TO.P,D7,2*%
%TO.N,ring_bottom*%
X103141730Y-123663074D03*
%TD*%
%TO.P,D8,1*%
%TO.N,P20*%
X105540986Y-104528457D03*
%TO.P,D8,2*%
%TO.N,ring_home*%
X108696792Y-105493283D03*
%TD*%
%TO.P,D9,1*%
%TO.N,P21*%
X111096048Y-86358667D03*
%TO.P,D9,2*%
%TO.N,ring_top*%
X114251854Y-87323493D03*
%TD*%
%TO.P,D10,1*%
%TO.N,P19*%
X119617572Y-123471787D03*
%TO.P,D10,2*%
%TO.N,middle_bottom*%
X122773378Y-124436613D03*
%TD*%
%TO.P,D11,1*%
%TO.N,P20*%
X125172635Y-105301996D03*
%TO.P,D11,2*%
%TO.N,middle_home*%
X128328441Y-106266822D03*
%TD*%
%TO.P,D12,1*%
%TO.N,P21*%
X130727697Y-87132206D03*
%TO.P,D12,2*%
%TO.N,middle_top*%
X133883503Y-88097032D03*
%TD*%
%TO.P,D13,1*%
%TO.N,P19*%
X136033133Y-134764677D03*
%TO.P,D13,2*%
%TO.N,index_bottom*%
X139188939Y-135729503D03*
%TD*%
%TO.P,D14,1*%
%TO.N,P20*%
X141588195Y-116594887D03*
%TO.P,D14,2*%
%TO.N,index_home*%
X144744001Y-117559713D03*
%TD*%
%TO.P,D15,1*%
%TO.N,P21*%
X147143257Y-98425097D03*
%TO.P,D15,2*%
%TO.N,index_top*%
X150299063Y-99389923D03*
%TD*%
%TO.P,D16,1*%
%TO.N,P19*%
X153618180Y-142232349D03*
%TO.P,D16,2*%
%TO.N,inner_bottom*%
X156773986Y-143197175D03*
%TD*%
%TO.P,D17,1*%
%TO.N,P20*%
X159173242Y-124062559D03*
%TO.P,D17,2*%
%TO.N,inner_home*%
X162329048Y-125027385D03*
%TD*%
%TO.P,D18,1*%
%TO.N,P21*%
X164728304Y-105892769D03*
%TO.P,D18,2*%
%TO.N,inner_top*%
X167884110Y-106857595D03*
%TD*%
%TO.P,D19,1*%
%TO.N,P18*%
X133426174Y-156972869D03*
%TO.P,D19,2*%
%TO.N,near_thumb*%
X136581980Y-157937695D03*
%TD*%
D14*
%TO.P,D20,1*%
%TO.N,P18*%
X154415678Y-164357054D03*
%TO.P,D20,2*%
%TO.N,home_thumb*%
X157475384Y-165593256D03*
%TD*%
D15*
%TO.P,D21,1*%
%TO.N,P18*%
X175767568Y-175605046D03*
%TO.P,D21,2*%
%TO.N,far_thumb*%
X178403066Y-177591036D03*
%TD*%
D16*
%TO.P,D22,1*%
%TO.N,P2*%
X318662195Y-125873332D03*
%TO.P,D22,2*%
%TO.N,mirror_outer_bottom*%
X321890083Y-125187224D03*
%TD*%
%TO.P,D23,1*%
%TO.N,P0*%
X314711873Y-107288528D03*
%TO.P,D23,2*%
%TO.N,mirror_outer_home*%
X317939761Y-106602420D03*
%TD*%
%TO.P,D24,1*%
%TO.N,P1*%
X310761551Y-88703723D03*
%TO.P,D24,2*%
%TO.N,mirror_outer_top*%
X313989439Y-88017615D03*
%TD*%
%TO.P,D25,1*%
%TO.N,P2*%
X300077391Y-129823654D03*
%TO.P,D25,2*%
%TO.N,mirror_pinky_bottom*%
X303305279Y-129137546D03*
%TD*%
%TO.P,D26,1*%
%TO.N,P0*%
X296127069Y-111238850D03*
%TO.P,D26,2*%
%TO.N,mirror_pinky_home*%
X299354957Y-110552742D03*
%TD*%
%TO.P,D27,1*%
%TO.N,P1*%
X292176747Y-92654045D03*
%TO.P,D27,2*%
%TO.N,mirror_pinky_top*%
X295404635Y-91967937D03*
%TD*%
D17*
%TO.P,D28,1*%
%TO.N,P2*%
X277463019Y-123663074D03*
%TO.P,D28,2*%
%TO.N,mirror_ring_bottom*%
X280618825Y-122698248D03*
%TD*%
%TO.P,D29,1*%
%TO.N,P0*%
X271907957Y-105493283D03*
%TO.P,D29,2*%
%TO.N,mirror_ring_home*%
X275063763Y-104528457D03*
%TD*%
%TO.P,D30,1*%
%TO.N,P1*%
X266352894Y-87323493D03*
%TO.P,D30,2*%
%TO.N,mirror_ring_top*%
X269508700Y-86358667D03*
%TD*%
%TO.P,D31,1*%
%TO.N,P2*%
X257831370Y-124436613D03*
%TO.P,D31,2*%
%TO.N,mirror_middle_bottom*%
X260987176Y-123471787D03*
%TD*%
%TO.P,D32,1*%
%TO.N,P0*%
X252276308Y-106266822D03*
%TO.P,D32,2*%
%TO.N,mirror_middle_home*%
X255432114Y-105301996D03*
%TD*%
%TO.P,D33,1*%
%TO.N,P1*%
X246721245Y-88097032D03*
%TO.P,D33,2*%
%TO.N,mirror_middle_top*%
X249877051Y-87132206D03*
%TD*%
%TO.P,D34,1*%
%TO.N,P2*%
X241415810Y-135729503D03*
%TO.P,D34,2*%
%TO.N,mirror_index_bottom*%
X244571616Y-134764677D03*
%TD*%
%TO.P,D35,1*%
%TO.N,P0*%
X235860748Y-117559713D03*
%TO.P,D35,2*%
%TO.N,mirror_index_home*%
X239016554Y-116594887D03*
%TD*%
%TO.P,D36,1*%
%TO.N,P1*%
X230305685Y-99389923D03*
%TO.P,D36,2*%
%TO.N,mirror_index_top*%
X233461491Y-98425097D03*
%TD*%
%TO.P,D37,1*%
%TO.N,P2*%
X223830763Y-143197175D03*
%TO.P,D37,2*%
%TO.N,mirror_inner_bottom*%
X226986569Y-142232349D03*
%TD*%
%TO.P,D38,1*%
%TO.N,P0*%
X218275701Y-125027385D03*
%TO.P,D38,2*%
%TO.N,mirror_inner_home*%
X221431507Y-124062559D03*
%TD*%
%TO.P,D39,1*%
%TO.N,P1*%
X212720638Y-106857595D03*
%TO.P,D39,2*%
%TO.N,mirror_inner_top*%
X215876444Y-105892769D03*
%TD*%
%TO.P,D40,1*%
%TO.N,P3*%
X244022768Y-157937695D03*
%TO.P,D40,2*%
%TO.N,mirror_near_thumb*%
X247178574Y-156972869D03*
%TD*%
D18*
%TO.P,D41,1*%
%TO.N,P3*%
X223129365Y-165593256D03*
%TO.P,D41,2*%
%TO.N,mirror_home_thumb*%
X226189071Y-164357054D03*
%TD*%
D19*
%TO.P,D42,1*%
%TO.N,P3*%
X202201683Y-177591036D03*
%TO.P,D42,2*%
%TO.N,mirror_far_thumb*%
X204837181Y-175605046D03*
%TD*%
D20*
%TO.P,MCU1,24*%
%TO.N,RAW*%
X182880000Y-105920000D03*
%TO.P,MCU1,1*%
%TO.N,P1*%
X198120000Y-105920000D03*
%TO.P,MCU1,23*%
%TO.N,GND*%
X182880000Y-108460000D03*
%TO.P,MCU1,2*%
%TO.N,P0*%
X198120000Y-108460000D03*
%TO.P,MCU1,22*%
%TO.N,RST*%
X182880000Y-111000000D03*
%TO.P,MCU1,3*%
%TO.N,GND*%
X198120000Y-111000000D03*
%TO.P,MCU1,21*%
%TO.N,VCC*%
X182880000Y-113540000D03*
%TO.P,MCU1,4*%
%TO.N,GND*%
X198120000Y-113540000D03*
%TO.P,MCU1,20*%
%TO.N,P21*%
X182880000Y-116080000D03*
%TO.P,MCU1,5*%
%TO.N,P2*%
X198120000Y-116080000D03*
%TO.P,MCU1,19*%
%TO.N,P20*%
X182880000Y-118620000D03*
%TO.P,MCU1,6*%
%TO.N,P3*%
X198120000Y-118620000D03*
%TO.P,MCU1,18*%
%TO.N,P19*%
X182880000Y-121160000D03*
%TO.P,MCU1,7*%
%TO.N,P4*%
X198120000Y-121160000D03*
%TO.P,MCU1,17*%
%TO.N,P18*%
X182880000Y-123700000D03*
%TO.P,MCU1,8*%
%TO.N,P5*%
X198120000Y-123700000D03*
%TO.P,MCU1,16*%
%TO.N,P15*%
X182880000Y-126240000D03*
%TO.P,MCU1,9*%
%TO.N,P6*%
X198120000Y-126240000D03*
%TO.P,MCU1,15*%
%TO.N,P14*%
X182880000Y-128780000D03*
%TO.P,MCU1,10*%
%TO.N,P7*%
X198120000Y-128780000D03*
%TO.P,MCU1,14*%
%TO.N,P16*%
X182880000Y-131320000D03*
%TO.P,MCU1,11*%
%TO.N,P8*%
X198120000Y-131320000D03*
%TO.P,MCU1,13*%
%TO.N,P10*%
X182880000Y-133860000D03*
%TO.P,MCU1,12*%
%TO.N,P9*%
X198120000Y-133860000D03*
%TD*%
D21*
%TO.P,JST1,1*%
%TO.N,GND*%
X176500000Y-124000000D03*
D22*
%TO.P,JST1,2*%
%TO.N,BAT_P*%
X178500000Y-124000000D03*
%TD*%
D23*
%TO.P,H1,*%
%TO.N,*%
X75231512Y-102168249D03*
%TD*%
%TO.P,H2,*%
%TO.N,*%
X305373236Y-102168249D03*
%TD*%
%TO.P,H3,*%
%TO.N,*%
X68744668Y-132686454D03*
%TD*%
%TO.P,H4,*%
%TO.N,*%
X311860081Y-132686454D03*
%TD*%
%TO.P,H5,*%
%TO.N,*%
X119860869Y-97194737D03*
%TD*%
%TO.P,H6,*%
%TO.N,*%
X109629682Y-127581170D03*
%TD*%
%TO.P,H7,*%
%TO.N,*%
X260743880Y-97194737D03*
%TD*%
%TO.P,H8,*%
%TO.N,*%
X270975067Y-127581170D03*
%TD*%
%TO.P,H9,*%
%TO.N,*%
X153900578Y-113980440D03*
%TD*%
%TO.P,H10,*%
%TO.N,*%
X226704171Y-113980440D03*
%TD*%
%TO.P,H11,*%
%TO.N,*%
X165145313Y-173437661D03*
%TD*%
%TO.P,H12,*%
%TO.N,*%
X215459436Y-173437661D03*
%TD*%
D24*
%TO.N,BAT_P*%
X152000000Y-97500000D03*
%TO.N,RAW*%
X153000000Y-96500000D03*
%TO.N,P8*%
X173750000Y-111750000D03*
%TO.N,P7*%
X173307692Y-112692308D03*
%TO.N,P6*%
X173000000Y-113500000D03*
%TO.N,P5*%
X172500000Y-114500000D03*
%TO.N,P4*%
X172000000Y-115500000D03*
X204500000Y-135000000D03*
%TO.N,P5*%
X203500000Y-135000000D03*
%TO.N,P6*%
X202500000Y-135000000D03*
%TO.N,P7*%
X201500000Y-135000000D03*
%TO.N,P8*%
X200500000Y-135000000D03*
X146500000Y-104000000D03*
%TO.N,P7*%
X130000000Y-92500000D03*
%TO.N,P6*%
X110500000Y-92000000D03*
%TO.N,P5*%
X85000000Y-97500000D03*
%TO.N,P4*%
X66500000Y-93500000D03*
%TO.N,outer_bottom*%
X63116330Y-126122826D03*
%TO.N,P19*%
X57540889Y-124937730D03*
%TO.N,outer_home*%
X67066652Y-107538022D03*
%TO.N,P20*%
X61491211Y-106352925D03*
%TO.N,outer_top*%
X71016974Y-88953217D03*
%TO.N,P21*%
X65441533Y-87768121D03*
%TO.N,pinky_bottom*%
X81701134Y-130073148D03*
%TO.N,P19*%
X76125693Y-128888052D03*
%TO.N,pinky_home*%
X85651457Y-111488344D03*
%TO.N,P20*%
X80076015Y-110303247D03*
%TO.N,pinky_top*%
X89601779Y-92903540D03*
%TO.N,P21*%
X84026337Y-91718443D03*
%TO.N,ring_bottom*%
X104289295Y-124013920D03*
%TO.N,P19*%
X98838358Y-122347401D03*
%TO.N,ring_home*%
X109844358Y-105844130D03*
%TO.N,P20*%
X104393420Y-104177611D03*
%TO.N,ring_top*%
X115399420Y-87674339D03*
%TO.N,P21*%
X109948483Y-86007821D03*
%TO.N,middle_bottom*%
X123920944Y-124787459D03*
%TO.N,P19*%
X118470007Y-123120940D03*
%TO.N,middle_home*%
X129476006Y-106617669D03*
%TO.N,P20*%
X124025069Y-104951150D03*
%TO.N,middle_top*%
X135031069Y-88447878D03*
%TO.N,P21*%
X129580132Y-86781359D03*
%TO.N,index_bottom*%
X140336504Y-136080350D03*
%TO.N,P19*%
X134885567Y-134413831D03*
%TO.N,index_home*%
X145891567Y-117910559D03*
%TO.N,P20*%
X140440629Y-116244041D03*
%TO.N,index_top*%
X151446629Y-99740769D03*
%TO.N,P21*%
X145995692Y-98074250D03*
%TO.N,inner_bottom*%
X157921551Y-143548022D03*
%TO.N,P19*%
X152470614Y-141881503D03*
%TO.N,inner_home*%
X163476614Y-125378231D03*
%TO.N,P20*%
X158025676Y-123711712D03*
%TO.N,inner_top*%
X169031676Y-107208441D03*
%TO.N,P21*%
X163580739Y-105541922D03*
%TO.N,near_thumb*%
X137729546Y-158288541D03*
%TO.N,P18*%
X132278609Y-156622022D03*
%TO.N,home_thumb*%
X158588005Y-166042784D03*
%TO.N,P18*%
X153303057Y-163907526D03*
%TO.N,far_thumb*%
X179361428Y-178313214D03*
%TO.N,P18*%
X174809206Y-174882868D03*
%TO.N,mirror_outer_bottom*%
X323063860Y-124937730D03*
%TO.N,P2*%
X317488419Y-126122826D03*
%TO.N,mirror_outer_home*%
X319113538Y-106352925D03*
%TO.N,P0*%
X313538096Y-107538022D03*
%TO.N,mirror_outer_top*%
X315163216Y-87768121D03*
%TO.N,P1*%
X309587774Y-88953217D03*
%TO.N,mirror_pinky_bottom*%
X304479056Y-128888052D03*
%TO.N,P2*%
X298903614Y-130073148D03*
%TO.N,mirror_pinky_home*%
X300528733Y-110303247D03*
%TO.N,P0*%
X294953292Y-111488344D03*
%TO.N,mirror_pinky_top*%
X296578411Y-91718443D03*
%TO.N,P1*%
X291002970Y-92903540D03*
%TO.N,mirror_ring_bottom*%
X281766391Y-122347401D03*
%TO.N,P2*%
X276315453Y-124013920D03*
%TO.N,mirror_ring_home*%
X276211328Y-104177611D03*
%TO.N,P0*%
X270760391Y-105844130D03*
%TO.N,mirror_ring_top*%
X270656266Y-86007821D03*
%TO.N,P1*%
X265205329Y-87674339D03*
%TO.N,mirror_middle_bottom*%
X262134742Y-123120940D03*
%TO.N,P2*%
X256683805Y-124787459D03*
%TO.N,mirror_middle_home*%
X256579679Y-104951150D03*
%TO.N,P0*%
X251128742Y-106617669D03*
%TO.N,mirror_middle_top*%
X251024617Y-86781359D03*
%TO.N,P1*%
X245573680Y-88447878D03*
%TO.N,mirror_index_bottom*%
X245719182Y-134413831D03*
%TO.N,P2*%
X240268244Y-136080350D03*
%TO.N,mirror_index_home*%
X240164119Y-116244041D03*
%TO.N,P0*%
X234713182Y-117910559D03*
%TO.N,mirror_index_top*%
X234609057Y-98074250D03*
%TO.N,P1*%
X229158120Y-99740769D03*
%TO.N,mirror_inner_bottom*%
X228134135Y-141881503D03*
%TO.N,P2*%
X222683197Y-143548022D03*
%TO.N,mirror_inner_home*%
X222579072Y-123711712D03*
%TO.N,P0*%
X217128135Y-125378231D03*
%TO.N,mirror_inner_top*%
X217024010Y-105541922D03*
%TO.N,P1*%
X211573073Y-107208441D03*
%TO.N,mirror_near_thumb*%
X248326140Y-156622022D03*
%TO.N,P3*%
X242875203Y-158288541D03*
%TO.N,mirror_home_thumb*%
X227301692Y-163907526D03*
%TO.N,P3*%
X222016744Y-166042784D03*
%TO.N,mirror_far_thumb*%
X205795543Y-174882868D03*
%TO.N,P3*%
X201243320Y-178313214D03*
%TD*%
D25*
%TO.N,BAT_P*%
X176598612Y-125500000D02*
G75*
G03*
X178000007Y-124750005I-12J1684300D01*
G01*
X166460533Y-104778163D02*
G75*
G03*
X164500000Y-104499998I-1960533J-6769937D01*
G01*
X175560660Y-125500000D02*
G75*
G02*
X173750012Y-124749988I40J2560700D01*
G01*
X172645595Y-106816048D02*
G75*
G03*
X172249996Y-106485304I-721695J-461252D01*
G01*
X161750000Y-103999999D02*
G75*
G02*
X159186032Y-101872130I1136600J3978199D01*
G01*
X164500000Y-104500000D02*
G75*
G02*
X162538475Y-104225280I0J7140100D01*
G01*
X174000000Y-113869120D02*
G75*
G02*
X174175000Y-113175000I1464000J20D01*
G01*
X173750000Y-124750000D02*
G75*
G02*
X172999984Y-122939339I1810700J1810700D01*
G01*
X174000000Y-115598612D02*
G75*
G02*
X173499997Y-117249998I-2977100J12D01*
G01*
X172250000Y-106485294D02*
G75*
G03*
X171740305Y-106307146I-1891600J-4593806D01*
G01*
X175000000Y-111464976D02*
G75*
G02*
X174675009Y-112425007I-1580400J-24D01*
G01*
X174574222Y-112556786D02*
G75*
G03*
X174175002Y-113175001I3682478J-2816014D01*
G01*
X159000000Y-101500000D02*
G75*
G03*
X155878676Y-98792901I-4828400J-2414200D01*
G01*
X173000000Y-118901387D02*
G75*
G02*
X173500003Y-117250002I2977100J-13D01*
G01*
X175000000Y-111250000D02*
G75*
G03*
X174596121Y-109868033I-2566300J0D01*
G01*
%TO.N,RST*%
X181496209Y-116647923D02*
G75*
G02*
X180750005Y-119125003I-4443109J-12477D01*
G01*
X182182268Y-111742268D02*
G75*
G03*
X181487369Y-113503252I1865732J-1753832D01*
G01*
%TO.N,GND*%
X174750000Y-118250000D02*
G75*
G03*
X173999954Y-120060660I1810600J-1810700D01*
G01*
X174000000Y-121653708D02*
G75*
G03*
X175250007Y-123499983I1988500J8D01*
G01*
X181031236Y-110090507D02*
G75*
G03*
X179999989Y-112375000I2014764J-2284493D01*
G01*
X175500000Y-116439339D02*
G75*
G02*
X174749988Y-118249988I-2560700J39D01*
G01*
%TO.N,RAW*%
X156878679Y-97792893D02*
G75*
G02*
X160000008Y-100499996I-1707079J-5121307D01*
G01*
X166211512Y-103737170D02*
G75*
G03*
X164750000Y-103499999I-1461512J-4384530D01*
G01*
X163288487Y-103262829D02*
G75*
G03*
X164750000Y-103499995I1461513J4384629D01*
G01*
X175062499Y-107687500D02*
G75*
G03*
X172594835Y-105864941I-4036199J-2883000D01*
G01*
X180174839Y-108067395D02*
G75*
G02*
X177500000Y-109000001I-2674839J3369595D01*
G01*
X160292893Y-101085786D02*
G75*
G03*
X162499998Y-103000006I3414207J1707086D01*
G01*
X177500000Y-109000000D02*
G75*
G02*
X175128137Y-107779403I0J2914800D01*
G01*
%TO.N,P3*%
X210931818Y-119006726D02*
G75*
G03*
X208945716Y-118522921I-1948718J-3681274D01*
G01*
X244293610Y-153265974D02*
G75*
G02*
X243249990Y-154249973I-1582610J633074D01*
G01*
X217749999Y-133499999D02*
G75*
G03*
X218137360Y-137412138I8817301J-1102201D01*
G01*
X217930662Y-132054700D02*
G75*
G03*
X217749998Y-131000001I-1832062J229000D01*
G01*
X216423903Y-168333620D02*
G75*
G02*
X220008376Y-166521410I5590897J-6607480D01*
G01*
X217750000Y-131000000D02*
G75*
G03*
X217000000Y-130250000I-1500000J-750000D01*
G01*
X239524489Y-144012244D02*
G75*
G03*
X235323638Y-143621810I-2602289J-5204556D01*
G01*
X210931818Y-119006726D02*
G75*
G02*
X212223954Y-120490844I-1280918J-2419774D01*
G01*
X241205333Y-161443885D02*
G75*
G03*
X242687633Y-159644274I-721533J2104585D01*
G01*
X215117919Y-128449279D02*
G75*
G03*
X216500002Y-129999996I2636881J958879D01*
G01*
X203600841Y-177795518D02*
G75*
G03*
X206079426Y-177086602I453359J3102318D01*
G01*
X222258372Y-165945160D02*
G75*
G02*
X222736652Y-165956668I225828J-559040D01*
G01*
D26*
X222741627Y-165749911D02*
G75*
G03*
X222736701Y-165956561I42173J-104389D01*
G01*
D25*
X242835410Y-154388196D02*
G75*
G03*
X242249998Y-154749998I473590J-1420804D01*
G01*
X244645767Y-150201146D02*
G75*
G02*
X244500000Y-152750000I-3875567J-1056954D01*
G01*
X222250000Y-146500000D02*
G75*
G03*
X224794492Y-146630148I1462600J3656500D01*
G01*
X242250000Y-154750000D02*
G75*
G03*
X242090901Y-155341667I433900J-433900D01*
G01*
X244089674Y-148162139D02*
G75*
G03*
X241495483Y-144997764I-4835774J-1318861D01*
G01*
X222250000Y-146500000D02*
G75*
G02*
X220574310Y-144722781I1078100J2695100D01*
G01*
X226302022Y-166553592D02*
G75*
G02*
X223750000Y-166423767I-1114022J3249192D01*
G01*
D26*
X222258372Y-165945160D02*
X222741627Y-165749911D01*
D25*
%TO.N,P1*%
X201250000Y-108750000D02*
G75*
G02*
X201517640Y-109353113I-648900J-648900D01*
G01*
X201916667Y-112833333D02*
G75*
G02*
X201638761Y-111775012I2382733J1191333D01*
G01*
X201916667Y-112833333D02*
G75*
G03*
X202666667Y-113583333I1500033J750033D01*
G01*
X208155762Y-113655762D02*
G75*
G03*
X209116829Y-112636755I-1000962J1906762D01*
G01*
X266852664Y-88337169D02*
G75*
G03*
X270200799Y-88489766I1891836J4701769D01*
G01*
X306946115Y-87718045D02*
G75*
G02*
X308793880Y-88226616I426485J-2061455D01*
G01*
X200736263Y-108263736D02*
G75*
G02*
X200324580Y-107705775I1138437J1270836D01*
G01*
X201250000Y-108750000D02*
G75*
G03*
X200736659Y-108264093I-9106200J-9106200D01*
G01*
D26*
X291666800Y-92606248D02*
G75*
G02*
X291251489Y-92850735I-573400J499048D01*
G01*
D25*
X291666800Y-92606248D02*
G75*
G03*
X291748523Y-92745106I64100J-55752D01*
G01*
X257330049Y-87539804D02*
G75*
G03*
X252759274Y-88140207I-267549J-15661696D01*
G01*
X241897115Y-93727921D02*
G75*
G03*
X244727045Y-90896812I-1497915J4327221D01*
G01*
X212860319Y-105928797D02*
G75*
G02*
X213893136Y-104709341I1503281J-226103D01*
G01*
X271326207Y-88152137D02*
G75*
G02*
X275570957Y-88428327I1751493J-5838163D01*
G01*
X289501485Y-93451770D02*
G75*
G02*
X286541410Y-93346142I-1349985J3697370D01*
G01*
X231951329Y-97170693D02*
G75*
G03*
X230652832Y-98444957I694571J-2006507D01*
G01*
X294991590Y-90191395D02*
G75*
G03*
X292500007Y-91648952I915010J-4422505D01*
G01*
X247360622Y-88798516D02*
G75*
G03*
X248912637Y-89239275I1131478J1031316D01*
G01*
X206759376Y-114000000D02*
G75*
G03*
X208155767Y-113655771I24J3004300D01*
G01*
X199509686Y-106718330D02*
G75*
G02*
X200236280Y-107513728I-881886J-1535170D01*
G01*
X204245355Y-114000000D02*
G75*
G02*
X202833341Y-113666651I45J3157400D01*
G01*
D26*
X291251485Y-92850716D02*
X291748515Y-92745069D01*
D25*
%TO.N,P0*%
X278798158Y-106087157D02*
G75*
G02*
X283094072Y-106398734I1697542J-6365943D01*
G01*
X212666666Y-116333333D02*
G75*
G03*
X211666666Y-115333333I-1999966J-999967D01*
G01*
X313019048Y-107019011D02*
G75*
G03*
X311779348Y-106639445I-977148J-977189D01*
G01*
X200800000Y-113250000D02*
G75*
G03*
X201757323Y-114469495I2559700J1023900D01*
G01*
X245392736Y-111689442D02*
G75*
G02*
X241803630Y-114127529I-5492936J4225342D01*
G01*
X210254644Y-115000000D02*
G75*
G02*
X211666673Y-115333318I56J-3157300D01*
G01*
X203360232Y-115000000D02*
G75*
G02*
X201799992Y-114500012I-32J2684300D01*
G01*
X220024063Y-122668309D02*
G75*
G03*
X218637814Y-124013679I674137J-2081491D01*
G01*
X236430374Y-116529856D02*
G75*
G02*
X238131609Y-115176675I2479726J-1371544D01*
G01*
X213517002Y-117482997D02*
G75*
G02*
X214306554Y-118618907I-2244402J-2402403D01*
G01*
X200800000Y-113250000D02*
G75*
G02*
X200499988Y-111692225I3894400J1557800D01*
G01*
X253360396Y-104270560D02*
G75*
G03*
X252388146Y-105383410I341104J-1279140D01*
G01*
X257780359Y-103091904D02*
G75*
G02*
X262193699Y-103181789I2050941J-7691196D01*
G01*
X199877511Y-109597212D02*
G75*
G02*
X200348207Y-110151788I-684711J-1058188D01*
G01*
X248340657Y-107857145D02*
G75*
G02*
X250064378Y-106808873I2218443J-1706555D01*
G01*
X297955106Y-109315140D02*
G75*
G03*
X296563526Y-110369421I375794J-1941560D01*
G01*
X212683589Y-116367179D02*
G75*
G03*
X213517008Y-117482990I3520111J1760079D01*
G01*
X200348214Y-110151785D02*
G75*
G02*
X200500014Y-110879858I-1670314J-728115D01*
G01*
X275046531Y-107087591D02*
G75*
G02*
X272130208Y-106672043I-969631J3636291D01*
G01*
%TO.N,P2*%
X259952704Y-125788287D02*
G75*
G02*
X258415641Y-125218339I-327604J1474087D01*
G01*
X238884122Y-136540175D02*
G75*
G03*
X236121734Y-137477090I73558978J-221421025D01*
G01*
X316494209Y-125811413D02*
G75*
G03*
X314473306Y-125677006I-1288509J-4113587D01*
G01*
X224165381Y-142348587D02*
G75*
G02*
X225361997Y-141201618I1845519J-727713D01*
G01*
X270573067Y-123428207D02*
G75*
G02*
X274407722Y-123506975I1755833J-7901393D01*
G01*
X287862036Y-124741357D02*
G75*
G03*
X283840971Y-124088851I-2727336J-4091043D01*
G01*
X207838796Y-115658707D02*
G75*
G02*
X210860003Y-116543344I211504J-4878993D01*
G01*
X243075573Y-133086317D02*
G75*
G03*
X241707893Y-134614748I807027J-2098283D01*
G01*
X215219496Y-125831936D02*
G75*
G03*
X217749552Y-129499584I8205804J2954136D01*
G01*
X210860000Y-116543348D02*
G75*
G02*
X212783213Y-119064472I-3026900J-4303152D01*
G01*
X220062703Y-133218153D02*
G75*
G03*
X217762521Y-129510702I-7000103J-1775747D01*
G01*
X295484390Y-129822926D02*
G75*
G03*
X297701813Y-130286607I1686010J2528926D01*
G01*
X282100652Y-124563458D02*
G75*
G02*
X278981507Y-124331543I-1232252J4518258D01*
G01*
X300538695Y-128911827D02*
G75*
G02*
X302007014Y-127826359I1813705J-917573D01*
G01*
X253097590Y-129231695D02*
G75*
G03*
X255841901Y-126643729I-1785590J4642495D01*
G01*
%TO.N,P18*%
X166149830Y-124504855D02*
G75*
G02*
X168500008Y-125982651I-1943230J-5698045D01*
G01*
X136586566Y-156362188D02*
G75*
G03*
X134463094Y-156486450I-906266J-2718912D01*
G01*
X151370872Y-161290291D02*
G75*
G02*
X152901521Y-162787099I-774272J-2322809D01*
G01*
X154363803Y-145362884D02*
G75*
G02*
X152499980Y-147749960I-3439503J764384D01*
G01*
X155300000Y-142300000D02*
G75*
G03*
X155674789Y-141747286I-490900J736300D01*
G01*
X161947368Y-123947368D02*
G75*
G02*
X163932787Y-123748798I1210132J-2074632D01*
G01*
X168364959Y-168630168D02*
G75*
G02*
X171940762Y-171299779I-3344759J-8209732D01*
G01*
X146250000Y-146000000D02*
G75*
G03*
X143882050Y-144058705I-3354900J-1677400D01*
G01*
X148626978Y-147906744D02*
G75*
G02*
X146249966Y-146000017I884322J3537444D01*
G01*
X160937500Y-124750000D02*
G75*
G02*
X161222586Y-124370148I593200J-148300D01*
G01*
X155300000Y-142300000D02*
G75*
G03*
X154921780Y-142851968I497700J-746600D01*
G01*
X137047409Y-145885699D02*
G75*
G02*
X138750013Y-143750022I3711291J-1212201D01*
G01*
X141406372Y-143383556D02*
G75*
G03*
X138749983Y-143749972I-898872J-3295644D01*
G01*
X168500000Y-125982659D02*
G75*
G03*
X170926528Y-126999982I2426500J2385159D01*
G01*
X180500000Y-126750000D02*
G75*
G02*
X179440983Y-126999985I-1059000J2118100D01*
G01*
X160801983Y-125247133D02*
G75*
G03*
X160937500Y-124750000I-11683883J3452033D01*
G01*
X181311615Y-126035892D02*
G75*
G02*
X180499996Y-126749992I-1759315J1181292D01*
G01*
X155707839Y-164178527D02*
G75*
G02*
X158208037Y-164492134I665561J-4816973D01*
G01*
X157481594Y-134800615D02*
G75*
G03*
X156196203Y-139289347I31425106J-11427285D01*
G01*
X160505682Y-126250000D02*
G75*
G02*
X159690930Y-128724942I-40645082J12008800D01*
G01*
X149373021Y-148093255D02*
G75*
G03*
X152500014Y-147750027I1099579J4398155D01*
G01*
%TO.N,P21*%
X86100057Y-91483968D02*
G75*
G02*
X88000352Y-91208371I1328343J-2469932D01*
G01*
X141074809Y-95149618D02*
G75*
G03*
X143997847Y-97537123I4118591J2059318D01*
G01*
X141000000Y-95000000D02*
G75*
G03*
X137906315Y-92214833I-5093100J-2546500D01*
G01*
X158477319Y-102659175D02*
G75*
G03*
X161540367Y-105020969I4272081J2373375D01*
G01*
X121844517Y-88281505D02*
G75*
G03*
X126111321Y-88160560I1967783J5903305D01*
G01*
X106039061Y-87289061D02*
G75*
G02*
X102748960Y-89249080I-6861561J7776461D01*
G01*
X114710853Y-85903617D02*
G75*
G03*
X112298027Y-85929343I-1169153J-3507483D01*
G01*
X149287696Y-97731675D02*
G75*
G03*
X147821611Y-97962523I-489296J-1663425D01*
G01*
X154835965Y-99363519D02*
G75*
G02*
X158095492Y-101971813I-1553565J-5282281D01*
G01*
X67557655Y-87508807D02*
G75*
G02*
X69542915Y-87243363I1342945J-2487293D01*
G01*
X82853727Y-90349202D02*
G75*
G02*
X83763185Y-91109214I-299127J-1282098D01*
G01*
X133468798Y-90550799D02*
G75*
G02*
X131363870Y-88566093I1312902J3500999D01*
G01*
X106582012Y-86809988D02*
G75*
G02*
X108724241Y-86003946I2131888J-2416212D01*
G01*
X91750296Y-91989644D02*
G75*
G03*
X96157450Y-91666976I1639304J7868444D01*
G01*
%TO.N,P20*%
X161869457Y-122399531D02*
G75*
G02*
X160086621Y-123531280I-15473157J22404631D01*
G01*
X92933027Y-109823374D02*
G75*
G02*
X88780968Y-110556218I-3014927J4953074D01*
G01*
X179750000Y-125500000D02*
G75*
G02*
X178098612Y-126000004I-1651400J2477100D01*
G01*
X166967309Y-123038089D02*
G75*
G02*
X169500012Y-124749991I-1484409J-4925611D01*
G01*
X116775973Y-105919819D02*
G75*
G03*
X121196489Y-105822992I2040027J7820119D01*
G01*
X180500000Y-124098612D02*
G75*
G02*
X179750005Y-125500007I-1684300J12D01*
G01*
X108570459Y-103779250D02*
G75*
G03*
X106520489Y-104014221I-721459J-2765550D01*
G01*
X139220314Y-115872020D02*
G75*
G02*
X137268411Y-114454846I1078786J3538620D01*
G01*
X79538007Y-109401623D02*
G75*
G03*
X77973360Y-108280023I-2069607J-1234977D01*
G01*
X84718023Y-109743604D02*
G75*
G03*
X82374894Y-110026367I-741323J-3706596D01*
G01*
X103446710Y-104088805D02*
G75*
G03*
X101687777Y-104494409I-267810J-2855295D01*
G01*
X66262426Y-105770520D02*
G75*
G03*
X63832502Y-106051228I-799926J-3733080D01*
G01*
X163806899Y-122085630D02*
G75*
G03*
X161887233Y-122387227I-646499J-2145170D01*
G01*
X181614784Y-120151016D02*
G75*
G03*
X180499996Y-123250000I3750016J-3098984D01*
G01*
X155763501Y-123754500D02*
G75*
G03*
X157262840Y-123855868I944699J2834000D01*
G01*
X135807759Y-112368227D02*
G75*
G03*
X132323352Y-109819769I-5479459J-3835573D01*
G01*
X125836317Y-106650998D02*
G75*
G03*
X127934983Y-108448447I3143683J1546598D01*
G01*
X142294097Y-118047443D02*
G75*
G03*
X144532111Y-120010738I3451603J1677343D01*
G01*
X172100781Y-126000000D02*
G75*
G02*
X169500019Y-124749985I19J3330600D01*
G01*
%TO.N,P19*%
X155113997Y-141252782D02*
G75*
G03*
X155214050Y-141098930I-124897J190682D01*
G01*
X75812846Y-128084651D02*
G75*
G03*
X74657756Y-127096989I-1498846J-583649D01*
G01*
X155589147Y-139249999D02*
G75*
G02*
X156519554Y-135807457I28336753J-5811501D01*
G01*
X61547257Y-124229087D02*
G75*
G03*
X59607347Y-124593634I-540157J-2469413D01*
G01*
X95591953Y-122756705D02*
G75*
G02*
X97669182Y-122173678I1689447J-2027295D01*
G01*
X171503214Y-126500000D02*
G75*
G02*
X168999989Y-125377666I-14J3352700D01*
G01*
X136516566Y-135882338D02*
G75*
G03*
X138143293Y-137419232I2603134J1125938D01*
G01*
X126862117Y-128245453D02*
G75*
G02*
X130101012Y-130981830I-1991317J-5642047D01*
G01*
X148838947Y-141340947D02*
G75*
G03*
X151235307Y-141824089I2769953J7554347D01*
G01*
X99742962Y-122623967D02*
G75*
G02*
X99748126Y-122495082I19438J63767D01*
G01*
D26*
X99257038Y-122475404D02*
G75*
G03*
X99748139Y-122495139I283162J926104D01*
G01*
D25*
X181000000Y-125250000D02*
G75*
G02*
X181049082Y-124754865I2522000J0D01*
G01*
X110789426Y-124397116D02*
G75*
G03*
X115167016Y-124255590I1958874J7182516D01*
G01*
X78399735Y-128568773D02*
G75*
G02*
X80717362Y-128228282I1653865J-3199427D01*
G01*
X159921420Y-125350856D02*
G75*
G02*
X161209052Y-123646552I3312180J-1163844D01*
G01*
X85306689Y-129088754D02*
G75*
G03*
X89214293Y-128071386I873411J4658354D01*
G01*
X155250384Y-140901796D02*
G75*
G03*
X155214052Y-141098931I4900116J-1005004D01*
G01*
X159773393Y-125772123D02*
G75*
G03*
X159336738Y-127250001I14365807J-5047977D01*
G01*
X163433719Y-122631435D02*
G75*
G03*
X162544787Y-122732278I-341319J-959665D01*
G01*
X181000000Y-125250000D02*
G75*
G02*
X180791980Y-125638664I-467100J0D01*
G01*
X166583680Y-123751637D02*
G75*
G02*
X169000019Y-125377640I-1967180J-5531763D01*
G01*
X178598612Y-126500000D02*
G75*
G03*
X180249998Y-125999997I-12J2977100D01*
G01*
X159336735Y-127250000D02*
G75*
G02*
X158909030Y-128730960I-16848335J4063600D01*
G01*
X100750000Y-122274843D02*
G75*
G02*
X103234759Y-122336761I1116600J-5078457D01*
G01*
X130648490Y-131967283D02*
G75*
G03*
X133192788Y-133956895I3624910J2013883D01*
G01*
X181427612Y-122864213D02*
G75*
G02*
X182231901Y-121621892I1971088J-394587D01*
G01*
X120058786Y-124735893D02*
G75*
G03*
X121762565Y-126445605I2631314J918393D01*
G01*
X162544804Y-122732304D02*
G75*
G03*
X161718237Y-123287124I11385796J-17855596D01*
G01*
D26*
X99257038Y-122475404D02*
X99742962Y-122623967D01*
D25*
%TO.N,P8*%
X158000000Y-104500000D02*
G75*
G03*
X159568592Y-105828801I2337000J1168500D01*
G01*
X199483697Y-132901308D02*
G75*
G02*
X200249988Y-134250004I-3032097J-2614792D01*
G01*
X148598736Y-102688289D02*
G75*
G02*
X152655804Y-102115911I2672064J-4275211D01*
G01*
X156424983Y-103192852D02*
G75*
G02*
X158000012Y-104499994I-698183J-2443748D01*
G01*
X169979364Y-109032112D02*
G75*
G02*
X172625003Y-110624997I-1883764J-6122288D01*
G01*
%TO.N,P7*%
X157000000Y-105000000D02*
G75*
G03*
X158571956Y-106317659I2303700J1151800D01*
G01*
X143881534Y-103675378D02*
G75*
G03*
X145500008Y-104749968I2322566J1741978D01*
G01*
X140000000Y-96000000D02*
G75*
G03*
X136894190Y-93247959I-4977500J-2488800D01*
G01*
X157000000Y-105000000D02*
G75*
G03*
X155415345Y-103728845I-2174200J-1087100D01*
G01*
X199060000Y-129640000D02*
G75*
G02*
X200402886Y-131708669I-3312300J-3620400D01*
G01*
X131000000Y-92000000D02*
G75*
G02*
X133052899Y-91876035I1171700J-2343400D01*
G01*
X140000000Y-96000000D02*
G75*
G02*
X141908151Y-100043344I-88044200J-44022100D01*
G01*
X148592136Y-103692414D02*
G75*
G02*
X152682677Y-103045629I2806364J-4490086D01*
G01*
X172153846Y-111346154D02*
G75*
G03*
X169300057Y-109496326I-4559946J-3908546D01*
G01*
X147374096Y-104453689D02*
G75*
G02*
X145500007Y-104749973I-1285696J2057189D01*
G01*
X143750000Y-103500000D02*
G75*
G02*
X142492337Y-101357730I8840500J6630300D01*
G01*
%TO.N,P6*%
X140009709Y-99323303D02*
G75*
G02*
X140250001Y-101750000I-3857309J-1607197D01*
G01*
X199310000Y-127120000D02*
G75*
G02*
X200906574Y-129423093I-2587100J-3498400D01*
G01*
X135854352Y-93914823D02*
G75*
G02*
X138855404Y-96552929I-1196452J-4387077D01*
G01*
X160000000Y-107436046D02*
G75*
G02*
X163932759Y-108546317I-7200200J-33024654D01*
G01*
X131750000Y-93500000D02*
G75*
G02*
X133369617Y-93237202I1098500J-1647800D01*
G01*
X112842388Y-92780796D02*
G75*
G03*
X117122740Y-92683596I2004712J6013996D01*
G01*
X143518634Y-106006211D02*
G75*
G02*
X141000013Y-104249988I1714166J5142411D01*
G01*
X158732786Y-107159764D02*
G75*
G03*
X157250000Y-106999999I-1482786J-6801036D01*
G01*
X131750000Y-93500000D02*
G75*
G02*
X130130382Y-93762797I-1098500J1647800D01*
G01*
X119382353Y-91814479D02*
G75*
G02*
X123632279Y-91775361I2177247J-5660821D01*
G01*
X140796333Y-103995416D02*
G75*
G02*
X140250006Y-101750001I2136167J1708916D01*
G01*
X168413961Y-110109521D02*
G75*
G02*
X171624996Y-112125004I-2799961J-8026479D01*
G01*
X157250000Y-107000000D02*
G75*
G02*
X156164602Y-106329172I0J1213500D01*
G01*
X154415347Y-104728836D02*
G75*
G02*
X156000008Y-105999996I-589547J-2358264D01*
G01*
X123798865Y-91835951D02*
G75*
G03*
X128259618Y-93252625I19388635J53318751D01*
G01*
X144378781Y-106292927D02*
G75*
G03*
X148417316Y-105849600I1537319J4612027D01*
G01*
X153500000Y-104500000D02*
G75*
G03*
X149732237Y-105060667I-1207100J-4828400D01*
G01*
%TO.N,P5*%
X159714746Y-108886510D02*
G75*
G03*
X157250001Y-108249996I-6978646J-21932790D01*
G01*
X87331709Y-95459754D02*
G75*
G02*
X91163992Y-94480846I2882691J-3294446D01*
G01*
X140250000Y-104999999D02*
G75*
G03*
X143335001Y-107167285I5557100J4630899D01*
G01*
X133575799Y-94239066D02*
G75*
G03*
X131538471Y-94538479I-626399J-2818834D01*
G01*
X137918612Y-97020947D02*
G75*
G03*
X134832940Y-94518408I-4051012J-1841353D01*
G01*
X91254151Y-94500922D02*
G75*
G03*
X95682576Y-94272486I1801849J8108222D01*
G01*
X168042856Y-112022077D02*
G75*
G03*
X163772697Y-110177681I-11356856J-20428123D01*
G01*
X156883883Y-108176776D02*
G75*
G02*
X155500024Y-107249984I426817J2133876D01*
G01*
X148911565Y-107353060D02*
G75*
G02*
X144904970Y-107738157I-2407465J4012460D01*
G01*
X150644184Y-106313489D02*
G75*
G02*
X153500004Y-105999989I1768716J-2947811D01*
G01*
X112847859Y-94268272D02*
G75*
G03*
X117121623Y-94184006I2020541J5942672D01*
G01*
X101828931Y-92223689D02*
G75*
G02*
X106191984Y-92157622I2285869J-6857711D01*
G01*
X139973522Y-104668226D02*
G75*
G02*
X139250013Y-102000002I2547678J2123026D01*
G01*
X112218242Y-94054202D02*
G75*
G03*
X107755859Y-92626757I-41570342J-122265698D01*
G01*
X139250000Y-102000000D02*
G75*
G03*
X138870730Y-99115616I-4920700J820100D01*
G01*
X200500000Y-127000000D02*
G75*
G02*
X199605835Y-125912944I5135600J5135600D01*
G01*
X155500000Y-107250000D02*
G75*
G03*
X154144864Y-106214969I-2185900J-1457300D01*
G01*
X123696179Y-93123491D02*
G75*
G03*
X119369198Y-93319528I-1869579J-6585309D01*
G01*
X200500000Y-127000000D02*
G75*
G02*
X201223602Y-128170821I-2118000J-2118000D01*
G01*
X129516775Y-94775949D02*
G75*
G03*
X131538448Y-94538437I724825J2553249D01*
G01*
%TO.N,P4*%
X204208526Y-131793789D02*
G75*
G03*
X202672812Y-127617575I-8563326J-778511D01*
G01*
X138912414Y-104716552D02*
G75*
G02*
X138249966Y-101999994I2843086J2132352D01*
G01*
X118466616Y-94900023D02*
G75*
G02*
X115526316Y-95861846I-5587916J12107123D01*
G01*
X137882388Y-99110375D02*
G75*
G02*
X138250023Y-102000004I-4628188J-2057025D01*
G01*
X159624264Y-111406066D02*
G75*
G02*
X157699990Y-110050006I791636J3166666D01*
G01*
X144878781Y-108792927D02*
G75*
G03*
X148917316Y-108349600I1537319J4612027D01*
G01*
X79000000Y-97250000D02*
G75*
G03*
X81569696Y-98813931I3431500J2745200D01*
G01*
X155874474Y-108718618D02*
G75*
G02*
X154500024Y-107749984I565526J2261918D01*
G01*
X151116116Y-107030330D02*
G75*
G02*
X152999992Y-106750032I1280284J-2133870D01*
G01*
X95455760Y-95848079D02*
G75*
G02*
X91499996Y-96000015I-2238760J6716179D01*
G01*
X76435754Y-95659946D02*
G75*
G02*
X79000005Y-97249996I-958254J-4408054D01*
G01*
X86659480Y-98024906D02*
G75*
G02*
X82822799Y-99064599I-2962280J3332506D01*
G01*
X157571771Y-109857657D02*
G75*
G03*
X155999993Y-108750027I-2218371J-1478943D01*
G01*
X166210969Y-113126081D02*
G75*
G03*
X164750000Y-112667264I-3427269J-8357719D01*
G01*
X87959176Y-96869621D02*
G75*
G02*
X91500010Y-95999958I2593924J-2918079D01*
G01*
X119444002Y-94448922D02*
G75*
G02*
X123659930Y-94179913I2456098J-5321478D01*
G01*
X154500000Y-107750000D02*
G75*
G03*
X153125532Y-106781354I-1940000J-1293300D01*
G01*
X143172345Y-108224115D02*
G75*
G02*
X139626059Y-105668138I2318055J6954315D01*
G01*
X164750000Y-112667266D02*
G75*
G02*
X163254517Y-112313630I13094500J58713966D01*
G01*
X101831378Y-93722873D02*
G75*
G02*
X106179827Y-93688344I2227422J-6682127D01*
G01*
X129030021Y-95870357D02*
G75*
G03*
X131378203Y-95628201I893779J2839257D01*
G01*
X134500000Y-95499999D02*
G75*
G02*
X137337294Y-97883861I-1025100J-4100501D01*
G01*
X131378205Y-95628205D02*
G75*
G02*
X133747321Y-95311856I1583195J-2827195D01*
G01*
X113500000Y-96006579D02*
G75*
G03*
X114515880Y-96066556I621200J1888379D01*
G01*
X113500000Y-96006579D02*
G75*
G03*
X112498075Y-95683602I-27589600J-83871721D01*
G01*
%TO.N,P0*%
X199877511Y-109597212D02*
X198120000Y-108460000D01*
X200500000Y-110879858D02*
X200500000Y-111692225D01*
%TO.N,P1*%
X200236263Y-107513736D02*
X200324580Y-107705775D01*
X199509686Y-106718330D02*
X198120000Y-105920000D01*
X200736660Y-108264092D02*
X200736263Y-108263736D01*
X206759376Y-114000000D02*
X204245355Y-114000000D01*
X202666667Y-113583333D02*
X202833333Y-113666666D01*
%TO.N,P0*%
X210254644Y-115000000D02*
X203360232Y-115000000D01*
X201757313Y-114469509D02*
X201800000Y-114500000D01*
X212683589Y-116367179D02*
X212666666Y-116333333D01*
X214306553Y-118618907D02*
X217128135Y-125378231D01*
%TO.N,P1*%
X209116843Y-112636761D02*
X211573073Y-107208441D01*
X201638750Y-111775013D02*
X201517655Y-109353112D01*
%TO.N,P2*%
X207838796Y-115658707D02*
X198120000Y-116080000D01*
X215219496Y-125831936D02*
X212783210Y-119064473D01*
%TO.N,P3*%
X208945716Y-118522908D02*
X198120000Y-118620000D01*
X212223944Y-120490848D02*
X215117919Y-128449279D01*
%TO.N,P4*%
X118466616Y-94900023D02*
X119444002Y-94448922D01*
X114515877Y-96066543D02*
X115526315Y-95861842D01*
%TO.N,P5*%
X107755859Y-92626757D02*
X106191992Y-92157597D01*
X112847859Y-94268272D02*
X112218242Y-94054202D01*
%TO.N,P4*%
X112498075Y-95683602D02*
X106179821Y-93688364D01*
X129030021Y-95870357D02*
X123659928Y-94179918D01*
%TO.N,P5*%
X117121618Y-94183992D02*
X119369201Y-93319537D01*
X123696179Y-93123491D02*
X129516775Y-94775949D01*
%TO.N,P6*%
X119382353Y-91814479D02*
X117122728Y-92683565D01*
X112842388Y-92780796D02*
X110500000Y-92000000D01*
X130130373Y-93762829D02*
X128259618Y-93252623D01*
X123632275Y-91775373D02*
X123798865Y-91835951D01*
%TO.N,RAW*%
X160292893Y-101085786D02*
X160000000Y-100500000D01*
X175062499Y-107687500D02*
X175128142Y-107779399D01*
X156878679Y-97792893D02*
X153000000Y-96500000D01*
X163288487Y-103262829D02*
X162500000Y-103000000D01*
X166211512Y-103737170D02*
X172594834Y-105864944D01*
%TO.N,BAT_P*%
X159186058Y-101872117D02*
X159000000Y-101500000D01*
X152000000Y-97500000D02*
X155878679Y-98792893D01*
X166460533Y-104778163D02*
X171740305Y-106307147D01*
X161750000Y-103999999D02*
X162538476Y-104225278D01*
X172645595Y-106816048D02*
X174596114Y-109868037D01*
%TO.N,RAW*%
X180174839Y-108067395D02*
X182880000Y-105920000D01*
%TO.N,BAT_P*%
X175000000Y-111250000D02*
X175000000Y-111464976D01*
X174000000Y-113869120D02*
X174000000Y-115598612D01*
X174574222Y-112556786D02*
X174674999Y-112424999D01*
X175560660Y-125500000D02*
X176598612Y-125500000D01*
X173000000Y-122939339D02*
X173000000Y-118901387D01*
X178000000Y-124750000D02*
X178500000Y-124000000D01*
%TO.N,P8*%
X199483697Y-132901308D02*
X198120000Y-131320000D01*
X200250000Y-134250000D02*
X200500000Y-135000000D01*
%TO.N,P7*%
X201500000Y-135000000D02*
X200402889Y-131708668D01*
X199060000Y-129640000D02*
X198120000Y-128780000D01*
%TO.N,P6*%
X199310000Y-127120000D02*
X198120000Y-126240000D01*
X202500000Y-135000000D02*
X200906596Y-129423087D01*
%TO.N,P4*%
X204500000Y-135000000D02*
X204208526Y-131793789D01*
X202672819Y-127617570D02*
X198120000Y-121160000D01*
%TO.N,P5*%
X201223606Y-128170820D02*
X203500000Y-135000000D01*
X199605834Y-125912945D02*
X198120000Y-123700000D01*
%TO.N,P3*%
X220574265Y-144722796D02*
X218137377Y-137412132D01*
X244645767Y-150201146D02*
X244089674Y-148162139D01*
X239524489Y-144012244D02*
X241495492Y-144997746D01*
X235323640Y-143621816D02*
X224794491Y-146630145D01*
X242875203Y-158288541D02*
X242090928Y-155341660D01*
X242835410Y-154388196D02*
X243249999Y-154249999D01*
X244500000Y-152750000D02*
X244293610Y-153265974D01*
X217930662Y-132054700D02*
X217749999Y-133499999D01*
X216500000Y-130000000D02*
X217000000Y-130250000D01*
%TO.N,P2*%
X217749536Y-129499602D02*
X217762506Y-129510719D01*
X220062703Y-133218153D02*
X222683197Y-143548022D01*
%TO.N,P3*%
X226302022Y-166553592D02*
X241205333Y-161443885D01*
D26*
X222741627Y-165749911D02*
X223129364Y-165593256D01*
D25*
X223750000Y-166423768D02*
X222736667Y-165956636D01*
D26*
X222016744Y-166042784D02*
X222258372Y-165945160D01*
D25*
X242687601Y-159644270D02*
X242875203Y-158288541D01*
X216423903Y-168333620D02*
X206079444Y-177086623D01*
X203600841Y-177795518D02*
X202201683Y-177591036D01*
X222016744Y-166042784D02*
X220008372Y-166521392D01*
%TO.N,P2*%
X314473308Y-125677015D02*
X302007017Y-127826376D01*
X300538695Y-128911827D02*
X300077391Y-129823654D01*
X317488419Y-126122826D02*
X316494209Y-125811413D01*
X295484390Y-129822926D02*
X287862036Y-124741357D01*
X277463019Y-123663074D02*
X278981509Y-124331537D01*
X282100652Y-124563458D02*
X283840965Y-124088827D01*
X298903614Y-130073148D02*
X297701807Y-130286574D01*
X259952704Y-125788287D02*
X270573067Y-123428207D01*
X258415685Y-125218306D02*
X257831370Y-124436613D01*
X274407726Y-123506960D02*
X276315453Y-124013920D01*
X253097590Y-129231695D02*
X243075573Y-133086317D01*
X241707905Y-134614751D02*
X241415810Y-135729503D01*
X255841902Y-126643729D02*
X256683805Y-124787459D01*
X236121734Y-137477091D02*
X225361996Y-141201616D01*
X224165381Y-142348587D02*
X223830763Y-143197175D01*
X238884122Y-136540175D02*
X240268244Y-136080350D01*
%TO.N,P0*%
X311779355Y-106639479D02*
X297955106Y-109315140D01*
X296127069Y-111238850D02*
X296563534Y-110369425D01*
X313538096Y-107538022D02*
X313019048Y-107019011D01*
X275046531Y-107087591D02*
X278798158Y-106087157D01*
X272130195Y-106672065D02*
X270760391Y-105844130D01*
X283094079Y-106398717D02*
X294953292Y-111488344D01*
%TO.N,P1*%
X248912629Y-89239248D02*
X252759274Y-88140207D01*
X247360622Y-88798516D02*
X246721245Y-88097032D01*
X257330049Y-87539804D02*
X265205329Y-87674339D01*
%TO.N,P0*%
X253360396Y-104270560D02*
X257780359Y-103091904D01*
X252276308Y-106266822D02*
X252388154Y-105383411D01*
X262193707Y-103181763D02*
X270760391Y-105844130D01*
X236430374Y-116529856D02*
X235860748Y-117559713D01*
X245392736Y-111689442D02*
X248340657Y-107857145D01*
X238131611Y-115176682D02*
X241803631Y-114127533D01*
X251128742Y-106617669D02*
X250064371Y-106808834D01*
X218637850Y-124013692D02*
X218275701Y-125027385D01*
X220024063Y-122668309D02*
X234713182Y-117910559D01*
%TO.N,P1*%
X306946115Y-87718045D02*
X294991590Y-90191395D01*
D26*
X291748515Y-92745069D02*
X292176747Y-92654046D01*
X291002970Y-92903540D02*
X291251485Y-92850716D01*
D25*
X291666800Y-92606248D02*
X292500000Y-91648946D01*
X309587774Y-88953217D02*
X308793887Y-88226608D01*
X275570945Y-88428354D02*
X286541407Y-93346148D01*
X266852664Y-88337169D02*
X265205329Y-87674339D01*
X270200797Y-88489760D02*
X271326207Y-88152137D01*
X289501485Y-93451770D02*
X291002970Y-92903540D01*
X241897115Y-93727921D02*
X231951329Y-97170693D01*
X245573680Y-88447878D02*
X244727073Y-90896822D01*
X230652842Y-98444961D02*
X230305685Y-99389923D01*
X212860319Y-105928797D02*
X212720638Y-106857595D01*
X229158120Y-99740769D02*
X213893123Y-104709301D01*
%TO.N,GND*%
X174000000Y-121653708D02*
X174000000Y-120060660D01*
X175250000Y-123500000D02*
X176500000Y-124000000D01*
X175500000Y-116439339D02*
X175500000Y-113750000D01*
X181031236Y-110090507D02*
X182880000Y-108460000D01*
X180000000Y-112375000D02*
X180000000Y-113750000D01*
X180000000Y-113750000D02*
X175500000Y-113750000D01*
%TO.N,RST*%
X180000000Y-120250000D02*
X175500000Y-120250000D01*
X182182268Y-111742268D02*
X182880000Y-111000000D01*
X181496209Y-116647923D02*
X181487392Y-113503252D01*
X180750000Y-119125000D02*
X180000000Y-120250000D01*
%TO.N,P20*%
X180500000Y-124098612D02*
X180500000Y-123250000D01*
X161869457Y-122399531D02*
X161887246Y-122387246D01*
X172100781Y-126000000D02*
X178098612Y-126000000D01*
X166967309Y-123038089D02*
X163806899Y-122085630D01*
%TO.N,P19*%
X182231925Y-121621925D02*
X182880000Y-121160000D01*
X181427612Y-122864213D02*
X181049079Y-124754864D01*
X178598612Y-126500000D02*
X171503214Y-126500000D01*
X180250000Y-126000000D02*
X180791987Y-125638675D01*
X155113997Y-141252782D02*
X153618180Y-142232349D01*
X163433719Y-122631435D02*
X166583680Y-123751637D01*
X159773393Y-125772123D02*
X159921420Y-125350856D01*
X161718238Y-123287125D02*
X161209051Y-123646551D01*
X156519559Y-135807459D02*
X158909027Y-128730959D01*
X155589147Y-139249999D02*
X155250384Y-140901796D01*
%TO.N,P18*%
X179440983Y-127000000D02*
X170926528Y-127000000D01*
X166149830Y-124504855D02*
X163932801Y-123748758D01*
X181311615Y-126035892D02*
X182880000Y-123700000D01*
X161947368Y-123947368D02*
X161222590Y-124370155D01*
%TO.N,P4*%
X166210969Y-113126081D02*
X172000000Y-115500000D01*
%TO.N,P5*%
X172500000Y-114500000D02*
X168042856Y-112022077D01*
%TO.N,P6*%
X168413961Y-110109521D02*
X163932761Y-108546311D01*
X158732786Y-107159764D02*
X160000000Y-107436046D01*
X171625000Y-112125000D02*
X173000000Y-113500000D01*
%TO.N,P4*%
X138912414Y-104716552D02*
X139626087Y-105668117D01*
X143172345Y-108224115D02*
X144878781Y-108792927D01*
X134500000Y-95499999D02*
X133747327Y-95311831D01*
X95455760Y-95848079D02*
X101831378Y-93722873D01*
X159624264Y-111406066D02*
X163254517Y-112313629D01*
X155874474Y-108718618D02*
X156000000Y-108750000D01*
X151116116Y-107030330D02*
X148917320Y-108349607D01*
X153000000Y-106749999D02*
X153125525Y-106781381D01*
X82822807Y-99064561D02*
X81569695Y-98813938D01*
X137337275Y-97883870D02*
X137882388Y-99110375D01*
X157571771Y-109857657D02*
X157699999Y-110050000D01*
X86659480Y-98024906D02*
X87959176Y-96869621D01*
X76435754Y-95659946D02*
X66500000Y-93500000D01*
%TO.N,P5*%
X159714746Y-108886510D02*
X163772698Y-110177677D01*
X134832935Y-94518430D02*
X133575799Y-94239066D01*
X153500000Y-106000000D02*
X154144868Y-106214956D01*
X137918612Y-97020947D02*
X138870733Y-99115614D01*
X87331709Y-95459754D02*
X85000000Y-97500000D01*
X148911565Y-107353060D02*
X150644184Y-106313489D01*
X139973522Y-104668226D02*
X140250000Y-104999999D01*
X157250000Y-108249999D02*
X156883883Y-108176776D01*
X101828931Y-92223689D02*
X95682572Y-94272475D01*
X91163983Y-94480884D02*
X91254151Y-94500922D01*
X143335005Y-107167274D02*
X144904966Y-107738169D01*
%TO.N,P6*%
X143518634Y-106006211D02*
X144378781Y-106292927D01*
X148417320Y-105849607D02*
X149732233Y-105060660D01*
X156000000Y-106000000D02*
X156164589Y-106329179D01*
X154415347Y-104728836D02*
X153500000Y-104500000D01*
X140796333Y-103995416D02*
X141000000Y-104249999D01*
X135854352Y-93914823D02*
X133369626Y-93237170D01*
X140009709Y-99323303D02*
X138855389Y-96552935D01*
%TO.N,P7*%
X172153846Y-111346154D02*
X173307692Y-112692308D01*
%TO.N,P20*%
X181614784Y-120151016D02*
X182880000Y-118620000D01*
%TO.N,P8*%
X173750000Y-111750000D02*
X172625000Y-110625000D01*
X169979364Y-109032112D02*
X159568593Y-105828797D01*
X152655795Y-102115941D02*
X156424983Y-103192852D01*
X148598736Y-102688289D02*
X146500000Y-104000000D01*
%TO.N,P7*%
X152682668Y-103045667D02*
X155415347Y-103728836D01*
X143750000Y-103500000D02*
X143881534Y-103675378D01*
X136894201Y-93247928D02*
X133052899Y-91876035D01*
X158571968Y-106317620D02*
X169300061Y-109496314D01*
X148592136Y-103692414D02*
X147374096Y-104453689D01*
X142492326Y-101357735D02*
X141908152Y-100043344D01*
X131000000Y-92000000D02*
X130000000Y-92500000D01*
%TO.N,P18*%
X155674816Y-141747292D02*
X156196199Y-139289346D01*
X141406372Y-143383556D02*
X143882041Y-144058738D01*
X137047409Y-145885699D02*
X133426174Y-156972869D01*
X157481594Y-134800615D02*
X159690930Y-128724942D01*
X154363803Y-145362884D02*
X154921784Y-142851969D01*
X149373021Y-148093255D02*
X148626978Y-147906744D01*
X160505682Y-126250000D02*
X160801983Y-125247133D01*
%TO.N,P21*%
X158477319Y-102659175D02*
X158095461Y-101971830D01*
X161540369Y-105020961D02*
X163580739Y-105541922D01*
X147821628Y-97962548D02*
X147143257Y-98425097D01*
X154835965Y-99363519D02*
X149287696Y-97731675D01*
%TO.N,P20*%
X160086621Y-123531279D02*
X159173242Y-124062559D01*
%TO.N,P18*%
X168364959Y-168630168D02*
X158208027Y-164492159D01*
X174809206Y-174882868D02*
X171940783Y-171299762D01*
X154415678Y-164357054D02*
X155707839Y-164178527D01*
X136586566Y-156362188D02*
X151370872Y-161290291D01*
X153303057Y-163907526D02*
X152901528Y-162787096D01*
X133426174Y-156972869D02*
X134463087Y-156486434D01*
%TO.N,P19*%
X138143301Y-137419210D02*
X148838947Y-141340947D01*
X152470614Y-141881503D02*
X151235307Y-141824085D01*
X136516566Y-135882338D02*
X136033133Y-134764677D01*
%TO.N,P20*%
X155763501Y-123754500D02*
X144532121Y-120010707D01*
X142294097Y-118047443D02*
X141588195Y-116594887D01*
X158025676Y-123711712D02*
X157262838Y-123855856D01*
%TO.N,P21*%
X141000000Y-95000000D02*
X141074809Y-95149618D01*
X131363848Y-88566103D02*
X130727697Y-87132206D01*
X143997846Y-97537125D02*
X145995692Y-98074250D01*
X133468798Y-90550799D02*
X137906304Y-92214864D01*
%TO.N,P20*%
X135807759Y-112368227D02*
X137268398Y-114454855D01*
X125836317Y-106650998D02*
X125172635Y-105301996D01*
X127934987Y-108448433D02*
X132323344Y-109819795D01*
X139220314Y-115872020D02*
X140440629Y-116244041D01*
%TO.N,P19*%
X130648490Y-131967283D02*
X130101015Y-130981829D01*
X120058786Y-124735893D02*
X119617572Y-123471787D01*
X126862117Y-128245453D02*
X121762563Y-126445610D01*
X134885567Y-134413831D02*
X133192783Y-133956915D01*
%TO.N,P20*%
X116775973Y-105919819D02*
X108570459Y-103779250D01*
X105540986Y-104528457D02*
X106520493Y-104014228D01*
X121196488Y-105822988D02*
X124025069Y-104951150D01*
%TO.N,P19*%
X110789426Y-124397116D02*
X103234761Y-122336753D01*
D26*
X99742962Y-122623967D02*
X99985924Y-122698248D01*
X99257038Y-122475404D02*
X98838358Y-122347401D01*
D25*
X99748136Y-122495127D02*
X100750000Y-122274843D01*
X115167014Y-124255585D02*
X118470007Y-123120940D01*
X95591953Y-122756705D02*
X89214310Y-128071407D01*
X77299470Y-129137546D02*
X78399735Y-128568773D01*
X85306689Y-129088754D02*
X80717367Y-128228256D01*
X98838358Y-122347401D02*
X97669179Y-122173700D01*
%TO.N,P20*%
X92933027Y-109823374D02*
X101687771Y-104494399D01*
X82374896Y-110026371D02*
X81249792Y-110552742D01*
X84718023Y-109743604D02*
X88780973Y-110556194D01*
X103446710Y-104088805D02*
X104393420Y-104177611D01*
%TO.N,P19*%
X74657752Y-127097008D02*
X61547257Y-124229087D01*
X75812846Y-128084651D02*
X76125693Y-128888052D01*
X59607332Y-124593612D02*
X58714665Y-125187224D01*
%TO.N,P20*%
X66262426Y-105770520D02*
X77973364Y-108280006D01*
X63832494Y-106051210D02*
X62664988Y-106602420D01*
X80076015Y-110303247D02*
X79538007Y-109401623D01*
%TO.N,P21*%
X69542919Y-87243347D02*
X82853727Y-90349202D01*
X66615310Y-88017615D02*
X67557655Y-87508807D01*
X84026337Y-91718443D02*
X83763168Y-91109221D01*
X88000345Y-91208405D02*
X91750296Y-91989644D01*
X106039061Y-87289061D02*
X106582012Y-86809988D01*
X102748963Y-89249087D02*
X96157441Y-91666952D01*
X86100057Y-91483968D02*
X85200114Y-91967937D01*
X109948483Y-86007821D02*
X108724241Y-86003910D01*
X121844517Y-88281505D02*
X114710853Y-85903617D01*
X112298024Y-85929333D02*
X111096048Y-86358667D01*
X126111316Y-88160547D02*
X129580132Y-86781359D01*
D26*
%TO.N,outer_bottom*%
X63116330Y-126122826D02*
X61942553Y-125873332D01*
%TO.N,P19*%
X57540889Y-124937730D02*
X58714666Y-125187224D01*
%TO.N,outer_home*%
X67066652Y-107538022D02*
X65892875Y-107288528D01*
%TO.N,P20*%
X61491211Y-106352925D02*
X62664988Y-106602419D01*
%TO.N,outer_top*%
X71016974Y-88953217D02*
X69843197Y-88703723D01*
%TO.N,P21*%
X65441533Y-87768121D02*
X66615310Y-88017615D01*
%TO.N,pinky_bottom*%
X81701134Y-130073148D02*
X80527357Y-129823654D01*
%TO.N,P19*%
X77299470Y-129137546D02*
X76125693Y-128888052D01*
%TO.N,pinky_home*%
X85651457Y-111488344D02*
X84477679Y-111238850D01*
%TO.N,P20*%
X80076015Y-110303247D02*
X81249792Y-110552741D01*
%TO.N,pinky_top*%
X89601779Y-92903540D02*
X88428002Y-92654046D01*
%TO.N,P21*%
X84026337Y-91718443D02*
X85200115Y-91967937D01*
%TO.N,ring_bottom*%
X104289295Y-124013920D02*
X103141729Y-123663074D01*
%TO.N,ring_home*%
X109844358Y-105844130D02*
X108696792Y-105493284D01*
%TO.N,P20*%
X105540986Y-104528457D02*
X104393420Y-104177611D01*
%TO.N,ring_top*%
X115399420Y-87674339D02*
X114251854Y-87323493D01*
%TO.N,P21*%
X109948483Y-86007821D02*
X111096049Y-86358667D01*
%TO.N,middle_bottom*%
X123920944Y-124787459D02*
X122773378Y-124436613D01*
%TO.N,P19*%
X118470007Y-123120940D02*
X119617573Y-123471786D01*
%TO.N,middle_home*%
X129476006Y-106617669D02*
X128328441Y-106266822D01*
%TO.N,P20*%
X125172635Y-105301996D02*
X124025069Y-104951150D01*
%TO.N,middle_top*%
X135031069Y-88447878D02*
X133883503Y-88097032D01*
%TO.N,P21*%
X129580132Y-86781359D02*
X130727697Y-87132205D01*
%TO.N,index_bottom*%
X140336504Y-136080350D02*
X139188938Y-135729504D01*
%TO.N,P19*%
X134885567Y-134413831D02*
X136033133Y-134764677D01*
%TO.N,index_home*%
X145891567Y-117910559D02*
X144744001Y-117559713D01*
%TO.N,P20*%
X141588195Y-116594887D02*
X140440629Y-116244041D01*
%TO.N,index_top*%
X151446629Y-99740769D02*
X150299063Y-99389923D01*
%TO.N,P21*%
X145995692Y-98074250D02*
X147143258Y-98425096D01*
%TO.N,inner_bottom*%
X157921551Y-143548022D02*
X156773985Y-143197176D01*
%TO.N,P19*%
X153618180Y-142232349D02*
X152470614Y-141881503D01*
%TO.N,inner_home*%
X163476614Y-125378231D02*
X162329048Y-125027385D01*
%TO.N,P20*%
X158025676Y-123711712D02*
X159173242Y-124062559D01*
%TO.N,inner_top*%
X169031676Y-107208441D02*
X167884110Y-106857595D01*
%TO.N,P21*%
X163580739Y-105541922D02*
X164728304Y-105892768D01*
%TO.N,near_thumb*%
X137729546Y-158288541D02*
X136581980Y-157937695D01*
%TO.N,P18*%
X133426174Y-156972869D02*
X132278609Y-156622022D01*
%TO.N,home_thumb*%
X158588005Y-166042784D02*
X157475384Y-165593256D01*
%TO.N,P18*%
X153303057Y-163907526D02*
X154415678Y-164357054D01*
%TO.N,far_thumb*%
X179361428Y-178313214D02*
X178403066Y-177591036D01*
%TO.N,P18*%
X174809206Y-174882868D02*
X175767569Y-175605046D01*
%TO.N,mirror_outer_bottom*%
X323063860Y-124937730D02*
X321890083Y-125187224D01*
%TO.N,P2*%
X317488419Y-126122826D02*
X318662196Y-125873332D01*
%TO.N,mirror_outer_home*%
X319113538Y-106352925D02*
X317939761Y-106602419D01*
%TO.N,P0*%
X313538096Y-107538022D02*
X314711874Y-107288528D01*
%TO.N,mirror_outer_top*%
X315163216Y-87768121D02*
X313989439Y-88017615D01*
%TO.N,P1*%
X309587774Y-88953217D02*
X310761552Y-88703723D01*
%TO.N,mirror_pinky_bottom*%
X304479056Y-128888052D02*
X303305278Y-129137546D01*
%TO.N,P2*%
X298903614Y-130073148D02*
X300077391Y-129823654D01*
%TO.N,mirror_pinky_home*%
X300528733Y-110303247D02*
X299354956Y-110552741D01*
%TO.N,P0*%
X296127069Y-111238850D02*
X294953292Y-111488344D01*
%TO.N,mirror_pinky_top*%
X296578411Y-91718443D02*
X295404634Y-91967937D01*
%TO.N,mirror_ring_bottom*%
X281766391Y-122347401D02*
X280618825Y-122698248D01*
%TO.N,P2*%
X277463019Y-123663074D02*
X276315453Y-124013920D01*
%TO.N,mirror_ring_home*%
X276211328Y-104177611D02*
X275063763Y-104528457D01*
%TO.N,P0*%
X270760391Y-105844130D02*
X271907957Y-105493284D01*
%TO.N,mirror_ring_top*%
X270656266Y-86007821D02*
X269508700Y-86358667D01*
%TO.N,P1*%
X265205329Y-87674339D02*
X266352895Y-87323493D01*
%TO.N,mirror_middle_bottom*%
X262134742Y-123120940D02*
X260987176Y-123471786D01*
%TO.N,P2*%
X256683805Y-124787459D02*
X257831370Y-124436613D01*
%TO.N,mirror_middle_home*%
X256579679Y-104951150D02*
X255432114Y-105301996D01*
%TO.N,P0*%
X251128742Y-106617669D02*
X252276308Y-106266822D01*
%TO.N,mirror_middle_top*%
X251024617Y-86781359D02*
X249877051Y-87132205D01*
%TO.N,P1*%
X245573680Y-88447878D02*
X246721246Y-88097032D01*
%TO.N,mirror_index_bottom*%
X245719182Y-134413831D02*
X244571616Y-134764677D01*
%TO.N,P2*%
X240268244Y-136080350D02*
X241415810Y-135729504D01*
%TO.N,mirror_index_home*%
X240164119Y-116244041D02*
X239016553Y-116594887D01*
%TO.N,P0*%
X235860748Y-117559713D02*
X234713182Y-117910559D01*
%TO.N,mirror_index_top*%
X234609057Y-98074250D02*
X233461491Y-98425096D01*
%TO.N,P1*%
X229158120Y-99740769D02*
X230305685Y-99389923D01*
%TO.N,mirror_inner_bottom*%
X228134135Y-141881503D02*
X226986569Y-142232349D01*
%TO.N,P2*%
X222683197Y-143548022D02*
X223830763Y-143197176D01*
%TO.N,mirror_inner_home*%
X222579072Y-123711712D02*
X221431506Y-124062559D01*
%TO.N,P0*%
X218275701Y-125027385D02*
X217128135Y-125378231D01*
%TO.N,mirror_inner_top*%
X217024010Y-105541922D02*
X215876444Y-105892768D01*
%TO.N,P1*%
X211573073Y-107208441D02*
X212720639Y-106857595D01*
%TO.N,mirror_near_thumb*%
X248326140Y-156622022D02*
X247178574Y-156972869D01*
%TO.N,P3*%
X242875203Y-158288541D02*
X244022769Y-157937695D01*
%TO.N,mirror_home_thumb*%
X227301692Y-163907526D02*
X226189071Y-164357054D01*
%TO.N,mirror_far_thumb*%
X205795543Y-174882868D02*
X204837180Y-175605046D01*
%TO.N,P3*%
X201243320Y-178313214D02*
X202201683Y-177591036D01*
%TD*%
M02*
