%TF.GenerationSoftware,KiCad,Pcbnew,8.0.6*%
%TF.CreationDate,2025-05-17T18:11:55+02:00*%
%TF.ProjectId,main,6d61696e-2e6b-4696-9361-645f70636258,v1.0.0*%
%TF.SameCoordinates,Original*%
%TF.FileFunction,Paste,Top*%
%TF.FilePolarity,Positive*%
%FSLAX46Y46*%
G04 Gerber Fmt 4.6, Leading zero omitted, Abs format (unit mm)*
G04 Created by KiCad (PCBNEW 8.0.6) date 2025-05-17 18:11:55*
%MOMM*%
%LPD*%
G01*
G04 APERTURE LIST*
G04 Aperture macros list*
%AMRotRect*
0 Rectangle, with rotation*
0 The origin of the aperture is its center*
0 $1 length*
0 $2 width*
0 $3 Rotation angle, in degrees counterclockwise*
0 Add horizontal line*
21,1,$1,$2,0,0,$3*%
G04 Aperture macros list end*
%ADD10RotRect,0.700000X1.500000X151.000000*%
%ADD11RotRect,1.000000X0.800000X151.000000*%
%ADD12RotRect,1.550000X2.000000X348.000000*%
%ADD13RotRect,2.000000X2.000000X348.000000*%
%ADD14RotRect,1.550000X2.000000X343.000000*%
%ADD15RotRect,2.000000X2.000000X343.000000*%
%ADD16RotRect,1.550000X2.000000X338.000000*%
%ADD17RotRect,2.000000X2.000000X338.000000*%
%ADD18RotRect,1.550000X2.000000X323.000000*%
%ADD19RotRect,2.000000X2.000000X323.000000*%
%ADD20RotRect,1.550000X2.000000X12.000000*%
%ADD21RotRect,2.000000X2.000000X12.000000*%
%ADD22RotRect,1.550000X2.000000X17.000000*%
%ADD23RotRect,2.000000X2.000000X17.000000*%
%ADD24RotRect,1.550000X2.000000X22.000000*%
%ADD25RotRect,2.000000X2.000000X22.000000*%
%ADD26RotRect,1.550000X2.000000X37.000000*%
%ADD27RotRect,2.000000X2.000000X37.000000*%
%ADD28RotRect,0.900000X1.200000X348.000000*%
%ADD29RotRect,0.900000X1.200000X343.000000*%
%ADD30RotRect,0.900000X1.200000X338.000000*%
%ADD31RotRect,0.900000X1.200000X323.000000*%
%ADD32RotRect,0.900000X1.200000X12.000000*%
%ADD33RotRect,0.900000X1.200000X17.000000*%
%ADD34RotRect,0.900000X1.200000X22.000000*%
%ADD35RotRect,0.900000X1.200000X37.000000*%
G04 APERTURE END LIST*
D10*
%TO.C,REF\u002A\u002A*%
X150307550Y-90894192D03*
X147683689Y-89439763D03*
X146371760Y-88712549D03*
D11*
X151847142Y-91004422D03*
X145462418Y-87465312D03*
X152913724Y-89080260D03*
X146529000Y-85541150D03*
%TD*%
D12*
%TO.C,CPG1316*%
X56770913Y-130243588D03*
X61661651Y-131283146D03*
D13*
X54803481Y-120982151D03*
X52308541Y-132719922D03*
X67225955Y-123622630D03*
X64731015Y-135360401D03*
%TD*%
D12*
%TO.C,CPG1316*%
X60721235Y-111658784D03*
X65611973Y-112698342D03*
D13*
X58753803Y-102397347D03*
X56258863Y-114135118D03*
X71176277Y-105037826D03*
X68681337Y-116775597D03*
%TD*%
D12*
%TO.C,CPG1316*%
X64671557Y-93073980D03*
X69562295Y-94113538D03*
D13*
X62704125Y-83812543D03*
X60209185Y-95550314D03*
X75126599Y-86453022D03*
X72631659Y-98190793D03*
%TD*%
D12*
%TO.C,CPG1316*%
X75355717Y-134193911D03*
X80246455Y-135233469D03*
D13*
X73388285Y-124932474D03*
X70893345Y-136670245D03*
X85810759Y-127572953D03*
X83315819Y-139310724D03*
%TD*%
D12*
%TO.C,CPG1316*%
X79306039Y-115609106D03*
X84196777Y-116648664D03*
D13*
X77338607Y-106347669D03*
X74843667Y-118085440D03*
X89761081Y-108988148D03*
X87266141Y-120725919D03*
%TD*%
D12*
%TO.C,CPG1316*%
X83256361Y-97024302D03*
X88147099Y-98063860D03*
D13*
X81288929Y-87762865D03*
X78793989Y-99500636D03*
X93711403Y-90403344D03*
X91216463Y-102141115D03*
%TD*%
D14*
%TO.C,CPG1316*%
X97608876Y-127565962D03*
X102390400Y-129027821D03*
D15*
X96456118Y-118168295D03*
X92947658Y-129643952D03*
X108601188Y-121881416D03*
X105092728Y-133357073D03*
%TD*%
D14*
%TO.C,CPG1316*%
X103163938Y-109396171D03*
X107945462Y-110858030D03*
D15*
X102011180Y-99998504D03*
X98502720Y-111474161D03*
X114156250Y-103711625D03*
X110647790Y-115187282D03*
%TD*%
D14*
%TO.C,CPG1316*%
X108719001Y-91226381D03*
X113500525Y-92688240D03*
D15*
X107566243Y-81828714D03*
X104057783Y-93304371D03*
X119711313Y-85541835D03*
X116202853Y-97017492D03*
%TD*%
D14*
%TO.C,CPG1316*%
X117240525Y-128339500D03*
X122022049Y-129801359D03*
D15*
X116087767Y-118941833D03*
X112579307Y-130417490D03*
X128232837Y-122654954D03*
X124724377Y-134130611D03*
%TD*%
D14*
%TO.C,CPG1316*%
X122795587Y-110169710D03*
X127577111Y-111631569D03*
D15*
X121642829Y-100772043D03*
X118134369Y-112247700D03*
X133787899Y-104485164D03*
X130279439Y-115960821D03*
%TD*%
D14*
%TO.C,CPG1316*%
X128350650Y-91999920D03*
X133132174Y-93461779D03*
D15*
X127197892Y-82602253D03*
X123689432Y-94077910D03*
X139342962Y-86315374D03*
X135834502Y-97791031D03*
%TD*%
D14*
%TO.C,CPG1316*%
X133656085Y-139632391D03*
X138437609Y-141094250D03*
D15*
X132503327Y-130234724D03*
X128994867Y-141710381D03*
X144648397Y-133947845D03*
X141139937Y-145423502D03*
%TD*%
D14*
%TO.C,CPG1316*%
X139211147Y-121462601D03*
X143992671Y-122924460D03*
D15*
X138058389Y-112064934D03*
X134549929Y-123540591D03*
X150203459Y-115778055D03*
X146694999Y-127253712D03*
%TD*%
D14*
%TO.C,CPG1316*%
X144766210Y-103292810D03*
X149547734Y-104754669D03*
D15*
X143613452Y-93895143D03*
X140104992Y-105370800D03*
X155758522Y-97608264D03*
X152250062Y-109083921D03*
%TD*%
D14*
%TO.C,CPG1316*%
X151241132Y-147100063D03*
X156022656Y-148561922D03*
D15*
X150088374Y-137702396D03*
X146579914Y-149178053D03*
X162233444Y-141415517D03*
X158724984Y-152891174D03*
%TD*%
D14*
%TO.C,CPG1316*%
X156796194Y-128930273D03*
X161577718Y-130392132D03*
D15*
X155643436Y-119532606D03*
X152134976Y-131008263D03*
X167788506Y-123245727D03*
X164280046Y-134721384D03*
%TD*%
D14*
%TO.C,CPG1316*%
X131049127Y-161840583D03*
X135830651Y-163302442D03*
D15*
X129896369Y-152442916D03*
X126387909Y-163918573D03*
X142041439Y-156156037D03*
X138532979Y-167631694D03*
%TD*%
D16*
%TO.C,CPG1316*%
X151623426Y-168999072D03*
X156259345Y-170872105D03*
D17*
X151294115Y-159536696D03*
X146798836Y-170662902D03*
X163069350Y-164294200D03*
X158574071Y-175420406D03*
%TD*%
D18*
%TO.C,CPG1316*%
X171869018Y-179366204D03*
X175862196Y-182375279D03*
D19*
X173999972Y-170141019D03*
X166778191Y-179724645D03*
X184142643Y-177784069D03*
X176920862Y-187367695D03*
%TD*%
D20*
%TO.C,CPG1316*%
X318943098Y-131283146D03*
X323833836Y-130243588D03*
D21*
X313378794Y-123622630D03*
X315873734Y-135360401D03*
X325801268Y-120982151D03*
X328296208Y-132719922D03*
%TD*%
D20*
%TO.C,CPG1316*%
X314992776Y-112698342D03*
X319883514Y-111658784D03*
D21*
X309428472Y-105037826D03*
X311923412Y-116775597D03*
X321850946Y-102397347D03*
X324345886Y-114135118D03*
%TD*%
D20*
%TO.C,CPG1316*%
X311042454Y-94113538D03*
X315933192Y-93073980D03*
D21*
X305478150Y-86453022D03*
X307973090Y-98190793D03*
X317900624Y-83812543D03*
X320395564Y-95550314D03*
%TD*%
D20*
%TO.C,CPG1316*%
X300358294Y-135233469D03*
X305249032Y-134193911D03*
D21*
X294793990Y-127572953D03*
X297288930Y-139310724D03*
X307216464Y-124932474D03*
X309711404Y-136670245D03*
%TD*%
D20*
%TO.C,CPG1316*%
X296407971Y-116648664D03*
X301298709Y-115609106D03*
D21*
X290843667Y-108988148D03*
X293338607Y-120725919D03*
X303266141Y-106347669D03*
X305761081Y-118085440D03*
%TD*%
D20*
%TO.C,CPG1316*%
X292457649Y-98063860D03*
X297348387Y-97024302D03*
D21*
X286893345Y-90403344D03*
X289388285Y-102141115D03*
X299315819Y-87762865D03*
X301810759Y-99500636D03*
%TD*%
D22*
%TO.C,CPG1316*%
X278214349Y-129027821D03*
X282995873Y-127565962D03*
D23*
X272003561Y-121881416D03*
X275512021Y-133357073D03*
X284148631Y-118168295D03*
X287657091Y-129643952D03*
%TD*%
D22*
%TO.C,CPG1316*%
X272659286Y-110858030D03*
X277440810Y-109396171D03*
D23*
X266448498Y-103711625D03*
X269956958Y-115187282D03*
X278593568Y-99998504D03*
X282102028Y-111474161D03*
%TD*%
D22*
%TO.C,CPG1316*%
X267104224Y-92688240D03*
X271885748Y-91226381D03*
D23*
X260893436Y-85541835D03*
X264401896Y-97017492D03*
X273038506Y-81828714D03*
X276546966Y-93304371D03*
%TD*%
D22*
%TO.C,CPG1316*%
X258582700Y-129801359D03*
X263364224Y-128339500D03*
D23*
X252371912Y-122654954D03*
X255880372Y-134130611D03*
X264516982Y-118941833D03*
X268025442Y-130417490D03*
%TD*%
D22*
%TO.C,CPG1316*%
X253027637Y-111631569D03*
X257809161Y-110169710D03*
D23*
X246816849Y-104485164D03*
X250325309Y-115960821D03*
X258961919Y-100772043D03*
X262470379Y-112247700D03*
%TD*%
D22*
%TO.C,CPG1316*%
X247472575Y-93461779D03*
X252254099Y-91999920D03*
D23*
X241261787Y-86315374D03*
X244770247Y-97791031D03*
X253406857Y-82602253D03*
X256915317Y-94077910D03*
%TD*%
D22*
%TO.C,CPG1316*%
X242167140Y-141094250D03*
X246948664Y-139632391D03*
D23*
X235956352Y-133947845D03*
X239464812Y-145423502D03*
X248101422Y-130234724D03*
X251609882Y-141710381D03*
%TD*%
D22*
%TO.C,CPG1316*%
X236612077Y-122924460D03*
X241393601Y-121462601D03*
D23*
X230401289Y-115778055D03*
X233909749Y-127253712D03*
X242546359Y-112064934D03*
X246054819Y-123540591D03*
%TD*%
D22*
%TO.C,CPG1316*%
X231057015Y-104754669D03*
X235838539Y-103292810D03*
D23*
X224846227Y-97608264D03*
X228354687Y-109083921D03*
X236991297Y-93895143D03*
X240499757Y-105370800D03*
%TD*%
D22*
%TO.C,CPG1316*%
X224582093Y-148561922D03*
X229363617Y-147100063D03*
D23*
X218371305Y-141415517D03*
X221879765Y-152891174D03*
X230516375Y-137702396D03*
X234024835Y-149178053D03*
%TD*%
D22*
%TO.C,CPG1316*%
X219027030Y-130392132D03*
X223808554Y-128930273D03*
D23*
X212816242Y-123245727D03*
X216324702Y-134721384D03*
X224961312Y-119532606D03*
X228469772Y-131008263D03*
%TD*%
D22*
%TO.C,CPG1316*%
X213471968Y-112222341D03*
X218253492Y-110760482D03*
D23*
X207261180Y-105075936D03*
X210769640Y-116551593D03*
X219406250Y-101362815D03*
X222914710Y-112838472D03*
%TD*%
D22*
%TO.C,CPG1316*%
X244774098Y-163302442D03*
X249555622Y-161840583D03*
D23*
X238563310Y-156156037D03*
X242071770Y-167631694D03*
X250708380Y-152442916D03*
X254216840Y-163918573D03*
%TD*%
D24*
%TO.C,CPG1316*%
X224345403Y-170872105D03*
X228981322Y-168999072D03*
D25*
X217535398Y-164294200D03*
X222030677Y-175420406D03*
X229310633Y-159536696D03*
X233805912Y-170662902D03*
%TD*%
D26*
%TO.C,CPG1316*%
X204742553Y-182375279D03*
X208735731Y-179366204D03*
D27*
X196462106Y-177784069D03*
X203683887Y-187367695D03*
X206604777Y-170141019D03*
X213826558Y-179724645D03*
%TD*%
D28*
%TO.C,D1*%
X58714665Y-125187224D03*
X61942553Y-125873332D03*
%TD*%
%TO.C,D2*%
X62664988Y-106602420D03*
X65892876Y-107288528D03*
%TD*%
%TO.C,D3*%
X66615310Y-88017615D03*
X69843198Y-88703723D03*
%TD*%
%TO.C,D4*%
X77299470Y-129137546D03*
X80527358Y-129823654D03*
%TD*%
%TO.C,D5*%
X81249792Y-110552742D03*
X84477680Y-111238850D03*
%TD*%
%TO.C,D6*%
X85200114Y-91967937D03*
X88428002Y-92654045D03*
%TD*%
D29*
%TO.C,D7*%
X99985924Y-122698248D03*
X103141730Y-123663074D03*
%TD*%
%TO.C,D8*%
X105540986Y-104528457D03*
X108696792Y-105493283D03*
%TD*%
%TO.C,D9*%
X111096048Y-86358667D03*
X114251854Y-87323493D03*
%TD*%
%TO.C,D10*%
X119617572Y-123471787D03*
X122773378Y-124436613D03*
%TD*%
%TO.C,D11*%
X125172635Y-105301996D03*
X128328441Y-106266822D03*
%TD*%
%TO.C,D12*%
X130727697Y-87132206D03*
X133883503Y-88097032D03*
%TD*%
%TO.C,D13*%
X136033133Y-134764677D03*
X139188939Y-135729503D03*
%TD*%
%TO.C,D14*%
X141588195Y-116594887D03*
X144744001Y-117559713D03*
%TD*%
%TO.C,D15*%
X147143257Y-98425097D03*
X150299063Y-99389923D03*
%TD*%
%TO.C,D16*%
X153618180Y-142232349D03*
X156773986Y-143197175D03*
%TD*%
%TO.C,D17*%
X159173242Y-124062559D03*
X162329048Y-125027385D03*
%TD*%
%TO.C,D18*%
X164728304Y-105892769D03*
X167884110Y-106857595D03*
%TD*%
%TO.C,D19*%
X133426174Y-156972869D03*
X136581980Y-157937695D03*
%TD*%
D30*
%TO.C,D20*%
X154415678Y-164357054D03*
X157475384Y-165593256D03*
%TD*%
D31*
%TO.C,D21*%
X175767568Y-175605046D03*
X178403066Y-177591036D03*
%TD*%
D32*
%TO.C,D22*%
X318662195Y-125873332D03*
X321890083Y-125187224D03*
%TD*%
%TO.C,D23*%
X314711873Y-107288528D03*
X317939761Y-106602420D03*
%TD*%
%TO.C,D24*%
X310761551Y-88703723D03*
X313989439Y-88017615D03*
%TD*%
%TO.C,D25*%
X300077391Y-129823654D03*
X303305279Y-129137546D03*
%TD*%
%TO.C,D26*%
X296127069Y-111238850D03*
X299354957Y-110552742D03*
%TD*%
%TO.C,D27*%
X292176747Y-92654045D03*
X295404635Y-91967937D03*
%TD*%
D33*
%TO.C,D28*%
X277463019Y-123663074D03*
X280618825Y-122698248D03*
%TD*%
%TO.C,D29*%
X271907957Y-105493283D03*
X275063763Y-104528457D03*
%TD*%
%TO.C,D30*%
X266352894Y-87323493D03*
X269508700Y-86358667D03*
%TD*%
%TO.C,D31*%
X257831370Y-124436613D03*
X260987176Y-123471787D03*
%TD*%
%TO.C,D32*%
X252276308Y-106266822D03*
X255432114Y-105301996D03*
%TD*%
%TO.C,D33*%
X246721245Y-88097032D03*
X249877051Y-87132206D03*
%TD*%
%TO.C,D34*%
X241415810Y-135729503D03*
X244571616Y-134764677D03*
%TD*%
%TO.C,D35*%
X235860748Y-117559713D03*
X239016554Y-116594887D03*
%TD*%
%TO.C,D36*%
X230305685Y-99389923D03*
X233461491Y-98425097D03*
%TD*%
%TO.C,D37*%
X223830763Y-143197175D03*
X226986569Y-142232349D03*
%TD*%
%TO.C,D38*%
X218275701Y-125027385D03*
X221431507Y-124062559D03*
%TD*%
%TO.C,D39*%
X212720638Y-106857595D03*
X215876444Y-105892769D03*
%TD*%
%TO.C,D40*%
X244022768Y-157937695D03*
X247178574Y-156972869D03*
%TD*%
D34*
%TO.C,D41*%
X223129365Y-165593256D03*
X226189071Y-164357054D03*
%TD*%
D35*
%TO.C,D42*%
X202201683Y-177591036D03*
X204837181Y-175605046D03*
%TD*%
D14*
%TO.C,CPG1316*%
X162351257Y-110760482D03*
X167132781Y-112222341D03*
D15*
X161198499Y-101362815D03*
X157690039Y-112838472D03*
X173343569Y-105075936D03*
X169835109Y-116551593D03*
%TD*%
M02*
