%TF.GenerationSoftware,KiCad,Pcbnew,8.0.6*%
%TF.CreationDate,2025-07-18T12:27:13+02:00*%
%TF.ProjectId,main,6d61696e-2e6b-4696-9361-645f70636258,v1.0.0*%
%TF.SameCoordinates,Original*%
%TF.FileFunction,Copper,L2,Bot*%
%TF.FilePolarity,Positive*%
%FSLAX46Y46*%
G04 Gerber Fmt 4.6, Leading zero omitted, Abs format (unit mm)*
G04 Created by KiCad (PCBNEW 8.0.6) date 2025-07-18 12:27:13*
%MOMM*%
%LPD*%
G01*
G04 APERTURE LIST*
G04 Aperture macros list*
%AMRoundRect*
0 Rectangle with rounded corners*
0 $1 Rounding radius*
0 $2 $3 $4 $5 $6 $7 $8 $9 X,Y pos of 4 corners*
0 Add a 4 corners polygon primitive as box body*
4,1,4,$2,$3,$4,$5,$6,$7,$8,$9,$2,$3,0*
0 Add four circle primitives for the rounded corners*
1,1,$1+$1,$2,$3*
1,1,$1+$1,$4,$5*
1,1,$1+$1,$6,$7*
1,1,$1+$1,$8,$9*
0 Add four rect primitives between the rounded corners*
20,1,$1+$1,$2,$3,$4,$5,0*
20,1,$1+$1,$4,$5,$6,$7,0*
20,1,$1+$1,$6,$7,$8,$9,0*
20,1,$1+$1,$8,$9,$2,$3,0*%
%AMRotRect*
0 Rectangle, with rotation*
0 The origin of the aperture is its center*
0 $1 length*
0 $2 width*
0 $3 Rotation angle, in degrees counterclockwise*
0 Add horizontal line*
21,1,$1,$2,0,0,$3*%
G04 Aperture macros list end*
%TA.AperFunction,ComponentPad*%
%ADD10C,1.400000*%
%TD*%
%TA.AperFunction,SMDPad,CuDef*%
%ADD11RotRect,1.550000X2.000000X343.000000*%
%TD*%
%TA.AperFunction,SMDPad,CuDef*%
%ADD12RotRect,0.900000X1.200000X17.000000*%
%TD*%
%TA.AperFunction,SMDPad,CuDef*%
%ADD13RotRect,0.900000X1.200000X12.000000*%
%TD*%
%TA.AperFunction,SMDPad,CuDef*%
%ADD14RotRect,1.550000X2.000000X17.000000*%
%TD*%
%TA.AperFunction,SMDPad,CuDef*%
%ADD15RotRect,1.550000X2.000000X348.000000*%
%TD*%
%TA.AperFunction,SMDPad,CuDef*%
%ADD16RotRect,0.900000X1.200000X343.000000*%
%TD*%
%TA.AperFunction,SMDPad,CuDef*%
%ADD17RotRect,1.550000X2.000000X22.000000*%
%TD*%
%TA.AperFunction,SMDPad,CuDef*%
%ADD18RotRect,0.900000X1.200000X348.000000*%
%TD*%
%TA.AperFunction,SMDPad,CuDef*%
%ADD19RotRect,0.900000X1.200000X323.000000*%
%TD*%
%TA.AperFunction,SMDPad,CuDef*%
%ADD20RotRect,1.550000X2.000000X323.000000*%
%TD*%
%TA.AperFunction,ComponentPad*%
%ADD21RoundRect,0.240000X-0.360000X-0.635000X0.360000X-0.635000X0.360000X0.635000X-0.360000X0.635000X0*%
%TD*%
%TA.AperFunction,ComponentPad*%
%ADD22O,1.200000X1.750000*%
%TD*%
%TA.AperFunction,SMDPad,CuDef*%
%ADD23RotRect,0.900000X1.200000X22.000000*%
%TD*%
%TA.AperFunction,SMDPad,CuDef*%
%ADD24RotRect,0.900000X1.200000X37.000000*%
%TD*%
%TA.AperFunction,SMDPad,CuDef*%
%ADD25RotRect,1.550000X2.000000X12.000000*%
%TD*%
%TA.AperFunction,SMDPad,CuDef*%
%ADD26RotRect,1.550000X2.000000X338.000000*%
%TD*%
%TA.AperFunction,ComponentPad*%
%ADD27C,1.700000*%
%TD*%
%TA.AperFunction,SMDPad,CuDef*%
%ADD28RotRect,1.550000X2.000000X37.000000*%
%TD*%
%TA.AperFunction,SMDPad,CuDef*%
%ADD29RotRect,0.900000X1.200000X338.000000*%
%TD*%
%TA.AperFunction,ViaPad*%
%ADD30C,0.600000*%
%TD*%
%TA.AperFunction,Conductor*%
%ADD31C,0.200000*%
%TD*%
%TA.AperFunction,Conductor*%
%ADD32C,0.250000*%
%TD*%
G04 APERTURE END LIST*
D10*
%TO.P,CPG1316,1*%
%TO.N,P7*%
X116385649Y-110665921D03*
D11*
X116385649Y-110665921D03*
D10*
%TO.P,CPG1316,2*%
%TO.N,middle_home*%
X120210869Y-111835418D03*
D11*
X120210869Y-111835418D03*
%TD*%
D10*
%TO.P,CPG1316,1*%
%TO.N,P7*%
X121355970Y-94408736D03*
D11*
X121355970Y-94408736D03*
D10*
%TO.P,CPG1316,2*%
%TO.N,middle_top*%
X125181190Y-95578233D03*
D11*
X125181190Y-95578233D03*
%TD*%
D10*
%TO.P,CPG1316,1*%
%TO.N,P8*%
X125918265Y-137631240D03*
D11*
X125918265Y-137631240D03*
D10*
%TO.P,CPG1316,2*%
%TO.N,index_bottom*%
X129743485Y-138800737D03*
D11*
X129743485Y-138800737D03*
%TD*%
D12*
%TO.P,D34,1*%
%TO.N,P2*%
X226409371Y-133728371D03*
%TO.P,D34,2*%
%TO.N,mirror_index_bottom*%
X229565183Y-132763545D03*
%TD*%
D13*
%TO.P,D26,1*%
%TO.N,P0*%
X275754948Y-112779315D03*
%TO.P,D26,2*%
%TO.N,mirror_pinky_home*%
X278982840Y-112093213D03*
%TD*%
D10*
%TO.P,CPG1316,1*%
%TO.N,P7*%
X231723025Y-95870610D03*
D14*
X231723025Y-95870610D03*
D10*
%TO.P,CPG1316,2*%
%TO.N,mirror_middle_top*%
X235548241Y-94701125D03*
D14*
X235548241Y-94701125D03*
%TD*%
D10*
%TO.P,CPG1316,1*%
%TO.N,P5*%
X73399419Y-133778081D03*
D15*
X73399419Y-133778081D03*
D10*
%TO.P,CPG1316,2*%
%TO.N,pinky_bottom*%
X77312005Y-134609733D03*
D15*
X77312005Y-134609733D03*
%TD*%
D10*
%TO.P,CPG1316,1*%
%TO.N,P6*%
X103636928Y-94219956D03*
D11*
X103636928Y-94219956D03*
D10*
%TO.P,CPG1316,2*%
%TO.N,ring_top*%
X107462148Y-95389453D03*
D11*
X107462148Y-95389453D03*
%TD*%
D16*
%TO.P,D10,1*%
%TO.N,P19*%
X113792381Y-122055400D03*
%TO.P,D10,2*%
%TO.N,middle_bottom*%
X116948179Y-123020220D03*
%TD*%
D12*
%TO.P,D29,1*%
%TO.N,P0*%
X253661051Y-106574240D03*
%TO.P,D29,2*%
%TO.N,mirror_ring_home*%
X256816863Y-105609414D03*
%TD*%
D13*
%TO.P,D25,1*%
%TO.N,P2*%
X279289452Y-129407823D03*
%TO.P,D25,2*%
%TO.N,mirror_pinky_bottom*%
X282517344Y-128721721D03*
%TD*%
D16*
%TO.P,D16,1*%
%TO.N,P19*%
X143967773Y-139646471D03*
%TO.P,D16,2*%
%TO.N,inner_bottom*%
X147123571Y-140611291D03*
%TD*%
D10*
%TO.P,CPG1316,1*%
%TO.N,P8*%
X227160720Y-139093119D03*
D14*
X227160720Y-139093119D03*
D10*
%TO.P,CPG1316,2*%
%TO.N,mirror_index_bottom*%
X230985936Y-137923634D03*
D14*
X230985936Y-137923634D03*
%TD*%
D10*
%TO.P,CPG1316,1*%
%TO.N,P8*%
X217600044Y-164253920D03*
D17*
X217600044Y-164253920D03*
D10*
%TO.P,CPG1316,2*%
%TO.N,mirror_home_thumb*%
X221308784Y-162755491D03*
D17*
X221308784Y-162755491D03*
%TD*%
D16*
%TO.P,D9,1*%
%TO.N,P21*%
X106013978Y-89352235D03*
%TO.P,D9,2*%
%TO.N,ring_top*%
X109169776Y-90317055D03*
%TD*%
D18*
%TO.P,D3,1*%
%TO.N,P21*%
X65783650Y-91930199D03*
%TO.P,D3,2*%
%TO.N,outer_top*%
X69011564Y-92616311D03*
%TD*%
D10*
%TO.P,CPG1316,1*%
%TO.N,P9*%
X151531348Y-111999824D03*
D11*
X151531348Y-111999824D03*
D10*
%TO.P,CPG1316,2*%
%TO.N,inner_top*%
X155356568Y-113169321D03*
D11*
X155356568Y-113169321D03*
%TD*%
D18*
%TO.P,D2,1*%
%TO.N,P20*%
X62249151Y-108558712D03*
%TO.P,D2,2*%
%TO.N,outer_home*%
X65477065Y-109244824D03*
%TD*%
D19*
%TO.P,D21,1*%
%TO.N,P18*%
X155828154Y-167394794D03*
%TO.P,D21,2*%
%TO.N,far_thumb*%
X158463648Y-169380762D03*
%TD*%
D10*
%TO.P,CPG1316,1*%
%TO.N,P5*%
X76933934Y-117149575D03*
D15*
X76933934Y-117149575D03*
D10*
%TO.P,CPG1316,2*%
%TO.N,pinky_home*%
X80846520Y-117981227D03*
D15*
X80846520Y-117981227D03*
%TD*%
D12*
%TO.P,D35,1*%
%TO.N,P0*%
X221439059Y-117471188D03*
%TO.P,D35,2*%
%TO.N,mirror_index_home*%
X224594871Y-116506362D03*
%TD*%
D10*
%TO.P,CPG1316,1*%
%TO.N,P8*%
X222190398Y-122835938D03*
D14*
X222190398Y-122835938D03*
D10*
%TO.P,CPG1316,2*%
%TO.N,mirror_index_home*%
X226015614Y-121666453D03*
D14*
X226015614Y-121666453D03*
%TD*%
D16*
%TO.P,D12,1*%
%TO.N,P21*%
X123733006Y-89541036D03*
%TO.P,D12,2*%
%TO.N,middle_top*%
X126888804Y-90505856D03*
%TD*%
D10*
%TO.P,CPG1316,1*%
%TO.N,P9*%
X151929596Y-171155935D03*
D20*
X151929596Y-171155935D03*
D10*
%TO.P,CPG1316,2*%
%TO.N,far_thumb*%
X155124138Y-173563189D03*
D20*
X155124138Y-173563189D03*
%TD*%
D13*
%TO.P,D23,1*%
%TO.N,P0*%
X292383464Y-109244816D03*
%TO.P,D23,2*%
%TO.N,mirror_outer_home*%
X295611356Y-108558714D03*
%TD*%
D12*
%TO.P,D33,1*%
%TO.N,P1*%
X230971694Y-90505866D03*
%TO.P,D33,2*%
%TO.N,mirror_middle_top*%
X234127506Y-89541040D03*
%TD*%
D21*
%TO.P,JST1,1*%
%TO.N,GND*%
X164974996Y-118674999D03*
D22*
%TO.P,JST1,2*%
%TO.N,BAT_P*%
X166974992Y-118675007D03*
%TD*%
D18*
%TO.P,D4,1*%
%TO.N,P19*%
X75343167Y-128721726D03*
%TO.P,D4,2*%
%TO.N,pinky_bottom*%
X78571081Y-129407838D03*
%TD*%
D12*
%TO.P,D36,1*%
%TO.N,P1*%
X216468735Y-101214007D03*
%TO.P,D36,2*%
%TO.N,mirror_index_top*%
X219624547Y-100249181D03*
%TD*%
D23*
%TO.P,D41,1*%
%TO.N,P3*%
X216384019Y-158975078D03*
%TO.P,D41,2*%
%TO.N,mirror_home_thumb*%
X219443715Y-157738874D03*
%TD*%
D10*
%TO.P,CPG1316,1*%
%TO.N,P4*%
X60305399Y-113615073D03*
D15*
X60305399Y-113615073D03*
D10*
%TO.P,CPG1316,2*%
%TO.N,outer_home*%
X64217985Y-114446725D03*
D15*
X64217985Y-114446725D03*
%TD*%
D10*
%TO.P,CPG1316,1*%
%TO.N,P6*%
X98666608Y-110477127D03*
D11*
X98666608Y-110477127D03*
D10*
%TO.P,CPG1316,2*%
%TO.N,ring_home*%
X102491828Y-111646624D03*
D11*
X102491828Y-111646624D03*
%TD*%
D10*
%TO.P,CPG1316,1*%
%TO.N,P9*%
X201547649Y-113461690D03*
D14*
X201547649Y-113461690D03*
D10*
%TO.P,CPG1316,2*%
%TO.N,mirror_inner_top*%
X205372865Y-112292205D03*
D14*
X205372865Y-112292205D03*
%TD*%
D10*
%TO.P,CPG1316,1*%
%TO.N,P7*%
X241663664Y-128384964D03*
D14*
X241663664Y-128384964D03*
D10*
%TO.P,CPG1316,2*%
%TO.N,mirror_middle_bottom*%
X245488880Y-127215479D03*
D14*
X245488880Y-127215479D03*
%TD*%
D10*
%TO.P,CPG1316,1*%
%TO.N,P9*%
X211488277Y-145976056D03*
D14*
X211488277Y-145976056D03*
D10*
%TO.P,CPG1316,2*%
%TO.N,mirror_inner_bottom*%
X215313493Y-144806571D03*
D14*
X215313493Y-144806571D03*
%TD*%
D10*
%TO.P,CPG1316,1*%
%TO.N,P7*%
X236693345Y-112127788D03*
D14*
X236693345Y-112127788D03*
D10*
%TO.P,CPG1316,2*%
%TO.N,mirror_middle_home*%
X240518561Y-110958303D03*
D14*
X240518561Y-110958303D03*
%TD*%
D16*
%TO.P,D14,1*%
%TO.N,P20*%
X133265656Y-116506370D03*
%TO.P,D14,2*%
%TO.N,index_home*%
X136421454Y-117471190D03*
%TD*%
D24*
%TO.P,D42,1*%
%TO.N,P3*%
X199396862Y-169380780D03*
%TO.P,D42,2*%
%TO.N,mirror_far_thumb*%
X202032368Y-167394770D03*
%TD*%
D12*
%TO.P,D30,1*%
%TO.N,P1*%
X248690736Y-90317067D03*
%TO.P,D30,2*%
%TO.N,mirror_ring_top*%
X251846548Y-89352241D03*
%TD*%
D13*
%TO.P,D22,1*%
%TO.N,P2*%
X295917965Y-125873331D03*
%TO.P,D22,2*%
%TO.N,mirror_outer_bottom*%
X299145857Y-125187229D03*
%TD*%
D16*
%TO.P,D7,1*%
%TO.N,P19*%
X96073337Y-121866594D03*
%TO.P,D7,2*%
%TO.N,ring_bottom*%
X99229135Y-122831414D03*
%TD*%
D10*
%TO.P,CPG1316,1*%
%TO.N,P4*%
X289129865Y-98026131D03*
D25*
X289129865Y-98026131D03*
D10*
%TO.P,CPG1316,2*%
%TO.N,mirror_outer_top*%
X293042457Y-97194484D03*
D25*
X293042457Y-97194484D03*
%TD*%
D10*
%TO.P,CPG1316,1*%
%TO.N,P5*%
X279570342Y-134817633D03*
D25*
X279570342Y-134817633D03*
D10*
%TO.P,CPG1316,2*%
%TO.N,mirror_pinky_bottom*%
X283482934Y-133985986D03*
D25*
X283482934Y-133985986D03*
%TD*%
D12*
%TO.P,D28,1*%
%TO.N,P2*%
X258631370Y-122831426D03*
%TO.P,D28,2*%
%TO.N,mirror_ring_bottom*%
X261787182Y-121866600D03*
%TD*%
%TO.P,D31,1*%
%TO.N,P2*%
X240912332Y-123020220D03*
%TO.P,D31,2*%
%TO.N,mirror_middle_bottom*%
X244068144Y-122055394D03*
%TD*%
D10*
%TO.P,CPG1316,1*%
%TO.N,P7*%
X119114534Y-156464968D03*
D11*
X119114534Y-156464968D03*
D10*
%TO.P,CPG1316,2*%
%TO.N,near_thumb*%
X122939754Y-157634465D03*
D11*
X122939754Y-157634465D03*
%TD*%
D18*
%TO.P,D6,1*%
%TO.N,P21*%
X82412158Y-95464704D03*
%TO.P,D6,2*%
%TO.N,pinky_top*%
X85640072Y-96150816D03*
%TD*%
D10*
%TO.P,CPG1316,1*%
%TO.N,P8*%
X217220077Y-106578751D03*
D14*
X217220077Y-106578751D03*
D10*
%TO.P,CPG1316,2*%
%TO.N,mirror_index_top*%
X221045293Y-105409266D03*
D14*
X221045293Y-105409266D03*
%TD*%
D12*
%TO.P,D37,1*%
%TO.N,P2*%
X210736939Y-140611296D03*
%TO.P,D37,2*%
%TO.N,mirror_inner_bottom*%
X213892751Y-139646470D03*
%TD*%
D10*
%TO.P,CPG1316,1*%
%TO.N,P4*%
X292664349Y-114654635D03*
D25*
X292664349Y-114654635D03*
D10*
%TO.P,CPG1316,2*%
%TO.N,mirror_outer_home*%
X296576941Y-113822988D03*
D25*
X296576941Y-113822988D03*
%TD*%
D10*
%TO.P,CPG1316,1*%
%TO.N,P9*%
X141590710Y-144514184D03*
D11*
X141590710Y-144514184D03*
D10*
%TO.P,CPG1316,2*%
%TO.N,inner_bottom*%
X145415930Y-145683681D03*
D11*
X145415930Y-145683681D03*
%TD*%
D10*
%TO.P,CPG1316,1*%
%TO.N,P8*%
X130888600Y-121374074D03*
D11*
X130888600Y-121374074D03*
D10*
%TO.P,CPG1316,2*%
%TO.N,index_home*%
X134713820Y-122543571D03*
D11*
X134713820Y-122543571D03*
%TD*%
D12*
%TO.P,D40,1*%
%TO.N,P3*%
X233213117Y-152562090D03*
%TO.P,D40,2*%
%TO.N,mirror_near_thumb*%
X236368929Y-151597264D03*
%TD*%
D10*
%TO.P,CPG1316,1*%
%TO.N,P6*%
X93696285Y-126734318D03*
D11*
X93696285Y-126734318D03*
D10*
%TO.P,CPG1316,2*%
%TO.N,ring_bottom*%
X97521505Y-127903815D03*
D11*
X97521505Y-127903815D03*
%TD*%
D18*
%TO.P,D5,1*%
%TO.N,P20*%
X78877658Y-112093219D03*
%TO.P,D5,2*%
%TO.N,pinky_home*%
X82105572Y-112779331D03*
%TD*%
D10*
%TO.P,CPG1316,1*%
%TO.N,P7*%
X233964450Y-157926831D03*
D14*
X233964450Y-157926831D03*
D10*
%TO.P,CPG1316,2*%
%TO.N,mirror_near_thumb*%
X237789666Y-156757346D03*
D14*
X237789666Y-156757346D03*
%TD*%
D10*
%TO.P,CPG1316,1*%
%TO.N,P5*%
X276035856Y-118189138D03*
D25*
X276035856Y-118189138D03*
D10*
%TO.P,CPG1316,2*%
%TO.N,mirror_pinky_home*%
X279948448Y-117357491D03*
D25*
X279948448Y-117357491D03*
%TD*%
D16*
%TO.P,D19,1*%
%TO.N,P18*%
X121491592Y-151597273D03*
%TO.P,D19,2*%
%TO.N,near_thumb*%
X124647390Y-152562093D03*
%TD*%
D10*
%TO.P,CPG1316,1*%
%TO.N,P4*%
X63839904Y-96986563D03*
D15*
X63839904Y-96986563D03*
D10*
%TO.P,CPG1316,2*%
%TO.N,outer_top*%
X67752490Y-97818215D03*
D15*
X67752490Y-97818215D03*
%TD*%
D10*
%TO.P,CPG1316,1*%
%TO.N,P5*%
X80468420Y-100521058D03*
D15*
X80468420Y-100521058D03*
D10*
%TO.P,CPG1316,2*%
%TO.N,pinky_top*%
X84381006Y-101352710D03*
D15*
X84381006Y-101352710D03*
%TD*%
D12*
%TO.P,D38,1*%
%TO.N,P0*%
X205766625Y-124354120D03*
%TO.P,D38,2*%
%TO.N,mirror_inner_home*%
X208922437Y-123389294D03*
%TD*%
D10*
%TO.P,CPG1316,1*%
%TO.N,P8*%
X135624550Y-162380893D03*
D26*
X135624550Y-162380893D03*
D10*
%TO.P,CPG1316,2*%
%TO.N,home_thumb*%
X139333278Y-163879313D03*
D26*
X139333278Y-163879313D03*
%TD*%
D27*
%TO.P,RST1,1*%
%TO.N,RST*%
X167074989Y-115349996D03*
%TO.P,RST1,2*%
%TO.N,GND*%
X167075005Y-108850000D03*
%TD*%
D10*
%TO.P,CPG1316,1*%
%TO.N,P9*%
X206517954Y-129718864D03*
D14*
X206517954Y-129718864D03*
D10*
%TO.P,CPG1316,2*%
%TO.N,mirror_inner_home*%
X210343170Y-128549379D03*
D14*
X210343170Y-128549379D03*
%TD*%
D10*
%TO.P,CPG1316,1*%
%TO.N,P6*%
X259382697Y-128196183D03*
D14*
X259382697Y-128196183D03*
D10*
%TO.P,CPG1316,2*%
%TO.N,mirror_ring_bottom*%
X263207913Y-127026698D03*
D14*
X263207913Y-127026698D03*
%TD*%
D10*
%TO.P,CPG1316,1*%
%TO.N,P9*%
X146561033Y-128257002D03*
D11*
X146561033Y-128257002D03*
D10*
%TO.P,CPG1316,2*%
%TO.N,inner_home*%
X150386253Y-129426499D03*
D11*
X150386253Y-129426499D03*
%TD*%
D16*
%TO.P,D13,1*%
%TO.N,P19*%
X128295330Y-132763543D03*
%TO.P,D13,2*%
%TO.N,index_bottom*%
X131451128Y-133728363D03*
%TD*%
D12*
%TO.P,D39,1*%
%TO.N,P1*%
X200796293Y-108096936D03*
%TO.P,D39,2*%
%TO.N,mirror_inner_top*%
X203952105Y-107132110D03*
%TD*%
D10*
%TO.P,CPG1316,1*%
%TO.N,P4*%
X296198851Y-131283137D03*
D25*
X296198851Y-131283137D03*
D10*
%TO.P,CPG1316,2*%
%TO.N,mirror_outer_bottom*%
X300111443Y-130451490D03*
D25*
X300111443Y-130451490D03*
%TD*%
D13*
%TO.P,D27,1*%
%TO.N,P1*%
X272220457Y-96150800D03*
%TO.P,D27,2*%
%TO.N,mirror_pinky_top*%
X275448349Y-95464698D03*
%TD*%
D10*
%TO.P,CPG1316,1*%
%TO.N,P8*%
X135858918Y-105116909D03*
D11*
X135858918Y-105116909D03*
D10*
%TO.P,CPG1316,2*%
%TO.N,index_top*%
X139684138Y-106286406D03*
D11*
X139684138Y-106286406D03*
%TD*%
D16*
%TO.P,D15,1*%
%TO.N,P21*%
X138235972Y-100249180D03*
%TO.P,D15,2*%
%TO.N,index_top*%
X141391770Y-101214000D03*
%TD*%
%TO.P,D17,1*%
%TO.N,P20*%
X148938086Y-123389299D03*
%TO.P,D17,2*%
%TO.N,inner_home*%
X152093884Y-124354119D03*
%TD*%
%TO.P,D8,1*%
%TO.N,P20*%
X101043664Y-105609426D03*
%TO.P,D8,2*%
%TO.N,ring_home*%
X104199462Y-106574246D03*
%TD*%
%TO.P,D11,1*%
%TO.N,P20*%
X118762691Y-105798215D03*
%TO.P,D11,2*%
%TO.N,middle_home*%
X121918489Y-106763035D03*
%TD*%
D12*
%TO.P,D32,1*%
%TO.N,P0*%
X235942018Y-106763040D03*
%TO.P,D32,2*%
%TO.N,mirror_middle_home*%
X239097830Y-105798214D03*
%TD*%
D18*
%TO.P,D1,1*%
%TO.N,P19*%
X58714655Y-125187215D03*
%TO.P,D1,2*%
%TO.N,outer_bottom*%
X61942569Y-125873327D03*
%TD*%
D10*
%TO.P,CPG1316,1*%
%TO.N,P6*%
X249442059Y-95681812D03*
D14*
X249442059Y-95681812D03*
D10*
%TO.P,CPG1316,2*%
%TO.N,mirror_ring_top*%
X253267275Y-94512327D03*
D14*
X253267275Y-94512327D03*
%TD*%
D10*
%TO.P,CPG1316,1*%
%TO.N,P7*%
X111415320Y-126923112D03*
D11*
X111415320Y-126923112D03*
D10*
%TO.P,CPG1316,2*%
%TO.N,middle_bottom*%
X115240540Y-128092609D03*
D11*
X115240540Y-128092609D03*
%TD*%
D16*
%TO.P,D18,1*%
%TO.N,P21*%
X153908406Y-107132117D03*
%TO.P,D18,2*%
%TO.N,inner_top*%
X157064204Y-108096937D03*
%TD*%
D10*
%TO.P,CPG1316,1*%
%TO.N,P9*%
X201937726Y-174165016D03*
D28*
X201937726Y-174165016D03*
D10*
%TO.P,CPG1316,2*%
%TO.N,mirror_far_thumb*%
X205132269Y-171757754D03*
D28*
X205132269Y-171757754D03*
%TD*%
D10*
%TO.P,CPG1316,1*%
%TO.N,P5*%
X272501356Y-101560627D03*
D25*
X272501356Y-101560627D03*
D10*
%TO.P,CPG1316,2*%
%TO.N,mirror_pinky_top*%
X276413948Y-100728980D03*
D25*
X276413948Y-100728980D03*
%TD*%
D29*
%TO.P,D20,1*%
%TO.N,P18*%
X138416788Y-157738875D03*
%TO.P,D20,2*%
%TO.N,home_thumb*%
X141476508Y-158975073D03*
%TD*%
D13*
%TO.P,D24,1*%
%TO.N,P1*%
X288848962Y-92616309D03*
%TO.P,D24,2*%
%TO.N,mirror_outer_top*%
X292076854Y-91930207D03*
%TD*%
D10*
%TO.P,CPG1316,1*%
%TO.N,P4*%
X56770911Y-130243580D03*
D15*
X56770911Y-130243580D03*
D10*
%TO.P,CPG1316,2*%
%TO.N,outer_bottom*%
X60683497Y-131075232D03*
D15*
X60683497Y-131075232D03*
%TD*%
D27*
%TO.P,MCU1,1*%
%TO.N,P1*%
X186524994Y-107834998D03*
%TO.P,MCU1,2*%
%TO.N,P0*%
X186524992Y-110374996D03*
%TO.P,MCU1,3*%
%TO.N,GND*%
X186524994Y-112915005D03*
%TO.P,MCU1,4*%
X186524996Y-115455001D03*
%TO.P,MCU1,5*%
%TO.N,P2*%
X186525000Y-117995011D03*
%TO.P,MCU1,6*%
%TO.N,P3*%
X186525001Y-120534997D03*
%TO.P,MCU1,7*%
%TO.N,P4*%
X186524989Y-123075002D03*
%TO.P,MCU1,8*%
%TO.N,P5*%
X186524997Y-125614999D03*
%TO.P,MCU1,9*%
%TO.N,P6*%
X186524988Y-128154999D03*
%TO.P,MCU1,10*%
%TO.N,P7*%
X186524996Y-130695008D03*
%TO.P,MCU1,11*%
%TO.N,P8*%
X186524991Y-133234992D03*
%TO.P,MCU1,12*%
%TO.N,P9*%
X186524993Y-135775007D03*
%TO.P,MCU1,13*%
%TO.N,P10*%
X171284995Y-135775001D03*
%TO.P,MCU1,14*%
%TO.N,P16*%
X171284994Y-133235000D03*
%TO.P,MCU1,15*%
%TO.N,P14*%
X171284996Y-130695002D03*
%TO.P,MCU1,16*%
%TO.N,P15*%
X171284994Y-128154993D03*
%TO.P,MCU1,17*%
%TO.N,P18*%
X171284992Y-125614997D03*
%TO.P,MCU1,18*%
%TO.N,P19*%
X171284988Y-123074987D03*
%TO.P,MCU1,19*%
%TO.N,P20*%
X171284987Y-120535001D03*
%TO.P,MCU1,20*%
%TO.N,P21*%
X171284999Y-117994996D03*
%TO.P,MCU1,21*%
%TO.N,VCC*%
X171284991Y-115454999D03*
%TO.P,MCU1,22*%
%TO.N,RST*%
X171285000Y-112914999D03*
%TO.P,MCU1,23*%
%TO.N,GND*%
X171284992Y-110374990D03*
%TO.P,MCU1,24*%
%TO.N,RAW*%
X171284997Y-107835006D03*
%TD*%
D10*
%TO.P,CPG1316,1*%
%TO.N,P6*%
X254412386Y-111938987D03*
D14*
X254412386Y-111938987D03*
D10*
%TO.P,CPG1316,2*%
%TO.N,mirror_ring_home*%
X258237602Y-110769502D03*
D14*
X258237602Y-110769502D03*
%TD*%
D30*
%TO.N,P4*%
X165349998Y-128500004D03*
X149586279Y-118513270D03*
%TO.N,outer_bottom*%
X63116332Y-126122829D03*
%TO.N,outer_home*%
X66650829Y-109494315D03*
%TO.N,outer_top*%
X70185325Y-92865812D03*
%TO.N,P5*%
X166150004Y-128500001D03*
X149820188Y-117748219D03*
%TO.N,pinky_bottom*%
X79744839Y-129657328D03*
%TO.N,pinky_home*%
X83279340Y-113028815D03*
%TO.N,pinky_top*%
X86813843Y-96400307D03*
%TO.N,P6*%
X150054082Y-116983173D03*
X167000006Y-128500006D03*
%TO.N,ring_bottom*%
X100376710Y-123182268D03*
%TO.N,ring_home*%
X105347018Y-106925098D03*
%TO.N,ring_top*%
X110317351Y-90667911D03*
%TO.N,P7*%
X167799995Y-128499996D03*
X150287986Y-116218128D03*
%TO.N,middle_bottom*%
X118095742Y-123371064D03*
%TO.N,middle_home*%
X123066057Y-107113888D03*
%TO.N,middle_top*%
X128036381Y-90856707D03*
%TO.N,P8*%
X168600004Y-128499998D03*
X150584307Y-115419896D03*
%TO.N,index_bottom*%
X132598686Y-134079220D03*
%TO.N,index_home*%
X137569005Y-117822033D03*
%TO.N,index_top*%
X142539328Y-101564850D03*
%TO.N,P9*%
X169450000Y-128499997D03*
%TO.N,inner_bottom*%
X148271135Y-140962138D03*
%TO.N,inner_home*%
X153241451Y-124704964D03*
%TO.N,inner_top*%
X158211773Y-108447787D03*
%TO.N,near_thumb*%
X125794956Y-152912948D03*
%TO.N,home_thumb*%
X142589118Y-159424600D03*
%TO.N,far_thumb*%
X159422013Y-170102957D03*
%TO.N,mirror_outer_bottom*%
X300319628Y-124937731D03*
%TO.N,mirror_outer_home*%
X296785122Y-108309218D03*
%TO.N,mirror_outer_top*%
X293250633Y-91680716D03*
%TO.N,mirror_pinky_bottom*%
X283691103Y-128472234D03*
%TO.N,mirror_pinky_home*%
X280156609Y-111843714D03*
%TO.N,mirror_pinky_top*%
X276622111Y-95215214D03*
%TO.N,mirror_ring_bottom*%
X262934751Y-121515750D03*
%TO.N,mirror_ring_home*%
X257964427Y-105258569D03*
%TO.N,mirror_ring_top*%
X252994113Y-89001387D03*
%TO.N,mirror_middle_bottom*%
X245215699Y-121704544D03*
%TO.N,mirror_middle_home*%
X240245385Y-105447365D03*
%TO.N,mirror_middle_top*%
X235275060Y-89190185D03*
%TO.N,mirror_index_bottom*%
X230712754Y-132412696D03*
%TO.N,mirror_index_home*%
X225742426Y-116155513D03*
%TO.N,mirror_index_top*%
X220772109Y-99898338D03*
%TO.N,mirror_inner_bottom*%
X215040323Y-139295621D03*
%TO.N,mirror_inner_home*%
X210069995Y-123038442D03*
%TO.N,mirror_inner_top*%
X205099680Y-106781262D03*
%TO.N,mirror_near_thumb*%
X237516490Y-151246429D03*
%TO.N,mirror_home_thumb*%
X220556338Y-157289346D03*
%TO.N,mirror_far_thumb*%
X202990726Y-166672613D03*
%TO.N,P19*%
X112644801Y-121704542D03*
X74169401Y-128472221D03*
X127147754Y-132412696D03*
X94925765Y-121515746D03*
X57540889Y-124937734D03*
X142820194Y-139295619D03*
%TO.N,P20*%
X99896084Y-105258579D03*
X77703896Y-111843716D03*
X147790520Y-123038452D03*
X61075398Y-108309220D03*
X117615121Y-105447370D03*
X132118086Y-116155521D03*
%TO.N,P21*%
X137088394Y-99898331D03*
X64609884Y-91680710D03*
X104866408Y-89001390D03*
X152760828Y-106781264D03*
X122585442Y-89190193D03*
X81238398Y-95215201D03*
%TO.N,P18*%
X137304161Y-157289352D03*
X120344021Y-151246414D03*
X154869777Y-166672603D03*
%TO.N,P2*%
X278115669Y-129657330D03*
X257483798Y-123182272D03*
X239764761Y-123371071D03*
X294744182Y-126122828D03*
X209589388Y-140962136D03*
X225261818Y-134079213D03*
%TO.N,P0*%
X220291499Y-117822024D03*
X204619056Y-124704959D03*
X252513482Y-106925091D03*
X274581171Y-113028824D03*
X234794442Y-107113890D03*
X291209685Y-109494312D03*
%TO.N,P1*%
X229824131Y-90856716D03*
X287675178Y-92865808D03*
X271046669Y-96400300D03*
X199648740Y-108447780D03*
X215321183Y-101564861D03*
X247543165Y-90667914D03*
%TO.N,P3*%
X215271396Y-159424609D03*
X198438498Y-170102949D03*
X232065552Y-152912948D03*
%TD*%
D31*
%TO.N,pinky_top*%
X84381005Y-101352707D02*
X84558932Y-101237160D01*
X84558932Y-101237160D02*
X85640072Y-96150815D01*
%TO.N,P4*%
X61782696Y-98322542D02*
X58924661Y-111768537D01*
X289129862Y-98026128D02*
X287738892Y-100168037D01*
X252456857Y-99276683D02*
X253580669Y-99874225D01*
X60305410Y-113615081D02*
X59935069Y-113536367D01*
X234504837Y-96138202D02*
X236565157Y-97233689D01*
X166400002Y-123493404D02*
X166625005Y-123574999D01*
X63839912Y-96986573D02*
X61782696Y-98322542D01*
X236565157Y-97233689D02*
X249523086Y-93272057D01*
X165350001Y-128299992D02*
X165349998Y-128500004D01*
X276697988Y-103175897D02*
X278996639Y-102687299D01*
X188349994Y-108500002D02*
X190150004Y-106700000D01*
X151254644Y-118186773D02*
X160769873Y-121095868D01*
X249523086Y-93272057D02*
X250834194Y-93969192D01*
X296198857Y-131283134D02*
X296166186Y-131290086D01*
X187175002Y-123075001D02*
X188349999Y-121900002D01*
X59935069Y-113536367D02*
X58386226Y-114542198D01*
X233803148Y-93843073D02*
X234504837Y-96138202D01*
X227005158Y-94352889D02*
X231930124Y-92847177D01*
X226540414Y-95226965D02*
X227005158Y-94352889D01*
X150255698Y-118717924D02*
X150880037Y-118385958D01*
X192850005Y-106700003D02*
X213315966Y-100442937D01*
X273099410Y-99953665D02*
X274997106Y-101186047D01*
X259668705Y-98018846D02*
X262912512Y-100125397D01*
X278996639Y-102687299D02*
X281808000Y-98358184D01*
X214060632Y-99042405D02*
X226540414Y-95226965D01*
X262912512Y-100125397D02*
X267460900Y-99158612D01*
X188349999Y-121900002D02*
X188349994Y-108500002D01*
X274997106Y-101186047D02*
X275215419Y-102213097D01*
X296166186Y-131290086D02*
X294034243Y-129905588D01*
X250834194Y-93969192D02*
X252456857Y-99276683D01*
X287709551Y-97103763D02*
X289129871Y-98026126D01*
X55473449Y-128245675D02*
X56770914Y-130243586D01*
X186525004Y-123075006D02*
X187175002Y-123075001D01*
X160769873Y-121095868D02*
X161033434Y-121591563D01*
X281808000Y-98358184D02*
X287709551Y-97103763D01*
X291254131Y-116826185D02*
X292664362Y-114654637D01*
X231930124Y-92847177D02*
X233803148Y-93843073D01*
X190150004Y-106700000D02*
X192850005Y-106700003D01*
X294034243Y-129905588D02*
X291254131Y-116826185D01*
X287738892Y-100168037D02*
X290522451Y-113263669D01*
X290522451Y-113263669D02*
X292664362Y-114654637D01*
X149586279Y-118513270D02*
X150255698Y-118717924D01*
X275215419Y-102213097D02*
X276697988Y-103175897D01*
X167249999Y-126399994D02*
X165350001Y-128299992D01*
X60094743Y-113570301D02*
X60305410Y-113615081D01*
X58924661Y-111768537D02*
X60094743Y-113570301D01*
X166625005Y-123574999D02*
X167250003Y-124199995D01*
X166400002Y-123493404D02*
X161166701Y-121858298D01*
X167250003Y-124199995D02*
X167249999Y-126399994D01*
X150880037Y-118385958D02*
X151254644Y-118186773D01*
X269773716Y-100660567D02*
X273099410Y-99953665D01*
X58386226Y-114542198D02*
X55473449Y-128245675D01*
X267460900Y-99158612D02*
X269773716Y-100660567D01*
X259605075Y-98032377D02*
X259668705Y-98018846D01*
X213315966Y-100442937D02*
X214060632Y-99042405D01*
X161033434Y-121591563D02*
X161166701Y-121858298D01*
X253580669Y-99874225D02*
X259605075Y-98032377D01*
D32*
%TO.N,outer_bottom*%
X63116332Y-126122829D02*
X61942560Y-125873332D01*
%TO.N,outer_home*%
X66650829Y-109494315D02*
X65477048Y-109244829D01*
%TO.N,outer_top*%
X70185325Y-92865812D02*
X69011542Y-92616310D01*
D31*
%TO.N,P5*%
X150989071Y-117687313D02*
X161086860Y-120774503D01*
X234147591Y-96508845D02*
X233409357Y-94094169D01*
X226822731Y-95637348D02*
X214438583Y-99423556D01*
X273745684Y-116701882D02*
X276035843Y-118189132D01*
X272501345Y-101560617D02*
X271014119Y-103850785D01*
X233409357Y-94094169D02*
X231973377Y-93330652D01*
X163175092Y-122004613D02*
X166499999Y-123099998D01*
X161462528Y-121481036D02*
X161086860Y-120774503D01*
X231973377Y-93330652D02*
X227287485Y-94763271D01*
X167750003Y-126599999D02*
X167750002Y-124000001D01*
X213681127Y-100848126D02*
X193068626Y-107150008D01*
X272501361Y-101560626D02*
X270805836Y-101921017D01*
X236457650Y-97737121D02*
X234147591Y-96508845D01*
X76933927Y-117149582D02*
X75578686Y-115062714D01*
X150989071Y-117687313D02*
X150489602Y-117952878D01*
X75380782Y-118158207D02*
X76933927Y-117149582D01*
X259634759Y-98544831D02*
X259368219Y-98601478D01*
X190350004Y-107150003D02*
X188825002Y-108675006D01*
X253576092Y-100372318D02*
X252046471Y-99558997D01*
X166849991Y-123100000D02*
X166499999Y-123099998D01*
X75578686Y-115062714D02*
X78481058Y-101408132D01*
X73399430Y-133778082D02*
X72390797Y-132224948D01*
X150489602Y-117952878D02*
X149820188Y-117748219D01*
X188825002Y-108675006D02*
X188825003Y-108700004D01*
X250431115Y-94275417D02*
X249463384Y-93760872D01*
X252046471Y-99558997D02*
X252017224Y-99463370D01*
X213681127Y-100848126D02*
X214438583Y-99423556D01*
X249463384Y-93760872D02*
X236457650Y-97737121D01*
X271014119Y-103850785D02*
X273745684Y-116701882D01*
X274644870Y-120331039D02*
X276035843Y-118189132D01*
X163175092Y-122004613D02*
X161462528Y-121481036D01*
X267369220Y-99689262D02*
X262869740Y-100645652D01*
X277409402Y-133337088D02*
X274644870Y-120331039D01*
X166150004Y-128200000D02*
X167750003Y-126599999D01*
X188825003Y-108700004D02*
X188824995Y-123315004D01*
X279551303Y-134728061D02*
X277409402Y-133337088D01*
X259368219Y-98601478D02*
X253576092Y-100372318D01*
X80000272Y-100421563D02*
X80468409Y-100521058D01*
X72390797Y-132224948D02*
X75380782Y-118158207D01*
X270805836Y-101921017D02*
X267369220Y-99689262D01*
X188824995Y-123315004D02*
X186525003Y-125615002D01*
X279570352Y-134817639D02*
X279551303Y-134728061D01*
X227287485Y-94763271D02*
X226822731Y-95637348D01*
X262869740Y-100645652D02*
X259634759Y-98544831D01*
X78481058Y-101408132D02*
X80000272Y-100421563D01*
X193068626Y-107150008D02*
X190350004Y-107150003D01*
X167750002Y-124000001D02*
X166849991Y-123100000D01*
X252017224Y-99463370D02*
X250431115Y-94275417D01*
X166150004Y-128500001D02*
X166150004Y-128200000D01*
D32*
%TO.N,pinky_bottom*%
X79744839Y-129657328D02*
X78571074Y-129407836D01*
%TO.N,pinky_home*%
X83279340Y-113028815D02*
X82105557Y-112779323D01*
%TO.N,pinky_top*%
X86813843Y-96400307D02*
X85640054Y-96150813D01*
D31*
%TO.N,P6*%
X168199995Y-127000003D02*
X168199997Y-123800003D01*
X160286540Y-120111551D02*
X150054082Y-116983173D01*
X163448898Y-121653512D02*
X161799270Y-121149172D01*
X231841957Y-93841397D02*
X233090639Y-94505324D01*
X236342823Y-98216652D02*
X247686697Y-94748470D01*
X252610570Y-110980948D02*
X254412379Y-111938987D01*
X161434102Y-120462397D02*
X160286540Y-120111551D01*
X189350007Y-108749999D02*
X190549997Y-107549994D01*
X257728974Y-127316877D02*
X257690153Y-127296233D01*
X249442059Y-95681817D02*
X249442422Y-95683012D01*
X167049995Y-122649991D02*
X166474999Y-122649999D01*
X167000006Y-128500006D02*
X167000002Y-128200003D01*
X227586409Y-95142447D02*
X231841957Y-93841397D01*
X193234317Y-107549997D02*
X214016598Y-101196217D01*
X190549997Y-107549994D02*
X193234317Y-107549997D01*
X103636926Y-94219948D02*
X101382154Y-95418826D01*
X248484387Y-97484812D02*
X252610570Y-110980948D01*
X188049997Y-126629998D02*
X188049991Y-124974997D01*
X189349994Y-108849999D02*
X189350007Y-108749999D01*
X101382154Y-95418826D02*
X97269416Y-108870969D01*
X163448898Y-121653512D02*
X166474999Y-122649999D01*
X98018000Y-110278839D02*
X98666600Y-110477136D01*
X188049991Y-124974997D02*
X189350003Y-123675002D01*
X186524997Y-128155011D02*
X188049997Y-126629998D01*
X214728209Y-99857860D02*
X227088460Y-96078962D01*
X189350003Y-123675002D02*
X189349994Y-108849999D01*
X227088460Y-96078962D02*
X227586409Y-95142447D01*
X167000002Y-128200003D02*
X168199995Y-127000003D01*
X161799270Y-121149172D02*
X161434102Y-120462397D01*
X214016598Y-101196217D02*
X214728209Y-99857860D01*
X97269416Y-108870969D02*
X98018000Y-110278839D01*
X257690153Y-127296233D02*
X253439712Y-113393659D01*
X233814259Y-96872182D02*
X236342823Y-98216652D01*
X247686697Y-94748470D02*
X249442055Y-95681818D01*
X168199997Y-123800003D02*
X167049995Y-122649991D01*
X249442422Y-95683012D02*
X248484387Y-97484812D01*
X96760975Y-111303600D02*
X92646780Y-124760498D01*
X92646780Y-124760498D02*
X93696289Y-126734311D01*
X98666600Y-110477136D02*
X98443583Y-110408945D01*
X98443583Y-110408945D02*
X96760975Y-111303600D01*
X257728974Y-127316877D02*
X259382703Y-128196173D01*
X254412379Y-111938987D02*
X254174508Y-112011715D01*
X233090639Y-94505324D02*
X233814259Y-96872182D01*
X254174508Y-112011715D02*
X253439712Y-113393659D01*
D32*
%TO.N,ring_bottom*%
X100376710Y-123182268D02*
X99229144Y-122831425D01*
%TO.N,ring_home*%
X105347018Y-106925098D02*
X104199462Y-106574249D01*
%TO.N,ring_top*%
X110317351Y-90667911D02*
X109169763Y-90317071D01*
D31*
%TO.N,P7*%
X113996519Y-111449163D02*
X115804003Y-110488090D01*
X186525003Y-130695002D02*
X186979999Y-130694995D01*
X190800000Y-107950000D02*
X193400007Y-107949996D01*
X215089574Y-100270223D02*
X227473714Y-96484012D01*
X111392445Y-126997934D02*
X111415320Y-126923103D01*
X119114531Y-156464978D02*
X118347210Y-155021848D01*
X240589015Y-128713525D02*
X236376881Y-136635412D01*
X118347210Y-155021848D02*
X124201006Y-135874942D01*
X122258995Y-132222572D02*
X124201006Y-135874942D01*
X238309555Y-149455524D02*
X235201569Y-150405733D01*
X235793400Y-113820345D02*
X236693341Y-112127788D01*
X163757105Y-121329466D02*
X162083573Y-120817811D01*
X193400007Y-107949996D02*
X200586601Y-105752833D01*
X234267188Y-110837776D02*
X230433020Y-98296765D01*
X235487442Y-155062500D02*
X233964441Y-157926845D01*
X188600003Y-127024995D02*
X188599997Y-125275004D01*
X122258995Y-132222572D02*
X112600325Y-129269623D01*
X189850001Y-109199999D02*
X189849998Y-108899999D01*
X167299999Y-122250001D02*
X166574996Y-122249999D01*
X167799997Y-128300000D02*
X168600003Y-127500001D01*
X239571035Y-147083042D02*
X238309555Y-149455524D01*
X235201569Y-150405733D02*
X234479125Y-151764451D01*
X151222966Y-116922258D02*
X161718402Y-120131038D01*
X162083573Y-120817811D02*
X161718402Y-120131038D01*
X188599997Y-125275004D02*
X189849992Y-124025001D01*
X186979999Y-130694995D02*
X188025004Y-129650002D01*
X241651984Y-128388535D02*
X239974680Y-127496688D01*
X227473714Y-96484012D02*
X227971655Y-95547503D01*
X119069979Y-95624234D02*
X121355969Y-94408743D01*
X200586601Y-105752833D02*
X200588455Y-105749352D01*
X168600002Y-123549997D02*
X167299999Y-122250001D01*
X151222966Y-116922258D02*
X150957393Y-116422792D01*
X116385639Y-110665924D02*
X115170154Y-108379928D01*
X189849998Y-108899999D02*
X190800000Y-107950000D01*
X239974680Y-127496688D02*
X235793400Y-113820345D01*
X189850007Y-109000002D02*
X189849998Y-108899999D01*
X230433020Y-98296765D02*
X231723033Y-95870610D01*
X189850001Y-109199999D02*
X189850007Y-109000002D01*
X188025004Y-129650002D02*
X188025003Y-127600004D01*
X150957393Y-116422792D02*
X150287986Y-116218128D01*
X112600325Y-129269623D02*
X111392445Y-126997934D01*
X189849992Y-124025001D02*
X189850001Y-109199999D01*
X234479125Y-151764451D02*
X235487442Y-155062500D01*
X241663662Y-128384972D02*
X241651984Y-128388535D01*
X227971655Y-95547503D02*
X229967656Y-94937270D01*
X163757105Y-121329466D02*
X166574996Y-122249999D01*
X115170154Y-108379928D02*
X119069979Y-95624234D01*
X214425638Y-101518896D02*
X215089574Y-100270223D01*
X188025003Y-127600004D02*
X188600003Y-127024995D01*
X229967656Y-94937270D02*
X231723016Y-95870617D01*
X241663662Y-128384972D02*
X240589015Y-128713525D01*
X236693341Y-112127788D02*
X234267188Y-110837776D01*
X110020271Y-124454910D02*
X113996519Y-111449163D01*
X167799995Y-128499996D02*
X167799997Y-128300000D01*
X168600003Y-127500001D02*
X168600002Y-123549997D01*
X236376881Y-136635412D02*
X239571035Y-147083042D01*
X200588455Y-105749352D02*
X214425638Y-101518896D01*
X111415320Y-126923103D02*
X111316596Y-126892922D01*
X115804003Y-110488090D02*
X116385639Y-110665924D01*
X111316596Y-126892922D02*
X110020271Y-124454910D01*
D32*
%TO.N,middle_bottom*%
X118095742Y-123371064D02*
X116948186Y-123020225D01*
%TO.N,middle_home*%
X123066057Y-107113888D02*
X121918499Y-106763048D01*
%TO.N,middle_top*%
X128036381Y-90856707D02*
X126888818Y-90505868D01*
D31*
%TO.N,P8*%
X150584307Y-115419896D02*
X151110283Y-115580692D01*
X167499992Y-121850001D02*
X169050002Y-123400003D01*
X168600002Y-128299998D02*
X168600004Y-128499998D01*
X200569264Y-106304212D02*
X210730000Y-103197766D01*
X128789912Y-122489976D02*
X130888591Y-121374082D01*
X216274377Y-108357340D02*
X217220075Y-106578758D01*
X125918268Y-137631263D02*
X124802376Y-135532570D01*
X191000000Y-108450002D02*
X193549991Y-108450003D01*
X125913366Y-137647304D02*
X125918268Y-137631263D01*
X161401320Y-119615818D02*
X161930988Y-119777753D01*
X189249999Y-125474992D02*
X190300001Y-124425002D01*
X236736422Y-139249145D02*
X235669228Y-138681720D01*
X219965407Y-165257960D02*
X219973146Y-165254830D01*
X190299996Y-109149996D02*
X190299995Y-109149997D01*
X221409982Y-124192618D02*
X222119867Y-122857502D01*
X231294137Y-140019312D02*
X228679125Y-138628892D01*
X188524998Y-127900000D02*
X189249998Y-127174993D01*
X123778866Y-138794802D02*
X125908781Y-137662307D01*
X220363680Y-165420608D02*
X223896238Y-163993348D01*
X228348551Y-157345000D02*
X231739538Y-150967495D01*
X223896238Y-163993348D02*
X226380845Y-158139999D01*
X189249998Y-127174993D02*
X189249999Y-125474992D01*
X222119867Y-122857502D02*
X222190396Y-122835936D01*
X188524993Y-132175000D02*
X188524998Y-127900000D01*
X217220078Y-106578758D02*
X217136681Y-106604258D01*
X200569008Y-106304074D02*
X200569264Y-106304212D01*
X120852441Y-148366761D02*
X123778866Y-138794802D01*
X124802376Y-135532570D02*
X128789912Y-122489976D01*
X166649998Y-121850001D02*
X167499992Y-121850001D01*
X226380845Y-158139999D02*
X228348551Y-157345000D01*
X130888591Y-121374082D02*
X129855688Y-119431471D01*
X125684219Y-151203375D02*
X121715547Y-149990029D01*
X133916312Y-106149791D02*
X135858913Y-105116902D01*
X217600044Y-164253922D02*
X219965407Y-165257960D01*
X151110283Y-115580692D02*
X151492036Y-116298686D01*
X186525010Y-133235008D02*
X187465000Y-133234999D01*
X134997086Y-162127384D02*
X134416270Y-160759072D01*
X193549991Y-108450003D02*
X200569008Y-106304074D01*
X134416270Y-160759072D02*
X132144653Y-159841288D01*
X190299995Y-109149997D02*
X191000000Y-108450002D01*
X187465000Y-133234999D02*
X188524993Y-132175000D01*
X126713307Y-153138832D02*
X125684219Y-151203375D01*
X220411804Y-121890258D02*
X216274377Y-108357340D01*
X161930988Y-119777753D02*
X162002707Y-119799679D01*
X235669228Y-138681720D02*
X231294137Y-140019312D01*
X219973146Y-165254830D02*
X220363680Y-165420608D01*
X169050002Y-123400003D02*
X169050002Y-127850003D01*
X227160708Y-139093119D02*
X225733502Y-138334263D01*
X129855688Y-119431471D02*
X133916312Y-106149791D01*
X225733502Y-138334263D02*
X221409982Y-124192618D01*
X238083958Y-149027794D02*
X239126564Y-147066947D01*
X161401315Y-119615813D02*
X161401320Y-119615818D01*
X121715547Y-149990029D02*
X120852441Y-148366761D01*
X162367872Y-120486462D02*
X164041401Y-120998104D01*
X151492036Y-116298686D02*
X151674620Y-116642076D01*
X151674620Y-116642076D02*
X161401315Y-119615813D01*
X222190396Y-122835936D02*
X220411804Y-121890258D01*
X228679125Y-138628892D02*
X227160708Y-139093119D01*
X127475971Y-158413928D02*
X125967760Y-155577410D01*
X162002707Y-119799679D02*
X162367872Y-120486462D01*
X125967760Y-155577410D02*
X126713307Y-153138832D01*
X132144653Y-159841288D02*
X127475971Y-158413928D01*
X190300001Y-124425002D02*
X190299996Y-109149996D01*
X231739538Y-150967495D02*
X238083958Y-149027794D01*
X125908781Y-137662307D02*
X125918272Y-137631268D01*
X239126564Y-147066947D02*
X236736422Y-139249145D01*
X217136681Y-106604258D02*
X210730000Y-103197766D01*
X135624549Y-162380896D02*
X134997086Y-162127384D01*
X169050002Y-127850003D02*
X168600002Y-128299998D01*
X164041401Y-120998104D02*
X166649998Y-121850001D01*
D32*
%TO.N,index_bottom*%
X132598686Y-134079220D02*
X131451126Y-133728376D01*
%TO.N,index_home*%
X137569005Y-117822033D02*
X136421438Y-117471190D01*
%TO.N,index_top*%
X142539328Y-101564850D02*
X141391764Y-101214012D01*
D31*
%TO.N,P9*%
X207846316Y-172093479D02*
X208525345Y-167261940D01*
X167749993Y-121450007D02*
X169450000Y-123150005D01*
X196458268Y-108102566D02*
X198902128Y-109401991D01*
X223551698Y-163701145D02*
X226046597Y-157823537D01*
X121315362Y-148220715D02*
X122095479Y-149687910D01*
X218459258Y-162442129D02*
X219274021Y-164458758D01*
X226046597Y-157823537D02*
X226264476Y-157735514D01*
X237808559Y-148693713D02*
X238695599Y-147025440D01*
X146561026Y-128257015D02*
X145561333Y-126376828D01*
X231359596Y-150665361D02*
X237808559Y-148693713D01*
X136647386Y-163979358D02*
X136909855Y-164597705D01*
X126465856Y-155572832D02*
X126458561Y-155596737D01*
X219274021Y-164458758D02*
X220445639Y-164956078D01*
X190850003Y-124750001D02*
X190850003Y-110049997D01*
X189050001Y-128075003D02*
X189774998Y-127349992D01*
X126016330Y-150886643D02*
X127211409Y-153134249D01*
X204591876Y-174545886D02*
X207846316Y-172093479D01*
X238695599Y-147025440D02*
X236440252Y-139648538D01*
X201944346Y-174173789D02*
X204591876Y-174545886D01*
X149732085Y-171464777D02*
X151929600Y-171155947D01*
X191399995Y-108900002D02*
X193850003Y-108899999D01*
X137396597Y-162124992D02*
X136647386Y-163979358D01*
X127769819Y-158062876D02*
X132247831Y-159431939D01*
X213572596Y-147084299D02*
X211488276Y-145976047D01*
X186525005Y-135774999D02*
X189050000Y-133250011D01*
X139346200Y-145707624D02*
X124491720Y-141166138D01*
X164397429Y-120688674D02*
X166824996Y-121450001D01*
X218594627Y-144398652D02*
X217864295Y-145772193D01*
X208525345Y-167261940D02*
X212843466Y-164007993D01*
X160278771Y-118854341D02*
X162287006Y-119468322D01*
X123274245Y-141813478D02*
X121315362Y-148220715D01*
X206517953Y-129718869D02*
X204965875Y-128893620D01*
X132247831Y-159431939D02*
X137082635Y-161385337D01*
X211488276Y-145976047D02*
X209912593Y-145138250D01*
X198902128Y-109401991D02*
X200579080Y-110293640D01*
X162287006Y-119468322D02*
X162652171Y-120155098D01*
X227965840Y-157048117D02*
X231359596Y-150665361D01*
X209912593Y-145138250D02*
X205680158Y-131294525D01*
X217610654Y-162081919D02*
X218459258Y-162442129D01*
X189775011Y-125824998D02*
X190850003Y-124750001D01*
X220445639Y-164956078D02*
X223551698Y-163701145D01*
X152131746Y-116363553D02*
X160278771Y-118854341D01*
X144524775Y-129339695D02*
X146561026Y-128257015D01*
X226264476Y-157735514D02*
X227965840Y-157048117D01*
X141590723Y-144514185D02*
X141597080Y-144493383D01*
X162652171Y-120155098D02*
X164397429Y-120688674D01*
X205680158Y-131294525D02*
X206517953Y-129718869D01*
X200722390Y-115013764D02*
X201547630Y-113461689D01*
X236440252Y-139648538D02*
X235597399Y-139200379D01*
X212843466Y-164007993D02*
X217610654Y-162081919D01*
X149651185Y-112999519D02*
X151531340Y-111999829D01*
X152096652Y-116297548D02*
X152131746Y-116363553D01*
X166824996Y-121450001D02*
X167749993Y-121450007D01*
X145561333Y-126376828D02*
X149651185Y-112999519D01*
X136909855Y-164597705D02*
X144906831Y-167828689D01*
X126458561Y-155596737D02*
X127769819Y-158062876D01*
X124491720Y-141166138D02*
X123274245Y-141813478D01*
X235597399Y-139200379D02*
X218594627Y-144398652D01*
X169450000Y-123150005D02*
X169450000Y-128499997D01*
X189050000Y-133250011D02*
X189050001Y-128075003D01*
X140514371Y-142457127D02*
X144524775Y-129339695D01*
X137082635Y-161385337D02*
X137175564Y-161604270D01*
X144906831Y-167828689D02*
X149732085Y-171464777D01*
X137175564Y-161604270D02*
X137396597Y-162124992D01*
X141590723Y-144514185D02*
X139346200Y-145707624D01*
X122095479Y-149687910D02*
X126016330Y-150886643D01*
X151531345Y-111999823D02*
X150903471Y-114053507D01*
X190850003Y-110049997D02*
X190849992Y-109450004D01*
X217864295Y-145772193D02*
X213572596Y-147084299D01*
X193850003Y-108899999D02*
X196458268Y-108102566D01*
X201937731Y-174165021D02*
X201944346Y-174173789D01*
X190849992Y-109450004D02*
X191399995Y-108900002D01*
X150903471Y-114053507D02*
X152096652Y-116297548D01*
X127211409Y-153134249D02*
X126465856Y-155572832D01*
X204965875Y-128893620D02*
X200722390Y-115013764D01*
X141597080Y-144493383D02*
X140514371Y-142457127D01*
X189774998Y-127349992D02*
X189775011Y-125824998D01*
X200579080Y-110293640D02*
X201547635Y-113461688D01*
D32*
%TO.N,inner_bottom*%
X148271135Y-140962138D02*
X147123565Y-140611302D01*
%TO.N,inner_home*%
X153241451Y-124704964D02*
X152093874Y-124354121D01*
%TO.N,inner_top*%
X158211773Y-108447787D02*
X157064203Y-108096934D01*
%TO.N,near_thumb*%
X125794956Y-152912948D02*
X124647393Y-152562093D01*
D31*
%TO.N,home_thumb*%
X141729113Y-159450178D02*
X141476501Y-158975065D01*
D32*
X142589118Y-159424600D02*
X141476505Y-158975070D01*
%TO.N,far_thumb*%
X159422013Y-170102957D02*
X158463654Y-169380770D01*
%TO.N,mirror_outer_bottom*%
X300319628Y-124937731D02*
X299145845Y-125187215D01*
%TO.N,mirror_outer_home*%
X296785122Y-108309218D02*
X295611346Y-108558716D01*
%TO.N,mirror_outer_top*%
X293250633Y-91680716D02*
X292076833Y-91930200D01*
%TO.N,mirror_pinky_bottom*%
X283691103Y-128472234D02*
X282517333Y-128721717D01*
%TO.N,mirror_pinky_home*%
X280156609Y-111843714D02*
X278982836Y-112093215D01*
%TO.N,mirror_pinky_top*%
X276622111Y-95215214D02*
X275448335Y-95464704D01*
%TO.N,mirror_ring_bottom*%
X262934751Y-121515750D02*
X261787183Y-121866600D01*
%TO.N,mirror_ring_home*%
X257964427Y-105258569D02*
X256816861Y-105609420D01*
%TO.N,mirror_ring_top*%
X252994113Y-89001387D02*
X251846548Y-89352243D01*
%TO.N,mirror_middle_bottom*%
X245215699Y-121704544D02*
X244068131Y-122055394D01*
%TO.N,mirror_middle_home*%
X240245385Y-105447365D02*
X239097822Y-105798213D01*
%TO.N,mirror_middle_top*%
X235275060Y-89190185D02*
X234127499Y-89541032D01*
%TO.N,mirror_index_bottom*%
X230712754Y-132412696D02*
X229565191Y-132763544D01*
%TO.N,mirror_index_home*%
X225742426Y-116155513D02*
X224594868Y-116506365D01*
%TO.N,mirror_index_top*%
X220772109Y-99898338D02*
X219624555Y-100249178D01*
%TO.N,mirror_inner_bottom*%
X215040323Y-139295621D02*
X213892753Y-139646467D01*
%TO.N,mirror_inner_home*%
X210069995Y-123038442D02*
X208922432Y-123389286D01*
%TO.N,mirror_inner_top*%
X205099680Y-106781262D02*
X203952120Y-107132102D01*
%TO.N,mirror_near_thumb*%
X237516490Y-151246429D02*
X236368926Y-151597276D01*
%TO.N,mirror_home_thumb*%
X220556338Y-157289346D02*
X219443715Y-157738866D01*
%TO.N,mirror_far_thumb*%
X202990726Y-166672613D02*
X202032364Y-167394785D01*
%TO.N,P19*%
X112644801Y-121704542D02*
X113792376Y-122055392D01*
X74169401Y-128472221D02*
X75343178Y-128721724D01*
X142820194Y-139295619D02*
X143967758Y-139646471D01*
X127147754Y-132412696D02*
X128295324Y-132763549D01*
X57540889Y-124937734D02*
X58714672Y-125187226D01*
X94925765Y-121515746D02*
X96073328Y-121866601D01*
%TO.N,P20*%
X147790520Y-123038452D02*
X148938083Y-123389290D01*
X132118086Y-116155521D02*
X133265643Y-116506357D01*
X117615121Y-105447370D02*
X118762707Y-105798212D01*
X61075398Y-108309220D02*
X62249158Y-108558709D01*
X77703896Y-111843716D02*
X78877682Y-112093208D01*
X99896084Y-105258579D02*
X101043662Y-105609420D01*
%TO.N,P21*%
X122585442Y-89190193D02*
X123733012Y-89541034D01*
X104866408Y-89001390D02*
X106013980Y-89352243D01*
X81238398Y-95215201D02*
X82412165Y-95464700D01*
X152760828Y-106781264D02*
X153908391Y-107132112D01*
X137088394Y-99898331D02*
X138235955Y-100249177D01*
X64609884Y-91680710D02*
X65783664Y-91930203D01*
%TO.N,P18*%
X120344021Y-151246414D02*
X121491586Y-151597266D01*
X154869777Y-166672603D02*
X155828142Y-167394790D01*
X137304161Y-157289352D02*
X138416789Y-157738868D01*
%TO.N,P2*%
X225261818Y-134079213D02*
X226409379Y-133728371D01*
X257483798Y-123182272D02*
X258631377Y-122831429D01*
X239764761Y-123371071D02*
X240912337Y-123020225D01*
X294744182Y-126122828D02*
X295917954Y-125873328D01*
X278115669Y-129657330D02*
X279289452Y-129407835D01*
X209589388Y-140962136D02*
X210736944Y-140611298D01*
%TO.N,P0*%
X252513482Y-106925091D02*
X253661057Y-106574238D01*
X204619056Y-124704959D02*
X205766632Y-124354115D01*
X234794442Y-107113890D02*
X235942018Y-106763039D01*
X220291499Y-117822024D02*
X221439060Y-117471186D01*
X291209685Y-109494312D02*
X292383462Y-109244833D01*
X274581171Y-113028824D02*
X275754950Y-112779319D01*
%TO.N,P1*%
X199648740Y-108447780D02*
X200796322Y-108096946D01*
X229824131Y-90856716D02*
X230971700Y-90505858D01*
X287675178Y-92865808D02*
X288848961Y-92616310D01*
X247543165Y-90667914D02*
X248690737Y-90317059D01*
X271046669Y-96400300D02*
X272220455Y-96150802D01*
X215321183Y-101564861D02*
X216468748Y-101214010D01*
%TO.N,P3*%
X232065552Y-152912948D02*
X233213124Y-152562095D01*
X215271396Y-159424609D02*
X216384010Y-158975080D01*
X198438498Y-170102949D02*
X199396857Y-169380774D01*
D31*
%TO.N,GND*%
X170774998Y-110375000D02*
X171285005Y-110374988D01*
X169525005Y-116075004D02*
X169524997Y-111624999D01*
X169524997Y-111624999D02*
X170774998Y-110375000D01*
X164974995Y-118674995D02*
X166449997Y-117199997D01*
X168399998Y-117199996D02*
X169525005Y-116075004D01*
X166449997Y-117199997D02*
X168399998Y-117199996D01*
%TD*%
M02*
