M48
; DRILL file {KiCad 8.0.6} date 2025-05-14T19:15:13+0200
; FORMAT={-:-/ absolute / inch / decimal}
; #@! TF.CreationDate,2025-05-14T19:15:13+02:00
; #@! TF.GenerationSoftware,Kicad,Pcbnew,8.0.6
; #@! TF.FileFunction,NonPlated,1,2,NPTH
FMAT,2
INCH
; #@! TA.AperFunction,NonPlated,NPTH,ComponentDrill
T1C0.0354
; #@! TA.AperFunction,NonPlated,NPTH,ComponentDrill
T2C0.0670
; #@! TA.AperFunction,NonPlated,NPTH,ComponentDrill
T3C0.1181
; #@! TA.AperFunction,NonPlated,NPTH,ComponentDrill
T4C0.1350
%
G90
G05
T1
X5.8342Y-3.554
X5.9375Y-3.6113
T2
X2.1412Y-5.0011
X2.2886Y-4.3079
X2.4359Y-3.6147
X2.5648Y-5.0911
X2.7122Y-4.398
X2.8595Y-3.7048
X2.8729Y-5.1566
X3.0203Y-4.4634
X3.1676Y-3.7703
X3.2965Y-5.2467
X3.4439Y-4.5535
X3.5912Y-3.8603
X3.7604Y-4.888
X3.9676Y-4.2103
X4.1746Y-5.0146
X4.1748Y-3.5326
X4.3818Y-4.3369
X4.5333Y-4.9184
X4.589Y-3.6592
X4.7405Y-4.2407
X4.9475Y-5.045
X4.9477Y-3.563
X5.077Y-6.2374
X5.1547Y-4.3674
X5.1796Y-5.363
X5.3619Y-3.6897
X5.3868Y-4.6853
X5.4911Y-6.364
X5.5938Y-5.4897
X5.594Y-4.0076
X5.8009Y-4.812
X5.8719Y-5.657
X5.899Y-6.5125
X6.0081Y-4.1343
X6.0791Y-4.9793
X6.2861Y-5.7837
X6.2863Y-4.3016
X6.3005Y-6.6748
X6.4933Y-5.106
X6.7005Y-4.4283
X6.735Y-6.9073
X7.0808Y-7.1679
X7.8872Y-7.1679
X8.2331Y-6.9073
X8.2676Y-4.4283
X8.4748Y-5.106
X8.6675Y-6.6748
X8.6818Y-4.3016
X8.682Y-5.7837
X8.8889Y-4.9793
X8.9599Y-4.1343
X9.0691Y-6.5125
X9.0961Y-5.657
X9.1671Y-4.812
X9.3741Y-4.0076
X9.3743Y-5.4897
X9.477Y-6.364
X9.5813Y-4.6853
X9.6062Y-3.6897
X9.7885Y-5.363
X9.8134Y-4.3674
X9.8911Y-6.2374
X10.0204Y-3.563
X10.0206Y-5.045
X10.2276Y-4.2407
X10.3791Y-3.6592
X10.4347Y-4.9184
X10.5863Y-4.3369
X10.7933Y-3.5326
X10.7935Y-5.0146
X11.0005Y-4.2103
X11.2076Y-4.888
X11.3769Y-3.8603
X11.5242Y-4.5535
X11.6715Y-5.2467
X11.8005Y-3.7703
X11.9478Y-4.4634
X12.0951Y-5.1566
X12.1085Y-3.7048
X12.2559Y-4.398
X12.4032Y-5.0911
X12.5322Y-3.6147
X12.6795Y-4.3079
X12.8268Y-5.0011
T3
X2.4017Y-4.817
X2.5491Y-4.1238
X2.5763Y-4.9426
X2.6964Y-3.4306
X2.7236Y-4.2495
X2.871Y-3.5563
X3.1334Y-4.9725
X3.2808Y-4.2793
X3.308Y-5.0982
X3.4281Y-3.5862
X3.4553Y-4.405
X3.6026Y-3.7118
X4.036Y-4.7273
X4.1989Y-4.8677
X4.2432Y-4.0496
X4.4061Y-4.19
X4.4504Y-3.3719
X4.6133Y-3.5123
X4.8089Y-4.7577
X4.9718Y-4.8981
X5.0161Y-4.08
X5.179Y-4.2204
X5.2233Y-3.4023
X5.3525Y-6.0767
X5.3862Y-3.5427
X5.4552Y-5.2023
X5.5155Y-6.217
X5.6181Y-5.3427
X5.6624Y-4.5246
X5.8253Y-4.665
X5.8696Y-3.8469
X6.0325Y-3.9873
X6.1475Y-5.4963
X6.1875Y-6.3764
X6.3104Y-5.6367
X6.3376Y-6.5305
X6.3547Y-4.8186
X6.5176Y-4.959
X6.5619Y-4.1409
X6.7248Y-4.2813
X7.0489Y-6.8505
X7.154Y-7.0381
X7.9192Y-6.8505
X8.1285Y-6.8012
X8.4062Y-4.1409
X8.6134Y-4.8186
X8.6198Y-4.1662
X8.7805Y-6.3764
X8.8206Y-5.4963
X8.827Y-4.8439
X8.9955Y-6.383
X9.0341Y-5.5216
X9.0985Y-3.8469
X9.3057Y-4.5246
X9.3121Y-3.8722
X9.5129Y-5.2023
X9.5193Y-4.5499
X9.6155Y-6.0767
X9.7265Y-5.2276
X9.7448Y-3.4023
X9.8291Y-6.1019
X9.952Y-4.08
X9.9584Y-3.4276
X10.1592Y-4.7577
X10.1656Y-4.1053
X10.3728Y-4.783
X10.5177Y-3.3719
X10.7249Y-4.0496
X10.7313Y-3.3972
X10.9321Y-4.7273
X10.9385Y-4.0749
X11.1457Y-4.7525
X11.54Y-3.5862
X11.6873Y-4.2793
X11.7505Y-3.6299
X11.8346Y-4.9725
X11.8979Y-4.3231
X12.0452Y-5.0163
X12.2716Y-3.4306
X12.419Y-4.1238
X12.4822Y-3.4744
X12.5663Y-4.817
X12.6295Y-4.1676
X12.7769Y-4.8608
T4
X2.353Y-5.0461
X2.5004Y-4.3529
X2.6477Y-3.6598
X3.0847Y-5.2016
X3.2321Y-4.5085
X3.3794Y-3.8153
X3.9675Y-4.9513
X4.1747Y-4.2736
X4.3819Y-3.5959
X4.7404Y-4.9817
X4.9476Y-4.304
X5.1548Y-3.6263
X5.284Y-6.3007
X5.3867Y-5.4263
X5.5939Y-4.7486
X5.8011Y-4.071
X6.079Y-5.7203
X6.0998Y-6.5936
X6.2862Y-5.0426
X6.4934Y-4.365
X6.9079Y-7.0376
X8.0602Y-7.0376
X8.4747Y-4.365
X8.6819Y-5.0426
X8.8683Y-6.5936
X8.8891Y-5.7203
X9.167Y-4.071
X9.3742Y-4.7486
X9.5814Y-5.4263
X9.684Y-6.3007
X9.8133Y-3.6263
X10.0205Y-4.304
X10.2277Y-4.9817
X10.5862Y-3.5959
X10.7934Y-4.2736
X11.0006Y-4.9513
X11.5887Y-3.8153
X11.736Y-4.5085
X11.8833Y-5.2016
X12.3203Y-3.6598
X12.4677Y-4.3529
X12.615Y-5.0461
M30
