%TF.GenerationSoftware,KiCad,Pcbnew,8.0.6*%
%TF.CreationDate,2025-07-21T18:30:39+02:00*%
%TF.ProjectId,main,6d61696e-2e6b-4696-9361-645f70636258,v1.0.0*%
%TF.SameCoordinates,Original*%
%TF.FileFunction,Paste,Bot*%
%TF.FilePolarity,Positive*%
%FSLAX46Y46*%
G04 Gerber Fmt 4.6, Leading zero omitted, Abs format (unit mm)*
G04 Created by KiCad (PCBNEW 8.0.6) date 2025-07-21 18:30:39*
%MOMM*%
%LPD*%
G01*
G04 APERTURE LIST*
G04 Aperture macros list*
%AMRotRect*
0 Rectangle, with rotation*
0 The origin of the aperture is its center*
0 $1 length*
0 $2 width*
0 $3 Rotation angle, in degrees counterclockwise*
0 Add horizontal line*
21,1,$1,$2,0,0,$3*%
G04 Aperture macros list end*
%ADD10RotRect,1.550000X2.000000X17.000000*%
%ADD11RotRect,1.550000X2.000000X343.000000*%
%ADD12RotRect,0.900000X1.200000X17.000000*%
%ADD13RotRect,0.900000X1.200000X12.000000*%
%ADD14RotRect,1.550000X2.000000X348.000000*%
%ADD15RotRect,0.900000X1.200000X343.000000*%
%ADD16RotRect,1.550000X2.000000X22.000000*%
%ADD17RotRect,0.900000X1.200000X348.000000*%
%ADD18RotRect,0.900000X1.200000X323.000000*%
%ADD19RotRect,1.550000X2.000000X323.000000*%
%ADD20RotRect,0.900000X1.200000X22.000000*%
%ADD21RotRect,0.900000X1.200000X37.000000*%
%ADD22RotRect,1.550000X2.000000X12.000000*%
%ADD23RotRect,1.550000X2.000000X338.000000*%
%ADD24RotRect,1.550000X2.000000X37.000000*%
%ADD25RotRect,0.900000X1.200000X338.000000*%
G04 APERTURE END LIST*
D10*
%TO.C,CPG1316*%
X255368687Y-111646612D03*
X258237600Y-110769493D03*
%TD*%
D11*
%TO.C,CPG1316*%
X117341951Y-110958297D03*
X120210866Y-111835408D03*
%TD*%
%TO.C,CPG1316*%
X122312271Y-94701119D03*
X125181186Y-95578230D03*
%TD*%
%TO.C,CPG1316*%
X126874571Y-137923620D03*
X129743486Y-138800731D03*
%TD*%
D12*
%TO.C,D34*%
X226409366Y-133728373D03*
X229565184Y-132763547D03*
%TD*%
D13*
%TO.C,D26*%
X275754944Y-112779312D03*
X278982840Y-112093212D03*
%TD*%
D10*
%TO.C,CPG1316*%
X232679328Y-95578236D03*
X235548241Y-94701117D03*
%TD*%
D14*
%TO.C,CPG1316*%
X74377567Y-133985994D03*
X77312009Y-134609731D03*
%TD*%
D11*
%TO.C,CPG1316*%
X104593236Y-94512337D03*
X107462151Y-95389448D03*
%TD*%
D15*
%TO.C,D10*%
X113792382Y-122055403D03*
X116948176Y-123020221D03*
%TD*%
D12*
%TO.C,D29*%
X253661050Y-106574235D03*
X256816868Y-105609409D03*
%TD*%
D13*
%TO.C,D25*%
X279289451Y-129407824D03*
X282517347Y-128721724D03*
%TD*%
D15*
%TO.C,D16*%
X143967776Y-139646473D03*
X147123570Y-140611291D03*
%TD*%
D10*
%TO.C,CPG1316*%
X228117025Y-138800750D03*
X230985938Y-137923631D03*
%TD*%
D16*
%TO.C,CPG1316*%
X218527225Y-163879310D03*
X221308783Y-162755488D03*
%TD*%
D15*
%TO.C,D9*%
X106013977Y-89352235D03*
X109169771Y-90317053D03*
%TD*%
D17*
%TO.C,D3*%
X65783648Y-91930200D03*
X69011564Y-92616310D03*
%TD*%
D11*
%TO.C,CPG1316*%
X152487658Y-112292201D03*
X155356573Y-113169312D03*
%TD*%
D17*
%TO.C,D2*%
X62249148Y-108558716D03*
X65477064Y-109244826D03*
%TD*%
D18*
%TO.C,D21*%
X155828155Y-167394790D03*
X158463643Y-169380762D03*
%TD*%
D14*
%TO.C,CPG1316*%
X77912085Y-117357489D03*
X80846527Y-117981226D03*
%TD*%
D12*
%TO.C,D35*%
X221439059Y-117471185D03*
X224594877Y-116506359D03*
%TD*%
D10*
%TO.C,CPG1316*%
X223146706Y-122543568D03*
X226015619Y-121666449D03*
%TD*%
D15*
%TO.C,D12*%
X123733004Y-89541039D03*
X126888798Y-90505857D03*
%TD*%
D19*
%TO.C,CPG1316*%
X152728241Y-171757747D03*
X155124144Y-173563186D03*
%TD*%
D13*
%TO.C,D23*%
X292383463Y-109244815D03*
X295611359Y-108558715D03*
%TD*%
D12*
%TO.C,D33*%
X230971691Y-90505863D03*
X234127509Y-89541037D03*
%TD*%
D17*
%TO.C,D4*%
X75343163Y-128721731D03*
X78571079Y-129407841D03*
%TD*%
D12*
%TO.C,D36*%
X216468734Y-101214008D03*
X219624552Y-100249182D03*
%TD*%
D20*
%TO.C,D41*%
X216384023Y-158975082D03*
X219443711Y-157738874D03*
%TD*%
D14*
%TO.C,CPG1316*%
X61283548Y-113822984D03*
X64217990Y-114446721D03*
%TD*%
D11*
%TO.C,CPG1316*%
X99622915Y-110769503D03*
X102491830Y-111646614D03*
%TD*%
D10*
%TO.C,CPG1316*%
X202503957Y-113169315D03*
X205372870Y-112292196D03*
%TD*%
%TO.C,CPG1316*%
X242619972Y-128092592D03*
X245488885Y-127215473D03*
%TD*%
%TO.C,CPG1316*%
X212444582Y-145683686D03*
X215313495Y-144806567D03*
%TD*%
%TO.C,CPG1316*%
X237649651Y-111835415D03*
X240518564Y-110958296D03*
%TD*%
D15*
%TO.C,D14*%
X133265661Y-116506372D03*
X136421455Y-117471190D03*
%TD*%
D21*
%TO.C,D42*%
X199396862Y-169380776D03*
X202032366Y-167394768D03*
%TD*%
D12*
%TO.C,D30*%
X248690733Y-90317065D03*
X251846551Y-89352239D03*
%TD*%
D13*
%TO.C,D22*%
X295917967Y-125873331D03*
X299145863Y-125187231D03*
%TD*%
D15*
%TO.C,D7*%
X96073339Y-121866596D03*
X99229133Y-122831414D03*
%TD*%
D22*
%TO.C,CPG1316*%
X290108013Y-97818222D03*
X293042455Y-97194490D03*
%TD*%
%TO.C,CPG1316*%
X280548486Y-134609724D03*
X283482928Y-133985992D03*
%TD*%
D12*
%TO.C,D28*%
X258631371Y-122831421D03*
X261787189Y-121866595D03*
%TD*%
%TO.C,D31*%
X240912331Y-123020216D03*
X244068149Y-122055390D03*
%TD*%
D11*
%TO.C,CPG1316*%
X120070842Y-156757344D03*
X122939757Y-157634455D03*
%TD*%
D17*
%TO.C,D6*%
X82412159Y-95464703D03*
X85640075Y-96150813D03*
%TD*%
D10*
%TO.C,CPG1316*%
X218176385Y-106286383D03*
X221045298Y-105409264D03*
%TD*%
D12*
%TO.C,D37*%
X210736935Y-140611292D03*
X213892753Y-139646466D03*
%TD*%
D22*
%TO.C,CPG1316*%
X293642496Y-114446720D03*
X296576938Y-113822988D03*
%TD*%
D11*
%TO.C,CPG1316*%
X142547015Y-144806565D03*
X145415930Y-145683676D03*
%TD*%
%TO.C,CPG1316*%
X131844906Y-121666462D03*
X134713821Y-122543573D03*
%TD*%
D12*
%TO.C,D40*%
X233213110Y-152562090D03*
X236368928Y-151597264D03*
%TD*%
D11*
%TO.C,CPG1316*%
X94652593Y-127026705D03*
X97521508Y-127903816D03*
%TD*%
D17*
%TO.C,D5*%
X78877655Y-112093221D03*
X82105571Y-112779331D03*
%TD*%
D10*
%TO.C,CPG1316*%
X234920755Y-157634456D03*
X237789668Y-156757337D03*
%TD*%
D22*
%TO.C,CPG1316*%
X277014003Y-117981227D03*
X279948445Y-117357495D03*
%TD*%
D15*
%TO.C,D19*%
X121491591Y-151597274D03*
X124647385Y-152562092D03*
%TD*%
D14*
%TO.C,CPG1316*%
X64818053Y-97194483D03*
X67752495Y-97818220D03*
%TD*%
%TO.C,CPG1316*%
X81446570Y-100728969D03*
X84381012Y-101352706D03*
%TD*%
D12*
%TO.C,D38*%
X205766622Y-124354122D03*
X208922440Y-123389296D03*
%TD*%
D23*
%TO.C,CPG1316*%
X136551736Y-162755497D03*
X139333287Y-163879313D03*
%TD*%
D10*
%TO.C,CPG1316*%
X207474261Y-129426487D03*
X210343174Y-128549368D03*
%TD*%
%TO.C,CPG1316*%
X260338998Y-127903815D03*
X263207911Y-127026696D03*
%TD*%
D11*
%TO.C,CPG1316*%
X147517341Y-128549383D03*
X150386256Y-129426494D03*
%TD*%
D15*
%TO.C,D13*%
X128295334Y-132763542D03*
X131451128Y-133728360D03*
%TD*%
D12*
%TO.C,D39*%
X200796286Y-108096937D03*
X203952104Y-107132111D03*
%TD*%
D22*
%TO.C,CPG1316*%
X297177003Y-131075223D03*
X300111445Y-130451491D03*
%TD*%
D13*
%TO.C,D27*%
X272220457Y-96150797D03*
X275448353Y-95464697D03*
%TD*%
D11*
%TO.C,CPG1316*%
X136815226Y-105409286D03*
X139684141Y-106286397D03*
%TD*%
D15*
%TO.C,D15*%
X138235976Y-100249180D03*
X141391770Y-101213998D03*
%TD*%
%TO.C,D17*%
X148938089Y-123389294D03*
X152093883Y-124354112D03*
%TD*%
%TO.C,D8*%
X101043666Y-105609427D03*
X104199460Y-106574245D03*
%TD*%
%TO.C,D11*%
X118762692Y-105798217D03*
X121918486Y-106763035D03*
%TD*%
D12*
%TO.C,D32*%
X235942016Y-106763040D03*
X239097834Y-105798214D03*
%TD*%
D17*
%TO.C,D1*%
X58714651Y-125187220D03*
X61942567Y-125873330D03*
%TD*%
D10*
%TO.C,CPG1316*%
X250398366Y-95389438D03*
X253267279Y-94512319D03*
%TD*%
D11*
%TO.C,CPG1316*%
X112371623Y-127215495D03*
X115240538Y-128092606D03*
%TD*%
D15*
%TO.C,D18*%
X153908407Y-107132118D03*
X157064201Y-108096936D03*
%TD*%
D24*
%TO.C,CPG1316*%
X202736362Y-173563196D03*
X205132273Y-171757753D03*
%TD*%
D22*
%TO.C,CPG1316*%
X273479510Y-101352715D03*
X276413952Y-100728983D03*
%TD*%
D25*
%TO.C,D20*%
X138416795Y-157738879D03*
X141476503Y-158975079D03*
%TD*%
D13*
%TO.C,D24*%
X288848962Y-92616314D03*
X292076858Y-91930214D03*
%TD*%
D14*
%TO.C,CPG1316*%
X57749061Y-130451493D03*
X60683503Y-131075230D03*
%TD*%
M02*
