%TF.GenerationSoftware,KiCad,Pcbnew,8.0.6*%
%TF.CreationDate,2025-07-21T16:41:57+02:00*%
%TF.ProjectId,main,6d61696e-2e6b-4696-9361-645f70636258,v1.0.0*%
%TF.SameCoordinates,Original*%
%TF.FileFunction,Drillmap*%
%TF.FilePolarity,Positive*%
%FSLAX45Y45*%
G04 Gerber Fmt 4.5, Leading zero omitted, Abs format (unit mm)*
G04 Created by KiCad (PCBNEW 8.0.6) date 2025-07-21 16:41:57*
%MOMM*%
%LPD*%
G01*
G04 APERTURE LIST*
%ADD10C,0.150000*%
%ADD11C,0.050000*%
%ADD12C,0.100000*%
%ADD13C,0.200000*%
G04 APERTURE END LIST*
D10*
X11744798Y-8059379D02*
G75*
G02*
X11801143Y-8068106I-2128J-199981D01*
G01*
X8202437Y-14228178D02*
X4998918Y-13578577D01*
X5861410Y-8549904D02*
G75*
G02*
X6098623Y-8395855I195640J-41596D01*
G01*
D11*
X17267500Y-10400000D02*
X17255001Y-10400000D01*
D10*
X20060484Y-18374656D02*
G75*
G02*
X19940121Y-18414930I-120384J159786D01*
G01*
X10029664Y-8041104D02*
X11744798Y-8059379D01*
X8265141Y-14230846D02*
G75*
G02*
X8202437Y-14228178I-22961J198596D01*
G01*
X22079789Y-8656119D02*
G75*
G02*
X22122040Y-8637643I100761J-172872D01*
G01*
X30943408Y-13342827D02*
G75*
G02*
X30789360Y-13580042I-195648J-41574D01*
G01*
X12603809Y-16590157D02*
G75*
G02*
X12616949Y-16594811I-60159J-190713D01*
G01*
X14156421Y-17201324D02*
G75*
G02*
X14203473Y-17227677I-73251J-185966D01*
G01*
X6098622Y-8395857D02*
X7518313Y-8697621D01*
X27582779Y-14228627D02*
G75*
G02*
X27521809Y-14230949I-38009J196427D01*
G01*
X29323921Y-13891527D02*
G75*
G02*
X29320351Y-13892252I-41481J195098D01*
G01*
D11*
X18510001Y-13710000D02*
X18512500Y-10405000D01*
D10*
X13664012Y-8637642D02*
G75*
G02*
X13706261Y-8656120I-58372J-190999D01*
G01*
X7612710Y-8694892D02*
X9974719Y-8048192D01*
X15845930Y-18414930D02*
G75*
G02*
X15725569Y-18374653I-1J199980D01*
G01*
X30789360Y-13580038D02*
X29323921Y-13891527D01*
X14156421Y-17201324D02*
X12616949Y-16594811D01*
X7612710Y-8694892D02*
G75*
G02*
X7518313Y-8697620I-52810J192812D01*
G01*
X9808518Y-14052509D02*
X8265141Y-14230846D01*
X12603809Y-16590157D02*
X11073683Y-16107441D01*
X19128990Y-10376321D02*
G75*
G02*
X19028264Y-10403535I-100700J172701D01*
G01*
X25811332Y-8048192D02*
X28173341Y-8694891D01*
X24041252Y-8059380D02*
X25756388Y-8041105D01*
X25776562Y-14160020D02*
X24830211Y-16007874D01*
X4998918Y-13578577D02*
G75*
G02*
X4843036Y-13340984I39743J196007D01*
G01*
X28267737Y-8697621D02*
G75*
G02*
X28173341Y-8694892I-41587J195501D01*
G01*
X11073683Y-16107441D02*
G75*
G02*
X10955840Y-16007875I60167J190731D01*
G01*
X24830211Y-16007874D02*
G75*
G02*
X24712369Y-16107442I-178021J91174D01*
G01*
X21582578Y-17227676D02*
X20060484Y-18374656D01*
D11*
X16757788Y-10403536D02*
X17255001Y-10400000D01*
D10*
X4843035Y-13340984D02*
X5861410Y-8549904D01*
X24712369Y-16107442D02*
X23182242Y-16590157D01*
X16757788Y-10403536D02*
G75*
G02*
X16657062Y-10376321I2J200016D01*
G01*
X29924641Y-8549904D02*
X30943408Y-13342827D01*
X11801143Y-8068107D02*
X13664012Y-8637642D01*
D11*
X17270000Y-13715000D02*
X17267500Y-10400000D01*
X17270000Y-13715000D02*
X18510001Y-13710000D01*
D10*
X10955840Y-16007875D02*
X10009489Y-14160020D01*
X23169103Y-16594812D02*
G75*
G02*
X23182241Y-16590157I73107J-185488D01*
G01*
X28267737Y-8697621D02*
X29687429Y-8395856D01*
D11*
X18512500Y-10405000D02*
X19028264Y-10403537D01*
D10*
X23169103Y-16594812D02*
X21629631Y-17201323D01*
X21582578Y-17227676D02*
G75*
G02*
X21629630Y-17201321I120332J-159654D01*
G01*
X22122040Y-8637643D02*
X23984907Y-8068108D01*
X13706262Y-8656119D02*
X16657062Y-10376321D01*
X29320351Y-13892252D02*
X27582779Y-14228627D01*
X27521809Y-14230950D02*
X25977533Y-14052508D01*
X15725567Y-18374656D02*
X14203473Y-17227677D01*
X9808518Y-14052509D02*
G75*
G02*
X10009490Y-14160020I22962J-198672D01*
G01*
X19128990Y-10376321D02*
X22079789Y-8656119D01*
X29687429Y-8395856D02*
G75*
G02*
X29924642Y-8549903I41581J-195633D01*
G01*
X25776562Y-14160020D02*
G75*
G02*
X25977533Y-14052509I177998J-91140D01*
G01*
X25756388Y-8041105D02*
G75*
G02*
X25811332Y-8048191I2122J-200115D01*
G01*
X9974719Y-8048192D02*
G75*
G02*
X10029664Y-8041104I52821J-192928D01*
G01*
X23984907Y-8068108D02*
G75*
G02*
X24041252Y-8059380I58462J-191183D01*
G01*
X19940121Y-18414929D02*
X15845930Y-18414930D01*
D12*
X25178581Y-11299944D02*
G75*
G02*
X25078582Y-11299944I-50000J0D01*
G01*
X25078582Y-11299944D02*
G75*
G02*
X25178581Y-11299944I50000J0D01*
G01*
X26137091Y-10434826D02*
G75*
G02*
X26017090Y-10434826I-60000J0D01*
G01*
X26017090Y-10434826D02*
G75*
G02*
X26137091Y-10434826I60000J0D01*
G01*
X11370060Y-10979673D02*
G75*
G02*
X11270061Y-10979673I-50000J0D01*
G01*
X11270061Y-10979673D02*
G75*
G02*
X11370060Y-10979673I50000J0D01*
G01*
X12650178Y-10792856D02*
G75*
G02*
X12530178Y-10792856I-60000J0D01*
G01*
X12530178Y-10792856D02*
G75*
G02*
X12650178Y-10792856I60000J0D01*
G01*
X11867092Y-9353955D02*
G75*
G02*
X11767093Y-9353955I-50000J0D01*
G01*
X11767093Y-9353955D02*
G75*
G02*
X11867092Y-9353955I50000J0D01*
G01*
X13147210Y-9167138D02*
G75*
G02*
X13027210Y-9167138I-60000J0D01*
G01*
X13027210Y-9167138D02*
G75*
G02*
X13147210Y-9167138I60000J0D01*
G01*
X12323322Y-13676205D02*
G75*
G02*
X12223323Y-13676205I-50000J0D01*
G01*
X12223323Y-13676205D02*
G75*
G02*
X12323322Y-13676205I50000J0D01*
G01*
X13603440Y-13489388D02*
G75*
G02*
X13483440Y-13489388I-60000J0D01*
G01*
X13483440Y-13489388D02*
G75*
G02*
X13603440Y-13489388I60000J0D01*
G01*
X22909645Y-9693106D02*
G75*
G02*
X22809646Y-9693106I-50000J0D01*
G01*
X22809646Y-9693106D02*
G75*
G02*
X22909645Y-9693106I50000J0D01*
G01*
X23868154Y-8827988D02*
G75*
G02*
X23748154Y-8827988I-60000J0D01*
G01*
X23748154Y-8827988D02*
G75*
G02*
X23868154Y-8827988I60000J0D01*
G01*
X7065074Y-13318979D02*
G75*
G02*
X6965074Y-13318979I-50000J0D01*
G01*
X6965074Y-13318979D02*
G75*
G02*
X7065074Y-13318979I50000J0D01*
G01*
X8324077Y-13022175D02*
G75*
G02*
X8204076Y-13022175I-60000J0D01*
G01*
X8204076Y-13022175D02*
G75*
G02*
X8324077Y-13022175I60000J0D01*
G01*
X10095188Y-9335077D02*
G75*
G02*
X9995189Y-9335077I-50000J0D01*
G01*
X9995189Y-9335077D02*
G75*
G02*
X10095188Y-9335077I50000J0D01*
G01*
X11375306Y-9148260D02*
G75*
G02*
X11255306Y-9148260I-60000J0D01*
G01*
X11255306Y-9148260D02*
G75*
G02*
X11375306Y-9148260I60000J0D01*
G01*
X22453415Y-14015357D02*
G75*
G02*
X22353415Y-14015357I-50000J0D01*
G01*
X22353415Y-14015357D02*
G75*
G02*
X22453415Y-14015357I50000J0D01*
G01*
X23411924Y-13150239D02*
G75*
G02*
X23291924Y-13150239I-60000J0D01*
G01*
X23291924Y-13150239D02*
G75*
G02*
X23411924Y-13150239I60000J0D01*
G01*
X21507780Y-16558283D02*
G75*
G02*
X21407779Y-16558283I-50001J0D01*
G01*
X21407779Y-16558283D02*
G75*
G02*
X21507780Y-16558283I50001J0D01*
G01*
X22387279Y-15613789D02*
G75*
G02*
X22267281Y-15613789I-59999J0D01*
G01*
X22267281Y-15613789D02*
G75*
G02*
X22387279Y-15613789I59999J0D01*
G01*
X14884630Y-11113063D02*
G75*
G02*
X14784631Y-11113063I-50000J0D01*
G01*
X14784631Y-11113063D02*
G75*
G02*
X14884630Y-11113063I50000J0D01*
G01*
X16164748Y-10926247D02*
G75*
G02*
X16044748Y-10926247I-60000J0D01*
G01*
X16044748Y-10926247D02*
G75*
G02*
X16164748Y-10926247I60000J0D01*
G01*
X21956383Y-12389639D02*
G75*
G02*
X21856383Y-12389639I-50000J0D01*
G01*
X21856383Y-12389639D02*
G75*
G02*
X21956383Y-12389639I50000J0D01*
G01*
X22914892Y-11524521D02*
G75*
G02*
X22794892Y-11524521I-60000J0D01*
G01*
X22794892Y-11524521D02*
G75*
G02*
X22914892Y-11524521I60000J0D01*
G01*
X14973392Y-16924981D02*
G75*
G02*
X14873393Y-16924981I-50000J0D01*
G01*
X14873393Y-16924981D02*
G75*
G02*
X14973392Y-16924981I50000J0D01*
G01*
X16240808Y-17183836D02*
G75*
G02*
X16120807Y-17183836I-60000J0D01*
G01*
X16120807Y-17183836D02*
G75*
G02*
X16240808Y-17183836I60000J0D01*
G01*
X5755672Y-11302678D02*
G75*
G02*
X5655672Y-11302678I-50000J0D01*
G01*
X5655672Y-11302678D02*
G75*
G02*
X5755672Y-11302678I50000J0D01*
G01*
X7014675Y-11005874D02*
G75*
G02*
X6894674Y-11005874I-60000J0D01*
G01*
X6894674Y-11005874D02*
G75*
G02*
X7014675Y-11005874I60000J0D01*
G01*
X9598156Y-10960794D02*
G75*
G02*
X9498157Y-10960794I-50000J0D01*
G01*
X9498157Y-10960794D02*
G75*
G02*
X9598156Y-10960794I50000J0D01*
G01*
X10878274Y-10773977D02*
G75*
G02*
X10758274Y-10773977I-60000J0D01*
G01*
X10758274Y-10773977D02*
G75*
G02*
X10878274Y-10773977I60000J0D01*
G01*
X19892108Y-11452215D02*
G75*
G02*
X19792108Y-11452215I-50000J0D01*
G01*
X19792108Y-11452215D02*
G75*
G02*
X19892108Y-11452215I50000J0D01*
G01*
X20850617Y-10587096D02*
G75*
G02*
X20730617Y-10587096I-60000J0D01*
G01*
X20730617Y-10587096D02*
G75*
G02*
X20850617Y-10587096I60000J0D01*
G01*
X20886170Y-14703651D02*
G75*
G02*
X20786171Y-14703651I-50000J0D01*
G01*
X20786171Y-14703651D02*
G75*
G02*
X20886170Y-14703651I50000J0D01*
G01*
X21844680Y-13838533D02*
G75*
G02*
X21724679Y-13838533I-60000J0D01*
G01*
X21724679Y-13838533D02*
G75*
G02*
X21844680Y-13838533I60000J0D01*
G01*
X23406677Y-11318824D02*
G75*
G02*
X23306678Y-11318824I-50000J0D01*
G01*
X23306678Y-11318824D02*
G75*
G02*
X23406677Y-11318824I50000J0D01*
G01*
X24365187Y-10453706D02*
G75*
G02*
X24245186Y-10453706I-60000J0D01*
G01*
X24245186Y-10453706D02*
G75*
G02*
X24365187Y-10453706I60000J0D01*
G01*
X28642277Y-9881006D02*
G75*
G02*
X28542277Y-9881006I-50000J0D01*
G01*
X28542277Y-9881006D02*
G75*
G02*
X28642277Y-9881006I50000J0D01*
G01*
X29672577Y-9101847D02*
G75*
G02*
X29552577Y-9101847I-60000J0D01*
G01*
X29552577Y-9101847D02*
G75*
G02*
X29672577Y-9101847I60000J0D01*
G01*
X27686324Y-13560156D02*
G75*
G02*
X27586324Y-13560156I-50000J0D01*
G01*
X27586324Y-13560156D02*
G75*
G02*
X27686324Y-13560156I50000J0D01*
G01*
X28716624Y-12780997D02*
G75*
G02*
X28596624Y-12780997I-60000J0D01*
G01*
X28596624Y-12780997D02*
G75*
G02*
X28716624Y-12780997I60000J0D01*
G01*
X11642949Y-15559577D02*
G75*
G02*
X11542950Y-15559577I-50000J0D01*
G01*
X11542950Y-15559577D02*
G75*
G02*
X11642949Y-15559577I50000J0D01*
G01*
X12923067Y-15372761D02*
G75*
G02*
X12803067Y-15372761I-60000J0D01*
G01*
X12803067Y-15372761D02*
G75*
G02*
X12923067Y-15372761I60000J0D01*
G01*
X21459351Y-10763921D02*
G75*
G02*
X21359351Y-10763921I-50000J0D01*
G01*
X21359351Y-10763921D02*
G75*
G02*
X21459351Y-10763921I50000J0D01*
G01*
X22417860Y-9898803D02*
G75*
G02*
X22297859Y-9898803I-60000J0D01*
G01*
X22297859Y-9898803D02*
G75*
G02*
X22417860Y-9898803I60000J0D01*
G01*
X28995725Y-11543856D02*
G75*
G02*
X28895725Y-11543856I-50000J0D01*
G01*
X28895725Y-11543856D02*
G75*
G02*
X28995725Y-11543856I50000J0D01*
G01*
X30026025Y-10764697D02*
G75*
G02*
X29906025Y-10764697I-60000J0D01*
G01*
X29906025Y-10764697D02*
G75*
G02*
X30026025Y-10764697I60000J0D01*
G01*
X13890566Y-14364499D02*
G75*
G02*
X13790567Y-14364499I-50000J0D01*
G01*
X13790567Y-14364499D02*
G75*
G02*
X13890566Y-14364499I50000J0D01*
G01*
X15170684Y-14177682D02*
G75*
G02*
X15050684Y-14177682I-60000J0D01*
G01*
X15050684Y-14177682D02*
G75*
G02*
X15170684Y-14177682I60000J0D01*
G01*
X12820355Y-12050489D02*
G75*
G02*
X12720356Y-12050489I-50000J0D01*
G01*
X12720356Y-12050489D02*
G75*
G02*
X12820355Y-12050489I50000J0D01*
G01*
X14100473Y-11863672D02*
G75*
G02*
X13980473Y-11863672I-60000J0D01*
G01*
X13980473Y-11863672D02*
G75*
G02*
X14100473Y-11863672I60000J0D01*
G01*
X9101124Y-12586513D02*
G75*
G02*
X9001125Y-12586513I-50000J0D01*
G01*
X9001125Y-12586513D02*
G75*
G02*
X9101124Y-12586513I50000J0D01*
G01*
X10381242Y-12399696D02*
G75*
G02*
X10261242Y-12399696I-60000J0D01*
G01*
X10261242Y-12399696D02*
G75*
G02*
X10381242Y-12399696I60000J0D01*
G01*
X23133788Y-15898728D02*
G75*
G02*
X23033788Y-15898728I-50000J0D01*
G01*
X23033788Y-15898728D02*
G75*
G02*
X23133788Y-15898728I50000J0D01*
G01*
X24092297Y-15033610D02*
G75*
G02*
X23972297Y-15033610I-60000J0D01*
G01*
X23972297Y-15033610D02*
G75*
G02*
X24092297Y-15033610I60000J0D01*
G01*
X27332876Y-11897306D02*
G75*
G02*
X27232876Y-11897306I-50000J0D01*
G01*
X27232876Y-11897306D02*
G75*
G02*
X27332876Y-11897306I50000J0D01*
G01*
X28363176Y-11118148D02*
G75*
G02*
X28243176Y-11118148I-60000J0D01*
G01*
X28243176Y-11118148D02*
G75*
G02*
X28363176Y-11118148I60000J0D01*
G01*
X6109122Y-9639828D02*
G75*
G02*
X6009123Y-9639828I-50000J0D01*
G01*
X6009123Y-9639828D02*
G75*
G02*
X6109122Y-9639828I50000J0D01*
G01*
X7368125Y-9343024D02*
G75*
G02*
X7248125Y-9343024I-60000J0D01*
G01*
X7248125Y-9343024D02*
G75*
G02*
X7368125Y-9343024I60000J0D01*
G01*
X7771974Y-9993277D02*
G75*
G02*
X7671974Y-9993277I-50000J0D01*
G01*
X7671974Y-9993277D02*
G75*
G02*
X7771974Y-9993277I50000J0D01*
G01*
X9030977Y-9696473D02*
G75*
G02*
X8910977Y-9696473I-60000J0D01*
G01*
X8910977Y-9696473D02*
G75*
G02*
X9030977Y-9696473I60000J0D01*
G01*
X13302738Y-16123740D02*
G75*
G02*
X13202738Y-16123740I-50000J0D01*
G01*
X13202738Y-16123740D02*
G75*
G02*
X13302738Y-16123740I50000J0D01*
G01*
X14594305Y-16048333D02*
G75*
G02*
X14474305Y-16048333I-60000J0D01*
G01*
X14474305Y-16048333D02*
G75*
G02*
X14594305Y-16048333I60000J0D01*
G01*
X20389138Y-13077932D02*
G75*
G02*
X20289139Y-13077932I-50000J0D01*
G01*
X20289139Y-13077932D02*
G75*
G02*
X20389138Y-13077932I50000J0D01*
G01*
X21347648Y-12212813D02*
G75*
G02*
X21227647Y-12212813I-60000J0D01*
G01*
X21227647Y-12212813D02*
G75*
G02*
X21347648Y-12212813I60000J0D01*
G01*
X25675612Y-12925664D02*
G75*
G02*
X25575613Y-12925664I-50000J0D01*
G01*
X25575613Y-12925664D02*
G75*
G02*
X25675612Y-12925664I50000J0D01*
G01*
X26634122Y-12060545D02*
G75*
G02*
X26514121Y-12060545I-60000J0D01*
G01*
X26514121Y-12060545D02*
G75*
G02*
X26634122Y-12060545I60000J0D01*
G01*
X14387599Y-12738781D02*
G75*
G02*
X14287600Y-12738781I-50000J0D01*
G01*
X14287600Y-12738781D02*
G75*
G02*
X14387599Y-12738781I50000J0D01*
G01*
X15667717Y-12551964D02*
G75*
G02*
X15547717Y-12551964I-60000J0D01*
G01*
X15547717Y-12551964D02*
G75*
G02*
X15667717Y-12551964I60000J0D01*
G01*
X29349176Y-13206706D02*
G75*
G02*
X29249176Y-13206706I-50000J0D01*
G01*
X29249176Y-13206706D02*
G75*
G02*
X29349176Y-13206706I50000J0D01*
G01*
X30379476Y-12427547D02*
G75*
G02*
X30259476Y-12427547I-60000J0D01*
G01*
X30259476Y-12427547D02*
G75*
G02*
X30379476Y-12427547I60000J0D01*
G01*
X13317387Y-10424772D02*
G75*
G02*
X13217388Y-10424772I-50000J0D01*
G01*
X13217388Y-10424772D02*
G75*
G02*
X13317387Y-10424772I50000J0D01*
G01*
X14597505Y-10237955D02*
G75*
G02*
X14477505Y-10237955I-60000J0D01*
G01*
X14477505Y-10237955D02*
G75*
G02*
X14597505Y-10237955I60000J0D01*
G01*
X24681549Y-9674227D02*
G75*
G02*
X24581550Y-9674227I-50000J0D01*
G01*
X24581550Y-9674227D02*
G75*
G02*
X24681549Y-9674227I50000J0D01*
G01*
X25640058Y-8809108D02*
G75*
G02*
X25520058Y-8809108I-60000J0D01*
G01*
X25520058Y-8809108D02*
G75*
G02*
X25640058Y-8809108I60000J0D01*
G01*
X10873027Y-12605392D02*
G75*
G02*
X10773028Y-12605392I-50000J0D01*
G01*
X10773028Y-12605392D02*
G75*
G02*
X10873027Y-12605392I50000J0D01*
G01*
X12153145Y-12418576D02*
G75*
G02*
X12033145Y-12418576I-60000J0D01*
G01*
X12033145Y-12418576D02*
G75*
G02*
X12153145Y-12418576I60000J0D01*
G01*
X19986241Y-17623087D02*
G75*
G02*
X19886242Y-17623087I-50000J0D01*
G01*
X19886242Y-17623087D02*
G75*
G02*
X19986241Y-17623087I50000J0D01*
G01*
X20591660Y-16485732D02*
G75*
G02*
X20471659Y-16485732I-60001J0D01*
G01*
X20471659Y-16485732D02*
G75*
G02*
X20591660Y-16485732I60001J0D01*
G01*
X26979426Y-10234455D02*
G75*
G02*
X26879427Y-10234455I-50000J0D01*
G01*
X26879427Y-10234455D02*
G75*
G02*
X26979426Y-10234455I50000J0D01*
G01*
X28009726Y-9455296D02*
G75*
G02*
X27889726Y-9455296I-60000J0D01*
G01*
X27889726Y-9455296D02*
G75*
G02*
X28009726Y-9455296I60000J0D01*
G01*
X5402223Y-12965529D02*
G75*
G02*
X5302224Y-12965529I-50000J0D01*
G01*
X5302224Y-12965529D02*
G75*
G02*
X5402223Y-12965529I50000J0D01*
G01*
X6661226Y-12668725D02*
G75*
G02*
X6541226Y-12668725I-60000J0D01*
G01*
X6541226Y-12668725D02*
G75*
G02*
X6661226Y-12668725I60000J0D01*
G01*
X7418525Y-11656129D02*
G75*
G02*
X7318526Y-11656129I-50000J0D01*
G01*
X7318526Y-11656129D02*
G75*
G02*
X7418525Y-11656129I50000J0D01*
G01*
X8677528Y-11359325D02*
G75*
G02*
X8557528Y-11359325I-60000J0D01*
G01*
X8557528Y-11359325D02*
G75*
G02*
X8677528Y-11359325I60000J0D01*
G01*
X23903709Y-12944542D02*
G75*
G02*
X23803710Y-12944542I-50000J0D01*
G01*
X23803710Y-12944542D02*
G75*
G02*
X23903709Y-12944542I50000J0D01*
G01*
X24862219Y-12079424D02*
G75*
G02*
X24742218Y-12079424I-60000J0D01*
G01*
X24742218Y-12079424D02*
G75*
G02*
X24862219Y-12079424I60000J0D01*
G01*
D13*
D12*
X5739089Y-12478773D02*
X5769089Y-12508773D01*
X5769089Y-12478773D02*
X5739089Y-12508773D01*
X6092540Y-10815922D02*
X6122540Y-10845922D01*
X6122540Y-10815922D02*
X6092540Y-10845922D01*
X6296633Y-12597283D02*
X6326633Y-12627283D01*
X6326633Y-12597283D02*
X6296633Y-12627283D01*
X6445989Y-9153071D02*
X6475989Y-9183071D01*
X6475989Y-9153071D02*
X6445989Y-9183071D01*
X6650083Y-10934432D02*
X6680083Y-10964432D01*
X6680083Y-10934432D02*
X6650083Y-10964432D01*
X7003532Y-9271581D02*
X7033532Y-9301581D01*
X7033532Y-9271581D02*
X7003532Y-9301581D01*
X7401940Y-12832222D02*
X7431940Y-12862222D01*
X7431940Y-12832222D02*
X7401940Y-12862222D01*
X7755389Y-11169372D02*
X7785389Y-11199372D01*
X7785389Y-11169372D02*
X7755389Y-11199372D01*
X7959484Y-12950733D02*
X7989484Y-12980733D01*
X7989484Y-12950733D02*
X7959484Y-12980733D01*
X8108840Y-9506520D02*
X8138840Y-9536520D01*
X8138840Y-9506520D02*
X8108840Y-9536520D01*
X8312934Y-11287881D02*
X8342934Y-11317881D01*
X8342934Y-11287881D02*
X8312934Y-11317881D01*
X8666384Y-9625031D02*
X8696384Y-9655031D01*
X8696384Y-9625031D02*
X8666384Y-9655031D01*
X9477576Y-12136575D02*
X9507576Y-12166575D01*
X9507576Y-12136575D02*
X9477576Y-12166575D01*
X9974608Y-10510858D02*
X10004608Y-10540858D01*
X10004608Y-10510858D02*
X9974608Y-10540858D01*
X10022671Y-12303227D02*
X10052671Y-12333227D01*
X10052671Y-12303227D02*
X10022671Y-12333227D01*
X10471641Y-8885139D02*
X10501641Y-8915139D01*
X10501641Y-8885139D02*
X10471641Y-8915139D01*
X10519702Y-10677510D02*
X10549702Y-10707510D01*
X10549702Y-10677510D02*
X10519702Y-10707510D01*
X11016735Y-9051792D02*
X11046735Y-9081792D01*
X11046735Y-9051792D02*
X11016735Y-9081792D01*
X11249480Y-12155454D02*
X11279480Y-12185454D01*
X11279480Y-12155454D02*
X11249480Y-12185454D01*
X11746512Y-10529737D02*
X11776512Y-10559737D01*
X11776512Y-10529737D02*
X11746512Y-10559737D01*
X11794574Y-12322106D02*
X11824574Y-12352106D01*
X11824574Y-12322106D02*
X11794574Y-12352106D01*
X12019402Y-15109641D02*
X12049402Y-15139641D01*
X12049402Y-15109641D02*
X12019402Y-15139641D01*
X12243544Y-8904019D02*
X12273544Y-8934019D01*
X12273544Y-8904019D02*
X12243544Y-8934019D01*
X12291606Y-10696389D02*
X12321606Y-10726389D01*
X12321606Y-10696389D02*
X12291606Y-10726389D01*
X12564495Y-15276295D02*
X12594495Y-15306295D01*
X12594495Y-15276295D02*
X12564495Y-15306295D01*
X12699776Y-13226269D02*
X12729776Y-13256269D01*
X12729776Y-13226269D02*
X12699776Y-13256269D01*
X12788638Y-9070670D02*
X12818638Y-9100670D01*
X12818638Y-9070670D02*
X12788638Y-9100670D01*
X13196809Y-11600552D02*
X13226809Y-11630552D01*
X13226809Y-11600552D02*
X13196809Y-11630552D01*
X13244869Y-13392922D02*
X13274869Y-13422922D01*
X13274869Y-13392922D02*
X13244869Y-13422922D01*
X13693839Y-9974833D02*
X13723839Y-10004833D01*
X13723839Y-9974833D02*
X13693839Y-10004833D01*
X13715416Y-15713935D02*
X13745416Y-15743935D01*
X13745416Y-15713935D02*
X13715416Y-15743935D01*
X13741900Y-11767203D02*
X13771900Y-11797203D01*
X13771900Y-11767203D02*
X13741900Y-11797203D01*
X14238933Y-10141485D02*
X14268933Y-10171485D01*
X14268933Y-10141485D02*
X14238933Y-10171485D01*
X14243911Y-15927459D02*
X14273911Y-15957459D01*
X14273911Y-15927459D02*
X14243911Y-15957459D01*
X14267019Y-13914562D02*
X14297019Y-13944562D01*
X14297019Y-13914562D02*
X14267019Y-13944562D01*
X14764052Y-12288845D02*
X14794052Y-12318845D01*
X14794052Y-12288845D02*
X14764052Y-12318845D01*
X14812113Y-14081213D02*
X14842113Y-14111213D01*
X14842113Y-14081213D02*
X14812113Y-14111213D01*
X14943628Y-11836327D02*
X14973628Y-11866327D01*
X14973628Y-11836327D02*
X14943628Y-11866327D01*
X14967019Y-11759822D02*
X14997019Y-11789822D01*
X14997019Y-11759822D02*
X14967019Y-11789822D01*
X14990408Y-11683317D02*
X15020408Y-11713317D01*
X15020408Y-11683317D02*
X14990408Y-11713317D01*
X15013799Y-11606813D02*
X15043799Y-11636813D01*
X15043799Y-11606813D02*
X15013799Y-11636813D01*
X15043431Y-11526990D02*
X15073431Y-11556990D01*
X15073431Y-11526990D02*
X15043431Y-11556990D01*
X15261082Y-10663127D02*
X15291082Y-10693127D01*
X15291082Y-10663127D02*
X15261082Y-10693127D01*
X15309145Y-12455496D02*
X15339145Y-12485496D01*
X15339145Y-12455496D02*
X15309145Y-12485496D01*
X15471978Y-16652260D02*
X15501978Y-16682260D01*
X15501978Y-16652260D02*
X15471978Y-16682260D01*
X15806177Y-10829779D02*
X15836177Y-10859779D01*
X15836177Y-10829779D02*
X15806177Y-10859779D01*
X15927201Y-16995295D02*
X15957201Y-17025295D01*
X15957201Y-16995295D02*
X15927201Y-17025295D01*
X16520000Y-12835001D02*
X16550000Y-12865001D01*
X16550000Y-12835001D02*
X16520000Y-12865001D01*
X16600000Y-12835000D02*
X16630000Y-12865000D01*
X16630000Y-12835000D02*
X16600000Y-12865000D01*
X16685000Y-12835001D02*
X16715000Y-12865001D01*
X16715000Y-12835001D02*
X16685000Y-12865001D01*
X16765000Y-12835000D02*
X16795000Y-12865000D01*
X16795000Y-12835000D02*
X16765000Y-12865000D01*
X16845001Y-12835000D02*
X16875001Y-12865000D01*
X16875001Y-12835000D02*
X16845001Y-12865000D01*
X16930000Y-12835000D02*
X16960000Y-12865000D01*
X16960000Y-12835000D02*
X16930000Y-12865000D01*
X19828850Y-16995295D02*
X19858850Y-17025295D01*
X19858850Y-16995295D02*
X19828850Y-17025295D01*
X19949874Y-10829778D02*
X19979874Y-10859778D01*
X19979874Y-10829778D02*
X19949874Y-10859778D01*
X20284073Y-16652261D02*
X20314073Y-16682261D01*
X20314073Y-16652261D02*
X20284073Y-16682261D01*
X20446906Y-12455496D02*
X20476906Y-12485496D01*
X20476906Y-12455496D02*
X20446906Y-12485496D01*
X20494968Y-10663126D02*
X20524968Y-10693126D01*
X20524968Y-10663126D02*
X20494968Y-10693126D01*
X20943939Y-14081213D02*
X20973939Y-14111213D01*
X20973939Y-14081213D02*
X20943939Y-14111213D01*
X20992000Y-12288844D02*
X21022000Y-12318844D01*
X21022000Y-12288844D02*
X20992000Y-12318844D01*
X21489033Y-13914562D02*
X21519033Y-13944562D01*
X21519033Y-13914562D02*
X21489033Y-13944562D01*
X21512140Y-15927461D02*
X21542140Y-15957461D01*
X21542140Y-15927461D02*
X21512140Y-15957461D01*
X21517118Y-10141486D02*
X21547118Y-10171486D01*
X21547118Y-10141486D02*
X21517118Y-10171486D01*
X22014150Y-11767202D02*
X22044150Y-11797202D01*
X22044150Y-11767202D02*
X22014150Y-11797202D01*
X22040634Y-15713935D02*
X22070634Y-15743935D01*
X22070634Y-15713935D02*
X22040634Y-15743935D01*
X22062211Y-9974834D02*
X22092211Y-10004834D01*
X22092211Y-9974834D02*
X22062211Y-10004834D01*
X22511182Y-13392921D02*
X22541182Y-13422921D01*
X22541182Y-13392921D02*
X22511182Y-13422921D01*
X22559242Y-11600552D02*
X22589242Y-11630552D01*
X22589242Y-11600552D02*
X22559242Y-11630552D01*
X22967413Y-9070672D02*
X22997413Y-9100672D01*
X22997413Y-9070672D02*
X22967413Y-9100672D01*
X23056275Y-13226270D02*
X23086275Y-13256270D01*
X23086275Y-13226270D02*
X23056275Y-13256270D01*
X23191555Y-15276295D02*
X23221555Y-15306295D01*
X23221555Y-15276295D02*
X23191555Y-15306295D01*
X23464444Y-10696389D02*
X23494444Y-10726389D01*
X23494444Y-10696389D02*
X23464444Y-10726389D01*
X23512506Y-8904018D02*
X23542506Y-8934018D01*
X23542506Y-8904018D02*
X23512506Y-8934018D01*
X23736649Y-15109643D02*
X23766649Y-15139643D01*
X23766649Y-15109643D02*
X23736649Y-15139643D01*
X23961476Y-12322107D02*
X23991476Y-12352107D01*
X23991476Y-12322107D02*
X23961476Y-12352107D01*
X24009538Y-10529736D02*
X24039538Y-10559736D01*
X24039538Y-10529736D02*
X24009538Y-10559736D01*
X24506570Y-12155454D02*
X24536570Y-12185454D01*
X24536570Y-12155454D02*
X24506570Y-12185454D01*
X24739317Y-9051791D02*
X24769317Y-9081791D01*
X24769317Y-9051791D02*
X24739317Y-9081791D01*
X25236348Y-10677509D02*
X25266348Y-10707509D01*
X25266348Y-10677509D02*
X25236348Y-10707509D01*
X25284411Y-8885139D02*
X25314411Y-8915139D01*
X25314411Y-8885139D02*
X25284411Y-8915139D01*
X25733380Y-12303227D02*
X25763380Y-12333227D01*
X25763380Y-12303227D02*
X25733380Y-12333227D01*
X25781443Y-10510857D02*
X25811443Y-10540857D01*
X25811443Y-10510857D02*
X25781443Y-10540857D01*
X26278475Y-12136575D02*
X26308475Y-12166575D01*
X26308475Y-12136575D02*
X26278475Y-12166575D01*
X27089667Y-9625030D02*
X27119667Y-9655030D01*
X27119667Y-9625030D02*
X27089667Y-9655030D01*
X27443117Y-11287882D02*
X27473117Y-11317882D01*
X27473117Y-11287882D02*
X27443117Y-11317882D01*
X27647211Y-9506521D02*
X27677211Y-9536521D01*
X27677211Y-9506521D02*
X27647211Y-9536521D01*
X27796567Y-12950733D02*
X27826567Y-12980733D01*
X27826567Y-12950733D02*
X27796567Y-12980733D01*
X28000661Y-11169371D02*
X28030661Y-11199371D01*
X28030661Y-11169371D02*
X28000661Y-11199371D01*
X28354110Y-12832223D02*
X28384110Y-12862223D01*
X28384110Y-12832223D02*
X28354110Y-12862223D01*
X28752517Y-9271581D02*
X28782517Y-9301581D01*
X28782517Y-9271581D02*
X28752517Y-9301581D01*
X29105968Y-10934431D02*
X29135968Y-10964431D01*
X29135968Y-10934431D02*
X29105968Y-10964431D01*
X29310063Y-9153072D02*
X29340063Y-9183072D01*
X29340063Y-9153072D02*
X29310063Y-9183072D01*
X29459418Y-12597283D02*
X29489418Y-12627283D01*
X29489418Y-12597283D02*
X29459418Y-12627283D01*
X29663512Y-10815922D02*
X29693512Y-10845922D01*
X29693512Y-10815922D02*
X29663512Y-10845922D01*
X30016963Y-12478773D02*
X30046963Y-12508773D01*
X30046963Y-12478773D02*
X30016963Y-12508773D01*
X16534999Y-11867500D02*
G75*
G02*
X16459999Y-11867500I-37500J0D01*
G01*
X16459999Y-11867500D02*
G75*
G02*
X16534999Y-11867500I37500J0D01*
G01*
X16734999Y-11867501D02*
G75*
G02*
X16659999Y-11867501I-37500J0D01*
G01*
X16659999Y-11867501D02*
G75*
G02*
X16734999Y-11867501I37500J0D01*
G01*
X5774906Y-12995149D02*
X5774906Y-13095149D01*
X5724906Y-13045149D02*
X5824906Y-13045149D01*
X6068350Y-13057523D02*
X6068350Y-13157523D01*
X6018350Y-13107523D02*
X6118350Y-13107523D01*
X6128355Y-11332298D02*
X6128355Y-11432298D01*
X6078355Y-11382298D02*
X6178355Y-11382298D01*
X6421799Y-11394672D02*
X6421799Y-11494672D01*
X6371799Y-11444672D02*
X6471799Y-11444672D01*
X6481805Y-9669448D02*
X6481805Y-9769448D01*
X6431805Y-9719448D02*
X6531805Y-9719448D01*
X6775249Y-9731822D02*
X6775249Y-9831822D01*
X6725249Y-9781822D02*
X6825249Y-9781822D01*
X7437757Y-13348599D02*
X7437757Y-13448599D01*
X7387757Y-13398599D02*
X7487757Y-13398599D01*
X7731201Y-13410973D02*
X7731201Y-13510973D01*
X7681201Y-13460973D02*
X7781201Y-13460973D01*
X7791208Y-11685749D02*
X7791208Y-11785749D01*
X7741208Y-11735749D02*
X7841208Y-11735749D01*
X8084652Y-11748123D02*
X8084652Y-11848123D01*
X8034652Y-11798123D02*
X8134652Y-11798123D01*
X8144657Y-10022897D02*
X8144657Y-10122897D01*
X8094657Y-10072897D02*
X8194657Y-10072897D01*
X8438101Y-10085271D02*
X8438101Y-10185271D01*
X8388101Y-10135271D02*
X8488101Y-10135271D01*
X9465259Y-12652670D02*
X9465259Y-12752670D01*
X9415259Y-12702670D02*
X9515259Y-12702670D01*
X9752151Y-12740381D02*
X9752151Y-12840381D01*
X9702151Y-12790381D02*
X9802151Y-12790381D01*
X9962291Y-11026950D02*
X9962291Y-11126950D01*
X9912291Y-11076950D02*
X10012291Y-11076950D01*
X10249183Y-11114662D02*
X10249183Y-11214662D01*
X10199183Y-11164662D02*
X10299183Y-11164662D01*
X10459323Y-9401234D02*
X10459323Y-9501234D01*
X10409323Y-9451234D02*
X10509323Y-9451234D01*
X10746215Y-9488945D02*
X10746215Y-9588945D01*
X10696215Y-9538945D02*
X10796215Y-9538945D01*
X11237162Y-12671549D02*
X11237162Y-12771549D01*
X11187162Y-12721549D02*
X11287162Y-12721549D01*
X11524054Y-12759261D02*
X11524054Y-12859261D01*
X11474054Y-12809261D02*
X11574054Y-12809261D01*
X11734195Y-11045830D02*
X11734195Y-11145830D01*
X11684195Y-11095830D02*
X11784195Y-11095830D01*
X12007084Y-15625734D02*
X12007084Y-15725734D01*
X11957084Y-15675734D02*
X12057084Y-15675734D01*
X12021087Y-11133541D02*
X12021087Y-11233541D01*
X11971087Y-11183541D02*
X12071087Y-11183541D01*
X12231227Y-9420112D02*
X12231227Y-9520112D01*
X12181227Y-9470112D02*
X12281227Y-9470112D01*
X12293976Y-15713446D02*
X12293976Y-15813446D01*
X12243976Y-15763446D02*
X12343976Y-15763446D01*
X12518119Y-9507823D02*
X12518119Y-9607823D01*
X12468119Y-9557823D02*
X12568119Y-9557823D01*
X12687457Y-13742362D02*
X12687457Y-13842362D01*
X12637457Y-13792362D02*
X12737457Y-13792362D01*
X12974349Y-13830073D02*
X12974349Y-13930073D01*
X12924349Y-13880073D02*
X13024349Y-13880073D01*
X13184490Y-12116646D02*
X13184490Y-12216646D01*
X13134490Y-12166646D02*
X13234490Y-12166646D01*
X13471382Y-12204357D02*
X13471382Y-12304357D01*
X13421382Y-12254357D02*
X13521382Y-12254357D01*
X13655173Y-16225550D02*
X13655173Y-16325550D01*
X13605173Y-16275550D02*
X13705173Y-16275550D01*
X13681522Y-10490928D02*
X13681522Y-10590928D01*
X13631522Y-10540928D02*
X13731522Y-10540928D01*
X13933329Y-16337931D02*
X13933329Y-16437931D01*
X13883329Y-16387931D02*
X13983329Y-16387931D01*
X13968414Y-10578640D02*
X13968414Y-10678640D01*
X13918414Y-10628640D02*
X14018414Y-10628640D01*
X14254701Y-14430656D02*
X14254701Y-14530656D01*
X14204701Y-14480656D02*
X14304701Y-14480656D01*
X14541593Y-14518367D02*
X14541593Y-14618367D01*
X14491593Y-14568367D02*
X14591593Y-14568367D01*
X14751734Y-12804938D02*
X14751734Y-12904938D01*
X14701734Y-12854938D02*
X14801734Y-12854938D01*
X15038626Y-12892649D02*
X15038626Y-12992649D01*
X14988626Y-12942649D02*
X15088626Y-12942649D01*
X15248765Y-11179220D02*
X15248765Y-11279220D01*
X15198765Y-11229220D02*
X15298765Y-11229220D01*
X15272824Y-17125775D02*
X15272824Y-17225775D01*
X15222824Y-17175775D02*
X15322824Y-17175775D01*
X15512414Y-17306319D02*
X15512414Y-17406319D01*
X15462414Y-17356319D02*
X15562414Y-17356319D01*
X15535657Y-11266931D02*
X15535657Y-11366931D01*
X15485657Y-11316931D02*
X15585657Y-11316931D01*
X16707499Y-11484999D02*
X16707499Y-11584999D01*
X16657499Y-11534999D02*
X16757499Y-11534999D01*
X16707500Y-10835000D02*
X16707500Y-10935000D01*
X16657500Y-10885000D02*
X16757500Y-10885000D01*
X17128499Y-12257499D02*
X17128499Y-12357499D01*
X17078499Y-12307499D02*
X17178499Y-12307499D01*
X17128499Y-12003500D02*
X17128499Y-12103500D01*
X17078499Y-12053500D02*
X17178499Y-12053500D01*
X17128499Y-12511500D02*
X17128499Y-12611500D01*
X17078499Y-12561500D02*
X17178499Y-12561500D01*
X17128499Y-10987499D02*
X17128499Y-11087499D01*
X17078499Y-11037499D02*
X17178499Y-11037499D01*
X17128499Y-12765500D02*
X17128499Y-12865500D01*
X17078499Y-12815500D02*
X17178499Y-12815500D01*
X17128499Y-10733501D02*
X17128499Y-10833501D01*
X17078499Y-10783501D02*
X17178499Y-10783501D01*
X17128499Y-11495500D02*
X17128499Y-11595500D01*
X17078499Y-11545500D02*
X17178499Y-11545500D01*
X17128499Y-13527500D02*
X17128499Y-13627500D01*
X17078499Y-13577500D02*
X17178499Y-13577500D01*
X17128500Y-13273500D02*
X17128500Y-13373500D01*
X17078500Y-13323500D02*
X17178500Y-13323500D01*
X17128500Y-11241500D02*
X17128500Y-11341500D01*
X17078500Y-11291500D02*
X17178500Y-11291500D01*
X17128500Y-11749499D02*
X17128500Y-11849499D01*
X17078500Y-11799499D02*
X17178500Y-11799499D01*
X17128500Y-13019500D02*
X17128500Y-13119500D01*
X17078500Y-13069500D02*
X17178500Y-13069500D01*
X18652499Y-10987500D02*
X18652499Y-11087500D01*
X18602499Y-11037500D02*
X18702499Y-11037500D01*
X18652499Y-12257501D02*
X18652499Y-12357501D01*
X18602499Y-12307501D02*
X18702499Y-12307501D01*
X18652499Y-12765500D02*
X18652499Y-12865500D01*
X18602499Y-12815500D02*
X18702499Y-12815500D01*
X18652499Y-10733500D02*
X18652499Y-10833500D01*
X18602499Y-10783500D02*
X18702499Y-10783500D01*
X18652499Y-12511500D02*
X18652499Y-12611500D01*
X18602499Y-12561500D02*
X18702499Y-12561500D01*
X18652499Y-13273499D02*
X18652499Y-13373499D01*
X18602499Y-13323499D02*
X18702499Y-13323499D01*
X18652499Y-11241501D02*
X18652499Y-11341501D01*
X18602499Y-11291501D02*
X18702499Y-11291501D01*
X18652499Y-13019501D02*
X18652499Y-13119501D01*
X18602499Y-13069501D02*
X18702499Y-13069501D01*
X18652499Y-13527501D02*
X18652499Y-13627501D01*
X18602499Y-13577501D02*
X18702499Y-13577501D01*
X18652500Y-11495500D02*
X18652500Y-11595500D01*
X18602500Y-11545500D02*
X18702500Y-11545500D01*
X18652500Y-12003500D02*
X18652500Y-12103500D01*
X18602500Y-12053500D02*
X18702500Y-12053500D01*
X18652500Y-11749501D02*
X18652500Y-11849501D01*
X18602500Y-11799501D02*
X18702500Y-11799501D01*
X20250395Y-11266932D02*
X20250395Y-11366932D01*
X20200395Y-11316932D02*
X20300395Y-11316932D01*
X20273636Y-17306320D02*
X20273636Y-17406320D01*
X20223636Y-17356320D02*
X20323636Y-17356320D01*
X20513227Y-17125775D02*
X20513227Y-17225775D01*
X20463227Y-17175775D02*
X20563227Y-17175775D01*
X20537287Y-11179220D02*
X20537287Y-11279220D01*
X20487287Y-11229220D02*
X20587287Y-11229220D01*
X20747426Y-12892649D02*
X20747426Y-12992649D01*
X20697426Y-12942649D02*
X20797426Y-12942649D01*
X21034317Y-12804937D02*
X21034317Y-12904937D01*
X20984317Y-12854937D02*
X21084317Y-12854937D01*
X21244458Y-14518368D02*
X21244458Y-14618368D01*
X21194458Y-14568368D02*
X21294458Y-14568368D01*
X21531349Y-14430657D02*
X21531349Y-14530657D01*
X21481349Y-14480657D02*
X21581349Y-14480657D01*
X21817638Y-10578638D02*
X21817638Y-10678638D01*
X21767638Y-10628638D02*
X21867638Y-10628638D01*
X21852723Y-16337931D02*
X21852723Y-16437931D01*
X21802723Y-16387931D02*
X21902723Y-16387931D01*
X22104529Y-10490927D02*
X22104529Y-10590927D01*
X22054529Y-10540927D02*
X22154529Y-10540927D01*
X22130878Y-16225549D02*
X22130878Y-16325549D01*
X22080878Y-16275549D02*
X22180878Y-16275549D01*
X22314671Y-12204357D02*
X22314671Y-12304357D01*
X22264671Y-12254357D02*
X22364671Y-12254357D01*
X22601562Y-12116645D02*
X22601562Y-12216645D01*
X22551562Y-12166645D02*
X22651562Y-12166645D01*
X22811702Y-13830074D02*
X22811702Y-13930074D01*
X22761702Y-13880074D02*
X22861702Y-13880074D01*
X23098593Y-13742363D02*
X23098593Y-13842363D01*
X23048593Y-13792363D02*
X23148593Y-13792363D01*
X23267933Y-9507824D02*
X23267933Y-9607824D01*
X23217933Y-9557824D02*
X23317933Y-9557824D01*
X23492076Y-15713446D02*
X23492076Y-15813446D01*
X23442076Y-15763446D02*
X23542076Y-15763446D01*
X23554824Y-9420112D02*
X23554824Y-9520112D01*
X23504824Y-9470112D02*
X23604824Y-9470112D01*
X23764965Y-11133542D02*
X23764965Y-11233542D01*
X23714965Y-11183542D02*
X23814965Y-11183542D01*
X23778967Y-15625734D02*
X23778967Y-15725734D01*
X23728967Y-15675734D02*
X23828967Y-15675734D01*
X24051856Y-11045830D02*
X24051856Y-11145830D01*
X24001856Y-11095830D02*
X24101856Y-11095830D01*
X24261997Y-12759259D02*
X24261997Y-12859259D01*
X24211997Y-12809259D02*
X24311997Y-12809259D01*
X24548888Y-12671548D02*
X24548888Y-12771548D01*
X24498888Y-12721548D02*
X24598888Y-12721548D01*
X25039837Y-9488944D02*
X25039837Y-9588944D01*
X24989837Y-9538944D02*
X25089837Y-9538944D01*
X25326728Y-9401232D02*
X25326728Y-9501232D01*
X25276728Y-9451232D02*
X25376728Y-9451232D01*
X25536869Y-11114661D02*
X25536869Y-11214661D01*
X25486869Y-11164661D02*
X25586869Y-11164661D01*
X25823760Y-11026950D02*
X25823760Y-11126950D01*
X25773760Y-11076950D02*
X25873760Y-11076950D01*
X26033900Y-12740381D02*
X26033900Y-12840381D01*
X25983900Y-12790381D02*
X26083900Y-12790381D01*
X26320791Y-12652669D02*
X26320791Y-12752669D01*
X26270791Y-12702669D02*
X26370791Y-12702669D01*
X27347951Y-10085272D02*
X27347951Y-10185272D01*
X27297951Y-10135272D02*
X27397951Y-10135272D01*
X27641395Y-10022898D02*
X27641395Y-10122898D01*
X27591395Y-10072898D02*
X27691395Y-10072898D01*
X27701400Y-11748123D02*
X27701400Y-11848123D01*
X27651400Y-11798123D02*
X27751400Y-11798123D01*
X27994845Y-11685749D02*
X27994845Y-11785749D01*
X27944845Y-11735749D02*
X28044845Y-11735749D01*
X28054849Y-13410972D02*
X28054849Y-13510972D01*
X28004849Y-13460972D02*
X28104849Y-13460972D01*
X28348293Y-13348599D02*
X28348293Y-13448599D01*
X28298293Y-13398599D02*
X28398293Y-13398599D01*
X29010801Y-9731822D02*
X29010801Y-9831822D01*
X28960801Y-9781822D02*
X29060801Y-9781822D01*
X29304246Y-9669449D02*
X29304246Y-9769449D01*
X29254246Y-9719449D02*
X29354246Y-9719449D01*
X29364250Y-11394672D02*
X29364250Y-11494672D01*
X29314250Y-11444672D02*
X29414250Y-11444672D01*
X29657694Y-11332299D02*
X29657694Y-11432299D01*
X29607694Y-11382299D02*
X29707694Y-11382299D01*
X29717700Y-13057522D02*
X29717700Y-13157522D01*
X29667700Y-13107522D02*
X29767700Y-13107522D01*
X30011145Y-12995149D02*
X30011145Y-13095149D01*
X29961145Y-13045149D02*
X30061145Y-13045149D01*
D13*
X5091942Y-18733913D02*
X5091942Y-18533913D01*
X5091942Y-18533913D02*
X5139561Y-18533913D01*
X5139561Y-18533913D02*
X5168132Y-18543437D01*
X5168132Y-18543437D02*
X5187180Y-18562485D01*
X5187180Y-18562485D02*
X5196704Y-18581532D01*
X5196704Y-18581532D02*
X5206227Y-18619628D01*
X5206227Y-18619628D02*
X5206227Y-18648199D01*
X5206227Y-18648199D02*
X5196704Y-18686294D01*
X5196704Y-18686294D02*
X5187180Y-18705342D01*
X5187180Y-18705342D02*
X5168132Y-18724390D01*
X5168132Y-18724390D02*
X5139561Y-18733913D01*
X5139561Y-18733913D02*
X5091942Y-18733913D01*
X5291942Y-18733913D02*
X5291942Y-18600580D01*
X5291942Y-18638675D02*
X5301465Y-18619628D01*
X5301465Y-18619628D02*
X5310989Y-18610104D01*
X5310989Y-18610104D02*
X5330037Y-18600580D01*
X5330037Y-18600580D02*
X5349085Y-18600580D01*
X5415751Y-18733913D02*
X5415751Y-18600580D01*
X5415751Y-18533913D02*
X5406227Y-18543437D01*
X5406227Y-18543437D02*
X5415751Y-18552961D01*
X5415751Y-18552961D02*
X5425275Y-18543437D01*
X5425275Y-18543437D02*
X5415751Y-18533913D01*
X5415751Y-18533913D02*
X5415751Y-18552961D01*
X5539561Y-18733913D02*
X5520513Y-18724390D01*
X5520513Y-18724390D02*
X5510989Y-18705342D01*
X5510989Y-18705342D02*
X5510989Y-18533913D01*
X5644322Y-18733913D02*
X5625275Y-18724390D01*
X5625275Y-18724390D02*
X5615751Y-18705342D01*
X5615751Y-18705342D02*
X5615751Y-18533913D01*
X5872894Y-18733913D02*
X5872894Y-18533913D01*
X5872894Y-18533913D02*
X5939561Y-18676770D01*
X5939561Y-18676770D02*
X6006227Y-18533913D01*
X6006227Y-18533913D02*
X6006227Y-18733913D01*
X6187180Y-18733913D02*
X6187180Y-18629151D01*
X6187180Y-18629151D02*
X6177656Y-18610104D01*
X6177656Y-18610104D02*
X6158608Y-18600580D01*
X6158608Y-18600580D02*
X6120513Y-18600580D01*
X6120513Y-18600580D02*
X6101465Y-18610104D01*
X6187180Y-18724390D02*
X6168132Y-18733913D01*
X6168132Y-18733913D02*
X6120513Y-18733913D01*
X6120513Y-18733913D02*
X6101465Y-18724390D01*
X6101465Y-18724390D02*
X6091942Y-18705342D01*
X6091942Y-18705342D02*
X6091942Y-18686294D01*
X6091942Y-18686294D02*
X6101465Y-18667247D01*
X6101465Y-18667247D02*
X6120513Y-18657723D01*
X6120513Y-18657723D02*
X6168132Y-18657723D01*
X6168132Y-18657723D02*
X6187180Y-18648199D01*
X6282418Y-18600580D02*
X6282418Y-18800580D01*
X6282418Y-18610104D02*
X6301465Y-18600580D01*
X6301465Y-18600580D02*
X6339561Y-18600580D01*
X6339561Y-18600580D02*
X6358608Y-18610104D01*
X6358608Y-18610104D02*
X6368132Y-18619628D01*
X6368132Y-18619628D02*
X6377656Y-18638675D01*
X6377656Y-18638675D02*
X6377656Y-18695818D01*
X6377656Y-18695818D02*
X6368132Y-18714866D01*
X6368132Y-18714866D02*
X6358608Y-18724390D01*
X6358608Y-18724390D02*
X6339561Y-18733913D01*
X6339561Y-18733913D02*
X6301465Y-18733913D01*
X6301465Y-18733913D02*
X6282418Y-18724390D01*
X6463370Y-18714866D02*
X6472894Y-18724390D01*
X6472894Y-18724390D02*
X6463370Y-18733913D01*
X6463370Y-18733913D02*
X6453846Y-18724390D01*
X6453846Y-18724390D02*
X6463370Y-18714866D01*
X6463370Y-18714866D02*
X6463370Y-18733913D01*
X6463370Y-18610104D02*
X6472894Y-18619628D01*
X6472894Y-18619628D02*
X6463370Y-18629151D01*
X6463370Y-18629151D02*
X6453846Y-18619628D01*
X6453846Y-18619628D02*
X6463370Y-18610104D01*
X6463370Y-18610104D02*
X6463370Y-18629151D01*
D12*
X4801165Y-19047430D02*
X4831165Y-19077430D01*
X4831165Y-19047430D02*
X4801165Y-19077430D01*
D13*
X5130037Y-18953913D02*
X5149085Y-18953913D01*
X5149085Y-18953913D02*
X5168132Y-18963437D01*
X5168132Y-18963437D02*
X5177656Y-18972961D01*
X5177656Y-18972961D02*
X5187180Y-18992009D01*
X5187180Y-18992009D02*
X5196704Y-19030104D01*
X5196704Y-19030104D02*
X5196704Y-19077723D01*
X5196704Y-19077723D02*
X5187180Y-19115818D01*
X5187180Y-19115818D02*
X5177656Y-19134866D01*
X5177656Y-19134866D02*
X5168132Y-19144390D01*
X5168132Y-19144390D02*
X5149085Y-19153913D01*
X5149085Y-19153913D02*
X5130037Y-19153913D01*
X5130037Y-19153913D02*
X5110989Y-19144390D01*
X5110989Y-19144390D02*
X5101465Y-19134866D01*
X5101465Y-19134866D02*
X5091942Y-19115818D01*
X5091942Y-19115818D02*
X5082418Y-19077723D01*
X5082418Y-19077723D02*
X5082418Y-19030104D01*
X5082418Y-19030104D02*
X5091942Y-18992009D01*
X5091942Y-18992009D02*
X5101465Y-18972961D01*
X5101465Y-18972961D02*
X5110989Y-18963437D01*
X5110989Y-18963437D02*
X5130037Y-18953913D01*
X5282418Y-19134866D02*
X5291942Y-19144390D01*
X5291942Y-19144390D02*
X5282418Y-19153913D01*
X5282418Y-19153913D02*
X5272894Y-19144390D01*
X5272894Y-19144390D02*
X5282418Y-19134866D01*
X5282418Y-19134866D02*
X5282418Y-19153913D01*
X5358608Y-18953913D02*
X5482418Y-18953913D01*
X5482418Y-18953913D02*
X5415751Y-19030104D01*
X5415751Y-19030104D02*
X5444323Y-19030104D01*
X5444323Y-19030104D02*
X5463370Y-19039628D01*
X5463370Y-19039628D02*
X5472894Y-19049151D01*
X5472894Y-19049151D02*
X5482418Y-19068199D01*
X5482418Y-19068199D02*
X5482418Y-19115818D01*
X5482418Y-19115818D02*
X5472894Y-19134866D01*
X5472894Y-19134866D02*
X5463370Y-19144390D01*
X5463370Y-19144390D02*
X5444323Y-19153913D01*
X5444323Y-19153913D02*
X5387180Y-19153913D01*
X5387180Y-19153913D02*
X5368132Y-19144390D01*
X5368132Y-19144390D02*
X5358608Y-19134866D01*
X5606227Y-18953913D02*
X5625275Y-18953913D01*
X5625275Y-18953913D02*
X5644323Y-18963437D01*
X5644323Y-18963437D02*
X5653846Y-18972961D01*
X5653846Y-18972961D02*
X5663370Y-18992009D01*
X5663370Y-18992009D02*
X5672894Y-19030104D01*
X5672894Y-19030104D02*
X5672894Y-19077723D01*
X5672894Y-19077723D02*
X5663370Y-19115818D01*
X5663370Y-19115818D02*
X5653846Y-19134866D01*
X5653846Y-19134866D02*
X5644323Y-19144390D01*
X5644323Y-19144390D02*
X5625275Y-19153913D01*
X5625275Y-19153913D02*
X5606227Y-19153913D01*
X5606227Y-19153913D02*
X5587180Y-19144390D01*
X5587180Y-19144390D02*
X5577656Y-19134866D01*
X5577656Y-19134866D02*
X5568132Y-19115818D01*
X5568132Y-19115818D02*
X5558608Y-19077723D01*
X5558608Y-19077723D02*
X5558608Y-19030104D01*
X5558608Y-19030104D02*
X5568132Y-18992009D01*
X5568132Y-18992009D02*
X5577656Y-18972961D01*
X5577656Y-18972961D02*
X5587180Y-18963437D01*
X5587180Y-18963437D02*
X5606227Y-18953913D01*
X5796703Y-18953913D02*
X5815751Y-18953913D01*
X5815751Y-18953913D02*
X5834799Y-18963437D01*
X5834799Y-18963437D02*
X5844323Y-18972961D01*
X5844323Y-18972961D02*
X5853846Y-18992009D01*
X5853846Y-18992009D02*
X5863370Y-19030104D01*
X5863370Y-19030104D02*
X5863370Y-19077723D01*
X5863370Y-19077723D02*
X5853846Y-19115818D01*
X5853846Y-19115818D02*
X5844323Y-19134866D01*
X5844323Y-19134866D02*
X5834799Y-19144390D01*
X5834799Y-19144390D02*
X5815751Y-19153913D01*
X5815751Y-19153913D02*
X5796703Y-19153913D01*
X5796703Y-19153913D02*
X5777656Y-19144390D01*
X5777656Y-19144390D02*
X5768132Y-19134866D01*
X5768132Y-19134866D02*
X5758608Y-19115818D01*
X5758608Y-19115818D02*
X5749084Y-19077723D01*
X5749084Y-19077723D02*
X5749084Y-19030104D01*
X5749084Y-19030104D02*
X5758608Y-18992009D01*
X5758608Y-18992009D02*
X5768132Y-18972961D01*
X5768132Y-18972961D02*
X5777656Y-18963437D01*
X5777656Y-18963437D02*
X5796703Y-18953913D01*
X5949084Y-19153913D02*
X5949084Y-19020580D01*
X5949084Y-19039628D02*
X5958608Y-19030104D01*
X5958608Y-19030104D02*
X5977656Y-19020580D01*
X5977656Y-19020580D02*
X6006227Y-19020580D01*
X6006227Y-19020580D02*
X6025275Y-19030104D01*
X6025275Y-19030104D02*
X6034799Y-19049151D01*
X6034799Y-19049151D02*
X6034799Y-19153913D01*
X6034799Y-19049151D02*
X6044323Y-19030104D01*
X6044323Y-19030104D02*
X6063370Y-19020580D01*
X6063370Y-19020580D02*
X6091942Y-19020580D01*
X6091942Y-19020580D02*
X6110989Y-19030104D01*
X6110989Y-19030104D02*
X6120513Y-19049151D01*
X6120513Y-19049151D02*
X6120513Y-19153913D01*
X6215751Y-19153913D02*
X6215751Y-19020580D01*
X6215751Y-19039628D02*
X6225275Y-19030104D01*
X6225275Y-19030104D02*
X6244323Y-19020580D01*
X6244323Y-19020580D02*
X6272894Y-19020580D01*
X6272894Y-19020580D02*
X6291942Y-19030104D01*
X6291942Y-19030104D02*
X6301465Y-19049151D01*
X6301465Y-19049151D02*
X6301465Y-19153913D01*
X6301465Y-19049151D02*
X6310989Y-19030104D01*
X6310989Y-19030104D02*
X6330037Y-19020580D01*
X6330037Y-19020580D02*
X6358608Y-19020580D01*
X6358608Y-19020580D02*
X6377656Y-19030104D01*
X6377656Y-19030104D02*
X6387180Y-19049151D01*
X6387180Y-19049151D02*
X6387180Y-19153913D01*
X6777656Y-18944390D02*
X6606227Y-19201532D01*
X7034799Y-18953913D02*
X7053847Y-18953913D01*
X7053847Y-18953913D02*
X7072894Y-18963437D01*
X7072894Y-18963437D02*
X7082418Y-18972961D01*
X7082418Y-18972961D02*
X7091942Y-18992009D01*
X7091942Y-18992009D02*
X7101466Y-19030104D01*
X7101466Y-19030104D02*
X7101466Y-19077723D01*
X7101466Y-19077723D02*
X7091942Y-19115818D01*
X7091942Y-19115818D02*
X7082418Y-19134866D01*
X7082418Y-19134866D02*
X7072894Y-19144390D01*
X7072894Y-19144390D02*
X7053847Y-19153913D01*
X7053847Y-19153913D02*
X7034799Y-19153913D01*
X7034799Y-19153913D02*
X7015751Y-19144390D01*
X7015751Y-19144390D02*
X7006227Y-19134866D01*
X7006227Y-19134866D02*
X6996704Y-19115818D01*
X6996704Y-19115818D02*
X6987180Y-19077723D01*
X6987180Y-19077723D02*
X6987180Y-19030104D01*
X6987180Y-19030104D02*
X6996704Y-18992009D01*
X6996704Y-18992009D02*
X7006227Y-18972961D01*
X7006227Y-18972961D02*
X7015751Y-18963437D01*
X7015751Y-18963437D02*
X7034799Y-18953913D01*
X7187180Y-19134866D02*
X7196704Y-19144390D01*
X7196704Y-19144390D02*
X7187180Y-19153913D01*
X7187180Y-19153913D02*
X7177656Y-19144390D01*
X7177656Y-19144390D02*
X7187180Y-19134866D01*
X7187180Y-19134866D02*
X7187180Y-19153913D01*
X7320513Y-18953913D02*
X7339561Y-18953913D01*
X7339561Y-18953913D02*
X7358608Y-18963437D01*
X7358608Y-18963437D02*
X7368132Y-18972961D01*
X7368132Y-18972961D02*
X7377656Y-18992009D01*
X7377656Y-18992009D02*
X7387180Y-19030104D01*
X7387180Y-19030104D02*
X7387180Y-19077723D01*
X7387180Y-19077723D02*
X7377656Y-19115818D01*
X7377656Y-19115818D02*
X7368132Y-19134866D01*
X7368132Y-19134866D02*
X7358608Y-19144390D01*
X7358608Y-19144390D02*
X7339561Y-19153913D01*
X7339561Y-19153913D02*
X7320513Y-19153913D01*
X7320513Y-19153913D02*
X7301466Y-19144390D01*
X7301466Y-19144390D02*
X7291942Y-19134866D01*
X7291942Y-19134866D02*
X7282418Y-19115818D01*
X7282418Y-19115818D02*
X7272894Y-19077723D01*
X7272894Y-19077723D02*
X7272894Y-19030104D01*
X7272894Y-19030104D02*
X7282418Y-18992009D01*
X7282418Y-18992009D02*
X7291942Y-18972961D01*
X7291942Y-18972961D02*
X7301466Y-18963437D01*
X7301466Y-18963437D02*
X7320513Y-18953913D01*
X7577656Y-19153913D02*
X7463370Y-19153913D01*
X7520513Y-19153913D02*
X7520513Y-18953913D01*
X7520513Y-18953913D02*
X7501466Y-18982485D01*
X7501466Y-18982485D02*
X7482418Y-19001532D01*
X7482418Y-19001532D02*
X7463370Y-19011056D01*
X7768132Y-19153913D02*
X7653847Y-19153913D01*
X7710989Y-19153913D02*
X7710989Y-18953913D01*
X7710989Y-18953913D02*
X7691942Y-18982485D01*
X7691942Y-18982485D02*
X7672894Y-19001532D01*
X7672894Y-19001532D02*
X7653847Y-19011056D01*
X7882418Y-19039628D02*
X7863370Y-19030104D01*
X7863370Y-19030104D02*
X7853847Y-19020580D01*
X7853847Y-19020580D02*
X7844323Y-19001532D01*
X7844323Y-19001532D02*
X7844323Y-18992009D01*
X7844323Y-18992009D02*
X7853847Y-18972961D01*
X7853847Y-18972961D02*
X7863370Y-18963437D01*
X7863370Y-18963437D02*
X7882418Y-18953913D01*
X7882418Y-18953913D02*
X7920513Y-18953913D01*
X7920513Y-18953913D02*
X7939561Y-18963437D01*
X7939561Y-18963437D02*
X7949085Y-18972961D01*
X7949085Y-18972961D02*
X7958608Y-18992009D01*
X7958608Y-18992009D02*
X7958608Y-19001532D01*
X7958608Y-19001532D02*
X7949085Y-19020580D01*
X7949085Y-19020580D02*
X7939561Y-19030104D01*
X7939561Y-19030104D02*
X7920513Y-19039628D01*
X7920513Y-19039628D02*
X7882418Y-19039628D01*
X7882418Y-19039628D02*
X7863370Y-19049151D01*
X7863370Y-19049151D02*
X7853847Y-19058675D01*
X7853847Y-19058675D02*
X7844323Y-19077723D01*
X7844323Y-19077723D02*
X7844323Y-19115818D01*
X7844323Y-19115818D02*
X7853847Y-19134866D01*
X7853847Y-19134866D02*
X7863370Y-19144390D01*
X7863370Y-19144390D02*
X7882418Y-19153913D01*
X7882418Y-19153913D02*
X7920513Y-19153913D01*
X7920513Y-19153913D02*
X7939561Y-19144390D01*
X7939561Y-19144390D02*
X7949085Y-19134866D01*
X7949085Y-19134866D02*
X7958608Y-19115818D01*
X7958608Y-19115818D02*
X7958608Y-19077723D01*
X7958608Y-19077723D02*
X7949085Y-19058675D01*
X7949085Y-19058675D02*
X7939561Y-19049151D01*
X7939561Y-19049151D02*
X7920513Y-19039628D01*
X8034799Y-18953913D02*
X8034799Y-18992009D01*
X8110989Y-18953913D02*
X8110989Y-18992009D01*
X8406228Y-19230104D02*
X8396704Y-19220580D01*
X8396704Y-19220580D02*
X8377656Y-19192009D01*
X8377656Y-19192009D02*
X8368132Y-19172961D01*
X8368132Y-19172961D02*
X8358609Y-19144390D01*
X8358609Y-19144390D02*
X8349085Y-19096770D01*
X8349085Y-19096770D02*
X8349085Y-19058675D01*
X8349085Y-19058675D02*
X8358609Y-19011056D01*
X8358609Y-19011056D02*
X8368132Y-18982485D01*
X8368132Y-18982485D02*
X8377656Y-18963437D01*
X8377656Y-18963437D02*
X8396704Y-18934866D01*
X8396704Y-18934866D02*
X8406228Y-18925342D01*
X8491942Y-19153913D02*
X8530037Y-19153913D01*
X8530037Y-19153913D02*
X8549085Y-19144390D01*
X8549085Y-19144390D02*
X8558609Y-19134866D01*
X8558609Y-19134866D02*
X8577656Y-19106294D01*
X8577656Y-19106294D02*
X8587180Y-19068199D01*
X8587180Y-19068199D02*
X8587180Y-18992009D01*
X8587180Y-18992009D02*
X8577656Y-18972961D01*
X8577656Y-18972961D02*
X8568132Y-18963437D01*
X8568132Y-18963437D02*
X8549085Y-18953913D01*
X8549085Y-18953913D02*
X8510990Y-18953913D01*
X8510990Y-18953913D02*
X8491942Y-18963437D01*
X8491942Y-18963437D02*
X8482418Y-18972961D01*
X8482418Y-18972961D02*
X8472894Y-18992009D01*
X8472894Y-18992009D02*
X8472894Y-19039628D01*
X8472894Y-19039628D02*
X8482418Y-19058675D01*
X8482418Y-19058675D02*
X8491942Y-19068199D01*
X8491942Y-19068199D02*
X8510990Y-19077723D01*
X8510990Y-19077723D02*
X8549085Y-19077723D01*
X8549085Y-19077723D02*
X8568132Y-19068199D01*
X8568132Y-19068199D02*
X8577656Y-19058675D01*
X8577656Y-19058675D02*
X8587180Y-19039628D01*
X8768132Y-18953913D02*
X8672894Y-18953913D01*
X8672894Y-18953913D02*
X8663371Y-19049151D01*
X8663371Y-19049151D02*
X8672894Y-19039628D01*
X8672894Y-19039628D02*
X8691942Y-19030104D01*
X8691942Y-19030104D02*
X8739561Y-19030104D01*
X8739561Y-19030104D02*
X8758609Y-19039628D01*
X8758609Y-19039628D02*
X8768132Y-19049151D01*
X8768132Y-19049151D02*
X8777656Y-19068199D01*
X8777656Y-19068199D02*
X8777656Y-19115818D01*
X8777656Y-19115818D02*
X8768132Y-19134866D01*
X8768132Y-19134866D02*
X8758609Y-19144390D01*
X8758609Y-19144390D02*
X8739561Y-19153913D01*
X8739561Y-19153913D02*
X8691942Y-19153913D01*
X8691942Y-19153913D02*
X8672894Y-19144390D01*
X8672894Y-19144390D02*
X8663371Y-19134866D01*
X9015752Y-19153913D02*
X9015752Y-18953913D01*
X9101466Y-19153913D02*
X9101466Y-19049151D01*
X9101466Y-19049151D02*
X9091942Y-19030104D01*
X9091942Y-19030104D02*
X9072894Y-19020580D01*
X9072894Y-19020580D02*
X9044323Y-19020580D01*
X9044323Y-19020580D02*
X9025275Y-19030104D01*
X9025275Y-19030104D02*
X9015752Y-19039628D01*
X9225275Y-19153913D02*
X9206228Y-19144390D01*
X9206228Y-19144390D02*
X9196704Y-19134866D01*
X9196704Y-19134866D02*
X9187180Y-19115818D01*
X9187180Y-19115818D02*
X9187180Y-19058675D01*
X9187180Y-19058675D02*
X9196704Y-19039628D01*
X9196704Y-19039628D02*
X9206228Y-19030104D01*
X9206228Y-19030104D02*
X9225275Y-19020580D01*
X9225275Y-19020580D02*
X9253847Y-19020580D01*
X9253847Y-19020580D02*
X9272894Y-19030104D01*
X9272894Y-19030104D02*
X9282418Y-19039628D01*
X9282418Y-19039628D02*
X9291942Y-19058675D01*
X9291942Y-19058675D02*
X9291942Y-19115818D01*
X9291942Y-19115818D02*
X9282418Y-19134866D01*
X9282418Y-19134866D02*
X9272894Y-19144390D01*
X9272894Y-19144390D02*
X9253847Y-19153913D01*
X9253847Y-19153913D02*
X9225275Y-19153913D01*
X9406228Y-19153913D02*
X9387180Y-19144390D01*
X9387180Y-19144390D02*
X9377656Y-19125342D01*
X9377656Y-19125342D02*
X9377656Y-18953913D01*
X9558609Y-19144390D02*
X9539561Y-19153913D01*
X9539561Y-19153913D02*
X9501466Y-19153913D01*
X9501466Y-19153913D02*
X9482418Y-19144390D01*
X9482418Y-19144390D02*
X9472894Y-19125342D01*
X9472894Y-19125342D02*
X9472894Y-19049151D01*
X9472894Y-19049151D02*
X9482418Y-19030104D01*
X9482418Y-19030104D02*
X9501466Y-19020580D01*
X9501466Y-19020580D02*
X9539561Y-19020580D01*
X9539561Y-19020580D02*
X9558609Y-19030104D01*
X9558609Y-19030104D02*
X9568133Y-19049151D01*
X9568133Y-19049151D02*
X9568133Y-19068199D01*
X9568133Y-19068199D02*
X9472894Y-19087247D01*
X9644323Y-19144390D02*
X9663371Y-19153913D01*
X9663371Y-19153913D02*
X9701466Y-19153913D01*
X9701466Y-19153913D02*
X9720514Y-19144390D01*
X9720514Y-19144390D02*
X9730037Y-19125342D01*
X9730037Y-19125342D02*
X9730037Y-19115818D01*
X9730037Y-19115818D02*
X9720514Y-19096770D01*
X9720514Y-19096770D02*
X9701466Y-19087247D01*
X9701466Y-19087247D02*
X9672894Y-19087247D01*
X9672894Y-19087247D02*
X9653847Y-19077723D01*
X9653847Y-19077723D02*
X9644323Y-19058675D01*
X9644323Y-19058675D02*
X9644323Y-19049151D01*
X9644323Y-19049151D02*
X9653847Y-19030104D01*
X9653847Y-19030104D02*
X9672894Y-19020580D01*
X9672894Y-19020580D02*
X9701466Y-19020580D01*
X9701466Y-19020580D02*
X9720514Y-19030104D01*
X9796704Y-19230104D02*
X9806228Y-19220580D01*
X9806228Y-19220580D02*
X9825275Y-19192009D01*
X9825275Y-19192009D02*
X9834799Y-19172961D01*
X9834799Y-19172961D02*
X9844323Y-19144390D01*
X9844323Y-19144390D02*
X9853847Y-19096770D01*
X9853847Y-19096770D02*
X9853847Y-19058675D01*
X9853847Y-19058675D02*
X9844323Y-19011056D01*
X9844323Y-19011056D02*
X9834799Y-18982485D01*
X9834799Y-18982485D02*
X9825275Y-18963437D01*
X9825275Y-18963437D02*
X9806228Y-18934866D01*
X9806228Y-18934866D02*
X9796704Y-18925342D01*
D12*
X4831165Y-19326430D02*
G75*
G02*
X4756165Y-19326430I-37500J0D01*
G01*
X4756165Y-19326430D02*
G75*
G02*
X4831165Y-19326430I37500J0D01*
G01*
D13*
X5130037Y-19217913D02*
X5149085Y-19217913D01*
X5149085Y-19217913D02*
X5168132Y-19227437D01*
X5168132Y-19227437D02*
X5177656Y-19236961D01*
X5177656Y-19236961D02*
X5187180Y-19256009D01*
X5187180Y-19256009D02*
X5196704Y-19294104D01*
X5196704Y-19294104D02*
X5196704Y-19341723D01*
X5196704Y-19341723D02*
X5187180Y-19379818D01*
X5187180Y-19379818D02*
X5177656Y-19398866D01*
X5177656Y-19398866D02*
X5168132Y-19408390D01*
X5168132Y-19408390D02*
X5149085Y-19417913D01*
X5149085Y-19417913D02*
X5130037Y-19417913D01*
X5130037Y-19417913D02*
X5110989Y-19408390D01*
X5110989Y-19408390D02*
X5101465Y-19398866D01*
X5101465Y-19398866D02*
X5091942Y-19379818D01*
X5091942Y-19379818D02*
X5082418Y-19341723D01*
X5082418Y-19341723D02*
X5082418Y-19294104D01*
X5082418Y-19294104D02*
X5091942Y-19256009D01*
X5091942Y-19256009D02*
X5101465Y-19236961D01*
X5101465Y-19236961D02*
X5110989Y-19227437D01*
X5110989Y-19227437D02*
X5130037Y-19217913D01*
X5282418Y-19398866D02*
X5291942Y-19408390D01*
X5291942Y-19408390D02*
X5282418Y-19417913D01*
X5282418Y-19417913D02*
X5272894Y-19408390D01*
X5272894Y-19408390D02*
X5282418Y-19398866D01*
X5282418Y-19398866D02*
X5282418Y-19417913D01*
X5358608Y-19217913D02*
X5491942Y-19217913D01*
X5491942Y-19217913D02*
X5406227Y-19417913D01*
X5663370Y-19217913D02*
X5568132Y-19217913D01*
X5568132Y-19217913D02*
X5558608Y-19313151D01*
X5558608Y-19313151D02*
X5568132Y-19303628D01*
X5568132Y-19303628D02*
X5587180Y-19294104D01*
X5587180Y-19294104D02*
X5634799Y-19294104D01*
X5634799Y-19294104D02*
X5653846Y-19303628D01*
X5653846Y-19303628D02*
X5663370Y-19313151D01*
X5663370Y-19313151D02*
X5672894Y-19332199D01*
X5672894Y-19332199D02*
X5672894Y-19379818D01*
X5672894Y-19379818D02*
X5663370Y-19398866D01*
X5663370Y-19398866D02*
X5653846Y-19408390D01*
X5653846Y-19408390D02*
X5634799Y-19417913D01*
X5634799Y-19417913D02*
X5587180Y-19417913D01*
X5587180Y-19417913D02*
X5568132Y-19408390D01*
X5568132Y-19408390D02*
X5558608Y-19398866D01*
X5796703Y-19217913D02*
X5815751Y-19217913D01*
X5815751Y-19217913D02*
X5834799Y-19227437D01*
X5834799Y-19227437D02*
X5844323Y-19236961D01*
X5844323Y-19236961D02*
X5853846Y-19256009D01*
X5853846Y-19256009D02*
X5863370Y-19294104D01*
X5863370Y-19294104D02*
X5863370Y-19341723D01*
X5863370Y-19341723D02*
X5853846Y-19379818D01*
X5853846Y-19379818D02*
X5844323Y-19398866D01*
X5844323Y-19398866D02*
X5834799Y-19408390D01*
X5834799Y-19408390D02*
X5815751Y-19417913D01*
X5815751Y-19417913D02*
X5796703Y-19417913D01*
X5796703Y-19417913D02*
X5777656Y-19408390D01*
X5777656Y-19408390D02*
X5768132Y-19398866D01*
X5768132Y-19398866D02*
X5758608Y-19379818D01*
X5758608Y-19379818D02*
X5749084Y-19341723D01*
X5749084Y-19341723D02*
X5749084Y-19294104D01*
X5749084Y-19294104D02*
X5758608Y-19256009D01*
X5758608Y-19256009D02*
X5768132Y-19236961D01*
X5768132Y-19236961D02*
X5777656Y-19227437D01*
X5777656Y-19227437D02*
X5796703Y-19217913D01*
X5949084Y-19417913D02*
X5949084Y-19284580D01*
X5949084Y-19303628D02*
X5958608Y-19294104D01*
X5958608Y-19294104D02*
X5977656Y-19284580D01*
X5977656Y-19284580D02*
X6006227Y-19284580D01*
X6006227Y-19284580D02*
X6025275Y-19294104D01*
X6025275Y-19294104D02*
X6034799Y-19313151D01*
X6034799Y-19313151D02*
X6034799Y-19417913D01*
X6034799Y-19313151D02*
X6044323Y-19294104D01*
X6044323Y-19294104D02*
X6063370Y-19284580D01*
X6063370Y-19284580D02*
X6091942Y-19284580D01*
X6091942Y-19284580D02*
X6110989Y-19294104D01*
X6110989Y-19294104D02*
X6120513Y-19313151D01*
X6120513Y-19313151D02*
X6120513Y-19417913D01*
X6215751Y-19417913D02*
X6215751Y-19284580D01*
X6215751Y-19303628D02*
X6225275Y-19294104D01*
X6225275Y-19294104D02*
X6244323Y-19284580D01*
X6244323Y-19284580D02*
X6272894Y-19284580D01*
X6272894Y-19284580D02*
X6291942Y-19294104D01*
X6291942Y-19294104D02*
X6301465Y-19313151D01*
X6301465Y-19313151D02*
X6301465Y-19417913D01*
X6301465Y-19313151D02*
X6310989Y-19294104D01*
X6310989Y-19294104D02*
X6330037Y-19284580D01*
X6330037Y-19284580D02*
X6358608Y-19284580D01*
X6358608Y-19284580D02*
X6377656Y-19294104D01*
X6377656Y-19294104D02*
X6387180Y-19313151D01*
X6387180Y-19313151D02*
X6387180Y-19417913D01*
X6777656Y-19208390D02*
X6606227Y-19465532D01*
X7034799Y-19217913D02*
X7053847Y-19217913D01*
X7053847Y-19217913D02*
X7072894Y-19227437D01*
X7072894Y-19227437D02*
X7082418Y-19236961D01*
X7082418Y-19236961D02*
X7091942Y-19256009D01*
X7091942Y-19256009D02*
X7101466Y-19294104D01*
X7101466Y-19294104D02*
X7101466Y-19341723D01*
X7101466Y-19341723D02*
X7091942Y-19379818D01*
X7091942Y-19379818D02*
X7082418Y-19398866D01*
X7082418Y-19398866D02*
X7072894Y-19408390D01*
X7072894Y-19408390D02*
X7053847Y-19417913D01*
X7053847Y-19417913D02*
X7034799Y-19417913D01*
X7034799Y-19417913D02*
X7015751Y-19408390D01*
X7015751Y-19408390D02*
X7006227Y-19398866D01*
X7006227Y-19398866D02*
X6996704Y-19379818D01*
X6996704Y-19379818D02*
X6987180Y-19341723D01*
X6987180Y-19341723D02*
X6987180Y-19294104D01*
X6987180Y-19294104D02*
X6996704Y-19256009D01*
X6996704Y-19256009D02*
X7006227Y-19236961D01*
X7006227Y-19236961D02*
X7015751Y-19227437D01*
X7015751Y-19227437D02*
X7034799Y-19217913D01*
X7187180Y-19398866D02*
X7196704Y-19408390D01*
X7196704Y-19408390D02*
X7187180Y-19417913D01*
X7187180Y-19417913D02*
X7177656Y-19408390D01*
X7177656Y-19408390D02*
X7187180Y-19398866D01*
X7187180Y-19398866D02*
X7187180Y-19417913D01*
X7320513Y-19217913D02*
X7339561Y-19217913D01*
X7339561Y-19217913D02*
X7358608Y-19227437D01*
X7358608Y-19227437D02*
X7368132Y-19236961D01*
X7368132Y-19236961D02*
X7377656Y-19256009D01*
X7377656Y-19256009D02*
X7387180Y-19294104D01*
X7387180Y-19294104D02*
X7387180Y-19341723D01*
X7387180Y-19341723D02*
X7377656Y-19379818D01*
X7377656Y-19379818D02*
X7368132Y-19398866D01*
X7368132Y-19398866D02*
X7358608Y-19408390D01*
X7358608Y-19408390D02*
X7339561Y-19417913D01*
X7339561Y-19417913D02*
X7320513Y-19417913D01*
X7320513Y-19417913D02*
X7301466Y-19408390D01*
X7301466Y-19408390D02*
X7291942Y-19398866D01*
X7291942Y-19398866D02*
X7282418Y-19379818D01*
X7282418Y-19379818D02*
X7272894Y-19341723D01*
X7272894Y-19341723D02*
X7272894Y-19294104D01*
X7272894Y-19294104D02*
X7282418Y-19256009D01*
X7282418Y-19256009D02*
X7291942Y-19236961D01*
X7291942Y-19236961D02*
X7301466Y-19227437D01*
X7301466Y-19227437D02*
X7320513Y-19217913D01*
X7463370Y-19236961D02*
X7472894Y-19227437D01*
X7472894Y-19227437D02*
X7491942Y-19217913D01*
X7491942Y-19217913D02*
X7539561Y-19217913D01*
X7539561Y-19217913D02*
X7558608Y-19227437D01*
X7558608Y-19227437D02*
X7568132Y-19236961D01*
X7568132Y-19236961D02*
X7577656Y-19256009D01*
X7577656Y-19256009D02*
X7577656Y-19275056D01*
X7577656Y-19275056D02*
X7568132Y-19303628D01*
X7568132Y-19303628D02*
X7453847Y-19417913D01*
X7453847Y-19417913D02*
X7577656Y-19417913D01*
X7672894Y-19417913D02*
X7710989Y-19417913D01*
X7710989Y-19417913D02*
X7730037Y-19408390D01*
X7730037Y-19408390D02*
X7739561Y-19398866D01*
X7739561Y-19398866D02*
X7758608Y-19370294D01*
X7758608Y-19370294D02*
X7768132Y-19332199D01*
X7768132Y-19332199D02*
X7768132Y-19256009D01*
X7768132Y-19256009D02*
X7758608Y-19236961D01*
X7758608Y-19236961D02*
X7749085Y-19227437D01*
X7749085Y-19227437D02*
X7730037Y-19217913D01*
X7730037Y-19217913D02*
X7691942Y-19217913D01*
X7691942Y-19217913D02*
X7672894Y-19227437D01*
X7672894Y-19227437D02*
X7663370Y-19236961D01*
X7663370Y-19236961D02*
X7653847Y-19256009D01*
X7653847Y-19256009D02*
X7653847Y-19303628D01*
X7653847Y-19303628D02*
X7663370Y-19322675D01*
X7663370Y-19322675D02*
X7672894Y-19332199D01*
X7672894Y-19332199D02*
X7691942Y-19341723D01*
X7691942Y-19341723D02*
X7730037Y-19341723D01*
X7730037Y-19341723D02*
X7749085Y-19332199D01*
X7749085Y-19332199D02*
X7758608Y-19322675D01*
X7758608Y-19322675D02*
X7768132Y-19303628D01*
X7949085Y-19217913D02*
X7853847Y-19217913D01*
X7853847Y-19217913D02*
X7844323Y-19313151D01*
X7844323Y-19313151D02*
X7853847Y-19303628D01*
X7853847Y-19303628D02*
X7872894Y-19294104D01*
X7872894Y-19294104D02*
X7920513Y-19294104D01*
X7920513Y-19294104D02*
X7939561Y-19303628D01*
X7939561Y-19303628D02*
X7949085Y-19313151D01*
X7949085Y-19313151D02*
X7958608Y-19332199D01*
X7958608Y-19332199D02*
X7958608Y-19379818D01*
X7958608Y-19379818D02*
X7949085Y-19398866D01*
X7949085Y-19398866D02*
X7939561Y-19408390D01*
X7939561Y-19408390D02*
X7920513Y-19417913D01*
X7920513Y-19417913D02*
X7872894Y-19417913D01*
X7872894Y-19417913D02*
X7853847Y-19408390D01*
X7853847Y-19408390D02*
X7844323Y-19398866D01*
X8034799Y-19217913D02*
X8034799Y-19256009D01*
X8110989Y-19217913D02*
X8110989Y-19256009D01*
X8406228Y-19494104D02*
X8396704Y-19484580D01*
X8396704Y-19484580D02*
X8377656Y-19456009D01*
X8377656Y-19456009D02*
X8368132Y-19436961D01*
X8368132Y-19436961D02*
X8358609Y-19408390D01*
X8358609Y-19408390D02*
X8349085Y-19360770D01*
X8349085Y-19360770D02*
X8349085Y-19322675D01*
X8349085Y-19322675D02*
X8358609Y-19275056D01*
X8358609Y-19275056D02*
X8368132Y-19246485D01*
X8368132Y-19246485D02*
X8377656Y-19227437D01*
X8377656Y-19227437D02*
X8396704Y-19198866D01*
X8396704Y-19198866D02*
X8406228Y-19189342D01*
X8472894Y-19236961D02*
X8482418Y-19227437D01*
X8482418Y-19227437D02*
X8501466Y-19217913D01*
X8501466Y-19217913D02*
X8549085Y-19217913D01*
X8549085Y-19217913D02*
X8568132Y-19227437D01*
X8568132Y-19227437D02*
X8577656Y-19236961D01*
X8577656Y-19236961D02*
X8587180Y-19256009D01*
X8587180Y-19256009D02*
X8587180Y-19275056D01*
X8587180Y-19275056D02*
X8577656Y-19303628D01*
X8577656Y-19303628D02*
X8463371Y-19417913D01*
X8463371Y-19417913D02*
X8587180Y-19417913D01*
X8825275Y-19417913D02*
X8825275Y-19217913D01*
X8910990Y-19417913D02*
X8910990Y-19313151D01*
X8910990Y-19313151D02*
X8901466Y-19294104D01*
X8901466Y-19294104D02*
X8882418Y-19284580D01*
X8882418Y-19284580D02*
X8853847Y-19284580D01*
X8853847Y-19284580D02*
X8834799Y-19294104D01*
X8834799Y-19294104D02*
X8825275Y-19303628D01*
X9034799Y-19417913D02*
X9015752Y-19408390D01*
X9015752Y-19408390D02*
X9006228Y-19398866D01*
X9006228Y-19398866D02*
X8996704Y-19379818D01*
X8996704Y-19379818D02*
X8996704Y-19322675D01*
X8996704Y-19322675D02*
X9006228Y-19303628D01*
X9006228Y-19303628D02*
X9015752Y-19294104D01*
X9015752Y-19294104D02*
X9034799Y-19284580D01*
X9034799Y-19284580D02*
X9063371Y-19284580D01*
X9063371Y-19284580D02*
X9082418Y-19294104D01*
X9082418Y-19294104D02*
X9091942Y-19303628D01*
X9091942Y-19303628D02*
X9101466Y-19322675D01*
X9101466Y-19322675D02*
X9101466Y-19379818D01*
X9101466Y-19379818D02*
X9091942Y-19398866D01*
X9091942Y-19398866D02*
X9082418Y-19408390D01*
X9082418Y-19408390D02*
X9063371Y-19417913D01*
X9063371Y-19417913D02*
X9034799Y-19417913D01*
X9215752Y-19417913D02*
X9196704Y-19408390D01*
X9196704Y-19408390D02*
X9187180Y-19389342D01*
X9187180Y-19389342D02*
X9187180Y-19217913D01*
X9368133Y-19408390D02*
X9349085Y-19417913D01*
X9349085Y-19417913D02*
X9310990Y-19417913D01*
X9310990Y-19417913D02*
X9291942Y-19408390D01*
X9291942Y-19408390D02*
X9282418Y-19389342D01*
X9282418Y-19389342D02*
X9282418Y-19313151D01*
X9282418Y-19313151D02*
X9291942Y-19294104D01*
X9291942Y-19294104D02*
X9310990Y-19284580D01*
X9310990Y-19284580D02*
X9349085Y-19284580D01*
X9349085Y-19284580D02*
X9368133Y-19294104D01*
X9368133Y-19294104D02*
X9377656Y-19313151D01*
X9377656Y-19313151D02*
X9377656Y-19332199D01*
X9377656Y-19332199D02*
X9282418Y-19351247D01*
X9453847Y-19408390D02*
X9472894Y-19417913D01*
X9472894Y-19417913D02*
X9510990Y-19417913D01*
X9510990Y-19417913D02*
X9530037Y-19408390D01*
X9530037Y-19408390D02*
X9539561Y-19389342D01*
X9539561Y-19389342D02*
X9539561Y-19379818D01*
X9539561Y-19379818D02*
X9530037Y-19360770D01*
X9530037Y-19360770D02*
X9510990Y-19351247D01*
X9510990Y-19351247D02*
X9482418Y-19351247D01*
X9482418Y-19351247D02*
X9463371Y-19341723D01*
X9463371Y-19341723D02*
X9453847Y-19322675D01*
X9453847Y-19322675D02*
X9453847Y-19313151D01*
X9453847Y-19313151D02*
X9463371Y-19294104D01*
X9463371Y-19294104D02*
X9482418Y-19284580D01*
X9482418Y-19284580D02*
X9510990Y-19284580D01*
X9510990Y-19284580D02*
X9530037Y-19294104D01*
X9606228Y-19494104D02*
X9615752Y-19484580D01*
X9615752Y-19484580D02*
X9634799Y-19456009D01*
X9634799Y-19456009D02*
X9644323Y-19436961D01*
X9644323Y-19436961D02*
X9653847Y-19408390D01*
X9653847Y-19408390D02*
X9663371Y-19360770D01*
X9663371Y-19360770D02*
X9663371Y-19322675D01*
X9663371Y-19322675D02*
X9653847Y-19275056D01*
X9653847Y-19275056D02*
X9644323Y-19246485D01*
X9644323Y-19246485D02*
X9634799Y-19227437D01*
X9634799Y-19227437D02*
X9615752Y-19198866D01*
X9615752Y-19198866D02*
X9606228Y-19189342D01*
D12*
X4781165Y-19540430D02*
X4781165Y-19640430D01*
X4731165Y-19590430D02*
X4831165Y-19590430D01*
D13*
X5196704Y-19681913D02*
X5082418Y-19681913D01*
X5139561Y-19681913D02*
X5139561Y-19481913D01*
X5139561Y-19481913D02*
X5120513Y-19510485D01*
X5120513Y-19510485D02*
X5101465Y-19529532D01*
X5101465Y-19529532D02*
X5082418Y-19539056D01*
X5282418Y-19662866D02*
X5291942Y-19672390D01*
X5291942Y-19672390D02*
X5282418Y-19681913D01*
X5282418Y-19681913D02*
X5272894Y-19672390D01*
X5272894Y-19672390D02*
X5282418Y-19662866D01*
X5282418Y-19662866D02*
X5282418Y-19681913D01*
X5415751Y-19481913D02*
X5434799Y-19481913D01*
X5434799Y-19481913D02*
X5453846Y-19491437D01*
X5453846Y-19491437D02*
X5463370Y-19500961D01*
X5463370Y-19500961D02*
X5472894Y-19520009D01*
X5472894Y-19520009D02*
X5482418Y-19558104D01*
X5482418Y-19558104D02*
X5482418Y-19605723D01*
X5482418Y-19605723D02*
X5472894Y-19643818D01*
X5472894Y-19643818D02*
X5463370Y-19662866D01*
X5463370Y-19662866D02*
X5453846Y-19672390D01*
X5453846Y-19672390D02*
X5434799Y-19681913D01*
X5434799Y-19681913D02*
X5415751Y-19681913D01*
X5415751Y-19681913D02*
X5396704Y-19672390D01*
X5396704Y-19672390D02*
X5387180Y-19662866D01*
X5387180Y-19662866D02*
X5377656Y-19643818D01*
X5377656Y-19643818D02*
X5368132Y-19605723D01*
X5368132Y-19605723D02*
X5368132Y-19558104D01*
X5368132Y-19558104D02*
X5377656Y-19520009D01*
X5377656Y-19520009D02*
X5387180Y-19500961D01*
X5387180Y-19500961D02*
X5396704Y-19491437D01*
X5396704Y-19491437D02*
X5415751Y-19481913D01*
X5606227Y-19481913D02*
X5625275Y-19481913D01*
X5625275Y-19481913D02*
X5644323Y-19491437D01*
X5644323Y-19491437D02*
X5653846Y-19500961D01*
X5653846Y-19500961D02*
X5663370Y-19520009D01*
X5663370Y-19520009D02*
X5672894Y-19558104D01*
X5672894Y-19558104D02*
X5672894Y-19605723D01*
X5672894Y-19605723D02*
X5663370Y-19643818D01*
X5663370Y-19643818D02*
X5653846Y-19662866D01*
X5653846Y-19662866D02*
X5644323Y-19672390D01*
X5644323Y-19672390D02*
X5625275Y-19681913D01*
X5625275Y-19681913D02*
X5606227Y-19681913D01*
X5606227Y-19681913D02*
X5587180Y-19672390D01*
X5587180Y-19672390D02*
X5577656Y-19662866D01*
X5577656Y-19662866D02*
X5568132Y-19643818D01*
X5568132Y-19643818D02*
X5558608Y-19605723D01*
X5558608Y-19605723D02*
X5558608Y-19558104D01*
X5558608Y-19558104D02*
X5568132Y-19520009D01*
X5568132Y-19520009D02*
X5577656Y-19500961D01*
X5577656Y-19500961D02*
X5587180Y-19491437D01*
X5587180Y-19491437D02*
X5606227Y-19481913D01*
X5796703Y-19481913D02*
X5815751Y-19481913D01*
X5815751Y-19481913D02*
X5834799Y-19491437D01*
X5834799Y-19491437D02*
X5844323Y-19500961D01*
X5844323Y-19500961D02*
X5853846Y-19520009D01*
X5853846Y-19520009D02*
X5863370Y-19558104D01*
X5863370Y-19558104D02*
X5863370Y-19605723D01*
X5863370Y-19605723D02*
X5853846Y-19643818D01*
X5853846Y-19643818D02*
X5844323Y-19662866D01*
X5844323Y-19662866D02*
X5834799Y-19672390D01*
X5834799Y-19672390D02*
X5815751Y-19681913D01*
X5815751Y-19681913D02*
X5796703Y-19681913D01*
X5796703Y-19681913D02*
X5777656Y-19672390D01*
X5777656Y-19672390D02*
X5768132Y-19662866D01*
X5768132Y-19662866D02*
X5758608Y-19643818D01*
X5758608Y-19643818D02*
X5749084Y-19605723D01*
X5749084Y-19605723D02*
X5749084Y-19558104D01*
X5749084Y-19558104D02*
X5758608Y-19520009D01*
X5758608Y-19520009D02*
X5768132Y-19500961D01*
X5768132Y-19500961D02*
X5777656Y-19491437D01*
X5777656Y-19491437D02*
X5796703Y-19481913D01*
X5949084Y-19681913D02*
X5949084Y-19548580D01*
X5949084Y-19567628D02*
X5958608Y-19558104D01*
X5958608Y-19558104D02*
X5977656Y-19548580D01*
X5977656Y-19548580D02*
X6006227Y-19548580D01*
X6006227Y-19548580D02*
X6025275Y-19558104D01*
X6025275Y-19558104D02*
X6034799Y-19577151D01*
X6034799Y-19577151D02*
X6034799Y-19681913D01*
X6034799Y-19577151D02*
X6044323Y-19558104D01*
X6044323Y-19558104D02*
X6063370Y-19548580D01*
X6063370Y-19548580D02*
X6091942Y-19548580D01*
X6091942Y-19548580D02*
X6110989Y-19558104D01*
X6110989Y-19558104D02*
X6120513Y-19577151D01*
X6120513Y-19577151D02*
X6120513Y-19681913D01*
X6215751Y-19681913D02*
X6215751Y-19548580D01*
X6215751Y-19567628D02*
X6225275Y-19558104D01*
X6225275Y-19558104D02*
X6244323Y-19548580D01*
X6244323Y-19548580D02*
X6272894Y-19548580D01*
X6272894Y-19548580D02*
X6291942Y-19558104D01*
X6291942Y-19558104D02*
X6301465Y-19577151D01*
X6301465Y-19577151D02*
X6301465Y-19681913D01*
X6301465Y-19577151D02*
X6310989Y-19558104D01*
X6310989Y-19558104D02*
X6330037Y-19548580D01*
X6330037Y-19548580D02*
X6358608Y-19548580D01*
X6358608Y-19548580D02*
X6377656Y-19558104D01*
X6377656Y-19558104D02*
X6387180Y-19577151D01*
X6387180Y-19577151D02*
X6387180Y-19681913D01*
X6777656Y-19472390D02*
X6606227Y-19729532D01*
X7034799Y-19481913D02*
X7053847Y-19481913D01*
X7053847Y-19481913D02*
X7072894Y-19491437D01*
X7072894Y-19491437D02*
X7082418Y-19500961D01*
X7082418Y-19500961D02*
X7091942Y-19520009D01*
X7091942Y-19520009D02*
X7101466Y-19558104D01*
X7101466Y-19558104D02*
X7101466Y-19605723D01*
X7101466Y-19605723D02*
X7091942Y-19643818D01*
X7091942Y-19643818D02*
X7082418Y-19662866D01*
X7082418Y-19662866D02*
X7072894Y-19672390D01*
X7072894Y-19672390D02*
X7053847Y-19681913D01*
X7053847Y-19681913D02*
X7034799Y-19681913D01*
X7034799Y-19681913D02*
X7015751Y-19672390D01*
X7015751Y-19672390D02*
X7006227Y-19662866D01*
X7006227Y-19662866D02*
X6996704Y-19643818D01*
X6996704Y-19643818D02*
X6987180Y-19605723D01*
X6987180Y-19605723D02*
X6987180Y-19558104D01*
X6987180Y-19558104D02*
X6996704Y-19520009D01*
X6996704Y-19520009D02*
X7006227Y-19500961D01*
X7006227Y-19500961D02*
X7015751Y-19491437D01*
X7015751Y-19491437D02*
X7034799Y-19481913D01*
X7187180Y-19662866D02*
X7196704Y-19672390D01*
X7196704Y-19672390D02*
X7187180Y-19681913D01*
X7187180Y-19681913D02*
X7177656Y-19672390D01*
X7177656Y-19672390D02*
X7187180Y-19662866D01*
X7187180Y-19662866D02*
X7187180Y-19681913D01*
X7320513Y-19481913D02*
X7339561Y-19481913D01*
X7339561Y-19481913D02*
X7358608Y-19491437D01*
X7358608Y-19491437D02*
X7368132Y-19500961D01*
X7368132Y-19500961D02*
X7377656Y-19520009D01*
X7377656Y-19520009D02*
X7387180Y-19558104D01*
X7387180Y-19558104D02*
X7387180Y-19605723D01*
X7387180Y-19605723D02*
X7377656Y-19643818D01*
X7377656Y-19643818D02*
X7368132Y-19662866D01*
X7368132Y-19662866D02*
X7358608Y-19672390D01*
X7358608Y-19672390D02*
X7339561Y-19681913D01*
X7339561Y-19681913D02*
X7320513Y-19681913D01*
X7320513Y-19681913D02*
X7301466Y-19672390D01*
X7301466Y-19672390D02*
X7291942Y-19662866D01*
X7291942Y-19662866D02*
X7282418Y-19643818D01*
X7282418Y-19643818D02*
X7272894Y-19605723D01*
X7272894Y-19605723D02*
X7272894Y-19558104D01*
X7272894Y-19558104D02*
X7282418Y-19520009D01*
X7282418Y-19520009D02*
X7291942Y-19500961D01*
X7291942Y-19500961D02*
X7301466Y-19491437D01*
X7301466Y-19491437D02*
X7320513Y-19481913D01*
X7453847Y-19481913D02*
X7577656Y-19481913D01*
X7577656Y-19481913D02*
X7510989Y-19558104D01*
X7510989Y-19558104D02*
X7539561Y-19558104D01*
X7539561Y-19558104D02*
X7558608Y-19567628D01*
X7558608Y-19567628D02*
X7568132Y-19577151D01*
X7568132Y-19577151D02*
X7577656Y-19596199D01*
X7577656Y-19596199D02*
X7577656Y-19643818D01*
X7577656Y-19643818D02*
X7568132Y-19662866D01*
X7568132Y-19662866D02*
X7558608Y-19672390D01*
X7558608Y-19672390D02*
X7539561Y-19681913D01*
X7539561Y-19681913D02*
X7482418Y-19681913D01*
X7482418Y-19681913D02*
X7463370Y-19672390D01*
X7463370Y-19672390D02*
X7453847Y-19662866D01*
X7672894Y-19681913D02*
X7710989Y-19681913D01*
X7710989Y-19681913D02*
X7730037Y-19672390D01*
X7730037Y-19672390D02*
X7739561Y-19662866D01*
X7739561Y-19662866D02*
X7758608Y-19634294D01*
X7758608Y-19634294D02*
X7768132Y-19596199D01*
X7768132Y-19596199D02*
X7768132Y-19520009D01*
X7768132Y-19520009D02*
X7758608Y-19500961D01*
X7758608Y-19500961D02*
X7749085Y-19491437D01*
X7749085Y-19491437D02*
X7730037Y-19481913D01*
X7730037Y-19481913D02*
X7691942Y-19481913D01*
X7691942Y-19481913D02*
X7672894Y-19491437D01*
X7672894Y-19491437D02*
X7663370Y-19500961D01*
X7663370Y-19500961D02*
X7653847Y-19520009D01*
X7653847Y-19520009D02*
X7653847Y-19567628D01*
X7653847Y-19567628D02*
X7663370Y-19586675D01*
X7663370Y-19586675D02*
X7672894Y-19596199D01*
X7672894Y-19596199D02*
X7691942Y-19605723D01*
X7691942Y-19605723D02*
X7730037Y-19605723D01*
X7730037Y-19605723D02*
X7749085Y-19596199D01*
X7749085Y-19596199D02*
X7758608Y-19586675D01*
X7758608Y-19586675D02*
X7768132Y-19567628D01*
X7939561Y-19548580D02*
X7939561Y-19681913D01*
X7891942Y-19472390D02*
X7844323Y-19615247D01*
X7844323Y-19615247D02*
X7968132Y-19615247D01*
X8034799Y-19481913D02*
X8034799Y-19520009D01*
X8110989Y-19481913D02*
X8110989Y-19520009D01*
X8406228Y-19758104D02*
X8396704Y-19748580D01*
X8396704Y-19748580D02*
X8377656Y-19720009D01*
X8377656Y-19720009D02*
X8368132Y-19700961D01*
X8368132Y-19700961D02*
X8358609Y-19672390D01*
X8358609Y-19672390D02*
X8349085Y-19624770D01*
X8349085Y-19624770D02*
X8349085Y-19586675D01*
X8349085Y-19586675D02*
X8358609Y-19539056D01*
X8358609Y-19539056D02*
X8368132Y-19510485D01*
X8368132Y-19510485D02*
X8377656Y-19491437D01*
X8377656Y-19491437D02*
X8396704Y-19462866D01*
X8396704Y-19462866D02*
X8406228Y-19453342D01*
X8587180Y-19681913D02*
X8472894Y-19681913D01*
X8530037Y-19681913D02*
X8530037Y-19481913D01*
X8530037Y-19481913D02*
X8510990Y-19510485D01*
X8510990Y-19510485D02*
X8491942Y-19529532D01*
X8491942Y-19529532D02*
X8472894Y-19539056D01*
X8777656Y-19681913D02*
X8663371Y-19681913D01*
X8720513Y-19681913D02*
X8720513Y-19481913D01*
X8720513Y-19481913D02*
X8701466Y-19510485D01*
X8701466Y-19510485D02*
X8682418Y-19529532D01*
X8682418Y-19529532D02*
X8663371Y-19539056D01*
X8901466Y-19481913D02*
X8920513Y-19481913D01*
X8920513Y-19481913D02*
X8939561Y-19491437D01*
X8939561Y-19491437D02*
X8949085Y-19500961D01*
X8949085Y-19500961D02*
X8958609Y-19520009D01*
X8958609Y-19520009D02*
X8968132Y-19558104D01*
X8968132Y-19558104D02*
X8968132Y-19605723D01*
X8968132Y-19605723D02*
X8958609Y-19643818D01*
X8958609Y-19643818D02*
X8949085Y-19662866D01*
X8949085Y-19662866D02*
X8939561Y-19672390D01*
X8939561Y-19672390D02*
X8920513Y-19681913D01*
X8920513Y-19681913D02*
X8901466Y-19681913D01*
X8901466Y-19681913D02*
X8882418Y-19672390D01*
X8882418Y-19672390D02*
X8872894Y-19662866D01*
X8872894Y-19662866D02*
X8863371Y-19643818D01*
X8863371Y-19643818D02*
X8853847Y-19605723D01*
X8853847Y-19605723D02*
X8853847Y-19558104D01*
X8853847Y-19558104D02*
X8863371Y-19520009D01*
X8863371Y-19520009D02*
X8872894Y-19500961D01*
X8872894Y-19500961D02*
X8882418Y-19491437D01*
X8882418Y-19491437D02*
X8901466Y-19481913D01*
X9206228Y-19681913D02*
X9206228Y-19481913D01*
X9291942Y-19681913D02*
X9291942Y-19577151D01*
X9291942Y-19577151D02*
X9282418Y-19558104D01*
X9282418Y-19558104D02*
X9263371Y-19548580D01*
X9263371Y-19548580D02*
X9234799Y-19548580D01*
X9234799Y-19548580D02*
X9215752Y-19558104D01*
X9215752Y-19558104D02*
X9206228Y-19567628D01*
X9415752Y-19681913D02*
X9396704Y-19672390D01*
X9396704Y-19672390D02*
X9387180Y-19662866D01*
X9387180Y-19662866D02*
X9377656Y-19643818D01*
X9377656Y-19643818D02*
X9377656Y-19586675D01*
X9377656Y-19586675D02*
X9387180Y-19567628D01*
X9387180Y-19567628D02*
X9396704Y-19558104D01*
X9396704Y-19558104D02*
X9415752Y-19548580D01*
X9415752Y-19548580D02*
X9444323Y-19548580D01*
X9444323Y-19548580D02*
X9463371Y-19558104D01*
X9463371Y-19558104D02*
X9472894Y-19567628D01*
X9472894Y-19567628D02*
X9482418Y-19586675D01*
X9482418Y-19586675D02*
X9482418Y-19643818D01*
X9482418Y-19643818D02*
X9472894Y-19662866D01*
X9472894Y-19662866D02*
X9463371Y-19672390D01*
X9463371Y-19672390D02*
X9444323Y-19681913D01*
X9444323Y-19681913D02*
X9415752Y-19681913D01*
X9596704Y-19681913D02*
X9577656Y-19672390D01*
X9577656Y-19672390D02*
X9568133Y-19653342D01*
X9568133Y-19653342D02*
X9568133Y-19481913D01*
X9749085Y-19672390D02*
X9730037Y-19681913D01*
X9730037Y-19681913D02*
X9691942Y-19681913D01*
X9691942Y-19681913D02*
X9672894Y-19672390D01*
X9672894Y-19672390D02*
X9663371Y-19653342D01*
X9663371Y-19653342D02*
X9663371Y-19577151D01*
X9663371Y-19577151D02*
X9672894Y-19558104D01*
X9672894Y-19558104D02*
X9691942Y-19548580D01*
X9691942Y-19548580D02*
X9730037Y-19548580D01*
X9730037Y-19548580D02*
X9749085Y-19558104D01*
X9749085Y-19558104D02*
X9758609Y-19577151D01*
X9758609Y-19577151D02*
X9758609Y-19596199D01*
X9758609Y-19596199D02*
X9663371Y-19615247D01*
X9834799Y-19672390D02*
X9853847Y-19681913D01*
X9853847Y-19681913D02*
X9891942Y-19681913D01*
X9891942Y-19681913D02*
X9910990Y-19672390D01*
X9910990Y-19672390D02*
X9920514Y-19653342D01*
X9920514Y-19653342D02*
X9920514Y-19643818D01*
X9920514Y-19643818D02*
X9910990Y-19624770D01*
X9910990Y-19624770D02*
X9891942Y-19615247D01*
X9891942Y-19615247D02*
X9863371Y-19615247D01*
X9863371Y-19615247D02*
X9844323Y-19605723D01*
X9844323Y-19605723D02*
X9834799Y-19586675D01*
X9834799Y-19586675D02*
X9834799Y-19577151D01*
X9834799Y-19577151D02*
X9844323Y-19558104D01*
X9844323Y-19558104D02*
X9863371Y-19548580D01*
X9863371Y-19548580D02*
X9891942Y-19548580D01*
X9891942Y-19548580D02*
X9910990Y-19558104D01*
X9987180Y-19758104D02*
X9996704Y-19748580D01*
X9996704Y-19748580D02*
X10015752Y-19720009D01*
X10015752Y-19720009D02*
X10025275Y-19700961D01*
X10025275Y-19700961D02*
X10034799Y-19672390D01*
X10034799Y-19672390D02*
X10044323Y-19624770D01*
X10044323Y-19624770D02*
X10044323Y-19586675D01*
X10044323Y-19586675D02*
X10034799Y-19539056D01*
X10034799Y-19539056D02*
X10025275Y-19510485D01*
X10025275Y-19510485D02*
X10015752Y-19491437D01*
X10015752Y-19491437D02*
X9996704Y-19462866D01*
X9996704Y-19462866D02*
X9987180Y-19453342D01*
M02*
