%TF.GenerationSoftware,KiCad,Pcbnew,8.0.6*%
%TF.CreationDate,2025-06-24T18:46:18+02:00*%
%TF.ProjectId,main,6d61696e-2e6b-4696-9361-645f70636258,v1.0.0*%
%TF.SameCoordinates,Original*%
%TF.FileFunction,Soldermask,Top*%
%TF.FilePolarity,Negative*%
%FSLAX46Y46*%
G04 Gerber Fmt 4.6, Leading zero omitted, Abs format (unit mm)*
G04 Created by KiCad (PCBNEW 8.0.6) date 2025-06-24 18:46:18*
%MOMM*%
%LPD*%
G01*
G04 APERTURE LIST*
G04 Aperture macros list*
%AMRoundRect*
0 Rectangle with rounded corners*
0 $1 Rounding radius*
0 $2 $3 $4 $5 $6 $7 $8 $9 X,Y pos of 4 corners*
0 Add a 4 corners polygon primitive as box body*
4,1,4,$2,$3,$4,$5,$6,$7,$8,$9,$2,$3,0*
0 Add four circle primitives for the rounded corners*
1,1,$1+$1,$2,$3*
1,1,$1+$1,$4,$5*
1,1,$1+$1,$6,$7*
1,1,$1+$1,$8,$9*
0 Add four rect primitives between the rounded corners*
20,1,$1+$1,$2,$3,$4,$5,0*
20,1,$1+$1,$4,$5,$6,$7,0*
20,1,$1+$1,$6,$7,$8,$9,0*
20,1,$1+$1,$8,$9,$2,$3,0*%
G04 Aperture macros list end*
%ADD10RoundRect,0.050000X-0.663933X-1.248676X1.248676X-0.663933X0.663933X1.248676X-1.248676X0.663933X0*%
%ADD11RoundRect,0.050000X-0.448764X-1.182893X1.033508X-0.729717X0.448764X1.182893X-1.033508X0.729717X0*%
%ADD12C,1.500000*%
%ADD13RoundRect,0.050000X-1.248676X-0.663933X0.663933X-1.248676X1.248676X0.663933X-0.663933X1.248676X0*%
%ADD14RoundRect,0.050000X-1.033508X-0.729717X0.448764X-1.182893X1.033508X0.729717X-0.448764X1.182893X0*%
%ADD15RoundRect,0.050000X-0.254914X-0.705350X0.605760X-0.442216X0.254914X0.705350X-0.605760X0.442216X0*%
%ADD16RoundRect,0.050000X-0.315419X-0.680449X0.564913X-0.493328X0.315419X0.680449X-0.564913X0.493328X0*%
%ADD17RoundRect,0.050000X-1.186059X-0.770236X0.770236X-1.186059X1.186059X0.770236X-0.770236X1.186059X0*%
%ADD18RoundRect,0.050000X-0.965976X-0.817016X0.550153X-1.139279X0.965976X0.817016X-0.550153X1.139279X0*%
%ADD19RoundRect,0.050000X-0.605760X-0.442216X0.254914X-0.705350X0.605760X0.442216X-0.254914X0.705350X0*%
%ADD20RoundRect,0.050000X-0.552577X-1.301790X1.301790X-0.552577X0.552577X1.301790X-1.301790X0.552577X0*%
%ADD21RoundRect,0.050000X-0.343961X-1.217504X1.093174X-0.636864X0.343961X1.217504X-1.093174X0.636864X0*%
%ADD22RoundRect,0.050000X-0.564913X-0.493328X0.315419X-0.680449X0.564913X0.493328X-0.315419X0.680449X0*%
%ADD23RoundRect,0.050000X-0.720475X-0.208365X-0.001703X-0.749998X0.720475X0.208365X0.001703X0.749998X0*%
%ADD24RoundRect,0.050000X-1.400451X-0.196820X0.196820X-1.400451X1.400451X0.196820X-0.196820X1.400451X0*%
%ADD25RoundRect,0.050000X-1.220758X-0.332229X0.017127X-1.265042X1.220758X0.332229X-0.017127X1.265042X0*%
%ADD26O,1.300000X1.850000*%
%ADD27RoundRect,0.260000X-0.390000X-0.665000X0.390000X-0.665000X0.390000X0.665000X-0.390000X0.665000X0*%
%ADD28RoundRect,0.050000X-0.192469X-0.724883X0.641997X-0.387737X0.192469X0.724883X-0.641997X0.387737X0*%
%ADD29RoundRect,0.050000X0.001703X-0.749998X0.720475X-0.208365X-0.001703X0.749998X-0.720475X0.208365X0*%
%ADD30RoundRect,0.050000X-0.770236X-1.186059X1.186059X-0.770236X0.770236X1.186059X-1.186059X0.770236X0*%
%ADD31RoundRect,0.050000X-0.550153X-1.139279X0.965976X-0.817016X0.550153X1.139279X-0.965976X0.817016X0*%
%ADD32RoundRect,0.050000X-1.301790X-0.552577X0.552577X-1.301790X1.301790X0.552577X-0.552577X1.301790X0*%
%ADD33RoundRect,0.050000X-1.093174X-0.636864X0.343961X-1.217504X1.093174X0.636864X-0.343961X1.217504X0*%
%ADD34C,1.800000*%
%ADD35RoundRect,0.050000X0.678109X0.474519X0.071891X0.824519X-0.678109X-0.474519X-0.071891X-0.824519X0*%
%ADD36RoundRect,0.050000X0.633013X0.096410X-0.233013X0.596410X-0.633013X-0.096410X0.233013X-0.596410X0*%
%ADD37C,1.000000*%
%ADD38RoundRect,0.050000X-0.196820X-1.400451X1.400451X-0.196820X0.196820X1.400451X-1.400451X0.196820X0*%
%ADD39RoundRect,0.050000X-0.017127X-1.265042X1.220758X-0.332229X0.017127X1.265042X-1.220758X0.332229X0*%
%ADD40RoundRect,0.050000X-0.641997X-0.387737X0.192469X-0.724883X0.641997X0.387737X-0.192469X0.724883X0*%
G04 APERTURE END LIST*
D10*
%TO.C,CPG1316*%
X263855129Y-112555121D03*
X260346660Y-101079468D03*
X251710062Y-116268244D03*
X248201593Y-104792591D03*
D11*
X259193913Y-110477130D03*
D12*
X259193913Y-110477130D03*
D11*
X254412379Y-111939000D03*
D12*
X254412379Y-111939000D03*
%TD*%
D13*
%TO.C,CPG1316*%
X123869495Y-116457045D03*
X127377960Y-104981377D03*
X111724422Y-112743925D03*
X115232887Y-101268257D03*
D14*
X121167169Y-112127794D03*
D12*
X121167169Y-112127794D03*
D14*
X116385651Y-110665928D03*
D12*
X116385651Y-110665928D03*
%TD*%
D13*
%TO.C,CPG1316*%
X128839818Y-100199862D03*
X132348283Y-88724194D03*
X116694745Y-96486742D03*
X120203210Y-85011074D03*
D14*
X126137492Y-95870611D03*
D12*
X126137492Y-95870611D03*
D14*
X121355974Y-94408745D03*
D12*
X121355974Y-94408745D03*
%TD*%
D13*
%TO.C,CPG1316*%
X133402118Y-143422363D03*
X136910583Y-131946695D03*
X121257045Y-139709243D03*
X124765510Y-128233575D03*
D14*
X130699792Y-139093112D03*
D12*
X130699792Y-139093112D03*
D14*
X125918274Y-137631246D03*
D12*
X125918274Y-137631246D03*
%TD*%
D15*
%TO.C,D34*%
X229565184Y-132763542D03*
X226409372Y-133728372D03*
%TD*%
D16*
%TO.C,D26*%
X278982844Y-112093208D03*
X275754948Y-112779314D03*
%TD*%
D10*
%TO.C,CPG1316*%
X241165768Y-96486738D03*
X237657299Y-85011085D03*
X229020701Y-100199861D03*
X225512232Y-88724208D03*
D11*
X236504552Y-94408747D03*
D12*
X236504552Y-94408747D03*
D11*
X231723018Y-95870617D03*
D12*
X231723018Y-95870617D03*
%TD*%
D17*
%TO.C,CPG1316*%
X83854472Y-127157131D03*
X81359524Y-138894902D03*
X71431994Y-124516644D03*
X68937046Y-136254415D03*
D18*
X78290158Y-134817642D03*
D12*
X78290158Y-134817642D03*
D18*
X73399425Y-133778076D03*
D12*
X73399425Y-133778076D03*
%TD*%
D13*
%TO.C,CPG1316*%
X111120777Y-100011074D03*
X114629242Y-88535406D03*
X98975704Y-96297954D03*
X102484169Y-84822286D03*
D14*
X108418451Y-95681823D03*
D12*
X108418451Y-95681823D03*
D14*
X103636933Y-94219957D03*
D12*
X103636933Y-94219957D03*
%TD*%
D19*
%TO.C,D10*%
X116948181Y-123020220D03*
X113792381Y-122055392D03*
%TD*%
D15*
%TO.C,D29*%
X256816863Y-105609409D03*
X253661051Y-106574239D03*
%TD*%
D16*
%TO.C,D25*%
X282517344Y-128721720D03*
X279289448Y-129407826D03*
%TD*%
D19*
%TO.C,D16*%
X147123573Y-140611299D03*
X143967773Y-139646471D03*
%TD*%
D10*
%TO.C,CPG1316*%
X236603463Y-139709243D03*
X233094994Y-128233590D03*
X224458396Y-143422366D03*
X220949927Y-131946713D03*
D11*
X231942247Y-137631252D03*
D12*
X231942247Y-137631252D03*
D11*
X227160713Y-139093122D03*
D12*
X227160713Y-139093122D03*
%TD*%
D20*
%TO.C,CPG1316*%
X227060563Y-164044716D03*
X222565279Y-152918511D03*
X215285327Y-168802217D03*
X210790043Y-157676012D03*
D21*
X222235963Y-162380895D03*
D12*
X222235963Y-162380895D03*
D21*
X217600047Y-164253914D03*
D12*
X217600047Y-164253914D03*
%TD*%
D19*
%TO.C,D9*%
X109169776Y-90317062D03*
X106013976Y-89352234D03*
%TD*%
D22*
%TO.C,D3*%
X69011561Y-92616311D03*
X65783657Y-91930199D03*
%TD*%
D13*
%TO.C,CPG1316*%
X159015201Y-117790942D03*
X162523666Y-106315274D03*
X146870128Y-114077822D03*
X150378593Y-102602154D03*
D14*
X156312875Y-113461691D03*
D12*
X156312875Y-113461691D03*
D14*
X151531357Y-111999825D03*
D12*
X151531357Y-111999825D03*
%TD*%
D22*
%TO.C,D2*%
X65477060Y-109244823D03*
X62249156Y-108558711D03*
%TD*%
D23*
%TO.C,D21*%
X158463644Y-169380765D03*
X155828152Y-167394793D03*
%TD*%
D17*
%TO.C,CPG1316*%
X87388981Y-110528626D03*
X84894033Y-122266397D03*
X74966503Y-107888139D03*
X72471555Y-119625910D03*
D18*
X81824667Y-118189137D03*
D12*
X81824667Y-118189137D03*
D18*
X76933934Y-117149571D03*
D12*
X76933934Y-117149571D03*
%TD*%
D15*
%TO.C,D35*%
X224594871Y-116506360D03*
X221439059Y-117471190D03*
%TD*%
D10*
%TO.C,CPG1316*%
X231633139Y-123452068D03*
X228124670Y-111976415D03*
X219488072Y-127165191D03*
X215979603Y-115689538D03*
D11*
X226971923Y-121374077D03*
D12*
X226971923Y-121374077D03*
D11*
X222190389Y-122835947D03*
D12*
X222190389Y-122835947D03*
%TD*%
D19*
%TO.C,D12*%
X126888811Y-90505859D03*
X123733011Y-89541031D03*
%TD*%
D24*
%TO.C,CPG1316*%
X164203231Y-169573798D03*
X156981444Y-179157425D03*
X154060558Y-161930751D03*
X146838771Y-171514378D03*
D25*
X155922776Y-174165009D03*
D12*
X155922776Y-174165009D03*
D25*
X151929591Y-171155936D03*
D12*
X151929591Y-171155936D03*
%TD*%
D16*
%TO.C,D23*%
X295611354Y-108558715D03*
X292383458Y-109244821D03*
%TD*%
D15*
%TO.C,D33*%
X234127504Y-89541040D03*
X230971692Y-90505870D03*
%TD*%
D26*
%TO.C,JST1*%
X166974994Y-118675006D03*
D27*
X164974998Y-118675002D03*
%TD*%
D22*
%TO.C,D4*%
X78571074Y-129407835D03*
X75343170Y-128721723D03*
%TD*%
D15*
%TO.C,D36*%
X219624551Y-100249185D03*
X216468739Y-101214015D03*
%TD*%
D28*
%TO.C,D41*%
X219443720Y-157738870D03*
X216384018Y-158975074D03*
%TD*%
D17*
%TO.C,CPG1316*%
X70760448Y-106994125D03*
X68265500Y-118731896D03*
X58337970Y-104353638D03*
X55843022Y-116091409D03*
D18*
X65196134Y-114654636D03*
D12*
X65196134Y-114654636D03*
D18*
X60305401Y-113615070D03*
D12*
X60305401Y-113615070D03*
%TD*%
D13*
%TO.C,CPG1316*%
X106150459Y-116268250D03*
X109658924Y-104792582D03*
X94005386Y-112555130D03*
X97513851Y-101079462D03*
D14*
X103448133Y-111938999D03*
D12*
X103448133Y-111938999D03*
D14*
X98666615Y-110477133D03*
D12*
X98666615Y-110477133D03*
%TD*%
D10*
%TO.C,CPG1316*%
X210990391Y-114077820D03*
X207481922Y-102602167D03*
X198845324Y-117790943D03*
X195336855Y-106315290D03*
D11*
X206329175Y-111999829D03*
D12*
X206329175Y-111999829D03*
D11*
X201547641Y-113461699D03*
D12*
X201547641Y-113461699D03*
%TD*%
D10*
%TO.C,CPG1316*%
X251106405Y-129001094D03*
X247597936Y-117525441D03*
X238961338Y-132714217D03*
X235452869Y-121238564D03*
D11*
X246445189Y-126923103D03*
D12*
X246445189Y-126923103D03*
D11*
X241663655Y-128384973D03*
D12*
X241663655Y-128384973D03*
%TD*%
D10*
%TO.C,CPG1316*%
X220931022Y-146592181D03*
X217422553Y-135116528D03*
X208785955Y-150305304D03*
X205277486Y-138829651D03*
D11*
X216269806Y-144514190D03*
D12*
X216269806Y-144514190D03*
D11*
X211488272Y-145976060D03*
D12*
X211488272Y-145976060D03*
%TD*%
D10*
%TO.C,CPG1316*%
X246136089Y-112743915D03*
X242627620Y-101268262D03*
X233991022Y-116457038D03*
X230482553Y-104981385D03*
D11*
X241474873Y-110665924D03*
D12*
X241474873Y-110665924D03*
D11*
X236693339Y-112127794D03*
D12*
X236693339Y-112127794D03*
%TD*%
D19*
%TO.C,D14*%
X136421452Y-117471193D03*
X133265652Y-116506365D03*
%TD*%
D29*
%TO.C,D42*%
X202032368Y-167394773D03*
X199396862Y-169380775D03*
%TD*%
D15*
%TO.C,D30*%
X251846547Y-89352239D03*
X248690735Y-90317069D03*
%TD*%
D16*
%TO.C,D22*%
X299145860Y-125187224D03*
X295917964Y-125873330D03*
%TD*%
D19*
%TO.C,D7*%
X99229138Y-122831421D03*
X96073338Y-121866593D03*
%TD*%
D30*
%TO.C,CPG1316*%
X298482978Y-99462909D03*
X295988033Y-87725131D03*
X286060501Y-102103395D03*
X283565556Y-90365617D03*
D31*
X294020608Y-96986570D03*
D12*
X294020608Y-96986570D03*
D31*
X289129869Y-98026126D03*
D12*
X289129869Y-98026126D03*
%TD*%
D30*
%TO.C,CPG1316*%
X288923460Y-136254410D03*
X286428515Y-124516632D03*
X276500983Y-138894896D03*
X274006038Y-127157118D03*
D31*
X284461090Y-133778071D03*
D12*
X284461090Y-133778071D03*
D31*
X279570351Y-134817627D03*
D12*
X279570351Y-134817627D03*
%TD*%
D15*
%TO.C,D28*%
X261787181Y-121866596D03*
X258631369Y-122831426D03*
%TD*%
%TO.C,D31*%
X244068145Y-122055394D03*
X240912333Y-123020224D03*
%TD*%
D13*
%TO.C,CPG1316*%
X126598381Y-162256087D03*
X130106846Y-150780419D03*
X114453308Y-158542967D03*
X117961773Y-147067299D03*
D14*
X123896055Y-157926836D03*
D12*
X123896055Y-157926836D03*
D14*
X119114537Y-156464970D03*
D12*
X119114537Y-156464970D03*
%TD*%
D22*
%TO.C,D6*%
X85640069Y-96150814D03*
X82412165Y-95464702D03*
%TD*%
D10*
%TO.C,CPG1316*%
X226662818Y-107194881D03*
X223154349Y-95719228D03*
X214517751Y-110908004D03*
X211009282Y-99432351D03*
D11*
X222001602Y-105116890D03*
D12*
X222001602Y-105116890D03*
D11*
X217220068Y-106578760D03*
D12*
X217220068Y-106578760D03*
%TD*%
D15*
%TO.C,D37*%
X213892753Y-139646466D03*
X210736941Y-140611296D03*
%TD*%
D30*
%TO.C,CPG1316*%
X302017470Y-116091411D03*
X299522525Y-104353633D03*
X289594993Y-118731897D03*
X287100048Y-106994119D03*
D31*
X297555100Y-113615072D03*
D12*
X297555100Y-113615072D03*
D31*
X292664361Y-114654628D03*
D12*
X292664361Y-114654628D03*
%TD*%
D13*
%TO.C,CPG1316*%
X149074560Y-150305303D03*
X152583025Y-138829635D03*
X136929487Y-146592183D03*
X140437952Y-135116515D03*
D14*
X146372234Y-145976052D03*
D12*
X146372234Y-145976052D03*
D14*
X141590716Y-144514186D03*
D12*
X141590716Y-144514186D03*
%TD*%
D13*
%TO.C,CPG1316*%
X138372446Y-127165191D03*
X141880911Y-115689523D03*
X126227373Y-123452071D03*
X129735838Y-111976403D03*
D14*
X135670120Y-122835940D03*
D12*
X135670120Y-122835940D03*
D14*
X130888602Y-121374074D03*
D12*
X130888602Y-121374074D03*
%TD*%
D15*
%TO.C,D40*%
X236368927Y-151597260D03*
X233213115Y-152562090D03*
%TD*%
D13*
%TO.C,CPG1316*%
X101180134Y-132525435D03*
X104688599Y-121049767D03*
X89035061Y-128812315D03*
X92543526Y-117336647D03*
D14*
X98477808Y-128196184D03*
D12*
X98477808Y-128196184D03*
D14*
X93696290Y-126734318D03*
D12*
X93696290Y-126734318D03*
%TD*%
D22*
%TO.C,D5*%
X82105567Y-112779329D03*
X78877663Y-112093217D03*
%TD*%
D10*
%TO.C,CPG1316*%
X243407193Y-158542958D03*
X239898724Y-147067305D03*
X231262126Y-162256081D03*
X227753657Y-150780428D03*
D11*
X238745977Y-156464967D03*
D12*
X238745977Y-156464967D03*
D11*
X233964443Y-157926837D03*
D12*
X233964443Y-157926837D03*
%TD*%
D30*
%TO.C,CPG1316*%
X285388973Y-119625917D03*
X282894028Y-107888139D03*
X272966496Y-122266403D03*
X270471551Y-110528625D03*
D31*
X280926603Y-117149578D03*
D12*
X280926603Y-117149578D03*
D31*
X276035864Y-118189134D03*
D12*
X276035864Y-118189134D03*
%TD*%
D19*
%TO.C,D19*%
X124647387Y-152562098D03*
X121491587Y-151597270D03*
%TD*%
D17*
%TO.C,CPG1316*%
X74294954Y-90365615D03*
X71800006Y-102103386D03*
X61872476Y-87725128D03*
X59377528Y-99462899D03*
D18*
X68730640Y-98026126D03*
D12*
X68730640Y-98026126D03*
D18*
X63839907Y-96986560D03*
D12*
X63839907Y-96986560D03*
%TD*%
D17*
%TO.C,CPG1316*%
X90923467Y-93900110D03*
X88428519Y-105637881D03*
X78500989Y-91259623D03*
X76006041Y-102997394D03*
D18*
X85359153Y-101560621D03*
D12*
X85359153Y-101560621D03*
D18*
X80468420Y-100521055D03*
D12*
X80468420Y-100521055D03*
%TD*%
D15*
%TO.C,D38*%
X208922431Y-123389290D03*
X205766619Y-124354120D03*
%TD*%
D32*
%TO.C,CPG1316*%
X142575198Y-168802221D03*
X147070477Y-157676019D03*
X130799953Y-164044725D03*
X135295232Y-152918523D03*
D33*
X140260464Y-164253932D03*
D12*
X140260464Y-164253932D03*
D33*
X135624543Y-162380889D03*
D12*
X135624543Y-162380889D03*
%TD*%
D34*
%TO.C,RST1*%
X167075004Y-108850002D03*
X167074990Y-115349994D03*
%TD*%
D10*
%TO.C,CPG1316*%
X215960698Y-130334991D03*
X212452229Y-118859338D03*
X203815631Y-134048114D03*
X200307162Y-122572461D03*
D11*
X211299482Y-128257000D03*
D12*
X211299482Y-128257000D03*
D11*
X206517948Y-129718870D03*
D12*
X206517948Y-129718870D03*
%TD*%
D10*
%TO.C,CPG1316*%
X268825440Y-128812314D03*
X265316971Y-117336661D03*
X256680373Y-132525437D03*
X253171904Y-121049784D03*
D11*
X264164224Y-126734323D03*
D12*
X264164224Y-126734323D03*
D11*
X259382690Y-128196193D03*
D12*
X259382690Y-128196193D03*
%TD*%
D13*
%TO.C,CPG1316*%
X154044888Y-134048122D03*
X157553353Y-122572454D03*
X141899815Y-130335002D03*
X145408280Y-118859334D03*
D14*
X151342562Y-129718871D03*
D12*
X151342562Y-129718871D03*
D14*
X146561044Y-128257005D03*
D12*
X146561044Y-128257005D03*
%TD*%
D19*
%TO.C,D13*%
X131451128Y-133728365D03*
X128295328Y-132763537D03*
%TD*%
D15*
%TO.C,D39*%
X203952105Y-107132104D03*
X200796293Y-108096934D03*
%TD*%
D30*
%TO.C,CPG1316*%
X305551970Y-132719914D03*
X303057025Y-120982136D03*
X293129493Y-135360400D03*
X290634548Y-123622622D03*
D31*
X301089600Y-130243575D03*
D12*
X301089600Y-130243575D03*
D31*
X296198861Y-131283131D03*
D12*
X296198861Y-131283131D03*
%TD*%
D35*
%TO.C,PWR1*%
X136997405Y-90924210D03*
X138296442Y-91674212D03*
X140894514Y-93174208D03*
D36*
X143536952Y-91397367D03*
X137214960Y-87747372D03*
D37*
X138526931Y-89775002D03*
X141124997Y-91274997D03*
D36*
X136109978Y-89661284D03*
X142431952Y-93311293D03*
%TD*%
D16*
%TO.C,D27*%
X275448349Y-95464697D03*
X272220453Y-96150803D03*
%TD*%
D13*
%TO.C,CPG1316*%
X143342770Y-110908025D03*
X146851235Y-99432357D03*
X131197697Y-107194905D03*
X134706162Y-95719237D03*
D14*
X140640444Y-106578774D03*
D12*
X140640444Y-106578774D03*
D14*
X135858926Y-105116908D03*
D12*
X135858926Y-105116908D03*
%TD*%
D19*
%TO.C,D15*%
X141391770Y-101214005D03*
X138235970Y-100249177D03*
%TD*%
%TO.C,D17*%
X152093885Y-124354122D03*
X148938085Y-123389294D03*
%TD*%
%TO.C,D8*%
X104199462Y-106574250D03*
X101043662Y-105609422D03*
%TD*%
%TO.C,D11*%
X121918491Y-106763040D03*
X118762691Y-105798212D03*
%TD*%
D15*
%TO.C,D32*%
X239097829Y-105798216D03*
X235942017Y-106763046D03*
%TD*%
D22*
%TO.C,D1*%
X61942563Y-125873329D03*
X58714659Y-125187217D03*
%TD*%
D10*
%TO.C,CPG1316*%
X258884803Y-96297939D03*
X255376334Y-84822286D03*
X246739736Y-100011062D03*
X243231267Y-88535409D03*
D11*
X254223587Y-94219948D03*
D12*
X254223587Y-94219948D03*
D11*
X249442053Y-95681818D03*
D12*
X249442053Y-95681818D03*
%TD*%
D13*
%TO.C,CPG1316*%
X118899171Y-132714230D03*
X122407636Y-121238562D03*
X106754098Y-129001110D03*
X110262563Y-117525442D03*
D14*
X116196845Y-128384979D03*
D12*
X116196845Y-128384979D03*
D14*
X111415327Y-126923113D03*
D12*
X111415327Y-126923113D03*
%TD*%
D19*
%TO.C,D18*%
X157064203Y-108096936D03*
X153908403Y-107132108D03*
%TD*%
D38*
%TO.C,CPG1316*%
X211021731Y-171514376D03*
X203799949Y-161930758D03*
X200879055Y-179157426D03*
X193657273Y-169573808D03*
D39*
X205930901Y-171155947D03*
D12*
X205930901Y-171155947D03*
D39*
X201937716Y-174165015D03*
D12*
X201937716Y-174165015D03*
%TD*%
D30*
%TO.C,CPG1316*%
X281854472Y-102997405D03*
X279359527Y-91259627D03*
X269431995Y-105637891D03*
X266937050Y-93900113D03*
D31*
X277392102Y-100521066D03*
D12*
X277392102Y-100521066D03*
D31*
X272501363Y-101560622D03*
D12*
X272501363Y-101560622D03*
%TD*%
D40*
%TO.C,D20*%
X141476502Y-158975073D03*
X138416786Y-157738877D03*
%TD*%
D16*
%TO.C,D24*%
X292076857Y-91930204D03*
X288848961Y-92616310D03*
%TD*%
D17*
%TO.C,CPG1316*%
X67225957Y-123622631D03*
X64731009Y-135360402D03*
X54803479Y-120982144D03*
X52308531Y-132719915D03*
D18*
X61661643Y-131283142D03*
D12*
X61661643Y-131283142D03*
D18*
X56770910Y-130243576D03*
D12*
X56770910Y-130243576D03*
%TD*%
D34*
%TO.C,MCU1*%
X171284997Y-107835001D03*
X171284995Y-110374992D03*
X171284996Y-112914993D03*
X171284990Y-115454995D03*
X171284999Y-117994992D03*
X171284987Y-120534996D03*
X171284987Y-123074990D03*
X171284988Y-125614999D03*
X171284989Y-128154994D03*
X171284995Y-130694998D03*
X171284995Y-133235001D03*
X171284996Y-135774999D03*
X186524994Y-135775001D03*
X186524989Y-133234993D03*
X186524991Y-130695002D03*
X186524990Y-128155001D03*
X186524996Y-125614999D03*
X186524987Y-123075002D03*
X186524999Y-120534998D03*
X186524999Y-117995004D03*
X186524998Y-115454995D03*
X186524997Y-112915000D03*
X186524991Y-110374996D03*
X186524991Y-107834993D03*
%TD*%
M02*
