M48
; DRILL file {KiCad 8.0.6} date 2025-05-17T18:11:53+0200
; FORMAT={-:-/ absolute / inch / decimal}
; #@! TF.CreationDate,2025-05-17T18:11:53+02:00
; #@! TF.GenerationSoftware,Kicad,Pcbnew,8.0.6
; #@! TF.FileFunction,Plated,1,2,PTH
FMAT,2
INCH
; #@! TA.AperFunction,Plated,PTH,ViaDrill
T1C0.0118
; #@! TA.AperFunction,Plated,PTH,ComponentDrill
T2C0.0295
; #@! TA.AperFunction,Plated,PTH,ComponentDrill
T3C0.0390
; #@! TA.AperFunction,Plated,PTH,ComponentDrill
T4C0.0394
; #@! TA.AperFunction,Plated,PTH,ComponentDrill
T5C0.0866
%
G90
G05
T1
X2.2654Y-4.9188
X2.4209Y-4.1871
X2.4849Y-4.9655
X2.5764Y-3.4554
X2.6181Y-3.6811
X2.6404Y-4.2338
X2.7959Y-3.5021
X2.9971Y-5.0743
X3.1526Y-4.3426
X3.2166Y-5.121
X3.3081Y-3.611
X3.3465Y-3.8386
X3.3721Y-4.3893
X3.5276Y-3.6576
X3.8913Y-4.8168
X4.1059Y-4.8824
X4.11Y-4.1015
X4.3246Y-4.1671
X4.3287Y-3.3861
X4.3504Y-3.622
X4.5433Y-3.4517
X4.6642Y-4.8473
X4.8788Y-4.9129
X4.8829Y-4.1319
X5.0975Y-4.1975
X5.1016Y-3.4166
X5.1181Y-3.6417
X5.2078Y-6.1662
X5.3105Y-5.2919
X5.3162Y-3.4822
X5.4224Y-6.2318
X5.5251Y-5.3575
X5.5292Y-4.5765
X5.7438Y-4.6421
X5.7479Y-3.8612
X5.7677Y-4.0945
X5.9625Y-3.9268
X5.9843Y-3.8386
X6.0028Y-5.5859
X6.0236Y-3.7992
X6.0356Y-6.4531
X6.2174Y-5.6515
X6.2215Y-4.8705
X6.2436Y-6.5371
X6.4361Y-4.9362
X6.4402Y-4.1552
X6.6548Y-4.2208
X6.7717Y-4.5472
X6.7913Y-4.5079
X6.811Y-4.4685
X6.8231Y-4.4367
X6.8406Y-4.3996
X6.8823Y-6.8852
X7.0615Y-7.0202
X7.8937Y-5.315
X7.923Y-7.0202
X7.9331Y-5.315
X7.9724Y-5.315
X8.0118Y-5.315
X8.0512Y-5.315
X8.1022Y-6.8852
X8.3296Y-4.2208
X8.5443Y-4.1552
X8.5484Y-4.9362
X8.7408Y-6.5371
X8.763Y-4.8705
X8.7671Y-5.6515
X8.9489Y-6.4531
X8.9817Y-5.5859
X9.022Y-3.9268
X9.2366Y-3.8612
X9.2407Y-4.6421
X9.4553Y-4.5765
X9.4594Y-5.3575
X9.562Y-6.2318
X9.6683Y-3.4822
X9.674Y-5.2919
X9.7766Y-6.1662
X9.8829Y-3.4166
X9.887Y-4.1975
X10.1016Y-4.1319
X10.1057Y-4.9129
X10.3203Y-4.8473
X10.4412Y-3.4517
X10.6558Y-3.3861
X10.6599Y-4.1671
X10.8745Y-4.1015
X10.8786Y-4.8824
X11.0932Y-4.8168
X11.4568Y-3.6576
X11.6123Y-4.3893
X11.6763Y-3.611
X11.7679Y-5.121
X11.8318Y-4.3426
X11.9874Y-5.0743
X12.1885Y-3.5021
X12.344Y-4.2338
X12.408Y-3.4554
X12.4995Y-4.9655
X12.5635Y-4.1871
X12.719Y-4.9188
T2
X6.9488Y-4.8819
X7.0276Y-4.8819
T3
X6.9094Y-4.4783
X6.9094Y-4.7343
X7.0866Y-4.4783
X7.0866Y-4.7343
T4
X7.2Y-4.1701
X7.2Y-4.2701
X7.2Y-4.3701
X7.2Y-4.4701
X7.2Y-4.5701
X7.2Y-4.6701
X7.2Y-4.7701
X7.2Y-4.8701
X7.2Y-4.9701
X7.2Y-5.0701
X7.2Y-5.1701
X7.2Y-5.2701
X7.8Y-4.1701
X7.8Y-4.2701
X7.8Y-4.3701
X7.8Y-4.4701
X7.8Y-4.5701
X7.8Y-4.6701
X7.8Y-4.7701
X7.8Y-4.8701
X7.8Y-4.9701
X7.8Y-5.0701
X7.8Y-5.1701
X7.8Y-5.2701
T5
X2.7065Y-5.2239
X2.9619Y-4.0224
X4.3161Y-5.0229
X4.7189Y-3.8266
X6.0591Y-4.4874
X6.5018Y-6.8283
X8.4827Y-6.8283
X8.9254Y-4.4874
X10.2655Y-3.8266
X10.6683Y-5.0229
X12.0226Y-4.0224
X12.278Y-5.2239
M30
