%TF.GenerationSoftware,KiCad,Pcbnew,8.0.6*%
%TF.CreationDate,2025-07-18T12:27:13+02:00*%
%TF.ProjectId,main,6d61696e-2e6b-4696-9361-645f70636258,v1.0.0*%
%TF.SameCoordinates,Original*%
%TF.FileFunction,Soldermask,Top*%
%TF.FilePolarity,Negative*%
%FSLAX46Y46*%
G04 Gerber Fmt 4.6, Leading zero omitted, Abs format (unit mm)*
G04 Created by KiCad (PCBNEW 8.0.6) date 2025-07-18 12:27:13*
%MOMM*%
%LPD*%
G01*
G04 APERTURE LIST*
G04 Aperture macros list*
%AMRoundRect*
0 Rectangle with rounded corners*
0 $1 Rounding radius*
0 $2 $3 $4 $5 $6 $7 $8 $9 X,Y pos of 4 corners*
0 Add a 4 corners polygon primitive as box body*
4,1,4,$2,$3,$4,$5,$6,$7,$8,$9,$2,$3,0*
0 Add four circle primitives for the rounded corners*
1,1,$1+$1,$2,$3*
1,1,$1+$1,$4,$5*
1,1,$1+$1,$6,$7*
1,1,$1+$1,$8,$9*
0 Add four rect primitives between the rounded corners*
20,1,$1+$1,$2,$3,$4,$5,0*
20,1,$1+$1,$4,$5,$6,$7,0*
20,1,$1+$1,$6,$7,$8,$9,0*
20,1,$1+$1,$8,$9,$2,$3,0*%
G04 Aperture macros list end*
%ADD10C,1.500000*%
%ADD11RoundRect,0.050000X-1.033508X-0.729717X0.448764X-1.182893X1.033508X0.729717X-0.448764X1.182893X0*%
%ADD12RoundRect,0.050000X-1.248676X-0.663933X0.663933X-1.248676X1.248676X0.663933X-0.663933X1.248676X0*%
%ADD13RoundRect,0.050000X-0.254914X-0.705350X0.605760X-0.442216X0.254914X0.705350X-0.605760X0.442216X0*%
%ADD14RoundRect,0.050000X-0.315419X-0.680449X0.564913X-0.493328X0.315419X0.680449X-0.564913X0.493328X0*%
%ADD15RoundRect,0.050000X-0.448764X-1.182893X1.033508X-0.729717X0.448764X1.182893X-1.033508X0.729717X0*%
%ADD16RoundRect,0.050000X-0.663933X-1.248676X1.248676X-0.663933X0.663933X1.248676X-1.248676X0.663933X0*%
%ADD17RoundRect,0.050000X-0.965976X-0.817016X0.550153X-1.139279X0.965976X0.817016X-0.550153X1.139279X0*%
%ADD18RoundRect,0.050000X-1.186059X-0.770236X0.770236X-1.186059X1.186059X0.770236X-0.770236X1.186059X0*%
%ADD19RoundRect,0.050000X-0.605760X-0.442216X0.254914X-0.705350X0.605760X0.442216X-0.254914X0.705350X0*%
%ADD20RoundRect,0.050000X-0.343961X-1.217504X1.093174X-0.636864X0.343961X1.217504X-1.093174X0.636864X0*%
%ADD21RoundRect,0.050000X-0.552577X-1.301790X1.301790X-0.552577X0.552577X1.301790X-1.301790X0.552577X0*%
%ADD22RoundRect,0.050000X-0.564913X-0.493328X0.315419X-0.680449X0.564913X0.493328X-0.315419X0.680449X0*%
%ADD23RoundRect,0.050000X-0.720475X-0.208365X-0.001703X-0.749998X0.720475X0.208365X0.001703X0.749998X0*%
%ADD24RoundRect,0.050000X-1.220758X-0.332229X0.017127X-1.265042X1.220758X0.332229X-0.017127X1.265042X0*%
%ADD25RoundRect,0.050000X-1.400451X-0.196820X0.196820X-1.400451X1.400451X0.196820X-0.196820X1.400451X0*%
%ADD26RoundRect,0.260000X-0.390000X-0.665000X0.390000X-0.665000X0.390000X0.665000X-0.390000X0.665000X0*%
%ADD27O,1.300000X1.850000*%
%ADD28RoundRect,0.050000X-0.192469X-0.724883X0.641997X-0.387737X0.192469X0.724883X-0.641997X0.387737X0*%
%ADD29RoundRect,0.050000X0.001703X-0.749998X0.720475X-0.208365X-0.001703X0.749998X-0.720475X0.208365X0*%
%ADD30RoundRect,0.050000X-0.550153X-1.139279X0.965976X-0.817016X0.550153X1.139279X-0.965976X0.817016X0*%
%ADD31RoundRect,0.050000X-0.770236X-1.186059X1.186059X-0.770236X0.770236X1.186059X-1.186059X0.770236X0*%
%ADD32RoundRect,0.050000X-1.093174X-0.636864X0.343961X-1.217504X1.093174X0.636864X-0.343961X1.217504X0*%
%ADD33RoundRect,0.050000X-1.301790X-0.552577X0.552577X-1.301790X1.301790X0.552577X-0.552577X1.301790X0*%
%ADD34C,1.800000*%
%ADD35RoundRect,0.050000X0.633013X0.096410X-0.233013X0.596410X-0.633013X-0.096410X0.233013X-0.596410X0*%
%ADD36C,1.000000*%
%ADD37RoundRect,0.050000X0.678109X0.474519X0.071891X0.824519X-0.678109X-0.474519X-0.071891X-0.824519X0*%
%ADD38RoundRect,0.050000X-0.017127X-1.265042X1.220758X-0.332229X0.017127X1.265042X-1.220758X0.332229X0*%
%ADD39RoundRect,0.050000X-0.196820X-1.400451X1.400451X-0.196820X0.196820X1.400451X-1.400451X0.196820X0*%
%ADD40RoundRect,0.050000X-0.641997X-0.387737X0.192469X-0.724883X0.641997X0.387737X-0.192469X0.724883X0*%
G04 APERTURE END LIST*
D10*
%TO.C,CPG1316*%
X116385649Y-110665921D03*
D11*
X116385649Y-110665921D03*
D10*
X120210869Y-111835418D03*
D11*
X120210869Y-111835418D03*
D12*
X115232890Y-101268256D03*
X111724431Y-112743918D03*
X127377959Y-104981378D03*
X123869500Y-116457040D03*
%TD*%
D10*
%TO.C,CPG1316*%
X121355970Y-94408736D03*
D11*
X121355970Y-94408736D03*
D10*
X125181190Y-95578233D03*
D11*
X125181190Y-95578233D03*
D12*
X120203211Y-85011071D03*
X116694752Y-96486733D03*
X132348280Y-88724193D03*
X128839821Y-100199855D03*
%TD*%
D10*
%TO.C,CPG1316*%
X125918265Y-137631240D03*
D11*
X125918265Y-137631240D03*
D10*
X129743485Y-138800737D03*
D11*
X129743485Y-138800737D03*
D12*
X124765506Y-128233575D03*
X121257047Y-139709237D03*
X136910575Y-131946697D03*
X133402116Y-143422359D03*
%TD*%
D13*
%TO.C,D34*%
X226409371Y-133728371D03*
X229565183Y-132763545D03*
%TD*%
D14*
%TO.C,D26*%
X275754948Y-112779315D03*
X278982840Y-112093213D03*
%TD*%
D10*
%TO.C,CPG1316*%
X231723025Y-95870610D03*
D15*
X231723025Y-95870610D03*
D10*
X235548241Y-94701125D03*
D15*
X235548241Y-94701125D03*
D16*
X225512235Y-88724201D03*
X229020699Y-100199859D03*
X237657303Y-85011087D03*
X241165767Y-96486745D03*
%TD*%
D10*
%TO.C,CPG1316*%
X73399419Y-133778081D03*
D17*
X73399419Y-133778081D03*
D10*
X77312005Y-134609733D03*
D17*
X77312005Y-134609733D03*
D18*
X71431987Y-124516648D03*
X68937047Y-136254415D03*
X83854459Y-127157131D03*
X81359519Y-138894898D03*
%TD*%
D10*
%TO.C,CPG1316*%
X103636928Y-94219956D03*
D11*
X103636928Y-94219956D03*
D10*
X107462148Y-95389453D03*
D11*
X107462148Y-95389453D03*
D12*
X102484169Y-84822291D03*
X98975710Y-96297953D03*
X114629238Y-88535413D03*
X111120779Y-100011075D03*
%TD*%
D19*
%TO.C,D10*%
X113792381Y-122055400D03*
X116948179Y-123020220D03*
%TD*%
D13*
%TO.C,D29*%
X253661051Y-106574240D03*
X256816863Y-105609414D03*
%TD*%
D14*
%TO.C,D25*%
X279289452Y-129407823D03*
X282517344Y-128721721D03*
%TD*%
D19*
%TO.C,D16*%
X143967773Y-139646471D03*
X147123571Y-140611291D03*
%TD*%
D10*
%TO.C,CPG1316*%
X227160720Y-139093119D03*
D15*
X227160720Y-139093119D03*
D10*
X230985936Y-137923634D03*
D15*
X230985936Y-137923634D03*
D16*
X220949930Y-131946710D03*
X224458394Y-143422368D03*
X233094998Y-128233596D03*
X236603462Y-139709254D03*
%TD*%
D10*
%TO.C,CPG1316*%
X217600044Y-164253920D03*
D20*
X217600044Y-164253920D03*
D10*
X221308784Y-162755491D03*
D20*
X221308784Y-162755491D03*
D21*
X210790042Y-157676010D03*
X215285319Y-168802216D03*
X222565281Y-152918508D03*
X227060558Y-164044714D03*
%TD*%
D19*
%TO.C,D9*%
X106013978Y-89352235D03*
X109169776Y-90317055D03*
%TD*%
D22*
%TO.C,D3*%
X65783650Y-91930199D03*
X69011564Y-92616311D03*
%TD*%
D10*
%TO.C,CPG1316*%
X151531348Y-111999824D03*
D11*
X151531348Y-111999824D03*
D10*
X155356568Y-113169321D03*
D11*
X155356568Y-113169321D03*
D12*
X150378589Y-102602159D03*
X146870130Y-114077821D03*
X162523658Y-106315281D03*
X159015199Y-117790943D03*
%TD*%
D22*
%TO.C,D2*%
X62249151Y-108558712D03*
X65477065Y-109244824D03*
%TD*%
D23*
%TO.C,D21*%
X155828154Y-167394794D03*
X158463648Y-169380762D03*
%TD*%
D10*
%TO.C,CPG1316*%
X76933934Y-117149575D03*
D17*
X76933934Y-117149575D03*
D10*
X80846520Y-117981227D03*
D17*
X80846520Y-117981227D03*
D18*
X74966502Y-107888142D03*
X72471562Y-119625909D03*
X87388974Y-110528625D03*
X84894034Y-122266392D03*
%TD*%
D13*
%TO.C,D35*%
X221439059Y-117471188D03*
X224594871Y-116506362D03*
%TD*%
D10*
%TO.C,CPG1316*%
X222190398Y-122835938D03*
D15*
X222190398Y-122835938D03*
D10*
X226015614Y-121666453D03*
D15*
X226015614Y-121666453D03*
D16*
X215979608Y-115689529D03*
X219488072Y-127165187D03*
X228124676Y-111976415D03*
X231633140Y-123452073D03*
%TD*%
D19*
%TO.C,D12*%
X123733006Y-89541036D03*
X126888804Y-90505856D03*
%TD*%
D10*
%TO.C,CPG1316*%
X151929596Y-171155935D03*
D24*
X151929596Y-171155935D03*
D10*
X155124138Y-173563189D03*
D24*
X155124138Y-173563189D03*
D25*
X146838772Y-171514372D03*
X154060553Y-161930746D03*
X156981445Y-179157422D03*
X164203226Y-169573796D03*
%TD*%
D14*
%TO.C,D23*%
X292383464Y-109244816D03*
X295611356Y-108558714D03*
%TD*%
D13*
%TO.C,D33*%
X230971694Y-90505866D03*
X234127506Y-89541040D03*
%TD*%
D26*
%TO.C,JST1*%
X164974996Y-118674999D03*
D27*
X166974992Y-118675007D03*
%TD*%
D22*
%TO.C,D4*%
X75343167Y-128721726D03*
X78571081Y-129407838D03*
%TD*%
D13*
%TO.C,D36*%
X216468735Y-101214007D03*
X219624547Y-100249181D03*
%TD*%
D28*
%TO.C,D41*%
X216384019Y-158975078D03*
X219443715Y-157738874D03*
%TD*%
D10*
%TO.C,CPG1316*%
X60305399Y-113615073D03*
D17*
X60305399Y-113615073D03*
D10*
X64217985Y-114446725D03*
D17*
X64217985Y-114446725D03*
D18*
X58337967Y-104353640D03*
X55843027Y-116091407D03*
X70760439Y-106994123D03*
X68265499Y-118731890D03*
%TD*%
D10*
%TO.C,CPG1316*%
X98666608Y-110477127D03*
D11*
X98666608Y-110477127D03*
D10*
X102491828Y-111646624D03*
D11*
X102491828Y-111646624D03*
D12*
X97513849Y-101079462D03*
X94005390Y-112555124D03*
X109658918Y-104792584D03*
X106150459Y-116268246D03*
%TD*%
D10*
%TO.C,CPG1316*%
X201547649Y-113461690D03*
D15*
X201547649Y-113461690D03*
D10*
X205372865Y-112292205D03*
D15*
X205372865Y-112292205D03*
D16*
X195336859Y-106315281D03*
X198845323Y-117790939D03*
X207481927Y-102602167D03*
X210990391Y-114077825D03*
%TD*%
D10*
%TO.C,CPG1316*%
X241663664Y-128384964D03*
D15*
X241663664Y-128384964D03*
D10*
X245488880Y-127215479D03*
D15*
X245488880Y-127215479D03*
D16*
X235452874Y-121238555D03*
X238961338Y-132714213D03*
X247597942Y-117525441D03*
X251106406Y-129001099D03*
%TD*%
D10*
%TO.C,CPG1316*%
X211488277Y-145976056D03*
D15*
X211488277Y-145976056D03*
D10*
X215313493Y-144806571D03*
D15*
X215313493Y-144806571D03*
D16*
X205277487Y-138829647D03*
X208785951Y-150305305D03*
X217422555Y-135116533D03*
X220931019Y-146592191D03*
%TD*%
D10*
%TO.C,CPG1316*%
X236693345Y-112127788D03*
D15*
X236693345Y-112127788D03*
D10*
X240518561Y-110958303D03*
D15*
X240518561Y-110958303D03*
D16*
X230482555Y-104981379D03*
X233991019Y-116457037D03*
X242627623Y-101268265D03*
X246136087Y-112743923D03*
%TD*%
D19*
%TO.C,D14*%
X133265656Y-116506370D03*
X136421454Y-117471190D03*
%TD*%
D29*
%TO.C,D42*%
X199396862Y-169380780D03*
X202032368Y-167394770D03*
%TD*%
D13*
%TO.C,D30*%
X248690736Y-90317067D03*
X251846548Y-89352241D03*
%TD*%
D14*
%TO.C,D22*%
X295917965Y-125873331D03*
X299145857Y-125187229D03*
%TD*%
D19*
%TO.C,D7*%
X96073337Y-121866594D03*
X99229135Y-122831414D03*
%TD*%
D10*
%TO.C,CPG1316*%
X289129865Y-98026131D03*
D30*
X289129865Y-98026131D03*
D10*
X293042457Y-97194484D03*
D30*
X293042457Y-97194484D03*
D31*
X283565560Y-90365618D03*
X286060499Y-102103386D03*
X295988039Y-87725138D03*
X298482978Y-99462906D03*
%TD*%
D10*
%TO.C,CPG1316*%
X279570342Y-134817633D03*
D30*
X279570342Y-134817633D03*
D10*
X283482934Y-133985986D03*
D30*
X283482934Y-133985986D03*
D31*
X274006037Y-127157120D03*
X276500976Y-138894888D03*
X286428516Y-124516640D03*
X288923455Y-136254408D03*
%TD*%
D13*
%TO.C,D28*%
X258631370Y-122831426D03*
X261787182Y-121866600D03*
%TD*%
%TO.C,D31*%
X240912332Y-123020220D03*
X244068144Y-122055394D03*
%TD*%
D10*
%TO.C,CPG1316*%
X119114534Y-156464968D03*
D11*
X119114534Y-156464968D03*
D10*
X122939754Y-157634465D03*
D11*
X122939754Y-157634465D03*
D12*
X117961775Y-147067303D03*
X114453316Y-158542965D03*
X130106844Y-150780425D03*
X126598385Y-162256087D03*
%TD*%
D22*
%TO.C,D6*%
X82412158Y-95464704D03*
X85640072Y-96150816D03*
%TD*%
D10*
%TO.C,CPG1316*%
X217220077Y-106578751D03*
D15*
X217220077Y-106578751D03*
D10*
X221045293Y-105409266D03*
D15*
X221045293Y-105409266D03*
D16*
X211009287Y-99432342D03*
X214517751Y-110908000D03*
X223154355Y-95719228D03*
X226662819Y-107194886D03*
%TD*%
D13*
%TO.C,D37*%
X210736939Y-140611296D03*
X213892751Y-139646470D03*
%TD*%
D10*
%TO.C,CPG1316*%
X292664349Y-114654635D03*
D30*
X292664349Y-114654635D03*
D10*
X296576941Y-113822988D03*
D30*
X296576941Y-113822988D03*
D31*
X287100044Y-106994122D03*
X289594983Y-118731890D03*
X299522523Y-104353642D03*
X302017462Y-116091410D03*
%TD*%
D10*
%TO.C,CPG1316*%
X141590710Y-144514184D03*
D11*
X141590710Y-144514184D03*
D10*
X145415930Y-145683681D03*
D11*
X145415930Y-145683681D03*
D12*
X140437951Y-135116519D03*
X136929492Y-146592181D03*
X152583020Y-138829641D03*
X149074561Y-150305303D03*
%TD*%
D10*
%TO.C,CPG1316*%
X130888600Y-121374074D03*
D11*
X130888600Y-121374074D03*
D10*
X134713820Y-122543571D03*
D11*
X134713820Y-122543571D03*
D12*
X129735841Y-111976409D03*
X126227382Y-123452071D03*
X141880910Y-115689531D03*
X138372451Y-127165193D03*
%TD*%
D13*
%TO.C,D40*%
X233213117Y-152562090D03*
X236368929Y-151597264D03*
%TD*%
D10*
%TO.C,CPG1316*%
X93696285Y-126734318D03*
D11*
X93696285Y-126734318D03*
D10*
X97521505Y-127903815D03*
D11*
X97521505Y-127903815D03*
D12*
X92543526Y-117336653D03*
X89035067Y-128812315D03*
X104688595Y-121049775D03*
X101180136Y-132525437D03*
%TD*%
D22*
%TO.C,D5*%
X78877658Y-112093219D03*
X82105572Y-112779331D03*
%TD*%
D10*
%TO.C,CPG1316*%
X233964450Y-157926831D03*
D15*
X233964450Y-157926831D03*
D10*
X237789666Y-156757346D03*
D15*
X237789666Y-156757346D03*
D16*
X227753660Y-150780422D03*
X231262124Y-162256080D03*
X239898728Y-147067308D03*
X243407192Y-158542966D03*
%TD*%
D10*
%TO.C,CPG1316*%
X276035856Y-118189138D03*
D30*
X276035856Y-118189138D03*
D10*
X279948448Y-117357491D03*
D30*
X279948448Y-117357491D03*
D31*
X270471551Y-110528625D03*
X272966490Y-122266393D03*
X282894030Y-107888145D03*
X285388969Y-119625913D03*
%TD*%
D19*
%TO.C,D19*%
X121491592Y-151597273D03*
X124647390Y-152562093D03*
%TD*%
D10*
%TO.C,CPG1316*%
X63839904Y-96986563D03*
D17*
X63839904Y-96986563D03*
D10*
X67752490Y-97818215D03*
D17*
X67752490Y-97818215D03*
D18*
X61872472Y-87725130D03*
X59377532Y-99462897D03*
X74294944Y-90365613D03*
X71800004Y-102103380D03*
%TD*%
D10*
%TO.C,CPG1316*%
X80468420Y-100521058D03*
D17*
X80468420Y-100521058D03*
D10*
X84381006Y-101352710D03*
D17*
X84381006Y-101352710D03*
D18*
X78500988Y-91259625D03*
X76006048Y-102997392D03*
X90923460Y-93900108D03*
X88428520Y-105637875D03*
%TD*%
D13*
%TO.C,D38*%
X205766625Y-124354120D03*
X208922437Y-123389294D03*
%TD*%
D10*
%TO.C,CPG1316*%
X135624550Y-162380893D03*
D32*
X135624550Y-162380893D03*
D10*
X139333278Y-163879313D03*
D32*
X139333278Y-163879313D03*
D33*
X135295237Y-152918515D03*
X130799960Y-164044716D03*
X147070470Y-157676020D03*
X142575193Y-168802221D03*
%TD*%
D34*
%TO.C,RST1*%
X167074989Y-115349996D03*
X167075005Y-108850000D03*
%TD*%
D10*
%TO.C,CPG1316*%
X206517954Y-129718864D03*
D15*
X206517954Y-129718864D03*
D10*
X210343170Y-128549379D03*
D15*
X210343170Y-128549379D03*
D16*
X200307164Y-122572455D03*
X203815628Y-134048113D03*
X212452232Y-118859341D03*
X215960696Y-130334999D03*
%TD*%
D10*
%TO.C,CPG1316*%
X259382697Y-128196183D03*
D15*
X259382697Y-128196183D03*
D10*
X263207913Y-127026698D03*
D15*
X263207913Y-127026698D03*
D16*
X253171907Y-121049774D03*
X256680371Y-132525432D03*
X265316975Y-117336660D03*
X268825439Y-128812318D03*
%TD*%
D10*
%TO.C,CPG1316*%
X146561033Y-128257002D03*
D11*
X146561033Y-128257002D03*
D10*
X150386253Y-129426499D03*
D11*
X150386253Y-129426499D03*
D12*
X145408274Y-118859337D03*
X141899815Y-130334999D03*
X157553343Y-122572459D03*
X154044884Y-134048121D03*
%TD*%
D19*
%TO.C,D13*%
X128295330Y-132763543D03*
X131451128Y-133728363D03*
%TD*%
D13*
%TO.C,D39*%
X200796293Y-108096936D03*
X203952105Y-107132110D03*
%TD*%
D10*
%TO.C,CPG1316*%
X296198851Y-131283137D03*
D30*
X296198851Y-131283137D03*
D10*
X300111443Y-130451490D03*
D30*
X300111443Y-130451490D03*
D31*
X290634546Y-123622624D03*
X293129485Y-135360392D03*
X303057025Y-120982144D03*
X305551964Y-132719912D03*
%TD*%
D35*
%TO.C,PWR1*%
X142431955Y-93311295D03*
X136109979Y-89661282D03*
D36*
X141124998Y-91274993D03*
X138526928Y-89775000D03*
D35*
X137214958Y-87747368D03*
X143536956Y-91397370D03*
D37*
X140894515Y-93174207D03*
X138296440Y-91674213D03*
X136997408Y-90924209D03*
%TD*%
D14*
%TO.C,D27*%
X272220457Y-96150800D03*
X275448349Y-95464698D03*
%TD*%
D10*
%TO.C,CPG1316*%
X135858918Y-105116909D03*
D11*
X135858918Y-105116909D03*
D10*
X139684138Y-106286406D03*
D11*
X139684138Y-106286406D03*
D12*
X134706159Y-95719244D03*
X131197700Y-107194906D03*
X146851228Y-99432366D03*
X143342769Y-110908028D03*
%TD*%
D19*
%TO.C,D15*%
X138235972Y-100249180D03*
X141391770Y-101214000D03*
%TD*%
%TO.C,D17*%
X148938086Y-123389299D03*
X152093884Y-124354119D03*
%TD*%
%TO.C,D8*%
X101043664Y-105609426D03*
X104199462Y-106574246D03*
%TD*%
%TO.C,D11*%
X118762691Y-105798215D03*
X121918489Y-106763035D03*
%TD*%
D13*
%TO.C,D32*%
X235942018Y-106763040D03*
X239097830Y-105798214D03*
%TD*%
D22*
%TO.C,D1*%
X58714655Y-125187215D03*
X61942569Y-125873327D03*
%TD*%
D10*
%TO.C,CPG1316*%
X249442059Y-95681812D03*
D15*
X249442059Y-95681812D03*
D10*
X253267275Y-94512327D03*
D15*
X253267275Y-94512327D03*
D16*
X243231269Y-88535403D03*
X246739733Y-100011061D03*
X255376337Y-84822289D03*
X258884801Y-96297947D03*
%TD*%
D10*
%TO.C,CPG1316*%
X111415320Y-126923112D03*
D11*
X111415320Y-126923112D03*
D10*
X115240540Y-128092609D03*
D11*
X115240540Y-128092609D03*
D12*
X110262561Y-117525447D03*
X106754102Y-129001109D03*
X122407630Y-121238569D03*
X118899171Y-132714231D03*
%TD*%
D19*
%TO.C,D18*%
X153908406Y-107132117D03*
X157064204Y-108096937D03*
%TD*%
D10*
%TO.C,CPG1316*%
X201937726Y-174165016D03*
D38*
X201937726Y-174165016D03*
D10*
X205132269Y-171757754D03*
D38*
X205132269Y-171757754D03*
D39*
X193657276Y-169573799D03*
X200879061Y-179157431D03*
X203799951Y-161930749D03*
X211021736Y-171514381D03*
%TD*%
D10*
%TO.C,CPG1316*%
X272501356Y-101560627D03*
D30*
X272501356Y-101560627D03*
D10*
X276413948Y-100728980D03*
D30*
X276413948Y-100728980D03*
D31*
X266937051Y-93900114D03*
X269431990Y-105637882D03*
X279359530Y-91259634D03*
X281854469Y-102997402D03*
%TD*%
D40*
%TO.C,D20*%
X138416788Y-157738875D03*
X141476508Y-158975073D03*
%TD*%
D14*
%TO.C,D24*%
X288848962Y-92616309D03*
X292076854Y-91930207D03*
%TD*%
D10*
%TO.C,CPG1316*%
X56770911Y-130243580D03*
D17*
X56770911Y-130243580D03*
D10*
X60683497Y-131075232D03*
D17*
X60683497Y-131075232D03*
D18*
X54803479Y-120982147D03*
X52308539Y-132719914D03*
X67225951Y-123622630D03*
X64731011Y-135360397D03*
%TD*%
D34*
%TO.C,MCU1*%
X186524994Y-107834998D03*
X186524992Y-110374996D03*
X186524994Y-112915005D03*
X186524996Y-115455001D03*
X186525000Y-117995011D03*
X186525001Y-120534997D03*
X186524989Y-123075002D03*
X186524997Y-125614999D03*
X186524988Y-128154999D03*
X186524996Y-130695008D03*
X186524991Y-133234992D03*
X186524993Y-135775007D03*
X171284995Y-135775001D03*
X171284994Y-133235000D03*
X171284996Y-130695002D03*
X171284994Y-128154993D03*
X171284992Y-125614997D03*
X171284988Y-123074987D03*
X171284987Y-120535001D03*
X171284999Y-117994996D03*
X171284991Y-115454999D03*
X171285000Y-112914999D03*
X171284992Y-110374990D03*
X171284997Y-107835006D03*
%TD*%
D10*
%TO.C,CPG1316*%
X254412386Y-111938987D03*
D15*
X254412386Y-111938987D03*
D10*
X258237602Y-110769502D03*
D15*
X258237602Y-110769502D03*
D16*
X248201596Y-104792578D03*
X251710060Y-116268236D03*
X260346664Y-101079464D03*
X263855128Y-112555122D03*
%TD*%
M02*
