%TF.GenerationSoftware,KiCad,Pcbnew,8.0.6*%
%TF.CreationDate,2025-05-26T13:53:34+02:00*%
%TF.ProjectId,main-rounded,6d61696e-2d72-46f7-956e-6465642e6b69,v1.0.0*%
%TF.SameCoordinates,Original*%
%TF.FileFunction,Copper,L1,Top*%
%TF.FilePolarity,Positive*%
%FSLAX46Y46*%
G04 Gerber Fmt 4.6, Leading zero omitted, Abs format (unit mm)*
G04 Created by KiCad (PCBNEW 8.0.6) date 2025-05-26 13:53:34*
%MOMM*%
%LPD*%
G01*
G04 APERTURE LIST*
G04 Aperture macros list*
%AMRoundRect*
0 Rectangle with rounded corners*
0 $1 Rounding radius*
0 $2 $3 $4 $5 $6 $7 $8 $9 X,Y pos of 4 corners*
0 Add a 4 corners polygon primitive as box body*
4,1,4,$2,$3,$4,$5,$6,$7,$8,$9,$2,$3,0*
0 Add four circle primitives for the rounded corners*
1,1,$1+$1,$2,$3*
1,1,$1+$1,$4,$5*
1,1,$1+$1,$6,$7*
1,1,$1+$1,$8,$9*
0 Add four rect primitives between the rounded corners*
20,1,$1+$1,$2,$3,$4,$5,0*
20,1,$1+$1,$4,$5,$6,$7,0*
20,1,$1+$1,$6,$7,$8,$9,0*
20,1,$1+$1,$8,$9,$2,$3,0*%
%AMRotRect*
0 Rectangle, with rotation*
0 The origin of the aperture is its center*
0 $1 length*
0 $2 width*
0 $3 Rotation angle, in degrees counterclockwise*
0 Add horizontal line*
21,1,$1,$2,0,0,$3*%
G04 Aperture macros list end*
%TA.AperFunction,Conductor*%
%ADD10C,0.200000*%
%TD*%
%TA.AperFunction,ComponentPad*%
%ADD11RotRect,1.778000X1.778000X343.000000*%
%TD*%
%TA.AperFunction,SMDPad,CuDef*%
%ADD12RotRect,0.900000X1.200000X343.000000*%
%TD*%
%TA.AperFunction,ComponentPad*%
%ADD13C,1.905000*%
%TD*%
%TA.AperFunction,ComponentPad*%
%ADD14RotRect,1.778000X1.778000X17.000000*%
%TD*%
%TA.AperFunction,SMDPad,CuDef*%
%ADD15RotRect,0.900000X1.200000X17.000000*%
%TD*%
%TA.AperFunction,ComponentPad*%
%ADD16RotRect,1.778000X1.778000X348.000000*%
%TD*%
%TA.AperFunction,SMDPad,CuDef*%
%ADD17RotRect,0.900000X1.200000X348.000000*%
%TD*%
%TA.AperFunction,ComponentPad*%
%ADD18C,3.800000*%
%TD*%
%TA.AperFunction,ComponentPad*%
%ADD19RotRect,1.778000X1.778000X12.000000*%
%TD*%
%TA.AperFunction,SMDPad,CuDef*%
%ADD20RotRect,0.900000X1.200000X12.000000*%
%TD*%
%TA.AperFunction,SMDPad,CuDef*%
%ADD21RotRect,0.700000X1.500000X151.000000*%
%TD*%
%TA.AperFunction,SMDPad,CuDef*%
%ADD22RotRect,1.000000X0.800000X151.000000*%
%TD*%
%TA.AperFunction,ComponentPad*%
%ADD23RotRect,1.778000X1.778000X323.000000*%
%TD*%
%TA.AperFunction,SMDPad,CuDef*%
%ADD24RotRect,0.900000X1.200000X323.000000*%
%TD*%
%TA.AperFunction,ComponentPad*%
%ADD25RoundRect,0.240000X-0.360000X-0.635000X0.360000X-0.635000X0.360000X0.635000X-0.360000X0.635000X0*%
%TD*%
%TA.AperFunction,ComponentPad*%
%ADD26O,1.200000X1.750000*%
%TD*%
%TA.AperFunction,ComponentPad*%
%ADD27RotRect,1.778000X1.778000X37.000000*%
%TD*%
%TA.AperFunction,SMDPad,CuDef*%
%ADD28RotRect,0.900000X1.200000X37.000000*%
%TD*%
%TA.AperFunction,ComponentPad*%
%ADD29R,1.498000X1.498000*%
%TD*%
%TA.AperFunction,ComponentPad*%
%ADD30C,1.498000*%
%TD*%
%TA.AperFunction,ComponentPad*%
%ADD31RotRect,1.778000X1.778000X22.000000*%
%TD*%
%TA.AperFunction,SMDPad,CuDef*%
%ADD32RotRect,0.900000X1.200000X22.000000*%
%TD*%
%TA.AperFunction,ComponentPad*%
%ADD33RotRect,1.778000X1.778000X338.000000*%
%TD*%
%TA.AperFunction,SMDPad,CuDef*%
%ADD34RotRect,0.900000X1.200000X338.000000*%
%TD*%
%TA.AperFunction,ComponentPad*%
%ADD35C,1.700000*%
%TD*%
%TA.AperFunction,ViaPad*%
%ADD36C,0.600000*%
%TD*%
G04 APERTURE END LIST*
D10*
%TO.N,P4*%
X152500000Y-111000000D02*
X160000000Y-113000000D01*
X74000000Y-96500000D02*
X93000000Y-100500000D01*
X142500000Y-105000000D02*
X150500000Y-108000000D01*
X101500000Y-93000000D02*
X105000000Y-93500000D01*
X105000000Y-93500000D02*
X107000000Y-93000000D01*
X150500000Y-108000000D02*
X152500000Y-111000000D01*
%TD*%
D11*
%TO.P,D14,1*%
%TO.N,P20*%
X136978943Y-124283215D03*
D12*
X139044561Y-124914738D03*
%TO.P,D14,2*%
%TO.N,index_home*%
X142200367Y-125879564D03*
D13*
X144265985Y-126511087D03*
%TD*%
D11*
%TO.P,D18,1*%
%TO.N,P21*%
X159826681Y-114537402D03*
D12*
X161892299Y-115168925D03*
%TO.P,D18,2*%
%TO.N,inner_top*%
X165048105Y-116133751D03*
D13*
X167113723Y-116765274D03*
%TD*%
D14*
%TO.P,D32,1*%
%TO.N,P0*%
X252338500Y-115218197D03*
D15*
X254404118Y-114586674D03*
%TO.P,D32,2*%
%TO.N,mirror_middle_home*%
X257559924Y-113621848D03*
D13*
X259625542Y-112990325D03*
%TD*%
D14*
%TO.P,D31,1*%
%TO.N,P2*%
X257601191Y-132431682D03*
D15*
X259666809Y-131800159D03*
%TO.P,D31,2*%
%TO.N,mirror_middle_bottom*%
X262822615Y-130835333D03*
D13*
X264888233Y-130203810D03*
%TD*%
D11*
%TO.P,D11,1*%
%TO.N,P20*%
X120563383Y-112990325D03*
D12*
X122629001Y-113621848D03*
%TO.P,D11,2*%
%TO.N,middle_home*%
X125784807Y-114586674D03*
D13*
X127850425Y-115218197D03*
%TD*%
D14*
%TO.P,D34,1*%
%TO.N,P2*%
X241185631Y-143724573D03*
D15*
X243251249Y-143093050D03*
%TO.P,D34,2*%
%TO.N,mirror_index_bottom*%
X246407055Y-142128224D03*
D13*
X248472673Y-141496701D03*
%TD*%
D16*
%TO.P,D6,1*%
%TO.N,P21*%
X81070573Y-101006878D03*
D17*
X83183371Y-101455969D03*
%TO.P,D6,2*%
%TO.N,pinky_top*%
X86411259Y-102142077D03*
D13*
X88524057Y-102591168D03*
%TD*%
D18*
%TO.P,H3,*%
%TO.N,*%
X67861043Y-136843582D03*
%TD*%
D14*
%TO.P,D35,1*%
%TO.N,P0*%
X235922940Y-126511087D03*
D15*
X237988558Y-125879564D03*
%TO.P,D35,2*%
%TO.N,mirror_index_home*%
X241144364Y-124914738D03*
D13*
X243209982Y-124283215D03*
%TD*%
D11*
%TO.P,D7,1*%
%TO.N,P19*%
X95669044Y-129430271D03*
D12*
X97734662Y-130061794D03*
%TO.P,D7,2*%
%TO.N,ring_bottom*%
X100890468Y-131026620D03*
D13*
X102956086Y-131658143D03*
%TD*%
D18*
%TO.P,H9,*%
%TO.N,*%
X169921428Y-121639132D03*
%TD*%
D19*
%TO.P,D27,1*%
%TO.N,P1*%
X291664869Y-102591168D03*
D20*
X293777667Y-102142077D03*
%TO.P,D27,2*%
%TO.N,mirror_pinky_top*%
X297005555Y-101455969D03*
D13*
X299118353Y-101006878D03*
%TD*%
D16*
%TO.P,D5,1*%
%TO.N,P20*%
X77328162Y-118613535D03*
D17*
X79440960Y-119062626D03*
%TO.P,D5,2*%
%TO.N,pinky_home*%
X82668848Y-119748734D03*
D13*
X84781646Y-120197825D03*
%TD*%
D14*
%TO.P,D33,1*%
%TO.N,P1*%
X247075809Y-98004711D03*
D15*
X249141427Y-97373188D03*
%TO.P,D33,2*%
%TO.N,mirror_middle_top*%
X252297233Y-96408362D03*
D13*
X254362851Y-95776839D03*
%TD*%
D18*
%TO.P,H7,*%
%TO.N,*%
X260090871Y-95803284D03*
%TD*%
D16*
%TO.P,D3,1*%
%TO.N,P21*%
X62485768Y-97056556D03*
D17*
X64598566Y-97505647D03*
%TO.P,D3,2*%
%TO.N,outer_top*%
X67826454Y-98191755D03*
D13*
X69939252Y-98640846D03*
%TD*%
D18*
%TO.P,H2,*%
%TO.N,*%
X304843061Y-101630268D03*
%TD*%
D19*
%TO.P,D22,1*%
%TO.N,P2*%
X317734494Y-133854159D03*
D20*
X319847292Y-133405068D03*
%TO.P,D22,2*%
%TO.N,mirror_outer_bottom*%
X323075180Y-132718960D03*
D13*
X325187978Y-132269869D03*
%TD*%
D14*
%TO.P,D40,1*%
%TO.N,P3*%
X243792589Y-165932764D03*
D15*
X245858207Y-165301241D03*
%TO.P,D40,2*%
%TO.N,mirror_near_thumb*%
X249014013Y-164336415D03*
D13*
X251079631Y-163704892D03*
%TD*%
D19*
%TO.P,D25,1*%
%TO.N,P2*%
X299149690Y-137804482D03*
D20*
X301262488Y-137355391D03*
%TO.P,D25,2*%
%TO.N,mirror_pinky_bottom*%
X304490376Y-136669283D03*
D13*
X306603174Y-136220192D03*
%TD*%
D11*
%TO.P,D15,1*%
%TO.N,P21*%
X142241634Y-107069730D03*
D12*
X144307252Y-107701253D03*
%TO.P,D15,2*%
%TO.N,index_top*%
X147463058Y-108666079D03*
D13*
X149528676Y-109297602D03*
%TD*%
D11*
%TO.P,D17,1*%
%TO.N,P20*%
X154563990Y-131750887D03*
D12*
X156629608Y-132382410D03*
%TO.P,D17,2*%
%TO.N,inner_home*%
X159785414Y-133347236D03*
D13*
X161851032Y-133978759D03*
%TD*%
D11*
%TO.P,D13,1*%
%TO.N,P19*%
X131716253Y-141496701D03*
D12*
X133781871Y-142128224D03*
%TO.P,D13,2*%
%TO.N,index_bottom*%
X136937677Y-143093050D03*
D13*
X139003295Y-143724573D03*
%TD*%
D21*
%TO.P,REF\u002A\u002A,1*%
%TO.N,RAW*%
X150619477Y-93621408D03*
%TO.P,REF\u002A\u002A,2*%
%TO.N,Bat+*%
X147995620Y-92166978D03*
%TO.P,REF\u002A\u002A,3*%
%TO.N,N/C*%
X146683690Y-91439763D03*
D22*
%TO.P,REF\u002A\u002A,SH1*%
X152159071Y-93731637D03*
%TO.P,REF\u002A\u002A,SH2*%
X145774349Y-90192526D03*
%TO.P,REF\u002A\u002A,SH3*%
X153225651Y-91807474D03*
%TO.P,REF\u002A\u002A,SH4*%
X146840929Y-88268363D03*
%TD*%
D18*
%TO.P,H5,*%
%TO.N,*%
X120098055Y-95803284D03*
%TD*%
D16*
%TO.P,D2,1*%
%TO.N,P20*%
X58743358Y-114663213D03*
D17*
X60856156Y-115112304D03*
%TO.P,D2,2*%
%TO.N,outer_home*%
X64084044Y-115798412D03*
D13*
X66196842Y-116247503D03*
%TD*%
D14*
%TO.P,D39,1*%
%TO.N,P1*%
X213075202Y-116765274D03*
D15*
X215140820Y-116133751D03*
%TO.P,D39,2*%
%TO.N,mirror_inner_top*%
X218296626Y-115168925D03*
D13*
X220362244Y-114537402D03*
%TD*%
D18*
%TO.P,H10,*%
%TO.N,*%
X210267497Y-121639132D03*
%TD*%
%TO.P,H6,*%
%TO.N,*%
X109572673Y-130230255D03*
%TD*%
D23*
%TO.P,D21,1*%
%TO.N,P18*%
X169408540Y-180454619D03*
D24*
X171133592Y-181754539D03*
%TO.P,D21,2*%
%TO.N,far_thumb*%
X173769090Y-183740529D03*
D13*
X175494142Y-185040449D03*
%TD*%
D19*
%TO.P,D26,1*%
%TO.N,P0*%
X295407279Y-120197825D03*
D20*
X297520077Y-119748734D03*
%TO.P,D26,2*%
%TO.N,mirror_pinky_home*%
X300747965Y-119062626D03*
D13*
X302860763Y-118613535D03*
%TD*%
D14*
%TO.P,D38,1*%
%TO.N,P0*%
X218337893Y-133978759D03*
D15*
X220403511Y-133347236D03*
%TO.P,D38,2*%
%TO.N,mirror_inner_home*%
X223559317Y-132382410D03*
D13*
X225624935Y-131750887D03*
%TD*%
D11*
%TO.P,D19,1*%
%TO.N,P18*%
X129109294Y-163704892D03*
D12*
X131174912Y-164336415D03*
%TO.P,D19,2*%
%TO.N,near_thumb*%
X134330718Y-165301241D03*
D13*
X136396336Y-165932764D03*
%TD*%
D18*
%TO.P,H11,*%
%TO.N,*%
X165145313Y-173437661D03*
%TD*%
D11*
%TO.P,D10,1*%
%TO.N,P19*%
X115300692Y-130203810D03*
D12*
X117366310Y-130835333D03*
%TO.P,D10,2*%
%TO.N,middle_bottom*%
X120522116Y-131800159D03*
D13*
X122587734Y-132431682D03*
%TD*%
D11*
%TO.P,D9,1*%
%TO.N,P21*%
X106194425Y-95003300D03*
D12*
X108260043Y-95634823D03*
%TO.P,D9,2*%
%TO.N,ring_top*%
X111415849Y-96599649D03*
D13*
X113481467Y-97231172D03*
%TD*%
D11*
%TO.P,D12,1*%
%TO.N,P21*%
X125826074Y-95776839D03*
D12*
X127891692Y-96408362D03*
%TO.P,D12,2*%
%TO.N,middle_top*%
X131047498Y-97373188D03*
D13*
X133113116Y-98004711D03*
%TD*%
D16*
%TO.P,D4,1*%
%TO.N,P19*%
X73585752Y-136220192D03*
D17*
X75698550Y-136669283D03*
%TO.P,D4,2*%
%TO.N,pinky_bottom*%
X78926438Y-137355391D03*
D13*
X81039236Y-137804482D03*
%TD*%
D11*
%TO.P,D8,1*%
%TO.N,P20*%
X100931734Y-112216786D03*
D12*
X102997352Y-112848309D03*
%TO.P,D8,2*%
%TO.N,ring_home*%
X106153158Y-113813135D03*
D13*
X108218776Y-114444658D03*
%TD*%
D18*
%TO.P,H8,*%
%TO.N,*%
X270616252Y-130230255D03*
%TD*%
%TO.P,H1,*%
%TO.N,*%
X75345864Y-101630268D03*
%TD*%
D14*
%TO.P,D30,1*%
%TO.N,P1*%
X266707458Y-97231172D03*
D15*
X268773076Y-96599649D03*
%TO.P,D30,2*%
%TO.N,mirror_ring_top*%
X271928882Y-95634823D03*
D13*
X273994500Y-95003300D03*
%TD*%
D25*
%TO.P,JST1,1*%
%TO.N,GND*%
X176000000Y-127000000D03*
D26*
%TO.P,JST1,2*%
%TO.N,Bat+*%
X178000000Y-127000000D03*
%TD*%
D27*
%TO.P,D42,1*%
%TO.N,P3*%
X204694783Y-185040449D03*
D28*
X206419835Y-183740529D03*
%TO.P,D42,2*%
%TO.N,mirror_far_thumb*%
X209055333Y-181754539D03*
D13*
X210780385Y-180454619D03*
%TD*%
D16*
%TO.P,D1,1*%
%TO.N,P19*%
X55000947Y-132269869D03*
D17*
X57113745Y-132718960D03*
%TO.P,D1,2*%
%TO.N,outer_bottom*%
X60341633Y-133405068D03*
D13*
X62454431Y-133854159D03*
%TD*%
D14*
%TO.P,D28,1*%
%TO.N,P2*%
X277232840Y-131658143D03*
D15*
X279298458Y-131026620D03*
%TO.P,D28,2*%
%TO.N,mirror_ring_bottom*%
X282454264Y-130061794D03*
D13*
X284519882Y-129430271D03*
%TD*%
D14*
%TO.P,D37,1*%
%TO.N,P2*%
X223600584Y-151192245D03*
D15*
X225666202Y-150560722D03*
%TO.P,D37,2*%
%TO.N,mirror_inner_bottom*%
X228822008Y-149595896D03*
D13*
X230887626Y-148964373D03*
%TD*%
D29*
%TO.P,REF\u002A\u002A,1*%
%TO.N,GND*%
X175250000Y-119000000D03*
D30*
%TO.P,REF\u002A\u002A,2*%
X175250000Y-112500000D03*
%TO.P,REF\u002A\u002A,3*%
%TO.N,RST*%
X179750000Y-119000000D03*
%TO.P,REF\u002A\u002A,4*%
X179750000Y-112500000D03*
%TD*%
D18*
%TO.P,H4,*%
%TO.N,*%
X312327882Y-136843582D03*
%TD*%
D14*
%TO.P,D36,1*%
%TO.N,P1*%
X230660249Y-109297602D03*
D15*
X232725867Y-108666079D03*
%TO.P,D36,2*%
%TO.N,mirror_index_top*%
X235881673Y-107701253D03*
D13*
X237947291Y-107069730D03*
%TD*%
D19*
%TO.P,D24,1*%
%TO.N,P1*%
X310249673Y-98640846D03*
D20*
X312362471Y-98191755D03*
%TO.P,D24,2*%
%TO.N,mirror_outer_top*%
X315590359Y-97505647D03*
D13*
X317703157Y-97056556D03*
%TD*%
D14*
%TO.P,D29,1*%
%TO.N,P0*%
X271970149Y-114444658D03*
D15*
X274035767Y-113813135D03*
%TO.P,D29,2*%
%TO.N,mirror_ring_home*%
X277191573Y-112848309D03*
D13*
X279257191Y-112216786D03*
%TD*%
D18*
%TO.P,H12,*%
%TO.N,*%
X215043612Y-173437661D03*
%TD*%
D19*
%TO.P,D23,1*%
%TO.N,P0*%
X313992084Y-116247503D03*
D20*
X316104882Y-115798412D03*
%TO.P,D23,2*%
%TO.N,mirror_outer_home*%
X319332770Y-115112304D03*
D13*
X321445568Y-114663213D03*
%TD*%
D31*
%TO.P,D41,1*%
%TO.N,P3*%
X223595295Y-173541722D03*
D32*
X225598012Y-172732572D03*
%TO.P,D41,2*%
%TO.N,mirror_home_thumb*%
X228657718Y-171496370D03*
D13*
X230660435Y-170687220D03*
%TD*%
D11*
%TO.P,D16,1*%
%TO.N,P19*%
X149301300Y-148964373D03*
D12*
X151366918Y-149595896D03*
%TO.P,D16,2*%
%TO.N,inner_bottom*%
X154522724Y-150560722D03*
D13*
X156588342Y-151192245D03*
%TD*%
D33*
%TO.P,D20,1*%
%TO.N,P18*%
X149528490Y-170687220D03*
D34*
X151531207Y-171496370D03*
%TO.P,D20,2*%
%TO.N,home_thumb*%
X154590913Y-172732572D03*
D13*
X156593630Y-173541722D03*
%TD*%
D35*
%TO.P,MCU1,1*%
%TO.N,P1*%
X197740000Y-107460000D03*
%TO.P,MCU1,2*%
%TO.N,P0*%
X197740000Y-110000000D03*
%TO.P,MCU1,3*%
%TO.N,GND*%
X197740000Y-112540000D03*
%TO.P,MCU1,4*%
X197740000Y-115080000D03*
%TO.P,MCU1,5*%
%TO.N,P2*%
X197740000Y-117620000D03*
%TO.P,MCU1,6*%
%TO.N,P3*%
X197740000Y-120160000D03*
%TO.P,MCU1,7*%
%TO.N,P4*%
X197740000Y-122700000D03*
%TO.P,MCU1,8*%
%TO.N,P5*%
X197740000Y-125240000D03*
%TO.P,MCU1,9*%
%TO.N,P6*%
X197740000Y-127780000D03*
%TO.P,MCU1,10*%
%TO.N,P7*%
X197740000Y-130320000D03*
%TO.P,MCU1,11*%
%TO.N,P8*%
X197740000Y-132860000D03*
%TO.P,MCU1,12*%
%TO.N,P9*%
X197740000Y-135400000D03*
%TO.P,MCU1,13*%
%TO.N,P10*%
X182500000Y-135400000D03*
%TO.P,MCU1,14*%
%TO.N,P16*%
X182500000Y-132860000D03*
%TO.P,MCU1,15*%
%TO.N,P14*%
X182500000Y-130320000D03*
%TO.P,MCU1,16*%
%TO.N,P15*%
X182500000Y-127780000D03*
%TO.P,MCU1,17*%
%TO.N,P18*%
X182500000Y-125240000D03*
%TO.P,MCU1,18*%
%TO.N,P19*%
X182500000Y-122700000D03*
%TO.P,MCU1,19*%
%TO.N,P20*%
X182500000Y-120160000D03*
%TO.P,MCU1,20*%
%TO.N,P21*%
X182500000Y-117620000D03*
%TO.P,MCU1,21*%
%TO.N,VCC*%
X182500000Y-115080000D03*
%TO.P,MCU1,22*%
%TO.N,RST*%
X182500000Y-112540000D03*
%TO.P,MCU1,23*%
%TO.N,GND*%
X182500000Y-110000000D03*
%TO.P,MCU1,24*%
%TO.N,RAW*%
X182500000Y-107460000D03*
%TD*%
D36*
%TO.N,P4*%
X171000000Y-117000000D03*
X74000000Y-96500000D03*
X204000000Y-134500000D03*
%TO.N,P5*%
X203000000Y-134500000D03*
X93500000Y-99000000D03*
X171500000Y-116000000D03*
%TO.N,P6*%
X202000000Y-134500000D03*
X172000000Y-115000000D03*
X118500000Y-91500000D03*
%TO.N,P7*%
X172500000Y-114000000D03*
X138000000Y-95500000D03*
X201000000Y-134500000D03*
%TO.N,P8*%
X173000000Y-113000000D03*
X200000000Y-134500000D03*
X154000000Y-103900000D03*
%TO.N,RAW*%
X155500000Y-97000000D03*
%TO.N,GND*%
X177522956Y-121500000D03*
X180500000Y-115750000D03*
%TO.N,Bat+*%
X155500000Y-98000000D03*
%TD*%
D10*
%TO.N,GND*%
X175250000Y-113228868D02*
G75*
G02*
X175625020Y-111875012I2631400J-32D01*
G01*
X179674709Y-111250000D02*
G75*
G03*
X181624996Y-110624995I-9J3355400D01*
G01*
X178075460Y-118924538D02*
G75*
G03*
X178194144Y-118788475I-938060J938038D01*
G01*
X176728868Y-111250000D02*
G75*
G03*
X175625032Y-111875019I32J-1287300D01*
G01*
X178194143Y-118788475D02*
X180500000Y-115750000D01*
X178011477Y-118988521D02*
G75*
G03*
X177522975Y-120167916I1179423J-1179379D01*
G01*
X178075460Y-118924538D02*
X178011477Y-118988521D01*
X177522956Y-121500000D02*
X177522956Y-120167916D01*
X176728868Y-111250000D02*
X179674709Y-111250000D01*
X181625000Y-110625000D02*
X182500000Y-110000000D01*
X175250000Y-113228868D02*
X175250000Y-119000000D01*
%TO.N,RST*%
X179750000Y-112500000D02*
X182500000Y-112540000D01*
%TO.N,P4*%
X123249999Y-94999999D02*
X123226691Y-95046617D01*
X121750000Y-98000000D02*
X122061471Y-97792352D01*
X122673038Y-96980884D02*
X122666666Y-96999999D01*
X165552491Y-114480664D02*
X160000000Y-113000000D01*
X135117178Y-99042948D02*
X134785337Y-98213344D01*
X125250000Y-94000000D02*
X125059016Y-94000000D01*
X97808258Y-96766964D02*
X97691740Y-97233034D01*
X199870000Y-122850000D02*
X197740000Y-122700000D01*
X120098612Y-98500000D02*
X119530776Y-98500000D01*
X96166666Y-100166666D02*
X96666666Y-99916666D01*
X114972852Y-95813947D02*
X107000000Y-93000000D01*
X98250000Y-95250000D02*
X98276393Y-95170820D01*
X116215399Y-97534601D02*
X115951957Y-97103802D01*
X141750000Y-105250000D02*
X142500000Y-105000000D01*
X94754644Y-100500000D02*
X93000000Y-100500000D01*
X129485490Y-94977714D02*
X132765239Y-96108822D01*
X204000000Y-129817622D02*
X204000000Y-134500000D01*
X100185994Y-93328501D02*
X101500000Y-93000000D01*
X137918637Y-101441935D02*
X139178919Y-104277568D01*
X115909639Y-97034601D02*
X115951957Y-97103802D01*
X97250000Y-98750000D02*
X97058925Y-99323223D01*
X126724506Y-94193883D02*
X127500670Y-94401592D01*
X115918519Y-97030547D02*
X115750000Y-96500000D01*
X203058724Y-125382130D02*
X202867217Y-124951239D01*
X117029233Y-98132308D02*
X117500000Y-98250000D01*
X169250000Y-116000000D02*
X171000000Y-117000000D01*
X117029233Y-98132308D02*
G75*
G02*
X116215383Y-97534611I323267J1293108D01*
G01*
X100185994Y-93328501D02*
G75*
G03*
X98999991Y-93999991I619106J-2476599D01*
G01*
X134000000Y-96916666D02*
G75*
G02*
X134785320Y-98213351I-3523700J-3020234D01*
G01*
X115750000Y-96500000D02*
G75*
G03*
X114972843Y-95813972I-1237700J-618900D01*
G01*
X122673038Y-96980884D02*
G75*
G03*
X122916671Y-96000001I-6129238J2043084D01*
G01*
X136500000Y-100250000D02*
G75*
G02*
X137918590Y-101441956I-512600J-2050200D01*
G01*
X135117178Y-99042948D02*
G75*
G03*
X136500013Y-100249949I1871722J748748D01*
G01*
X123249999Y-94999999D02*
G75*
G02*
X123999999Y-94249999I1500001J-750001D01*
G01*
X96916666Y-99666666D02*
G75*
G03*
X97058928Y-99323224I-2345066J1172566D01*
G01*
X117500000Y-98250000D02*
G75*
G03*
X119530776Y-98500003I2030800J8123200D01*
G01*
X140250000Y-105250000D02*
G75*
G02*
X139178911Y-104277571I566800J1700400D01*
G01*
X115918519Y-97030547D02*
G75*
G02*
X115909613Y-97034617I-4719J-1453D01*
G01*
X199870000Y-122850000D02*
G75*
G02*
X202867232Y-124951232I-249600J-3544300D01*
G01*
X98276393Y-95170820D02*
G75*
G02*
X98999996Y-93999996I2841607J-947180D01*
G01*
X98250000Y-95250000D02*
G75*
G03*
X97808260Y-96766964I19527800J-6509300D01*
G01*
X97250000Y-98750000D02*
G75*
G03*
X97691741Y-97233034I-19529500J6509800D01*
G01*
X128498417Y-94672203D02*
G75*
G03*
X127500670Y-94401592I-40659217J-147936497D01*
G01*
X140250000Y-105250000D02*
G75*
G03*
X141750000Y-105250000I750000J2250005D01*
G01*
X169250000Y-116000000D02*
G75*
G03*
X165552490Y-114480666I-7692500J-13461900D01*
G01*
X134000000Y-96916666D02*
G75*
G03*
X132765238Y-96108826I-2007300J-1720534D01*
G01*
X126724506Y-94193883D02*
G75*
G03*
X125250000Y-93999998I-1474506J-5509917D01*
G01*
X122061471Y-97792352D02*
G75*
G03*
X122666688Y-97000006I-852071J1278152D01*
G01*
X123226691Y-95046617D02*
G75*
G03*
X122916661Y-95999999I3015109J-1507583D01*
G01*
X124000000Y-94250000D02*
G75*
G02*
X125059016Y-94000004I1059000J-2118000D01*
G01*
X115918519Y-97030547D02*
G75*
G03*
X115951948Y-97103808I318881J101247D01*
G01*
X129485490Y-94977714D02*
G75*
G03*
X128498418Y-94672200I-5273990J-15292186D01*
G01*
X203058724Y-125382130D02*
G75*
G02*
X203999993Y-129817622I-9979824J-4435470D01*
G01*
X120098612Y-98500000D02*
G75*
G03*
X121749998Y-97999997I-12J2977100D01*
G01*
X94754644Y-100500000D02*
G75*
G03*
X96166659Y-100166651I-44J3157400D01*
G01*
X96916666Y-99666666D02*
G75*
G02*
X96666666Y-99916666I-499966J249966D01*
G01*
%TO.N,outer_bottom*%
X60341633Y-133405068D02*
X62454431Y-133854159D01*
%TO.N,outer_home*%
X64084044Y-115798412D02*
X66196842Y-116247503D01*
%TO.N,outer_top*%
X67826454Y-98191755D02*
X69939252Y-98640846D01*
%TO.N,P5*%
X139646446Y-103292893D02*
X138353553Y-100707106D01*
X103988071Y-92373508D02*
X102889240Y-92236154D01*
X118499999Y-93916666D02*
X118657002Y-93733496D01*
X94968521Y-99035261D02*
X95318181Y-98874999D01*
X93500000Y-99000000D02*
X94000000Y-99125000D01*
X124250000Y-93312500D02*
X123768405Y-93398498D01*
X169138572Y-114950476D02*
X171500000Y-116000000D01*
X129535762Y-93914304D02*
X132980965Y-95292386D01*
X129535762Y-93914304D02*
X129464238Y-93885695D01*
X116500000Y-95249999D02*
X117312815Y-94843592D01*
X136107767Y-98813593D02*
X134777350Y-96485362D01*
X107924129Y-92531260D02*
X108500000Y-92800000D01*
X111570350Y-94023450D02*
X115469669Y-95323223D01*
X129462696Y-93890407D02*
X127721673Y-93442715D01*
X96999039Y-95336855D02*
X96373175Y-97631687D01*
X164749766Y-113357076D02*
X154539189Y-110439768D01*
X121250000Y-93312499D02*
X120511309Y-93127827D01*
X203000000Y-134500000D02*
X203000000Y-128833840D01*
X149533432Y-106858376D02*
X143724285Y-104316875D01*
X201209250Y-126400813D02*
X197740000Y-125240000D01*
X142250000Y-104250000D02*
G75*
G02*
X143724290Y-104316864I650200J-1950500D01*
G01*
X202500000Y-127332699D02*
G75*
G02*
X202999981Y-128833840I-2003400J-1501101D01*
G01*
X129535762Y-93914304D02*
G75*
G03*
X129462695Y-93890411I-221662J-554196D01*
G01*
X99250000Y-92750000D02*
G75*
G02*
X102889243Y-92236130I2767800J-6458100D01*
G01*
X118657002Y-93733496D02*
G75*
G02*
X119500000Y-93166667I1444698J-1238304D01*
G01*
X152000000Y-108750000D02*
G75*
G03*
X149533421Y-106858401I-5067900J-4054400D01*
G01*
X136107767Y-98813593D02*
G75*
G03*
X137250004Y-99749988I1796533J1026593D01*
G01*
X111570350Y-94023450D02*
G75*
G02*
X108500000Y-92800000I9103250J27309750D01*
G01*
X164749766Y-113357076D02*
G75*
G02*
X169138573Y-114950475I-9174566J-32111024D01*
G01*
X137250000Y-99750000D02*
G75*
G02*
X138353547Y-100707109I-603600J-1810700D01*
G01*
X134000000Y-95750000D02*
G75*
G03*
X132980965Y-95292386I-6010400J-12020800D01*
G01*
X94968521Y-99035261D02*
G75*
G02*
X93999993Y-99125030I-612221J1335661D01*
G01*
X152000000Y-108750000D02*
G75*
G03*
X154539186Y-110439779I3917400J3133900D01*
G01*
X118499999Y-93916666D02*
G75*
G02*
X117312825Y-94843611I-2888699J2475966D01*
G01*
X103988071Y-92373508D02*
G75*
G03*
X105999997Y-92299985I779429J6235808D01*
G01*
X107924129Y-92531260D02*
G75*
G03*
X105999998Y-92299992I-1314529J-2816840D01*
G01*
X121250000Y-93312499D02*
G75*
G03*
X123768404Y-93398494I1460100J5840399D01*
G01*
X142250000Y-104250000D02*
G75*
G02*
X140750000Y-104250000I-750000J2250005D01*
G01*
X134000000Y-95750000D02*
G75*
G02*
X134777352Y-96485361I-825700J-1651400D01*
G01*
X95318181Y-98874999D02*
G75*
G03*
X96373196Y-97631693I-801981J1749799D01*
G01*
X139646446Y-103292893D02*
G75*
G03*
X140749998Y-104250007I1707154J853593D01*
G01*
X129462696Y-93890407D02*
G75*
G03*
X129464235Y-93885701I604J2407D01*
G01*
X124250000Y-93312500D02*
G75*
G02*
X127721668Y-93442733I1436500J-8044600D01*
G01*
X202500000Y-127332699D02*
G75*
G03*
X201209249Y-126400816I-2138800J-1602601D01*
G01*
X116500000Y-95249999D02*
G75*
G02*
X115469658Y-95323256I-603600J1207099D01*
G01*
X119500000Y-93166666D02*
G75*
G02*
X120511303Y-93127850I572300J-1717034D01*
G01*
X96999039Y-95336855D02*
G75*
G02*
X99250006Y-92750013I3804261J-1037545D01*
G01*
%TO.N,pinky_bottom*%
X78926438Y-137355391D02*
X81039236Y-137804482D01*
%TO.N,pinky_home*%
X82668848Y-119748734D02*
X84781646Y-120197825D01*
%TO.N,pinky_top*%
X86411259Y-102142077D02*
X88524057Y-102591168D01*
%TO.N,P6*%
X168228035Y-113742678D02*
X172000000Y-115000000D01*
X199603215Y-127590978D02*
X197740000Y-127780000D01*
X167196116Y-109794174D02*
X167283867Y-109925800D01*
X145766964Y-101308258D02*
X146000000Y-101250000D01*
X153000000Y-108250000D02*
X152493864Y-107617330D01*
X162469669Y-109030329D02*
X162000472Y-109499527D01*
X148125525Y-101281381D02*
X148000000Y-101250000D01*
X167535422Y-113168466D02*
X167404761Y-112700000D01*
X124750000Y-92750000D02*
X125479583Y-92645773D01*
X159728260Y-111009510D02*
X159750613Y-111007884D01*
X166157002Y-108914250D02*
X165227606Y-108681901D01*
X202000000Y-129401387D02*
X202000000Y-134500000D01*
X135158978Y-94948723D02*
X134493864Y-94117330D01*
X167358551Y-111288727D02*
X167480875Y-110704911D01*
X149676776Y-105676776D02*
X150000000Y-106000000D01*
X151170820Y-106723606D02*
X151250000Y-106750000D01*
X136499999Y-97250000D02*
X136584772Y-97461931D01*
X158303051Y-110844703D02*
X155527913Y-109977472D01*
X142775217Y-103344956D02*
X143724782Y-103155043D01*
X128292892Y-89853552D02*
X127921954Y-90039022D01*
X131275217Y-89155043D02*
X131750000Y-89249999D01*
X139440415Y-100527635D02*
X140188579Y-102273352D01*
X149560633Y-104757464D02*
X149781380Y-103874474D01*
X121322949Y-92440983D02*
X118500000Y-91500000D01*
X133655855Y-90593093D02*
X134093255Y-91322092D01*
X202000000Y-129401387D02*
G75*
G03*
X201250005Y-127999993I-1684300J-13D01*
G01*
X167535422Y-113168466D02*
G75*
G03*
X167800001Y-113533331I623778J173966D01*
G01*
X149500000Y-102250000D02*
G75*
G02*
X149781402Y-103874479I-1695400J-1130300D01*
G01*
X162469669Y-109030329D02*
G75*
G02*
X163750000Y-108500010I1280331J-1280371D01*
G01*
X168228035Y-113742678D02*
G75*
G02*
X167799997Y-113533338I567565J1702778D01*
G01*
X148000000Y-101250000D02*
G75*
G03*
X146000000Y-101250000I-1000000J-3999987D01*
G01*
X134493864Y-94117330D02*
G75*
G02*
X134249966Y-92749989I1134736J907830D01*
G01*
X152493864Y-107617330D02*
G75*
G03*
X151249988Y-106750035I-2090364J-1672370D01*
G01*
X126750000Y-91500000D02*
G75*
G02*
X125479582Y-92645765I-1487200J371800D01*
G01*
X158303051Y-110844703D02*
G75*
G03*
X159728261Y-111009523I1146349J3668203D01*
G01*
X167358551Y-111288727D02*
G75*
G03*
X167404783Y-112699994I2915749J-610873D01*
G01*
X145766964Y-101308258D02*
G75*
G03*
X144750041Y-102250014I349336J-1397142D01*
G01*
X160978261Y-110478261D02*
G75*
G03*
X162000470Y-109499525I-22012061J24012961D01*
G01*
X167461904Y-110300000D02*
G75*
G02*
X167480880Y-110704912I-772404J-239100D01*
G01*
X167196116Y-109794174D02*
G75*
G03*
X166750001Y-109249999I-2970816J-1980526D01*
G01*
X149500000Y-105250000D02*
G75*
G03*
X149676787Y-105676765I603500J0D01*
G01*
X139440415Y-100527635D02*
G75*
G03*
X138000016Y-98999968I-2805415J-1202265D01*
G01*
X141250000Y-103250000D02*
G75*
G02*
X140188590Y-102273347I556700J1670100D01*
G01*
X136584772Y-97461931D02*
G75*
G03*
X138000000Y-99000000I2730328J1092131D01*
G01*
X153000000Y-108250000D02*
G75*
G03*
X155527921Y-109977447I4090300J3272300D01*
G01*
X143724782Y-103155043D02*
G75*
G03*
X144749992Y-102249997I-267182J1335843D01*
G01*
X133655855Y-90593093D02*
G75*
G03*
X131749994Y-89250030I-2470955J-1482607D01*
G01*
X131275217Y-89155043D02*
G75*
G03*
X129750001Y-89250003I-583817J-2919157D01*
G01*
X151170820Y-106723606D02*
G75*
G02*
X149999997Y-106000003I947180J2841606D01*
G01*
X141250000Y-103250000D02*
G75*
G03*
X142775218Y-103344960I941400J2824200D01*
G01*
X160978261Y-110478261D02*
G75*
G02*
X159750614Y-111007895I-1375361J1500361D01*
G01*
X124750000Y-92750000D02*
G75*
G02*
X121322952Y-92440975I-1059000J7413100D01*
G01*
X148125525Y-101281381D02*
G75*
G02*
X149499977Y-102250015I-565525J-2261919D01*
G01*
X134250000Y-92750000D02*
G75*
G03*
X134093290Y-91322071I-1630700J543600D01*
G01*
X136499999Y-97250000D02*
G75*
G03*
X135158972Y-94948728I-8435199J-3374100D01*
G01*
X167461904Y-110300000D02*
G75*
G03*
X167283861Y-109925804I-1380104J-427200D01*
G01*
X126750000Y-91500000D02*
G75*
G02*
X127921972Y-90039059I2174200J-543600D01*
G01*
X149500000Y-105250000D02*
G75*
G02*
X149560633Y-104757464I2030800J0D01*
G01*
X201250000Y-128000000D02*
G75*
G03*
X199603213Y-127590958I-1393300J-2089900D01*
G01*
X166157002Y-108914250D02*
G75*
G02*
X166749997Y-109250003I-309602J-1238350D01*
G01*
X165227606Y-108681901D02*
G75*
G03*
X163750000Y-108499999I-1477606J-5910399D01*
G01*
X128292892Y-89853552D02*
G75*
G02*
X129750000Y-89250001I4974808J-9949648D01*
G01*
%TO.N,ring_bottom*%
X100890468Y-131026620D02*
X102956086Y-131658143D01*
%TO.N,ring_home*%
X106153158Y-113813135D02*
X108218776Y-114444658D01*
%TO.N,ring_top*%
X111415849Y-96599649D02*
X113481467Y-97231172D01*
%TO.N,P7*%
X150708012Y-103959937D02*
X150844956Y-103275217D01*
X201000000Y-131353553D02*
X201000000Y-134500000D01*
X158267007Y-107705498D02*
X157999999Y-107749999D01*
X167444444Y-109055555D02*
X167589210Y-109236512D01*
X168000000Y-112127321D02*
X168000000Y-112000000D01*
X163983248Y-107830541D02*
X163232992Y-107705498D01*
X138000000Y-95500000D02*
X138250000Y-96500000D01*
X153006230Y-106835410D02*
X155057346Y-107519115D01*
X200147196Y-130476991D02*
X197740000Y-130320000D01*
X166309784Y-108327446D02*
X166000000Y-108250000D01*
X171290569Y-114000000D02*
X172500000Y-114000000D01*
X168133649Y-110965396D02*
X168121267Y-111014928D01*
X169353553Y-113617851D02*
X169750000Y-113750000D01*
X139491116Y-97783176D02*
X140250000Y-98000000D01*
X143746071Y-99013550D02*
X149741554Y-100776927D01*
X168666666Y-113333333D02*
G75*
G02*
X168166666Y-112833333I500034J1000033D01*
G01*
X163983248Y-107830541D02*
G75*
G02*
X165999999Y-108250003I-4243248J-25459259D01*
G01*
X160750000Y-107500000D02*
G75*
G02*
X163232992Y-107705498I0J-15103500D01*
G01*
X155057346Y-107519115D02*
G75*
G03*
X158000002Y-107750019I1936154J5808315D01*
G01*
X168000000Y-112000000D02*
G75*
G02*
X168121269Y-111014929I4061500J0D01*
G01*
X201000000Y-131353553D02*
G75*
G03*
X200749986Y-130750014I-853600J-47D01*
G01*
X168000000Y-112127321D02*
G75*
G03*
X168166674Y-112833329I1578700J21D01*
G01*
X200147196Y-130476991D02*
G75*
G02*
X200750002Y-130749998I-61096J-936909D01*
G01*
X139491116Y-97783176D02*
G75*
G02*
X138249960Y-96500010I490284J1716076D01*
G01*
X169353553Y-113617851D02*
G75*
G02*
X168666665Y-113333335I1658347J4975051D01*
G01*
X168133649Y-110965396D02*
G75*
G03*
X168069415Y-110055567I-1426149J356496D01*
G01*
X171290569Y-114000000D02*
G75*
G02*
X169750002Y-113749995I31J4871800D01*
G01*
X150750000Y-101750000D02*
G75*
G03*
X149741552Y-100776933I-1435400J-478500D01*
G01*
X153006230Y-106835410D02*
G75*
G02*
X151249995Y-105750005I1420770J4262410D01*
G01*
X168069444Y-110055555D02*
G75*
G03*
X167589209Y-109236513I-3055844J-1241445D01*
G01*
X150750000Y-101750000D02*
G75*
G02*
X150844960Y-103275218I-2824200J-941400D01*
G01*
X143746071Y-99013550D02*
G75*
G03*
X140250000Y-98000000I-132489971J-450465750D01*
G01*
X150708012Y-103959937D02*
G75*
G03*
X151250005Y-105749995I1943388J-388663D01*
G01*
X158267007Y-107705498D02*
G75*
G02*
X160750000Y-107500000I2482993J-14898002D01*
G01*
X166309784Y-108327446D02*
G75*
G02*
X167444439Y-109055559I-511184J-2044754D01*
G01*
%TO.N,middle_bottom*%
X120522116Y-131800159D02*
X122587734Y-132431682D01*
%TO.N,middle_home*%
X125784807Y-114586674D02*
X127850425Y-115218197D01*
%TO.N,middle_top*%
X131047498Y-97373188D02*
X133113116Y-98004711D01*
%TO.N,P8*%
X160507399Y-105722071D02*
X154000000Y-103900000D01*
X162500000Y-106250000D02*
X163157002Y-106414250D01*
X169146446Y-109792893D02*
X168864915Y-109229830D01*
X172310086Y-111965130D02*
X173000000Y-113000000D01*
X170250000Y-110750000D02*
X170469669Y-110823223D01*
X200000000Y-134500000D02*
X197740000Y-132860000D01*
X166215419Y-107632977D02*
X164339950Y-107097128D01*
X168864915Y-109229830D02*
G75*
G03*
X167750009Y-108178550I-1992415J-996170D01*
G01*
X166215419Y-107632977D02*
G75*
G02*
X167749999Y-108178574I-3536719J-12378523D01*
G01*
X169146446Y-109792893D02*
G75*
G03*
X170249998Y-110750007I1707154J853593D01*
G01*
X172310086Y-111965130D02*
G75*
G03*
X171499999Y-111250003I-1751486J-1167670D01*
G01*
X163750000Y-106750000D02*
G75*
G03*
X164339949Y-107097132I964800J964800D01*
G01*
X171500000Y-111250000D02*
G75*
G03*
X170469669Y-110823224I-3517700J-7035400D01*
G01*
X160507399Y-105722071D02*
G75*
G03*
X162500000Y-106250001I19829501J70819471D01*
G01*
X163750000Y-106750000D02*
G75*
G03*
X163157003Y-106414246I-902600J-902600D01*
G01*
%TO.N,index_bottom*%
X136937677Y-143093050D02*
X139003295Y-143724573D01*
%TO.N,index_home*%
X142200367Y-125879564D02*
X144265985Y-126511087D01*
%TO.N,index_top*%
X147463058Y-108666079D02*
X149528676Y-109297602D01*
%TO.N,inner_bottom*%
X154522724Y-150560722D02*
X156588342Y-151192245D01*
%TO.N,inner_home*%
X159785414Y-133347236D02*
X161851032Y-133978759D01*
%TO.N,inner_top*%
X165048105Y-116133751D02*
X167113723Y-116765274D01*
%TO.N,near_thumb*%
X134330718Y-165301241D02*
X136396336Y-165932764D01*
%TO.N,home_thumb*%
X154590913Y-172732572D02*
X156593630Y-173541722D01*
%TO.N,far_thumb*%
X173769090Y-183740529D02*
X175494142Y-185040449D01*
%TO.N,mirror_outer_bottom*%
X323075180Y-132718960D02*
X325187978Y-132269869D01*
%TO.N,mirror_outer_home*%
X319332770Y-115112304D02*
X321445568Y-114663213D01*
%TO.N,mirror_outer_top*%
X315590359Y-97505647D02*
X317703157Y-97056556D01*
%TO.N,mirror_pinky_bottom*%
X304490376Y-136669283D02*
X306603174Y-136220192D01*
%TO.N,mirror_pinky_home*%
X300747965Y-119062626D02*
X302860763Y-118613535D01*
%TO.N,mirror_pinky_top*%
X297005555Y-101455969D02*
X299118353Y-101006878D01*
%TO.N,mirror_ring_bottom*%
X282454264Y-130061794D02*
X284519882Y-129430271D01*
%TO.N,mirror_ring_home*%
X277191573Y-112848309D02*
X279257191Y-112216786D01*
%TO.N,mirror_ring_top*%
X271928882Y-95634823D02*
X273994500Y-95003300D01*
%TO.N,mirror_middle_bottom*%
X262822615Y-130835333D02*
X264888233Y-130203810D01*
%TO.N,mirror_middle_home*%
X257559924Y-113621848D02*
X259625542Y-112990325D01*
%TO.N,mirror_middle_top*%
X252297233Y-96408362D02*
X254362851Y-95776839D01*
%TO.N,mirror_index_bottom*%
X246407055Y-142128224D02*
X248472673Y-141496701D01*
%TO.N,mirror_index_home*%
X241144364Y-124914738D02*
X243209982Y-124283215D01*
%TO.N,mirror_index_top*%
X235881673Y-107701253D02*
X237947291Y-107069730D01*
%TO.N,mirror_inner_bottom*%
X228822008Y-149595896D02*
X230887626Y-148964373D01*
%TO.N,mirror_inner_home*%
X223559317Y-132382410D02*
X225624935Y-131750887D01*
%TO.N,mirror_inner_top*%
X218296626Y-115168925D02*
X220362244Y-114537402D01*
%TO.N,mirror_near_thumb*%
X249014013Y-164336415D02*
X251079631Y-163704892D01*
%TO.N,mirror_home_thumb*%
X228657718Y-171496370D02*
X230660435Y-170687220D01*
%TO.N,mirror_far_thumb*%
X209055333Y-181754539D02*
X210780385Y-180454619D01*
%TO.N,P19*%
X94055745Y-128867970D02*
X95322475Y-129309477D01*
X95834522Y-128715135D02*
X95751783Y-129072703D01*
X126666419Y-137444032D02*
X127633807Y-139056346D01*
X132358126Y-142748350D02*
X131716253Y-141496701D01*
X149301300Y-148964373D02*
X151366918Y-149595896D01*
X115847115Y-130370868D02*
X117366310Y-130835333D01*
X130108126Y-140998350D02*
X131716253Y-141496701D01*
X86397178Y-135816196D02*
X76279812Y-134129968D01*
X55000947Y-132269869D02*
X57113745Y-132718960D01*
X74451103Y-136404128D02*
X75698550Y-136669283D01*
X151395331Y-141950693D02*
X151369555Y-142349521D01*
X72822139Y-135773469D02*
X72542876Y-135610096D01*
X156663728Y-130663728D02*
X156353553Y-130353553D01*
X96712114Y-127821971D02*
X96999999Y-127749999D01*
X106970318Y-128405378D02*
X107909009Y-127883883D01*
X98991116Y-127783175D02*
X102832760Y-128880788D01*
X173297218Y-125078086D02*
X173250000Y-125083333D01*
X155236492Y-133919577D02*
X154424164Y-133972411D01*
X151349768Y-142450693D02*
X151333333Y-142500000D01*
X166463760Y-121772933D02*
X166750000Y-122250000D01*
X164137181Y-119239147D02*
X158546796Y-117549031D01*
X153201773Y-134910395D02*
X151542068Y-141063948D01*
X62426636Y-135704994D02*
X57200914Y-134725171D01*
X149301300Y-148964373D02*
X134345621Y-144409793D01*
X157404545Y-131250000D02*
X157586495Y-131362441D01*
X156445044Y-126997301D02*
X156108465Y-128511906D01*
X155440741Y-121530860D02*
X156285823Y-118713921D01*
X96020022Y-129537576D02*
X97734662Y-130061794D01*
X131716253Y-141496701D02*
X133781871Y-142128224D01*
X115467160Y-130750413D02*
X115650346Y-131351905D01*
X175707106Y-124000000D02*
X179307313Y-124000000D01*
X181500000Y-123350000D02*
X182500000Y-122700000D01*
X73814910Y-135268597D02*
X73792875Y-135360096D01*
X168882931Y-123960977D02*
X171784108Y-124928036D01*
X149301300Y-148964373D02*
X150687087Y-144506576D01*
X123338121Y-134817301D02*
X117144450Y-132861405D01*
X89794174Y-133921361D02*
X90705825Y-130578638D01*
X112239848Y-127782813D02*
X111250000Y-127499999D01*
X157614548Y-133505868D02*
X157904543Y-132254909D01*
X114768508Y-129995803D02*
X114236324Y-129787796D01*
X55500473Y-133384935D02*
X55000947Y-132269870D01*
X68069695Y-134313938D02*
X70315237Y-134763047D01*
X156010090Y-134039292D02*
X155755045Y-133970865D01*
X107909009Y-127883883D02*
G75*
G02*
X111250001Y-127499996I2133891J-3841017D01*
G01*
X114768508Y-129995803D02*
G75*
G03*
X115847115Y-130370869I5478992J14017903D01*
G01*
X130108126Y-140998350D02*
G75*
G02*
X127633831Y-139056332I1304474J4209250D01*
G01*
X115467160Y-130750413D02*
G75*
G02*
X115847119Y-130370853I291040J88613D01*
G01*
X151349768Y-142450693D02*
G75*
G03*
X151369551Y-142349521I-381368J127093D01*
G01*
X158546796Y-117549031D02*
G75*
G03*
X157166671Y-117666677I-542196J-1793469D01*
G01*
X95322475Y-129309477D02*
G75*
G03*
X95751839Y-129072716I108425J311077D01*
G01*
X88500000Y-135500000D02*
G75*
G02*
X86397177Y-135816200I-1537600J3075200D01*
G01*
X156010090Y-134039292D02*
G75*
G03*
X156999998Y-134085353I600110J2236892D01*
G01*
X112239848Y-127782813D02*
G75*
G02*
X113250026Y-128749991I-411748J-1441187D01*
G01*
X175707106Y-124000000D02*
G75*
G03*
X174499998Y-124499998I-6J-1707100D01*
G01*
X68069695Y-134313938D02*
G75*
G03*
X65250004Y-135000005I-673695J-3368562D01*
G01*
X98991116Y-127783175D02*
G75*
G03*
X96999998Y-127749993I-1057516J-3701225D01*
G01*
X164137181Y-119239147D02*
G75*
G02*
X165500007Y-120249995I-726781J-2403953D01*
G01*
X150687087Y-144506576D02*
G75*
G02*
X151333333Y-142500000I98909713J-30747924D01*
G01*
X123338121Y-134817301D02*
G75*
G02*
X126666439Y-137444020I-1801421J-5704599D01*
G01*
X74451103Y-136404128D02*
G75*
G02*
X73792873Y-135360096I179097J842428D01*
G01*
X156285823Y-118713921D02*
G75*
G02*
X157166671Y-117666676I1652277J-495679D01*
G01*
X151395331Y-141950693D02*
G75*
G02*
X151542067Y-141063948I4516769J-291907D01*
G01*
X157886363Y-131750000D02*
G75*
G03*
X157586498Y-131362437I-666763J-206100D01*
G01*
X115467160Y-130750413D02*
G75*
G03*
X114768510Y-129995797I-1127860J-343487D01*
G01*
X92000000Y-129000000D02*
G75*
G02*
X94055739Y-128867987I1184200J-2368400D01*
G01*
X168882931Y-123960977D02*
G75*
G02*
X166750029Y-122249983I1246169J3738377D01*
G01*
X181500000Y-123350000D02*
G75*
G02*
X179307313Y-124000002I-2192700J3373400D01*
G01*
X113250000Y-128750000D02*
G75*
G03*
X114236320Y-129787807I1600500J533500D01*
G01*
X153656231Y-134250000D02*
G75*
G02*
X154424164Y-133972413I863169J-1186900D01*
G01*
X74451103Y-136404128D02*
G75*
G02*
X72822142Y-135773464I1140197J5364128D01*
G01*
X153656231Y-134250000D02*
G75*
G03*
X153201794Y-134910401I708369J-974000D01*
G01*
X55500473Y-133384935D02*
G75*
G03*
X57200913Y-134725174I2130727J954535D01*
G01*
X95834522Y-128715135D02*
G75*
G02*
X96712112Y-127821961I1168478J-270365D01*
G01*
X155888889Y-124250000D02*
G75*
G02*
X155440751Y-121530863I2556311J1817800D01*
G01*
X89794174Y-133921361D02*
G75*
G02*
X88499997Y-135499994I-2412474J657961D01*
G01*
X72542876Y-135610096D02*
G75*
G03*
X70315240Y-134763034I-3642276J-6225904D01*
G01*
X72822139Y-135773469D02*
G75*
G03*
X73792935Y-135360110I331861J567269D01*
G01*
X156000000Y-129500000D02*
G75*
G03*
X156353554Y-130353552I1207100J0D01*
G01*
X115650346Y-131351905D02*
G75*
G03*
X117144465Y-132861359I2180454J664105D01*
G01*
X73814910Y-135268597D02*
G75*
G02*
X74749987Y-134249962I1385890J-333703D01*
G01*
X155236492Y-133919577D02*
G75*
G02*
X155755048Y-133970852I103908J-1596923D01*
G01*
X171784108Y-124928036D02*
G75*
G03*
X173250001Y-125083339I1086492J3259436D01*
G01*
X155888889Y-124250000D02*
G75*
G02*
X156445035Y-126997299I-2811089J-1999000D01*
G01*
X157886363Y-131750000D02*
G75*
G02*
X157904537Y-132254908I-925663J-286100D01*
G01*
X165500000Y-120250000D02*
G75*
G02*
X166463761Y-121772932I-31519700J-21013100D01*
G01*
X96020022Y-129537576D02*
G75*
G02*
X95322475Y-129309476I5549778J18152276D01*
G01*
X62426636Y-135704994D02*
G75*
G03*
X65249991Y-134999989I643164J3430194D01*
G01*
X92000000Y-129000000D02*
G75*
G03*
X90705820Y-130578637I1118300J-2236600D01*
G01*
X74750000Y-134250000D02*
G75*
G02*
X76279809Y-134129986I1006500J-3019600D01*
G01*
X106970318Y-128405378D02*
G75*
G02*
X102832767Y-128880764I-2642618J4756778D01*
G01*
X157614548Y-133505868D02*
G75*
G02*
X156999987Y-134085293I-742848J172268D01*
G01*
X173297218Y-125078086D02*
G75*
G03*
X174499997Y-124499997I-222618J2003486D01*
G01*
X157404545Y-131250000D02*
G75*
G02*
X156663732Y-130663724I2146755J3473800D01*
G01*
X96020022Y-129537576D02*
G75*
G02*
X95751776Y-129072701I114978J376176D01*
G01*
X132358126Y-142748350D02*
G75*
G03*
X134345615Y-144409811I2954974J1515350D01*
G01*
X156000000Y-129500000D02*
G75*
G02*
X156108467Y-128511907I4554800J0D01*
G01*
%TO.N,P20*%
X101251572Y-111250522D02*
X101215866Y-111358392D01*
X60701385Y-117254839D02*
X75453150Y-120384001D01*
X80139177Y-117227835D02*
X87679852Y-118735970D01*
X155500221Y-125250000D02*
X155500186Y-125249948D01*
X155500117Y-125249845D02*
X154500000Y-123750000D01*
X58743358Y-114663213D02*
X60856156Y-115112304D01*
X92660632Y-116964558D02*
X93613145Y-113789513D01*
X132323222Y-121030329D02*
X132176776Y-121469669D01*
X120563383Y-112990325D02*
X120150895Y-114461733D01*
X175750000Y-123500000D02*
X179292893Y-123500000D01*
X78164081Y-117806768D02*
X77840753Y-118118820D01*
X155205825Y-118578638D02*
X154237170Y-122130373D01*
X167144868Y-119714956D02*
X158560660Y-116853553D01*
X154563990Y-131750887D02*
X156629608Y-132382410D01*
X173115769Y-122461826D02*
X173500000Y-122749999D01*
X181372880Y-121166893D02*
X182500000Y-120160000D01*
X97829020Y-111714954D02*
X100039137Y-112072417D01*
X120563383Y-112990325D02*
X122629001Y-113621848D01*
X180646446Y-122853553D02*
X180500000Y-123000000D01*
X59121679Y-115831607D02*
X58743358Y-114663214D01*
X170997564Y-119499187D02*
X170355131Y-119285043D01*
X120563383Y-112990325D02*
X118036173Y-112374395D01*
X154563990Y-131750887D02*
X139992882Y-127441516D01*
X133037396Y-123153963D02*
X136978943Y-124283215D01*
X136978943Y-124283215D02*
X137739471Y-125641607D01*
X77128756Y-119456013D02*
X77164081Y-119306768D01*
X155781975Y-126874638D02*
X154563990Y-131750887D01*
X78024980Y-118761648D02*
X79440960Y-119062626D01*
X172326923Y-121250000D02*
X172272934Y-121016050D01*
X136978943Y-124283215D02*
X139044561Y-124914738D01*
X101796420Y-112481147D02*
X102997352Y-112848309D01*
X90249999Y-118499999D02*
X90980965Y-118207613D01*
X103760151Y-110217186D02*
X111979697Y-112565627D01*
X131465203Y-119337235D02*
X121034796Y-116162764D01*
X101215866Y-111358392D02*
G75*
G02*
X100039142Y-112072387I-1007266J333392D01*
G01*
X139992882Y-127441516D02*
G75*
G02*
X137739491Y-125641596I1085118J3669016D01*
G01*
X172326923Y-121250000D02*
G75*
G03*
X173115769Y-122461825I2053077J473800D01*
G01*
X97829020Y-111714954D02*
G75*
G03*
X95249996Y-111999991I-775420J-4794046D01*
G01*
X156500000Y-117000000D02*
G75*
G02*
X158560658Y-116853558I1207100J-2414200D01*
G01*
X167144868Y-119714956D02*
G75*
G03*
X168750011Y-119500016I582832J1748456D01*
G01*
X77840753Y-118118820D02*
G75*
G03*
X78024971Y-118761689I262947J-272480D01*
G01*
X179292893Y-123500000D02*
G75*
G03*
X180500002Y-123000002I7J1707100D01*
G01*
X60701385Y-117254839D02*
G75*
G02*
X59121703Y-115831599I440715J2077439D01*
G01*
X118036173Y-112374395D02*
G75*
G03*
X115000007Y-112500022I-1299973J-5334105D01*
G01*
X95250000Y-112000000D02*
G75*
G03*
X93613106Y-113789501I1036600J-2591600D01*
G01*
X170355131Y-119285043D02*
G75*
G03*
X168749989Y-119499983I-582831J-1748457D01*
G01*
X92660632Y-116964558D02*
G75*
G02*
X92000002Y-117750004I-1239232J371758D01*
G01*
X102250000Y-110250000D02*
G75*
G02*
X103760149Y-110217191I808100J-2424300D01*
G01*
X77840753Y-118118820D02*
G75*
G03*
X77164072Y-119306766I1686347J-1747280D01*
G01*
X111979697Y-112565627D02*
G75*
G03*
X115000004Y-112500011I1404103J4914327D01*
G01*
X155500117Y-125249845D02*
G75*
G03*
X155500186Y-125249948I11683J7745D01*
G01*
X181000000Y-122000000D02*
G75*
G02*
X180646445Y-122853552I-1207100J0D01*
G01*
X132323222Y-121030329D02*
G75*
G03*
X132249966Y-120000017I-1280322J426729D01*
G01*
X101796420Y-112481147D02*
G75*
G03*
X100039138Y-112072411I-3871520J-12662953D01*
G01*
X155781975Y-126874638D02*
G75*
G03*
X155500208Y-125250009I-1977175J493838D01*
G01*
X120250000Y-115500000D02*
G75*
G03*
X121034793Y-116162773I1163600J581800D01*
G01*
X78024980Y-118761648D02*
G75*
G03*
X77164024Y-119306755I-151580J-713052D01*
G01*
X155205825Y-118578638D02*
G75*
G02*
X156500002Y-117000004I2412475J-657962D01*
G01*
X170997564Y-119499187D02*
G75*
G02*
X171826936Y-120083322I-557364J-1672213D01*
G01*
X90980965Y-118207613D02*
G75*
G03*
X92000000Y-117750001I-4991565J12478913D01*
G01*
X132250000Y-120000000D02*
G75*
G03*
X131465206Y-119337227I-1163600J-581800D01*
G01*
X90249999Y-118499999D02*
G75*
G02*
X87679848Y-118735988I-1681999J4204899D01*
G01*
X175750000Y-123500000D02*
G75*
G02*
X173500000Y-122750000I0J3750000D01*
G01*
X181000000Y-122000000D02*
G75*
G02*
X181372885Y-121166899I1117100J0D01*
G01*
X76500000Y-120250000D02*
G75*
G02*
X75453145Y-120384027I-715100J1430100D01*
G01*
X78164081Y-117806768D02*
G75*
G02*
X80139170Y-117227871I1540119J-1595832D01*
G01*
X101215866Y-111358392D02*
G75*
G03*
X101796409Y-112481183I838934J-277708D01*
G01*
X172272934Y-121016050D02*
G75*
G03*
X171826922Y-120083334I-2315934J-534450D01*
G01*
X133037396Y-123153963D02*
G75*
G02*
X132249965Y-122500017I350304J1222863D01*
G01*
X154237170Y-122130373D02*
G75*
G03*
X154499972Y-123750019I1910630J-521127D01*
G01*
X101251572Y-111250522D02*
G75*
G02*
X102250003Y-110250008I1497128J-495578D01*
G01*
X76500000Y-120250000D02*
G75*
G03*
X77128772Y-119456017I-534700J1069400D01*
G01*
X132176776Y-121469669D02*
G75*
G03*
X132250031Y-122499984I1280324J-426731D01*
G01*
X120250000Y-115500000D02*
G75*
G02*
X120150871Y-114461726I1294900J647500D01*
G01*
%TO.N,P21*%
X128428617Y-98896837D02*
X133839574Y-100399881D01*
X63742884Y-96278278D02*
X62485768Y-97056557D01*
X120025425Y-101083974D02*
X123130373Y-100237170D01*
X137002754Y-103005508D02*
X137629823Y-104259646D01*
X114009001Y-99973765D02*
X108236941Y-97936567D01*
X142241634Y-107069730D02*
X142870817Y-108284865D01*
X182210084Y-118020084D02*
X182500000Y-117620000D01*
X161484204Y-116828068D02*
X167144868Y-118714956D01*
X81070573Y-101006879D02*
X82285286Y-100253439D01*
X102767001Y-94233637D02*
X106194425Y-95003300D01*
X84899359Y-99791533D02*
X94405466Y-101771972D01*
X97794174Y-99921361D02*
X98932196Y-95748613D01*
X173276393Y-120552786D02*
X173000000Y-120000000D01*
X180500000Y-121447887D02*
X180500000Y-121000000D01*
X99360655Y-94895728D02*
X100312500Y-94474560D01*
X62485768Y-97056556D02*
X64598566Y-97505647D01*
X142241634Y-107069730D02*
X144307252Y-107701253D01*
X173916729Y-122276290D02*
X174250000Y-122497248D01*
X78051559Y-98200322D02*
X66447868Y-95799558D01*
X126413037Y-97138419D02*
X125826074Y-95776839D01*
X159995010Y-115028051D02*
X160163340Y-115518701D01*
X80285286Y-99753439D02*
X81070573Y-101006879D01*
X81070573Y-101006878D02*
X83183371Y-101455969D01*
X106597212Y-96251650D02*
X106194425Y-95003300D01*
X142241634Y-107069730D02*
X140370817Y-106534865D01*
X159331016Y-114384470D02*
X144807543Y-109903427D01*
X106194425Y-95003300D02*
X108260043Y-95634823D01*
X160322736Y-114689061D02*
X161892299Y-115168925D01*
X170355131Y-118285043D02*
X171439339Y-118646446D01*
X125826074Y-95776839D02*
X125590726Y-98103189D01*
X125826074Y-95776839D02*
X127891692Y-96408362D01*
X179415052Y-122970195D02*
X175899850Y-122989543D01*
X181589859Y-118787611D02*
X181168527Y-119256312D01*
X182210084Y-118020084D02*
G75*
G02*
X181589863Y-118787615I-7602584J5509084D01*
G01*
X124750000Y-99500000D02*
G75*
G03*
X125590683Y-98103185I-1059400J1589000D01*
G01*
X161484204Y-116828068D02*
G75*
G02*
X160163380Y-115518687I663396J1990068D01*
G01*
X159331016Y-114384470D02*
G75*
G02*
X159994985Y-115028060I-300716J-974530D01*
G01*
X175899850Y-122989543D02*
G75*
G02*
X174250005Y-122497241I-16250J2956243D01*
G01*
X179415052Y-122970195D02*
G75*
G03*
X180233582Y-122483580I-5152J940395D01*
G01*
X137002754Y-103005508D02*
G75*
G03*
X133839561Y-100399928I-4513854J-2256992D01*
G01*
X173500000Y-121500000D02*
G75*
G03*
X173276390Y-120552788I-2118000J0D01*
G01*
X106597212Y-96251650D02*
G75*
G03*
X108236925Y-97936613I2521588J813550D01*
G01*
X102767001Y-94233637D02*
G75*
G03*
X100312500Y-94474559I-862201J-3839563D01*
G01*
X96500000Y-101500000D02*
G75*
G02*
X94405466Y-101771973I-1438500J2877000D01*
G01*
X159331016Y-114384470D02*
G75*
G03*
X160322736Y-114689061I119369684J386889770D01*
G01*
X173500000Y-121500000D02*
G75*
G03*
X173916731Y-122276287I931400J0D01*
G01*
X180500000Y-121447887D02*
G75*
G02*
X180233585Y-122483582I-2146300J-13D01*
G01*
X99360655Y-94895728D02*
G75*
G03*
X99062486Y-95249996I213345J-482172D01*
G01*
X114009001Y-99973765D02*
G75*
G03*
X117000000Y-101000000I59995499J169987165D01*
G01*
X66447868Y-95799558D02*
G75*
G03*
X63742889Y-96278287I-751768J-3633642D01*
G01*
X120025425Y-101083974D02*
G75*
G02*
X117000002Y-100999993I-1374025J5038174D01*
G01*
X168750000Y-118500000D02*
G75*
G02*
X167144874Y-118714937I-1022300J1533500D01*
G01*
X124750000Y-99500000D02*
G75*
G02*
X123130375Y-100237176I-3081200J4621800D01*
G01*
X97794174Y-99921361D02*
G75*
G02*
X96499997Y-101499994I-2412474J657961D01*
G01*
X180500000Y-121000000D02*
G75*
G02*
X181168537Y-119256321I2608200J0D01*
G01*
X84899359Y-99791533D02*
G75*
G03*
X82285300Y-100253462I-729259J-3500567D01*
G01*
X126413037Y-97138419D02*
G75*
G03*
X128428620Y-98896826I2844663J1226319D01*
G01*
X140370817Y-106534865D02*
G75*
G02*
X137629851Y-104259632I1216183J4253765D01*
G01*
X168750000Y-118500000D02*
G75*
G02*
X170355125Y-118285062I1022300J-1533500D01*
G01*
X160322736Y-114689061D02*
G75*
G03*
X159995020Y-115028048I-77336J-253139D01*
G01*
X173000000Y-120000000D02*
G75*
G03*
X171439337Y-118646451I-2414200J-1207100D01*
G01*
X99062500Y-95250000D02*
G75*
G02*
X98932196Y-95748613I-23517700J5879600D01*
G01*
X78051559Y-98200322D02*
G75*
G02*
X80285283Y-99753441I-701859J-3392278D01*
G01*
X142870817Y-108284865D02*
G75*
G03*
X144807552Y-109903398I2899283J1501265D01*
G01*
%TO.N,P18*%
X129216349Y-163237742D02*
X129323404Y-162770593D01*
X158538042Y-133461107D02*
X158794327Y-132251763D01*
X146000000Y-168000000D02*
X146225266Y-168337899D01*
X143302250Y-165893660D02*
X131744512Y-161765897D01*
X157607089Y-129910634D02*
X157500000Y-129750000D01*
X146145826Y-148740034D02*
X136256317Y-145730183D01*
X150750000Y-169250000D02*
X150605935Y-169298021D01*
X152278520Y-150441905D02*
X152395516Y-149997436D01*
X153083459Y-138230992D02*
X153525506Y-136511917D01*
X150857483Y-145838179D02*
X151811008Y-142739221D01*
X129567611Y-163845013D02*
X131174912Y-164336415D01*
X129230942Y-163241328D02*
X130405267Y-158766339D01*
X162830062Y-175611142D02*
X169408540Y-180454619D01*
X156499999Y-120999999D02*
X156676774Y-120469677D01*
X176560660Y-125000000D02*
X178744253Y-125000000D01*
X158513776Y-133536384D02*
X158363113Y-133878482D01*
X150951922Y-147125000D02*
X151021707Y-147271322D01*
X149646367Y-170390415D02*
X149764245Y-170093610D01*
X169408540Y-180454619D02*
X171133592Y-181754539D01*
X154499999Y-134749999D02*
X154472768Y-134763615D01*
X150443229Y-151075426D02*
X148932825Y-150663497D01*
X174750000Y-125750000D02*
X174353553Y-126146446D01*
X157178734Y-134928734D02*
X157491840Y-134895858D01*
X160542948Y-172617179D02*
X152234025Y-169293610D01*
X152267954Y-148982045D02*
X152257662Y-148963530D01*
X149824591Y-170806852D02*
X151531207Y-171496370D01*
X157218618Y-128125525D02*
X157611753Y-126552985D01*
X131643692Y-154247076D02*
X133782813Y-146760151D01*
X163280408Y-120558602D02*
X159965898Y-119411272D01*
X158521558Y-133538893D02*
X158538042Y-133461107D01*
X149239413Y-170551487D02*
X148264245Y-170093610D01*
X172533271Y-126320655D02*
X168698611Y-124847151D01*
X181250000Y-125120000D02*
X182500000Y-125240000D01*
X157000000Y-123749999D02*
X156987729Y-123734661D01*
X155530330Y-134676776D02*
X155852556Y-134784185D01*
X153828571Y-135500000D02*
G75*
G03*
X153525505Y-136511917I12714529J-4359300D01*
G01*
X143302250Y-165893660D02*
G75*
G02*
X145999989Y-168000007I-1830450J-5125140D01*
G01*
X158000000Y-119288461D02*
G75*
G02*
X159965896Y-119411279I761800J-3601239D01*
G01*
X129567611Y-163845013D02*
G75*
G02*
X129216302Y-163237731I150489J492313D01*
G01*
X147535714Y-149714285D02*
G75*
G03*
X148932831Y-150663475I2081786J1561385D01*
G01*
X173500000Y-126500000D02*
G75*
G02*
X172533270Y-126320657I0J2695200D01*
G01*
X154499999Y-134749999D02*
G75*
G02*
X155530342Y-134676741I603601J-1207101D01*
G01*
X149824591Y-170806852D02*
G75*
G02*
X149239413Y-170551487I4349009J10764052D01*
G01*
X146225266Y-168337899D02*
G75*
G03*
X148264248Y-170093603I4168034J2778699D01*
G01*
X129230942Y-163241328D02*
G75*
G02*
X129216389Y-163237751I-7242J1928D01*
G01*
X147535714Y-149714285D02*
G75*
G03*
X146145827Y-148740030I-2185214J-1638915D01*
G01*
X158036203Y-134536203D02*
G75*
G02*
X157491835Y-134895806I-618203J344003D01*
G01*
X130250000Y-161750000D02*
G75*
G03*
X129323432Y-162770599I445000J-1334900D01*
G01*
X158000000Y-119288461D02*
G75*
G03*
X156676780Y-120469679I369200J-1745339D01*
G01*
X158513776Y-133536384D02*
G75*
G03*
X158538037Y-133461106I-351976J154984D01*
G01*
X166000000Y-122674145D02*
G75*
G03*
X168698614Y-124847142I4728800J3110445D01*
G01*
X152278520Y-150441905D02*
G75*
G02*
X151565800Y-151113601I-894920J235605D01*
G01*
X150750000Y-169250000D02*
G75*
G02*
X152234028Y-169293602I682500J-2047400D01*
G01*
X153083459Y-138230992D02*
G75*
G02*
X151811007Y-142739221I-96929659J24924792D01*
G01*
X134750000Y-145750000D02*
G75*
G02*
X136256310Y-145730207I784200J-2352700D01*
G01*
X157218618Y-128125525D02*
G75*
G03*
X157500017Y-129749989I1976782J-494175D01*
G01*
X158470588Y-131029412D02*
G75*
G02*
X158794289Y-132251755I-1048088J-931588D01*
G01*
X162830062Y-175611142D02*
G75*
G02*
X161749979Y-174000005I1697438J2305542D01*
G01*
X150443229Y-151075426D02*
G75*
G03*
X151565807Y-151113636I642071J2354226D01*
G01*
X181250000Y-125120000D02*
G75*
G03*
X178744253Y-125000004I-2505700J-26101400D01*
G01*
X151625000Y-148125000D02*
G75*
G02*
X152257659Y-148963532I-2679800J-2679800D01*
G01*
X153828571Y-135500000D02*
G75*
G02*
X154472768Y-134763615I1221829J-418900D01*
G01*
X163280408Y-120558602D02*
G75*
G02*
X165999994Y-122674149I-1750008J-5055498D01*
G01*
X173500000Y-126500000D02*
G75*
G03*
X174353552Y-126146445I0J1207100D01*
G01*
X157607089Y-129910634D02*
G75*
G03*
X158470590Y-131029410I8488511J5659034D01*
G01*
X176560660Y-125000000D02*
G75*
G03*
X174750032Y-125750032I40J-2560600D01*
G01*
X150951922Y-147125000D02*
G75*
G02*
X150857495Y-145838183I1602978J764500D01*
G01*
X160542948Y-172617179D02*
G75*
G02*
X161749949Y-174000013I-748748J-1871721D01*
G01*
X131744512Y-161765897D02*
G75*
G03*
X130249994Y-161749982I-770312J-2156803D01*
G01*
X157178734Y-134928734D02*
G75*
G02*
X155852553Y-134784193I-329234J3135434D01*
G01*
X149764245Y-170093610D02*
G75*
G02*
X150605942Y-169298041I1275755J-506690D01*
G01*
X149646367Y-170390415D02*
G75*
G02*
X149239405Y-170551504I-279267J110915D01*
G01*
X131643692Y-154247076D02*
G75*
G03*
X130405268Y-158766339I207956908J-59416224D01*
G01*
X149646367Y-170390415D02*
G75*
G03*
X149824594Y-170806844I298533J-118585D01*
G01*
X158363113Y-133878482D02*
G75*
G02*
X158036199Y-134536201I-7242213J3189582D01*
G01*
X134750000Y-145750000D02*
G75*
G03*
X133782839Y-146760158I474000J-1421900D01*
G01*
X156499999Y-120999999D02*
G75*
G03*
X156987710Y-123734676I2757201J-919101D01*
G01*
X151625000Y-148125000D02*
G75*
G02*
X151021707Y-147271322I2182100J2182100D01*
G01*
X157000000Y-123749999D02*
G75*
G02*
X157611760Y-126552987I-2523900J-2019101D01*
G01*
X158513776Y-133536384D02*
G75*
G02*
X158521465Y-133538872I3724J-1616D01*
G01*
X129230942Y-163241328D02*
G75*
G03*
X129567587Y-163845093I482558J-126672D01*
G01*
X152395516Y-149997436D02*
G75*
G03*
X152267979Y-148982031I-1326216J349136D01*
G01*
%TO.N,P2*%
X242339530Y-141748140D02*
X249367105Y-139639868D01*
X299324845Y-136652240D02*
X299149690Y-137804481D01*
X258050595Y-131215841D02*
X257601191Y-132431682D01*
X199500000Y-111401387D02*
X199500000Y-115456927D01*
X289018169Y-129573458D02*
X280739384Y-132553821D01*
X211085814Y-118016150D02*
X210663650Y-116843472D01*
X219633585Y-142443714D02*
X216719465Y-134043009D01*
X277232840Y-131658143D02*
X279298458Y-131026620D01*
X278366420Y-132329071D02*
X277232840Y-131658143D01*
X277232840Y-131658143D02*
X275057121Y-131274538D01*
X241342815Y-142862286D02*
X241264223Y-143293429D01*
X215985082Y-123500000D02*
X215836148Y-122866463D01*
X211428570Y-113249999D02*
X211087705Y-113846514D01*
X296576290Y-137082507D02*
X299149690Y-137804481D01*
X223600584Y-151192245D02*
X222260065Y-145587366D01*
X317734494Y-133854159D02*
X319847292Y-133405068D01*
X217245645Y-128906932D02*
X216452985Y-125500529D01*
X223600584Y-151192245D02*
X224050292Y-149846122D01*
X299149690Y-137804482D02*
X301262488Y-137355391D01*
X259746364Y-129643895D02*
X267249999Y-127499999D01*
X208733578Y-109521069D02*
X209188469Y-109516840D01*
X225864471Y-148109488D02*
X240764299Y-143845158D01*
X300636854Y-135243290D02*
X313388649Y-132363853D01*
X316367247Y-132927079D02*
X317734494Y-133854158D01*
X217247507Y-130415870D02*
X217294120Y-130102295D01*
X257601191Y-132431682D02*
X259666809Y-131800159D01*
X211508668Y-111280339D02*
X211619834Y-111669422D01*
X215778802Y-122615213D02*
X215841302Y-122865213D01*
X223600584Y-151192245D02*
X225666202Y-150560722D01*
X270979697Y-127565627D02*
X270750000Y-127500000D01*
X293739479Y-131556614D02*
X294172095Y-134368621D01*
X216686666Y-132010000D02*
X216874955Y-131515739D01*
X214818904Y-120925205D02*
X215244510Y-121492681D01*
X213296666Y-119529251D02*
X212511931Y-119263041D01*
X198620000Y-117060000D02*
X197740000Y-117620000D01*
X255550595Y-133215841D02*
X257601191Y-132431682D01*
X206200697Y-109526411D02*
X201901376Y-109504577D01*
X241604729Y-143596441D02*
X243251249Y-143093050D01*
X252684643Y-136038391D02*
X252327015Y-136932460D01*
X210711547Y-114422543D02*
X210555000Y-115125000D01*
X217091728Y-130973780D02*
G75*
G03*
X216874956Y-131515739I16298072J-6833220D01*
G01*
X210875000Y-114125000D02*
G75*
G03*
X210711556Y-114422545I429700J-429700D01*
G01*
X213296666Y-119529251D02*
G75*
G02*
X214150004Y-120099997I-635566J-1873549D01*
G01*
X292000000Y-129520000D02*
G75*
G03*
X289018163Y-129573441I-1412300J-4413400D01*
G01*
X211428570Y-113249999D02*
G75*
G03*
X211619841Y-111669420I-1780270J1017299D01*
G01*
X219633585Y-142443714D02*
G75*
G03*
X220999986Y-144000027I2594615J900014D01*
G01*
X258050595Y-131215841D02*
G75*
G02*
X259746363Y-129643890I2398205J-886459D01*
G01*
X241604729Y-143596441D02*
G75*
G02*
X241264224Y-143293429I-78029J255141D01*
G01*
X208733578Y-109521069D02*
G75*
G02*
X206200697Y-109526411I-1638078J176205969D01*
G01*
X215841302Y-122865213D02*
G75*
G03*
X215836072Y-122866480I-2602J-687D01*
G01*
X216523809Y-133023809D02*
G75*
G03*
X216719462Y-134043010I3606291J163909D01*
G01*
X216686666Y-132010000D02*
G75*
G03*
X216523815Y-133023809I2360134J-899100D01*
G01*
X249367105Y-139639868D02*
G75*
G03*
X252326990Y-136932450I-1326605J4421968D01*
G01*
X215985082Y-123500000D02*
G75*
G02*
X216452985Y-125500529I-884325195J-207889481D01*
G01*
X299324845Y-136652240D02*
G75*
G02*
X300636871Y-135243365I1688055J-256660D01*
G01*
X224050292Y-149846122D02*
G75*
G02*
X225864484Y-148109532I2555508J-853778D01*
G01*
X293739479Y-131556614D02*
G75*
G03*
X292000003Y-129519991I-2514979J-386886D01*
G01*
X210663650Y-116843472D02*
G75*
G02*
X210554991Y-115124998I2906850J1046472D01*
G01*
X210642857Y-110004648D02*
G75*
G03*
X209188469Y-109516847I-1432557J-1859152D01*
G01*
X270979697Y-127565627D02*
G75*
G02*
X272999989Y-129500004I-823497J-2882273D01*
G01*
X241264223Y-143293429D02*
G75*
G02*
X240764293Y-143845137I-694023J126529D01*
G01*
X199500000Y-115456927D02*
G75*
G02*
X198619978Y-117059966I-1900100J27D01*
G01*
X210875000Y-114125000D02*
G75*
G03*
X211087710Y-113846517I-933500J933500D01*
G01*
X211630000Y-118857143D02*
G75*
G03*
X212511929Y-119263060I1021400J1058143D01*
G01*
X273000000Y-129500000D02*
G75*
G03*
X275057115Y-131274573I2518000J839300D01*
G01*
X270750000Y-127500000D02*
G75*
G03*
X267249999Y-127500000I-1750000J-6125000D01*
G01*
X278366420Y-132329071D02*
G75*
G03*
X280739381Y-132553812I1425180J2407971D01*
G01*
X255550595Y-133215841D02*
G75*
G03*
X252684635Y-136038388I1791805J-4685659D01*
G01*
X217091728Y-130973780D02*
G75*
G03*
X217247514Y-130415871I-2147228J900280D01*
G01*
X215778802Y-122615213D02*
G75*
G03*
X215244521Y-121492673I-3046502J-761587D01*
G01*
X201901376Y-109504577D02*
G75*
G03*
X200250001Y-110000001I-14976J-2950023D01*
G01*
X222260065Y-145587366D02*
G75*
G03*
X220999984Y-144000031I-2332665J-557934D01*
G01*
X241604729Y-143596441D02*
G75*
G02*
X240764299Y-143845158I-14270829J46677741D01*
G01*
X211085814Y-118016150D02*
G75*
G03*
X211629982Y-118857161I2078086J748050D01*
G01*
X211508668Y-111280339D02*
G75*
G03*
X210642863Y-110004640I-2370768J-677361D01*
G01*
X242339530Y-141748140D02*
G75*
G03*
X241342865Y-142862295I411270J-1370760D01*
G01*
X316367247Y-132927079D02*
G75*
G03*
X313388654Y-132363877I-2139047J-3154721D01*
G01*
X217245645Y-128906932D02*
G75*
G02*
X217294102Y-130102292I-3115745J-724968D01*
G01*
X296576290Y-137082507D02*
G75*
G02*
X294172083Y-134368623I904210J3222907D01*
G01*
X214818904Y-120925205D02*
G75*
G03*
X214150001Y-120099999I-11283904J-8462895D01*
G01*
X199500000Y-111401387D02*
G75*
G02*
X200249995Y-109999993I1684300J-13D01*
G01*
%TO.N,P0*%
X295407279Y-120197825D02*
X297520077Y-119748734D01*
X217514433Y-125693561D02*
X217528867Y-125762120D01*
X272581519Y-114257743D02*
X274035767Y-113813135D01*
X252338500Y-115218197D02*
X254404118Y-114586674D01*
X215951923Y-121048076D02*
X215950383Y-121046209D01*
X252338500Y-115218197D02*
X252919250Y-113859098D01*
X236423145Y-126358158D02*
X237988558Y-125879564D01*
X212044386Y-110127895D02*
X212612126Y-112005284D01*
X218139206Y-133239379D02*
X218238549Y-133609069D01*
X243873081Y-122171658D02*
X237497561Y-124184980D01*
X199120000Y-109250000D02*
X197740000Y-110000000D01*
X218363597Y-130211235D02*
X218197368Y-129250000D01*
X211184671Y-116027632D02*
X211877866Y-118008188D01*
X246828368Y-119429078D02*
X247173380Y-118566549D01*
X205469223Y-108500000D02*
X202070636Y-108500000D01*
X252338500Y-115218197D02*
X250134528Y-115869356D01*
X254915646Y-112075306D02*
X261756729Y-110022981D01*
X290528306Y-116877379D02*
X290478893Y-116655020D01*
X221042140Y-130578483D02*
X235418387Y-126648997D01*
X236067205Y-126008315D02*
X236211470Y-125505543D01*
X218703971Y-133866837D02*
X220403511Y-133347236D01*
X287111722Y-113344689D02*
X287950304Y-113680122D01*
X212764677Y-118761911D02*
X212529355Y-118704272D01*
X212134537Y-113865462D02*
X211895284Y-114104714D01*
X216590340Y-122281604D02*
X217481606Y-125557397D01*
X275218421Y-115612320D02*
X282832670Y-113189604D01*
X272985074Y-115222329D02*
X272477611Y-114833493D01*
X313992084Y-116247503D02*
X316104882Y-115798412D01*
X312496042Y-115623751D02*
X313992084Y-116247502D01*
X213893271Y-119183855D02*
X213224339Y-118911043D01*
X297116070Y-117776785D02*
X309410609Y-115317877D01*
X269808718Y-114202577D02*
X271334816Y-114373500D01*
X218220260Y-131750000D02*
X218208076Y-131782663D01*
X210460730Y-109000000D02*
X209530776Y-109000000D01*
X218477023Y-133622132D02*
X218918946Y-132489379D01*
X295407279Y-120197824D02*
X295703639Y-119098912D01*
X295407279Y-120197824D02*
X293098284Y-119570278D01*
X217514433Y-125693561D02*
G75*
G03*
X217481604Y-125557398I-2357833J-496439D01*
G01*
X237497561Y-124184980D02*
G75*
G03*
X236211498Y-125505551I586739J-1857920D01*
G01*
X218139206Y-133239379D02*
G75*
G02*
X218208071Y-131782661I2310094J620779D01*
G01*
X271334816Y-114373500D02*
G75*
G02*
X272477599Y-114833509I-256016J-2285500D01*
G01*
X205469223Y-108500000D02*
G75*
G02*
X207499999Y-108750006I-23J-8373100D01*
G01*
X265250000Y-110000000D02*
G75*
G03*
X261756729Y-110022980I-1707400J-5975900D01*
G01*
X297116070Y-117776785D02*
G75*
G03*
X295703653Y-119098916I360030J-1800115D01*
G01*
X272581519Y-114257743D02*
G75*
G02*
X271334818Y-114373486I-902919J2953443D01*
G01*
X216590340Y-122281604D02*
G75*
G03*
X215951929Y-121048071I-3185540J-866696D01*
G01*
X265250000Y-110000000D02*
G75*
G02*
X267500000Y-112250000I-900000J-3150000D01*
G01*
X215024399Y-119975600D02*
G75*
G03*
X213893280Y-119183834I-2307599J-2092800D01*
G01*
X290528306Y-116877379D02*
G75*
G03*
X293098279Y-119570297I3514094J780879D01*
G01*
X218363597Y-130211235D02*
G75*
G02*
X218220255Y-131749998I-2916597J-504365D01*
G01*
X272581519Y-114257743D02*
G75*
G03*
X272477560Y-114833559I96181J-314657D01*
G01*
X217528867Y-125762120D02*
G75*
G02*
X218197367Y-129250000I-95856367J-20180180D01*
G01*
X211877866Y-118008188D02*
G75*
G03*
X212529346Y-118704293I1114334J389988D01*
G01*
X211250000Y-115000000D02*
G75*
G02*
X211895296Y-114104726I3081100J-1540600D01*
G01*
X287111722Y-113344689D02*
G75*
G03*
X282832663Y-113189580I-2355822J-5889411D01*
G01*
X209530776Y-109000000D02*
G75*
G02*
X207500001Y-108749997I24J8373200D01*
G01*
X272985074Y-115222329D02*
G75*
G03*
X275218409Y-115612283I1490326J1945029D01*
G01*
X212764677Y-118761911D02*
G75*
G02*
X213224341Y-118911038I-782577J-3195189D01*
G01*
X212630866Y-113000000D02*
G75*
G03*
X212612112Y-112005288I-1773266J464100D01*
G01*
X236067205Y-126008315D02*
G75*
G03*
X236423124Y-126358091I272895J-78285D01*
G01*
X236423145Y-126358158D02*
G75*
G02*
X235418387Y-126648996I-10231445J33465558D01*
G01*
X215024399Y-119975600D02*
G75*
G02*
X215950383Y-121046209I-22265299J-20193300D01*
G01*
X210460730Y-109000000D02*
G75*
G02*
X211444134Y-109305871I-30J-1733900D01*
G01*
X269808718Y-114202577D02*
G75*
G02*
X267500026Y-112249993I302282J2698577D01*
G01*
X212134537Y-113865462D02*
G75*
G03*
X212630875Y-113000002I-1348237J1348262D01*
G01*
X218703971Y-133866837D02*
G75*
G02*
X218477042Y-133622139I-54171J177337D01*
G01*
X236067205Y-126008315D02*
G75*
G02*
X235418401Y-126649047I-894105J256515D01*
G01*
X312496042Y-115623751D02*
G75*
G03*
X309410609Y-115317877I-2043842J-4902049D01*
G01*
X218703971Y-133866837D02*
G75*
G02*
X218238559Y-133609066I-108171J353737D01*
G01*
X218477023Y-133622132D02*
G75*
G02*
X218238498Y-133609083I-117123J45632D01*
G01*
X221042140Y-130578483D02*
G75*
G03*
X218918911Y-132489365I838060J-3066217D01*
G01*
X243873081Y-122171658D02*
G75*
G03*
X246828379Y-119429082I-1418581J4492158D01*
G01*
X211444144Y-109305856D02*
G75*
G02*
X212044407Y-110127889I-872844J-1267544D01*
G01*
X211184671Y-116027632D02*
G75*
G02*
X211249971Y-114999986I1247429J436632D01*
G01*
X287950304Y-113680122D02*
G75*
G02*
X290478928Y-116655012I-1552704J-3881878D01*
G01*
X199120000Y-109250000D02*
G75*
G02*
X202070636Y-108500009I2950600J-5429100D01*
G01*
X254915646Y-112075306D02*
G75*
G03*
X252919234Y-113859091I907354J-3024594D01*
G01*
X250134528Y-115869356D02*
G75*
G03*
X247173418Y-118566564I1300572J-4401844D01*
G01*
%TO.N,P1*%
X290642696Y-102242508D02*
X288673114Y-101570692D01*
X292082434Y-101545583D02*
X292065417Y-101588191D01*
X265077048Y-97113663D02*
X266707458Y-97231172D01*
X266707458Y-97231172D02*
X268773076Y-96599649D01*
X212690172Y-114000000D02*
X212705549Y-113975183D01*
X247075809Y-98004711D02*
X244600495Y-98813597D01*
X277326747Y-96224417D02*
X270373503Y-98542165D01*
X209024471Y-108113830D02*
X209954812Y-108217201D01*
X204969235Y-107495008D02*
X197740000Y-107460000D01*
X213075202Y-116765274D02*
X213787601Y-115382637D01*
X292721268Y-102366622D02*
X293777667Y-102142077D01*
X308874836Y-98070422D02*
X310249673Y-98640845D01*
X306040430Y-97791913D02*
X293604016Y-100279196D01*
X256369193Y-92677983D02*
X248710395Y-95114874D01*
X281702667Y-96129333D02*
X284800249Y-97014356D01*
X230660249Y-109297602D02*
X232725867Y-108666079D01*
X213075202Y-116765274D02*
X215140820Y-116133751D01*
X212552841Y-115062350D02*
X213075202Y-116765274D01*
X241865017Y-101616607D02*
X241630291Y-102399029D01*
X247075809Y-98004711D02*
X247287904Y-96752355D01*
X230660249Y-109297602D02*
X231080124Y-108148801D01*
X247075809Y-98004711D02*
X249141427Y-97373188D01*
X230660249Y-109297602D02*
X215993435Y-113565432D01*
X310249673Y-98640846D02*
X312362471Y-98191755D01*
X213364418Y-111957673D02*
X213005055Y-110520220D01*
X267853729Y-98115586D02*
X266707458Y-97231172D01*
X260500000Y-93000000D02*
X261085786Y-93292893D01*
X238878743Y-105058225D02*
X232682854Y-106688722D01*
X284800249Y-97014356D02*
G75*
G02*
X286749951Y-99250007I-748949J-2621144D01*
G01*
X241630291Y-102399029D02*
G75*
G02*
X238878751Y-105058256I-3747191J1124129D01*
G01*
X290642696Y-102242508D02*
G75*
G03*
X292721267Y-102366615I1264304J3706608D01*
G01*
X290642696Y-102242508D02*
G75*
G03*
X292065414Y-101588190I367004J1075908D01*
G01*
X215993435Y-113565432D02*
G75*
G03*
X213787607Y-115382640I1011065J-3474668D01*
G01*
X213005055Y-110520220D02*
G75*
G03*
X211874993Y-108916676I-2638955J-659780D01*
G01*
X232682854Y-106688722D02*
G75*
G03*
X231080102Y-108148793I595646J-2263578D01*
G01*
X209024471Y-108113830D02*
G75*
G02*
X207000000Y-107750000I1692329J15231030D01*
G01*
X209954812Y-108217201D02*
G75*
G02*
X211874997Y-108916671I-477312J-4295699D01*
G01*
X212552841Y-115062350D02*
G75*
G02*
X212690166Y-113999996I1238559J379950D01*
G01*
X267853729Y-98115586D02*
G75*
G03*
X270373496Y-98542145I1660271J2151886D01*
G01*
X256369193Y-92677983D02*
G75*
G02*
X260499989Y-93000023I1669007J-5245517D01*
G01*
X248710395Y-95114874D02*
G75*
G03*
X247287939Y-96752361I631705J-1985326D01*
G01*
X213250000Y-113000000D02*
G75*
G02*
X212705551Y-113975184I-10969800J5484900D01*
G01*
X286750000Y-99250000D02*
G75*
G03*
X288673130Y-101570644I2853700J407700D01*
G01*
X261085786Y-93292893D02*
G75*
G02*
X263000006Y-95499998I-1707086J-3414207D01*
G01*
X204969235Y-107495008D02*
G75*
G02*
X207000002Y-107749992I-41335J-8543492D01*
G01*
X213364418Y-111957673D02*
G75*
G02*
X213250007Y-113000003I-1466018J-366527D01*
G01*
X292082434Y-101545583D02*
G75*
G02*
X293604008Y-100279155I1928966J-770317D01*
G01*
X292721268Y-102366622D02*
G75*
G02*
X292065422Y-101588193I-119968J564422D01*
G01*
X281702667Y-96129333D02*
G75*
G03*
X277326750Y-96224426I-2034267J-7119967D01*
G01*
X241865017Y-101616607D02*
G75*
G02*
X244600502Y-98813619I4048283J-1214493D01*
G01*
X308874836Y-98070422D02*
G75*
G03*
X306040428Y-97791905I-1874936J-4518978D01*
G01*
X265077048Y-97113663D02*
G75*
G02*
X262999975Y-95500008I170252J2362763D01*
G01*
%TO.N,P3*%
X217208677Y-138007919D02*
X218939552Y-142912066D01*
X204694783Y-185040449D02*
X206419835Y-183740529D01*
X206779704Y-181085925D02*
X210669099Y-178307785D01*
X206885864Y-110692932D02*
X206500000Y-110500000D01*
X221625967Y-149784055D02*
X221985465Y-149167771D01*
X220683772Y-144841886D02*
X220500000Y-144750000D01*
X240768875Y-153268417D02*
X243792589Y-165932764D01*
X216666666Y-129000000D02*
X216675131Y-129025394D01*
X230900793Y-150505012D02*
X230450396Y-151002506D01*
X219634523Y-144077002D02*
X219577354Y-144010836D01*
X225769225Y-170543078D02*
X235512326Y-167035562D01*
X216044642Y-133986246D02*
X216304944Y-135016478D01*
X216348554Y-127995181D02*
X215101592Y-123838642D01*
X236022119Y-146325960D02*
X235500000Y-146500000D01*
X204694783Y-185040449D02*
X205097391Y-183520224D01*
X243792589Y-165932764D02*
X245858207Y-165301241D01*
X243792589Y-165932764D02*
X241461286Y-166896143D01*
X224390131Y-153226113D02*
X229358589Y-151697357D01*
X221733433Y-151589358D02*
X221552382Y-150744450D01*
X211534869Y-119689913D02*
X211249999Y-119500000D01*
X202401387Y-110000000D02*
X204381966Y-110000000D01*
X214375000Y-122500000D02*
X214414250Y-122657002D01*
X212500000Y-120250000D02*
X212916666Y-120458333D01*
X198870000Y-119580000D02*
X197740000Y-120160000D01*
X220149937Y-175009955D02*
X223595295Y-173541722D01*
X214750000Y-177000000D02*
X215750000Y-177000000D01*
X216614201Y-130964496D02*
X216186262Y-132034343D01*
X221611803Y-145835410D02*
X221755529Y-146266589D01*
X213958017Y-121575298D02*
X213597249Y-121050544D01*
X239613636Y-148750000D02*
X239271215Y-147494455D01*
X210245658Y-118135239D02*
X208634918Y-112658723D01*
X233249999Y-148499999D02*
X233292893Y-148414213D01*
X200000000Y-111901387D02*
X200000000Y-117729842D01*
X223595295Y-173541722D02*
X224047647Y-172270861D01*
X223595295Y-173541722D02*
X225598012Y-172732572D01*
X216348554Y-127995181D02*
G75*
G03*
X216666665Y-129000000I33326346J9997881D01*
G01*
X208634918Y-112658723D02*
G75*
G03*
X207970588Y-111500000I-2757018J-810877D01*
G01*
X233249999Y-148499999D02*
G75*
G02*
X230900797Y-150505023I-3541599J1770799D01*
G01*
X236022119Y-146325960D02*
G75*
G02*
X238000002Y-146249991I1119381J-3358040D01*
G01*
X214750000Y-123250000D02*
G75*
G02*
X215101592Y-123838642I-991600J-991600D01*
G01*
X204381966Y-110000000D02*
G75*
G02*
X206500008Y-110499983I34J-4736100D01*
G01*
X224390131Y-153226113D02*
G75*
G02*
X222714269Y-153000026I-593131J1927613D01*
G01*
X221625967Y-149784055D02*
G75*
G03*
X221499995Y-150250000I798733J-465945D01*
G01*
X214375000Y-122500000D02*
G75*
G03*
X213958026Y-121575292I-2768900J-692200D01*
G01*
X214750000Y-123250000D02*
G75*
G02*
X214414246Y-122657003I902600J902600D01*
G01*
X219634523Y-144077002D02*
G75*
G03*
X220499999Y-144750001I2116177J1828402D01*
G01*
X238500000Y-167000000D02*
G75*
G03*
X241461276Y-166896120I1341300J4024000D01*
G01*
X202401387Y-110000000D02*
G75*
G03*
X200750002Y-110500003I13J-2977100D01*
G01*
X200000000Y-117729842D02*
G75*
G02*
X198869973Y-119579948I-2079600J42D01*
G01*
X220149937Y-175009955D02*
G75*
G03*
X218000007Y-176250009I4052863J-9510345D01*
G01*
X215960893Y-133000000D02*
G75*
G02*
X216186260Y-132034342I3281007J-256600D01*
G01*
X240768875Y-153268417D02*
G75*
G03*
X239613634Y-148750000I-142287075J-33972183D01*
G01*
X222187500Y-147750000D02*
G75*
G03*
X221755526Y-146266590I-19528300J-4882100D01*
G01*
X214750000Y-177000000D02*
G75*
G03*
X210669105Y-178307793I0J-7021000D01*
G01*
X221250000Y-145250000D02*
G75*
G03*
X220683781Y-144841867I-1540600J-1540500D01*
G01*
X221250000Y-145250000D02*
G75*
G02*
X221611801Y-145835411I-1059000J-1059000D01*
G01*
X235500000Y-146500000D02*
G75*
G03*
X233292899Y-148414216I1207100J-3621300D01*
G01*
X211534869Y-119689913D02*
G75*
G03*
X212499998Y-120250004I4980831J7471213D01*
G01*
X238000000Y-146250000D02*
G75*
G02*
X239271227Y-147494452I-426900J-1707600D01*
G01*
X206779704Y-181085925D02*
G75*
G03*
X205097393Y-183520225I2536896J-3551675D01*
G01*
X221733433Y-151589358D02*
G75*
G03*
X222714264Y-153000032I2175167J466058D01*
G01*
X219577354Y-144010836D02*
G75*
G02*
X218939545Y-142912068I2590346J2238136D01*
G01*
X229358589Y-151697357D02*
G75*
G03*
X230450408Y-151002517I-717889J2333257D01*
G01*
X222187500Y-147750000D02*
G75*
G02*
X221985470Y-149167774I-1842700J-460700D01*
G01*
X213597249Y-121050544D02*
G75*
G03*
X212916666Y-120458333I-1488249J-1023156D01*
G01*
X221500000Y-150250000D02*
G75*
G03*
X221552383Y-150744450I2359800J0D01*
G01*
X216816666Y-130000000D02*
G75*
G02*
X216614218Y-130964503I-2851366J95000D01*
G01*
X225769225Y-170543078D02*
G75*
G03*
X224047688Y-172270875I966475J-2684522D01*
G01*
X215960893Y-133000000D02*
G75*
G03*
X216044655Y-133986243I3044607J-238100D01*
G01*
X216816666Y-130000000D02*
G75*
G03*
X216675133Y-129025393I-2786666J92900D01*
G01*
X218000000Y-176250000D02*
G75*
G02*
X215750000Y-177000000I-2250000J3000000D01*
G01*
X217208677Y-138007919D02*
G75*
G02*
X216304941Y-135016479I32108423J11332419D01*
G01*
X206885864Y-110692932D02*
G75*
G02*
X207970582Y-111500005I-1726464J-3452868D01*
G01*
X210245658Y-118135239D02*
G75*
G03*
X211250011Y-119499982I2381042J700339D01*
G01*
X238500000Y-167000000D02*
G75*
G03*
X235512334Y-167035585I-1442500J-4327600D01*
G01*
X200750000Y-110500000D02*
G75*
G03*
X200000008Y-111901387I934300J-1401400D01*
G01*
%TO.N,RAW*%
X151925847Y-95808616D02*
X155500000Y-97000000D01*
X150809606Y-94560052D02*
X150619477Y-93621408D01*
X151925847Y-95808616D02*
G75*
G02*
X151199363Y-95333331I538853J1616516D01*
G01*
X151199360Y-95333333D02*
G75*
G02*
X150809609Y-94560051I1218540J1099033D01*
G01*
%TO.N,Bat+*%
X149942475Y-95748814D02*
X150163392Y-95816542D01*
X147835282Y-93083489D02*
X147995620Y-92166978D01*
X148337471Y-94729935D02*
X148300276Y-94688955D01*
X155500000Y-98000000D02*
X152441501Y-96661172D01*
X147835282Y-93083489D02*
G75*
G03*
X148300297Y-94688936I1872818J-327611D01*
G01*
X148337471Y-94729935D02*
G75*
G03*
X149942478Y-95748805I2656629J2411335D01*
G01*
X150163392Y-95816542D02*
G75*
G02*
X152441498Y-96661178I-6189192J-20187658D01*
G01*
%TD*%
M02*
